<svg width="40" height="84" viewBox="0 0 40 84" fill="none" xmlns="http://www.w3.org/2000/svg">
<rect width="40" height="84" fill="black"/>
<path d="M21.9259 12.5124L20.5179 8.66442C20.4486 8.49376 20.3766 8.29109 20.3019 8.05642C20.2273 7.82175 20.1526 7.56842 20.0779 7.29642C20.0086 7.56842 19.9366 7.82442 19.8619 8.06442C19.7873 8.29909 19.7153 8.50442 19.6459 8.68042L18.2459 12.5124H21.9259ZM25.7259 16.8804H24.0619C23.8753 16.8804 23.7233 16.8351 23.6059 16.7444C23.4886 16.6484 23.4006 16.5311 23.3419 16.3924L22.4779 14.0324H17.6859L16.8219 16.3924C16.7793 16.5151 16.6966 16.6271 16.5739 16.7284C16.4513 16.8298 16.2993 16.8804 16.1179 16.8804H14.4379L18.9899 5.31242H21.1819L25.7259 16.8804Z" fill="#0077BB"/>
<path d="M20.3504 35.82C20.7504 35.82 21.0864 35.772 21.3584 35.676C21.6304 35.58 21.8464 35.452 22.0064 35.292C22.1717 35.132 22.289 34.9453 22.3584 34.732C22.433 34.5187 22.4704 34.292 22.4704 34.052C22.4704 33.8013 22.4304 33.5773 22.3504 33.38C22.2704 33.1773 22.145 33.0067 21.9744 32.868C21.8037 32.724 21.5824 32.6147 21.3104 32.54C21.0437 32.4653 20.721 32.428 20.3424 32.428H18.1744V35.82H20.3504ZM18.1744 27.596V30.94H19.8864C20.6224 30.94 21.177 30.8067 21.5504 30.54C21.929 30.2733 22.1184 29.8493 22.1184 29.268C22.1184 28.6653 21.9477 28.236 21.6064 27.98C21.265 27.724 20.7317 27.596 20.0064 27.596H18.1744ZM20.0064 25.932C20.7637 25.932 21.4117 26.004 21.9504 26.148C22.489 26.292 22.929 26.4973 23.2704 26.764C23.617 27.0307 23.8704 27.3533 24.0304 27.732C24.1904 28.1107 24.2704 28.5373 24.2704 29.012C24.2704 29.284 24.2304 29.5453 24.1504 29.796C24.0704 30.0413 23.945 30.2733 23.7744 30.492C23.609 30.7053 23.3957 30.9 23.1344 31.076C22.8784 31.252 22.5717 31.4013 22.2144 31.524C23.8037 31.8813 24.5984 32.74 24.5984 34.1C24.5984 34.5907 24.505 35.044 24.3184 35.46C24.1317 35.876 23.8597 36.236 23.5024 36.54C23.145 36.8387 22.705 37.0733 22.1824 37.244C21.6597 37.4147 21.0624 37.5 20.3904 37.5H16.0224V25.932H20.0064Z" fill="#0077BB"/>
<path d="M21.8453 54.632L20.4373 50.784C20.368 50.6133 20.296 50.4107 20.2213 50.176C20.1466 49.9413 20.072 49.688 19.9973 49.416C19.928 49.688 19.856 49.944 19.7813 50.184C19.7066 50.4187 19.6346 50.624 19.5653 50.8L18.1653 54.632H21.8453ZM25.6453 59H23.9813C23.7946 59 23.6426 58.9547 23.5253 58.864C23.408 58.768 23.32 58.6507 23.2613 58.512L22.3973 56.152H17.6053L16.7413 58.512C16.6986 58.6347 16.616 58.7467 16.4933 58.848C16.3706 58.9493 16.2186 59 16.0373 59H14.3573L18.9093 47.432H21.1013L25.6453 59Z" fill="#0077BB"/>
<path d="M20.431 77.7004C20.831 77.7004 21.167 77.6524 21.439 77.5564C21.711 77.4604 21.927 77.3324 22.087 77.1724C22.2523 77.0124 22.3697 76.8258 22.439 76.6124C22.5137 76.3991 22.551 76.1724 22.551 75.9324C22.551 75.6818 22.511 75.4578 22.431 75.2604C22.351 75.0578 22.2257 74.8871 22.055 74.7484C21.8843 74.6044 21.663 74.4951 21.391 74.4204C21.1243 74.3458 20.8017 74.3084 20.423 74.3084H18.255V77.7004H20.431ZM18.255 69.4764V72.8204H19.967C20.703 72.8204 21.2577 72.6871 21.631 72.4204C22.0097 72.1538 22.199 71.7298 22.199 71.1484C22.199 70.5458 22.0283 70.1164 21.687 69.8604C21.3457 69.6044 20.8123 69.4764 20.087 69.4764H18.255ZM20.087 67.8124C20.8443 67.8124 21.4923 67.8844 22.031 68.0284C22.5697 68.1724 23.0097 68.3778 23.351 68.6444C23.6977 68.9111 23.951 69.2338 24.111 69.6124C24.271 69.9911 24.351 70.4178 24.351 70.8924C24.351 71.1644 24.311 71.4258 24.231 71.6764C24.151 71.9218 24.0257 72.1538 23.855 72.3724C23.6897 72.5858 23.4763 72.7804 23.215 72.9564C22.959 73.1324 22.6523 73.2818 22.295 73.4044C23.8843 73.7618 24.679 74.6204 24.679 75.9804C24.679 76.4711 24.5857 76.9244 24.399 77.3404C24.2123 77.7564 23.9403 78.1164 23.583 78.4204C23.2257 78.7191 22.7857 78.9538 22.263 79.1244C21.7403 79.2951 21.143 79.3804 20.471 79.3804H16.103V67.8124H20.087Z" fill="#0077BB"/>
</svg>
