<svg width="180" height="72" viewBox="0 0 180 72" fill="none" xmlns="http://www.w3.org/2000/svg">
<path fill-rule="evenodd" clip-rule="evenodd" d="M158.952 51.3003C158 51.3003 157.248 52.111 157.248 53.1003C157.248 54.0895 158.017 54.9003 158.952 54.9003C159.904 54.9003 160.656 54.0895 160.656 53.1003C160.672 52.111 159.904 51.3003 158.952 51.3003ZM165.049 51.3003C164.097 51.3003 163.345 52.111 163.345 53.1003C163.345 54.0895 164.113 54.9003 165.049 54.9003C166.001 54.9003 166.752 54.0895 166.752 53.1003C166.752 52.111 166.001 51.3003 165.049 51.3003Z" fill="white"/>
<path fill-rule="evenodd" clip-rule="evenodd" d="M172.916 36.9001H151.084C149.243 36.9001 147.744 38.4733 147.744 40.4227V63.5419C147.744 65.4913 149.243 67.0645 151.084 67.0645H169.56L168.696 63.901L170.782 65.9359L172.753 67.8511L176.256 71.1001V40.4227C176.256 38.4733 174.757 36.9001 172.916 36.9001ZM166.627 59.2327C166.627 59.2327 166.041 58.4974 165.552 57.8476C167.686 57.2149 168.501 55.8127 168.501 55.8127C167.833 56.2744 167.198 56.5993 166.627 56.8216C165.813 57.1807 165.031 57.4201 164.265 57.5569C162.701 57.8647 161.267 57.7792 160.045 57.5398C159.116 57.3517 158.318 57.0781 157.65 56.8045C157.275 56.6506 156.868 56.4625 156.461 56.2231C156.412 56.1889 156.363 56.1718 156.314 56.1376C156.281 56.1205 156.265 56.1034 156.249 56.0863C155.956 55.9153 155.793 55.7956 155.793 55.7956C155.793 55.7956 156.575 57.1636 158.644 57.8134C158.155 58.4632 157.552 59.2327 157.552 59.2327C153.952 59.113 152.583 56.6335 152.583 56.6335C152.583 51.1273 154.929 46.6642 154.929 46.6642C157.275 44.8174 159.507 44.8687 159.507 44.8687L159.67 45.0739C156.738 45.9631 155.385 47.314 155.385 47.314C155.385 47.314 155.744 47.1088 156.347 46.8181C158.09 46.0144 159.475 45.7921 160.045 45.7408C160.143 45.7237 160.224 45.7066 160.322 45.7066C161.316 45.5698 162.44 45.5356 163.613 45.6724C165.161 45.8605 166.823 46.3393 168.517 47.314C168.517 47.314 167.23 46.0315 164.46 45.1423L164.688 44.8687C164.688 44.8687 166.92 44.8174 169.267 46.6642C169.267 46.6642 171.613 51.1273 171.613 56.6335C171.613 56.6335 170.228 59.113 166.627 59.2327Z" fill="white"/>
<path fill-rule="evenodd" clip-rule="evenodd" d="M158.952 15.3003C158 15.3003 157.248 16.111 157.248 17.1003C157.248 18.0895 158.017 18.9003 158.952 18.9003C159.904 18.9003 160.656 18.0895 160.656 17.1003C160.672 16.111 159.904 15.3003 158.952 15.3003ZM165.049 15.3003C164.097 15.3003 163.345 16.111 163.345 17.1003C163.345 18.0895 164.113 18.9003 165.049 18.9003C166.001 18.9003 166.752 18.0895 166.752 17.1003C166.752 16.111 166.001 15.3003 165.049 15.3003Z" fill="#8C8C8C"/>
<path fill-rule="evenodd" clip-rule="evenodd" d="M172.916 0.900146H151.084C149.243 0.900146 147.744 2.47335 147.744 4.42275V27.5419C147.744 29.4913 149.243 31.0645 151.084 31.0645H169.56L168.696 27.901L170.782 29.9359L172.753 31.8511L176.256 35.1001V4.42275C176.256 2.47335 174.757 0.900146 172.916 0.900146ZM166.627 23.2327C166.627 23.2327 166.041 22.4974 165.552 21.8476C167.686 21.2149 168.501 19.8127 168.501 19.8127C167.833 20.2744 167.198 20.5993 166.627 20.8216C165.813 21.1807 165.031 21.4201 164.265 21.5569C162.701 21.8647 161.267 21.7792 160.045 21.5398C159.116 21.3517 158.318 21.0781 157.65 20.8045C157.275 20.6506 156.868 20.4625 156.461 20.2231C156.412 20.1889 156.363 20.1718 156.314 20.1376C156.281 20.1205 156.265 20.1034 156.249 20.0863C155.956 19.9153 155.793 19.7956 155.793 19.7956C155.793 19.7956 156.575 21.1636 158.644 21.8134C158.155 22.4632 157.552 23.2327 157.552 23.2327C153.952 23.113 152.583 20.6335 152.583 20.6335C152.583 15.1273 154.929 10.6642 154.929 10.6642C157.275 8.81745 159.507 8.86875 159.507 8.86875L159.67 9.07395C156.738 9.96315 155.385 11.314 155.385 11.314C155.385 11.314 155.744 11.1088 156.347 10.8181C158.09 10.0144 159.475 9.79215 160.045 9.74085C160.143 9.72375 160.224 9.70665 160.322 9.70665C161.316 9.56985 162.44 9.53565 163.613 9.67245C165.161 9.86055 166.823 10.3393 168.517 11.314C168.517 11.314 167.23 10.0315 164.46 9.14235L164.688 8.86875C164.688 8.86875 166.92 8.81745 169.267 10.6642C169.267 10.6642 171.613 15.1273 171.613 20.6335C171.613 20.6335 170.228 23.113 166.627 23.2327Z" fill="#8C8C8C"/>
<path fill-rule="evenodd" clip-rule="evenodd" d="M131.503 37.2001H140.394L126.697 61.2422C125.915 62.582 125.152 63.6131 124.408 64.3358C123.664 65.0589 122.976 65.5841 122.346 65.9126C121.715 66.2411 121.173 66.432 120.719 66.4839C120.265 66.5367 119.949 66.5628 119.773 66.5628H111.6V45.7924H119.244L119.282 60.0596L131.503 37.2001Z" fill="white"/>
<path fill-rule="evenodd" clip-rule="evenodd" d="M114.466 69.2175C114.478 69.1275 114.463 69.0652 114.42 69.0309H114.422C114.382 69 114.325 68.9842 114.25 68.9842H112.829C112.744 68.9842 112.666 69.0037 112.593 69.0451C112.529 69.079 112.489 69.1204 112.472 69.1675L112.322 69.5994H113.37L113.265 69.9021H112.216L111.894 70.8247H111.601L112.18 69.1675C112.228 69.0328 112.327 68.9161 112.477 68.8195C112.622 68.7267 112.775 68.6796 112.935 68.6796H114.356C114.507 68.6796 114.619 68.7238 114.693 68.809C114.774 68.8962 114.796 69.0328 114.76 69.217H114.466V69.2175Z" fill="white"/>
<path fill-rule="evenodd" clip-rule="evenodd" d="M116.564 69.797C116.57 69.7113 116.544 69.6533 116.49 69.6227C116.469 69.6099 116.446 69.5999 116.421 69.5946C116.394 69.5904 116.368 69.5876 116.339 69.5876H115.653C115.584 69.5876 115.516 69.6018 115.447 69.6299C115.369 69.6603 115.323 69.6999 115.305 69.747L114.929 70.8254H114.636L115.174 69.2856H115.467L115.445 69.35C115.502 69.327 115.556 69.311 115.607 69.3009C115.656 69.2909 115.707 69.2856 115.756 69.2856H116.445C116.575 69.2856 116.682 69.3204 116.765 69.389C116.864 69.4733 116.894 69.6084 116.853 69.797H116.564Z" fill="white"/>
<path fill-rule="evenodd" clip-rule="evenodd" d="M119.165 69.7427C119.115 69.8855 119.006 70.0022 118.839 70.0935C118.702 70.1693 118.562 70.2059 118.421 70.2059H117.734C117.689 70.2059 117.647 70.2017 117.607 70.194C117.567 70.1859 117.519 70.1708 117.463 70.1474L117.391 70.3535L117.39 70.3583C117.38 70.4016 117.403 70.4397 117.462 70.4739C117.488 70.4925 117.514 70.5044 117.541 70.5125C117.569 70.5201 117.596 70.523 117.624 70.523H118.311C118.338 70.523 118.368 70.5201 118.397 70.5159C118.426 70.5107 118.455 70.5015 118.485 70.4888C118.562 70.4573 118.627 70.3992 118.68 70.314H118.97C118.88 70.5011 118.756 70.6358 118.598 70.7196C118.468 70.7897 118.338 70.8254 118.205 70.8254H117.519C117.387 70.8254 117.277 70.7891 117.187 70.7172C117.076 70.6268 117.045 70.5083 117.097 70.3611L117.312 69.7451C117.364 69.599 117.47 69.4827 117.63 69.3962C117.765 69.3228 117.908 69.2856 118.058 69.2856H118.743C118.888 69.2856 119.003 69.3209 119.089 69.3918C119.19 69.4785 119.216 69.5946 119.165 69.7427ZM118.894 69.7572C118.907 69.6957 118.894 69.6422 118.851 69.5949C118.805 69.5357 118.739 69.5056 118.652 69.5056H117.956C117.896 69.5056 117.827 69.5281 117.75 69.5724C117.669 69.6183 117.621 69.6791 117.604 69.7541C117.588 69.827 117.608 69.8871 117.666 69.9351C117.718 69.9825 117.778 70.0056 117.844 70.0056H118.543C118.626 70.0056 118.705 69.9772 118.778 69.9202C118.841 69.8736 118.88 69.8194 118.894 69.7572Z" fill="white"/>
<path fill-rule="evenodd" clip-rule="evenodd" d="M121.464 69.7427C121.415 69.8855 121.306 70.0022 121.139 70.0935C121.001 70.1693 120.862 70.2059 120.721 70.2059H120.034C119.988 70.2059 119.947 70.2017 119.907 70.194C119.867 70.1859 119.819 70.1708 119.763 70.1474L119.691 70.3535L119.69 70.3583C119.679 70.4016 119.703 70.4397 119.762 70.4739C119.787 70.4925 119.814 70.5044 119.841 70.5125C119.869 70.5201 119.896 70.523 119.924 70.523H120.61C120.638 70.523 120.667 70.5201 120.696 70.5159C120.726 70.5107 120.755 70.5015 120.785 70.4888C120.861 70.4573 120.927 70.3992 120.98 70.314H121.27C121.18 70.5011 121.056 70.6358 120.898 70.7196C120.768 70.7897 120.638 70.8254 120.506 70.8254H119.819C119.688 70.8254 119.577 70.7891 119.487 70.7172C119.376 70.6268 119.345 70.5083 119.397 70.3611L119.612 69.7451C119.663 69.599 119.769 69.4827 119.93 69.3962C120.066 69.3228 120.207 69.2856 120.357 69.2856H121.043C121.188 69.2856 121.303 69.3209 121.388 69.3918C121.49 69.4785 121.516 69.5946 121.464 69.7427ZM121.194 69.7572C121.208 69.6957 121.194 69.6422 121.151 69.5949C121.106 69.5357 121.04 69.5056 120.953 69.5056H120.257C120.196 69.5056 120.127 69.5281 120.051 69.5724C119.97 69.6183 119.921 69.6791 119.904 69.7541C119.888 69.827 119.909 69.8871 119.966 69.9351C120.018 69.9825 120.078 70.0056 120.145 70.0056H120.844C120.926 70.0056 121.005 69.9772 121.079 69.9202C121.141 69.8736 121.18 69.8194 121.194 69.7572Z" fill="white"/>
<path fill-rule="evenodd" clip-rule="evenodd" d="M125.882 70.6872C125.743 70.7791 125.591 70.8252 125.429 70.8252H124.004C123.855 70.8252 123.743 70.7833 123.668 70.7001C123.588 70.6101 123.566 70.4719 123.601 70.2873H123.891C123.881 70.3744 123.897 70.4362 123.938 70.4739H123.935C123.978 70.5063 124.036 70.5234 124.11 70.5234H125.535C125.619 70.5234 125.697 70.503 125.769 70.4625C125.835 70.4268 125.876 70.3843 125.893 70.3368L125.979 70.0911C125.995 70.0431 125.983 70.0017 125.942 69.966C125.898 69.925 125.834 69.9045 125.749 69.9045H124.326C124.166 69.9045 124.046 69.8583 123.967 69.7665C123.882 69.6717 123.863 69.5541 123.913 69.4137L123.999 69.1675C124.046 69.0328 124.145 68.9161 124.295 68.8195C124.44 68.7267 124.593 68.6796 124.754 68.6796H126.179C126.329 68.6796 126.44 68.7238 126.513 68.809C126.594 68.8962 126.617 69.0328 126.581 69.217H126.291C126.3 69.1299 126.284 69.0675 126.242 69.0304H126.245C126.206 68.9995 126.148 68.9838 126.073 68.9838H124.647C124.562 68.9838 124.483 69.0033 124.409 69.0447C124.344 69.0784 124.304 69.12 124.288 69.1671L124.202 69.4132C124.185 69.4627 124.196 69.5046 124.235 69.5407C124.279 69.5817 124.344 69.6022 124.431 69.6022H125.857C126.019 69.6022 126.138 69.6484 126.214 69.7398C126.298 69.8368 126.316 69.9531 126.268 70.0906L126.182 70.3363C126.134 70.4754 126.034 70.5934 125.882 70.6872Z" fill="white"/>
<path fill-rule="evenodd" clip-rule="evenodd" d="M128.149 70.7128C128.013 70.7875 127.873 70.8252 127.731 70.8252H127.044C126.904 70.8252 126.791 70.788 126.704 70.7153C126.599 70.6248 126.571 70.5067 126.622 70.3615L126.837 69.7455C126.887 69.6025 126.996 69.486 127.163 69.394C127.301 69.3189 127.441 69.2812 127.584 69.2812H128.27C128.405 69.2812 128.516 69.3165 128.603 69.3875C128.713 69.4788 128.743 69.5968 128.691 69.7431L128.475 70.362C128.425 70.5039 128.317 70.6209 128.149 70.7128ZM128.398 69.7531C128.414 69.7038 128.394 69.6632 128.338 69.6301C128.29 69.6001 128.231 69.5859 128.163 69.5859H127.477C127.408 69.5859 127.341 69.5992 127.275 69.6277C127.195 69.6621 127.147 69.7038 127.131 69.7531L126.914 70.4157C126.898 70.4649 126.918 70.5056 126.975 70.5387C127.025 70.5701 127.084 70.5859 127.148 70.5859H127.836C127.867 70.5859 127.9 70.5822 127.934 70.5752C127.967 70.5675 128.002 70.5574 128.037 70.5417C128.118 70.5067 128.166 70.464 128.183 70.4133L128.398 69.7531Z" fill="white"/>
<path fill-rule="evenodd" clip-rule="evenodd" d="M129.543 69.5877L129.076 70.8255H128.759L129.395 69.1416C129.45 68.9977 129.553 68.8816 129.703 68.7949C129.836 68.7198 130.001 68.6821 130.199 68.6821L130.087 68.9797C129.962 68.9977 129.872 69.0201 129.815 69.0477C129.759 69.0763 129.725 69.1072 129.712 69.1416L129.657 69.2857H129.973L129.859 69.5881H129.543V69.5877Z" fill="white"/>
<path fill-rule="evenodd" clip-rule="evenodd" d="M131.013 69.5881L130.459 70.8259H130.083L130.636 69.5881H130.264L130.399 69.2858H130.771L131.042 68.6803H131.419L131.148 69.2858H131.523L131.387 69.5881H131.013Z" fill="white"/>
<path fill-rule="evenodd" clip-rule="evenodd" d="M133.04 70.7073C132.916 70.7839 132.776 70.8231 132.621 70.8231C132.536 70.8231 132.457 70.8106 132.384 70.7859C132.31 70.7611 132.248 70.7226 132.198 70.6707C132.109 70.7211 132.018 70.7602 131.925 70.7859C131.832 70.8126 131.743 70.8253 131.658 70.8253C131.508 70.8253 131.397 70.7878 131.323 70.713C131.241 70.6269 131.226 70.5102 131.278 70.3617L131.654 69.2857H131.946L131.57 70.3641C131.554 70.4103 131.567 70.4473 131.61 70.4769C131.658 70.5078 131.724 70.5235 131.809 70.5235C131.895 70.5235 131.971 70.5084 132.037 70.4769C132.102 70.4488 132.142 70.4103 132.16 70.3617L132.392 69.6985H132.684L132.452 70.3636C132.435 70.4112 132.449 70.4478 132.493 70.4736C132.541 70.5045 132.604 70.5202 132.687 70.5202C132.774 70.5202 132.852 70.5049 132.917 70.4736C132.983 70.446 133.022 70.4092 133.039 70.3636L133.415 69.2853H133.71L133.334 70.3612C133.284 70.5055 133.185 70.6212 133.04 70.7073Z" fill="white"/>
<path fill-rule="evenodd" clip-rule="evenodd" d="M135.242 70.7152C135.105 70.788 134.963 70.8252 134.817 70.8252H134.131C133.984 70.8252 133.867 70.789 133.783 70.717C133.68 70.6309 133.655 70.5148 133.707 70.3657C133.757 70.2214 133.865 70.1053 134.032 70.0173C134.169 69.942 134.31 69.9049 134.453 69.9049H135.139C135.182 69.9049 135.225 69.9091 135.263 69.9168C135.304 69.9253 135.351 69.9411 135.407 69.9639L135.48 69.7549C135.49 69.7107 135.466 69.6717 135.411 69.6378C135.361 69.6049 135.307 69.5883 135.249 69.5883H134.563C134.533 69.5883 134.503 69.5911 134.475 69.5955C134.446 69.6007 134.416 69.6102 134.386 69.6235C134.31 69.654 134.244 69.7126 134.191 69.7978H133.901C133.993 69.6106 134.116 69.4759 134.272 69.3921C134.401 69.3217 134.533 69.286 134.666 69.286H135.354C135.489 69.286 135.601 69.3213 135.687 69.3921C135.798 69.4807 135.828 69.5992 135.775 69.7477L135.56 70.3644C135.509 70.5096 135.403 70.6261 135.242 70.7152ZM135.289 70.3581C135.305 70.2862 135.284 70.2255 135.227 70.1765C135.175 70.1299 135.117 70.106 135.051 70.106H134.353C134.272 70.106 134.193 70.1353 134.116 70.1916C134.052 70.238 134.014 70.2929 134 70.3544C133.985 70.4182 133.998 70.4738 134.039 70.5211C134.087 70.5774 134.153 70.606 134.238 70.606H134.938C135.007 70.606 135.075 70.5857 135.142 70.5443C135.224 70.4925 135.273 70.4303 135.289 70.3581Z" fill="white"/>
<path fill-rule="evenodd" clip-rule="evenodd" d="M137.773 69.797C137.779 69.7113 137.754 69.6533 137.699 69.6227C137.679 69.6099 137.655 69.5999 137.63 69.5946C137.604 69.5904 137.577 69.5876 137.549 69.5876H136.863C136.794 69.5876 136.725 69.6018 136.658 69.6299C136.579 69.6603 136.532 69.6999 136.515 69.747L136.139 70.8254H135.846L136.383 69.2856H136.676L136.654 69.35C136.712 69.327 136.766 69.311 136.816 69.3009C136.865 69.2909 136.915 69.2856 136.966 69.2856H137.654C137.785 69.2856 137.891 69.3204 137.974 69.389C138.074 69.4733 138.102 69.6084 138.062 69.797H137.773Z" fill="white"/>
<path fill-rule="evenodd" clip-rule="evenodd" d="M140.374 69.7427C140.325 69.8855 140.216 70.0022 140.049 70.0935C139.911 70.1693 139.771 70.2059 139.63 70.2059H138.944C138.898 70.2059 138.856 70.2017 138.817 70.194C138.777 70.1859 138.729 70.1708 138.673 70.1474L138.601 70.3535L138.599 70.3583C138.589 70.4016 138.613 70.4397 138.671 70.4739C138.697 70.4925 138.723 70.5044 138.751 70.5125C138.778 70.5201 138.805 70.523 138.834 70.523H139.52C139.548 70.523 139.577 70.5201 139.606 70.5159C139.635 70.5107 139.665 70.5015 139.694 70.4888C139.771 70.4573 139.836 70.3992 139.889 70.314H140.179C140.089 70.5011 139.965 70.6358 139.807 70.7196C139.677 70.7897 139.547 70.8254 139.415 70.8254H138.728C138.597 70.8254 138.486 70.7891 138.396 70.7172C138.284 70.6268 138.255 70.5083 138.306 70.3611L138.522 69.7451C138.572 69.599 138.678 69.4827 138.839 69.3962C138.974 69.3228 139.117 69.2856 139.266 69.2856H139.953C140.096 69.2856 140.212 69.3209 140.298 69.3918C140.4 69.4785 140.426 69.5946 140.374 69.7427ZM140.103 69.7572C140.117 69.6957 140.103 69.6422 140.061 69.5949C140.015 69.5357 139.949 69.5056 139.862 69.5056H139.167C139.106 69.5056 139.037 69.5281 138.96 69.5724C138.879 69.6183 138.831 69.6791 138.814 69.7541C138.797 69.827 138.818 69.8871 138.876 69.9351C138.928 69.9825 138.987 70.0056 139.055 70.0056H139.753C139.836 70.0056 139.914 69.9772 139.988 69.9202C140.051 69.8736 140.089 69.8194 140.103 69.7572Z" fill="white"/>
<path fill-rule="evenodd" clip-rule="evenodd" d="M140.394 65.0237C140.394 65.4623 140.209 65.8307 139.837 66.1296C139.496 66.4182 139.07 66.563 138.56 66.563H134.067C133.597 66.563 133.198 66.4316 132.871 66.1682C132.519 65.8845 132.297 65.4518 132.202 64.869H133.116C133.181 65.1423 133.299 65.3379 133.472 65.457H133.465C133.633 65.5602 133.834 65.6112 134.066 65.6112H138.559C138.816 65.6112 139.04 65.5493 139.228 65.4255C139.396 65.3123 139.48 65.178 139.48 65.0232V64.2497C139.48 64.1049 139.396 63.9764 139.228 63.8625C139.029 63.7289 138.804 63.6617 138.552 63.6617H136.161V62.7101H138.559C138.821 62.7101 139.045 62.6457 139.228 62.5167C139.396 62.4039 139.48 62.2715 139.48 62.1225V61.3488C139.48 61.2042 139.396 61.0751 139.228 60.9618C139.029 60.8276 138.804 60.7604 138.552 60.7604H134.066C133.838 60.7604 133.64 60.8118 133.472 60.9152H133.48C133.301 61.0238 133.18 61.2194 133.116 61.5032H132.202C132.291 60.9152 132.509 60.4868 132.856 60.2187C133.182 59.9454 133.586 59.8092 134.066 59.8092H138.559C139.06 59.8092 139.485 59.9535 139.837 60.242C140.208 60.5466 140.394 60.9152 140.394 61.3484C140.394 61.725 140.379 62.0678 140.349 62.3768C140.339 62.5314 140.29 62.6738 140.201 62.8028C140.161 62.8595 140.115 62.9186 140.063 62.9808C140.012 63.0428 139.948 63.11 139.874 63.1818C140.018 63.3213 140.127 63.4499 140.201 63.5688C140.285 63.7136 140.335 63.8526 140.349 63.9869C140.38 64.2915 140.394 64.6367 140.394 65.0237Z" fill="white"/>
<path fill-rule="evenodd" clip-rule="evenodd" d="M116.87 61.1758L116.24 61.5866V63.9604L116.87 64.3789V64.9001C116.614 64.7359 116.355 64.5694 116.092 64.3988C115.829 64.2293 115.57 64.0622 115.317 63.898C115.063 63.7343 114.818 63.5747 114.581 63.421C114.344 63.2672 114.121 63.1216 113.912 62.9845C113.832 62.9453 113.792 62.8763 113.792 62.7788C113.792 62.6888 113.832 62.6212 113.912 62.5769L116.871 60.6506V61.1758H116.87ZM115.908 63.6785V61.8766L114.537 62.7022C114.491 62.7292 114.468 62.7535 114.468 62.7754C114.468 62.8001 114.491 62.8244 114.537 62.8487L115.908 63.6785Z" fill="white"/>
<path fill-rule="evenodd" clip-rule="evenodd" d="M116.669 56.5451C116.803 56.7212 116.87 56.934 116.87 57.1839V59.3997C116.87 59.6516 116.804 59.8625 116.673 60.0309C116.536 60.2118 116.369 60.3023 116.169 60.3023H114.492C114.297 60.3023 114.131 60.2118 113.992 60.0309C113.858 59.8548 113.791 59.642 113.791 59.3925V57.1725C113.791 56.9402 113.853 56.7431 113.978 56.5817C114.102 56.4132 114.298 56.3042 114.566 56.2551V56.7065C114.437 56.7378 114.347 56.7978 114.295 56.886C114.25 56.9616 114.228 57.0582 114.228 57.1758V59.3921C114.228 59.5239 114.257 59.6367 114.316 59.7296C114.365 59.8101 114.424 59.8505 114.492 59.8505H116.169C116.239 59.8505 116.3 59.8101 116.351 59.7296L116.348 59.7335C116.407 59.6429 116.436 59.5311 116.436 59.3991V57.1835C116.436 57.0683 116.413 56.9655 116.366 56.8755C116.317 56.7674 116.249 56.7137 116.165 56.7137H115.548V58.5084H115.115V56.2661H116.169C116.364 56.2661 116.531 56.3594 116.669 56.5451Z" fill="white"/>
<path fill-rule="evenodd" clip-rule="evenodd" d="M115.349 51.8078C115.48 51.9763 115.546 52.1887 115.546 52.4429V55.1176H116.87V55.5688H114.493C114.298 55.5688 114.131 55.4783 113.992 55.2974C113.858 55.1213 113.792 54.9085 113.792 54.659V52.4429C113.792 52.1959 113.858 51.9854 113.992 51.8116C114.131 51.6283 114.298 51.5365 114.493 51.5365H114.845C115.045 51.5365 115.213 51.6269 115.349 51.8078ZM114.659 51.9839C114.551 51.9839 114.457 52.0258 114.372 52.1092C114.276 52.202 114.229 52.3135 114.229 52.4429V54.6623C114.229 54.7753 114.265 54.8767 114.337 54.9671C114.41 55.0675 114.517 55.1176 114.659 55.1176H115.669V52.4429C115.669 52.3135 115.623 52.202 115.531 52.1092C115.447 52.0258 115.347 51.9839 115.232 51.9839H114.659Z" fill="white"/>
<path fill-rule="evenodd" clip-rule="evenodd" d="M116.184 46.8069C116.393 46.844 116.56 46.9464 116.687 47.1154C116.81 47.2792 116.871 47.4772 116.871 47.7095V49.9295C116.871 50.1785 116.805 50.3908 116.673 50.5641C116.537 50.7479 116.369 50.8393 116.169 50.8393H113.795V50.3808H116.169C116.239 50.3808 116.301 50.3404 116.352 50.2594L116.349 50.2632C116.407 50.1728 116.436 50.0614 116.436 49.9295V47.7095C116.436 47.5972 116.413 47.4996 116.366 47.4163V47.4196C116.314 47.3315 116.226 47.2715 116.102 47.2401V46.8802L116.184 46.8069Z" fill="white"/>
<path fill-rule="evenodd" clip-rule="evenodd" d="M131.503 1.20007H140.394L126.697 25.2422C125.915 26.582 125.152 27.6131 124.408 28.3358C123.664 29.0589 122.976 29.5841 122.346 29.9126C121.715 30.2411 121.173 30.432 120.719 30.4839C120.265 30.5367 119.949 30.5628 119.773 30.5628H111.6V9.79239H119.244L119.282 24.0596L131.503 1.20007Z" fill="#8C8C8C"/>
<path fill-rule="evenodd" clip-rule="evenodd" d="M114.466 33.2175C114.478 33.1275 114.463 33.0652 114.42 33.0309H114.422C114.382 33 114.325 32.9842 114.25 32.9842H112.829C112.744 32.9842 112.666 33.0037 112.593 33.0451C112.529 33.079 112.489 33.1204 112.472 33.1675L112.322 33.5994H113.37L113.265 33.9021H112.216L111.894 34.8247H111.601L112.18 33.1675C112.228 33.0328 112.327 32.9161 112.477 32.8195C112.622 32.7267 112.775 32.6796 112.935 32.6796H114.356C114.507 32.6796 114.619 32.7238 114.693 32.809C114.774 32.8962 114.796 33.0328 114.76 33.217H114.466V33.2175Z" fill="#8C8C8C"/>
<path fill-rule="evenodd" clip-rule="evenodd" d="M116.564 33.797C116.57 33.7113 116.544 33.6533 116.49 33.6227C116.469 33.6099 116.446 33.5999 116.421 33.5946C116.394 33.5904 116.368 33.5876 116.339 33.5876H115.653C115.584 33.5876 115.516 33.6018 115.447 33.6299C115.369 33.6603 115.323 33.6999 115.305 33.747L114.929 34.8254H114.636L115.174 33.2856H115.467L115.445 33.35C115.502 33.327 115.556 33.311 115.607 33.3009C115.656 33.2909 115.707 33.2856 115.756 33.2856H116.445C116.575 33.2856 116.682 33.3204 116.765 33.389C116.864 33.4733 116.894 33.6084 116.853 33.797H116.564Z" fill="#8C8C8C"/>
<path fill-rule="evenodd" clip-rule="evenodd" d="M119.165 33.7427C119.115 33.8855 119.006 34.0022 118.839 34.0935C118.702 34.1693 118.562 34.2059 118.421 34.2059H117.734C117.689 34.2059 117.647 34.2017 117.607 34.194C117.567 34.1859 117.519 34.1708 117.463 34.1474L117.391 34.3535L117.39 34.3583C117.38 34.4016 117.403 34.4397 117.462 34.4739C117.488 34.4925 117.514 34.5044 117.541 34.5125C117.569 34.5201 117.596 34.523 117.624 34.523H118.311C118.338 34.523 118.368 34.5201 118.397 34.5159C118.426 34.5107 118.455 34.5015 118.485 34.4888C118.562 34.4573 118.627 34.3992 118.68 34.314H118.97C118.88 34.5011 118.756 34.6358 118.598 34.7196C118.468 34.7897 118.338 34.8254 118.205 34.8254H117.519C117.387 34.8254 117.277 34.7891 117.187 34.7172C117.076 34.6268 117.045 34.5083 117.097 34.3611L117.312 33.7451C117.364 33.599 117.47 33.4827 117.63 33.3962C117.765 33.3228 117.908 33.2856 118.058 33.2856H118.743C118.888 33.2856 119.003 33.3209 119.089 33.3918C119.19 33.4785 119.216 33.5946 119.165 33.7427ZM118.894 33.7572C118.907 33.6957 118.894 33.6422 118.851 33.5949C118.805 33.5357 118.739 33.5056 118.652 33.5056H117.956C117.896 33.5056 117.827 33.5281 117.75 33.5724C117.669 33.6183 117.621 33.6791 117.604 33.7541C117.588 33.827 117.608 33.8871 117.666 33.9351C117.718 33.9825 117.778 34.0056 117.844 34.0056H118.543C118.626 34.0056 118.705 33.9772 118.778 33.9202C118.841 33.8736 118.88 33.8194 118.894 33.7572Z" fill="#8C8C8C"/>
<path fill-rule="evenodd" clip-rule="evenodd" d="M121.464 33.7427C121.415 33.8855 121.306 34.0022 121.139 34.0935C121.001 34.1693 120.862 34.2059 120.721 34.2059H120.034C119.988 34.2059 119.947 34.2017 119.907 34.194C119.867 34.1859 119.819 34.1708 119.763 34.1474L119.691 34.3535L119.69 34.3583C119.679 34.4016 119.703 34.4397 119.762 34.4739C119.787 34.4925 119.814 34.5044 119.841 34.5125C119.869 34.5201 119.896 34.523 119.924 34.523H120.61C120.638 34.523 120.667 34.5201 120.696 34.5159C120.726 34.5107 120.755 34.5015 120.785 34.4888C120.861 34.4573 120.927 34.3992 120.98 34.314H121.27C121.18 34.5011 121.056 34.6358 120.898 34.7196C120.768 34.7897 120.638 34.8254 120.506 34.8254H119.819C119.688 34.8254 119.577 34.7891 119.487 34.7172C119.376 34.6268 119.345 34.5083 119.397 34.3611L119.612 33.7451C119.663 33.599 119.769 33.4827 119.93 33.3962C120.066 33.3228 120.207 33.2856 120.357 33.2856H121.043C121.188 33.2856 121.303 33.3209 121.388 33.3918C121.49 33.4785 121.516 33.5946 121.464 33.7427ZM121.194 33.7572C121.208 33.6957 121.194 33.6422 121.151 33.5949C121.106 33.5357 121.04 33.5056 120.953 33.5056H120.257C120.196 33.5056 120.127 33.5281 120.051 33.5724C119.97 33.6183 119.921 33.6791 119.904 33.7541C119.888 33.827 119.909 33.8871 119.966 33.9351C120.018 33.9825 120.078 34.0056 120.145 34.0056H120.844C120.926 34.0056 121.005 33.9772 121.079 33.9202C121.141 33.8736 121.18 33.8194 121.194 33.7572Z" fill="#8C8C8C"/>
<path fill-rule="evenodd" clip-rule="evenodd" d="M125.882 34.6872C125.743 34.7791 125.591 34.8252 125.429 34.8252H124.004C123.855 34.8252 123.743 34.7833 123.668 34.7001C123.588 34.6101 123.566 34.4719 123.601 34.2873H123.891C123.881 34.3744 123.897 34.4362 123.938 34.4739H123.935C123.978 34.5063 124.036 34.5234 124.11 34.5234H125.535C125.619 34.5234 125.697 34.503 125.769 34.4625C125.835 34.4268 125.876 34.3843 125.893 34.3368L125.979 34.0911C125.995 34.0431 125.983 34.0017 125.942 33.966C125.898 33.925 125.834 33.9045 125.749 33.9045H124.326C124.166 33.9045 124.046 33.8583 123.967 33.7665C123.882 33.6717 123.863 33.5541 123.913 33.4137L123.999 33.1675C124.046 33.0328 124.145 32.9161 124.295 32.8195C124.44 32.7267 124.593 32.6796 124.754 32.6796H126.179C126.329 32.6796 126.44 32.7238 126.513 32.809C126.594 32.8962 126.617 33.0328 126.581 33.217H126.291C126.3 33.1299 126.284 33.0675 126.242 33.0304H126.245C126.206 32.9995 126.148 32.9838 126.073 32.9838H124.647C124.562 32.9838 124.483 33.0033 124.409 33.0447C124.344 33.0784 124.304 33.12 124.288 33.1671L124.202 33.4132C124.185 33.4627 124.196 33.5046 124.235 33.5407C124.279 33.5817 124.344 33.6022 124.431 33.6022H125.857C126.019 33.6022 126.138 33.6484 126.214 33.7398C126.298 33.8368 126.316 33.9531 126.268 34.0906L126.182 34.3363C126.134 34.4754 126.034 34.5934 125.882 34.6872Z" fill="#8C8C8C"/>
<path fill-rule="evenodd" clip-rule="evenodd" d="M128.149 34.7128C128.013 34.7875 127.873 34.8252 127.731 34.8252H127.044C126.904 34.8252 126.791 34.788 126.704 34.7153C126.599 34.6248 126.571 34.5067 126.622 34.3615L126.837 33.7455C126.887 33.6025 126.996 33.486 127.163 33.394C127.301 33.3189 127.441 33.2812 127.584 33.2812H128.27C128.405 33.2812 128.516 33.3165 128.603 33.3875C128.713 33.4788 128.743 33.5968 128.691 33.7431L128.475 34.362C128.425 34.5039 128.317 34.6209 128.149 34.7128ZM128.398 33.7531C128.414 33.7038 128.394 33.6632 128.338 33.6301C128.29 33.6001 128.231 33.5859 128.163 33.5859H127.477C127.408 33.5859 127.341 33.5992 127.275 33.6277C127.195 33.6621 127.147 33.7038 127.131 33.7531L126.914 34.4157C126.898 34.4649 126.918 34.5056 126.975 34.5387C127.025 34.5701 127.084 34.5859 127.148 34.5859H127.836C127.867 34.5859 127.9 34.5822 127.934 34.5752C127.967 34.5675 128.002 34.5574 128.037 34.5417C128.118 34.5067 128.166 34.464 128.183 34.4133L128.398 33.7531Z" fill="#8C8C8C"/>
<path fill-rule="evenodd" clip-rule="evenodd" d="M129.543 33.5877L129.076 34.8255H128.759L129.395 33.1416C129.45 32.9977 129.553 32.8816 129.703 32.7949C129.836 32.7198 130.001 32.6821 130.199 32.6821L130.087 32.9797C129.962 32.9977 129.872 33.0201 129.815 33.0477C129.759 33.0763 129.725 33.1072 129.712 33.1416L129.657 33.2857H129.973L129.859 33.5881H129.543V33.5877Z" fill="#8C8C8C"/>
<path fill-rule="evenodd" clip-rule="evenodd" d="M131.013 33.5881L130.459 34.8259H130.083L130.636 33.5881H130.264L130.399 33.2858H130.771L131.042 32.6803H131.419L131.148 33.2858H131.523L131.387 33.5881H131.013Z" fill="#8C8C8C"/>
<path fill-rule="evenodd" clip-rule="evenodd" d="M133.04 34.7073C132.916 34.7839 132.776 34.8231 132.621 34.8231C132.536 34.8231 132.457 34.8106 132.384 34.7859C132.31 34.7611 132.248 34.7226 132.198 34.6707C132.109 34.7211 132.018 34.7602 131.925 34.7859C131.832 34.8126 131.743 34.8253 131.658 34.8253C131.508 34.8253 131.397 34.7878 131.323 34.713C131.241 34.6269 131.226 34.5102 131.278 34.3617L131.654 33.2857H131.946L131.57 34.3641C131.554 34.4103 131.567 34.4473 131.61 34.4769C131.658 34.5078 131.724 34.5235 131.809 34.5235C131.895 34.5235 131.971 34.5084 132.037 34.4769C132.102 34.4488 132.142 34.4103 132.16 34.3617L132.392 33.6985H132.684L132.452 34.3636C132.435 34.4112 132.449 34.4478 132.493 34.4736C132.541 34.5045 132.604 34.5202 132.687 34.5202C132.774 34.5202 132.852 34.5049 132.917 34.4736C132.983 34.446 133.022 34.4092 133.039 34.3636L133.415 33.2853H133.71L133.334 34.3612C133.284 34.5055 133.185 34.6212 133.04 34.7073Z" fill="#8C8C8C"/>
<path fill-rule="evenodd" clip-rule="evenodd" d="M135.242 34.7152C135.105 34.788 134.963 34.8252 134.817 34.8252H134.131C133.984 34.8252 133.867 34.789 133.783 34.717C133.68 34.6309 133.655 34.5148 133.707 34.3657C133.757 34.2214 133.865 34.1053 134.032 34.0173C134.169 33.942 134.31 33.9049 134.453 33.9049H135.139C135.182 33.9049 135.225 33.9091 135.263 33.9168C135.304 33.9253 135.351 33.9411 135.407 33.9639L135.48 33.7549C135.49 33.7107 135.466 33.6717 135.411 33.6378C135.361 33.6049 135.307 33.5883 135.249 33.5883H134.563C134.533 33.5883 134.503 33.5911 134.475 33.5955C134.446 33.6007 134.416 33.6102 134.386 33.6235C134.31 33.654 134.244 33.7126 134.191 33.7978H133.901C133.993 33.6106 134.116 33.4759 134.272 33.3921C134.401 33.3217 134.533 33.286 134.666 33.286H135.354C135.489 33.286 135.601 33.3213 135.687 33.3921C135.798 33.4807 135.828 33.5992 135.775 33.7477L135.56 34.3644C135.509 34.5096 135.403 34.6261 135.242 34.7152ZM135.289 34.3581C135.305 34.2862 135.284 34.2255 135.227 34.1765C135.175 34.1299 135.117 34.106 135.051 34.106H134.353C134.272 34.106 134.193 34.1353 134.116 34.1916C134.052 34.238 134.014 34.2929 134 34.3544C133.985 34.4182 133.998 34.4738 134.039 34.5211C134.087 34.5774 134.153 34.606 134.238 34.606H134.938C135.007 34.606 135.075 34.5857 135.142 34.5443C135.224 34.4925 135.273 34.4303 135.289 34.3581Z" fill="#8C8C8C"/>
<path fill-rule="evenodd" clip-rule="evenodd" d="M137.773 33.797C137.779 33.7113 137.754 33.6533 137.699 33.6227C137.679 33.6099 137.655 33.5999 137.63 33.5946C137.604 33.5904 137.577 33.5876 137.549 33.5876H136.863C136.794 33.5876 136.725 33.6018 136.658 33.6299C136.579 33.6603 136.532 33.6999 136.515 33.747L136.139 34.8254H135.846L136.383 33.2856H136.676L136.654 33.35C136.712 33.327 136.766 33.311 136.816 33.3009C136.865 33.2909 136.915 33.2856 136.966 33.2856H137.654C137.785 33.2856 137.891 33.3204 137.974 33.389C138.074 33.4733 138.102 33.6084 138.062 33.797H137.773Z" fill="#8C8C8C"/>
<path fill-rule="evenodd" clip-rule="evenodd" d="M140.374 33.7427C140.325 33.8855 140.216 34.0022 140.049 34.0935C139.911 34.1693 139.771 34.2059 139.63 34.2059H138.944C138.898 34.2059 138.856 34.2017 138.817 34.194C138.777 34.1859 138.729 34.1708 138.673 34.1474L138.601 34.3535L138.599 34.3583C138.589 34.4016 138.613 34.4397 138.671 34.4739C138.697 34.4925 138.723 34.5044 138.751 34.5125C138.778 34.5201 138.805 34.523 138.834 34.523H139.52C139.548 34.523 139.577 34.5201 139.606 34.5159C139.635 34.5107 139.665 34.5015 139.694 34.4888C139.771 34.4573 139.836 34.3992 139.889 34.314H140.179C140.089 34.5011 139.965 34.6358 139.807 34.7196C139.677 34.7897 139.547 34.8254 139.415 34.8254H138.728C138.597 34.8254 138.486 34.7891 138.396 34.7172C138.284 34.6268 138.255 34.5083 138.306 34.3611L138.522 33.7451C138.572 33.599 138.678 33.4827 138.839 33.3962C138.974 33.3228 139.117 33.2856 139.266 33.2856H139.953C140.096 33.2856 140.212 33.3209 140.298 33.3918C140.4 33.4785 140.426 33.5946 140.374 33.7427ZM140.103 33.7572C140.117 33.6957 140.103 33.6422 140.061 33.5949C140.015 33.5357 139.949 33.5056 139.862 33.5056H139.167C139.106 33.5056 139.037 33.5281 138.96 33.5724C138.879 33.6183 138.831 33.6791 138.814 33.7541C138.797 33.827 138.818 33.8871 138.876 33.9351C138.928 33.9825 138.987 34.0056 139.055 34.0056H139.753C139.836 34.0056 139.914 33.9772 139.988 33.9202C140.051 33.8736 140.089 33.8194 140.103 33.7572Z" fill="#8C8C8C"/>
<path fill-rule="evenodd" clip-rule="evenodd" d="M140.394 29.0237C140.394 29.4623 140.209 29.8307 139.837 30.1296C139.496 30.4182 139.07 30.563 138.56 30.563H134.067C133.597 30.563 133.198 30.4316 132.871 30.1682C132.519 29.8845 132.297 29.4518 132.202 28.869H133.116C133.181 29.1423 133.299 29.3379 133.472 29.457H133.465C133.633 29.5602 133.834 29.6112 134.066 29.6112H138.559C138.816 29.6112 139.04 29.5493 139.228 29.4255C139.396 29.3123 139.48 29.178 139.48 29.0232V28.2497C139.48 28.1049 139.396 27.9764 139.228 27.8625C139.029 27.7289 138.804 27.6617 138.552 27.6617H136.161V26.7101H138.559C138.821 26.7101 139.045 26.6457 139.228 26.5167C139.396 26.4039 139.48 26.2715 139.48 26.1225V25.3488C139.48 25.2042 139.396 25.0751 139.228 24.9618C139.029 24.8276 138.804 24.7604 138.552 24.7604H134.066C133.838 24.7604 133.64 24.8118 133.472 24.9152H133.48C133.301 25.0238 133.18 25.2194 133.116 25.5032H132.202C132.291 24.9152 132.509 24.4868 132.856 24.2187C133.182 23.9454 133.586 23.8092 134.066 23.8092H138.559C139.06 23.8092 139.485 23.9535 139.837 24.242C140.208 24.5466 140.394 24.9152 140.394 25.3484C140.394 25.725 140.379 26.0678 140.349 26.3768C140.339 26.5314 140.29 26.6738 140.201 26.8028C140.161 26.8595 140.115 26.9186 140.063 26.9808C140.012 27.0428 139.948 27.11 139.874 27.1818C140.018 27.3213 140.127 27.4499 140.201 27.5688C140.285 27.7136 140.335 27.8526 140.349 27.9869C140.38 28.2915 140.394 28.6367 140.394 29.0237Z" fill="#8C8C8C"/>
<path fill-rule="evenodd" clip-rule="evenodd" d="M116.87 25.1758L116.24 25.5866V27.9604L116.87 28.3789V28.9001C116.614 28.7359 116.355 28.5694 116.092 28.3988C115.829 28.2293 115.57 28.0622 115.317 27.898C115.063 27.7343 114.818 27.5747 114.581 27.421C114.344 27.2672 114.121 27.1216 113.912 26.9845C113.832 26.9453 113.792 26.8763 113.792 26.7788C113.792 26.6888 113.832 26.6212 113.912 26.5769L116.871 24.6506V25.1758H116.87ZM115.908 27.6785V25.8766L114.537 26.7022C114.491 26.7292 114.468 26.7535 114.468 26.7754C114.468 26.8001 114.491 26.8244 114.537 26.8487L115.908 27.6785Z" fill="#8C8C8C"/>
<path fill-rule="evenodd" clip-rule="evenodd" d="M116.669 20.5451C116.803 20.7212 116.87 20.934 116.87 21.1839V23.3997C116.87 23.6516 116.804 23.8625 116.673 24.0309C116.536 24.2118 116.369 24.3023 116.169 24.3023H114.492C114.297 24.3023 114.131 24.2118 113.992 24.0309C113.858 23.8548 113.791 23.642 113.791 23.3925V21.1725C113.791 20.9402 113.853 20.7431 113.978 20.5817C114.102 20.4132 114.298 20.3042 114.566 20.2551V20.7065C114.437 20.7378 114.347 20.7978 114.295 20.886C114.25 20.9616 114.228 21.0582 114.228 21.1758V23.3921C114.228 23.5239 114.257 23.6367 114.316 23.7296C114.365 23.8101 114.424 23.8505 114.492 23.8505H116.169C116.239 23.8505 116.3 23.8101 116.351 23.7296L116.348 23.7335C116.407 23.6429 116.436 23.5311 116.436 23.3991V21.1835C116.436 21.0683 116.413 20.9655 116.366 20.8755C116.317 20.7674 116.249 20.7137 116.165 20.7137H115.548V22.5084H115.115V20.2661H116.169C116.364 20.2661 116.531 20.3594 116.669 20.5451Z" fill="#8C8C8C"/>
<path fill-rule="evenodd" clip-rule="evenodd" d="M115.349 15.8078C115.48 15.9763 115.546 16.1887 115.546 16.4429V19.1176H116.87V19.5688H114.493C114.298 19.5688 114.131 19.4783 113.992 19.2974C113.858 19.1213 113.792 18.9085 113.792 18.659V16.4429C113.792 16.1959 113.858 15.9854 113.992 15.8116C114.131 15.6283 114.298 15.5365 114.493 15.5365H114.845C115.045 15.5365 115.213 15.6269 115.349 15.8078ZM114.659 15.9839C114.551 15.9839 114.457 16.0258 114.372 16.1092C114.276 16.202 114.229 16.3135 114.229 16.4429V18.6623C114.229 18.7753 114.265 18.8767 114.337 18.9671C114.41 19.0675 114.517 19.1176 114.659 19.1176H115.669V16.4429C115.669 16.3135 115.623 16.202 115.531 16.1092C115.447 16.0258 115.347 15.9839 115.232 15.9839H114.659Z" fill="#8C8C8C"/>
<path fill-rule="evenodd" clip-rule="evenodd" d="M116.184 10.8069C116.393 10.844 116.56 10.9464 116.687 11.1154C116.81 11.2792 116.871 11.4772 116.871 11.7095V13.9295C116.871 14.1785 116.805 14.3908 116.673 14.5641C116.537 14.7479 116.369 14.8393 116.169 14.8393H113.795V14.3808H116.169C116.239 14.3808 116.301 14.3404 116.352 14.2594L116.349 14.2632C116.407 14.1728 116.436 14.0614 116.436 13.9295V11.7095C116.436 11.5972 116.413 11.4996 116.366 11.4163V11.4196C116.314 11.3315 116.226 11.2715 116.102 11.2401V10.8802L116.184 10.8069Z" fill="#8C8C8C"/>
<path fill-rule="evenodd" clip-rule="evenodd" d="M107.5 71.5H72.5V36.5H107.5V71.5Z" stroke="white"/>
<path fill-rule="evenodd" clip-rule="evenodd" d="M80.7891 51.4237C80.7891 53.5307 81.5202 55.5941 82.8472 57.2266L83.8831 56.3835C82.747 54.9881 82.1227 53.2267 82.1227 51.4237C82.1227 49.6224 82.7446 47.8619 83.8774 46.4681L82.8406 45.627C81.5187 47.2599 80.7891 49.3182 80.7891 51.4237Z" fill="white"/>
<path fill-rule="evenodd" clip-rule="evenodd" d="M78.2405 51.4236C78.2405 54.1094 79.1701 56.735 80.8577 58.8197L81.8922 57.98C80.3964 56.1324 79.5713 53.8048 79.5713 51.4236C79.5713 49.0415 80.3931 46.7149 81.8874 44.8697L80.8501 44.0298C79.1667 46.1123 78.2405 48.7371 78.2405 51.4236" fill="white"/>
<path fill-rule="evenodd" clip-rule="evenodd" d="M75.7173 51.4237C75.7173 54.6871 76.8491 57.8779 78.9011 60.4115L79.9389 59.5713C78.0788 57.2751 77.0523 54.3812 77.0523 51.4237C77.0523 48.4674 78.0736 45.5783 79.9271 43.2879L78.8893 42.447C76.8444 44.976 75.7173 48.1639 75.7173 51.4237Z" fill="white"/>
<path fill-rule="evenodd" clip-rule="evenodd" d="M96.1108 46.4681C97.2404 47.8619 97.8625 49.6224 97.8625 51.4237C97.8625 53.2267 97.2372 54.9882 96.1033 56.3835L97.1378 57.2266C98.4669 55.5941 99.1988 53.5307 99.1988 51.4237C99.1988 49.3182 98.4695 47.2599 97.1465 45.627L96.1108 46.4681" fill="white"/>
<path fill-rule="evenodd" clip-rule="evenodd" d="M98.0995 44.8697C99.591 46.7149 100.414 49.0415 100.414 51.4236C100.414 53.8048 99.5896 56.1324 98.093 57.98L99.1298 58.8197C100.818 56.735 101.747 54.1094 101.747 51.4236C101.747 48.7371 100.818 46.1123 99.1354 44.0298L98.0995 44.8697Z" fill="white"/>
<path fill-rule="evenodd" clip-rule="evenodd" d="M100.06 43.2879C101.913 45.5783 102.933 48.4674 102.933 51.4237C102.933 54.3812 101.908 57.2751 100.049 59.5713L101.085 60.4115C103.137 57.8779 104.27 54.6871 104.27 51.4237C104.27 48.1639 103.143 44.976 101.098 42.447L100.06 43.2879" fill="white"/>
<path fill-rule="evenodd" clip-rule="evenodd" d="M83.9678 51.4237C83.9678 54.7462 86.6705 57.4506 89.9933 57.4506C93.3165 57.4506 96.0188 54.7462 96.0188 51.4237C96.0188 48.0988 93.3165 45.3954 89.9933 45.3954C86.6705 45.3954 83.9678 48.0988 83.9678 51.4237H83.9678ZM85.2428 51.4237C85.2428 48.804 87.3751 46.6738 89.9933 46.6738C92.6114 46.6738 94.7409 48.804 94.7409 51.4237C94.7409 54.043 92.6114 56.1722 89.9933 56.1722C87.3751 56.1722 85.2428 54.043 85.2428 51.4237Z" fill="white"/>
<path fill-rule="evenodd" clip-rule="evenodd" d="M79.0832 68.011H78.4163L78.051 66.8691H76.7826L76.4357 68.011H75.7869L77.0425 64.1085H77.819L79.0832 68.011ZM77.9433 66.3909L77.6125 65.3666C77.5775 65.264 77.5113 65.0174 77.4159 64.6293H77.4045C77.3639 64.7958 77.3034 65.0411 77.2178 65.3666L76.8941 66.3909H77.9433Z" fill="white"/>
<path fill-rule="evenodd" clip-rule="evenodd" d="M81.9101 68.011H81.3595L81.3255 67.5881H81.3156C81.1156 67.9109 80.8203 68.0725 80.4205 68.0725C80.1412 68.0725 79.9219 67.9883 79.7555 67.8201C79.5566 67.6055 79.4592 67.2832 79.4592 66.856V65.1951H80.0859V66.7496C80.0859 67.2907 80.273 67.5626 80.6397 67.5626C80.9162 67.5626 81.1095 67.4245 81.2172 67.1551C81.2442 67.0867 81.2579 67.0073 81.2579 66.917V65.1951H81.885V67.2038C81.885 67.47 81.8931 67.7398 81.9101 68.011Z" fill="white"/>
<path fill-rule="evenodd" clip-rule="evenodd" d="M85.1941 68.0111H84.6369L84.6076 67.5644H84.5915C84.4134 67.9048 84.1114 68.0725 83.687 68.0725C83.3472 68.0725 83.0641 67.9397 82.8406 67.6754C82.6147 67.41 82.5027 67.0683 82.5027 66.64C82.5027 66.1853 82.626 65.8177 82.8699 65.5363C83.1085 65.2733 83.3992 65.1409 83.7446 65.1409C84.1251 65.1409 84.3916 65.2708 84.5429 65.5252V63.9097H85.1714V67.2563C85.1714 67.531 85.1775 67.7838 85.1941 68.0111V68.0111ZM84.5429 66.8295V66.3607C84.5429 66.2789 84.5372 66.2126 84.5249 66.1625C84.4909 66.0132 84.4162 65.8848 84.299 65.7841C84.1823 65.68 84.0443 65.628 83.8817 65.628C83.6497 65.628 83.4644 65.7217 83.3326 65.9075C83.1979 66.0936 83.1331 66.3324 83.1331 66.6206C83.1331 66.8975 83.1955 67.1269 83.3231 67.2989C83.4578 67.484 83.6412 67.5782 83.8713 67.5782C84.075 67.5782 84.238 67.5002 84.3642 67.3451C84.4828 67.2014 84.5429 67.0308 84.5429 66.8295" fill="white"/>
<path fill-rule="evenodd" clip-rule="evenodd" d="M86.6493 64.3539C86.6493 64.4676 86.612 64.5576 86.5387 64.6261C86.4659 64.6975 86.37 64.7304 86.2538 64.7304C86.1498 64.7304 86.0623 64.6965 85.9891 64.6227C85.9187 64.5528 85.8813 64.4625 85.8813 64.3539C85.8813 64.2484 85.9187 64.1572 85.9915 64.0882C86.0647 64.0183 86.1573 63.9841 86.266 63.9841C86.3747 63.9841 86.4659 64.0183 86.5387 64.0882C86.612 64.1572 86.6493 64.2484 86.6493 64.3539L86.6493 64.3539ZM86.5794 68.011H85.9527V65.195H86.5794V68.011Z" fill="white"/>
<path fill-rule="evenodd" clip-rule="evenodd" d="M89.9446 66.5845C89.9446 67.0172 89.8222 67.3734 89.5745 67.6515C89.316 67.9322 88.972 68.0725 88.5429 68.0725C88.1279 68.0725 87.799 67.9363 87.5533 67.664C87.3094 67.3918 87.187 67.0492 87.187 66.6286C87.187 66.1952 87.3118 65.8371 87.5651 65.5581C87.8189 65.2822 88.1596 65.1409 88.5887 65.1409C89.0027 65.1409 89.334 65.2807 89.5873 65.5544C89.8259 65.8189 89.9446 66.1625 89.9446 66.5845ZM89.2966 66.6012C89.2966 66.3426 89.2404 66.1207 89.1279 65.9343C88.997 65.7103 88.8094 65.5972 88.5651 65.5972C88.3141 65.5972 88.1232 65.7103 87.9923 65.9343C87.8793 66.1207 87.8236 66.3484 87.8236 66.6126C87.8236 66.8706 87.8793 67.0956 87.9923 67.2795C88.1256 67.5024 88.3155 67.6168 88.5608 67.6168C88.8004 67.6168 88.9871 67.5012 89.1218 67.2737C89.238 67.0862 89.2966 66.8602 89.2966 66.6012Z" fill="white"/>
<path fill-rule="evenodd" clip-rule="evenodd" d="M94.8509 66.3762C94.8509 66.9504 94.7105 67.3848 94.4327 67.6722C94.178 67.9387 93.8183 68.0725 93.3538 68.0725C92.402 68.0725 91.9275 67.5106 91.9275 66.3875V64.1085H92.556V66.4202C92.556 66.8035 92.6326 67.0956 92.7862 67.2906C92.9265 67.475 93.1213 67.5701 93.3774 67.5701C93.9407 67.5701 94.2224 67.1868 94.2224 66.4202V64.1085H94.8509V66.3762Z" fill="white"/>
<path fill-rule="evenodd" clip-rule="evenodd" d="M98.0783 68.011H97.45V66.4004C97.45 65.9002 97.2617 65.6517 96.8833 65.6517C96.697 65.6517 96.5452 65.7216 96.428 65.8586C96.3127 65.9963 96.255 66.1579 96.255 66.3426V68.011H95.626V66.0023C95.626 65.7548 95.6185 65.4876 95.6047 65.1951H96.1553L96.1846 65.6314H96.2026C96.2772 65.5005 96.3845 65.386 96.5272 65.2977C96.6989 65.1936 96.8879 65.1409 97.0974 65.1409C97.3595 65.1409 97.5784 65.2263 97.7529 65.3964C97.9697 65.604 98.0783 65.9155 98.0783 66.3314V68.011" fill="white"/>
<path fill-rule="evenodd" clip-rule="evenodd" d="M99.497 64.3539C99.497 64.4676 99.4617 64.5576 99.3874 64.6261C99.3138 64.6975 99.2178 64.7304 99.1011 64.7304C98.9971 64.7304 98.9083 64.6965 98.8355 64.6227C98.7655 64.5528 98.7292 64.4625 98.7292 64.3539C98.7292 64.2484 98.7665 64.1572 98.8389 64.0882C98.9134 64.0183 99.0041 63.9841 99.113 63.9841C99.2221 63.9841 99.3138 64.0183 99.3874 64.0882C99.4617 64.1572 99.497 64.2484 99.497 64.3539V64.3539ZM99.428 68.011H98.7987V65.195H99.428V68.011Z" fill="white"/>
<path fill-rule="evenodd" clip-rule="evenodd" d="M101.635 65.6677H100.944V67.0342C100.944 67.3807 101.065 67.553 101.31 67.553C101.421 67.553 101.513 67.5474 101.588 67.5295L101.606 68.0031C101.482 68.0428 101.318 68.0655 101.119 68.0655C100.87 68.0655 100.678 67.9917 100.539 67.8448C100.398 67.6926 100.33 67.4412 100.33 67.0898V65.6677H99.9187V65.1951H100.33V64.6838L100.944 64.4994V65.1951H101.635V65.6677Z" fill="white"/>
<path fill-rule="evenodd" clip-rule="evenodd" d="M103.901 67.2014C103.901 67.4651 103.804 67.6732 103.61 67.8315C103.418 67.9883 103.151 68.0655 102.811 68.0655C102.49 68.0655 102.217 68.0045 101.993 67.8835L102.126 67.4175C102.344 67.5498 102.571 67.6169 102.816 67.6169C103.135 67.6169 103.295 67.4968 103.295 67.2604C103.295 67.1585 103.259 67.0729 103.191 67.0058C103.122 66.9359 102.999 66.8691 102.821 66.806C102.321 66.6182 102.071 66.3493 102.071 65.9919C102.071 65.749 102.162 65.5476 102.348 65.3829C102.533 65.2222 102.778 65.1409 103.083 65.1409C103.362 65.1409 103.599 65.1975 103.795 65.31L103.662 65.7548C103.484 65.6447 103.292 65.5907 103.092 65.5907C102.961 65.5907 102.857 65.62 102.784 65.6834C102.711 65.7468 102.675 65.8257 102.675 65.9215C102.675 66.0202 102.715 66.0974 102.79 66.1579C102.855 66.217 102.984 66.2825 103.172 66.3518C103.657 66.5359 103.901 66.8205 103.901 67.2014" fill="white"/>
<path fill-rule="evenodd" clip-rule="evenodd" d="M107.5 35.5H72.5V0.5H107.5V35.5Z" stroke="#8C8C8C"/>
<path fill-rule="evenodd" clip-rule="evenodd" d="M80.7891 15.4237C80.7891 17.5307 81.5202 19.5941 82.8472 21.2266L83.8831 20.3835C82.747 18.9881 82.1227 17.2267 82.1227 15.4237C82.1227 13.6224 82.7446 11.8619 83.8774 10.4681L82.8406 9.62695C81.5187 11.2599 80.7891 13.3182 80.7891 15.4237Z" fill="#8C8C8C"/>
<path fill-rule="evenodd" clip-rule="evenodd" d="M78.2405 15.4238C78.2405 18.1095 79.1701 20.7351 80.8577 22.8198L81.8922 21.9801C80.3964 20.1325 79.5713 17.8049 79.5713 15.4238C79.5713 13.0417 80.3931 10.715 81.8874 8.86984L80.8501 8.02991C79.1667 10.1124 78.2405 12.7372 78.2405 15.4238" fill="#8C8C8C"/>
<path fill-rule="evenodd" clip-rule="evenodd" d="M75.7173 15.4237C75.7173 18.6871 76.8491 21.8779 78.9011 24.4115L79.9389 23.5713C78.0788 21.2751 77.0523 18.3812 77.0523 15.4237C77.0523 12.4674 78.0736 9.57831 79.9271 7.28792L78.8893 6.44702C76.8444 8.97601 75.7173 12.1639 75.7173 15.4237Z" fill="#8C8C8C"/>
<path fill-rule="evenodd" clip-rule="evenodd" d="M96.1108 10.4681C97.2404 11.8619 97.8625 13.6224 97.8625 15.4237C97.8625 17.2267 97.2372 18.9882 96.1033 20.3835L97.1378 21.2266C98.4669 19.5941 99.1988 17.5307 99.1988 15.4237C99.1988 13.3182 98.4695 11.2599 97.1465 9.62695L96.1108 10.4681" fill="#8C8C8C"/>
<path fill-rule="evenodd" clip-rule="evenodd" d="M98.0995 8.86972C99.591 10.7149 100.414 13.0415 100.414 15.4236C100.414 17.8048 99.5896 20.1324 98.093 21.98L99.1298 22.8197C100.818 20.735 101.747 18.1094 101.747 15.4236C101.747 12.7371 100.818 10.1123 99.1354 8.02979L98.0995 8.86972Z" fill="#8C8C8C"/>
<path fill-rule="evenodd" clip-rule="evenodd" d="M100.06 7.28793C101.913 9.57831 102.933 12.4674 102.933 15.4237C102.933 18.3812 101.908 21.2751 100.049 23.5713L101.085 24.4115C103.137 21.8779 104.27 18.6871 104.27 15.4237C104.27 12.1639 103.143 8.97601 101.098 6.44702L100.06 7.28792" fill="#8C8C8C"/>
<path fill-rule="evenodd" clip-rule="evenodd" d="M83.9678 15.4237C83.9678 18.7462 86.6705 21.4506 89.9933 21.4506C93.3165 21.4506 96.0188 18.7462 96.0188 15.4237C96.0188 12.0988 93.3165 9.39539 89.9933 9.39539C86.6705 9.39539 83.9678 12.0988 83.9678 15.4237H83.9678ZM85.2428 15.4237C85.2428 12.804 87.3751 10.6738 89.9932 10.6738C92.6114 10.6738 94.7409 12.804 94.7409 15.4237C94.7409 18.043 92.6114 20.1722 89.9932 20.1722C87.3751 20.1722 85.2428 18.043 85.2428 15.4237Z" fill="#8C8C8C"/>
<path fill-rule="evenodd" clip-rule="evenodd" d="M79.0832 32.011H78.4163L78.051 30.8691H76.7826L76.4357 32.011H75.7869L77.0425 28.1085H77.819L79.0832 32.011ZM77.9433 30.3909L77.6125 29.3666C77.5775 29.264 77.5113 29.0174 77.4159 28.6293H77.4045C77.3639 28.7958 77.3034 29.0411 77.2179 29.3666L76.8941 30.3909H77.9433Z" fill="#8C8C8C"/>
<path fill-rule="evenodd" clip-rule="evenodd" d="M81.9101 32.011H81.3595L81.3255 31.5881H81.3156C81.1156 31.9109 80.8203 32.0725 80.4205 32.0725C80.1412 32.0725 79.9219 31.9883 79.7555 31.8201C79.5566 31.6055 79.4592 31.2832 79.4592 30.8561V29.1951H80.0859V30.7496C80.0859 31.2907 80.273 31.5626 80.6397 31.5626C80.9162 31.5626 81.1095 31.4245 81.2172 31.1551C81.2442 31.0867 81.2579 31.0073 81.2579 30.917V29.1951H81.885V31.2038C81.885 31.47 81.8931 31.7398 81.9101 32.011Z" fill="#8C8C8C"/>
<path fill-rule="evenodd" clip-rule="evenodd" d="M85.1941 32.0111H84.6369L84.6076 31.5644H84.5915C84.4134 31.9048 84.1114 32.0725 83.687 32.0725C83.3472 32.0725 83.0641 31.9397 82.8406 31.6754C82.6147 31.41 82.5027 31.0683 82.5027 30.64C82.5027 30.1853 82.626 29.8177 82.8699 29.5363C83.1085 29.2733 83.3992 29.1409 83.7446 29.1409C84.1251 29.1409 84.3916 29.2708 84.5429 29.5252V27.9097H85.1714V31.2563C85.1714 31.531 85.1775 31.7838 85.1941 32.0111V32.0111ZM84.5429 30.8295V30.3607C84.5429 30.2789 84.5372 30.2126 84.5249 30.1625C84.4909 30.0132 84.4162 29.8847 84.299 29.7841C84.1823 29.68 84.0443 29.628 83.8817 29.628C83.6496 29.628 83.4644 29.7217 83.3326 29.9075C83.1979 30.0936 83.1331 30.3324 83.1331 30.6206C83.1331 30.8975 83.1955 31.1269 83.3231 31.2989C83.4578 31.484 83.6412 31.5782 83.8713 31.5782C84.075 31.5782 84.238 31.5002 84.3642 31.3451C84.4828 31.2014 84.5429 31.0308 84.5429 30.8295Z" fill="#8C8C8C"/>
<path fill-rule="evenodd" clip-rule="evenodd" d="M86.6493 28.3539C86.6493 28.4676 86.612 28.5576 86.5387 28.6261C86.4659 28.6975 86.37 28.7304 86.2538 28.7304C86.1498 28.7304 86.0623 28.6965 85.9891 28.6227C85.9187 28.5528 85.8813 28.4625 85.8813 28.3539C85.8813 28.2484 85.9187 28.1572 85.9915 28.0882C86.0647 28.0183 86.1573 27.9841 86.266 27.9841C86.3747 27.9841 86.4659 28.0183 86.5387 28.0882C86.612 28.1572 86.6493 28.2484 86.6493 28.3539L86.6493 28.3539ZM86.5794 32.011H85.9527V29.195H86.5794V32.011Z" fill="#8C8C8C"/>
<path fill-rule="evenodd" clip-rule="evenodd" d="M89.9446 30.5845C89.9446 31.0172 89.8222 31.3734 89.5745 31.6515C89.316 31.9322 88.972 32.0725 88.5429 32.0725C88.1279 32.0725 87.799 31.9363 87.5533 31.664C87.3094 31.3918 87.187 31.0492 87.187 30.6286C87.187 30.1952 87.3118 29.8371 87.5651 29.5581C87.8189 29.2822 88.1596 29.1409 88.5887 29.1409C89.0027 29.1409 89.334 29.2807 89.5873 29.5544C89.8259 29.8189 89.9446 30.1625 89.9446 30.5845ZM89.2966 30.6012C89.2966 30.3426 89.2404 30.1207 89.1279 29.9343C88.997 29.7103 88.8094 29.5972 88.5651 29.5972C88.3141 29.5972 88.1232 29.7103 87.9923 29.9343C87.8793 30.1207 87.8236 30.3484 87.8236 30.6126C87.8236 30.8706 87.8793 31.0956 87.9923 31.2795C88.1256 31.5024 88.3155 31.6169 88.5608 31.6169C88.8004 31.6169 88.9871 31.5012 89.1218 31.2737C89.238 31.0862 89.2966 30.8602 89.2966 30.6012" fill="#8C8C8C"/>
<path fill-rule="evenodd" clip-rule="evenodd" d="M94.8509 30.3762C94.8509 30.9504 94.7105 31.3848 94.4327 31.6722C94.178 31.9387 93.8183 32.0725 93.3538 32.0725C92.402 32.0725 91.9275 31.5106 91.9275 30.3875V28.1085H92.556V30.4202C92.556 30.8035 92.6326 31.0956 92.7862 31.2906C92.9265 31.475 93.1213 31.5701 93.3774 31.5701C93.9407 31.5701 94.2224 31.1868 94.2224 30.4202V28.1085H94.8509V30.3762Z" fill="#8C8C8C"/>
<path fill-rule="evenodd" clip-rule="evenodd" d="M98.0783 32.011H97.45V30.4004C97.45 29.9002 97.2617 29.6517 96.8833 29.6517C96.697 29.6517 96.5452 29.7216 96.428 29.8586C96.3127 29.9963 96.255 30.1579 96.255 30.3426V32.011H95.626V30.0023C95.626 29.7548 95.6185 29.4876 95.6047 29.1951H96.1553L96.1846 29.6314H96.2026C96.2772 29.5005 96.3845 29.386 96.5272 29.2977C96.6989 29.1936 96.8879 29.1409 97.0974 29.1409C97.3595 29.1409 97.5784 29.2263 97.7529 29.3964C97.9697 29.604 98.0783 29.9155 98.0783 30.3314V32.011Z" fill="#8C8C8C"/>
<path fill-rule="evenodd" clip-rule="evenodd" d="M99.497 28.3539C99.497 28.4676 99.4617 28.5576 99.3874 28.6261C99.3138 28.6975 99.2178 28.7304 99.1011 28.7304C98.9971 28.7304 98.9083 28.6965 98.8355 28.6227C98.7655 28.5528 98.7292 28.4625 98.7292 28.3539C98.7292 28.2484 98.7665 28.1572 98.8389 28.0882C98.9134 28.0183 99.0041 27.9841 99.113 27.9841C99.2221 27.9841 99.3138 28.0183 99.3874 28.0882C99.4617 28.1572 99.497 28.2484 99.497 28.3539V28.3539ZM99.428 32.011H98.7987V29.195H99.428V32.011Z" fill="#8C8C8C"/>
<path fill-rule="evenodd" clip-rule="evenodd" d="M101.635 29.6677H100.944V31.0342C100.944 31.3807 101.065 31.553 101.31 31.553C101.421 31.553 101.513 31.5474 101.588 31.5295L101.606 32.0031C101.482 32.0428 101.318 32.0655 101.119 32.0655C100.87 32.0655 100.678 31.9917 100.539 31.8448C100.398 31.6926 100.33 31.4412 100.33 31.0898V29.6677H99.9187V29.1951H100.33V28.6838L100.944 28.4994V29.1951H101.635V29.6677Z" fill="#8C8C8C"/>
<path fill-rule="evenodd" clip-rule="evenodd" d="M103.901 31.2014C103.901 31.4651 103.804 31.6732 103.61 31.8315C103.418 31.9883 103.151 32.0655 102.811 32.0655C102.49 32.0655 102.217 32.0045 101.993 31.8835L102.126 31.4175C102.344 31.5498 102.571 31.6169 102.816 31.6169C103.135 31.6169 103.295 31.4968 103.295 31.2604C103.295 31.1585 103.259 31.0729 103.191 31.0058C103.122 30.9359 102.999 30.8691 102.821 30.806C102.321 30.6182 102.071 30.3493 102.071 29.9919C102.071 29.749 102.162 29.5476 102.348 29.3829C102.533 29.2222 102.778 29.1409 103.083 29.1409C103.362 29.1409 103.599 29.1975 103.795 29.31L103.662 29.7548C103.484 29.6447 103.292 29.5907 103.092 29.5907C102.961 29.5907 102.857 29.62 102.784 29.6834C102.711 29.7468 102.675 29.8257 102.675 29.9215C102.675 30.0202 102.715 30.0974 102.79 30.1579C102.855 30.217 102.984 30.2826 103.172 30.3518C103.657 30.5359 103.901 30.8205 103.901 31.2014" fill="#8C8C8C"/>
<path fill-rule="evenodd" clip-rule="evenodd" d="M71.6556 42.7193V65.2272H36.3443V42.7193H71.6556ZM72 42.375H71.6557H36.3443H36V42.7193V65.2272V65.5715H36.3443H71.6557H72V65.2272V42.7193V42.375Z" fill="white"/>
<path fill-rule="evenodd" clip-rule="evenodd" d="M42.2295 60.6567C42.1042 60.9385 41.7286 61.6898 40.7581 61.6898C39.9442 61.6898 39.1616 61.1576 39.1616 59.8741C39.1616 59.1228 39.5999 58.1211 40.7581 58.1211C41.6347 58.1211 41.979 58.6846 42.1355 59.1541L41.5095 59.3107C41.4781 58.935 41.1651 58.6846 40.7895 58.6846C40.226 58.6846 39.8503 59.0915 39.8503 59.8741C39.8503 60.3437 40.0381 61.0637 40.7895 61.0637C41.2277 61.0637 41.5095 60.7194 41.6034 60.375L42.2295 60.6567Z" fill="white"/>
<path fill-rule="evenodd" clip-rule="evenodd" d="M44.2643 58.1211C45.2973 58.1211 45.8921 58.9663 45.8921 59.8741C45.8921 60.6567 45.4852 61.6898 44.2643 61.6898C43.2626 61.6898 42.6365 60.8759 42.6365 59.9054C42.6365 58.935 43.2626 58.1211 44.2643 58.1211ZM44.2643 61.095C44.7652 61.095 45.2347 60.7194 45.2347 59.9367C45.2347 59.342 44.9217 58.7159 44.233 58.7159C43.6695 58.7159 43.2626 59.1541 43.2626 59.9054C43.2939 60.4376 43.5443 61.095 44.2643 61.095Z" fill="white"/>
<path fill-rule="evenodd" clip-rule="evenodd" d="M48.9912 61.5958C48.9912 61.5019 49.0538 58.8097 49.0538 58.8097L48.3338 61.5958H47.7703L47.0503 58.8097C47.0503 58.8097 47.1129 61.4706 47.1129 61.5958H46.4868V58.215H47.3946L48.052 60.7193L48.7094 58.215H49.6172V61.5958H48.9912Z" fill="white"/>
<path fill-rule="evenodd" clip-rule="evenodd" d="M51.9025 58.215C52.5912 58.215 53.092 58.6532 53.092 59.3419C53.092 59.968 52.7477 60.4376 51.8399 60.4376H51.1825V61.5958H50.5564V58.215H51.9025ZM51.2138 59.9367H51.7773C52.2155 59.9367 52.466 59.7176 52.466 59.3419C52.466 58.8097 52.0277 58.7784 51.7147 58.7784H51.2451V59.9367H51.2138Z" fill="white"/>
<path fill-rule="evenodd" clip-rule="evenodd" d="M55.4711 61.5958L55.2833 60.9384H53.9998L53.812 61.5958H53.1233L54.2502 58.215H54.9702L56.1285 61.5958H55.4711ZM54.6259 58.8411L54.1563 60.4063H55.0955L54.6259 58.8411Z" fill="white"/>
<path fill-rule="evenodd" clip-rule="evenodd" d="M57.4433 58.7784V61.5958H56.8172V58.7784H55.9094V58.215H58.4138V58.7784H57.4433Z" fill="white"/>
<path fill-rule="evenodd" clip-rule="evenodd" d="M58.8833 61.5958V58.215H59.5094V61.5958H58.8833Z" fill="white"/>
<path fill-rule="evenodd" clip-rule="evenodd" d="M61.9826 58.215C62.7026 58.215 63.0156 58.6219 63.0156 59.0602C63.0156 59.3419 62.8591 59.7176 62.4522 59.7489C62.7652 59.8115 63.1722 60.0619 63.1722 60.6567C63.1722 61.1263 62.8904 61.6271 62.0452 61.6271H60.48V58.215H61.9826ZM61.1061 59.5924H61.7322C62.0139 59.5924 62.3582 59.4984 62.3582 59.1541C62.3582 58.8097 62.0139 58.7471 61.7635 58.7471H61.1061V59.5924ZM61.1061 61.0637H61.9513C62.3895 61.0637 62.5461 60.8445 62.5461 60.5941C62.5461 60.1245 62.0765 60.0619 61.8261 60.0619H61.1061V61.0637H61.1061Z" fill="white"/>
<path fill-rule="evenodd" clip-rule="evenodd" d="M63.9861 61.5958V58.215H64.6122V61.0324H65.9583V61.5958H63.9861Z" fill="white"/>
<path fill-rule="evenodd" clip-rule="evenodd" d="M66.365 61.5958V58.215H68.7754V58.7784H66.9911V59.5611H68.6189V60.0932H66.9911V61.0011H68.9006V61.5645H66.365V61.5958Z" fill="white"/>
<path fill-rule="evenodd" clip-rule="evenodd" d="M57.5686 48.2915H68.9008L68.9321 50.295H68.3999C68.2121 49.6063 67.7112 49.1367 66.866 48.9176C66.3964 48.7924 65.6764 48.6985 64.7373 48.6985V53.7072C64.7373 54.0515 64.8625 54.208 65.0816 54.3019C65.3321 54.4272 65.833 54.4272 66.5843 54.4272V54.8654H59.9164V54.4272C60.6364 54.4272 61.1373 54.3645 61.3877 54.2706C61.6382 54.1454 61.7634 54.0515 61.7634 53.7072V48.6985C60.8556 48.6985 60.1356 48.7924 59.666 48.9176C58.7582 49.168 58.2573 49.6376 58.1321 50.295C57.9756 50.295 57.5999 50.295 57.5999 50.295L57.5686 48.2915Z" fill="white"/>
<path fill-rule="evenodd" clip-rule="evenodd" d="M48.6782 51.6724L49.7113 51.7976L49.7426 51.8289C50.1495 52.6741 50.8069 53.3315 51.7147 53.7072C52.6226 54.1141 53.6869 54.3019 54.8765 54.3019C56.0347 54.3019 56.8487 54.1767 57.3182 53.895C57.7878 53.6445 58.0069 53.3628 58.0069 53.0811C58.0069 52.768 57.7565 52.4863 57.2869 52.2985C56.9426 52.1419 56.2539 51.9541 55.2521 51.735L53.593 51.3593C51.9652 50.9837 50.7756 50.608 50.1182 50.2324C49.4295 49.8567 49.0852 49.3559 49.0852 48.7924C49.0852 48.1976 49.5547 47.6341 50.4626 47.1019C51.3704 46.6011 52.7478 46.3506 54.5947 46.3506C55.5339 46.3506 56.4417 46.4132 57.3182 46.5385C57.8817 46.6324 58.6643 46.7263 58.8208 46.7263C59.1652 46.7263 59.2904 46.6637 59.353 46.6324C59.4469 46.5698 59.5408 46.4759 59.6034 46.3506L59.6347 46.3193H60.5112V49.0428H59.5721L59.5408 49.0115C59.1965 48.4167 58.6017 47.9159 57.7565 47.5089C56.9113 47.0706 55.8782 46.8828 54.6887 46.8828C53.8434 46.8828 53.1547 46.9767 52.6852 47.1959C52.2156 47.3837 51.9965 47.6341 51.9965 47.9159C51.9965 48.2602 52.2156 48.5106 52.6539 48.6985C53.1234 48.8863 54.1565 49.168 55.7217 49.5124L57.6313 49.9506C58.4765 50.1385 59.1652 50.3576 59.666 50.608C60.6365 51.0776 61.1373 51.6411 61.1373 52.2985C61.1373 52.9246 60.6052 53.5193 59.5721 54.0515C58.5704 54.5837 56.9113 54.8654 54.6887 54.8654C54.1878 54.8654 53.6556 54.8341 53.1234 54.8028C52.5913 54.7715 52.0591 54.6776 51.5582 54.615L51.0574 54.5211C50.9321 54.5211 50.8382 54.4898 50.7443 54.4898C50.6504 54.4898 50.5565 54.4585 50.4626 54.4585C50.2121 54.4585 50.0556 54.4898 49.9617 54.5524C49.8678 54.615 49.8052 54.7089 49.7113 54.8341L49.68 54.8654H48.6782V51.6724Z" fill="white"/>
<path fill-rule="evenodd" clip-rule="evenodd" d="M60.3235 46.4446V49.0116H59.6035C59.2592 48.4168 58.6644 47.9159 57.8192 47.4776C56.974 47.0394 55.9409 46.8203 54.7201 46.8203C53.8435 46.8203 53.1862 46.9142 52.6853 47.1333C52.1844 47.3524 51.934 47.6029 51.934 47.9159C51.934 48.2916 52.1844 48.5733 52.654 48.7611C53.1235 48.949 54.1566 49.2307 55.7531 49.575L57.6627 50.0133C58.5079 50.2011 59.1966 50.4203 59.6974 50.6707C60.6366 51.109 61.1061 51.6724 61.1061 52.2985C61.1061 52.8933 60.6053 53.4568 59.5722 53.989C58.5705 54.5211 56.9427 54.7716 54.7201 54.7716C54.2192 54.7716 53.687 54.7403 53.1548 54.709C52.6227 54.6776 52.1218 54.615 51.5896 54.5211L51.0888 54.4272C50.9635 54.4272 50.8696 54.3959 50.7444 54.3959C50.6505 54.3959 50.5566 54.3646 50.4627 54.3646C50.2122 54.3646 50.0244 54.3959 49.9305 54.4585C49.8366 54.5211 49.7427 54.615 49.6801 54.7716H48.7722V51.735L49.6801 51.8603C50.087 52.7368 50.7444 53.3942 51.6835 53.7698C52.6227 54.1768 53.6557 54.3646 54.8453 54.3646C56.0035 54.3646 56.8175 54.2394 57.3183 53.9577C57.8192 53.6759 58.0383 53.3942 58.0383 53.0811C58.0383 52.7368 57.7879 52.455 57.2557 52.2046C56.9114 52.0481 56.2227 51.8603 55.2209 51.6411L53.5618 51.2655C51.934 50.8898 50.7757 50.5142 50.087 50.1385C49.4296 49.7629 49.0853 49.3246 49.0853 48.7611C49.0853 48.1977 49.5235 47.6342 50.4001 47.1333C51.3079 46.6324 52.654 46.382 54.5009 46.382C55.4401 46.382 56.3479 46.4446 57.1931 46.5698C58.0696 46.695 58.5705 46.7577 58.6957 46.7577C58.9774 46.7577 59.1653 46.7263 59.2905 46.6637C59.3844 46.6011 59.4783 46.4759 59.5409 46.3507H60.3235V46.4446ZM60.4487 46.2881H60.2922H59.5722H59.4783L59.447 46.3507C59.3844 46.4446 59.3218 46.5385 59.2279 46.6011C59.1966 46.6324 59.0714 46.695 58.727 46.695C58.5705 46.695 57.5688 46.5385 57.2557 46.5072C56.3792 46.382 55.4714 46.3194 54.5322 46.3194C52.6853 46.3194 51.2766 46.5698 50.3688 47.102C49.4296 47.6342 48.9601 48.1976 48.9601 48.855C48.9601 49.4498 49.3357 49.9507 50.0557 50.3576C50.7444 50.7333 51.9027 51.109 53.5618 51.4846L55.2209 51.8603C56.2227 52.0794 56.9114 52.2672 57.2557 52.4237C57.694 52.6116 57.9444 52.862 57.9444 53.1437C57.9444 53.3942 57.7253 53.6446 57.287 53.895C56.8175 54.1455 56.0036 54.2707 54.8766 54.2707C53.7183 54.2707 52.654 54.0829 51.7462 53.6759C50.807 53.3003 50.1809 52.6742 49.774 51.829L49.7427 51.735H49.6488L48.7409 51.6098H48.6157V51.7663V54.8029V54.9594H48.7722H49.6801H49.774L49.8053 54.8968C49.8679 54.7716 49.9305 54.709 50.0244 54.6463C50.0557 54.615 50.1809 54.5524 50.494 54.5524C50.5566 54.5524 50.6505 54.5524 50.7444 54.5837C50.8383 54.5837 50.9636 54.615 51.0888 54.615L51.5896 54.709C52.0905 54.8029 52.6227 54.8655 53.1549 54.8968C53.687 54.9281 54.2192 54.9594 54.7201 54.9594C56.974 54.9594 58.6331 54.6776 59.6661 54.1455C60.7305 53.582 61.2627 52.9872 61.2627 52.3298C61.2627 51.6411 60.7618 51.0463 59.76 50.5768C59.2592 50.3263 58.5392 50.1072 57.694 49.9194L55.7844 49.4811C54.2192 49.1368 53.1862 48.855 52.7166 48.6672C52.3096 48.5107 52.0905 48.2603 52.0905 47.9785C52.0905 47.7281 52.3096 47.509 52.7479 47.3211C53.2175 47.102 53.9062 47.0081 54.7514 47.0081C55.9409 47.0081 56.974 47.2272 57.7879 47.6342C58.6331 48.0411 59.1966 48.542 59.5409 49.1055L59.5722 49.1681H59.6661H60.3861H60.5427V49.0116V46.4446V46.2881H60.4487Z" fill="white"/>
<path fill-rule="evenodd" clip-rule="evenodd" d="M44.734 55.0533L40.0071 49.5125C39.8192 49.2933 39.6314 49.1368 39.4436 49.0429C39.2558 48.949 38.7236 48.8864 38.254 48.8864H38.1914V48.4481H44.7653V48.9177H44.7027C44.0453 48.949 43.6384 48.9803 43.4192 49.0116C43.2001 49.0429 43.2001 49.1368 43.2001 49.2307C43.2001 49.262 43.2001 49.3246 43.2001 49.3559C43.2001 49.3873 43.2314 49.4186 43.2627 49.4499L46.0175 52.8307H46.0488L48.4279 49.7316C48.4905 49.669 48.5218 49.6064 48.5531 49.5438C48.6157 49.4499 48.6471 49.3559 48.6471 49.2933C48.6471 49.1994 48.6157 49.0742 48.3966 49.0429C48.2088 49.0116 47.7705 48.9803 47.1444 48.949H47.0818V48.4794H51.4018V48.9177H51.3392C50.8697 48.949 50.2749 49.0116 50.0871 49.1055C49.8679 49.1994 49.6801 49.3873 49.461 49.6377L45.2975 55.0533H44.734Z" fill="white"/>
<path fill-rule="evenodd" clip-rule="evenodd" d="M51.3704 48.5107V48.8237C50.9322 48.855 50.3061 48.9177 50.087 49.0116C49.8678 49.1055 49.6487 49.2933 49.4296 49.575L45.2661 54.9907H44.7652L40.0383 49.4498C39.8505 49.2307 39.6626 49.0742 39.4435 48.9803C39.2557 48.8864 38.6609 48.8237 38.2226 48.7924V48.4794H44.64V48.7924C43.9826 48.8237 43.5444 48.855 43.3565 48.8864C43.1687 48.9177 43.0748 49.0116 43.0748 49.1681C43.0748 49.1994 43.0748 49.262 43.1061 49.2933C43.1374 49.3246 43.1687 49.3872 43.2 49.4185L45.9861 52.8307H46.1113L48.5217 49.7316C48.5844 49.669 48.6157 49.6064 48.6783 49.5124C48.7409 49.3872 48.7722 49.2933 48.7722 49.2307C48.7722 49.0429 48.6783 48.949 48.4591 48.9177C48.2713 48.8864 47.8331 48.8237 47.207 48.8237V48.5107H51.3704ZM51.527 48.3542H51.3704H47.207H47.0505V48.5107V48.8237V48.9803H47.207C47.8331 49.0116 48.24 49.0429 48.4278 49.0742C48.6157 49.1055 48.6157 49.1681 48.6157 49.2307C48.6157 49.262 48.6157 49.3246 48.5217 49.4498C48.4904 49.5124 48.4278 49.575 48.3965 49.6377L46.0487 52.6742L43.3252 49.3559C43.2939 49.3246 43.2626 49.2933 43.2626 49.262C43.2626 49.2307 43.2626 49.1994 43.2626 49.1681C43.2626 49.1368 43.2626 49.0742 43.4192 49.0429C43.607 49.0116 44.0139 48.9803 44.6713 48.949H44.8278V48.7924V48.4794V48.3229H44.6713H38.2539H38.0974V48.4794V48.7924V48.9177H38.2226C38.7548 48.949 39.2244 49.0116 39.3809 49.0742C39.5687 49.1681 39.7565 49.3246 39.9131 49.5124L44.64 55.022L44.6713 55.0846H44.7339H45.2348H45.2974L45.3287 55.022L49.5548 49.6377C49.7426 49.3872 49.9617 49.2307 50.1496 49.1368C50.3061 49.0429 50.807 48.9803 51.3704 48.949H51.4957V48.8237V48.5107V48.3542H51.527Z" fill="white"/>
<path fill-rule="evenodd" clip-rule="evenodd" d="M68.8383 47.0081C68.087 47.0081 67.4609 46.382 67.4609 45.6307C67.4609 44.8794 68.087 44.2533 68.8383 44.2533C69.5896 44.2533 70.2157 44.8794 70.2157 45.5994C70.247 46.382 69.6522 47.0081 68.8383 47.0081ZM68.8383 44.3472C68.1496 44.3472 67.5862 44.9107 67.5862 45.5994C67.5862 46.2881 68.1183 46.8516 68.8383 46.8516C69.527 46.8516 70.0905 46.2881 70.0905 45.6307C70.0905 44.9107 69.5583 44.3472 68.8383 44.3472ZM68.807 44.7229C69.2453 44.7229 69.4331 44.8794 69.4331 45.2237C69.4331 45.5055 69.3079 45.6307 69.0575 45.7246L69.4644 46.4759H69.1514L68.7757 45.7559H68.5566V46.4759H68.2749V44.7229H68.807ZM68.5879 45.5055H68.807C69.0575 45.5055 69.1514 45.4116 69.1514 45.2237C69.1514 45.0359 69.0262 44.942 68.7757 44.942H68.5879V45.5055Z" fill="white"/>
<path fill-rule="evenodd" clip-rule="evenodd" d="M71.6556 6.71935V29.2272H36.3443V6.71935H71.6556ZM72 6.375H71.6557H36.3443H36V6.71935V29.2272V29.5715H36.3443H71.6557H72V29.2272V6.71935V6.375Z" fill="#8C8C8C"/>
<path fill-rule="evenodd" clip-rule="evenodd" d="M42.2295 24.6567C42.1042 24.9385 41.7286 25.6898 40.7581 25.6898C39.9442 25.6898 39.1616 25.1576 39.1616 23.8741C39.1616 23.1228 39.5999 22.1211 40.7581 22.1211C41.6347 22.1211 41.979 22.6846 42.1355 23.1541L41.5095 23.3107C41.4781 22.935 41.1651 22.6846 40.7895 22.6846C40.226 22.6846 39.8503 23.0915 39.8503 23.8741C39.8503 24.3437 40.0381 25.0637 40.7895 25.0637C41.2277 25.0637 41.5095 24.7194 41.6034 24.375L42.2295 24.6567Z" fill="#8C8C8C"/>
<path fill-rule="evenodd" clip-rule="evenodd" d="M44.2643 22.1211C45.2973 22.1211 45.8921 22.9663 45.8921 23.8741C45.8921 24.6567 45.4852 25.6898 44.2643 25.6898C43.2626 25.6898 42.6365 24.8759 42.6365 23.9054C42.6365 22.935 43.2626 22.1211 44.2643 22.1211ZM44.2643 25.095C44.7652 25.095 45.2347 24.7194 45.2347 23.9367C45.2347 23.342 44.9217 22.7159 44.233 22.7159C43.6695 22.7159 43.2626 23.1541 43.2626 23.9054C43.2939 24.4376 43.5443 25.095 44.2643 25.095Z" fill="#8C8C8C"/>
<path fill-rule="evenodd" clip-rule="evenodd" d="M48.9912 25.5958C48.9912 25.5019 49.0538 22.8097 49.0538 22.8097L48.3338 25.5958H47.7703L47.0503 22.8097C47.0503 22.8097 47.1129 25.4706 47.1129 25.5958H46.4868V22.215H47.3946L48.052 24.7193L48.7094 22.215H49.6172V25.5958H48.9912Z" fill="#8C8C8C"/>
<path fill-rule="evenodd" clip-rule="evenodd" d="M51.9025 22.215C52.5912 22.215 53.092 22.6532 53.092 23.3419C53.092 23.968 52.7477 24.4376 51.8399 24.4376H51.1825V25.5958H50.5564V22.215H51.9025ZM51.2138 23.9367H51.7773C52.2155 23.9367 52.466 23.7176 52.466 23.3419C52.466 22.8097 52.0277 22.7784 51.7147 22.7784H51.2451V23.9367H51.2138Z" fill="#8C8C8C"/>
<path fill-rule="evenodd" clip-rule="evenodd" d="M55.4711 25.5958L55.2833 24.9384H53.9998L53.812 25.5958H53.1233L54.2502 22.215H54.9702L56.1285 25.5958H55.4711ZM54.6259 22.8411L54.1563 24.4063H55.0955L54.6259 22.8411Z" fill="#8C8C8C"/>
<path fill-rule="evenodd" clip-rule="evenodd" d="M57.4433 22.7784V25.5958H56.8173V22.7784H55.9094V22.215H58.4138V22.7784H57.4433Z" fill="#8C8C8C"/>
<path fill-rule="evenodd" clip-rule="evenodd" d="M58.8833 25.5958V22.215H59.5094V25.5958H58.8833Z" fill="#8C8C8C"/>
<path fill-rule="evenodd" clip-rule="evenodd" d="M61.9826 22.215C62.7026 22.215 63.0156 22.6219 63.0156 23.0602C63.0156 23.3419 62.8591 23.7176 62.4522 23.7489C62.7652 23.8115 63.1722 24.0619 63.1722 24.6567C63.1722 25.1263 62.8904 25.6271 62.0452 25.6271H60.48V22.215H61.9826ZM61.1061 23.5924H61.7322C62.0139 23.5924 62.3582 23.4984 62.3582 23.1541C62.3582 22.8097 62.0139 22.7471 61.7635 22.7471H61.1061V23.5924ZM61.1061 25.0637H61.9513C62.3895 25.0637 62.5461 24.8445 62.5461 24.5941C62.5461 24.1245 62.0765 24.0619 61.8261 24.0619H61.1061V25.0637H61.1061Z" fill="#8C8C8C"/>
<path fill-rule="evenodd" clip-rule="evenodd" d="M63.9861 25.5958V22.215H64.6122V25.0324H65.9583V25.5958H63.9861Z" fill="#8C8C8C"/>
<path fill-rule="evenodd" clip-rule="evenodd" d="M66.365 25.5958V22.215H68.7754V22.7784H66.9911V23.5611H68.6189V24.0932H66.9911V25.0011H68.9006V25.5645H66.365V25.5958Z" fill="#8C8C8C"/>
<path fill-rule="evenodd" clip-rule="evenodd" d="M57.5686 12.2915H68.9008L68.9321 14.295H68.3999C68.2121 13.6063 67.7112 13.1367 66.866 12.9176C66.3964 12.7924 65.6764 12.6985 64.7373 12.6985V17.7072C64.7373 18.0515 64.8625 18.208 65.0816 18.3019C65.3321 18.4272 65.833 18.4272 66.5843 18.4272V18.8654H59.9164V18.4272C60.6364 18.4272 61.1373 18.3645 61.3877 18.2706C61.6382 18.1454 61.7634 18.0515 61.7634 17.7072V12.6985C60.8556 12.6985 60.1356 12.7924 59.666 12.9176C58.7582 13.168 58.2573 13.6376 58.1321 14.295C57.9756 14.295 57.5999 14.295 57.5999 14.295L57.5686 12.2915Z" fill="#8C8C8C"/>
<path fill-rule="evenodd" clip-rule="evenodd" d="M48.6782 15.6724L49.7113 15.7976L49.7426 15.8289C50.1495 16.6741 50.8069 17.3315 51.7147 17.7072C52.6226 18.1141 53.6869 18.3019 54.8765 18.3019C56.0347 18.3019 56.8487 18.1767 57.3182 17.895C57.7878 17.6445 58.0069 17.3628 58.0069 17.0811C58.0069 16.768 57.7565 16.4863 57.2869 16.2985C56.9426 16.1419 56.2539 15.9541 55.2521 15.735L53.593 15.3593C51.9652 14.9837 50.7756 14.608 50.1182 14.2324C49.4295 13.8567 49.0852 13.3559 49.0852 12.7924C49.0852 12.1976 49.5547 11.6341 50.4626 11.1019C51.3704 10.6011 52.7478 10.3506 54.5947 10.3506C55.5339 10.3506 56.4417 10.4132 57.3182 10.5385C57.8817 10.6324 58.6643 10.7263 58.8208 10.7263C59.1652 10.7263 59.2904 10.6637 59.353 10.6324C59.4469 10.5698 59.5408 10.4759 59.6034 10.3506L59.6347 10.3193H60.5112V13.0428H59.5721L59.5408 13.0115C59.1965 12.4167 58.6017 11.9159 57.7565 11.5089C56.9113 11.0706 55.8782 10.8828 54.6887 10.8828C53.8434 10.8828 53.1547 10.9767 52.6852 11.1959C52.2156 11.3837 51.9965 11.6341 51.9965 11.9159C51.9965 12.2602 52.2156 12.5106 52.6539 12.6985C53.1234 12.8863 54.1565 13.168 55.7217 13.5124L57.6313 13.9506C58.4765 14.1385 59.1652 14.3576 59.666 14.608C60.6365 15.0776 61.1373 15.6411 61.1373 16.2985C61.1373 16.9246 60.6052 17.5193 59.5721 18.0515C58.5704 18.5837 56.9113 18.8654 54.6887 18.8654C54.1878 18.8654 53.6556 18.8341 53.1234 18.8028C52.5913 18.7715 52.0591 18.6776 51.5582 18.615L51.0574 18.5211C50.9321 18.5211 50.8382 18.4898 50.7443 18.4898C50.6504 18.4898 50.5565 18.4585 50.4626 18.4585C50.2121 18.4585 50.0556 18.4898 49.9617 18.5524C49.8678 18.615 49.8052 18.7089 49.7113 18.8341L49.68 18.8654H48.6782V15.6724Z" fill="#8C8C8C"/>
<path fill-rule="evenodd" clip-rule="evenodd" d="M60.3235 10.4446V13.0116H59.6035C59.2592 12.4168 58.6644 11.9159 57.8192 11.4776C56.974 11.0394 55.9409 10.8203 54.7201 10.8203C53.8435 10.8203 53.1862 10.9142 52.6853 11.1333C52.1844 11.3524 51.934 11.6029 51.934 11.9159C51.934 12.2916 52.1844 12.5733 52.654 12.7611C53.1235 12.949 54.1566 13.2307 55.7531 13.575L57.6627 14.0133C58.5079 14.2011 59.1966 14.4203 59.6974 14.6707C60.6366 15.109 61.1061 15.6724 61.1061 16.2985C61.1061 16.8933 60.6053 17.4568 59.5722 17.989C58.5705 18.5211 56.9427 18.7716 54.7201 18.7716C54.2192 18.7716 53.687 18.7403 53.1548 18.709C52.6227 18.6776 52.1218 18.615 51.5896 18.5211L51.0888 18.4272C50.9635 18.4272 50.8696 18.3959 50.7444 18.3959C50.6505 18.3959 50.5566 18.3646 50.4627 18.3646C50.2122 18.3646 50.0244 18.3959 49.9305 18.4585C49.8366 18.5211 49.7427 18.615 49.6801 18.7716H48.7722V15.735L49.6801 15.8603C50.087 16.7368 50.7444 17.3942 51.6835 17.7698C52.6227 18.1768 53.6557 18.3646 54.8453 18.3646C56.0035 18.3646 56.8175 18.2394 57.3183 17.9577C57.8192 17.6759 58.0383 17.3942 58.0383 17.0811C58.0383 16.7368 57.7879 16.455 57.2557 16.2046C56.9114 16.0481 56.2227 15.8603 55.2209 15.6411L53.5618 15.2655C51.934 14.8898 50.7757 14.5142 50.087 14.1385C49.4296 13.7629 49.0853 13.3246 49.0853 12.7611C49.0853 12.1977 49.5235 11.6342 50.4001 11.1333C51.3079 10.6324 52.654 10.382 54.5009 10.382C55.4401 10.382 56.3479 10.4446 57.1931 10.5698C58.0696 10.695 58.5705 10.7577 58.6957 10.7577C58.9774 10.7577 59.1653 10.7263 59.2905 10.6637C59.3844 10.6011 59.4783 10.4759 59.5409 10.3507H60.3235V10.4446ZM60.4487 10.2881H60.2922H59.5722H59.4783L59.447 10.3507C59.3844 10.4446 59.3218 10.5385 59.2279 10.6011C59.1966 10.6324 59.0714 10.695 58.727 10.695C58.5705 10.695 57.5688 10.5385 57.2557 10.5072C56.3792 10.382 55.4714 10.3194 54.5322 10.3194C52.6853 10.3194 51.2766 10.5698 50.3688 11.102C49.4296 11.6342 48.9601 12.1976 48.9601 12.855C48.9601 13.4498 49.3357 13.9507 50.0557 14.3576C50.7444 14.7333 51.9027 15.109 53.5618 15.4846L55.2209 15.8603C56.2227 16.0794 56.9114 16.2672 57.2557 16.4237C57.694 16.6116 57.9444 16.862 57.9444 17.1437C57.9444 17.3942 57.7253 17.6446 57.287 17.895C56.8175 18.1455 56.0036 18.2707 54.8766 18.2707C53.7183 18.2707 52.654 18.0829 51.7462 17.6759C50.807 17.3003 50.1809 16.6742 49.774 15.829L49.7427 15.735H49.6488L48.7409 15.6098H48.6157V15.7663V18.8029V18.9594H48.7722H49.6801H49.774L49.8053 18.8968C49.8679 18.7716 49.9305 18.709 50.0244 18.6463C50.0557 18.615 50.1809 18.5524 50.494 18.5524C50.5566 18.5524 50.6505 18.5524 50.7444 18.5837C50.8383 18.5837 50.9636 18.615 51.0888 18.615L51.5896 18.709C52.0905 18.8029 52.6227 18.8655 53.1549 18.8968C53.687 18.9281 54.2192 18.9594 54.7201 18.9594C56.974 18.9594 58.6331 18.6776 59.6661 18.1455C60.7305 17.582 61.2627 16.9872 61.2627 16.3298C61.2627 15.6411 60.7618 15.0463 59.76 14.5768C59.2592 14.3263 58.5392 14.1072 57.694 13.9194L55.7844 13.4811C54.2192 13.1368 53.1862 12.855 52.7166 12.6672C52.3096 12.5107 52.0905 12.2603 52.0905 11.9785C52.0905 11.7281 52.3096 11.509 52.7479 11.3211C53.2175 11.102 53.9062 11.0081 54.7514 11.0081C55.9409 11.0081 56.974 11.2272 57.7879 11.6342C58.6331 12.0411 59.1966 12.542 59.5409 13.1055L59.5722 13.1681H59.6661H60.3861H60.5427V13.0116V10.4446V10.2881H60.4487Z" fill="#8C8C8C"/>
<path fill-rule="evenodd" clip-rule="evenodd" d="M44.734 19.0533L40.0071 13.5125C39.8192 13.2933 39.6314 13.1368 39.4436 13.0429C39.2558 12.949 38.7236 12.8864 38.254 12.8864H38.1914V12.4481H44.7653V12.9177H44.7027C44.0453 12.949 43.6384 12.9803 43.4192 13.0116C43.2001 13.0429 43.2001 13.1368 43.2001 13.2307C43.2001 13.262 43.2001 13.3246 43.2001 13.3559C43.2001 13.3873 43.2314 13.4186 43.2627 13.4499L46.0175 16.8307H46.0488L48.4279 13.7316C48.4905 13.669 48.5218 13.6064 48.5531 13.5438C48.6157 13.4499 48.6471 13.3559 48.6471 13.2933C48.6471 13.1994 48.6157 13.0742 48.3966 13.0429C48.2088 13.0116 47.7705 12.9803 47.1444 12.949H47.0818V12.4794H51.4018V12.9177H51.3392C50.8697 12.949 50.2749 13.0116 50.0871 13.1055C49.8679 13.1994 49.6801 13.3873 49.461 13.6377L45.2975 19.0533H44.734Z" fill="#8C8C8C"/>
<path fill-rule="evenodd" clip-rule="evenodd" d="M51.3704 12.5107V12.8237C50.9322 12.855 50.3061 12.9177 50.087 13.0116C49.8678 13.1055 49.6487 13.2933 49.4296 13.575L45.2661 18.9907H44.7652L40.0383 13.4498C39.8505 13.2307 39.6626 13.0742 39.4435 12.9803C39.2557 12.8864 38.6609 12.8237 38.2226 12.7924V12.4794H44.64V12.7924C43.9826 12.8237 43.5444 12.855 43.3565 12.8864C43.1687 12.9177 43.0748 13.0116 43.0748 13.1681C43.0748 13.1994 43.0748 13.262 43.1061 13.2933C43.1374 13.3246 43.1687 13.3872 43.2 13.4185L45.9861 16.8307H46.1113L48.5217 13.7316C48.5844 13.669 48.6157 13.6064 48.6783 13.5124C48.7409 13.3872 48.7722 13.2933 48.7722 13.2307C48.7722 13.0429 48.6783 12.949 48.4591 12.9177C48.2713 12.8864 47.8331 12.8237 47.207 12.8237V12.5107H51.3704ZM51.527 12.3542H51.3704H47.207H47.0505V12.5107V12.8237V12.9803H47.207C47.8331 13.0116 48.24 13.0429 48.4278 13.0742C48.6157 13.1055 48.6157 13.1681 48.6157 13.2307C48.6157 13.262 48.6157 13.3246 48.5217 13.4498C48.4904 13.5124 48.4278 13.575 48.3965 13.6377L46.0487 16.6742L43.3252 13.3559C43.2939 13.3246 43.2626 13.2933 43.2626 13.262C43.2626 13.2307 43.2626 13.1994 43.2626 13.1681C43.2626 13.1368 43.2626 13.0742 43.4192 13.0429C43.607 13.0116 44.0139 12.9803 44.6713 12.949H44.8278V12.7924V12.4794V12.3229H44.6713H38.2539H38.0974V12.4794V12.7924V12.9177H38.2226C38.7548 12.949 39.2244 13.0116 39.3809 13.0742C39.5687 13.1681 39.7565 13.3246 39.9131 13.5124L44.64 19.022L44.6713 19.0846H44.7339H45.2348H45.2974L45.3287 19.022L49.5548 13.6377C49.7426 13.3872 49.9617 13.2307 50.1496 13.1368C50.3061 13.0429 50.807 12.9803 51.3704 12.949H51.4957V12.8237V12.5107V12.3542H51.527Z" fill="#8C8C8C"/>
<path fill-rule="evenodd" clip-rule="evenodd" d="M68.8383 11.0081C68.087 11.0081 67.4609 10.382 67.4609 9.63069C67.4609 8.87938 68.087 8.2533 68.8383 8.2533C69.5896 8.2533 70.2157 8.87938 70.2157 9.59939C70.247 10.382 69.6522 11.0081 68.8383 11.0081ZM68.8383 8.34721C68.1496 8.34721 67.5862 8.91069 67.5862 9.59939C67.5862 10.2881 68.1183 10.8516 68.8383 10.8516C69.527 10.8516 70.0905 10.2881 70.0905 9.63069C70.0905 8.91069 69.5583 8.34721 68.8383 8.34721ZM68.807 8.72286C69.2453 8.72286 69.4331 8.87938 69.4331 9.22373C69.4331 9.50547 69.3079 9.63069 69.0575 9.7246L69.4644 10.4759H69.1514L68.7757 9.75591H68.5566V10.4759H68.2749V8.72286H68.807ZM68.5879 9.50547H68.807C69.0575 9.50547 69.1514 9.41156 69.1514 9.22373C69.1514 9.03591 69.0262 8.94199 68.7757 8.94199H68.5879V9.50547Z" fill="#8C8C8C"/>
<path fill-rule="evenodd" clip-rule="evenodd" d="M18.0001 39.2999C10.0441 39.2999 3.6001 46.0124 3.6001 54.3C3.6001 60.9375 7.7221 66.5437 13.4461 68.5312C14.1661 68.6625 14.4361 68.2125 14.4361 67.8187C14.4361 67.4625 14.4181 66.2812 14.4181 65.025C10.8001 65.7187 9.8641 64.1062 9.5761 63.2625C9.4141 62.8312 8.7121 61.5 8.1001 61.1437C7.5961 60.8625 6.8761 60.1687 8.0821 60.15C9.2161 60.1312 10.0261 61.2375 10.2961 61.6875C11.5921 63.9562 13.6621 63.3187 14.4901 62.925C14.6161 61.95 14.9941 61.2937 15.4081 60.9187C12.2041 60.5437 8.8561 59.25 8.8561 53.5125C8.8561 51.8812 9.4141 50.5311 10.3321 49.4811C10.1881 49.1062 9.6841 47.5687 10.4761 45.5062C10.4761 45.5062 11.6821 45.1124 14.4361 47.0437C15.5881 46.7062 16.8121 46.5374 18.0361 46.5374C19.2601 46.5374 20.4841 46.7062 21.6361 47.0437C24.3901 45.0937 25.5961 45.5062 25.5961 45.5062C26.3881 47.5687 25.8841 49.1062 25.7401 49.4811C26.6581 50.5311 27.2161 51.8625 27.2161 53.5125C27.2161 59.2687 23.8501 60.5437 20.6461 60.9187C21.1681 61.3875 21.6181 62.2875 21.6181 63.6937C21.6181 65.7 21.6001 67.3125 21.6001 67.8187C21.6001 68.2125 21.8701 68.6812 22.5901 68.5312C28.2781 66.5437 32.4001 60.9187 32.4001 54.3C32.4001 46.0124 25.9561 39.2999 18.0001 39.2999Z" fill="white"/>
<path fill-rule="evenodd" clip-rule="evenodd" d="M18.0001 3.29993C10.0441 3.29993 3.6001 10.0124 3.6001 18.3C3.6001 24.9375 7.7221 30.5437 13.4461 32.5312C14.1661 32.6625 14.4361 32.2125 14.4361 31.8187C14.4361 31.4625 14.4181 30.2812 14.4181 29.025C10.8001 29.7187 9.8641 28.1062 9.5761 27.2625C9.4141 26.8312 8.7121 25.5 8.1001 25.1437C7.5961 24.8625 6.8761 24.1687 8.0821 24.15C9.2161 24.1312 10.0261 25.2375 10.2961 25.6875C11.5921 27.9562 13.6621 27.3187 14.4901 26.925C14.6161 25.95 14.9941 25.2937 15.4081 24.9187C12.2041 24.5437 8.8561 23.25 8.8561 17.5125C8.8561 15.8812 9.4141 14.5312 10.3321 13.4811C10.1881 13.1062 9.6841 11.5687 10.4761 9.50618C10.4761 9.50618 11.6821 9.11243 14.4361 11.0437C15.5881 10.7062 16.8121 10.5374 18.0361 10.5374C19.2601 10.5374 20.4841 10.7062 21.6361 11.0437C24.3901 9.09368 25.5961 9.50618 25.5961 9.50618C26.3881 11.5687 25.8841 13.1062 25.7401 13.4811C26.6581 14.5312 27.2161 15.8625 27.2161 17.5125C27.2161 23.2687 23.8501 24.5437 20.6461 24.9187C21.1681 25.3875 21.6181 26.2875 21.6181 27.6937C21.6181 29.7 21.6001 31.3125 21.6001 31.8187C21.6001 32.2125 21.8701 32.6812 22.5901 32.5312C28.2781 30.5437 32.4001 24.9187 32.4001 18.3C32.4001 10.0124 25.9561 3.29993 18.0001 3.29993Z" fill="#8C8C8C"/>
</svg>
