<svg width="106" height="18" viewBox="0 0 106 18" fill="none" xmlns="http://www.w3.org/2000/svg">
<path d="M1 3C1 1.89543 1.89543 1 3 1H101C102.105 1 103 1.89543 103 3V14C103 15.1046 102.105 16 101 16H3C1.89543 16 1 15.1046 1 14V3Z" fill="url(#paint0_linear)"/>
<path d="M3 1.5H101V0.5H3V1.5ZM102.5 3V14H103.5V3H102.5ZM101 15.5H3V16.5H101V15.5ZM1.5 14V3H0.5V14H1.5ZM3 15.5C2.17157 15.5 1.5 14.8284 1.5 14H0.5C0.5 15.3807 1.61929 16.5 3 16.5V15.5ZM102.5 14C102.5 14.8284 101.828 15.5 101 15.5V16.5C102.381 16.5 103.5 15.3807 103.5 14H102.5ZM101 1.5C101.828 1.5 102.5 2.17157 102.5 3H103.5C103.5 1.61929 102.381 0.5 101 0.5V1.5ZM3 0.5C1.61929 0.5 0.5 1.61929 0.5 3H1.5C1.5 2.17157 2.17157 1.5 3 1.5V0.5Z" fill="white"/>
<path d="M96 10.5L93.5 7.5L98.5 7.5L96 10.5Z" fill="white"/>
<defs>
<linearGradient id="paint0_linear" x1="52" y1="1" x2="52" y2="16" gradientUnits="userSpaceOnUse">
<stop stop-color="#553783"/>
<stop offset="0.09375" stop-color="#380D53"/>
<stop offset="0.921875" stop-color="#12051D"/>
<stop offset="1" stop-color="#281643"/>
</linearGradient>
</defs>
</svg>
