<svg width="30" height="13" viewBox="0 0 30 13" fill="none" xmlns="http://www.w3.org/2000/svg">
<path d="M0.6521 2.54169C0.6521 1.43712 1.54753 0.541687 2.6521 0.541687H27.3478C28.4523 0.541687 29.3477 1.43712 29.3477 2.54169V10.4584C29.3477 11.5629 28.4523 12.4584 27.3477 12.4584H2.6521C1.54753 12.4584 0.6521 11.5629 0.6521 10.4584V2.54169Z" fill="#242424"/>
<path d="M2.6521 1.04169H27.3478V0.041687H2.6521V1.04169ZM28.8477 2.54169V10.4584H29.8477V2.54169H28.8477ZM27.3477 11.9584H2.6521V12.9584H27.3477V11.9584ZM1.1521 10.4584V2.54169H0.1521V10.4584H1.1521ZM2.6521 11.9584C1.82367 11.9584 1.1521 11.2868 1.1521 10.4584H0.1521C0.1521 11.8391 1.27139 12.9584 2.6521 12.9584V11.9584ZM28.8477 10.4584C28.8477 11.2868 28.1762 11.9584 27.3477 11.9584V12.9584C28.7285 12.9584 29.8477 11.8391 29.8477 10.4584H28.8477ZM27.3478 1.04169C28.1762 1.04169 28.8477 1.71326 28.8477 2.54169H29.8477C29.8477 1.16098 28.7285 0.041687 27.3478 0.041687V1.04169ZM2.6521 0.041687C1.27139 0.041687 0.1521 1.16098 0.1521 2.54169H1.1521C1.1521 1.71326 1.82367 1.04169 2.6521 1.04169V0.041687Z" fill="black"/>
</svg>
