<svg width="180" height="108" viewBox="0 0 180 108" fill="none" xmlns="http://www.w3.org/2000/svg">
<path fill-rule="evenodd" clip-rule="evenodd" d="M3 9H15V8H3V9Z" fill="white"/>
<path d="M7.53782 26.0874C12.3895 26.1067 13.9887 29.6776 13.9916 31L15 30.9974C14.9956 29.0171 12.8547 24.8931 7.28155 25.0021H3V26.0894H7.24682C7.26152 26.089 7.27622 26.0897 7.29087 26.0894H7.53782V26.0874Z" fill="white"/>
<path fill-rule="evenodd" clip-rule="evenodd" d="M28 26H21V25H28C29.3139 25 30.5974 25.2883 31.5437 26.2492C32.4867 27.2067 33 28.736 33 31H32C32 28.864 31.5133 27.6433 30.8313 26.9508C30.1526 26.2617 29.1861 26 28 26Z" fill="white"/>
<path d="M43.5378 26.0874C48.3895 26.1067 49.9887 29.6776 49.9916 31L51 30.9974C50.9956 29.0171 48.8547 24.8931 43.2815 25.0021H39V26.0894H43.2468C43.2615 26.089 43.2762 26.0897 43.2909 26.0894H43.5378V26.0874Z" fill="white"/>
<path d="M41.414 21.9H41.5715C41.6348 21.9 41.6873 21.8917 41.729 21.875C41.7707 21.8567 41.8065 21.8283 41.8365 21.79L42.834 20.5275C42.8757 20.4742 42.919 20.4375 42.964 20.4175C43.0107 20.3958 43.069 20.385 43.139 20.385H43.719L42.5015 21.8875C42.4632 21.9342 42.4265 21.9733 42.3915 22.005C42.3565 22.0367 42.319 22.0625 42.279 22.0825C42.334 22.1025 42.3832 22.1308 42.4265 22.1675C42.4715 22.2042 42.5148 22.2508 42.5565 22.3075L43.8115 24H43.2165C43.1365 24 43.0765 23.9892 43.0365 23.9675C42.9982 23.9442 42.9657 23.9108 42.939 23.8675L41.9165 22.5325C41.8832 22.4892 41.8457 22.4583 41.804 22.44C41.7623 22.42 41.7032 22.41 41.6265 22.41H41.414V24H40.7415V20.3825H41.414V21.9ZM45.4077 20.345C45.5744 20.345 45.7244 20.3692 45.8577 20.4175C45.9927 20.4642 46.1077 20.53 46.2027 20.615C46.2977 20.6983 46.3702 20.7967 46.4202 20.91C46.4719 21.0233 46.4977 21.1458 46.4977 21.2775C46.4977 21.3925 46.4844 21.4942 46.4577 21.5825C46.4327 21.6692 46.3952 21.745 46.3452 21.81C46.2969 21.875 46.2369 21.93 46.1652 21.975C46.0952 22.02 46.0152 22.0575 45.9252 22.0875C46.1419 22.1558 46.3035 22.26 46.4102 22.4C46.5169 22.54 46.5702 22.7158 46.5702 22.9275C46.5702 23.1075 46.5369 23.2667 46.4702 23.405C46.4035 23.5433 46.3135 23.66 46.2002 23.755C46.0869 23.8483 45.9552 23.9192 45.8052 23.9675C45.6569 24.0158 45.4994 24.04 45.3327 24.04C45.151 24.04 44.9927 24.0192 44.8577 23.9775C44.7227 23.9358 44.6052 23.8742 44.5052 23.7925C44.4052 23.7108 44.3202 23.6108 44.2502 23.4925C44.1802 23.3742 44.1202 23.2375 44.0702 23.0825L44.3427 22.97C44.3894 22.95 44.4369 22.94 44.4852 22.94C44.5285 22.94 44.5669 22.9492 44.6002 22.9675C44.6352 22.9858 44.6619 23.0125 44.6802 23.0475C44.7102 23.1058 44.7427 23.1633 44.7777 23.22C44.8144 23.2767 44.8577 23.3275 44.9077 23.3725C44.9577 23.4158 45.016 23.4517 45.0827 23.48C45.151 23.5067 45.2319 23.52 45.3252 23.52C45.4302 23.52 45.5219 23.5033 45.6002 23.47C45.6785 23.435 45.7435 23.39 45.7952 23.335C45.8485 23.28 45.8877 23.2192 45.9127 23.1525C45.9394 23.0842 45.9527 23.0158 45.9527 22.9475C45.9527 22.8608 45.9435 22.7825 45.9252 22.7125C45.9069 22.6408 45.8685 22.58 45.8102 22.53C45.7519 22.48 45.6677 22.4408 45.5577 22.4125C45.4494 22.3842 45.3035 22.37 45.1202 22.37V21.93C45.2719 21.9283 45.3977 21.9142 45.4977 21.8875C45.5977 21.8608 45.6769 21.8242 45.7352 21.7775C45.7952 21.7292 45.8369 21.6717 45.8602 21.605C45.8835 21.5383 45.8952 21.465 45.8952 21.385C45.8952 21.2133 45.8485 21.0842 45.7552 20.9975C45.6619 20.9092 45.5344 20.865 45.3727 20.865C45.226 20.865 45.1044 20.9042 45.0077 20.9825C44.911 21.0592 44.8435 21.1583 44.8052 21.28C44.7852 21.3433 44.7577 21.3892 44.7227 21.4175C44.6877 21.4442 44.6419 21.4575 44.5852 21.4575C44.5585 21.4575 44.5302 21.455 44.5002 21.45L44.1752 21.3925C44.2002 21.2192 44.2485 21.0675 44.3202 20.9375C44.3919 20.8058 44.481 20.6967 44.5877 20.61C44.696 20.5217 44.8194 20.4558 44.9577 20.4125C45.0977 20.3675 45.2477 20.345 45.4077 20.345ZM49.2181 20.6475C49.2181 20.7358 49.1898 20.8075 49.1331 20.8625C49.0781 20.9175 48.9856 20.945 48.8556 20.945H47.8606L47.7306 21.7C47.8939 21.6667 48.0431 21.65 48.1781 21.65C48.3681 21.65 48.5348 21.6783 48.6781 21.735C48.8231 21.7917 48.9448 21.87 49.0431 21.97C49.1414 22.07 49.2156 22.1875 49.2656 22.3225C49.3156 22.4558 49.3406 22.6 49.3406 22.755C49.3406 22.9467 49.3064 23.1217 49.2381 23.28C49.1714 23.4383 49.0781 23.5742 48.9581 23.6875C48.8381 23.7992 48.6956 23.8858 48.5306 23.9475C48.3673 24.0092 48.1889 24.04 47.9956 24.04C47.8823 24.04 47.7748 24.0283 47.6731 24.005C47.5714 23.9817 47.4756 23.9508 47.3856 23.9125C47.2973 23.8725 47.2148 23.8275 47.1381 23.7775C47.0631 23.7258 46.9956 23.6717 46.9356 23.615L47.1256 23.3525C47.1656 23.2958 47.2189 23.2675 47.2856 23.2675C47.3273 23.2675 47.3689 23.2808 47.4106 23.3075C47.4539 23.3342 47.5039 23.3633 47.5606 23.395C47.6173 23.4267 47.6831 23.4558 47.7581 23.4825C47.8331 23.5092 47.9239 23.5225 48.0306 23.5225C48.1439 23.5225 48.2439 23.5042 48.3306 23.4675C48.4173 23.4308 48.4889 23.38 48.5456 23.315C48.6039 23.2483 48.6473 23.17 48.6756 23.08C48.7056 22.9883 48.7206 22.8892 48.7206 22.7825C48.7206 22.5858 48.6631 22.4325 48.5481 22.3225C48.4348 22.2108 48.2673 22.155 48.0456 22.155C47.8706 22.155 47.6948 22.1867 47.5181 22.25L47.1331 22.14L47.4331 20.385H49.2181V20.6475Z" fill="white"/>
<path fill-rule="evenodd" clip-rule="evenodd" d="M63.0694 24.4795L63.4295 23.5282L66.5258 25.1864L66.161 26.1352L63.0694 24.4795ZM62.7123 25.4226L62.2751 26.5777L65.3565 28.228L65.7994 27.076L62.7123 25.4226ZM61.5112 28.5955L61.918 27.5209L64.9949 29.1687L64.5828 30.2405L61.5112 28.5955ZM61.1542 29.5387L60.4676 31.3524L59.5323 30.9984L63.4146 20.7429L64.3498 21.0969L63.7865 22.585L66.8874 24.2457L67.5332 22.5657L68.4667 22.9245L64.5319 33.1599L63.5985 32.8011L64.2212 31.1812L61.1542 29.5387Z" fill="white"/>
<path d="M58.746 23.445H60.1935V24H58.0735V20.385H58.746V23.445Z" fill="white"/>
<path fill-rule="evenodd" clip-rule="evenodd" d="M81.0695 24.4795L81.4296 23.5282L84.5259 25.1864L84.1611 26.1352L81.0695 24.4795ZM80.7124 25.4226L80.2752 26.5777L83.3566 28.228L83.7995 27.076L80.7124 25.4226ZM79.5114 28.5955L79.9182 27.5209L82.995 29.1687L82.583 30.2405L79.5114 28.5955ZM79.1543 29.5387L78.4677 31.3524L77.5325 30.9984L81.4147 20.7429L82.3499 21.0969L81.7866 22.585L84.8875 24.2457L85.5334 22.5657L86.4668 22.9245L82.532 33.1599L81.5986 32.8011L82.2213 31.1812L79.1543 29.5387Z" fill="white"/>
<path d="M75.2351 20.385H75.7776C75.8359 20.385 75.8834 20.3992 75.9201 20.4275C75.9568 20.4558 75.9843 20.4925 76.0026 20.5375L76.8526 22.7425C76.8809 22.8142 76.9076 22.8933 76.9326 22.98C76.9593 23.065 76.9843 23.155 77.0076 23.25C77.0459 23.0583 77.0934 22.8892 77.1501 22.7425L77.9976 20.5375C78.0126 20.4992 78.0393 20.4642 78.0776 20.4325C78.1159 20.4008 78.1634 20.385 78.2201 20.385H78.7626L77.3026 24H76.6951L75.2351 20.385Z" fill="white"/>
<path fill-rule="evenodd" clip-rule="evenodd" d="M99.0695 24.4795L99.4296 23.5282L102.526 25.1864L102.161 26.1352L99.0695 24.4795ZM98.7124 25.4226L98.2752 26.5777L101.357 28.228L101.8 27.076L98.7124 25.4226ZM97.5114 28.5955L97.9182 27.5209L100.995 29.1687L100.583 30.2405L97.5114 28.5955ZM97.1543 29.5387L96.4677 31.3524L95.5325 30.9984L99.4147 20.7429L100.35 21.0969L99.7866 22.585L102.888 24.2457L103.533 22.5657L104.467 22.9245L100.532 33.1599L99.5986 32.8011L100.221 31.1812L97.1543 29.5387Z" fill="white"/>
<path d="M96.7073 22.1925C96.7073 22.4575 96.6632 22.7008 96.5748 22.9225C96.4865 23.1442 96.3623 23.335 96.2023 23.495C96.0423 23.655 95.8498 23.7792 95.6248 23.8675C95.3998 23.9558 95.1507 24 94.8773 24H93.4973V20.385H94.8773C95.1507 20.385 95.3998 20.43 95.6248 20.52C95.8498 20.6083 96.0423 20.7325 96.2023 20.8925C96.3623 21.0508 96.4865 21.2408 96.5748 21.4625C96.6632 21.6842 96.7073 21.9275 96.7073 22.1925ZM96.0198 22.1925C96.0198 21.9942 95.9932 21.8167 95.9398 21.66C95.8865 21.5017 95.8107 21.3683 95.7123 21.26C95.614 21.15 95.494 21.0658 95.3523 21.0075C95.2123 20.9492 95.054 20.92 94.8773 20.92H94.1748V23.465H94.8773C95.054 23.465 95.2123 23.4358 95.3523 23.3775C95.494 23.3192 95.614 23.2358 95.7123 23.1275C95.8107 23.0175 95.8865 22.8842 95.9398 22.7275C95.9932 22.5692 96.0198 22.3908 96.0198 22.1925Z" fill="white"/>
<path d="M115.538 26.0874C120.39 26.1067 121.989 29.6776 121.992 31L123 30.9974C122.996 29.0171 120.855 24.8931 115.282 25.0021H111V26.0894H115.247C115.262 26.089 115.276 26.0897 115.291 26.0894H115.538V26.0874Z" fill="white"/>
<path d="M113.32 22.1925C113.32 22.4575 113.276 22.7033 113.188 22.93C113.099 23.155 112.975 23.35 112.815 23.515C112.655 23.68 112.463 23.8092 112.238 23.9025C112.013 23.9942 111.764 24.04 111.49 24.04C111.217 24.04 110.967 23.9942 110.74 23.9025C110.515 23.8092 110.322 23.68 110.16 23.515C110 23.35 109.876 23.155 109.788 22.93C109.699 22.7033 109.655 22.4575 109.655 22.1925C109.655 21.9275 109.699 21.6825 109.788 21.4575C109.876 21.2308 110 21.035 110.16 20.87C110.322 20.705 110.515 20.5767 110.74 20.485C110.967 20.3917 111.217 20.345 111.49 20.345C111.764 20.345 112.013 20.3917 112.238 20.485C112.463 20.5783 112.655 20.7075 112.815 20.8725C112.975 21.0358 113.099 21.2308 113.188 21.4575C113.276 21.6825 113.32 21.9275 113.32 22.1925ZM112.63 22.1925C112.63 21.9942 112.604 21.8167 112.55 21.66C112.499 21.5017 112.424 21.3675 112.325 21.2575C112.227 21.1475 112.107 21.0633 111.965 21.005C111.825 20.9467 111.667 20.9175 111.49 20.9175C111.314 20.9175 111.154 20.9467 111.013 21.005C110.871 21.0633 110.75 21.1475 110.65 21.2575C110.552 21.3675 110.476 21.5017 110.423 21.66C110.369 21.8167 110.343 21.9942 110.343 22.1925C110.343 22.3908 110.369 22.5692 110.423 22.7275C110.476 22.8842 110.552 23.0175 110.65 23.1275C110.75 23.2358 110.871 23.3192 111.013 23.3775C111.154 23.4358 111.314 23.465 111.49 23.465C111.667 23.465 111.825 23.4358 111.965 23.3775C112.107 23.3192 112.227 23.2358 112.325 23.1275C112.424 23.0175 112.499 22.8842 112.55 22.7275C112.604 22.5692 112.63 22.3908 112.63 22.1925ZM113.852 24V20.385H115.099C115.336 20.385 115.538 20.4075 115.704 20.4525C115.873 20.4975 116.01 20.5617 116.117 20.645C116.225 20.7283 116.304 20.8292 116.354 20.9475C116.404 21.0658 116.429 21.1992 116.429 21.3475C116.429 21.4325 116.417 21.5142 116.392 21.5925C116.367 21.6692 116.328 21.7417 116.274 21.81C116.223 21.8767 116.156 21.9375 116.074 21.9925C115.994 22.0475 115.898 22.0942 115.787 22.1325C116.283 22.2442 116.532 22.5125 116.532 22.9375C116.532 23.0908 116.503 23.2325 116.444 23.3625C116.386 23.4925 116.301 23.605 116.189 23.7C116.078 23.7933 115.94 23.8667 115.777 23.92C115.613 23.9733 115.427 24 115.217 24H113.852ZM114.524 22.415V23.475H115.207C115.332 23.475 115.436 23.46 115.519 23.43C115.604 23.4 115.672 23.36 115.722 23.31C115.773 23.26 115.81 23.2017 115.832 23.135C115.855 23.0683 115.867 22.9975 115.867 22.9225C115.867 22.8442 115.854 22.7742 115.829 22.7125C115.804 22.6492 115.765 22.5958 115.712 22.5525C115.658 22.5075 115.59 22.4733 115.507 22.45C115.423 22.4267 115.323 22.415 115.204 22.415H114.524ZM114.524 21.95H115.062C115.29 21.95 115.463 21.9083 115.582 21.825C115.7 21.7417 115.759 21.6092 115.759 21.4275C115.759 21.2392 115.706 21.105 115.599 21.025C115.493 20.945 115.326 20.905 115.099 20.905H114.524V21.95ZM116.994 22.2325H118.289V22.7475H116.994V22.2325ZM119.607 22.14L118.455 20.385H119.125C119.171 20.385 119.205 20.3917 119.225 20.405C119.246 20.4167 119.265 20.4367 119.282 20.465L120.105 21.7925C120.113 21.7708 120.122 21.75 120.132 21.73C120.142 21.7083 120.154 21.6867 120.167 21.665L120.92 20.4775C120.956 20.4158 121.004 20.385 121.062 20.385H121.707L120.542 22.1125L121.74 24H121.067C121.022 24 120.985 23.9883 120.957 23.965C120.93 23.9417 120.908 23.915 120.89 23.885L120.052 22.5C120.045 22.52 120.038 22.5392 120.03 22.5575C120.021 22.5742 120.013 22.59 120.005 22.605L119.202 23.885C119.184 23.9133 119.161 23.94 119.135 23.965C119.108 23.9883 119.075 24 119.035 24H118.405L119.607 22.14ZM123.796 24C123.716 24 123.663 23.9625 123.638 23.8875L123.588 23.64C123.535 23.7 123.479 23.7542 123.421 23.8025C123.362 23.8508 123.299 23.8925 123.231 23.9275C123.164 23.9625 123.091 23.9892 123.013 24.0075C122.936 24.0275 122.853 24.0375 122.763 24.0375C122.623 24.0375 122.495 24.0083 122.378 23.95C122.261 23.8917 122.161 23.8075 122.076 23.6975C121.992 23.5858 121.927 23.4483 121.881 23.285C121.836 23.1217 121.813 22.935 121.813 22.725C121.813 22.535 121.839 22.3583 121.891 22.195C121.942 22.0317 122.016 21.89 122.113 21.77C122.21 21.65 122.326 21.5567 122.461 21.49C122.596 21.4217 122.747 21.3875 122.916 21.3875C123.059 21.3875 123.181 21.4108 123.283 21.4575C123.385 21.5025 123.476 21.5633 123.556 21.64V20.285H124.173V24H123.796ZM122.973 23.5475C123.101 23.5475 123.211 23.5208 123.301 23.4675C123.391 23.4142 123.476 23.3383 123.556 23.24V22.09C123.486 22.005 123.409 21.945 123.326 21.91C123.244 21.875 123.156 21.8575 123.061 21.8575C122.967 21.8575 122.882 21.875 122.806 21.91C122.731 21.945 122.666 21.9983 122.613 22.07C122.561 22.14 122.521 22.23 122.493 22.34C122.465 22.4483 122.451 22.5767 122.451 22.725C122.451 22.875 122.462 23.0025 122.486 23.1075C122.511 23.2108 122.546 23.2958 122.591 23.3625C122.636 23.4275 122.691 23.475 122.756 23.505C122.821 23.5333 122.893 23.5475 122.973 23.5475Z" fill="white"/>
<path fill-rule="evenodd" clip-rule="evenodd" d="M136 26H129V25H136C137.314 25 138.597 25.2883 139.544 26.2492C140.487 27.2067 141 28.736 141 31H140C140 28.864 139.513 27.6433 138.831 26.9508C138.153 26.2617 137.186 26 136 26Z" fill="white"/>
<path d="M131.32 22.1925C131.32 22.4575 131.276 22.7033 131.188 22.93C131.099 23.155 130.975 23.35 130.815 23.515C130.655 23.68 130.463 23.8092 130.238 23.9025C130.013 23.9942 129.764 24.04 129.49 24.04C129.217 24.04 128.967 23.9942 128.74 23.9025C128.515 23.8092 128.322 23.68 128.16 23.515C128 23.35 127.876 23.155 127.788 22.93C127.699 22.7033 127.655 22.4575 127.655 22.1925C127.655 21.9275 127.699 21.6825 127.788 21.4575C127.876 21.2308 128 21.035 128.16 20.87C128.322 20.705 128.515 20.5767 128.74 20.485C128.967 20.3917 129.217 20.345 129.49 20.345C129.764 20.345 130.013 20.3917 130.238 20.485C130.463 20.5783 130.655 20.7075 130.815 20.8725C130.975 21.0358 131.099 21.2308 131.188 21.4575C131.276 21.6825 131.32 21.9275 131.32 22.1925ZM130.63 22.1925C130.63 21.9942 130.604 21.8167 130.55 21.66C130.499 21.5017 130.424 21.3675 130.325 21.2575C130.227 21.1475 130.107 21.0633 129.965 21.005C129.825 20.9467 129.667 20.9175 129.49 20.9175C129.314 20.9175 129.154 20.9467 129.013 21.005C128.871 21.0633 128.75 21.1475 128.65 21.2575C128.552 21.3675 128.476 21.5017 128.423 21.66C128.369 21.8167 128.343 21.9942 128.343 22.1925C128.343 22.3908 128.369 22.5692 128.423 22.7275C128.476 22.8842 128.552 23.0175 128.65 23.1275C128.75 23.2358 128.871 23.3192 129.013 23.3775C129.154 23.4358 129.314 23.465 129.49 23.465C129.667 23.465 129.825 23.4358 129.965 23.3775C130.107 23.3192 130.227 23.2358 130.325 23.1275C130.424 23.0175 130.499 22.8842 130.55 22.7275C130.604 22.5692 130.63 22.3908 130.63 22.1925ZM131.852 24V20.385H133.099C133.336 20.385 133.538 20.4075 133.704 20.4525C133.873 20.4975 134.01 20.5617 134.117 20.645C134.225 20.7283 134.304 20.8292 134.354 20.9475C134.404 21.0658 134.429 21.1992 134.429 21.3475C134.429 21.4325 134.417 21.5142 134.392 21.5925C134.367 21.6692 134.328 21.7417 134.274 21.81C134.223 21.8767 134.156 21.9375 134.074 21.9925C133.994 22.0475 133.898 22.0942 133.787 22.1325C134.283 22.2442 134.532 22.5125 134.532 22.9375C134.532 23.0908 134.503 23.2325 134.444 23.3625C134.386 23.4925 134.301 23.605 134.189 23.7C134.078 23.7933 133.94 23.8667 133.777 23.92C133.613 23.9733 133.427 24 133.217 24H131.852ZM132.524 22.415V23.475H133.207C133.332 23.475 133.436 23.46 133.519 23.43C133.604 23.4 133.672 23.36 133.722 23.31C133.773 23.26 133.81 23.2017 133.832 23.135C133.855 23.0683 133.867 22.9975 133.867 22.9225C133.867 22.8442 133.854 22.7742 133.829 22.7125C133.804 22.6492 133.765 22.5958 133.712 22.5525C133.658 22.5075 133.59 22.4733 133.507 22.45C133.423 22.4267 133.323 22.415 133.204 22.415H132.524ZM132.524 21.95H133.062C133.29 21.95 133.463 21.9083 133.582 21.825C133.7 21.7417 133.759 21.6092 133.759 21.4275C133.759 21.2392 133.706 21.105 133.599 21.025C133.493 20.945 133.326 20.905 133.099 20.905H132.524V21.95ZM134.994 22.2325H136.289V22.7475H134.994V22.2325ZM137.607 22.14L136.455 20.385H137.125C137.171 20.385 137.205 20.3917 137.225 20.405C137.246 20.4167 137.265 20.4367 137.282 20.465L138.105 21.7925C138.113 21.7708 138.122 21.75 138.132 21.73C138.142 21.7083 138.154 21.6867 138.167 21.665L138.92 20.4775C138.956 20.4158 139.004 20.385 139.062 20.385H139.707L138.542 22.1125L139.74 24H139.067C139.022 24 138.985 23.9883 138.957 23.965C138.93 23.9417 138.908 23.915 138.89 23.885L138.052 22.5C138.045 22.52 138.038 22.5392 138.03 22.5575C138.021 22.5742 138.013 22.59 138.005 22.605L137.202 23.885C137.184 23.9133 137.161 23.94 137.135 23.965C137.108 23.9883 137.075 24 137.035 24H136.405L137.607 22.14ZM141.796 24C141.716 24 141.663 23.9625 141.638 23.8875L141.588 23.64C141.535 23.7 141.479 23.7542 141.421 23.8025C141.362 23.8508 141.299 23.8925 141.231 23.9275C141.164 23.9625 141.091 23.9892 141.013 24.0075C140.936 24.0275 140.853 24.0375 140.763 24.0375C140.623 24.0375 140.495 24.0083 140.378 23.95C140.261 23.8917 140.161 23.8075 140.076 23.6975C139.992 23.5858 139.927 23.4483 139.881 23.285C139.836 23.1217 139.813 22.935 139.813 22.725C139.813 22.535 139.839 22.3583 139.891 22.195C139.942 22.0317 140.016 21.89 140.113 21.77C140.21 21.65 140.326 21.5567 140.461 21.49C140.596 21.4217 140.747 21.3875 140.916 21.3875C141.059 21.3875 141.181 21.4108 141.283 21.4575C141.385 21.5025 141.476 21.5633 141.556 21.64V20.285H142.173V24H141.796ZM140.973 23.5475C141.101 23.5475 141.211 23.5208 141.301 23.4675C141.391 23.4142 141.476 23.3383 141.556 23.24V22.09C141.486 22.005 141.409 21.945 141.326 21.91C141.244 21.875 141.156 21.8575 141.061 21.8575C140.967 21.8575 140.882 21.875 140.806 21.91C140.731 21.945 140.666 21.9983 140.613 22.07C140.561 22.14 140.521 22.23 140.493 22.34C140.465 22.4483 140.451 22.5767 140.451 22.725C140.451 22.875 140.462 23.0025 140.486 23.1075C140.511 23.2108 140.546 23.2958 140.591 23.3625C140.636 23.4275 140.691 23.475 140.756 23.505C140.821 23.5333 140.893 23.5475 140.973 23.5475Z" fill="white"/>
<path d="M151.556 23.1475C151.592 23.1475 151.624 23.1617 151.651 23.19L151.916 23.4775C151.769 23.6592 151.588 23.7983 151.373 23.895C151.16 23.9917 150.903 24.04 150.603 24.04C150.335 24.04 150.093 23.9942 149.878 23.9025C149.665 23.8108 149.482 23.6833 149.331 23.52C149.179 23.3567 149.062 23.1617 148.981 22.935C148.901 22.7083 148.861 22.4608 148.861 22.1925C148.861 21.9208 148.906 21.6725 148.996 21.4475C149.086 21.2208 149.212 21.0258 149.376 20.8625C149.539 20.6992 149.734 20.5725 149.961 20.4825C150.189 20.3908 150.441 20.345 150.716 20.345C150.984 20.345 151.218 20.3883 151.418 20.475C151.62 20.56 151.792 20.6733 151.936 20.815L151.711 21.1275C151.697 21.1475 151.68 21.165 151.658 21.18C151.638 21.195 151.61 21.2025 151.573 21.2025C151.535 21.2025 151.496 21.1875 151.456 21.1575C151.416 21.1275 151.365 21.095 151.303 21.06C151.241 21.025 151.163 20.9925 151.068 20.9625C150.975 20.9325 150.856 20.9175 150.711 20.9175C150.541 20.9175 150.384 20.9475 150.241 21.0075C150.099 21.0658 149.976 21.15 149.873 21.26C149.771 21.37 149.691 21.5042 149.633 21.6625C149.576 21.8192 149.548 21.9958 149.548 22.1925C149.548 22.3958 149.576 22.5767 149.633 22.735C149.691 22.8933 149.77 23.0267 149.868 23.135C149.966 23.2433 150.082 23.3267 150.216 23.385C150.349 23.4417 150.492 23.47 150.646 23.47C150.737 23.47 150.82 23.465 150.893 23.455C150.968 23.445 151.036 23.4292 151.098 23.4075C151.161 23.3858 151.221 23.3583 151.276 23.325C151.332 23.29 151.388 23.2475 151.443 23.1975C151.46 23.1825 151.477 23.1708 151.496 23.1625C151.514 23.1525 151.534 23.1475 151.556 23.1475ZM152.09 20.385H152.655C152.713 20.385 152.762 20.3992 152.8 20.4275C152.84 20.4542 152.867 20.4908 152.88 20.5375L153.495 22.7C153.51 22.7533 153.523 22.8117 153.535 22.875C153.548 22.9367 153.561 23.0025 153.573 23.0725C153.586 23.0025 153.6 22.9367 153.615 22.875C153.632 22.8117 153.649 22.7533 153.668 22.7L154.378 20.5375C154.391 20.4992 154.417 20.4642 154.455 20.4325C154.495 20.4008 154.543 20.385 154.6 20.385H154.798C154.856 20.385 154.904 20.3992 154.943 20.4275C154.981 20.4542 155.008 20.4908 155.023 20.5375L155.728 22.7C155.764 22.8067 155.796 22.925 155.823 23.055C155.834 22.99 155.846 22.9275 155.858 22.8675C155.871 22.8075 155.884 22.7517 155.898 22.7L156.513 20.5375C156.524 20.4958 156.55 20.46 156.59 20.43C156.63 20.4 156.678 20.385 156.735 20.385H157.263L156.14 24H155.533L154.743 21.53C154.733 21.4983 154.722 21.4642 154.71 21.4275C154.7 21.3908 154.69 21.3517 154.68 21.31C154.67 21.3517 154.659 21.3908 154.648 21.4275C154.638 21.4642 154.628 21.4983 154.618 21.53L153.82 24H153.213L152.09 20.385Z" fill="white"/>
<path d="M159 31C159 29.7633 158 28.4996 158 27C158 25.5004 157.5 24.5 157 24.5C156.5 24.5 156 25.5 155 25.5C154 25.5 154 26 153.5 26C153 26 153 25.5 152 25.5C151 25.5 147 25.5 147 25.5" stroke="white"/>
<path d="M167.805 22.5875V24H167.132V20.385H168.235C168.481 20.385 168.692 20.4108 168.867 20.4625C169.044 20.5125 169.188 20.5833 169.3 20.675C169.413 20.7667 169.495 20.8767 169.547 21.005C169.6 21.1317 169.627 21.2717 169.627 21.425C169.627 21.5467 169.609 21.6617 169.572 21.77C169.537 21.8783 169.485 21.9767 169.417 22.065C169.35 22.1533 169.267 22.2308 169.167 22.2975C169.069 22.3642 168.956 22.4175 168.83 22.4575C168.915 22.5058 168.988 22.575 169.05 22.665L169.955 24H169.35C169.291 24 169.241 23.9883 169.2 23.965C169.16 23.9417 169.125 23.9083 169.097 23.865L168.337 22.7075C168.309 22.6642 168.277 22.6333 168.242 22.615C168.209 22.5967 168.159 22.5875 168.092 22.5875H167.805ZM167.805 22.105H168.225C168.351 22.105 168.461 22.0892 168.555 22.0575C168.65 22.0258 168.727 21.9825 168.787 21.9275C168.849 21.8708 168.895 21.8042 168.925 21.7275C168.955 21.6508 168.97 21.5667 168.97 21.475C168.97 21.2917 168.909 21.1508 168.787 21.0525C168.667 20.9542 168.483 20.905 168.235 20.905H167.805V22.105ZM170.051 20.385H170.616C170.674 20.385 170.723 20.3992 170.761 20.4275C170.801 20.4542 170.828 20.4908 170.841 20.5375L171.456 22.7C171.471 22.7533 171.484 22.8117 171.496 22.875C171.509 22.9367 171.522 23.0025 171.533 23.0725C171.547 23.0025 171.561 22.9367 171.576 22.875C171.593 22.8117 171.61 22.7533 171.628 22.7L172.338 20.5375C172.352 20.4992 172.378 20.4642 172.416 20.4325C172.456 20.4008 172.504 20.385 172.561 20.385H172.758C172.817 20.385 172.865 20.3992 172.903 20.4275C172.942 20.4542 172.968 20.4908 172.983 20.5375L173.688 22.7C173.725 22.8067 173.757 22.925 173.783 23.055C173.795 22.99 173.807 22.9275 173.818 22.8675C173.832 22.8075 173.845 22.7517 173.858 22.7L174.473 20.5375C174.485 20.4958 174.511 20.46 174.551 20.43C174.591 20.4 174.639 20.385 174.696 20.385H175.223L174.101 24H173.493L172.703 21.53C172.693 21.4983 172.683 21.4642 172.671 21.4275C172.661 21.3908 172.651 21.3517 172.641 21.31C172.631 21.3517 172.62 21.3908 172.608 21.4275C172.598 21.4642 172.588 21.4983 172.578 21.53L171.781 24H171.173L170.051 20.385Z" fill="white"/>
<path d="M177 31C177 29.7633 176 28.4996 176 27C176 25.5004 175.5 24.5 175 24.5C174.5 24.5 174 25.5 173 25.5C172 25.5 172 26 171.5 26C171 26 171 25.5 170 25.5C169 25.5 165 25.5 165 25.5" stroke="white"/>
<path fill-rule="evenodd" clip-rule="evenodd" d="M5.00577 45.8547C4.25511 46.8972 4 48.1633 4 49H3C3 48.0033 3.29489 46.5194 4.19423 45.2703C5.11193 43.9958 6.63704 43 9 43C11.363 43 12.8881 43.9958 13.8058 45.2703C14.7051 46.5194 15 48.0033 15 49H14C14 48.1633 13.7449 46.8972 12.9942 45.8547C12.2619 44.8376 11.037 44 9 44C6.96296 44 5.73807 44.8376 5.00577 45.8547Z" fill="white"/>
<path d="M23 49C23 46 24 43 27 43C30 43 31 46 31 49" stroke="white"/>
<path fill-rule="evenodd" clip-rule="evenodd" d="M41.0058 45.8547C40.2551 46.8972 40 48.1633 40 49H39C39 48.0033 39.2949 46.5194 40.1942 45.2703C41.1119 43.9958 42.637 43 45 43C47.363 43 48.8881 43.9958 49.8058 45.2703C50.7051 46.5194 51 48.0033 51 49H50C50 48.1633 49.7449 46.8972 48.9942 45.8547C48.2619 44.8376 47.037 44 45 44C42.963 44 41.7381 44.8376 41.0058 45.8547Z" fill="white"/>
<path d="M41.3203 40.1925C41.3203 40.4575 41.2761 40.7033 41.1878 40.93C41.0995 41.155 40.9753 41.35 40.8153 41.515C40.6553 41.68 40.4628 41.8092 40.2378 41.9025C40.0128 41.9942 39.7636 42.04 39.4903 42.04C39.217 42.04 38.967 41.9942 38.7403 41.9025C38.5153 41.8092 38.322 41.68 38.1603 41.515C38.0003 41.35 37.8761 41.155 37.7878 40.93C37.6995 40.7033 37.6553 40.4575 37.6553 40.1925C37.6553 39.9275 37.6995 39.6825 37.7878 39.4575C37.8761 39.2308 38.0003 39.035 38.1603 38.87C38.322 38.705 38.5153 38.5767 38.7403 38.485C38.967 38.3917 39.217 38.345 39.4903 38.345C39.7636 38.345 40.0128 38.3917 40.2378 38.485C40.4628 38.5783 40.6553 38.7075 40.8153 38.8725C40.9753 39.0358 41.0995 39.2308 41.1878 39.4575C41.2761 39.6825 41.3203 39.9275 41.3203 40.1925ZM40.6303 40.1925C40.6303 39.9942 40.6036 39.8167 40.5503 39.66C40.4986 39.5017 40.4236 39.3675 40.3253 39.2575C40.227 39.1475 40.107 39.0633 39.9653 39.005C39.8253 38.9467 39.667 38.9175 39.4903 38.9175C39.3136 38.9175 39.1545 38.9467 39.0128 39.005C38.8711 39.0633 38.7503 39.1475 38.6503 39.2575C38.552 39.3675 38.4761 39.5017 38.4228 39.66C38.3695 39.8167 38.3428 39.9942 38.3428 40.1925C38.3428 40.3908 38.3695 40.5692 38.4228 40.7275C38.4761 40.8842 38.552 41.0175 38.6503 41.1275C38.7503 41.2358 38.8711 41.3192 39.0128 41.3775C39.1545 41.4358 39.3136 41.465 39.4903 41.465C39.667 41.465 39.8253 41.4358 39.9653 41.3775C40.107 41.3192 40.227 41.2358 40.3253 41.1275C40.4236 41.0175 40.4986 40.8842 40.5503 40.7275C40.6036 40.5692 40.6303 40.3908 40.6303 40.1925ZM41.8518 42V38.385H43.0993C43.336 38.385 43.5376 38.4075 43.7043 38.4525C43.8726 38.4975 44.0101 38.5617 44.1168 38.645C44.2251 38.7283 44.3043 38.8292 44.3543 38.9475C44.4043 39.0658 44.4293 39.1992 44.4293 39.3475C44.4293 39.4325 44.4168 39.5142 44.3918 39.5925C44.3668 39.6692 44.3276 39.7417 44.2743 39.81C44.2226 39.8767 44.156 39.9375 44.0743 39.9925C43.9943 40.0475 43.8985 40.0942 43.7868 40.1325C44.2835 40.2442 44.5318 40.5125 44.5318 40.9375C44.5318 41.0908 44.5026 41.2325 44.4443 41.3625C44.386 41.4925 44.301 41.605 44.1893 41.7C44.0776 41.7933 43.9401 41.8667 43.7768 41.92C43.6135 41.9733 43.4268 42 43.2168 42H41.8518ZM42.5243 40.415V41.475H43.2068C43.3318 41.475 43.436 41.46 43.5193 41.43C43.6043 41.4 43.6718 41.36 43.7218 41.31C43.7735 41.26 43.8101 41.2017 43.8318 41.135C43.8551 41.0683 43.8668 40.9975 43.8668 40.9225C43.8668 40.8442 43.8543 40.7742 43.8293 40.7125C43.8043 40.6492 43.7651 40.5958 43.7118 40.5525C43.6585 40.5075 43.5901 40.4733 43.5068 40.45C43.4235 40.4267 43.3226 40.415 43.2043 40.415H42.5243ZM42.5243 39.95H43.0618C43.2901 39.95 43.4635 39.9083 43.5818 39.825C43.7001 39.7417 43.7593 39.6092 43.7593 39.4275C43.7593 39.2392 43.706 39.105 43.5993 39.025C43.4926 38.945 43.326 38.905 43.0993 38.905H42.5243V39.95ZM44.9937 40.2325H46.2887V40.7475H44.9937V40.2325ZM47.607 40.14L46.4545 38.385H47.1245C47.1712 38.385 47.2045 38.3917 47.2245 38.405C47.2462 38.4167 47.2653 38.4367 47.282 38.465L48.1045 39.7925C48.1128 39.7708 48.122 39.75 48.132 39.73C48.142 39.7083 48.1537 39.6867 48.167 39.665L48.9195 38.4775C48.9562 38.4158 49.0037 38.385 49.062 38.385H49.707L48.542 40.1125L49.7395 42H49.067C49.022 42 48.9853 41.9883 48.957 41.965C48.9303 41.9417 48.9078 41.915 48.8895 41.885L48.052 40.5C48.0453 40.52 48.0378 40.5392 48.0295 40.5575C48.0212 40.5742 48.0128 40.59 48.0045 40.605L47.202 41.885C47.1837 41.9133 47.1612 41.94 47.1345 41.965C47.1078 41.9883 47.0745 42 47.0345 42H46.4045L47.607 40.14ZM51.7956 42C51.7156 42 51.6631 41.9625 51.6381 41.8875L51.5881 41.64C51.5348 41.7 51.479 41.7542 51.4206 41.8025C51.3623 41.8508 51.299 41.8925 51.2306 41.9275C51.164 41.9625 51.0915 41.9892 51.0131 42.0075C50.9365 42.0275 50.8531 42.0375 50.7631 42.0375C50.6231 42.0375 50.4948 42.0083 50.3781 41.95C50.2615 41.8917 50.1606 41.8075 50.0756 41.6975C49.9923 41.5858 49.9273 41.4483 49.8806 41.285C49.8356 41.1217 49.8131 40.935 49.8131 40.725C49.8131 40.535 49.839 40.3583 49.8906 40.195C49.9423 40.0317 50.0165 39.89 50.1131 39.77C50.2098 39.65 50.3256 39.5567 50.4606 39.49C50.5956 39.4217 50.7473 39.3875 50.9156 39.3875C51.059 39.3875 51.1815 39.4108 51.2831 39.4575C51.3848 39.5025 51.4756 39.5633 51.5556 39.64V38.285H52.1731V42H51.7956ZM50.9731 41.5475C51.1015 41.5475 51.2106 41.5208 51.3006 41.4675C51.3906 41.4142 51.4756 41.3383 51.5556 41.24V40.09C51.4856 40.005 51.409 39.945 51.3256 39.91C51.244 39.875 51.1556 39.8575 51.0606 39.8575C50.9673 39.8575 50.8823 39.875 50.8056 39.91C50.7306 39.945 50.6665 39.9983 50.6131 40.07C50.5615 40.14 50.5215 40.23 50.4931 40.34C50.4648 40.4483 50.4506 40.5767 50.4506 40.725C50.4506 40.875 50.4623 41.0025 50.4856 41.1075C50.5106 41.2108 50.5456 41.2958 50.5906 41.3625C50.6356 41.4275 50.6906 41.475 50.7556 41.505C50.8206 41.5333 50.8931 41.5475 50.9731 41.5475Z" fill="white"/>
<path d="M59 48.9998C59 47 60.5 47.4992 60.5 45.4996C60.5 43.5 61 43.5 61.5 43.5C62 43.5 62.5 44.5 63 44.5C63.5 44.5 64.0001 43.5 64.5 43.5C64.9999 43.5 65.5 43.4992 65.5 45.4996C65.5 47.5 67 47 67 48.9998" stroke="white"/>
<path d="M61.5556 41.1475C61.5922 41.1475 61.6239 41.1617 61.6506 41.19L61.9156 41.4775C61.7689 41.6592 61.5881 41.7983 61.3731 41.895C61.1597 41.9917 60.9031 42.04 60.6031 42.04C60.3347 42.04 60.0931 41.9942 59.8781 41.9025C59.6647 41.8108 59.4822 41.6833 59.3306 41.52C59.1789 41.3567 59.0622 41.1617 58.9806 40.935C58.9006 40.7083 58.8606 40.4608 58.8606 40.1925C58.8606 39.9208 58.9056 39.6725 58.9956 39.4475C59.0856 39.2208 59.2122 39.0258 59.3756 38.8625C59.5389 38.6992 59.7339 38.5725 59.9606 38.4825C60.1889 38.3908 60.4406 38.345 60.7156 38.345C60.9839 38.345 61.2181 38.3883 61.4181 38.475C61.6197 38.56 61.7922 38.6733 61.9356 38.815L61.7106 39.1275C61.6972 39.1475 61.6797 39.165 61.6581 39.18C61.6381 39.195 61.6097 39.2025 61.5731 39.2025C61.5347 39.2025 61.4956 39.1875 61.4556 39.1575C61.4156 39.1275 61.3647 39.095 61.3031 39.06C61.2414 39.025 61.1631 38.9925 61.0681 38.9625C60.9747 38.9325 60.8556 38.9175 60.7106 38.9175C60.5406 38.9175 60.3839 38.9475 60.2406 39.0075C60.0989 39.0658 59.9764 39.15 59.8731 39.26C59.7714 39.37 59.6914 39.5042 59.6331 39.6625C59.5764 39.8192 59.5481 39.9958 59.5481 40.1925C59.5481 40.3958 59.5764 40.5767 59.6331 40.735C59.6914 40.8933 59.7697 41.0267 59.8681 41.135C59.9664 41.2433 60.0822 41.3267 60.2156 41.385C60.3489 41.4417 60.4922 41.47 60.6456 41.47C60.7372 41.47 60.8197 41.465 60.8931 41.455C60.9681 41.445 61.0364 41.4292 61.0981 41.4075C61.1614 41.3858 61.2206 41.3583 61.2756 41.325C61.3322 41.29 61.3881 41.2475 61.4431 41.1975C61.4597 41.1825 61.4772 41.1708 61.4956 41.1625C61.5139 41.1525 61.5339 41.1475 61.5556 41.1475ZM62.0901 38.385H62.6551C62.7134 38.385 62.7617 38.3992 62.8001 38.4275C62.8401 38.4542 62.8667 38.4908 62.8801 38.5375L63.4951 40.7C63.5101 40.7533 63.5234 40.8117 63.5351 40.875C63.5484 40.9367 63.5609 41.0025 63.5726 41.0725C63.5859 41.0025 63.6001 40.9367 63.6151 40.875C63.6317 40.8117 63.6492 40.7533 63.6676 40.7L64.3776 38.5375C64.3909 38.4992 64.4167 38.4642 64.4551 38.4325C64.4951 38.4008 64.5434 38.385 64.6001 38.385H64.7976C64.8559 38.385 64.9042 38.3992 64.9426 38.4275C64.9809 38.4542 65.0076 38.4908 65.0226 38.5375L65.7276 40.7C65.7642 40.8067 65.7959 40.925 65.8226 41.055C65.8342 40.99 65.8459 40.9275 65.8576 40.8675C65.8709 40.8075 65.8842 40.7517 65.8976 40.7L66.5126 38.5375C66.5242 38.4958 66.5501 38.46 66.5901 38.43C66.6301 38.4 66.6784 38.385 66.7351 38.385H67.2626L66.1401 42H65.5326L64.7426 39.53C64.7326 39.4983 64.7217 39.4642 64.7101 39.4275C64.7001 39.3908 64.6901 39.3517 64.6801 39.31C64.6701 39.3517 64.6592 39.3908 64.6476 39.4275C64.6376 39.4642 64.6276 39.4983 64.6176 39.53L63.8201 42H63.2126L62.0901 38.385Z" fill="white"/>
<path d="M77 48.9998C77 47 78.5 47.4992 78.5 45.4996C78.5 43.5 79 43.5 79.5 43.5C80 43.5 80.5 44.5 81 44.5C81.5 44.5 82.0001 43.5 82.5 43.5C82.9999 43.5 83.5 43.4992 83.5 45.4996C83.5 47.5 85 47 85 48.9998" stroke="white"/>
<path d="M77.8046 40.5875V42H77.1321V38.385H78.2346C78.4813 38.385 78.6921 38.4108 78.8671 38.4625C79.0438 38.5125 79.188 38.5833 79.2996 38.675C79.413 38.7667 79.4955 38.8767 79.5471 39.005C79.6005 39.1317 79.6271 39.2717 79.6271 39.425C79.6271 39.5467 79.6088 39.6617 79.5721 39.77C79.5371 39.8783 79.4855 39.9767 79.4171 40.065C79.3505 40.1533 79.2671 40.2308 79.1671 40.2975C79.0688 40.3642 78.9563 40.4175 78.8296 40.4575C78.9146 40.5058 78.988 40.575 79.0496 40.665L79.9546 42H79.3496C79.2913 42 79.2413 41.9883 79.1996 41.965C79.1596 41.9417 79.1255 41.9083 79.0971 41.865L78.3371 40.7075C78.3088 40.6642 78.2771 40.6333 78.2421 40.615C78.2088 40.5967 78.1588 40.5875 78.0921 40.5875H77.8046ZM77.8046 40.105H78.2246C78.3513 40.105 78.4613 40.0892 78.5546 40.0575C78.6496 40.0258 78.7271 39.9825 78.7871 39.9275C78.8488 39.8708 78.8946 39.8042 78.9246 39.7275C78.9546 39.6508 78.9696 39.5667 78.9696 39.475C78.9696 39.2917 78.9088 39.1508 78.7871 39.0525C78.6671 38.9542 78.483 38.905 78.2346 38.905H77.8046V40.105ZM80.051 38.385H80.616C80.6743 38.385 80.7227 38.3992 80.761 38.4275C80.801 38.4542 80.8277 38.4908 80.841 38.5375L81.456 40.7C81.471 40.7533 81.4843 40.8117 81.496 40.875C81.5093 40.9367 81.5218 41.0025 81.5335 41.0725C81.5468 41.0025 81.561 40.9367 81.576 40.875C81.5927 40.8117 81.6102 40.7533 81.6285 40.7L82.3385 38.5375C82.3518 38.4992 82.3777 38.4642 82.416 38.4325C82.456 38.4008 82.5043 38.385 82.561 38.385H82.7585C82.8168 38.385 82.8652 38.3992 82.9035 38.4275C82.9418 38.4542 82.9685 38.4908 82.9835 38.5375L83.6885 40.7C83.7252 40.8067 83.7568 40.925 83.7835 41.055C83.7952 40.99 83.8068 40.9275 83.8185 40.8675C83.8318 40.8075 83.8452 40.7517 83.8585 40.7L84.4735 38.5375C84.4852 38.4958 84.511 38.46 84.551 38.43C84.591 38.4 84.6393 38.385 84.696 38.385H85.2235L84.101 42H83.4935L82.7035 39.53C82.6935 39.4983 82.6827 39.4642 82.671 39.4275C82.661 39.3908 82.651 39.3517 82.641 39.31C82.631 39.3517 82.6202 39.3908 82.6085 39.4275C82.5985 39.4642 82.5885 39.4983 82.5785 39.53L81.781 42H81.1735L80.051 38.385Z" fill="white"/>
<path d="M10.4622 62.0874C5.61047 62.1067 4.01134 65.6776 4.0084 67L3 66.9974C3.0044 65.0171 5.14529 60.8931 10.7185 61.0021H15V62.0894H10.7532C10.7385 62.089 10.7238 62.0897 10.7091 62.0894H10.4622V62.0874Z" fill="white"/>
<path fill-rule="evenodd" clip-rule="evenodd" d="M26 62H33V61H26C24.6861 61 23.4026 61.2883 22.4563 62.2492C21.5133 63.2067 21 64.736 21 67H22C22 64.864 22.4867 63.6433 23.1687 62.9508C23.8474 62.2617 24.8139 62 26 62Z" fill="white"/>
<path d="M46.4622 62.0874C41.6105 62.1067 40.0113 65.6776 40.0084 67L39 66.9974C39.0044 65.0171 41.1453 60.8931 46.7185 61.0021H51V62.0894H46.7532C46.7385 62.089 46.7238 62.0897 46.7091 62.0894H46.4622V62.0874Z" fill="white"/>
<path d="M41.414 57.9H41.5715C41.6348 57.9 41.6873 57.8917 41.729 57.875C41.7707 57.8567 41.8065 57.8283 41.8365 57.79L42.834 56.5275C42.8757 56.4742 42.919 56.4375 42.964 56.4175C43.0107 56.3958 43.069 56.385 43.139 56.385H43.719L42.5015 57.8875C42.4632 57.9342 42.4265 57.9733 42.3915 58.005C42.3565 58.0367 42.319 58.0625 42.279 58.0825C42.334 58.1025 42.3832 58.1308 42.4265 58.1675C42.4715 58.2042 42.5148 58.2508 42.5565 58.3075L43.8115 60H43.2165C43.1365 60 43.0765 59.9892 43.0365 59.9675C42.9982 59.9442 42.9657 59.9108 42.939 59.8675L41.9165 58.5325C41.8832 58.4892 41.8457 58.4583 41.804 58.44C41.7623 58.42 41.7032 58.41 41.6265 58.41H41.414V60H40.7415V56.3825H41.414V57.9ZM45.4077 56.345C45.5744 56.345 45.7244 56.3692 45.8577 56.4175C45.9927 56.4642 46.1077 56.53 46.2027 56.615C46.2977 56.6983 46.3702 56.7967 46.4202 56.91C46.4719 57.0233 46.4977 57.1458 46.4977 57.2775C46.4977 57.3925 46.4844 57.4942 46.4577 57.5825C46.4327 57.6692 46.3952 57.745 46.3452 57.81C46.2969 57.875 46.2369 57.93 46.1652 57.975C46.0952 58.02 46.0152 58.0575 45.9252 58.0875C46.1419 58.1558 46.3035 58.26 46.4102 58.4C46.5169 58.54 46.5702 58.7158 46.5702 58.9275C46.5702 59.1075 46.5369 59.2667 46.4702 59.405C46.4035 59.5433 46.3135 59.66 46.2002 59.755C46.0869 59.8483 45.9552 59.9192 45.8052 59.9675C45.6569 60.0158 45.4994 60.04 45.3327 60.04C45.151 60.04 44.9927 60.0192 44.8577 59.9775C44.7227 59.9358 44.6052 59.8742 44.5052 59.7925C44.4052 59.7108 44.3202 59.6108 44.2502 59.4925C44.1802 59.3742 44.1202 59.2375 44.0702 59.0825L44.3427 58.97C44.3894 58.95 44.4369 58.94 44.4852 58.94C44.5285 58.94 44.5669 58.9492 44.6002 58.9675C44.6352 58.9858 44.6619 59.0125 44.6802 59.0475C44.7102 59.1058 44.7427 59.1633 44.7777 59.22C44.8144 59.2767 44.8577 59.3275 44.9077 59.3725C44.9577 59.4158 45.016 59.4517 45.0827 59.48C45.151 59.5067 45.2319 59.52 45.3252 59.52C45.4302 59.52 45.5219 59.5033 45.6002 59.47C45.6785 59.435 45.7435 59.39 45.7952 59.335C45.8485 59.28 45.8877 59.2192 45.9127 59.1525C45.9394 59.0842 45.9527 59.0158 45.9527 58.9475C45.9527 58.8608 45.9435 58.7825 45.9252 58.7125C45.9069 58.6408 45.8685 58.58 45.8102 58.53C45.7519 58.48 45.6677 58.4408 45.5577 58.4125C45.4494 58.3842 45.3035 58.37 45.1202 58.37V57.93C45.2719 57.9283 45.3977 57.9142 45.4977 57.8875C45.5977 57.8608 45.6769 57.8242 45.7352 57.7775C45.7952 57.7292 45.8369 57.6717 45.8602 57.605C45.8835 57.5383 45.8952 57.465 45.8952 57.385C45.8952 57.2133 45.8485 57.0842 45.7552 56.9975C45.6619 56.9092 45.5344 56.865 45.3727 56.865C45.226 56.865 45.1044 56.9042 45.0077 56.9825C44.911 57.0592 44.8435 57.1583 44.8052 57.28C44.7852 57.3433 44.7577 57.3892 44.7227 57.4175C44.6877 57.4442 44.6419 57.4575 44.5852 57.4575C44.5585 57.4575 44.5302 57.455 44.5002 57.45L44.1752 57.3925C44.2002 57.2192 44.2485 57.0675 44.3202 56.9375C44.3919 56.8058 44.481 56.6967 44.5877 56.61C44.696 56.5217 44.8194 56.4558 44.9577 56.4125C45.0977 56.3675 45.2477 56.345 45.4077 56.345ZM49.2181 56.6475C49.2181 56.7358 49.1898 56.8075 49.1331 56.8625C49.0781 56.9175 48.9856 56.945 48.8556 56.945H47.8606L47.7306 57.7C47.8939 57.6667 48.0431 57.65 48.1781 57.65C48.3681 57.65 48.5348 57.6783 48.6781 57.735C48.8231 57.7917 48.9448 57.87 49.0431 57.97C49.1414 58.07 49.2156 58.1875 49.2656 58.3225C49.3156 58.4558 49.3406 58.6 49.3406 58.755C49.3406 58.9467 49.3064 59.1217 49.2381 59.28C49.1714 59.4383 49.0781 59.5742 48.9581 59.6875C48.8381 59.7992 48.6956 59.8858 48.5306 59.9475C48.3673 60.0092 48.1889 60.04 47.9956 60.04C47.8823 60.04 47.7748 60.0283 47.6731 60.005C47.5714 59.9817 47.4756 59.9508 47.3856 59.9125C47.2973 59.8725 47.2148 59.8275 47.1381 59.7775C47.0631 59.7258 46.9956 59.6717 46.9356 59.615L47.1256 59.3525C47.1656 59.2958 47.2189 59.2675 47.2856 59.2675C47.3273 59.2675 47.3689 59.2808 47.4106 59.3075C47.4539 59.3342 47.5039 59.3633 47.5606 59.395C47.6173 59.4267 47.6831 59.4558 47.7581 59.4825C47.8331 59.5092 47.9239 59.5225 48.0306 59.5225C48.1439 59.5225 48.2439 59.5042 48.3306 59.4675C48.4173 59.4308 48.4889 59.38 48.5456 59.315C48.6039 59.2483 48.6473 59.17 48.6756 59.08C48.7056 58.9883 48.7206 58.8892 48.7206 58.7825C48.7206 58.5858 48.6631 58.4325 48.5481 58.3225C48.4348 58.2108 48.2673 58.155 48.0456 58.155C47.8706 58.155 47.6948 58.1867 47.5181 58.25L47.1331 58.14L47.4331 56.385H49.2181V56.6475Z" fill="white"/>
<path d="M64.4622 62.0874C59.6105 62.1067 58.0113 65.6776 58.0084 67L57 66.9974C57.0044 65.0171 59.1453 60.8931 64.7185 61.0021H69V62.0894H64.7532C64.7385 62.089 64.7238 62.0897 64.7091 62.0894H64.4622V62.0874Z" fill="white"/>
<path d="M59.3203 58.1925C59.3203 58.4575 59.2761 58.7033 59.1878 58.93C59.0995 59.155 58.9753 59.35 58.8153 59.515C58.6553 59.68 58.4628 59.8092 58.2378 59.9025C58.0128 59.9942 57.7636 60.04 57.4903 60.04C57.217 60.04 56.967 59.9942 56.7403 59.9025C56.5153 59.8092 56.322 59.68 56.1603 59.515C56.0003 59.35 55.8761 59.155 55.7878 58.93C55.6995 58.7033 55.6553 58.4575 55.6553 58.1925C55.6553 57.9275 55.6995 57.6825 55.7878 57.4575C55.8761 57.2308 56.0003 57.035 56.1603 56.87C56.322 56.705 56.5153 56.5767 56.7403 56.485C56.967 56.3917 57.217 56.345 57.4903 56.345C57.7636 56.345 58.0128 56.3917 58.2378 56.485C58.4628 56.5783 58.6553 56.7075 58.8153 56.8725C58.9753 57.0358 59.0995 57.2308 59.1878 57.4575C59.2761 57.6825 59.3203 57.9275 59.3203 58.1925ZM58.6303 58.1925C58.6303 57.9942 58.6036 57.8167 58.5503 57.66C58.4986 57.5017 58.4236 57.3675 58.3253 57.2575C58.227 57.1475 58.107 57.0633 57.9653 57.005C57.8253 56.9467 57.667 56.9175 57.4903 56.9175C57.3136 56.9175 57.1545 56.9467 57.0128 57.005C56.8711 57.0633 56.7503 57.1475 56.6503 57.2575C56.552 57.3675 56.4761 57.5017 56.4228 57.66C56.3695 57.8167 56.3428 57.9942 56.3428 58.1925C56.3428 58.3908 56.3695 58.5692 56.4228 58.7275C56.4761 58.8842 56.552 59.0175 56.6503 59.1275C56.7503 59.2358 56.8711 59.3192 57.0128 59.3775C57.1545 59.4358 57.3136 59.465 57.4903 59.465C57.667 59.465 57.8253 59.4358 57.9653 59.3775C58.107 59.3192 58.227 59.2358 58.3253 59.1275C58.4236 59.0175 58.4986 58.8842 58.5503 58.7275C58.6036 58.5692 58.6303 58.3908 58.6303 58.1925ZM59.8518 60V56.385H61.0993C61.336 56.385 61.5376 56.4075 61.7043 56.4525C61.8726 56.4975 62.0101 56.5617 62.1168 56.645C62.2251 56.7283 62.3043 56.8292 62.3543 56.9475C62.4043 57.0658 62.4293 57.1992 62.4293 57.3475C62.4293 57.4325 62.4168 57.5142 62.3918 57.5925C62.3668 57.6692 62.3276 57.7417 62.2743 57.81C62.2226 57.8767 62.156 57.9375 62.0743 57.9925C61.9943 58.0475 61.8985 58.0942 61.7868 58.1325C62.2835 58.2442 62.5318 58.5125 62.5318 58.9375C62.5318 59.0908 62.5026 59.2325 62.4443 59.3625C62.386 59.4925 62.301 59.605 62.1893 59.7C62.0776 59.7933 61.9401 59.8667 61.7768 59.92C61.6135 59.9733 61.4268 60 61.2168 60H59.8518ZM60.5243 58.415V59.475H61.2068C61.3318 59.475 61.436 59.46 61.5193 59.43C61.6043 59.4 61.6718 59.36 61.7218 59.31C61.7735 59.26 61.8101 59.2017 61.8318 59.135C61.8551 59.0683 61.8668 58.9975 61.8668 58.9225C61.8668 58.8442 61.8543 58.7742 61.8293 58.7125C61.8043 58.6492 61.7651 58.5958 61.7118 58.5525C61.6585 58.5075 61.5901 58.4733 61.5068 58.45C61.4235 58.4267 61.3226 58.415 61.2043 58.415H60.5243ZM60.5243 57.95H61.0618C61.2901 57.95 61.4635 57.9083 61.5818 57.825C61.7001 57.7417 61.7593 57.6092 61.7593 57.4275C61.7593 57.2392 61.706 57.105 61.5993 57.025C61.4926 56.945 61.326 56.905 61.0993 56.905H60.5243V57.95ZM62.9937 58.2325H64.2887V58.7475H62.9937V58.2325ZM65.607 58.14L64.4545 56.385H65.1245C65.1712 56.385 65.2045 56.3917 65.2245 56.405C65.2462 56.4167 65.2653 56.4367 65.282 56.465L66.1045 57.7925C66.1128 57.7708 66.122 57.75 66.132 57.73C66.142 57.7083 66.1537 57.6867 66.167 57.665L66.9195 56.4775C66.9562 56.4158 67.0037 56.385 67.062 56.385H67.707L66.542 58.1125L67.7395 60H67.067C67.022 60 66.9853 59.9883 66.957 59.965C66.9303 59.9417 66.9078 59.915 66.8895 59.885L66.052 58.5C66.0453 58.52 66.0378 58.5392 66.0295 58.5575C66.0212 58.5742 66.0128 58.59 66.0045 58.605L65.202 59.885C65.1837 59.9133 65.1612 59.94 65.1345 59.965C65.1078 59.9883 65.0745 60 65.0345 60H64.4045L65.607 58.14ZM69.7956 60C69.7156 60 69.6631 59.9625 69.6381 59.8875L69.5881 59.64C69.5348 59.7 69.479 59.7542 69.4206 59.8025C69.3623 59.8508 69.299 59.8925 69.2306 59.9275C69.164 59.9625 69.0915 59.9892 69.0131 60.0075C68.9365 60.0275 68.8531 60.0375 68.7631 60.0375C68.6231 60.0375 68.4948 60.0083 68.3781 59.95C68.2615 59.8917 68.1606 59.8075 68.0756 59.6975C67.9923 59.5858 67.9273 59.4483 67.8806 59.285C67.8356 59.1217 67.8131 58.935 67.8131 58.725C67.8131 58.535 67.839 58.3583 67.8906 58.195C67.9423 58.0317 68.0165 57.89 68.1131 57.77C68.2098 57.65 68.3256 57.5567 68.4606 57.49C68.5956 57.4217 68.7473 57.3875 68.9156 57.3875C69.059 57.3875 69.1815 57.4108 69.2831 57.4575C69.3848 57.5025 69.4756 57.5633 69.5556 57.64V56.285H70.1731V60H69.7956ZM68.9731 59.5475C69.1015 59.5475 69.2106 59.5208 69.3006 59.4675C69.3906 59.4142 69.4756 59.3383 69.5556 59.24V58.09C69.4856 58.005 69.409 57.945 69.3256 57.91C69.244 57.875 69.1556 57.8575 69.0606 57.8575C68.9673 57.8575 68.8823 57.875 68.8056 57.91C68.7306 57.945 68.6665 57.9983 68.6131 58.07C68.5615 58.14 68.5215 58.23 68.4931 58.34C68.4648 58.4483 68.4506 58.5767 68.4506 58.725C68.4506 58.875 68.4623 59.0025 68.4856 59.1075C68.5106 59.2108 68.5456 59.2958 68.5906 59.3625C68.6356 59.4275 68.6906 59.475 68.7556 59.505C68.8206 59.5333 68.8931 59.5475 68.9731 59.5475Z" fill="white"/>
<path d="M75 67C75 65.7633 76 64.4996 76 63C76 61.5004 76.5001 60.5 77 60.5C77.4999 60.5 78 61.5 79 61.5C80 61.5 80 62 80.5 62C81 62 81 61.5 82 61.5C83 61.5 87 61.5 87 61.5" stroke="white"/>
<path d="M79.5556 59.1475C79.5922 59.1475 79.6239 59.1617 79.6506 59.19L79.9156 59.4775C79.7689 59.6592 79.5881 59.7983 79.3731 59.895C79.1597 59.9917 78.9031 60.04 78.6031 60.04C78.3347 60.04 78.0931 59.9942 77.8781 59.9025C77.6647 59.8108 77.4822 59.6833 77.3306 59.52C77.1789 59.3567 77.0622 59.1617 76.9806 58.935C76.9006 58.7083 76.8606 58.4608 76.8606 58.1925C76.8606 57.9208 76.9056 57.6725 76.9956 57.4475C77.0856 57.2208 77.2122 57.0258 77.3756 56.8625C77.5389 56.6992 77.7339 56.5725 77.9606 56.4825C78.1889 56.3908 78.4406 56.345 78.7156 56.345C78.9839 56.345 79.2181 56.3883 79.4181 56.475C79.6197 56.56 79.7922 56.6733 79.9356 56.815L79.7106 57.1275C79.6972 57.1475 79.6797 57.165 79.6581 57.18C79.6381 57.195 79.6097 57.2025 79.5731 57.2025C79.5347 57.2025 79.4956 57.1875 79.4556 57.1575C79.4156 57.1275 79.3647 57.095 79.3031 57.06C79.2414 57.025 79.1631 56.9925 79.0681 56.9625C78.9747 56.9325 78.8556 56.9175 78.7106 56.9175C78.5406 56.9175 78.3839 56.9475 78.2406 57.0075C78.0989 57.0658 77.9764 57.15 77.8731 57.26C77.7714 57.37 77.6914 57.5042 77.6331 57.6625C77.5764 57.8192 77.5481 57.9958 77.5481 58.1925C77.5481 58.3958 77.5764 58.5767 77.6331 58.735C77.6914 58.8933 77.7697 59.0267 77.8681 59.135C77.9664 59.2433 78.0822 59.3267 78.2156 59.385C78.3489 59.4417 78.4922 59.47 78.6456 59.47C78.7372 59.47 78.8197 59.465 78.8931 59.455C78.9681 59.445 79.0364 59.4292 79.0981 59.4075C79.1614 59.3858 79.2206 59.3583 79.2756 59.325C79.3322 59.29 79.3881 59.2475 79.4431 59.1975C79.4597 59.1825 79.4772 59.1708 79.4956 59.1625C79.5139 59.1525 79.5339 59.1475 79.5556 59.1475ZM80.0901 56.385H80.6551C80.7134 56.385 80.7617 56.3992 80.8001 56.4275C80.8401 56.4542 80.8667 56.4908 80.8801 56.5375L81.4951 58.7C81.5101 58.7533 81.5234 58.8117 81.5351 58.875C81.5484 58.9367 81.5609 59.0025 81.5726 59.0725C81.5859 59.0025 81.6001 58.9367 81.6151 58.875C81.6317 58.8117 81.6492 58.7533 81.6676 58.7L82.3776 56.5375C82.3909 56.4992 82.4167 56.4642 82.4551 56.4325C82.4951 56.4008 82.5434 56.385 82.6001 56.385H82.7976C82.8559 56.385 82.9042 56.3992 82.9426 56.4275C82.9809 56.4542 83.0076 56.4908 83.0226 56.5375L83.7276 58.7C83.7642 58.8067 83.7959 58.925 83.8226 59.055C83.8342 58.99 83.8459 58.9275 83.8576 58.8675C83.8709 58.8075 83.8842 58.7517 83.8976 58.7L84.5126 56.5375C84.5242 56.4958 84.5501 56.46 84.5901 56.43C84.6301 56.4 84.6784 56.385 84.7351 56.385H85.2626L84.1401 60H83.5326L82.7426 57.53C82.7326 57.4983 82.7217 57.4642 82.7101 57.4275C82.7001 57.3908 82.6901 57.3517 82.6801 57.31C82.6701 57.3517 82.6592 57.3908 82.6476 57.4275C82.6376 57.4642 82.6276 57.4983 82.6176 57.53L81.8201 60H81.2126L80.0901 56.385Z" fill="white"/>
<path d="M93 67C93 65.7633 94 64.4996 94 63C94 61.5004 94.5001 60.5 95 60.5C95.4999 60.5 96 61.5 97 61.5C98 61.5 98 62 98.5 62C99 62 99 61.5 100 61.5C101 61.5 105 61.5 105 61.5" stroke="white"/>
<path d="M95.8046 58.5875V60H95.1321V56.385H96.2346C96.4813 56.385 96.6921 56.4108 96.8671 56.4625C97.0438 56.5125 97.188 56.5833 97.2996 56.675C97.413 56.7667 97.4955 56.8767 97.5471 57.005C97.6005 57.1317 97.6271 57.2717 97.6271 57.425C97.6271 57.5467 97.6088 57.6617 97.5721 57.77C97.5371 57.8783 97.4855 57.9767 97.4171 58.065C97.3505 58.1533 97.2671 58.2308 97.1671 58.2975C97.0688 58.3642 96.9563 58.4175 96.8296 58.4575C96.9146 58.5058 96.988 58.575 97.0496 58.665L97.9546 60H97.3496C97.2913 60 97.2413 59.9883 97.1996 59.965C97.1596 59.9417 97.1255 59.9083 97.0971 59.865L96.3371 58.7075C96.3088 58.6642 96.2771 58.6333 96.2421 58.615C96.2088 58.5967 96.1588 58.5875 96.0921 58.5875H95.8046ZM95.8046 58.105H96.2246C96.3513 58.105 96.4613 58.0892 96.5546 58.0575C96.6496 58.0258 96.7271 57.9825 96.7871 57.9275C96.8488 57.8708 96.8946 57.8042 96.9246 57.7275C96.9546 57.6508 96.9696 57.5667 96.9696 57.475C96.9696 57.2917 96.9088 57.1508 96.7871 57.0525C96.6671 56.9542 96.483 56.905 96.2346 56.905H95.8046V58.105ZM98.051 56.385H98.616C98.6743 56.385 98.7227 56.3992 98.761 56.4275C98.801 56.4542 98.8277 56.4908 98.841 56.5375L99.456 58.7C99.471 58.7533 99.4843 58.8117 99.496 58.875C99.5093 58.9367 99.5218 59.0025 99.5335 59.0725C99.5468 59.0025 99.561 58.9367 99.576 58.875C99.5927 58.8117 99.6102 58.7533 99.6285 58.7L100.338 56.5375C100.352 56.4992 100.378 56.4642 100.416 56.4325C100.456 56.4008 100.504 56.385 100.561 56.385H100.758C100.817 56.385 100.865 56.3992 100.903 56.4275C100.942 56.4542 100.968 56.4908 100.983 56.5375L101.688 58.7C101.725 58.8067 101.757 58.925 101.783 59.055C101.795 58.99 101.807 58.9275 101.818 58.8675C101.832 58.8075 101.845 58.7517 101.858 58.7L102.473 56.5375C102.485 56.4958 102.511 56.46 102.551 56.43C102.591 56.4 102.639 56.385 102.696 56.385H103.223L102.101 60H101.493L100.703 57.53C100.693 57.4983 100.683 57.4642 100.671 57.4275C100.661 57.3908 100.651 57.3517 100.641 57.31C100.631 57.3517 100.62 57.3908 100.608 57.4275C100.598 57.4642 100.588 57.4983 100.578 57.53L99.781 60H99.1735L98.051 56.385Z" fill="white"/>
<path fill-rule="evenodd" clip-rule="evenodd" d="M6.61327 80.6973C6.00115 80.2892 5.16251 80 4 80V79C5.33749 79 6.37385 79.3358 7.16798 79.8652C7.95897 80.3926 8.48006 81.0921 8.82221 81.7764C8.88763 81.9072 8.94669 82.0378 9 82.167C9.05332 82.0378 9.11237 81.9072 9.17779 81.7764C9.51994 81.0921 10.041 80.3926 10.832 79.8652C11.6261 79.3358 12.6625 79 14 79V80C12.8375 80 11.9989 80.2892 11.3867 80.6973C10.7715 81.1074 10.3551 81.6579 10.0722 82.2236C9.78839 82.7912 9.64399 83.3649 9.57132 83.8009C9.53519 84.0178 9.51731 84.1974 9.50849 84.3208C9.50409 84.3824 9.50197 84.4298 9.50094 84.4605C9.50043 84.4759 9.5002 84.487 9.50009 84.4937L9.5 84.4995L9.5 84.5L9.5 84.5003C9.5 84.5007 9.5 84.5009 9.5 84.501L9.5 84.5008L9.5 84.5004C9.49977 84.7764 9.276 85 9 85C8.72412 85 8.50043 84.7766 8.5 84.5008L8.5 84.501C8.5 84.5009 8.5 84.5007 8.5 84.5003L8.49991 84.4937C8.4998 84.487 8.49957 84.4759 8.49906 84.4605C8.49803 84.4298 8.49591 84.3824 8.49151 84.3208C8.48269 84.1974 8.46481 84.0178 8.42868 83.8009C8.35601 83.3649 8.21161 82.7912 7.92779 82.2236C7.64494 81.6579 7.22853 81.1074 6.61327 80.6973Z" fill="white"/>
<path d="M25 79C25.3375 79 25.6864 79.0858 26.0117 79.3027C26.334 79.5176 26.6051 79.8421 26.8222 80.2764C26.905 80.442 26.9812 80.6261 27.0502 80.8299C27.1942 80.4277 27.3787 80.0483 27.6174 79.7405C27.9423 79.3215 28.3995 79 29 79H32V80H29C28.8005 80 28.6077 80.0952 28.4076 80.3533C28.2006 80.6203 28.0224 81.0204 27.8805 81.5134C27.5979 82.4946 27.5 83.694 27.5 84.5C27.5 84.7761 27.2761 85 27 85C26.7239 85 26.5 84.7761 26.5 84.5C26.5 82.5255 26.2505 81.3691 25.9278 80.7236C25.7699 80.4079 25.6035 80.2324 25.457 80.1348C25.3136 80.0392 25.1625 80 25 80H22V79H25Z" fill="white"/>
<path fill-rule="evenodd" clip-rule="evenodd" d="M42.6133 80.6973C42.0011 80.2892 41.1625 80 40 80V79C41.3375 79 42.3739 79.3358 43.168 79.8652C43.959 80.3926 44.4801 81.0921 44.8222 81.7764C44.8876 81.9072 44.9467 82.0378 45 82.167C45.0533 82.0378 45.1124 81.9072 45.1778 81.7764C45.5199 81.0921 46.041 80.3926 46.832 79.8652C47.6261 79.3358 48.6625 79 50 79V80C48.8375 80 47.9989 80.2892 47.3867 80.6973C46.7715 81.1074 46.3551 81.6579 46.0722 82.2236C45.7884 82.7912 45.644 83.3649 45.5713 83.8009C45.5352 84.0178 45.5173 84.1974 45.5085 84.3208C45.5041 84.3824 45.502 84.4298 45.5009 84.4605C45.5004 84.4759 45.5002 84.487 45.5001 84.4937L45.5 84.4995L45.5 84.5L45.5 84.5003C45.5 84.5007 45.5 84.5009 45.5 84.501L45.5 84.5008L45.5 84.5004C45.4998 84.7764 45.276 85 45 85C44.7241 85 44.5004 84.7766 44.5 84.5008L44.5 84.501C44.5 84.5009 44.5 84.5007 44.5 84.5003L44.4999 84.4937C44.4998 84.487 44.4996 84.4759 44.4991 84.4605C44.498 84.4298 44.4959 84.3824 44.4915 84.3208C44.4827 84.1974 44.4648 84.0178 44.4287 83.8009C44.356 83.3649 44.2116 82.7912 43.9278 82.2236C43.6449 81.6579 43.2285 81.1074 42.6133 80.6973Z" fill="white"/>
<path d="M41.3203 76.1925C41.3203 76.4575 41.2761 76.7033 41.1878 76.93C41.0995 77.155 40.9753 77.35 40.8153 77.515C40.6553 77.68 40.4628 77.8092 40.2378 77.9025C40.0128 77.9942 39.7636 78.04 39.4903 78.04C39.217 78.04 38.967 77.9942 38.7403 77.9025C38.5153 77.8092 38.322 77.68 38.1603 77.515C38.0003 77.35 37.8761 77.155 37.7878 76.93C37.6995 76.7033 37.6553 76.4575 37.6553 76.1925C37.6553 75.9275 37.6995 75.6825 37.7878 75.4575C37.8761 75.2308 38.0003 75.035 38.1603 74.87C38.322 74.705 38.5153 74.5767 38.7403 74.485C38.967 74.3917 39.217 74.345 39.4903 74.345C39.7636 74.345 40.0128 74.3917 40.2378 74.485C40.4628 74.5783 40.6553 74.7075 40.8153 74.8725C40.9753 75.0358 41.0995 75.2308 41.1878 75.4575C41.2761 75.6825 41.3203 75.9275 41.3203 76.1925ZM40.6303 76.1925C40.6303 75.9942 40.6036 75.8167 40.5503 75.66C40.4986 75.5017 40.4236 75.3675 40.3253 75.2575C40.227 75.1475 40.107 75.0633 39.9653 75.005C39.8253 74.9467 39.667 74.9175 39.4903 74.9175C39.3136 74.9175 39.1545 74.9467 39.0128 75.005C38.8711 75.0633 38.7503 75.1475 38.6503 75.2575C38.552 75.3675 38.4761 75.5017 38.4228 75.66C38.3695 75.8167 38.3428 75.9942 38.3428 76.1925C38.3428 76.3908 38.3695 76.5692 38.4228 76.7275C38.4761 76.8842 38.552 77.0175 38.6503 77.1275C38.7503 77.2358 38.8711 77.3192 39.0128 77.3775C39.1545 77.4358 39.3136 77.465 39.4903 77.465C39.667 77.465 39.8253 77.4358 39.9653 77.3775C40.107 77.3192 40.227 77.2358 40.3253 77.1275C40.4236 77.0175 40.4986 76.8842 40.5503 76.7275C40.6036 76.5692 40.6303 76.3908 40.6303 76.1925ZM41.8518 78V74.385H43.0993C43.336 74.385 43.5376 74.4075 43.7043 74.4525C43.8726 74.4975 44.0101 74.5617 44.1168 74.645C44.2251 74.7283 44.3043 74.8292 44.3543 74.9475C44.4043 75.0658 44.4293 75.1992 44.4293 75.3475C44.4293 75.4325 44.4168 75.5142 44.3918 75.5925C44.3668 75.6692 44.3276 75.7417 44.2743 75.81C44.2226 75.8767 44.156 75.9375 44.0743 75.9925C43.9943 76.0475 43.8985 76.0942 43.7868 76.1325C44.2835 76.2442 44.5318 76.5125 44.5318 76.9375C44.5318 77.0908 44.5026 77.2325 44.4443 77.3625C44.386 77.4925 44.301 77.605 44.1893 77.7C44.0776 77.7933 43.9401 77.8667 43.7768 77.92C43.6135 77.9733 43.4268 78 43.2168 78H41.8518ZM42.5243 76.415V77.475H43.2068C43.3318 77.475 43.436 77.46 43.5193 77.43C43.6043 77.4 43.6718 77.36 43.7218 77.31C43.7735 77.26 43.8101 77.2017 43.8318 77.135C43.8551 77.0683 43.8668 76.9975 43.8668 76.9225C43.8668 76.8442 43.8543 76.7742 43.8293 76.7125C43.8043 76.6492 43.7651 76.5958 43.7118 76.5525C43.6585 76.5075 43.5901 76.4733 43.5068 76.45C43.4235 76.4267 43.3226 76.415 43.2043 76.415H42.5243ZM42.5243 75.95H43.0618C43.2901 75.95 43.4635 75.9083 43.5818 75.825C43.7001 75.7417 43.7593 75.6092 43.7593 75.4275C43.7593 75.2392 43.706 75.105 43.5993 75.025C43.4926 74.945 43.326 74.905 43.0993 74.905H42.5243V75.95ZM44.9937 76.2325H46.2887V76.7475H44.9937V76.2325ZM47.607 76.14L46.4545 74.385H47.1245C47.1712 74.385 47.2045 74.3917 47.2245 74.405C47.2462 74.4167 47.2653 74.4367 47.282 74.465L48.1045 75.7925C48.1128 75.7708 48.122 75.75 48.132 75.73C48.142 75.7083 48.1537 75.6867 48.167 75.665L48.9195 74.4775C48.9562 74.4158 49.0037 74.385 49.062 74.385H49.707L48.542 76.1125L49.7395 78H49.067C49.022 78 48.9853 77.9883 48.957 77.965C48.9303 77.9417 48.9078 77.915 48.8895 77.885L48.052 76.5C48.0453 76.52 48.0378 76.5392 48.0295 76.5575C48.0212 76.5742 48.0128 76.59 48.0045 76.605L47.202 77.885C47.1837 77.9133 47.1612 77.94 47.1345 77.965C47.1078 77.9883 47.0745 78 47.0345 78H46.4045L47.607 76.14ZM51.7956 78C51.7156 78 51.6631 77.9625 51.6381 77.8875L51.5881 77.64C51.5348 77.7 51.479 77.7542 51.4206 77.8025C51.3623 77.8508 51.299 77.8925 51.2306 77.9275C51.164 77.9625 51.0915 77.9892 51.0131 78.0075C50.9365 78.0275 50.8531 78.0375 50.7631 78.0375C50.6231 78.0375 50.4948 78.0083 50.3781 77.95C50.2615 77.8917 50.1606 77.8075 50.0756 77.6975C49.9923 77.5858 49.9273 77.4483 49.8806 77.285C49.8356 77.1217 49.8131 76.935 49.8131 76.725C49.8131 76.535 49.839 76.3583 49.8906 76.195C49.9423 76.0317 50.0165 75.89 50.1131 75.77C50.2098 75.65 50.3256 75.5567 50.4606 75.49C50.5956 75.4217 50.7473 75.3875 50.9156 75.3875C51.059 75.3875 51.1815 75.4108 51.2831 75.4575C51.3848 75.5025 51.4756 75.5633 51.5556 75.64V74.285H52.1731V78H51.7956ZM50.9731 77.5475C51.1015 77.5475 51.2106 77.5208 51.3006 77.4675C51.3906 77.4142 51.4756 77.3383 51.5556 77.24V76.09C51.4856 76.005 51.409 75.945 51.3256 75.91C51.244 75.875 51.1556 75.8575 51.0606 75.8575C50.9673 75.8575 50.8823 75.875 50.8056 75.91C50.7306 75.945 50.6665 75.9983 50.6131 76.07C50.5615 76.14 50.5215 76.23 50.4931 76.34C50.4648 76.4483 50.4506 76.5767 50.4506 76.725C50.4506 76.875 50.4623 77.0025 50.4856 77.1075C50.5106 77.2108 50.5456 77.2958 50.5906 77.3625C50.6356 77.4275 50.6906 77.475 50.7556 77.505C50.8206 77.5333 50.8931 77.5475 50.9731 77.5475Z" fill="white"/>
<path d="M68 79.5C68 79.5 67.5 79.5 66.5 79.5C65.5 79.5 64.5 80.5004 64.5 82C64.5 83.4996 64.4999 84.5 64 84.5C63.5001 84.5 64 83 63 83C62 83 62.5 84.5 62 84.5C61.5 84.5 61.5 83.4998 61.5 82C61.5 80.5002 60.5 79.4998 59.5 79.5C58.5 79.5002 58 79.5 58 79.5" stroke="white"/>
<path d="M61.5556 77.1475C61.5922 77.1475 61.6239 77.1617 61.6506 77.19L61.9156 77.4775C61.7689 77.6592 61.5881 77.7983 61.3731 77.895C61.1597 77.9917 60.9031 78.04 60.6031 78.04C60.3347 78.04 60.0931 77.9942 59.8781 77.9025C59.6647 77.8108 59.4822 77.6833 59.3306 77.52C59.1789 77.3567 59.0622 77.1617 58.9806 76.935C58.9006 76.7083 58.8606 76.4608 58.8606 76.1925C58.8606 75.9208 58.9056 75.6725 58.9956 75.4475C59.0856 75.2208 59.2122 75.0258 59.3756 74.8625C59.5389 74.6992 59.7339 74.5725 59.9606 74.4825C60.1889 74.3908 60.4406 74.345 60.7156 74.345C60.9839 74.345 61.2181 74.3883 61.4181 74.475C61.6197 74.56 61.7922 74.6733 61.9356 74.815L61.7106 75.1275C61.6972 75.1475 61.6797 75.165 61.6581 75.18C61.6381 75.195 61.6097 75.2025 61.5731 75.2025C61.5347 75.2025 61.4956 75.1875 61.4556 75.1575C61.4156 75.1275 61.3647 75.095 61.3031 75.06C61.2414 75.025 61.1631 74.9925 61.0681 74.9625C60.9747 74.9325 60.8556 74.9175 60.7106 74.9175C60.5406 74.9175 60.3839 74.9475 60.2406 75.0075C60.0989 75.0658 59.9764 75.15 59.8731 75.26C59.7714 75.37 59.6914 75.5042 59.6331 75.6625C59.5764 75.8192 59.5481 75.9958 59.5481 76.1925C59.5481 76.3958 59.5764 76.5767 59.6331 76.735C59.6914 76.8933 59.7697 77.0267 59.8681 77.135C59.9664 77.2433 60.0822 77.3267 60.2156 77.385C60.3489 77.4417 60.4922 77.47 60.6456 77.47C60.7372 77.47 60.8197 77.465 60.8931 77.455C60.9681 77.445 61.0364 77.4292 61.0981 77.4075C61.1614 77.3858 61.2206 77.3583 61.2756 77.325C61.3322 77.29 61.3881 77.2475 61.4431 77.1975C61.4597 77.1825 61.4772 77.1708 61.4956 77.1625C61.5139 77.1525 61.5339 77.1475 61.5556 77.1475ZM62.0901 74.385H62.6551C62.7134 74.385 62.7617 74.3992 62.8001 74.4275C62.8401 74.4542 62.8667 74.4908 62.8801 74.5375L63.4951 76.7C63.5101 76.7533 63.5234 76.8117 63.5351 76.875C63.5484 76.9367 63.5609 77.0025 63.5726 77.0725C63.5859 77.0025 63.6001 76.9367 63.6151 76.875C63.6317 76.8117 63.6492 76.7533 63.6676 76.7L64.3776 74.5375C64.3909 74.4992 64.4167 74.4642 64.4551 74.4325C64.4951 74.4008 64.5434 74.385 64.6001 74.385H64.7976C64.8559 74.385 64.9042 74.3992 64.9426 74.4275C64.9809 74.4542 65.0076 74.4908 65.0226 74.5375L65.7276 76.7C65.7642 76.8067 65.7959 76.925 65.8226 77.055C65.8342 76.99 65.8459 76.9275 65.8576 76.8675C65.8709 76.8075 65.8842 76.7517 65.8976 76.7L66.5126 74.5375C66.5242 74.4958 66.5501 74.46 66.5901 74.43C66.6301 74.4 66.6784 74.385 66.7351 74.385H67.2626L66.1401 78H65.5326L64.7426 75.53C64.7326 75.4983 64.7217 75.4642 64.7101 75.4275C64.7001 75.3908 64.6901 75.3517 64.6801 75.31C64.6701 75.3517 64.6592 75.3908 64.6476 75.4275C64.6376 75.4642 64.6276 75.4983 64.6176 75.53L63.8201 78H63.2126L62.0901 74.385Z" fill="white"/>
<path d="M86 79.5C86 79.5 85.5 79.5 84.5 79.5C83.5 79.5 82.5 80.5004 82.5 82C82.5 83.4996 82.4999 84.5 82 84.5C81.5001 84.5 82 83 81 83C80 83 80.5 84.5 80 84.5C79.5 84.5 79.5 83.4998 79.5 82C79.5 80.5002 78.5 79.4998 77.5 79.5C76.5 79.5002 76 79.5 76 79.5" stroke="white"/>
<path d="M77.8046 76.5875V78H77.1321V74.385H78.2346C78.4813 74.385 78.6921 74.4108 78.8671 74.4625C79.0438 74.5125 79.188 74.5833 79.2996 74.675C79.413 74.7667 79.4955 74.8767 79.5471 75.005C79.6005 75.1317 79.6271 75.2717 79.6271 75.425C79.6271 75.5467 79.6088 75.6617 79.5721 75.77C79.5371 75.8783 79.4855 75.9767 79.4171 76.065C79.3505 76.1533 79.2671 76.2308 79.1671 76.2975C79.0688 76.3642 78.9563 76.4175 78.8296 76.4575C78.9146 76.5058 78.988 76.575 79.0496 76.665L79.9546 78H79.3496C79.2913 78 79.2413 77.9883 79.1996 77.965C79.1596 77.9417 79.1255 77.9083 79.0971 77.865L78.3371 76.7075C78.3088 76.6642 78.2771 76.6333 78.2421 76.615C78.2088 76.5967 78.1588 76.5875 78.0921 76.5875H77.8046ZM77.8046 76.105H78.2246C78.3513 76.105 78.4613 76.0892 78.5546 76.0575C78.6496 76.0258 78.7271 75.9825 78.7871 75.9275C78.8488 75.8708 78.8946 75.8042 78.9246 75.7275C78.9546 75.6508 78.9696 75.5667 78.9696 75.475C78.9696 75.2917 78.9088 75.1508 78.7871 75.0525C78.6671 74.9542 78.483 74.905 78.2346 74.905H77.8046V76.105ZM80.051 74.385H80.616C80.6743 74.385 80.7227 74.3992 80.761 74.4275C80.801 74.4542 80.8277 74.4908 80.841 74.5375L81.456 76.7C81.471 76.7533 81.4843 76.8117 81.496 76.875C81.5093 76.9367 81.5218 77.0025 81.5335 77.0725C81.5468 77.0025 81.561 76.9367 81.576 76.875C81.5927 76.8117 81.6102 76.7533 81.6285 76.7L82.3385 74.5375C82.3518 74.4992 82.3777 74.4642 82.416 74.4325C82.456 74.4008 82.5043 74.385 82.561 74.385H82.7585C82.8168 74.385 82.8652 74.3992 82.9035 74.4275C82.9418 74.4542 82.9685 74.4908 82.9835 74.5375L83.6885 76.7C83.7252 76.8067 83.7568 76.925 83.7835 77.055C83.7952 76.99 83.8068 76.9275 83.8185 76.8675C83.8318 76.8075 83.8452 76.7517 83.8585 76.7L84.4735 74.5375C84.4852 74.4958 84.511 74.46 84.551 74.43C84.591 74.4 84.6393 74.385 84.696 74.385H85.2235L84.101 78H83.4935L82.7035 75.53C82.6935 75.4983 82.6827 75.4642 82.671 75.4275C82.661 75.3908 82.651 75.3517 82.641 75.31C82.631 75.3517 82.6202 75.3908 82.6085 75.4275C82.5985 75.4642 82.5885 75.4983 82.5785 75.53L81.781 78H81.1735L80.051 74.385Z" fill="white"/>
<path d="M9.28714 102H8.55914C8.47747 102 8.4098 101.98 8.35614 101.94C8.3048 101.898 8.26747 101.847 8.24414 101.786L7.86614 100.754H5.76964L5.39164 101.786C5.37297 101.84 5.33564 101.889 5.27964 101.933C5.22597 101.978 5.15947 102 5.08014 102H4.34864L6.33664 96.939H7.29914L9.28714 102ZM6.01114 100.089H7.62464L7.00864 98.4055C6.98064 98.3308 6.94914 98.2433 6.91414 98.143C6.88147 98.0403 6.8488 97.9295 6.81614 97.8105C6.78347 97.9295 6.7508 98.0403 6.71814 98.143C6.6878 98.2457 6.65747 98.3355 6.62714 98.4125L6.01114 100.089ZM10.7814 100.218V102H9.83986V96.939H11.4884C11.8267 96.939 12.1195 96.9787 12.3669 97.058C12.6142 97.1373 12.8184 97.2482 12.9794 97.3905C13.1404 97.5328 13.2594 97.7032 13.3364 97.9015C13.4134 98.0998 13.4519 98.3168 13.4519 98.5525C13.4519 98.7975 13.411 99.0227 13.3294 99.228C13.2477 99.431 13.1252 99.606 12.9619 99.753C12.7985 99.9 12.5944 100.014 12.3494 100.096C12.1044 100.178 11.8174 100.218 11.4884 100.218H10.7814ZM10.7814 99.4835H11.4884C11.661 99.4835 11.8115 99.4625 11.9399 99.4205C12.0682 99.3762 12.1744 99.3143 12.2584 99.235C12.3424 99.1533 12.4054 99.0553 12.4474 98.941C12.4894 98.8243 12.5104 98.6948 12.5104 98.5525C12.5104 98.4172 12.4894 98.2947 12.4474 98.185C12.4054 98.0753 12.3424 97.982 12.2584 97.905C12.1744 97.828 12.0682 97.7697 11.9399 97.73C11.8115 97.688 11.661 97.667 11.4884 97.667H10.7814V99.4835Z" fill="white"/>
<path fill-rule="evenodd" clip-rule="evenodd" d="M21.9223 98.8622C21.5902 98.1538 21.2278 98 21 98V97C21.7722 97 22.4098 97.5462 22.8277 98.4378C22.8888 98.568 22.9463 98.7075 23 98.8565C23.0537 98.7075 23.1112 98.568 23.1723 98.4378C23.5902 97.5462 24.2278 97 25 97C25.3375 97 25.6864 97.0858 26.0117 97.3027C26.334 97.5176 26.6051 97.8421 26.8222 98.2764C26.905 98.442 26.9812 98.6261 27.0502 98.8299C27.1942 98.4277 27.3787 98.0483 27.6174 97.7405C27.9423 97.3215 28.3995 97 29 97C29.6005 97 30.0577 97.3215 30.3826 97.7405C30.65 98.0853 30.8494 98.52 31 98.9759C31.1506 98.52 31.35 98.0853 31.6174 97.7405C31.9423 97.3215 32.3995 97 33 97V98C32.8005 98 32.6077 98.0952 32.4076 98.3533C32.2006 98.6203 32.0224 99.0204 31.8805 99.5134C31.5979 100.495 31.5 101.694 31.5 102.5C31.5 102.776 31.2761 103 31 103C30.7239 103 30.5 102.776 30.5 102.5C30.5 101.694 30.4021 100.495 30.1195 99.5134C29.9776 99.0204 29.7994 98.6203 29.5924 98.3533C29.3923 98.0952 29.1995 98 29 98C28.8005 98 28.6077 98.0952 28.4076 98.3533C28.2006 98.6203 28.0224 99.0204 27.8805 99.5134C27.5979 100.495 27.5 101.694 27.5 102.5C27.5 102.776 27.2761 103 27 103C26.7239 103 26.5 102.776 26.5 102.5C26.5 100.526 26.2505 99.3691 25.9278 98.7236C25.7699 98.4079 25.6035 98.2324 25.457 98.1348C25.3136 98.0392 25.1625 98 25 98C24.7722 98 24.4098 98.1538 24.0777 98.8622C23.7466 99.5687 23.5 100.736 23.5 102.5C23.5 102.776 23.2761 103 23 103C22.7239 103 22.5 102.776 22.5 102.5C22.5 100.736 22.2534 99.5687 21.9223 98.8622Z" fill="white"/>
<path fill-rule="evenodd" clip-rule="evenodd" d="M39.9223 101.138C39.5902 101.846 39.2278 102 39 102V103C39.7722 103 40.4098 102.454 40.8277 101.562C40.8888 101.432 40.9463 101.293 41 101.143C41.0537 101.293 41.1112 101.432 41.1723 101.562C41.5902 102.454 42.2278 103 43 103C43.3375 103 43.6864 102.914 44.0117 102.697C44.334 102.482 44.6051 102.158 44.8222 101.724C44.905 101.558 44.9812 101.374 45.0502 101.17C45.1942 101.572 45.3787 101.952 45.6174 102.26C45.9423 102.679 46.3995 103 47 103C47.6005 103 48.0577 102.679 48.3826 102.26C48.65 101.915 48.8494 101.48 49 101.024C49.1506 101.48 49.35 101.915 49.6174 102.26C49.9423 102.679 50.3995 103 51 103V102C50.8005 102 50.6077 101.905 50.4076 101.647C50.2006 101.38 50.0224 100.98 49.8805 100.487C49.5979 99.5054 49.5 98.306 49.5 97.5C49.5 97.2239 49.2761 97 49 97C48.7239 97 48.5 97.2239 48.5 97.5C48.5 98.306 48.4021 99.5054 48.1195 100.487C47.9776 100.98 47.7994 101.38 47.5924 101.647C47.3923 101.905 47.1995 102 47 102C46.8005 102 46.6077 101.905 46.4076 101.647C46.2006 101.38 46.0224 100.98 45.8805 100.487C45.5979 99.5054 45.5 98.306 45.5 97.5C45.5 97.2239 45.2761 97 45 97C44.7239 97 44.5 97.2239 44.5 97.5C44.5 99.4745 44.2505 100.631 43.9278 101.276C43.7699 101.592 43.6035 101.768 43.457 101.865C43.3136 101.961 43.1625 102 43 102C42.7722 102 42.4098 101.846 42.0777 101.138C41.7466 100.431 41.5 99.264 41.5 97.5C41.5 97.2239 41.2761 97 41 97C40.7239 97 40.5 97.2239 40.5 97.5C40.5 99.264 40.2534 100.431 39.9223 101.138Z" fill="white"/>
<path d="M59.203 97.8595C59.1773 97.9108 59.147 97.947 59.112 97.968C59.0793 97.989 59.0397 97.9995 58.993 97.9995C58.9463 97.9995 58.8938 97.982 58.8355 97.947C58.7772 97.9097 58.7083 97.8688 58.629 97.8245C58.5497 97.7802 58.4563 97.7405 58.349 97.7055C58.244 97.6682 58.1192 97.6495 57.9745 97.6495C57.8438 97.6495 57.7295 97.6658 57.6315 97.6985C57.5358 97.7288 57.4542 97.772 57.3865 97.828C57.3212 97.884 57.2722 97.9517 57.2395 98.031C57.2068 98.108 57.1905 98.1932 57.1905 98.2865C57.1905 98.4055 57.2232 98.5047 57.2885 98.584C57.3562 98.6633 57.4448 98.731 57.5545 98.787C57.6642 98.843 57.789 98.8932 57.929 98.9375C58.069 98.9818 58.2113 99.0297 58.356 99.081C58.503 99.13 58.6465 99.1883 58.7865 99.256C58.9265 99.3213 59.0513 99.4053 59.161 99.508C59.2707 99.6083 59.3582 99.732 59.4235 99.879C59.4912 100.026 59.525 100.204 59.525 100.414C59.525 100.643 59.4853 100.858 59.406 101.058C59.329 101.257 59.2147 101.431 59.063 101.58C58.9137 101.727 58.7305 101.844 58.5135 101.93C58.2965 102.014 58.048 102.056 57.768 102.056C57.607 102.056 57.4483 102.04 57.292 102.007C57.1357 101.977 56.9852 101.932 56.8405 101.874C56.6982 101.816 56.564 101.746 56.438 101.664C56.3143 101.582 56.2035 101.491 56.1055 101.391L56.3785 100.939C56.4042 100.907 56.4345 100.88 56.4695 100.859C56.5068 100.836 56.5477 100.824 56.592 100.824C56.6503 100.824 56.7133 100.848 56.781 100.897C56.8487 100.944 56.928 100.997 57.019 101.055C57.1123 101.113 57.2208 101.167 57.3445 101.216C57.4705 101.263 57.621 101.286 57.796 101.286C58.0643 101.286 58.272 101.223 58.419 101.097C58.566 100.969 58.6395 100.785 58.6395 100.547C58.6395 100.414 58.6057 100.306 58.538 100.222C58.4727 100.138 58.3852 100.068 58.2755 100.012C58.1658 99.9537 58.041 99.9047 57.901 99.865C57.761 99.8253 57.6187 99.7822 57.474 99.7355C57.3293 99.6888 57.187 99.6328 57.047 99.5675C56.907 99.5022 56.7822 99.417 56.6725 99.312C56.5628 99.207 56.4742 99.0763 56.4065 98.92C56.3412 98.7613 56.3085 98.5665 56.3085 98.3355C56.3085 98.1512 56.3447 97.9715 56.417 97.7965C56.4917 97.6215 56.599 97.4663 56.739 97.331C56.8813 97.1957 57.0552 97.0872 57.2605 97.0055C57.4658 96.9238 57.7003 96.883 57.964 96.883C58.2627 96.883 58.538 96.9297 58.79 97.023C59.042 97.1163 59.2567 97.247 59.434 97.415L59.203 97.8595ZM62.0529 96.883C62.2583 96.883 62.4414 96.9145 62.6024 96.9775C62.7658 97.0405 62.9046 97.1245 63.0189 97.2295C63.1356 97.3345 63.2266 97.4547 63.2919 97.59C63.3596 97.7253 63.3993 97.8653 63.4109 98.01L62.8614 98.1255C62.8544 98.1278 62.8463 98.129 62.8369 98.129C62.8299 98.129 62.8229 98.129 62.8159 98.129C62.7763 98.129 62.7401 98.1185 62.7074 98.0975C62.6771 98.0742 62.6526 98.0392 62.6339 97.9925C62.6129 97.9318 62.5861 97.8747 62.5534 97.821C62.5208 97.765 62.4811 97.7172 62.4344 97.6775C62.3878 97.6355 62.3329 97.6028 62.2699 97.5795C62.2069 97.5538 62.1346 97.541 62.0529 97.541C61.9549 97.541 61.8674 97.5585 61.7904 97.5935C61.7134 97.6262 61.6481 97.6717 61.5944 97.73C61.5408 97.786 61.4999 97.8525 61.4719 97.9295C61.4439 98.0042 61.4299 98.0835 61.4299 98.1675C61.4299 98.2375 61.4369 98.3052 61.4509 98.3705C61.4673 98.4358 61.4918 98.5012 61.5244 98.5665C61.5571 98.6318 61.5991 98.6995 61.6504 98.7695C61.7041 98.8372 61.7694 98.9107 61.8464 98.99L63.1904 100.386C63.2674 100.239 63.3293 100.084 63.3759 99.921C63.4226 99.7577 63.4529 99.592 63.4669 99.424C63.4716 99.3703 63.4891 99.3272 63.5194 99.2945C63.5498 99.2618 63.5918 99.2455 63.6454 99.2455H64.1879C64.1856 99.5535 64.1413 99.8475 64.0549 100.127C63.9686 100.407 63.8449 100.665 63.6839 100.901L64.7444 102H63.8974C63.8531 102 63.8134 101.998 63.7784 101.993C63.7458 101.988 63.7143 101.98 63.6839 101.968C63.6536 101.954 63.6244 101.937 63.5964 101.916C63.5684 101.895 63.5393 101.868 63.5089 101.835L63.1589 101.475C62.9349 101.657 62.6853 101.799 62.4099 101.902C62.1369 102.005 61.8406 102.056 61.5209 102.056C61.3249 102.056 61.1336 102.023 60.9469 101.958C60.7603 101.89 60.5934 101.793 60.4464 101.667C60.2994 101.541 60.1804 101.39 60.0894 101.212C60.0008 101.033 59.9564 100.831 59.9564 100.607C59.9564 100.451 59.9821 100.302 60.0334 100.162C60.0848 100.02 60.1559 99.8883 60.2469 99.767C60.3379 99.6457 60.4453 99.536 60.5689 99.438C60.6949 99.34 60.8326 99.256 60.9819 99.186C60.8583 99.011 60.7673 98.8407 60.7089 98.675C60.6529 98.507 60.6249 98.3402 60.6249 98.1745C60.6249 97.9995 60.6564 97.8338 60.7194 97.6775C60.7848 97.5188 60.8781 97.3812 60.9994 97.2645C61.1231 97.1478 61.2736 97.0557 61.4509 96.988C61.6283 96.918 61.8289 96.883 62.0529 96.883ZM60.8349 100.537C60.8349 100.665 60.8571 100.781 60.9014 100.883C60.9458 100.986 61.0064 101.074 61.0834 101.146C61.1604 101.216 61.2491 101.271 61.3494 101.31C61.4521 101.348 61.5606 101.366 61.6749 101.366C61.8803 101.366 62.0669 101.335 62.2349 101.272C62.4053 101.207 62.5604 101.117 62.7004 101.002L61.3704 99.6375C61.1838 99.7588 61.0473 99.8953 60.9609 100.047C60.8769 100.199 60.8349 100.362 60.8349 100.537ZM69.5105 102H68.562V99.788H66.189V102H65.2405V96.939H66.189V99.116H68.562V96.939H69.5105V102Z" fill="white"/>
</svg>
