<svg width="16" height="16" viewBox="0 0 16 16" fill="none" xmlns="http://www.w3.org/2000/svg">
<path fill-rule="evenodd" clip-rule="evenodd" d="M9.67803 1.5V2.9645C9.67803 3.0447 9.6135 3.11018 9.53465 3.11018H6.46537C6.38667 3.11018 6.32215 3.0447 6.32215 2.9645V1.5C3.54562 2.25269 1.5 4.82719 1.5 7.88839C1.5 11.5398 4.41004 14.5 8.00001 14.5C11.59 14.5 14.5 11.54 14.5 7.88839C14.5 4.82719 12.4544 2.25269 9.67803 1.5Z" fill="black"/>
<path fill-rule="evenodd" clip-rule="evenodd" d="M9.67803 1.5V2.9645C9.67803 3.0447 9.6135 3.11018 9.53465 3.11018H6.46537C6.38667 3.11018 6.32215 3.0447 6.32215 2.9645V1.5C3.54562 2.25269 1.5 4.82719 1.5 7.88839C1.5 11.5398 4.41004 14.5 8.00001 14.5C11.59 14.5 14.5 11.54 14.5 7.88839C14.5 4.82719 12.4544 2.25269 9.67803 1.5ZM3.96715 9.18151C3.63358 9.18151 3.35406 8.94905 3.27429 8.63513H3.11982C2.88343 8.63513 2.69 8.5532 2.69 8.45295C2.69 8.35285 2.88343 8.27092 3.11982 8.27092H3.27429C3.35406 7.95684 3.63358 7.72454 3.96715 7.72454C4.30072 7.72454 4.58023 7.95685 4.65985 8.27092H4.79106C5.02746 8.27092 5.22089 8.35285 5.22089 8.45295C5.22089 8.5532 5.02746 8.63513 4.79106 8.63513H4.65985C4.58023 8.94905 4.30072 9.18151 3.96715 9.18151ZM5.48023 11.5437C5.39892 11.5437 5.32114 11.5293 5.24845 11.5039L5.16976 11.6424C5.05148 11.8506 4.88501 11.9799 4.79984 11.93C4.71452 11.8799 4.74148 11.6685 4.85975 11.4602L4.94923 11.3026C4.83465 11.1734 4.76411 11.0028 4.76411 10.8153C4.76411 10.413 5.0849 10.0867 5.48038 10.0867C5.53182 10.0867 5.58187 10.0925 5.63023 10.103L5.69537 9.98833C5.81365 9.78015 5.97997 9.65076 6.06529 9.70073C6.1506 9.75086 6.12365 9.96217 6.00553 10.1705L5.95086 10.2669C6.10117 10.4006 6.19681 10.5964 6.19681 10.8154C6.1965 11.2174 5.87556 11.5437 5.48023 11.5437ZM8.17911 12.6053V12.7871C8.17911 13.0274 8.09857 13.2242 8.00001 13.2242C7.90145 13.2242 7.8209 13.0274 7.8209 12.7871V12.6053C7.51228 12.5243 7.28374 12.24 7.28374 11.9007C7.28374 11.5615 7.51228 11.2772 7.8209 11.1961V11.0872C7.8209 10.8468 7.90145 10.65 8.00001 10.65C8.09857 10.65 8.17911 10.8468 8.17911 11.0872V11.1959C8.48774 11.2771 8.71612 11.5614 8.71612 11.9005C8.71612 12.24 8.48774 12.5243 8.17911 12.6053ZM11.1943 11.9301C11.109 11.9801 10.9425 11.8507 10.8244 11.6425L10.748 11.5078C10.6781 11.5308 10.6036 11.5438 10.5261 11.5438C10.1308 11.5438 9.81 11.2175 9.81 10.8154C9.81 10.6004 9.90225 10.4077 10.0479 10.2744L9.98895 10.1705C9.87068 9.96217 9.84403 9.75086 9.92904 9.70073C10.0144 9.65076 10.1808 9.78015 10.299 9.98833L10.3658 10.1058C10.4174 10.0939 10.471 10.0869 10.5261 10.0869C10.9216 10.0869 11.2424 10.4132 11.2424 10.8154C11.2424 11.007 11.1689 11.181 11.0499 11.3111L11.1346 11.4604C11.2527 11.6687 11.2795 11.88 11.1943 11.9301ZM12.8711 8.63513H12.7286C12.649 8.94905 12.3695 9.18151 12.0359 9.18151C11.7025 9.18151 11.423 8.94905 11.3432 8.63513H11.1997C10.9634 8.63513 10.77 8.5532 10.77 8.45295C10.77 8.35285 10.9634 8.27092 11.1997 8.27092H11.3432C11.423 7.95684 11.7025 7.72454 12.0359 7.72454C12.3695 7.72454 12.649 7.95685 12.7286 8.27092H12.8711C13.1075 8.27092 13.3009 8.35285 13.3009 8.45295C13.3009 8.55304 13.1075 8.63513 12.8711 8.63513Z" fill="#7432FF"/>
<path fill-rule="evenodd" clip-rule="evenodd" d="M9.67803 1.5V2.9645C9.67803 3.0447 9.6135 3.11018 9.53465 3.11018H6.46537C6.38667 3.11018 6.32215 3.0447 6.32215 2.9645V1.5C3.54562 2.25269 1.5 4.82719 1.5 7.88839C1.5 11.5398 4.41004 14.5 8.00001 14.5C11.59 14.5 14.5 11.54 14.5 7.88839C14.5 4.82719 12.4544 2.25269 9.67803 1.5Z" stroke="black"/>
</svg>
