<svg width="134" height="208" viewBox="0 0 134 208" fill="none" xmlns="http://www.w3.org/2000/svg">
<path fill-rule="evenodd" clip-rule="evenodd" d="M1 160V163H121V171H128V173L132 170.5L128 168V170H123V160H1Z" fill="#7432FF"/>
<rect x="13.5" y="182.5" width="10" height="10" rx="2" stroke="#7432FF"/>
<rect x="45.5" y="182.5" width="10" height="10" rx="2" stroke="#7432FF"/>
<rect x="77.5" y="182.5" width="10" height="10" rx="2" stroke="#7432FF"/>
<path opacity="0.5" d="M117 182.5H111C109.895 182.5 109 183.395 109 184.5V190.5C109 191.605 109.895 192.5 111 192.5H117C118.105 192.5 119 191.605 119 190.5V184.5C119 183.395 118.105 182.5 117 182.5Z" stroke="#7432FF"/>
<path d="M38 188H37V197.012H83V193H82V196H38V188Z" fill="#7432FF"/>
<path d="M17.4112 189.352H18.4367V186.402C18.4367 186.288 18.4402 186.167 18.4472 186.041L17.7192 186.65C17.6889 186.676 17.6574 186.694 17.6247 186.703C17.5944 186.712 17.5641 186.717 17.5337 186.717C17.4871 186.717 17.4439 186.708 17.4042 186.689C17.3669 186.668 17.3389 186.645 17.3202 186.619L17.0472 186.244L18.5907 184.932H19.3012V189.352H20.2112V190H17.4112V189.352Z" fill="white"/>
<path d="M50.5767 184.883C50.8101 184.883 51.0236 184.918 51.2172 184.988C51.4109 185.056 51.5766 185.152 51.7142 185.278C51.8519 185.404 51.9592 185.556 52.0362 185.733C52.1132 185.911 52.1517 186.108 52.1517 186.325C52.1517 186.512 52.1237 186.684 52.0677 186.843C52.0141 187.002 51.9406 187.153 51.8472 187.298C51.7562 187.443 51.6489 187.583 51.5252 187.718C51.4016 187.853 51.2721 187.991 51.1367 188.131L49.9957 189.296C50.1077 189.264 50.2174 189.239 50.3247 189.223C50.4321 189.204 50.5347 189.195 50.6327 189.195H51.9312C52.0246 189.195 52.0981 189.222 52.1517 189.275C52.2077 189.327 52.2357 189.396 52.2357 189.482V190H48.7637V189.713C48.7637 189.655 48.7754 189.594 48.7987 189.531C48.8244 189.468 48.8641 189.41 48.9177 189.356L50.4542 187.816C50.5826 187.685 50.6969 187.56 50.7972 187.441C50.8999 187.322 50.9851 187.205 51.0527 187.088C51.1227 186.971 51.1752 186.853 51.2102 186.734C51.2476 186.613 51.2662 186.486 51.2662 186.353C51.2662 186.232 51.2487 186.125 51.2137 186.034C51.1787 185.941 51.1286 185.863 51.0632 185.8C50.9979 185.737 50.9197 185.69 50.8287 185.66C50.7401 185.627 50.6397 185.611 50.5277 185.611C50.3201 185.611 50.1486 185.663 50.0132 185.768C49.8802 185.873 49.7869 186.015 49.7332 186.192C49.7076 186.281 49.6691 186.345 49.6177 186.385C49.5664 186.422 49.5011 186.44 49.4217 186.44C49.3867 186.44 49.3482 186.437 49.3062 186.43L48.8512 186.349C48.8862 186.107 48.9539 185.894 49.0542 185.712C49.1546 185.528 49.2794 185.375 49.4287 185.254C49.5804 185.13 49.7531 185.038 49.9467 184.977C50.1427 184.914 50.3527 184.883 50.5767 184.883Z" fill="white"/>
<path d="M82.6572 184.883C82.8906 184.883 83.1006 184.917 83.2872 184.984C83.4762 185.05 83.6372 185.142 83.7702 185.261C83.9032 185.378 84.0047 185.515 84.0747 185.674C84.1471 185.833 84.1832 186.004 84.1832 186.188C84.1832 186.349 84.1646 186.492 84.1272 186.615C84.0922 186.737 84.0397 186.843 83.9697 186.934C83.9021 187.025 83.8181 187.102 83.7177 187.165C83.6197 187.228 83.5077 187.28 83.3817 187.322C83.6851 187.418 83.9114 187.564 84.0607 187.76C84.2101 187.956 84.2847 188.202 84.2847 188.498C84.2847 188.75 84.2381 188.973 84.1447 189.167C84.0514 189.361 83.9254 189.524 83.7667 189.657C83.6081 189.788 83.4237 189.887 83.2137 189.954C83.0061 190.022 82.7856 190.056 82.5522 190.056C82.2979 190.056 82.0762 190.027 81.8872 189.968C81.6982 189.91 81.5337 189.824 81.3937 189.709C81.2537 189.595 81.1347 189.455 81.0367 189.289C80.9387 189.124 80.8547 188.932 80.7847 188.715L81.1662 188.558C81.2316 188.53 81.2981 188.516 81.3657 188.516C81.4264 188.516 81.4801 188.529 81.5267 188.554C81.5757 188.58 81.6131 188.617 81.6387 188.666C81.6807 188.748 81.7262 188.829 81.7752 188.908C81.8266 188.987 81.8872 189.058 81.9572 189.121C82.0272 189.182 82.1089 189.232 82.2022 189.272C82.2979 189.309 82.4111 189.328 82.5417 189.328C82.6887 189.328 82.8171 189.305 82.9267 189.258C83.0364 189.209 83.1274 189.146 83.1997 189.069C83.2744 188.992 83.3292 188.907 83.3642 188.813C83.4016 188.718 83.4202 188.622 83.4202 188.526C83.4202 188.405 83.4074 188.295 83.3817 188.197C83.3561 188.097 83.3024 188.012 83.2207 187.942C83.1391 187.872 83.0212 187.817 82.8672 187.777C82.7156 187.738 82.5114 187.718 82.2547 187.718V187.102C82.4671 187.1 82.6432 187.08 82.7832 187.042C82.9232 187.005 83.0341 186.954 83.1157 186.888C83.1997 186.821 83.2581 186.74 83.2907 186.647C83.3234 186.554 83.3397 186.451 83.3397 186.339C83.3397 186.099 83.2744 185.918 83.1437 185.796C83.0131 185.673 82.8346 185.611 82.6082 185.611C82.4029 185.611 82.2326 185.666 82.0972 185.775C81.9619 185.883 81.8674 186.022 81.8137 186.192C81.7857 186.281 81.7472 186.345 81.6982 186.385C81.6492 186.422 81.5851 186.44 81.5057 186.44C81.4684 186.44 81.4287 186.437 81.3867 186.43L80.9317 186.349C80.9667 186.107 81.0344 185.894 81.1347 185.712C81.2351 185.528 81.3599 185.375 81.5092 185.254C81.6609 185.13 81.8336 185.038 82.0272 184.977C82.2232 184.914 82.4332 184.883 82.6572 184.883Z" fill="white"/>
<path d="M112.359 184.939C112.401 184.939 112.436 184.941 112.464 184.946C112.492 184.948 112.516 184.955 112.537 184.967C112.561 184.976 112.583 184.991 112.604 185.012C112.625 185.031 112.648 185.057 112.674 185.089L115.33 188.474C115.321 188.392 115.314 188.313 115.309 188.236C115.307 188.157 115.306 188.083 115.306 188.015V184.939H116.135V190H115.649C115.574 190 115.512 189.988 115.463 189.965C115.414 189.942 115.367 189.9 115.32 189.839L112.674 186.468C112.681 186.543 112.686 186.618 112.688 186.692C112.693 186.765 112.695 186.831 112.695 186.892V190H111.865V184.939H112.359Z" fill="white"/>
<g opacity="0.5">
<path d="M34.5 180.5C37.2614 180.5 39.5 178.261 39.5 175.5C39.5 172.739 37.2614 170.5 34.5 170.5C31.7386 170.5 29.5 172.739 29.5 175.5C29.5 178.261 31.7386 180.5 34.5 180.5Z" stroke="#7432FF"/>
<path d="M36.4444 172.495L37.505 173.555L35.5591 175.501L37.5042 177.444L36.4444 178.505L34.4984 176.562L32.5553 178.505L31.4946 177.445L33.437 175.502L31.4917 173.56L32.5516 172.498L34.4976 174.442L36.4444 172.495Z" fill="#EEEEEE"/>
</g>
<g opacity="0.5">
<path d="M66.5 180.5C69.2614 180.5 71.5 178.261 71.5 175.5C71.5 172.739 69.2614 170.5 66.5 170.5C63.7386 170.5 61.5 172.739 61.5 175.5C61.5 178.261 63.7386 180.5 66.5 180.5Z" stroke="#7432FF"/>
<path d="M68.4444 172.495L69.505 173.555L67.5591 175.501L69.5042 177.444L68.4444 178.505L66.4984 176.562L64.5553 178.505L63.4946 177.445L65.437 175.502L63.4917 173.56L64.5516 172.498L66.4976 174.442L68.4444 172.495Z" fill="#EEEEEE"/>
</g>
<path fill-rule="evenodd" clip-rule="evenodd" d="M82 168L80 168L82.5 164L85 168L83 168L82 168Z" fill="#7432FF"/>
<path d="M82 182L82 167.5L83 167.5L83 182L82 182Z" fill="#7432FF"/>
<g opacity="0.5">
<path fill-rule="evenodd" clip-rule="evenodd" d="M113.5 168L111.5 168L114 164L116.5 168L114.5 168L113.5 168Z" fill="#7432FF"/>
<path d="M113.5 182L113.5 167.5L114.5 167.5L114.5 182L113.5 182Z" fill="#7432FF"/>
</g>
<path fill-rule="evenodd" clip-rule="evenodd" d="M50 168L48 168L50.5 164L53 168L51 168L50 168Z" fill="#7432FF"/>
<path d="M50 182L50 167.5L51 167.5L51 182L50 182Z" fill="#7432FF"/>
<path fill-rule="evenodd" clip-rule="evenodd" d="M18 168L16 168L18.5 164L21 168L19 168L18 168Z" fill="#7432FF"/>
<path d="M18 182L18 167.5L19 167.5L19 182L18 182Z" fill="#7432FF"/>
<g opacity="0.5">
<path fill-rule="evenodd" clip-rule="evenodd" d="M34 168L32 168L34.5 164L37 168L35 168L34 168Z" fill="#7432FF"/>
<path d="M34 170L34 167.5L35 167.5L35 170L34 170Z" fill="#7432FF"/>
</g>
<g opacity="0.5">
<path fill-rule="evenodd" clip-rule="evenodd" d="M66 168L64 168L66.5 164L69 168L67 168L66 168Z" fill="#7432FF"/>
<path d="M66 170L66 167.5L67 167.5L67 170L66 170Z" fill="#7432FF"/>
</g>
<g opacity="0.5">
<path fill-rule="evenodd" clip-rule="evenodd" d="M45 176L45 178L41 175.5L45 173L45 175L45 176Z" fill="#7432FF"/>
<path d="M50 176L44.5 176L44.5 175L50 175L50 176Z" fill="#7432FF"/>
</g>
<g opacity="0.5">
<path fill-rule="evenodd" clip-rule="evenodd" d="M77 176L77 178L73 175.5L77 173L77 175L77 176Z" fill="#7432FF"/>
<path d="M82 176L76.5 176L76.5 175L82 175L82 176Z" fill="#7432FF"/>
</g>
<path fill-rule="evenodd" clip-rule="evenodd" d="M29 188L29 190L25 187.5L29 185L29 187L29 188Z" fill="#7432FF"/>
<path d="M45 188L28.5 188L28.5 187L45 187L45 188Z" fill="#7432FF"/>
<g opacity="0.5">
<path fill-rule="evenodd" clip-rule="evenodd" d="M24 175L24 173L28 175.5L24 178L24 176L24 175Z" fill="#7432FF"/>
<path d="M19 175L24.5 175L24.5 176L19 176L19 175Z" fill="#7432FF"/>
</g>
<g opacity="0.5">
<path fill-rule="evenodd" clip-rule="evenodd" d="M56 175L56 173L60 175.5L56 178L56 176L56 175Z" fill="#7432FF"/>
<path d="M51 175L56.5 175L56.5 176L51 176L51 175Z" fill="#7432FF"/>
</g>
<path d="M1.5 200.5C1.5 199.395 2.39543 198.5 3.5 198.5H129.5C130.605 198.5 131.5 199.395 131.5 200.5V205.5C131.5 206.605 130.605 207.5 129.5 207.5H3.5C2.39543 207.5 1.5 206.605 1.5 205.5V200.5Z" fill="#242424"/>
<path d="M11.9319 200.4V205.5H11.3159C11.2249 205.5 11.1479 205.486 11.0849 205.458C11.0242 205.428 10.9635 205.376 10.9029 205.304L8.49837 202.262C8.5077 202.353 8.51353 202.442 8.51587 202.528C8.52053 202.612 8.52287 202.692 8.52287 202.766V205.5H7.47987V200.4H8.10287C8.1542 200.4 8.19737 200.403 8.23237 200.407C8.26737 200.412 8.29887 200.421 8.32687 200.435C8.35487 200.447 8.3817 200.465 8.40737 200.488C8.43303 200.511 8.4622 200.543 8.49487 200.582L10.9204 203.645C10.9087 203.547 10.9005 203.452 10.8959 203.361C10.8912 203.268 10.8889 203.181 10.8889 203.099V200.4H11.9319ZM17.8213 202.948C17.8213 203.317 17.7571 203.66 17.6288 203.977C17.5028 204.295 17.3243 204.571 17.0933 204.807C16.8623 205.04 16.5834 205.223 16.2568 205.356C15.9324 205.49 15.5719 205.556 15.1753 205.556C14.7786 205.556 14.4169 205.49 14.0903 205.356C13.7636 205.223 13.4836 205.04 13.2503 204.807C13.0193 204.571 12.8396 204.295 12.7113 203.977C12.5853 203.66 12.5223 203.317 12.5223 202.948C12.5223 202.58 12.5853 202.237 12.7113 201.919C12.8396 201.602 13.0193 201.327 13.2503 201.093C13.4836 200.86 13.7636 200.677 14.0903 200.544C14.4169 200.411 14.7786 200.344 15.1753 200.344C15.5719 200.344 15.9324 200.412 16.2568 200.547C16.5834 200.68 16.8623 200.864 17.0933 201.097C17.3243 201.33 17.5028 201.606 17.6288 201.923C17.7571 202.24 17.8213 202.582 17.8213 202.948ZM16.6103 202.948C16.6103 202.696 16.5776 202.47 16.5123 202.269C16.4469 202.066 16.3524 201.895 16.2288 201.755C16.1074 201.615 15.9581 201.508 15.7808 201.433C15.6034 201.358 15.4016 201.321 15.1753 201.321C14.9466 201.321 14.7424 201.358 14.5628 201.433C14.3854 201.508 14.2349 201.615 14.1113 201.755C13.9899 201.895 13.8966 202.066 13.8313 202.269C13.7659 202.47 13.7333 202.696 13.7333 202.948C13.7333 203.203 13.7659 203.431 13.8313 203.634C13.8966 203.835 13.9899 204.005 14.1113 204.145C14.2349 204.285 14.3854 204.393 14.5628 204.467C14.7424 204.54 14.9466 204.576 15.1753 204.576C15.4016 204.576 15.6034 204.54 15.7808 204.467C15.9581 204.393 16.1074 204.285 16.2288 204.145C16.3524 204.005 16.4469 203.835 16.5123 203.634C16.5776 203.431 16.6103 203.203 16.6103 202.948ZM21.1176 201.31V202.602H22.8606V203.515H21.1176V205.5H19.9276V200.4H23.2106V201.31H21.1176ZM29.5204 200.4V205.5H28.4774V202.567C28.4774 202.499 28.4786 202.426 28.4809 202.346C28.4856 202.267 28.4926 202.187 28.5019 202.105L27.1474 204.726C27.1054 204.808 27.0482 204.87 26.9759 204.912C26.9059 204.954 26.8254 204.975 26.7344 204.975H26.5734C26.4824 204.975 26.4007 204.954 26.3284 204.912C26.2584 204.87 26.2024 204.808 26.1604 204.726L24.8059 202.098C24.8129 202.182 24.8187 202.265 24.8234 202.346C24.8281 202.426 24.8304 202.499 24.8304 202.567V205.5H23.7874V200.4H24.6904C24.7417 200.4 24.7861 200.402 24.8234 200.404C24.8631 200.406 24.8981 200.413 24.9284 200.425C24.9587 200.437 24.9856 200.455 25.0089 200.481C25.0346 200.504 25.0591 200.538 25.0824 200.582L26.3949 203.169C26.4416 203.258 26.4859 203.35 26.5279 203.445C26.5722 203.541 26.6142 203.639 26.6539 203.739C26.6936 203.637 26.7344 203.536 26.7764 203.438C26.8207 203.34 26.8674 203.247 26.9164 203.158L28.2254 200.582C28.2487 200.538 28.2721 200.504 28.2954 200.481C28.3211 200.455 28.3491 200.437 28.3794 200.425C28.4097 200.413 28.4436 200.406 28.4809 200.404C28.5206 200.402 28.5661 200.4 28.6174 200.4H29.5204Z" fill="#B4B4B4"/>
<path d="M47.6468 204.52C47.7634 204.52 47.8556 204.553 47.9233 204.618C47.9909 204.681 48.0248 204.765 48.0248 204.87V205.5H44.4408V205.15C44.4408 205.082 44.4548 205.01 44.4828 204.933C44.5108 204.856 44.5598 204.786 44.6298 204.723L46.0998 203.242C46.2258 203.116 46.3354 202.996 46.4288 202.882C46.5221 202.768 46.5991 202.656 46.6598 202.546C46.7204 202.434 46.7659 202.323 46.7963 202.213C46.8266 202.101 46.8418 201.984 46.8418 201.86C46.8418 201.657 46.7928 201.502 46.6948 201.394C46.5991 201.285 46.4521 201.23 46.2538 201.23C46.0928 201.23 45.9563 201.273 45.8443 201.359C45.7346 201.443 45.6588 201.548 45.6168 201.674C45.5678 201.803 45.5036 201.888 45.4243 201.93C45.3449 201.972 45.2318 201.981 45.0848 201.958L44.5108 201.856C44.5481 201.602 44.6193 201.38 44.7243 201.191C44.8316 201.002 44.9634 200.845 45.1198 200.719C45.2784 200.593 45.4593 200.5 45.6623 200.439C45.8653 200.376 46.0834 200.344 46.3168 200.344C46.5688 200.344 46.7951 200.382 46.9958 200.456C47.1988 200.529 47.3714 200.63 47.5138 200.761C47.6561 200.892 47.7646 201.048 47.8393 201.23C47.9163 201.41 47.9548 201.608 47.9548 201.825C47.9548 202.012 47.9279 202.184 47.8743 202.343C47.8229 202.502 47.7518 202.653 47.6608 202.798C47.5698 202.94 47.4636 203.079 47.3423 203.214C47.2233 203.347 47.0961 203.483 46.9608 203.62L45.9633 204.642C46.0916 204.603 46.2188 204.572 46.3448 204.551C46.4708 204.53 46.5874 204.52 46.6948 204.52H47.6468ZM56.4102 204.716V205.5H53.5052V204.716H54.4852V202.143C54.4852 202.078 54.4863 202.013 54.4887 201.947C54.491 201.88 54.4945 201.812 54.4992 201.744L53.9182 202.227C53.8668 202.267 53.8155 202.292 53.7642 202.301C53.7152 202.308 53.6685 202.308 53.6242 202.301C53.5798 202.292 53.5402 202.276 53.5052 202.255C53.4702 202.232 53.4445 202.209 53.4282 202.185L53.0852 201.73L54.6742 200.397H55.5702V204.716H56.4102Z" fill="#B4B4B4"/>
<path d="M52.3865 203L49.574 205.143L49.574 200.857L52.3865 203Z" fill="#B4B4B4"/>
<path d="M70.7732 201.856C70.8105 201.602 70.8817 201.38 70.9867 201.191C71.094 201.002 71.2259 200.845 71.3822 200.719C71.5409 200.593 71.7217 200.5 71.9247 200.439C72.1277 200.376 72.3459 200.344 72.5792 200.344C72.8312 200.344 73.0552 200.381 73.2512 200.453C73.4472 200.523 73.6129 200.619 73.7482 200.74C73.8835 200.861 73.9862 201.002 74.0562 201.163C74.1262 201.322 74.1612 201.49 74.1612 201.667C74.1612 201.828 74.1449 201.971 74.1122 202.094C74.0795 202.216 74.0305 202.322 73.9652 202.413C73.9022 202.502 73.8229 202.577 73.7272 202.64C73.6339 202.701 73.5265 202.752 73.4052 202.794C73.9699 202.993 74.2522 203.378 74.2522 203.949C74.2522 204.22 74.2032 204.456 74.1052 204.656C74.0072 204.857 73.8754 205.024 73.7097 205.157C73.5464 205.29 73.3562 205.39 73.1392 205.458C72.9222 205.523 72.6959 205.556 72.4602 205.556C72.2175 205.556 72.0017 205.53 71.8127 205.479C71.6237 205.425 71.4557 205.344 71.3087 205.234C71.1617 205.122 71.0322 204.98 70.9202 204.807C70.8105 204.634 70.7149 204.429 70.6332 204.191L71.1162 203.995C71.2422 203.946 71.3589 203.933 71.4662 203.956C71.5735 203.98 71.6505 204.033 71.6972 204.117C71.8022 204.311 71.913 204.452 72.0297 204.541C72.1487 204.627 72.2875 204.67 72.4462 204.67C72.5675 204.67 72.6725 204.651 72.7612 204.611C72.8522 204.569 72.9269 204.516 72.9852 204.453C73.0459 204.388 73.0914 204.315 73.1217 204.233C73.152 204.151 73.1672 204.068 73.1672 203.984C73.1672 203.875 73.159 203.777 73.1427 203.69C73.1287 203.602 73.0867 203.526 73.0167 203.463C72.9467 203.4 72.8405 203.352 72.6982 203.319C72.5582 203.284 72.3622 203.267 72.1102 203.267V202.518C72.3225 202.518 72.494 202.502 72.6247 202.469C72.7554 202.436 72.8557 202.392 72.9257 202.336C72.998 202.278 73.0459 202.208 73.0692 202.126C73.0925 202.044 73.1042 201.954 73.1042 201.856C73.1042 201.656 73.0552 201.502 72.9572 201.394C72.8615 201.285 72.7145 201.23 72.5162 201.23C72.3552 201.23 72.2187 201.273 72.1067 201.359C71.997 201.443 71.9212 201.548 71.8792 201.674C71.8302 201.803 71.766 201.888 71.6867 201.93C71.6074 201.972 71.4942 201.981 71.3472 201.958L70.7732 201.856ZM83.8972 204.52C84.0139 204.52 84.106 204.553 84.1737 204.618C84.2414 204.681 84.2752 204.765 84.2752 204.87V205.5H80.6912V205.15C80.6912 205.082 80.7052 205.01 80.7332 204.933C80.7612 204.856 80.8102 204.786 80.8802 204.723L82.3502 203.242C82.4762 203.116 82.5859 202.996 82.6792 202.882C82.7725 202.768 82.8495 202.656 82.9102 202.546C82.9709 202.434 83.0164 202.323 83.0467 202.213C83.077 202.101 83.0922 201.984 83.0922 201.86C83.0922 201.657 83.0432 201.502 82.9452 201.394C82.8495 201.285 82.7025 201.23 82.5042 201.23C82.3432 201.23 82.2067 201.273 82.0947 201.359C81.985 201.443 81.9092 201.548 81.8672 201.674C81.8182 201.803 81.754 201.888 81.6747 201.93C81.5954 201.972 81.4822 201.981 81.3352 201.958L80.7612 201.856C80.7985 201.602 80.8697 201.38 80.9747 201.191C81.082 201.002 81.2139 200.845 81.3702 200.719C81.5289 200.593 81.7097 200.5 81.9127 200.439C82.1157 200.376 82.3339 200.344 82.5672 200.344C82.8192 200.344 83.0455 200.382 83.2462 200.456C83.4492 200.529 83.6219 200.63 83.7642 200.761C83.9065 200.892 84.015 201.048 84.0897 201.23C84.1667 201.41 84.2052 201.608 84.2052 201.825C84.2052 202.012 84.1784 202.184 84.1247 202.343C84.0734 202.502 84.0022 202.653 83.9112 202.798C83.8202 202.94 83.714 203.079 83.5927 203.214C83.4737 203.347 83.3465 203.483 83.2112 203.62L82.2137 204.642C82.342 204.603 82.4692 204.572 82.5952 204.551C82.7212 204.53 82.8379 204.52 82.9452 204.52H83.8972ZM94.1757 204.716V205.5H91.2707V204.716H92.2507V202.143C92.2507 202.078 92.2519 202.013 92.2542 201.947C92.2566 201.88 92.2601 201.812 92.2647 201.744L91.6837 202.227C91.6324 202.267 91.5811 202.292 91.5297 202.301C91.4807 202.308 91.4341 202.308 91.3897 202.301C91.3454 202.292 91.3057 202.276 91.2707 202.255C91.2357 202.232 91.2101 202.209 91.1937 202.185L90.8507 201.73L92.4397 200.397H93.3357V204.716H94.1757Z" fill="#B4B4B4"/>
<path d="M78.7615 203L75.949 205.143L75.949 200.857L78.7615 203Z" fill="#B4B4B4"/>
<path d="M89.074 203L86.2615 205.143L86.2615 200.857L89.074 203Z" fill="#B4B4B4"/>
<rect x="99.5115" y="200" width="30" height="6" rx="1" fill="#7432FF"/>
<rect x="99.5115" y="200" width="30" height="6" rx="1" stroke="#7432FF"/>
<path d="M105.881 204.52C105.998 204.52 106.09 204.553 106.158 204.618C106.225 204.681 106.259 204.765 106.259 204.87V205.5H102.675V205.15C102.675 205.082 102.689 205.01 102.717 204.933C102.745 204.856 102.794 204.786 102.864 204.723L104.334 203.242C104.46 203.116 104.57 202.996 104.663 202.882C104.757 202.768 104.834 202.656 104.894 202.546C104.955 202.434 105 202.323 105.031 202.213C105.061 202.101 105.076 201.984 105.076 201.86C105.076 201.657 105.027 201.502 104.929 201.394C104.834 201.285 104.687 201.23 104.488 201.23C104.327 201.23 104.191 201.273 104.079 201.359C103.969 201.443 103.893 201.548 103.851 201.674C103.802 201.803 103.738 201.888 103.659 201.93C103.579 201.972 103.466 201.981 103.319 201.958L102.745 201.856C102.783 201.602 102.854 201.38 102.959 201.191C103.066 201.002 103.198 200.845 103.354 200.719C103.513 200.593 103.694 200.5 103.897 200.439C104.1 200.376 104.318 200.344 104.551 200.344C104.803 200.344 105.03 200.382 105.23 200.456C105.433 200.529 105.606 200.63 105.748 200.761C105.891 200.892 105.999 201.048 106.074 201.23C106.151 201.41 106.189 201.608 106.189 201.825C106.189 202.012 106.162 202.184 106.109 202.343C106.057 202.502 105.986 202.653 105.895 202.798C105.804 202.94 105.698 203.079 105.577 203.214C105.458 203.347 105.331 203.483 105.195 203.62L104.198 204.642C104.326 204.603 104.453 204.572 104.579 204.551C104.705 204.53 104.822 204.52 104.929 204.52H105.881ZM116.16 204.716V205.5H113.255V204.716H114.235V202.143C114.235 202.078 114.236 202.013 114.238 201.947C114.241 201.88 114.244 201.812 114.249 201.744L113.668 202.227C113.616 202.267 113.565 202.292 113.514 202.301C113.465 202.308 113.418 202.308 113.374 202.301C113.329 202.292 113.29 202.276 113.255 202.255C113.22 202.232 113.194 202.209 113.178 202.185L112.835 201.73L114.424 200.397H115.32V204.716H116.16ZM122.805 201.856C122.843 201.602 122.914 201.38 123.019 201.191C123.126 201.002 123.258 200.845 123.414 200.719C123.573 200.593 123.754 200.5 123.957 200.439C124.16 200.376 124.378 200.344 124.611 200.344C124.863 200.344 125.087 200.381 125.283 200.453C125.479 200.523 125.645 200.619 125.78 200.74C125.916 200.861 126.018 201.002 126.088 201.163C126.158 201.322 126.193 201.49 126.193 201.667C126.193 201.828 126.177 201.971 126.144 202.094C126.112 202.216 126.063 202.322 125.997 202.413C125.934 202.502 125.855 202.577 125.759 202.64C125.666 202.701 125.559 202.752 125.437 202.794C126.002 202.993 126.284 203.378 126.284 203.949C126.284 204.22 126.235 204.456 126.137 204.656C126.039 204.857 125.907 205.024 125.742 205.157C125.578 205.29 125.388 205.39 125.171 205.458C124.954 205.523 124.728 205.556 124.492 205.556C124.25 205.556 124.034 205.53 123.845 205.479C123.656 205.425 123.488 205.344 123.341 205.234C123.194 205.122 123.064 204.98 122.952 204.807C122.843 204.634 122.747 204.429 122.665 204.191L123.148 203.995C123.274 203.946 123.391 203.933 123.498 203.956C123.606 203.98 123.683 204.033 123.729 204.117C123.834 204.311 123.945 204.452 124.062 204.541C124.181 204.627 124.32 204.67 124.478 204.67C124.6 204.67 124.705 204.651 124.793 204.611C124.884 204.569 124.959 204.516 125.017 204.453C125.078 204.388 125.123 204.315 125.154 204.233C125.184 204.151 125.199 204.068 125.199 203.984C125.199 203.875 125.191 203.777 125.175 203.69C125.161 203.602 125.119 203.526 125.049 203.463C124.979 203.4 124.873 203.352 124.73 203.319C124.59 203.284 124.394 203.267 124.142 203.267V202.518C124.355 202.518 124.526 202.502 124.657 202.469C124.787 202.436 124.888 202.392 124.958 202.336C125.03 202.278 125.078 202.208 125.101 202.126C125.125 202.044 125.136 201.954 125.136 201.856C125.136 201.656 125.087 201.502 124.989 201.394C124.894 201.285 124.747 201.23 124.548 201.23C124.387 201.23 124.251 201.273 124.139 201.359C124.029 201.443 123.953 201.548 123.911 201.674C123.862 201.803 123.798 201.888 123.719 201.93C123.639 201.972 123.526 201.981 123.379 201.958L122.805 201.856Z" fill="white"/>
<path d="M110.761 203L107.949 205.143L107.949 200.857L110.761 203Z" fill="white"/>
<path d="M118.261 203L121.074 200.857L121.074 205.143L118.261 203Z" fill="white"/>
<path d="M3.5 199H129.5V198H3.5V199ZM131 200.5V205.5H132V200.5H131ZM129.5 207H3.5V208H129.5V207ZM2 205.5V200.5H1V205.5H2ZM3.5 207C2.67157 207 2 206.328 2 205.5H1C1 206.881 2.11929 208 3.5 208V207ZM131 205.5C131 206.328 130.328 207 129.5 207V208C130.881 208 132 206.881 132 205.5H131ZM129.5 199C130.328 199 131 199.672 131 200.5H132C132 199.119 130.881 198 129.5 198V199ZM3.5 198C2.11929 198 1 199.119 1 200.5H2C2 199.672 2.67157 199 3.5 199V198Z" fill="black"/>
<path fill-rule="evenodd" clip-rule="evenodd" d="M1 108V111H121V119H128V121L132 118.5L128 116V118H123V108H1Z" fill="#7432FF"/>
<rect x="13.5" y="130.5" width="10" height="10" rx="2" stroke="#7432FF"/>
<rect x="45.5" y="130.5" width="10" height="10" rx="2" stroke="#7432FF"/>
<rect x="77.5" y="130.5" width="10" height="10" rx="2" stroke="#7432FF"/>
<path opacity="0.5" d="M117 130.5H111C109.895 130.5 109 131.395 109 132.5V138.5C109 139.605 109.895 140.5 111 140.5H117C118.105 140.5 119 139.605 119 138.5V132.5C119 131.395 118.105 130.5 117 130.5Z" stroke="#7432FF"/>
<path d="M17.4112 137.352H18.4367V134.402C18.4367 134.288 18.4402 134.167 18.4472 134.041L17.7192 134.65C17.6889 134.676 17.6574 134.694 17.6247 134.703C17.5944 134.712 17.5641 134.717 17.5337 134.717C17.4871 134.717 17.4439 134.708 17.4042 134.689C17.3669 134.668 17.3389 134.645 17.3202 134.619L17.0472 134.244L18.5907 132.932H19.3012V137.352H20.2112V138H17.4112V137.352Z" fill="white"/>
<path d="M50.5767 132.883C50.8101 132.883 51.0236 132.918 51.2172 132.988C51.4109 133.056 51.5766 133.152 51.7142 133.278C51.8519 133.404 51.9592 133.556 52.0362 133.733C52.1132 133.911 52.1517 134.108 52.1517 134.325C52.1517 134.512 52.1237 134.684 52.0677 134.843C52.0141 135.002 51.9406 135.153 51.8472 135.298C51.7562 135.443 51.6489 135.583 51.5252 135.718C51.4016 135.853 51.2721 135.991 51.1367 136.131L49.9957 137.296C50.1077 137.264 50.2174 137.239 50.3247 137.223C50.4321 137.204 50.5347 137.195 50.6327 137.195H51.9312C52.0246 137.195 52.0981 137.222 52.1517 137.275C52.2077 137.327 52.2357 137.396 52.2357 137.482V138H48.7637V137.713C48.7637 137.655 48.7754 137.594 48.7987 137.531C48.8244 137.468 48.8641 137.41 48.9177 137.356L50.4542 135.816C50.5826 135.685 50.6969 135.56 50.7972 135.441C50.8999 135.322 50.9851 135.205 51.0527 135.088C51.1227 134.971 51.1752 134.853 51.2102 134.734C51.2476 134.613 51.2662 134.486 51.2662 134.353C51.2662 134.232 51.2487 134.125 51.2137 134.034C51.1787 133.941 51.1286 133.863 51.0632 133.8C50.9979 133.737 50.9197 133.69 50.8287 133.66C50.7401 133.627 50.6397 133.611 50.5277 133.611C50.3201 133.611 50.1486 133.663 50.0132 133.768C49.8802 133.873 49.7869 134.015 49.7332 134.192C49.7076 134.281 49.6691 134.345 49.6177 134.385C49.5664 134.422 49.5011 134.44 49.4217 134.44C49.3867 134.44 49.3482 134.437 49.3062 134.43L48.8512 134.349C48.8862 134.107 48.9539 133.894 49.0542 133.712C49.1546 133.528 49.2794 133.375 49.4287 133.254C49.5804 133.13 49.7531 133.038 49.9467 132.977C50.1427 132.914 50.3527 132.883 50.5767 132.883Z" fill="white"/>
<path d="M82.6572 132.883C82.8906 132.883 83.1006 132.917 83.2872 132.984C83.4762 133.05 83.6372 133.142 83.7702 133.261C83.9032 133.378 84.0047 133.515 84.0747 133.674C84.1471 133.833 84.1832 134.004 84.1832 134.188C84.1832 134.349 84.1646 134.492 84.1272 134.615C84.0922 134.737 84.0397 134.843 83.9697 134.934C83.9021 135.025 83.8181 135.102 83.7177 135.165C83.6197 135.228 83.5077 135.28 83.3817 135.322C83.6851 135.418 83.9114 135.564 84.0607 135.76C84.2101 135.956 84.2847 136.202 84.2847 136.498C84.2847 136.75 84.2381 136.973 84.1447 137.167C84.0514 137.361 83.9254 137.524 83.7667 137.657C83.6081 137.788 83.4237 137.887 83.2137 137.954C83.0061 138.022 82.7856 138.056 82.5522 138.056C82.2979 138.056 82.0762 138.027 81.8872 137.968C81.6982 137.91 81.5337 137.824 81.3937 137.709C81.2537 137.595 81.1347 137.455 81.0367 137.289C80.9387 137.124 80.8547 136.932 80.7847 136.715L81.1662 136.558C81.2316 136.53 81.2981 136.516 81.3657 136.516C81.4264 136.516 81.4801 136.529 81.5267 136.554C81.5757 136.58 81.6131 136.617 81.6387 136.666C81.6807 136.748 81.7262 136.829 81.7752 136.908C81.8266 136.987 81.8872 137.058 81.9572 137.121C82.0272 137.182 82.1089 137.232 82.2022 137.272C82.2979 137.309 82.4111 137.328 82.5417 137.328C82.6887 137.328 82.8171 137.305 82.9267 137.258C83.0364 137.209 83.1274 137.146 83.1997 137.069C83.2744 136.992 83.3292 136.907 83.3642 136.813C83.4016 136.718 83.4202 136.622 83.4202 136.526C83.4202 136.405 83.4074 136.295 83.3817 136.197C83.3561 136.097 83.3024 136.012 83.2207 135.942C83.1391 135.872 83.0212 135.817 82.8672 135.777C82.7156 135.738 82.5114 135.718 82.2547 135.718V135.102C82.4671 135.1 82.6432 135.08 82.7832 135.042C82.9232 135.005 83.0341 134.954 83.1157 134.888C83.1997 134.821 83.2581 134.74 83.2907 134.647C83.3234 134.554 83.3397 134.451 83.3397 134.339C83.3397 134.099 83.2744 133.918 83.1437 133.796C83.0131 133.673 82.8346 133.611 82.6082 133.611C82.4029 133.611 82.2326 133.666 82.0972 133.775C81.9619 133.883 81.8674 134.022 81.8137 134.192C81.7857 134.281 81.7472 134.345 81.6982 134.385C81.6492 134.422 81.5851 134.44 81.5057 134.44C81.4684 134.44 81.4287 134.437 81.3867 134.43L80.9317 134.349C80.9667 134.107 81.0344 133.894 81.1347 133.712C81.2351 133.528 81.3599 133.375 81.5092 133.254C81.6609 133.13 81.8336 133.038 82.0272 132.977C82.2232 132.914 82.4332 132.883 82.6572 132.883Z" fill="white"/>
<path d="M112.359 132.939C112.401 132.939 112.436 132.941 112.464 132.946C112.492 132.948 112.516 132.955 112.537 132.967C112.561 132.976 112.583 132.991 112.604 133.012C112.625 133.031 112.648 133.057 112.674 133.089L115.33 136.474C115.321 136.392 115.314 136.313 115.309 136.236C115.307 136.157 115.306 136.083 115.306 136.015V132.939H116.135V138H115.649C115.574 138 115.512 137.988 115.463 137.965C115.414 137.942 115.367 137.9 115.32 137.839L112.674 134.468C112.681 134.543 112.686 134.618 112.688 134.692C112.693 134.765 112.695 134.831 112.695 134.892V138H111.865V132.939H112.359Z" fill="white"/>
<g opacity="0.5">
<path d="M34.5 128.5C37.2614 128.5 39.5 126.261 39.5 123.5C39.5 120.739 37.2614 118.5 34.5 118.5C31.7386 118.5 29.5 120.739 29.5 123.5C29.5 126.261 31.7386 128.5 34.5 128.5Z" stroke="#7432FF"/>
<path d="M36.4444 120.495L37.505 121.555L35.5591 123.501L37.5042 125.444L36.4444 126.505L34.4984 124.562L32.5553 126.505L31.4946 125.445L33.437 123.502L31.4917 121.56L32.5516 120.498L34.4976 122.442L36.4444 120.495Z" fill="#EEEEEE"/>
</g>
<g opacity="0.5">
<path d="M66.5 128.5C69.2614 128.5 71.5 126.261 71.5 123.5C71.5 120.739 69.2614 118.5 66.5 118.5C63.7386 118.5 61.5 120.739 61.5 123.5C61.5 126.261 63.7386 128.5 66.5 128.5Z" stroke="#7432FF"/>
<path d="M68.4444 120.495L69.505 121.555L67.5591 123.501L69.5042 125.444L68.4444 126.505L66.4984 124.562L64.5553 126.505L63.4946 125.445L65.437 123.502L63.4917 121.56L64.5516 120.498L66.4976 122.442L68.4444 120.495Z" fill="#EEEEEE"/>
</g>
<path fill-rule="evenodd" clip-rule="evenodd" d="M82 116L80 116L82.5 112L85 116L83 116L82 116Z" fill="#7432FF"/>
<path d="M82 130L82 115.5L83 115.5L83 130L82 130Z" fill="#7432FF"/>
<g opacity="0.5">
<path fill-rule="evenodd" clip-rule="evenodd" d="M113.5 116L111.5 116L114 112L116.5 116L114.5 116L113.5 116Z" fill="#7432FF"/>
<path d="M113.5 130L113.5 115.5L114.5 115.5L114.5 130L113.5 130Z" fill="#7432FF"/>
</g>
<path fill-rule="evenodd" clip-rule="evenodd" d="M50 116L48 116L50.5 112L53 116L51 116L50 116Z" fill="#7432FF"/>
<path d="M50 130L50 115.5L51 115.5L51 130L50 130Z" fill="#7432FF"/>
<path fill-rule="evenodd" clip-rule="evenodd" d="M18 116L16 116L18.5 112L21 116L19 116L18 116Z" fill="#7432FF"/>
<path d="M18 130L18 115.5L19 115.5L19 130L18 130Z" fill="#7432FF"/>
<g opacity="0.5">
<path fill-rule="evenodd" clip-rule="evenodd" d="M34 116L32 116L34.5 112L37 116L35 116L34 116Z" fill="#7432FF"/>
<path d="M34 118L34 115.5L35 115.5L35 118L34 118Z" fill="#7432FF"/>
</g>
<g opacity="0.5">
<path fill-rule="evenodd" clip-rule="evenodd" d="M66 116L64 116L66.5 112L69 116L67 116L66 116Z" fill="#7432FF"/>
<path d="M66 118L66 115.5L67 115.5L67 118L66 118Z" fill="#7432FF"/>
</g>
<g opacity="0.5">
<path fill-rule="evenodd" clip-rule="evenodd" d="M45 124L45 126L41 123.5L45 121L45 123L45 124Z" fill="#7432FF"/>
<path d="M50 124L44.5 124L44.5 123L50 123L50 124Z" fill="#7432FF"/>
</g>
<g opacity="0.5">
<path fill-rule="evenodd" clip-rule="evenodd" d="M77 124L77 126L73 123.5L77 121L77 123L77 124Z" fill="#7432FF"/>
<path d="M82 124L76.5 124L76.5 123L82 123L82 124Z" fill="#7432FF"/>
</g>
<path fill-rule="evenodd" clip-rule="evenodd" d="M61 136L61 138L57 135.5L61 133L61 135L61 136Z" fill="#7432FF"/>
<path d="M77 136L60.5 136L60.5 135L77 135L77 136Z" fill="#7432FF"/>
<path fill-rule="evenodd" clip-rule="evenodd" d="M29 136L29 138L25 135.5L29 133L29 135L29 136Z" fill="#7432FF"/>
<path d="M45 136L28.5 136L28.5 135L45 135L45 136Z" fill="#7432FF"/>
<g opacity="0.5">
<path fill-rule="evenodd" clip-rule="evenodd" d="M24 123L24 121L28 123.5L24 126L24 124L24 123Z" fill="#7432FF"/>
<path d="M19 123L24.5 123L24.5 124L19 124L19 123Z" fill="#7432FF"/>
</g>
<g opacity="0.5">
<path fill-rule="evenodd" clip-rule="evenodd" d="M56 123L56 121L60 123.5L56 126L56 124L56 123Z" fill="#7432FF"/>
<path d="M51 123L56.5 123L56.5 124L51 124L51 123Z" fill="#7432FF"/>
</g>
<path d="M1.5 148.5C1.5 147.395 2.39543 146.5 3.5 146.5H129.5C130.605 146.5 131.5 147.395 131.5 148.5V153.5C131.5 154.605 130.605 155.5 129.5 155.5H3.5C2.39543 155.5 1.5 154.605 1.5 153.5V148.5Z" fill="#242424"/>
<path d="M11.9319 148.4V153.5H11.3159C11.2249 153.5 11.1479 153.486 11.0849 153.458C11.0242 153.428 10.9635 153.376 10.9029 153.304L8.49837 150.262C8.5077 150.353 8.51353 150.442 8.51587 150.528C8.52053 150.612 8.52287 150.692 8.52287 150.766V153.5H7.47987V148.4H8.10287C8.1542 148.4 8.19737 148.403 8.23237 148.407C8.26737 148.412 8.29887 148.421 8.32687 148.435C8.35487 148.447 8.3817 148.465 8.40737 148.488C8.43303 148.511 8.4622 148.543 8.49487 148.582L10.9204 151.645C10.9087 151.547 10.9005 151.452 10.8959 151.361C10.8912 151.268 10.8889 151.181 10.8889 151.099V148.4H11.9319ZM17.8213 150.948C17.8213 151.317 17.7571 151.66 17.6288 151.977C17.5028 152.295 17.3243 152.571 17.0933 152.807C16.8623 153.04 16.5834 153.223 16.2568 153.356C15.9324 153.49 15.5719 153.556 15.1753 153.556C14.7786 153.556 14.4169 153.49 14.0903 153.356C13.7636 153.223 13.4836 153.04 13.2503 152.807C13.0193 152.571 12.8396 152.295 12.7113 151.977C12.5853 151.66 12.5223 151.317 12.5223 150.948C12.5223 150.58 12.5853 150.237 12.7113 149.919C12.8396 149.602 13.0193 149.327 13.2503 149.093C13.4836 148.86 13.7636 148.677 14.0903 148.544C14.4169 148.411 14.7786 148.344 15.1753 148.344C15.5719 148.344 15.9324 148.412 16.2568 148.547C16.5834 148.68 16.8623 148.864 17.0933 149.097C17.3243 149.33 17.5028 149.606 17.6288 149.923C17.7571 150.24 17.8213 150.582 17.8213 150.948ZM16.6103 150.948C16.6103 150.696 16.5776 150.47 16.5123 150.269C16.4469 150.066 16.3524 149.895 16.2288 149.755C16.1074 149.615 15.9581 149.508 15.7808 149.433C15.6034 149.358 15.4016 149.321 15.1753 149.321C14.9466 149.321 14.7424 149.358 14.5628 149.433C14.3854 149.508 14.2349 149.615 14.1113 149.755C13.9899 149.895 13.8966 150.066 13.8313 150.269C13.7659 150.47 13.7333 150.696 13.7333 150.948C13.7333 151.203 13.7659 151.431 13.8313 151.634C13.8966 151.835 13.9899 152.005 14.1113 152.145C14.2349 152.285 14.3854 152.393 14.5628 152.467C14.7424 152.54 14.9466 152.576 15.1753 152.576C15.4016 152.576 15.6034 152.54 15.7808 152.467C15.9581 152.393 16.1074 152.285 16.2288 152.145C16.3524 152.005 16.4469 151.835 16.5123 151.634C16.5776 151.431 16.6103 151.203 16.6103 150.948ZM21.1176 149.31V150.602H22.8606V151.515H21.1176V153.5H19.9276V148.4H23.2106V149.31H21.1176ZM29.5204 148.4V153.5H28.4774V150.567C28.4774 150.499 28.4786 150.426 28.4809 150.346C28.4856 150.267 28.4926 150.187 28.5019 150.105L27.1474 152.726C27.1054 152.808 27.0482 152.87 26.9759 152.912C26.9059 152.954 26.8254 152.975 26.7344 152.975H26.5734C26.4824 152.975 26.4007 152.954 26.3284 152.912C26.2584 152.87 26.2024 152.808 26.1604 152.726L24.8059 150.098C24.8129 150.182 24.8187 150.265 24.8234 150.346C24.8281 150.426 24.8304 150.499 24.8304 150.567V153.5H23.7874V148.4H24.6904C24.7417 148.4 24.7861 148.402 24.8234 148.404C24.8631 148.406 24.8981 148.413 24.9284 148.425C24.9587 148.437 24.9856 148.455 25.0089 148.481C25.0346 148.504 25.0591 148.538 25.0824 148.582L26.3949 151.169C26.4416 151.258 26.4859 151.35 26.5279 151.445C26.5722 151.541 26.6142 151.639 26.6539 151.739C26.6936 151.637 26.7344 151.536 26.7764 151.438C26.8207 151.34 26.8674 151.247 26.9164 151.158L28.2254 148.582C28.2487 148.538 28.2721 148.504 28.2954 148.481C28.3211 148.455 28.3491 148.437 28.3794 148.425C28.4097 148.413 28.4436 148.406 28.4809 148.404C28.5206 148.402 28.5661 148.4 28.6174 148.4H29.5204Z" fill="#B4B4B4"/>
<path d="M47.6468 152.52C47.7634 152.52 47.8556 152.553 47.9233 152.618C47.9909 152.681 48.0248 152.765 48.0248 152.87V153.5H44.4408V153.15C44.4408 153.082 44.4548 153.01 44.4828 152.933C44.5108 152.856 44.5598 152.786 44.6298 152.723L46.0998 151.242C46.2258 151.116 46.3354 150.996 46.4288 150.882C46.5221 150.768 46.5991 150.656 46.6598 150.546C46.7204 150.434 46.7659 150.323 46.7963 150.213C46.8266 150.101 46.8418 149.984 46.8418 149.86C46.8418 149.657 46.7928 149.502 46.6948 149.394C46.5991 149.285 46.4521 149.23 46.2538 149.23C46.0928 149.23 45.9563 149.273 45.8443 149.359C45.7346 149.443 45.6588 149.548 45.6168 149.674C45.5678 149.803 45.5036 149.888 45.4243 149.93C45.3449 149.972 45.2318 149.981 45.0848 149.958L44.5108 149.856C44.5481 149.602 44.6193 149.38 44.7243 149.191C44.8316 149.002 44.9634 148.845 45.1198 148.719C45.2784 148.593 45.4593 148.5 45.6623 148.439C45.8653 148.376 46.0834 148.344 46.3168 148.344C46.5688 148.344 46.7951 148.382 46.9958 148.456C47.1988 148.529 47.3714 148.63 47.5138 148.761C47.6561 148.892 47.7646 149.048 47.8393 149.23C47.9163 149.41 47.9548 149.608 47.9548 149.825C47.9548 150.012 47.9279 150.184 47.8743 150.343C47.8229 150.502 47.7518 150.653 47.6608 150.798C47.5698 150.94 47.4636 151.079 47.3423 151.214C47.2233 151.347 47.0961 151.483 46.9608 151.62L45.9633 152.642C46.0916 152.603 46.2188 152.572 46.3448 152.551C46.4708 152.53 46.5874 152.52 46.6948 152.52H47.6468ZM56.4102 152.716V153.5H53.5052V152.716H54.4852V150.143C54.4852 150.078 54.4863 150.013 54.4887 149.947C54.491 149.88 54.4945 149.812 54.4992 149.744L53.9182 150.227C53.8668 150.267 53.8155 150.292 53.7642 150.301C53.7152 150.308 53.6685 150.308 53.6242 150.301C53.5798 150.292 53.5402 150.276 53.5052 150.255C53.4702 150.232 53.4445 150.209 53.4282 150.185L53.0852 149.73L54.6742 148.397H55.5702V152.716H56.4102Z" fill="#B4B4B4"/>
<path d="M52.3865 151L49.574 153.143L49.574 148.857L52.3865 151Z" fill="#B4B4B4"/>
<rect x="67.5115" y="148" width="30" height="6" rx="1" fill="#7432FF"/>
<rect x="67.5115" y="148" width="30" height="6" rx="1" stroke="#7432FF"/>
<path d="M70.7732 149.856C70.8105 149.602 70.8817 149.38 70.9867 149.191C71.094 149.002 71.2259 148.845 71.3822 148.719C71.5409 148.593 71.7217 148.5 71.9247 148.439C72.1277 148.376 72.3459 148.344 72.5792 148.344C72.8312 148.344 73.0552 148.381 73.2512 148.453C73.4472 148.523 73.6129 148.619 73.7482 148.74C73.8835 148.861 73.9862 149.002 74.0562 149.163C74.1262 149.322 74.1612 149.49 74.1612 149.667C74.1612 149.828 74.1449 149.971 74.1122 150.094C74.0795 150.216 74.0305 150.322 73.9652 150.413C73.9022 150.502 73.8229 150.577 73.7272 150.64C73.6339 150.701 73.5265 150.752 73.4052 150.794C73.9699 150.993 74.2522 151.378 74.2522 151.949C74.2522 152.22 74.2032 152.456 74.1052 152.656C74.0072 152.857 73.8754 153.024 73.7097 153.157C73.5464 153.29 73.3562 153.39 73.1392 153.458C72.9222 153.523 72.6959 153.556 72.4602 153.556C72.2175 153.556 72.0017 153.53 71.8127 153.479C71.6237 153.425 71.4557 153.344 71.3087 153.234C71.1617 153.122 71.0322 152.98 70.9202 152.807C70.8105 152.634 70.7149 152.429 70.6332 152.191L71.1162 151.995C71.2422 151.946 71.3589 151.933 71.4662 151.956C71.5735 151.98 71.6505 152.033 71.6972 152.117C71.8022 152.311 71.913 152.452 72.0297 152.541C72.1487 152.627 72.2875 152.67 72.4462 152.67C72.5675 152.67 72.6725 152.651 72.7612 152.611C72.8522 152.569 72.9269 152.516 72.9852 152.453C73.0459 152.388 73.0914 152.315 73.1217 152.233C73.152 152.151 73.1672 152.068 73.1672 151.984C73.1672 151.875 73.159 151.777 73.1427 151.69C73.1287 151.602 73.0867 151.526 73.0167 151.463C72.9467 151.4 72.8405 151.352 72.6982 151.319C72.5582 151.284 72.3622 151.267 72.1102 151.267V150.518C72.3225 150.518 72.494 150.502 72.6247 150.469C72.7554 150.436 72.8557 150.392 72.9257 150.336C72.998 150.278 73.0459 150.208 73.0692 150.126C73.0925 150.044 73.1042 149.954 73.1042 149.856C73.1042 149.656 73.0552 149.502 72.9572 149.394C72.8615 149.285 72.7145 149.23 72.5162 149.23C72.3552 149.23 72.2187 149.273 72.1067 149.359C71.997 149.443 71.9212 149.548 71.8792 149.674C71.8302 149.803 71.766 149.888 71.6867 149.93C71.6074 149.972 71.4942 149.981 71.3472 149.958L70.7732 149.856ZM83.8972 152.52C84.0139 152.52 84.106 152.553 84.1737 152.618C84.2414 152.681 84.2752 152.765 84.2752 152.87V153.5H80.6912V153.15C80.6912 153.082 80.7052 153.01 80.7332 152.933C80.7612 152.856 80.8102 152.786 80.8802 152.723L82.3502 151.242C82.4762 151.116 82.5859 150.996 82.6792 150.882C82.7725 150.768 82.8495 150.656 82.9102 150.546C82.9709 150.434 83.0164 150.323 83.0467 150.213C83.077 150.101 83.0922 149.984 83.0922 149.86C83.0922 149.657 83.0432 149.502 82.9452 149.394C82.8495 149.285 82.7025 149.23 82.5042 149.23C82.3432 149.23 82.2067 149.273 82.0947 149.359C81.985 149.443 81.9092 149.548 81.8672 149.674C81.8182 149.803 81.754 149.888 81.6747 149.93C81.5954 149.972 81.4822 149.981 81.3352 149.958L80.7612 149.856C80.7985 149.602 80.8697 149.38 80.9747 149.191C81.082 149.002 81.2139 148.845 81.3702 148.719C81.5289 148.593 81.7097 148.5 81.9127 148.439C82.1157 148.376 82.3339 148.344 82.5672 148.344C82.8192 148.344 83.0455 148.382 83.2462 148.456C83.4492 148.529 83.6219 148.63 83.7642 148.761C83.9065 148.892 84.015 149.048 84.0897 149.23C84.1667 149.41 84.2052 149.608 84.2052 149.825C84.2052 150.012 84.1784 150.184 84.1247 150.343C84.0734 150.502 84.0022 150.653 83.9112 150.798C83.8202 150.94 83.714 151.079 83.5927 151.214C83.4737 151.347 83.3465 151.483 83.2112 151.62L82.2137 152.642C82.342 152.603 82.4692 152.572 82.5952 152.551C82.7212 152.53 82.8379 152.52 82.9452 152.52H83.8972ZM94.1757 152.716V153.5H91.2707V152.716H92.2507V150.143C92.2507 150.078 92.2519 150.013 92.2542 149.947C92.2566 149.88 92.2601 149.812 92.2647 149.744L91.6837 150.227C91.6324 150.267 91.5811 150.292 91.5297 150.301C91.4807 150.308 91.4341 150.308 91.3897 150.301C91.3454 150.292 91.3057 150.276 91.2707 150.255C91.2357 150.232 91.2101 150.209 91.1937 150.185L90.8507 149.73L92.4397 148.397H93.3357V152.716H94.1757Z" fill="white"/>
<path d="M78.7615 151L75.949 153.143L75.949 148.857L78.7615 151Z" fill="white"/>
<path d="M89.074 151L86.2615 153.143L86.2615 148.857L89.074 151Z" fill="white"/>
<path d="M105.881 152.52C105.998 152.52 106.09 152.553 106.158 152.618C106.225 152.681 106.259 152.765 106.259 152.87V153.5H102.675V153.15C102.675 153.082 102.689 153.01 102.717 152.933C102.745 152.856 102.794 152.786 102.864 152.723L104.334 151.242C104.46 151.116 104.57 150.996 104.663 150.882C104.757 150.768 104.834 150.656 104.894 150.546C104.955 150.434 105 150.323 105.031 150.213C105.061 150.101 105.076 149.984 105.076 149.86C105.076 149.657 105.027 149.502 104.929 149.394C104.834 149.285 104.687 149.23 104.488 149.23C104.327 149.23 104.191 149.273 104.079 149.359C103.969 149.443 103.893 149.548 103.851 149.674C103.802 149.803 103.738 149.888 103.659 149.93C103.579 149.972 103.466 149.981 103.319 149.958L102.745 149.856C102.783 149.602 102.854 149.38 102.959 149.191C103.066 149.002 103.198 148.845 103.354 148.719C103.513 148.593 103.694 148.5 103.897 148.439C104.1 148.376 104.318 148.344 104.551 148.344C104.803 148.344 105.03 148.382 105.23 148.456C105.433 148.529 105.606 148.63 105.748 148.761C105.891 148.892 105.999 149.048 106.074 149.23C106.151 149.41 106.189 149.608 106.189 149.825C106.189 150.012 106.162 150.184 106.109 150.343C106.057 150.502 105.986 150.653 105.895 150.798C105.804 150.94 105.698 151.079 105.577 151.214C105.458 151.347 105.331 151.483 105.195 151.62L104.198 152.642C104.326 152.603 104.453 152.572 104.579 152.551C104.705 152.53 104.822 152.52 104.929 152.52H105.881ZM116.16 152.716V153.5H113.255V152.716H114.235V150.143C114.235 150.078 114.236 150.013 114.238 149.947C114.241 149.88 114.244 149.812 114.249 149.744L113.668 150.227C113.616 150.267 113.565 150.292 113.514 150.301C113.465 150.308 113.418 150.308 113.374 150.301C113.329 150.292 113.29 150.276 113.255 150.255C113.22 150.232 113.194 150.209 113.178 150.185L112.835 149.73L114.424 148.397H115.32V152.716H116.16ZM122.805 149.856C122.843 149.602 122.914 149.38 123.019 149.191C123.126 149.002 123.258 148.845 123.414 148.719C123.573 148.593 123.754 148.5 123.957 148.439C124.16 148.376 124.378 148.344 124.611 148.344C124.863 148.344 125.087 148.381 125.283 148.453C125.479 148.523 125.645 148.619 125.78 148.74C125.916 148.861 126.018 149.002 126.088 149.163C126.158 149.322 126.193 149.49 126.193 149.667C126.193 149.828 126.177 149.971 126.144 150.094C126.112 150.216 126.063 150.322 125.997 150.413C125.934 150.502 125.855 150.577 125.759 150.64C125.666 150.701 125.559 150.752 125.437 150.794C126.002 150.993 126.284 151.378 126.284 151.949C126.284 152.22 126.235 152.456 126.137 152.656C126.039 152.857 125.907 153.024 125.742 153.157C125.578 153.29 125.388 153.39 125.171 153.458C124.954 153.523 124.728 153.556 124.492 153.556C124.25 153.556 124.034 153.53 123.845 153.479C123.656 153.425 123.488 153.344 123.341 153.234C123.194 153.122 123.064 152.98 122.952 152.807C122.843 152.634 122.747 152.429 122.665 152.191L123.148 151.995C123.274 151.946 123.391 151.933 123.498 151.956C123.606 151.98 123.683 152.033 123.729 152.117C123.834 152.311 123.945 152.452 124.062 152.541C124.181 152.627 124.32 152.67 124.478 152.67C124.6 152.67 124.705 152.651 124.793 152.611C124.884 152.569 124.959 152.516 125.017 152.453C125.078 152.388 125.123 152.315 125.154 152.233C125.184 152.151 125.199 152.068 125.199 151.984C125.199 151.875 125.191 151.777 125.175 151.69C125.161 151.602 125.119 151.526 125.049 151.463C124.979 151.4 124.873 151.352 124.73 151.319C124.59 151.284 124.394 151.267 124.142 151.267V150.518C124.355 150.518 124.526 150.502 124.657 150.469C124.787 150.436 124.888 150.392 124.958 150.336C125.03 150.278 125.078 150.208 125.101 150.126C125.125 150.044 125.136 149.954 125.136 149.856C125.136 149.656 125.087 149.502 124.989 149.394C124.894 149.285 124.747 149.23 124.548 149.23C124.387 149.23 124.251 149.273 124.139 149.359C124.029 149.443 123.953 149.548 123.911 149.674C123.862 149.803 123.798 149.888 123.719 149.93C123.639 149.972 123.526 149.981 123.379 149.958L122.805 149.856Z" fill="#B4B4B4"/>
<path d="M110.761 151L107.949 153.143L107.949 148.857L110.761 151Z" fill="#B4B4B4"/>
<path d="M118.261 151L121.074 148.857L121.074 153.143L118.261 151Z" fill="#B4B4B4"/>
<path d="M3.5 147H129.5V146H3.5V147ZM131 148.5V153.5H132V148.5H131ZM129.5 155H3.5V156H129.5V155ZM2 153.5V148.5H1V153.5H2ZM3.5 155C2.67157 155 2 154.328 2 153.5H1C1 154.881 2.11929 156 3.5 156V155ZM131 153.5C131 154.328 130.328 155 129.5 155V156C130.881 156 132 154.881 132 153.5H131ZM129.5 147C130.328 147 131 147.672 131 148.5H132C132 147.119 130.881 146 129.5 146V147ZM3.5 146C2.11929 146 1 147.119 1 148.5H2C2 147.672 2.67157 147 3.5 147V146Z" fill="black"/>
<path fill-rule="evenodd" clip-rule="evenodd" d="M1 56V59H121V67H128V69L132 66.5L128 64V66H123V56H1Z" fill="#7432FF"/>
<rect x="13.5" y="78.5" width="10" height="10" rx="2" stroke="#7432FF"/>
<rect x="45.5" y="78.5" width="10" height="10" rx="2" stroke="#7432FF"/>
<rect x="77.5" y="78.5" width="10" height="10" rx="2" stroke="#7432FF"/>
<path opacity="0.5" d="M117 78.5H111C109.895 78.5 109 79.3954 109 80.5V86.5C109 87.6046 109.895 88.5 111 88.5H117C118.105 88.5 119 87.6046 119 86.5V80.5C119 79.3954 118.105 78.5 117 78.5Z" stroke="#7432FF"/>
<path d="M17.4112 85.3525H18.4367V82.402C18.4367 82.2877 18.4402 82.1675 18.4472 82.0415L17.7192 82.6505C17.6889 82.6762 17.6574 82.6937 17.6247 82.703C17.5944 82.7123 17.5641 82.717 17.5337 82.717C17.4871 82.717 17.4439 82.7077 17.4042 82.689C17.3669 82.668 17.3389 82.6447 17.3202 82.619L17.0472 82.2445L18.5907 80.932H19.3012V85.3525H20.2112V86H17.4112V85.3525Z" fill="white"/>
<path d="M50.5767 80.883C50.8101 80.883 51.0236 80.918 51.2172 80.988C51.4109 81.0557 51.5766 81.1525 51.7142 81.2785C51.8519 81.4045 51.9592 81.5562 52.0362 81.7335C52.1132 81.9108 52.1517 82.108 52.1517 82.325C52.1517 82.5117 52.1237 82.6843 52.0677 82.843C52.0141 83.0017 51.9406 83.1533 51.8472 83.298C51.7562 83.4427 51.6489 83.5827 51.5252 83.718C51.4016 83.8533 51.2721 83.991 51.1367 84.131L49.9957 85.2965C50.1077 85.2638 50.2174 85.2393 50.3247 85.223C50.4321 85.2043 50.5347 85.195 50.6327 85.195H51.9312C52.0246 85.195 52.0981 85.2218 52.1517 85.2755C52.2077 85.3268 52.2357 85.3957 52.2357 85.482V86H48.7637V85.713C48.7637 85.6547 48.7754 85.594 48.7987 85.531C48.8244 85.468 48.8641 85.4097 48.9177 85.356L50.4542 83.816C50.5826 83.6853 50.6969 83.5605 50.7972 83.4415C50.8999 83.3225 50.9851 83.2047 51.0527 83.088C51.1227 82.9713 51.1752 82.8535 51.2102 82.7345C51.2476 82.6132 51.2662 82.486 51.2662 82.353C51.2662 82.2317 51.2487 82.1255 51.2137 82.0345C51.1787 81.9412 51.1286 81.863 51.0632 81.8C50.9979 81.737 50.9197 81.6903 50.8287 81.66C50.7401 81.6273 50.6397 81.611 50.5277 81.611C50.3201 81.611 50.1486 81.6635 50.0132 81.7685C49.8802 81.8735 49.7869 82.0147 49.7332 82.192C49.7076 82.2807 49.6691 82.3448 49.6177 82.3845C49.5664 82.4218 49.5011 82.4405 49.4217 82.4405C49.3867 82.4405 49.3482 82.437 49.3062 82.43L48.8512 82.3495C48.8862 82.1068 48.9539 81.8945 49.0542 81.7125C49.1546 81.5282 49.2794 81.3753 49.4287 81.254C49.5804 81.1303 49.7531 81.0382 49.9467 80.9775C50.1427 80.9145 50.3527 80.883 50.5767 80.883Z" fill="white"/>
<path d="M82.6572 80.883C82.8906 80.883 83.1006 80.9168 83.2872 80.9845C83.4762 81.0498 83.6372 81.142 83.7702 81.261C83.9032 81.3777 84.0047 81.5153 84.0747 81.674C84.1471 81.8327 84.1832 82.0042 84.1832 82.1885C84.1832 82.3495 84.1646 82.4918 84.1272 82.6155C84.0922 82.7368 84.0397 82.843 83.9697 82.934C83.9021 83.025 83.8181 83.102 83.7177 83.165C83.6197 83.228 83.5077 83.2805 83.3817 83.3225C83.6851 83.4182 83.9114 83.564 84.0607 83.76C84.2101 83.956 84.2847 84.2022 84.2847 84.4985C84.2847 84.7505 84.2381 84.9733 84.1447 85.167C84.0514 85.3607 83.9254 85.524 83.7667 85.657C83.6081 85.7877 83.4237 85.8868 83.2137 85.9545C83.0061 86.0222 82.7856 86.056 82.5522 86.056C82.2979 86.056 82.0762 86.0268 81.8872 85.9685C81.6982 85.9102 81.5337 85.8238 81.3937 85.7095C81.2537 85.5952 81.1347 85.4552 81.0367 85.2895C80.9387 85.1238 80.8547 84.9325 80.7847 84.7155L81.1662 84.558C81.2316 84.53 81.2981 84.516 81.3657 84.516C81.4264 84.516 81.4801 84.5288 81.5267 84.5545C81.5757 84.5802 81.6131 84.6175 81.6387 84.6665C81.6807 84.7482 81.7262 84.8287 81.7752 84.908C81.8266 84.9873 81.8872 85.0585 81.9572 85.1215C82.0272 85.1822 82.1089 85.2323 82.2022 85.272C82.2979 85.3093 82.4111 85.328 82.5417 85.328C82.6887 85.328 82.8171 85.3047 82.9267 85.258C83.0364 85.209 83.1274 85.146 83.1997 85.069C83.2744 84.992 83.3292 84.9068 83.3642 84.8135C83.4016 84.7178 83.4202 84.6222 83.4202 84.5265C83.4202 84.4052 83.4074 84.2955 83.3817 84.1975C83.3561 84.0972 83.3024 84.012 83.2207 83.942C83.1391 83.872 83.0212 83.8172 82.8672 83.7775C82.7156 83.7378 82.5114 83.718 82.2547 83.718V83.102C82.4671 83.0997 82.6432 83.0798 82.7832 83.0425C82.9232 83.0052 83.0341 82.9538 83.1157 82.8885C83.1997 82.8208 83.2581 82.7403 83.2907 82.647C83.3234 82.5537 83.3397 82.451 83.3397 82.339C83.3397 82.0987 83.2744 81.9178 83.1437 81.7965C83.0131 81.6728 82.8346 81.611 82.6082 81.611C82.4029 81.611 82.2326 81.6658 82.0972 81.7755C81.9619 81.8828 81.8674 82.0217 81.8137 82.192C81.7857 82.2807 81.7472 82.3448 81.6982 82.3845C81.6492 82.4218 81.5851 82.4405 81.5057 82.4405C81.4684 82.4405 81.4287 82.437 81.3867 82.43L80.9317 82.3495C80.9667 82.1068 81.0344 81.8945 81.1347 81.7125C81.2351 81.5282 81.3599 81.3753 81.5092 81.254C81.6609 81.1303 81.8336 81.0382 82.0272 80.9775C82.2232 80.9145 82.4332 80.883 82.6572 80.883Z" fill="white"/>
<path d="M112.359 80.939C112.401 80.939 112.436 80.9413 112.464 80.946C112.492 80.9483 112.516 80.9553 112.537 80.967C112.561 80.9763 112.583 80.9915 112.604 81.0125C112.625 81.0312 112.648 81.0568 112.674 81.0895L115.33 84.474C115.321 84.3923 115.314 84.313 115.309 84.236C115.307 84.1567 115.306 84.0832 115.306 84.0155V80.939H116.135V86H115.649C115.574 86 115.512 85.9883 115.463 85.965C115.414 85.9417 115.367 85.8997 115.32 85.839L112.674 82.4685C112.681 82.5432 112.686 82.6178 112.688 82.6925C112.693 82.7648 112.695 82.8313 112.695 82.892V86H111.865V80.939H112.359Z" fill="white"/>
<g opacity="0.5">
<path d="M34.5 76.5C37.2614 76.5 39.5 74.2614 39.5 71.5C39.5 68.7386 37.2614 66.5 34.5 66.5C31.7386 66.5 29.5 68.7386 29.5 71.5C29.5 74.2614 31.7386 76.5 34.5 76.5Z" stroke="#7432FF"/>
<path d="M36.4444 68.4948L37.505 69.5555L35.5591 71.5014L37.5042 73.4438L36.4444 74.5052L34.4984 72.5621L32.5553 74.5052L31.4946 73.4446L33.437 71.5022L31.4917 69.5598L32.5516 68.4983L34.4976 70.4415L36.4444 68.4948Z" fill="#EEEEEE"/>
</g>
<g opacity="0.5">
<path d="M66.5 76.5C69.2614 76.5 71.5 74.2614 71.5 71.5C71.5 68.7386 69.2614 66.5 66.5 66.5C63.7386 66.5 61.5 68.7386 61.5 71.5C61.5 74.2614 63.7386 76.5 66.5 76.5Z" stroke="#7432FF"/>
<path d="M68.4444 68.4948L69.505 69.5555L67.5591 71.5014L69.5042 73.4438L68.4444 74.5052L66.4984 72.5621L64.5553 74.5052L63.4946 73.4446L65.437 71.5022L63.4917 69.5598L64.5516 68.4983L66.4976 70.4415L68.4444 68.4948Z" fill="#EEEEEE"/>
</g>
<path fill-rule="evenodd" clip-rule="evenodd" d="M82 64L80 64L82.5 60L85 64L83 64L82 64Z" fill="#7432FF"/>
<path d="M82 78L82 63.5L83 63.5L83 78L82 78Z" fill="#7432FF"/>
<g opacity="0.5">
<path fill-rule="evenodd" clip-rule="evenodd" d="M113.5 64L111.5 64L114 60L116.5 64L114.5 64L113.5 64Z" fill="#7432FF"/>
<path d="M113.5 78L113.5 63.5L114.5 63.5L114.5 78L113.5 78Z" fill="#7432FF"/>
</g>
<path fill-rule="evenodd" clip-rule="evenodd" d="M50 64L48 64L50.5 60L53 64L51 64L50 64Z" fill="#7432FF"/>
<path d="M50 78L50 63.5L51 63.5L51 78L50 78Z" fill="#7432FF"/>
<path fill-rule="evenodd" clip-rule="evenodd" d="M18 64L16 64L18.5 60L21 64L19 64L18 64Z" fill="#7432FF"/>
<path d="M18 78L18 63.5L19 63.5L19 78L18 78Z" fill="#7432FF"/>
<g opacity="0.5">
<path fill-rule="evenodd" clip-rule="evenodd" d="M34 64L32 64L34.5 60L37 64L35 64L34 64Z" fill="#7432FF"/>
<path d="M34 66L34 63.5L35 63.5L35 66L34 66Z" fill="#7432FF"/>
</g>
<g opacity="0.5">
<path fill-rule="evenodd" clip-rule="evenodd" d="M66 64L64 64L66.5 60L69 64L67 64L66 64Z" fill="#7432FF"/>
<path d="M66 66L66 63.5L67 63.5L67 66L66 66Z" fill="#7432FF"/>
</g>
<g opacity="0.5">
<path fill-rule="evenodd" clip-rule="evenodd" d="M45 72L45 74L41 71.5L45 69L45 71L45 72Z" fill="#7432FF"/>
<path d="M50 72L44.5 72L44.5 71L50 71L50 72Z" fill="#7432FF"/>
</g>
<g opacity="0.5">
<path fill-rule="evenodd" clip-rule="evenodd" d="M77 72L77 74L73 71.5L77 69L77 71L77 72Z" fill="#7432FF"/>
<path d="M82 72L76.5 72L76.5 71L82 71L82 72Z" fill="#7432FF"/>
</g>
<path fill-rule="evenodd" clip-rule="evenodd" d="M29 84L29 86L25 83.5L29 81L29 83L29 84Z" fill="#7432FF"/>
<path d="M45 84L28.5 84L28.5 83L45 83L45 84Z" fill="#7432FF"/>
<g opacity="0.5">
<path fill-rule="evenodd" clip-rule="evenodd" d="M24 71L24 69L28 71.5L24 74L24 72L24 71Z" fill="#7432FF"/>
<path d="M19 71L24.5 71L24.5 72L19 72L19 71Z" fill="#7432FF"/>
</g>
<g opacity="0.5">
<path fill-rule="evenodd" clip-rule="evenodd" d="M56 71L56 69L60 71.5L56 74L56 72L56 71Z" fill="#7432FF"/>
<path d="M51 71L56.5 71L56.5 72L51 72L51 71Z" fill="#7432FF"/>
</g>
<path d="M1.5 96.5C1.5 95.3954 2.39543 94.5 3.5 94.5H129.5C130.605 94.5 131.5 95.3954 131.5 96.5V101.5C131.5 102.605 130.605 103.5 129.5 103.5H3.5C2.39543 103.5 1.5 102.605 1.5 101.5V96.5Z" fill="#242424"/>
<path d="M11.9319 96.4005V101.5H11.3159C11.2249 101.5 11.1479 101.486 11.0849 101.458C11.0242 101.428 10.9635 101.376 10.9029 101.304L8.49837 98.2625C8.5077 98.3535 8.51353 98.4422 8.51587 98.5285C8.52053 98.6125 8.52287 98.6918 8.52287 98.7665V101.5H7.47987V96.4005H8.10287C8.1542 96.4005 8.19737 96.4028 8.23237 96.4075C8.26737 96.4122 8.29887 96.4215 8.32687 96.4355C8.35487 96.4472 8.3817 96.4647 8.40737 96.488C8.43303 96.5113 8.4622 96.5428 8.49487 96.5825L10.9204 99.645C10.9087 99.547 10.9005 99.4525 10.8959 99.3615C10.8912 99.2682 10.8889 99.1807 10.8889 99.099V96.4005H11.9319ZM17.8213 98.9485C17.8213 99.3172 17.7571 99.6602 17.6288 99.9775C17.5028 100.295 17.3243 100.571 17.0933 100.807C16.8623 101.04 16.5834 101.223 16.2568 101.356C15.9324 101.49 15.5719 101.556 15.1753 101.556C14.7786 101.556 14.4169 101.49 14.0903 101.356C13.7636 101.223 13.4836 101.04 13.2503 100.807C13.0193 100.571 12.8396 100.295 12.7113 99.9775C12.5853 99.6602 12.5223 99.3172 12.5223 98.9485C12.5223 98.5798 12.5853 98.2368 12.7113 97.9195C12.8396 97.6022 13.0193 97.3268 13.2503 97.0935C13.4836 96.8602 13.7636 96.677 14.0903 96.544C14.4169 96.411 14.7786 96.3445 15.1753 96.3445C15.5719 96.3445 15.9324 96.4122 16.2568 96.5475C16.5834 96.6805 16.8623 96.8637 17.0933 97.097C17.3243 97.3303 17.5028 97.6057 17.6288 97.923C17.7571 98.2403 17.8213 98.5822 17.8213 98.9485ZM16.6103 98.9485C16.6103 98.6965 16.5776 98.4702 16.5123 98.2695C16.4469 98.0665 16.3524 97.895 16.2288 97.755C16.1074 97.615 15.9581 97.5077 15.7808 97.433C15.6034 97.3583 15.4016 97.321 15.1753 97.321C14.9466 97.321 14.7424 97.3583 14.5628 97.433C14.3854 97.5077 14.2349 97.615 14.1113 97.755C13.9899 97.895 13.8966 98.0665 13.8313 98.2695C13.7659 98.4702 13.7333 98.6965 13.7333 98.9485C13.7333 99.2028 13.7659 99.4315 13.8313 99.6345C13.8966 99.8352 13.9899 100.005 14.1113 100.145C14.2349 100.285 14.3854 100.393 14.5628 100.467C14.7424 100.54 14.9466 100.576 15.1753 100.576C15.4016 100.576 15.6034 100.54 15.7808 100.467C15.9581 100.393 16.1074 100.285 16.2288 100.145C16.3524 100.005 16.4469 99.8352 16.5123 99.6345C16.5776 99.4315 16.6103 99.2028 16.6103 98.9485ZM21.1176 97.3105V98.602H22.8606V99.5155H21.1176V101.5H19.9276V96.4005H23.2106V97.3105H21.1176ZM29.5204 96.4005V101.5H28.4774V98.567C28.4774 98.4993 28.4786 98.4258 28.4809 98.3465C28.4856 98.2672 28.4926 98.1867 28.5019 98.105L27.1474 100.726C27.1054 100.808 27.0482 100.87 26.9759 100.912C26.9059 100.954 26.8254 100.975 26.7344 100.975H26.5734C26.4824 100.975 26.4007 100.954 26.3284 100.912C26.2584 100.87 26.2024 100.808 26.1604 100.726L24.8059 98.098C24.8129 98.182 24.8187 98.2648 24.8234 98.3465C24.8281 98.4258 24.8304 98.4993 24.8304 98.567V101.5H23.7874V96.4005H24.6904C24.7417 96.4005 24.7861 96.4017 24.8234 96.404C24.8631 96.4063 24.8981 96.4133 24.9284 96.425C24.9587 96.4367 24.9856 96.4553 25.0089 96.481C25.0346 96.5043 25.0591 96.5382 25.0824 96.5825L26.3949 99.169C26.4416 99.2577 26.4859 99.3498 26.5279 99.4455C26.5722 99.5412 26.6142 99.6392 26.6539 99.7395C26.6936 99.6368 26.7344 99.5365 26.7764 99.4385C26.8207 99.3405 26.8674 99.2472 26.9164 99.1585L28.2254 96.5825C28.2487 96.5382 28.2721 96.5043 28.2954 96.481C28.3211 96.4553 28.3491 96.4367 28.3794 96.425C28.4097 96.4133 28.4436 96.4063 28.4809 96.404C28.5206 96.4017 28.5661 96.4005 28.6174 96.4005H29.5204Z" fill="#B4B4B4"/>
<rect x="35.5115" y="96" width="30" height="6" rx="1" fill="#7432FF"/>
<rect x="35.5115" y="96" width="30" height="6" rx="1" stroke="#7432FF"/>
<path d="M47.6468 100.52C47.7634 100.52 47.8556 100.553 47.9233 100.618C47.9909 100.681 48.0248 100.765 48.0248 100.87V101.5H44.4408V101.15C44.4408 101.082 44.4548 101.01 44.4828 100.933C44.5108 100.856 44.5598 100.786 44.6298 100.723L46.0998 99.2425C46.2258 99.1165 46.3354 98.9963 46.4288 98.882C46.5221 98.7677 46.5991 98.6557 46.6598 98.546C46.7204 98.434 46.7659 98.3232 46.7963 98.2135C46.8266 98.1015 46.8418 97.9837 46.8418 97.86C46.8418 97.657 46.7928 97.5018 46.6948 97.3945C46.5991 97.2848 46.4521 97.23 46.2538 97.23C46.0928 97.23 45.9563 97.2732 45.8443 97.3595C45.7346 97.4435 45.6588 97.5485 45.6168 97.6745C45.5678 97.8028 45.5036 97.888 45.4243 97.93C45.3449 97.972 45.2318 97.9813 45.0848 97.958L44.5108 97.8565C44.5481 97.6022 44.6193 97.3805 44.7243 97.1915C44.8316 97.0025 44.9634 96.845 45.1198 96.719C45.2784 96.593 45.4593 96.4997 45.6623 96.439C45.8653 96.376 46.0834 96.3445 46.3168 96.3445C46.5688 96.3445 46.7951 96.3818 46.9958 96.4565C47.1988 96.5288 47.3714 96.6303 47.5138 96.761C47.6561 96.8917 47.7646 97.048 47.8393 97.23C47.9163 97.4097 47.9548 97.608 47.9548 97.825C47.9548 98.0117 47.9279 98.1843 47.8743 98.343C47.8229 98.5017 47.7518 98.6533 47.6608 98.798C47.5698 98.9403 47.4636 99.0792 47.3423 99.2145C47.2233 99.3475 47.0961 99.4828 46.9608 99.6205L45.9633 100.642C46.0916 100.603 46.2188 100.572 46.3448 100.551C46.4708 100.53 46.5874 100.52 46.6948 100.52H47.6468ZM56.4102 100.716V101.5H53.5052V100.716H54.4852V98.1435C54.4852 98.0782 54.4863 98.0128 54.4887 97.9475C54.491 97.8798 54.4945 97.8122 54.4992 97.7445L53.9182 98.2275C53.8668 98.2672 53.8155 98.2917 53.7642 98.301C53.7152 98.308 53.6685 98.308 53.6242 98.301C53.5798 98.2917 53.5402 98.2765 53.5052 98.2555C53.4702 98.2322 53.4445 98.2088 53.4282 98.1855L53.0852 97.7305L54.6742 96.397H55.5702V100.716H56.4102Z" fill="white"/>
<path d="M52.3865 99L49.574 101.143L49.574 96.8572L52.3865 99Z" fill="white"/>
<path d="M70.7732 97.8565C70.8105 97.6022 70.8817 97.3805 70.9867 97.1915C71.094 97.0025 71.2259 96.845 71.3822 96.719C71.5409 96.593 71.7217 96.4997 71.9247 96.439C72.1277 96.376 72.3459 96.3445 72.5792 96.3445C72.8312 96.3445 73.0552 96.3807 73.2512 96.453C73.4472 96.523 73.6129 96.6187 73.7482 96.74C73.8835 96.8613 73.9862 97.0025 74.0562 97.1635C74.1262 97.3222 74.1612 97.4902 74.1612 97.6675C74.1612 97.8285 74.1449 97.9708 74.1122 98.0945C74.0795 98.2158 74.0305 98.322 73.9652 98.413C73.9022 98.5017 73.8229 98.5775 73.7272 98.6405C73.6339 98.7012 73.5265 98.7525 73.4052 98.7945C73.9699 98.9928 74.2522 99.3778 74.2522 99.9495C74.2522 100.22 74.2032 100.456 74.1052 100.656C74.0072 100.857 73.8754 101.024 73.7097 101.157C73.5464 101.29 73.3562 101.39 73.1392 101.458C72.9222 101.523 72.6959 101.556 72.4602 101.556C72.2175 101.556 72.0017 101.53 71.8127 101.479C71.6237 101.425 71.4557 101.344 71.3087 101.234C71.1617 101.122 71.0322 100.98 70.9202 100.807C70.8105 100.634 70.7149 100.429 70.6332 100.191L71.1162 99.995C71.2422 99.946 71.3589 99.9332 71.4662 99.9565C71.5735 99.9798 71.6505 100.033 71.6972 100.117C71.8022 100.311 71.913 100.452 72.0297 100.541C72.1487 100.627 72.2875 100.67 72.4462 100.67C72.5675 100.67 72.6725 100.651 72.7612 100.611C72.8522 100.569 72.9269 100.516 72.9852 100.453C73.0459 100.388 73.0914 100.315 73.1217 100.233C73.152 100.151 73.1672 100.068 73.1672 99.9845C73.1672 99.8748 73.159 99.7768 73.1427 99.6905C73.1287 99.6018 73.0867 99.526 73.0167 99.463C72.9467 99.4 72.8405 99.3522 72.6982 99.3195C72.5582 99.2845 72.3622 99.267 72.1102 99.267V98.518C72.3225 98.518 72.494 98.5017 72.6247 98.469C72.7554 98.4363 72.8557 98.392 72.9257 98.336C72.998 98.2777 73.0459 98.2077 73.0692 98.126C73.0925 98.0443 73.1042 97.9545 73.1042 97.8565C73.1042 97.6558 73.0552 97.5018 72.9572 97.3945C72.8615 97.2848 72.7145 97.23 72.5162 97.23C72.3552 97.23 72.2187 97.2732 72.1067 97.3595C71.997 97.4435 71.9212 97.5485 71.8792 97.6745C71.8302 97.8028 71.766 97.888 71.6867 97.93C71.6074 97.972 71.4942 97.9813 71.3472 97.958L70.7732 97.8565ZM83.8972 100.52C84.0139 100.52 84.106 100.553 84.1737 100.618C84.2414 100.681 84.2752 100.765 84.2752 100.87V101.5H80.6912V101.15C80.6912 101.082 80.7052 101.01 80.7332 100.933C80.7612 100.856 80.8102 100.786 80.8802 100.723L82.3502 99.2425C82.4762 99.1165 82.5859 98.9963 82.6792 98.882C82.7725 98.7677 82.8495 98.6557 82.9102 98.546C82.9709 98.434 83.0164 98.3232 83.0467 98.2135C83.077 98.1015 83.0922 97.9837 83.0922 97.86C83.0922 97.657 83.0432 97.5018 82.9452 97.3945C82.8495 97.2848 82.7025 97.23 82.5042 97.23C82.3432 97.23 82.2067 97.2732 82.0947 97.3595C81.985 97.4435 81.9092 97.5485 81.8672 97.6745C81.8182 97.8028 81.754 97.888 81.6747 97.93C81.5954 97.972 81.4822 97.9813 81.3352 97.958L80.7612 97.8565C80.7985 97.6022 80.8697 97.3805 80.9747 97.1915C81.082 97.0025 81.2139 96.845 81.3702 96.719C81.5289 96.593 81.7097 96.4997 81.9127 96.439C82.1157 96.376 82.3339 96.3445 82.5672 96.3445C82.8192 96.3445 83.0455 96.3818 83.2462 96.4565C83.4492 96.5288 83.6219 96.6303 83.7642 96.761C83.9065 96.8917 84.015 97.048 84.0897 97.23C84.1667 97.4097 84.2052 97.608 84.2052 97.825C84.2052 98.0117 84.1784 98.1843 84.1247 98.343C84.0734 98.5017 84.0022 98.6533 83.9112 98.798C83.8202 98.9403 83.714 99.0792 83.5927 99.2145C83.4737 99.3475 83.3465 99.4828 83.2112 99.6205L82.2137 100.642C82.342 100.603 82.4692 100.572 82.5952 100.551C82.7212 100.53 82.8379 100.52 82.9452 100.52H83.8972ZM94.1757 100.716V101.5H91.2707V100.716H92.2507V98.1435C92.2507 98.0782 92.2519 98.0128 92.2542 97.9475C92.2566 97.8798 92.2601 97.8122 92.2647 97.7445L91.6837 98.2275C91.6324 98.2672 91.5811 98.2917 91.5297 98.301C91.4807 98.308 91.4341 98.308 91.3897 98.301C91.3454 98.2917 91.3057 98.2765 91.2707 98.2555C91.2357 98.2322 91.2101 98.2088 91.1937 98.1855L90.8507 97.7305L92.4397 96.397H93.3357V100.716H94.1757Z" fill="#B4B4B4"/>
<path d="M78.7615 99L75.949 101.143L75.949 96.8572L78.7615 99Z" fill="#B4B4B4"/>
<path d="M89.074 99L86.2615 101.143L86.2615 96.8572L89.074 99Z" fill="#B4B4B4"/>
<path d="M105.881 100.52C105.998 100.52 106.09 100.553 106.158 100.618C106.225 100.681 106.259 100.765 106.259 100.87V101.5H102.675V101.15C102.675 101.082 102.689 101.01 102.717 100.933C102.745 100.856 102.794 100.786 102.864 100.723L104.334 99.2425C104.46 99.1165 104.57 98.9963 104.663 98.882C104.757 98.7677 104.834 98.6557 104.894 98.546C104.955 98.434 105 98.3232 105.031 98.2135C105.061 98.1015 105.076 97.9837 105.076 97.86C105.076 97.657 105.027 97.5018 104.929 97.3945C104.834 97.2848 104.687 97.23 104.488 97.23C104.327 97.23 104.191 97.2732 104.079 97.3595C103.969 97.4435 103.893 97.5485 103.851 97.6745C103.802 97.8028 103.738 97.888 103.659 97.93C103.579 97.972 103.466 97.9813 103.319 97.958L102.745 97.8565C102.783 97.6022 102.854 97.3805 102.959 97.1915C103.066 97.0025 103.198 96.845 103.354 96.719C103.513 96.593 103.694 96.4997 103.897 96.439C104.1 96.376 104.318 96.3445 104.551 96.3445C104.803 96.3445 105.03 96.3818 105.23 96.4565C105.433 96.5288 105.606 96.6303 105.748 96.761C105.891 96.8917 105.999 97.048 106.074 97.23C106.151 97.4097 106.189 97.608 106.189 97.825C106.189 98.0117 106.162 98.1843 106.109 98.343C106.057 98.5017 105.986 98.6533 105.895 98.798C105.804 98.9403 105.698 99.0792 105.577 99.2145C105.458 99.3475 105.331 99.4828 105.195 99.6205L104.198 100.642C104.326 100.603 104.453 100.572 104.579 100.551C104.705 100.53 104.822 100.52 104.929 100.52H105.881ZM116.16 100.716V101.5H113.255V100.716H114.235V98.1435C114.235 98.0782 114.236 98.0128 114.238 97.9475C114.241 97.8798 114.244 97.8122 114.249 97.7445L113.668 98.2275C113.616 98.2672 113.565 98.2917 113.514 98.301C113.465 98.308 113.418 98.308 113.374 98.301C113.329 98.2917 113.29 98.2765 113.255 98.2555C113.22 98.2322 113.194 98.2088 113.178 98.1855L112.835 97.7305L114.424 96.397H115.32V100.716H116.16ZM122.805 97.8565C122.843 97.6022 122.914 97.3805 123.019 97.1915C123.126 97.0025 123.258 96.845 123.414 96.719C123.573 96.593 123.754 96.4997 123.957 96.439C124.16 96.376 124.378 96.3445 124.611 96.3445C124.863 96.3445 125.087 96.3807 125.283 96.453C125.479 96.523 125.645 96.6187 125.78 96.74C125.916 96.8613 126.018 97.0025 126.088 97.1635C126.158 97.3222 126.193 97.4902 126.193 97.6675C126.193 97.8285 126.177 97.9708 126.144 98.0945C126.112 98.2158 126.063 98.322 125.997 98.413C125.934 98.5017 125.855 98.5775 125.759 98.6405C125.666 98.7012 125.559 98.7525 125.437 98.7945C126.002 98.9928 126.284 99.3778 126.284 99.9495C126.284 100.22 126.235 100.456 126.137 100.656C126.039 100.857 125.907 101.024 125.742 101.157C125.578 101.29 125.388 101.39 125.171 101.458C124.954 101.523 124.728 101.556 124.492 101.556C124.25 101.556 124.034 101.53 123.845 101.479C123.656 101.425 123.488 101.344 123.341 101.234C123.194 101.122 123.064 100.98 122.952 100.807C122.843 100.634 122.747 100.429 122.665 100.191L123.148 99.995C123.274 99.946 123.391 99.9332 123.498 99.9565C123.606 99.9798 123.683 100.033 123.729 100.117C123.834 100.311 123.945 100.452 124.062 100.541C124.181 100.627 124.32 100.67 124.478 100.67C124.6 100.67 124.705 100.651 124.793 100.611C124.884 100.569 124.959 100.516 125.017 100.453C125.078 100.388 125.123 100.315 125.154 100.233C125.184 100.151 125.199 100.068 125.199 99.9845C125.199 99.8748 125.191 99.7768 125.175 99.6905C125.161 99.6018 125.119 99.526 125.049 99.463C124.979 99.4 124.873 99.3522 124.73 99.3195C124.59 99.2845 124.394 99.267 124.142 99.267V98.518C124.355 98.518 124.526 98.5017 124.657 98.469C124.787 98.4363 124.888 98.392 124.958 98.336C125.03 98.2777 125.078 98.2077 125.101 98.126C125.125 98.0443 125.136 97.9545 125.136 97.8565C125.136 97.6558 125.087 97.5018 124.989 97.3945C124.894 97.2848 124.747 97.23 124.548 97.23C124.387 97.23 124.251 97.2732 124.139 97.3595C124.029 97.4435 123.953 97.5485 123.911 97.6745C123.862 97.8028 123.798 97.888 123.719 97.93C123.639 97.972 123.526 97.9813 123.379 97.958L122.805 97.8565Z" fill="#B4B4B4"/>
<path d="M110.761 99L107.949 101.143L107.949 96.8572L110.761 99Z" fill="#B4B4B4"/>
<path d="M118.261 99L121.074 96.8571L121.074 101.143L118.261 99Z" fill="#B4B4B4"/>
<path d="M3.5 95H129.5V94H3.5V95ZM131 96.5V101.5H132V96.5H131ZM129.5 103H3.5V104H129.5V103ZM2 101.5V96.5H1V101.5H2ZM3.5 103C2.67157 103 2 102.328 2 101.5H1C1 102.881 2.11929 104 3.5 104V103ZM131 101.5C131 102.328 130.328 103 129.5 103V104C130.881 104 132 102.881 132 101.5H131ZM129.5 95C130.328 95 131 95.6716 131 96.5H132C132 95.1193 130.881 94 129.5 94V95ZM3.5 94C2.11929 94 1 95.1193 1 96.5H2C2 95.6716 2.67157 95 3.5 95V94Z" fill="black"/>
<path fill-rule="evenodd" clip-rule="evenodd" d="M1 4V7H121V15H128V17L132 14.5L128 12V14H123V4H1Z" fill="#7432FF"/>
<rect x="13.5" y="26.5" width="10" height="10" rx="2" stroke="#7432FF"/>
<rect x="45.5" y="26.5" width="10" height="10" rx="2" stroke="#7432FF"/>
<rect x="77.5" y="26.5" width="10" height="10" rx="2" stroke="#7432FF"/>
<path opacity="0.5" d="M117 26.5H111C109.895 26.5 109 27.3954 109 28.5V34.5C109 35.6046 109.895 36.5 111 36.5H117C118.105 36.5 119 35.6046 119 34.5V28.5C119 27.3954 118.105 26.5 117 26.5Z" stroke="#7432FF"/>
<path d="M17.4112 33.3525H18.4367V30.402C18.4367 30.2877 18.4402 30.1675 18.4472 30.0415L17.7192 30.6505C17.6889 30.6762 17.6574 30.6937 17.6247 30.703C17.5944 30.7123 17.5641 30.717 17.5337 30.717C17.4871 30.717 17.4439 30.7077 17.4042 30.689C17.3669 30.668 17.3389 30.6447 17.3202 30.619L17.0472 30.2445L18.5907 28.932H19.3012V33.3525H20.2112V34H17.4112V33.3525Z" fill="white"/>
<path d="M50.5767 28.883C50.8101 28.883 51.0236 28.918 51.2172 28.988C51.4109 29.0557 51.5766 29.1525 51.7142 29.2785C51.8519 29.4045 51.9592 29.5562 52.0362 29.7335C52.1132 29.9108 52.1517 30.108 52.1517 30.325C52.1517 30.5117 52.1237 30.6843 52.0677 30.843C52.0141 31.0017 51.9406 31.1533 51.8472 31.298C51.7562 31.4427 51.6489 31.5827 51.5252 31.718C51.4016 31.8533 51.2721 31.991 51.1367 32.131L49.9957 33.2965C50.1077 33.2638 50.2174 33.2393 50.3247 33.223C50.4321 33.2043 50.5347 33.195 50.6327 33.195H51.9312C52.0246 33.195 52.0981 33.2218 52.1517 33.2755C52.2077 33.3268 52.2357 33.3957 52.2357 33.482V34H48.7637V33.713C48.7637 33.6547 48.7754 33.594 48.7987 33.531C48.8244 33.468 48.8641 33.4097 48.9177 33.356L50.4542 31.816C50.5826 31.6853 50.6969 31.5605 50.7972 31.4415C50.8999 31.3225 50.9851 31.2047 51.0527 31.088C51.1227 30.9713 51.1752 30.8535 51.2102 30.7345C51.2476 30.6132 51.2662 30.486 51.2662 30.353C51.2662 30.2317 51.2487 30.1255 51.2137 30.0345C51.1787 29.9412 51.1286 29.863 51.0632 29.8C50.9979 29.737 50.9197 29.6903 50.8287 29.66C50.7401 29.6273 50.6397 29.611 50.5277 29.611C50.3201 29.611 50.1486 29.6635 50.0132 29.7685C49.8802 29.8735 49.7869 30.0147 49.7332 30.192C49.7076 30.2807 49.6691 30.3448 49.6177 30.3845C49.5664 30.4218 49.5011 30.4405 49.4217 30.4405C49.3867 30.4405 49.3482 30.437 49.3062 30.43L48.8512 30.3495C48.8862 30.1068 48.9539 29.8945 49.0542 29.7125C49.1546 29.5282 49.2794 29.3753 49.4287 29.254C49.5804 29.1303 49.7531 29.0382 49.9467 28.9775C50.1427 28.9145 50.3527 28.883 50.5767 28.883Z" fill="white"/>
<path d="M82.6572 28.883C82.8906 28.883 83.1006 28.9168 83.2872 28.9845C83.4762 29.0498 83.6372 29.142 83.7702 29.261C83.9032 29.3777 84.0047 29.5153 84.0747 29.674C84.1471 29.8327 84.1832 30.0042 84.1832 30.1885C84.1832 30.3495 84.1646 30.4918 84.1272 30.6155C84.0922 30.7368 84.0397 30.843 83.9697 30.934C83.9021 31.025 83.8181 31.102 83.7177 31.165C83.6197 31.228 83.5077 31.2805 83.3817 31.3225C83.6851 31.4182 83.9114 31.564 84.0607 31.76C84.2101 31.956 84.2847 32.2022 84.2847 32.4985C84.2847 32.7505 84.2381 32.9733 84.1447 33.167C84.0514 33.3607 83.9254 33.524 83.7667 33.657C83.6081 33.7877 83.4237 33.8868 83.2137 33.9545C83.0061 34.0222 82.7856 34.056 82.5522 34.056C82.2979 34.056 82.0762 34.0268 81.8872 33.9685C81.6982 33.9102 81.5337 33.8238 81.3937 33.7095C81.2537 33.5952 81.1347 33.4552 81.0367 33.2895C80.9387 33.1238 80.8547 32.9325 80.7847 32.7155L81.1662 32.558C81.2316 32.53 81.2981 32.516 81.3657 32.516C81.4264 32.516 81.4801 32.5288 81.5267 32.5545C81.5757 32.5802 81.6131 32.6175 81.6387 32.6665C81.6807 32.7482 81.7262 32.8287 81.7752 32.908C81.8266 32.9873 81.8872 33.0585 81.9572 33.1215C82.0272 33.1822 82.1089 33.2323 82.2022 33.272C82.2979 33.3093 82.4111 33.328 82.5417 33.328C82.6887 33.328 82.8171 33.3047 82.9267 33.258C83.0364 33.209 83.1274 33.146 83.1997 33.069C83.2744 32.992 83.3292 32.9068 83.3642 32.8135C83.4016 32.7178 83.4202 32.6222 83.4202 32.5265C83.4202 32.4052 83.4074 32.2955 83.3817 32.1975C83.3561 32.0972 83.3024 32.012 83.2207 31.942C83.1391 31.872 83.0212 31.8172 82.8672 31.7775C82.7156 31.7378 82.5114 31.718 82.2547 31.718V31.102C82.4671 31.0997 82.6432 31.0798 82.7832 31.0425C82.9232 31.0052 83.0341 30.9538 83.1157 30.8885C83.1997 30.8208 83.2581 30.7403 83.2907 30.647C83.3234 30.5537 83.3397 30.451 83.3397 30.339C83.3397 30.0987 83.2744 29.9178 83.1437 29.7965C83.0131 29.6728 82.8346 29.611 82.6082 29.611C82.4029 29.611 82.2326 29.6658 82.0972 29.7755C81.9619 29.8828 81.8674 30.0217 81.8137 30.192C81.7857 30.2807 81.7472 30.3448 81.6982 30.3845C81.6492 30.4218 81.5851 30.4405 81.5057 30.4405C81.4684 30.4405 81.4287 30.437 81.3867 30.43L80.9317 30.3495C80.9667 30.1068 81.0344 29.8945 81.1347 29.7125C81.2351 29.5282 81.3599 29.3753 81.5092 29.254C81.6609 29.1303 81.8336 29.0382 82.0272 28.9775C82.2232 28.9145 82.4332 28.883 82.6572 28.883Z" fill="white"/>
<path d="M112.359 28.939C112.401 28.939 112.436 28.9413 112.464 28.946C112.492 28.9483 112.516 28.9553 112.537 28.967C112.561 28.9763 112.583 28.9915 112.604 29.0125C112.625 29.0312 112.648 29.0568 112.674 29.0895L115.33 32.474C115.321 32.3923 115.314 32.313 115.309 32.236C115.307 32.1567 115.306 32.0832 115.306 32.0155V28.939H116.135V34H115.649C115.574 34 115.512 33.9883 115.463 33.965C115.414 33.9417 115.367 33.8997 115.32 33.839L112.674 30.4685C112.681 30.5432 112.686 30.6178 112.688 30.6925C112.693 30.7648 112.695 30.8313 112.695 30.892V34H111.865V28.939H112.359Z" fill="white"/>
<g opacity="0.5">
<path d="M34.5 24.5C37.2614 24.5 39.5 22.2614 39.5 19.5C39.5 16.7386 37.2614 14.5 34.5 14.5C31.7386 14.5 29.5 16.7386 29.5 19.5C29.5 22.2614 31.7386 24.5 34.5 24.5Z" stroke="#7432FF"/>
<path d="M36.4444 16.4948L37.505 17.5555L35.5591 19.5014L37.5042 21.4438L36.4444 22.5052L34.4984 20.5621L32.5553 22.5052L31.4946 21.4446L33.437 19.5022L31.4917 17.5598L32.5516 16.4983L34.4976 18.4415L36.4444 16.4948Z" fill="#EEEEEE"/>
</g>
<g opacity="0.5">
<path d="M66.5 24.5C69.2614 24.5 71.5 22.2614 71.5 19.5C71.5 16.7386 69.2614 14.5 66.5 14.5C63.7386 14.5 61.5 16.7386 61.5 19.5C61.5 22.2614 63.7386 24.5 66.5 24.5Z" stroke="#7432FF"/>
<path d="M68.4444 16.4948L69.505 17.5555L67.5591 19.5014L69.5042 21.4438L68.4444 22.5052L66.4984 20.5621L64.5553 22.5052L63.4946 21.4446L65.437 19.5022L63.4917 17.5598L64.5516 16.4983L66.4976 18.4415L68.4444 16.4948Z" fill="#EEEEEE"/>
</g>
<path fill-rule="evenodd" clip-rule="evenodd" d="M82 12L80 12L82.5 8L85 12L83 12L82 12Z" fill="#7432FF"/>
<path d="M82 26L82 11.5L83 11.5L83 26L82 26Z" fill="#7432FF"/>
<g opacity="0.5">
<path fill-rule="evenodd" clip-rule="evenodd" d="M113.5 12L111.5 12L114 8L116.5 12L114.5 12L113.5 12Z" fill="#7432FF"/>
<path d="M113.5 26L113.5 11.5L114.5 11.5L114.5 26L113.5 26Z" fill="#7432FF"/>
</g>
<path fill-rule="evenodd" clip-rule="evenodd" d="M50 12L48 12L50.5 8L53 12L51 12L50 12Z" fill="#7432FF"/>
<path d="M50 26L50 11.5L51 11.5L51 26L50 26Z" fill="#7432FF"/>
<path fill-rule="evenodd" clip-rule="evenodd" d="M18 12L16 12L18.5 8L21 12L19 12L18 12Z" fill="#7432FF"/>
<path d="M18 26L18 11.5L19 11.5L19 26L18 26Z" fill="#7432FF"/>
<g opacity="0.5">
<path fill-rule="evenodd" clip-rule="evenodd" d="M34 12L32 12L34.5 8L37 12L35 12L34 12Z" fill="#7432FF"/>
<path d="M34 14L34 11.5L35 11.5L35 14L34 14Z" fill="#7432FF"/>
</g>
<g opacity="0.5">
<path fill-rule="evenodd" clip-rule="evenodd" d="M66 12L64 12L66.5 8L69 12L67 12L66 12Z" fill="#7432FF"/>
<path d="M66 14L66 11.5L67 11.5L67 14L66 14Z" fill="#7432FF"/>
</g>
<g opacity="0.5">
<path fill-rule="evenodd" clip-rule="evenodd" d="M45 20L45 22L41 19.5L45 17L45 19L45 20Z" fill="#7432FF"/>
<path d="M50 20L44.5 20L44.5 19L50 19L50 20Z" fill="#7432FF"/>
</g>
<g opacity="0.5">
<path fill-rule="evenodd" clip-rule="evenodd" d="M77 20L77 22L73 19.5L77 17L77 19L77 20Z" fill="#7432FF"/>
<path d="M82 20L76.5 20L76.5 19L82 19L82 20Z" fill="#7432FF"/>
</g>
<g opacity="0.5">
<path fill-rule="evenodd" clip-rule="evenodd" d="M24 19L24 17L28 19.5L24 22L24 20L24 19Z" fill="#7432FF"/>
<path d="M19 19L24.5 19L24.5 20L19 20L19 19Z" fill="#7432FF"/>
</g>
<g opacity="0.5">
<path fill-rule="evenodd" clip-rule="evenodd" d="M56 19L56 17L60 19.5L56 22L56 20L56 19Z" fill="#7432FF"/>
<path d="M51 19L56.5 19L56.5 20L51 20L51 19Z" fill="#7432FF"/>
</g>
<path d="M1.5 44.5C1.5 43.3954 2.39543 42.5 3.5 42.5H129.5C130.605 42.5 131.5 43.3954 131.5 44.5V49.5C131.5 50.6046 130.605 51.5 129.5 51.5H3.5C2.39543 51.5 1.5 50.6046 1.5 49.5V44.5Z" fill="#242424"/>
<rect x="3.5" y="44" width="30" height="6" rx="1" fill="#7432FF"/>
<rect x="3.5" y="44" width="30" height="6" rx="1" stroke="#7432FF"/>
<path d="M11.9319 44.4005V49.5H11.3159C11.2249 49.5 11.1479 49.486 11.0849 49.458C11.0242 49.4277 10.9635 49.3763 10.9029 49.304L8.49837 46.2625C8.5077 46.3535 8.51353 46.4422 8.51587 46.5285C8.52053 46.6125 8.52287 46.6918 8.52287 46.7665V49.5H7.47987V44.4005H8.10287C8.1542 44.4005 8.19737 44.4028 8.23237 44.4075C8.26737 44.4122 8.29887 44.4215 8.32687 44.4355C8.35487 44.4472 8.3817 44.4647 8.40737 44.488C8.43303 44.5113 8.4622 44.5428 8.49487 44.5825L10.9204 47.645C10.9087 47.547 10.9005 47.4525 10.8959 47.3615C10.8912 47.2682 10.8889 47.1807 10.8889 47.099V44.4005H11.9319ZM17.8213 46.9485C17.8213 47.3172 17.7571 47.6602 17.6288 47.9775C17.5028 48.2948 17.3243 48.5713 17.0933 48.807C16.8623 49.0403 16.5834 49.2235 16.2568 49.3565C15.9324 49.4895 15.5719 49.556 15.1753 49.556C14.7786 49.556 14.4169 49.4895 14.0903 49.3565C13.7636 49.2235 13.4836 49.0403 13.2503 48.807C13.0193 48.5713 12.8396 48.2948 12.7113 47.9775C12.5853 47.6602 12.5223 47.3172 12.5223 46.9485C12.5223 46.5798 12.5853 46.2368 12.7113 45.9195C12.8396 45.6022 13.0193 45.3268 13.2503 45.0935C13.4836 44.8602 13.7636 44.677 14.0903 44.544C14.4169 44.411 14.7786 44.3445 15.1753 44.3445C15.5719 44.3445 15.9324 44.4122 16.2568 44.5475C16.5834 44.6805 16.8623 44.8637 17.0933 45.097C17.3243 45.3303 17.5028 45.6057 17.6288 45.923C17.7571 46.2403 17.8213 46.5822 17.8213 46.9485ZM16.6103 46.9485C16.6103 46.6965 16.5776 46.4702 16.5123 46.2695C16.4469 46.0665 16.3524 45.895 16.2288 45.755C16.1074 45.615 15.9581 45.5077 15.7808 45.433C15.6034 45.3583 15.4016 45.321 15.1753 45.321C14.9466 45.321 14.7424 45.3583 14.5628 45.433C14.3854 45.5077 14.2349 45.615 14.1113 45.755C13.9899 45.895 13.8966 46.0665 13.8313 46.2695C13.7659 46.4702 13.7333 46.6965 13.7333 46.9485C13.7333 47.2028 13.7659 47.4315 13.8313 47.6345C13.8966 47.8352 13.9899 48.0055 14.1113 48.1455C14.2349 48.2855 14.3854 48.3928 14.5628 48.4675C14.7424 48.5398 14.9466 48.576 15.1753 48.576C15.4016 48.576 15.6034 48.5398 15.7808 48.4675C15.9581 48.3928 16.1074 48.2855 16.2288 48.1455C16.3524 48.0055 16.4469 47.8352 16.5123 47.6345C16.5776 47.4315 16.6103 47.2028 16.6103 46.9485ZM21.1176 45.3105V46.602H22.8606V47.5155H21.1176V49.5H19.9276V44.4005H23.2106V45.3105H21.1176ZM29.5204 44.4005V49.5H28.4774V46.567C28.4774 46.4993 28.4786 46.4258 28.4809 46.3465C28.4856 46.2672 28.4926 46.1867 28.5019 46.105L27.1474 48.7265C27.1054 48.8082 27.0482 48.87 26.9759 48.912C26.9059 48.954 26.8254 48.975 26.7344 48.975H26.5734C26.4824 48.975 26.4007 48.954 26.3284 48.912C26.2584 48.87 26.2024 48.8082 26.1604 48.7265L24.8059 46.098C24.8129 46.182 24.8187 46.2648 24.8234 46.3465C24.8281 46.4258 24.8304 46.4993 24.8304 46.567V49.5H23.7874V44.4005H24.6904C24.7417 44.4005 24.7861 44.4017 24.8234 44.404C24.8631 44.4063 24.8981 44.4133 24.9284 44.425C24.9587 44.4367 24.9856 44.4553 25.0089 44.481C25.0346 44.5043 25.0591 44.5382 25.0824 44.5825L26.3949 47.169C26.4416 47.2577 26.4859 47.3498 26.5279 47.4455C26.5722 47.5412 26.6142 47.6392 26.6539 47.7395C26.6936 47.6368 26.7344 47.5365 26.7764 47.4385C26.8207 47.3405 26.8674 47.2472 26.9164 47.1585L28.2254 44.5825C28.2487 44.5382 28.2721 44.5043 28.2954 44.481C28.3211 44.4553 28.3491 44.4367 28.3794 44.425C28.4097 44.4133 28.4436 44.4063 28.4809 44.404C28.5206 44.4017 28.5661 44.4005 28.6174 44.4005H29.5204Z" fill="white"/>
<path d="M47.6468 48.52C47.7634 48.52 47.8556 48.5527 47.9233 48.618C47.9909 48.681 48.0248 48.765 48.0248 48.87V49.5H44.4408V49.15C44.4408 49.0823 44.4548 49.01 44.4828 48.933C44.5108 48.856 44.5598 48.786 44.6298 48.723L46.0998 47.2425C46.2258 47.1165 46.3354 46.9963 46.4288 46.882C46.5221 46.7677 46.5991 46.6557 46.6598 46.546C46.7204 46.434 46.7659 46.3232 46.7963 46.2135C46.8266 46.1015 46.8418 45.9837 46.8418 45.86C46.8418 45.657 46.7928 45.5018 46.6948 45.3945C46.5991 45.2848 46.4521 45.23 46.2538 45.23C46.0928 45.23 45.9563 45.2732 45.8443 45.3595C45.7346 45.4435 45.6588 45.5485 45.6168 45.6745C45.5678 45.8028 45.5036 45.888 45.4243 45.93C45.3449 45.972 45.2318 45.9813 45.0848 45.958L44.5108 45.8565C44.5481 45.6022 44.6193 45.3805 44.7243 45.1915C44.8316 45.0025 44.9634 44.845 45.1198 44.719C45.2784 44.593 45.4593 44.4997 45.6623 44.439C45.8653 44.376 46.0834 44.3445 46.3168 44.3445C46.5688 44.3445 46.7951 44.3818 46.9958 44.4565C47.1988 44.5288 47.3714 44.6303 47.5138 44.761C47.6561 44.8917 47.7646 45.048 47.8393 45.23C47.9163 45.4097 47.9548 45.608 47.9548 45.825C47.9548 46.0117 47.9279 46.1843 47.8743 46.343C47.8229 46.5017 47.7518 46.6533 47.6608 46.798C47.5698 46.9403 47.4636 47.0792 47.3423 47.2145C47.2233 47.3475 47.0961 47.4828 46.9608 47.6205L45.9633 48.6425C46.0916 48.6028 46.2188 48.5725 46.3448 48.5515C46.4708 48.5305 46.5874 48.52 46.6948 48.52H47.6468ZM56.4102 48.716V49.5H53.5052V48.716H54.4852V46.1435C54.4852 46.0782 54.4863 46.0128 54.4887 45.9475C54.491 45.8798 54.4945 45.8122 54.4992 45.7445L53.9182 46.2275C53.8668 46.2672 53.8155 46.2917 53.7642 46.301C53.7152 46.308 53.6685 46.308 53.6242 46.301C53.5798 46.2917 53.5402 46.2765 53.5052 46.2555C53.4702 46.2322 53.4445 46.2088 53.4282 46.1855L53.0852 45.7305L54.6742 44.397H55.5702V48.716H56.4102Z" fill="#B4B4B4"/>
<path d="M52.3865 47L49.574 49.1429L49.574 44.8572L52.3865 47Z" fill="#B4B4B4"/>
<path d="M70.7732 45.8565C70.8105 45.6022 70.8817 45.3805 70.9867 45.1915C71.094 45.0025 71.2259 44.845 71.3822 44.719C71.5409 44.593 71.7217 44.4997 71.9247 44.439C72.1277 44.376 72.3459 44.3445 72.5792 44.3445C72.8312 44.3445 73.0552 44.3807 73.2512 44.453C73.4472 44.523 73.6129 44.6187 73.7482 44.74C73.8835 44.8613 73.9862 45.0025 74.0562 45.1635C74.1262 45.3222 74.1612 45.4902 74.1612 45.6675C74.1612 45.8285 74.1449 45.9708 74.1122 46.0945C74.0795 46.2158 74.0305 46.322 73.9652 46.413C73.9022 46.5017 73.8229 46.5775 73.7272 46.6405C73.6339 46.7012 73.5265 46.7525 73.4052 46.7945C73.9699 46.9928 74.2522 47.3778 74.2522 47.9495C74.2522 48.2202 74.2032 48.4558 74.1052 48.6565C74.0072 48.8572 73.8754 49.024 73.7097 49.157C73.5464 49.29 73.3562 49.3903 73.1392 49.458C72.9222 49.5233 72.6959 49.556 72.4602 49.556C72.2175 49.556 72.0017 49.5303 71.8127 49.479C71.6237 49.4253 71.4557 49.3437 71.3087 49.234C71.1617 49.122 71.0322 48.9797 70.9202 48.807C70.8105 48.6343 70.7149 48.429 70.6332 48.191L71.1162 47.995C71.2422 47.946 71.3589 47.9332 71.4662 47.9565C71.5735 47.9798 71.6505 48.0335 71.6972 48.1175C71.8022 48.3112 71.913 48.4523 72.0297 48.541C72.1487 48.6273 72.2875 48.6705 72.4462 48.6705C72.5675 48.6705 72.6725 48.6507 72.7612 48.611C72.8522 48.569 72.9269 48.5165 72.9852 48.4535C73.0459 48.3882 73.0914 48.3147 73.1217 48.233C73.152 48.1513 73.1672 48.0685 73.1672 47.9845C73.1672 47.8748 73.159 47.7768 73.1427 47.6905C73.1287 47.6018 73.0867 47.526 73.0167 47.463C72.9467 47.4 72.8405 47.3522 72.6982 47.3195C72.5582 47.2845 72.3622 47.267 72.1102 47.267V46.518C72.3225 46.518 72.494 46.5017 72.6247 46.469C72.7554 46.4363 72.8557 46.392 72.9257 46.336C72.998 46.2777 73.0459 46.2077 73.0692 46.126C73.0925 46.0443 73.1042 45.9545 73.1042 45.8565C73.1042 45.6558 73.0552 45.5018 72.9572 45.3945C72.8615 45.2848 72.7145 45.23 72.5162 45.23C72.3552 45.23 72.2187 45.2732 72.1067 45.3595C71.997 45.4435 71.9212 45.5485 71.8792 45.6745C71.8302 45.8028 71.766 45.888 71.6867 45.93C71.6074 45.972 71.4942 45.9813 71.3472 45.958L70.7732 45.8565ZM83.8972 48.52C84.0139 48.52 84.106 48.5527 84.1737 48.618C84.2414 48.681 84.2752 48.765 84.2752 48.87V49.5H80.6912V49.15C80.6912 49.0823 80.7052 49.01 80.7332 48.933C80.7612 48.856 80.8102 48.786 80.8802 48.723L82.3502 47.2425C82.4762 47.1165 82.5859 46.9963 82.6792 46.882C82.7725 46.7677 82.8495 46.6557 82.9102 46.546C82.9709 46.434 83.0164 46.3232 83.0467 46.2135C83.077 46.1015 83.0922 45.9837 83.0922 45.86C83.0922 45.657 83.0432 45.5018 82.9452 45.3945C82.8495 45.2848 82.7025 45.23 82.5042 45.23C82.3432 45.23 82.2067 45.2732 82.0947 45.3595C81.985 45.4435 81.9092 45.5485 81.8672 45.6745C81.8182 45.8028 81.754 45.888 81.6747 45.93C81.5954 45.972 81.4822 45.9813 81.3352 45.958L80.7612 45.8565C80.7985 45.6022 80.8697 45.3805 80.9747 45.1915C81.082 45.0025 81.2139 44.845 81.3702 44.719C81.5289 44.593 81.7097 44.4997 81.9127 44.439C82.1157 44.376 82.3339 44.3445 82.5672 44.3445C82.8192 44.3445 83.0455 44.3818 83.2462 44.4565C83.4492 44.5288 83.6219 44.6303 83.7642 44.761C83.9065 44.8917 84.015 45.048 84.0897 45.23C84.1667 45.4097 84.2052 45.608 84.2052 45.825C84.2052 46.0117 84.1784 46.1843 84.1247 46.343C84.0734 46.5017 84.0022 46.6533 83.9112 46.798C83.8202 46.9403 83.714 47.0792 83.5927 47.2145C83.4737 47.3475 83.3465 47.4828 83.2112 47.6205L82.2137 48.6425C82.342 48.6028 82.4692 48.5725 82.5952 48.5515C82.7212 48.5305 82.8379 48.52 82.9452 48.52H83.8972ZM94.1757 48.716V49.5H91.2707V48.716H92.2507V46.1435C92.2507 46.0782 92.2519 46.0128 92.2542 45.9475C92.2566 45.8798 92.2601 45.8122 92.2647 45.7445L91.6837 46.2275C91.6324 46.2672 91.5811 46.2917 91.5297 46.301C91.4807 46.308 91.4341 46.308 91.3897 46.301C91.3454 46.2917 91.3057 46.2765 91.2707 46.2555C91.2357 46.2322 91.2101 46.2088 91.1937 46.1855L90.8507 45.7305L92.4397 44.397H93.3357V48.716H94.1757Z" fill="#B4B4B4"/>
<path d="M78.7615 47L75.949 49.1429L75.949 44.8572L78.7615 47Z" fill="#B4B4B4"/>
<path d="M89.074 47L86.2615 49.1429L86.2615 44.8572L89.074 47Z" fill="#B4B4B4"/>
<path d="M105.881 48.52C105.998 48.52 106.09 48.5527 106.158 48.618C106.225 48.681 106.259 48.765 106.259 48.87V49.5H102.675V49.15C102.675 49.0823 102.689 49.01 102.717 48.933C102.745 48.856 102.794 48.786 102.864 48.723L104.334 47.2425C104.46 47.1165 104.57 46.9963 104.663 46.882C104.757 46.7677 104.834 46.6557 104.894 46.546C104.955 46.434 105 46.3232 105.031 46.2135C105.061 46.1015 105.076 45.9837 105.076 45.86C105.076 45.657 105.027 45.5018 104.929 45.3945C104.834 45.2848 104.687 45.23 104.488 45.23C104.327 45.23 104.191 45.2732 104.079 45.3595C103.969 45.4435 103.893 45.5485 103.851 45.6745C103.802 45.8028 103.738 45.888 103.659 45.93C103.579 45.972 103.466 45.9813 103.319 45.958L102.745 45.8565C102.783 45.6022 102.854 45.3805 102.959 45.1915C103.066 45.0025 103.198 44.845 103.354 44.719C103.513 44.593 103.694 44.4997 103.897 44.439C104.1 44.376 104.318 44.3445 104.551 44.3445C104.803 44.3445 105.03 44.3818 105.23 44.4565C105.433 44.5288 105.606 44.6303 105.748 44.761C105.891 44.8917 105.999 45.048 106.074 45.23C106.151 45.4097 106.189 45.608 106.189 45.825C106.189 46.0117 106.162 46.1843 106.109 46.343C106.057 46.5017 105.986 46.6533 105.895 46.798C105.804 46.9403 105.698 47.0792 105.577 47.2145C105.458 47.3475 105.331 47.4828 105.195 47.6205L104.198 48.6425C104.326 48.6028 104.453 48.5725 104.579 48.5515C104.705 48.5305 104.822 48.52 104.929 48.52H105.881ZM116.16 48.716V49.5H113.255V48.716H114.235V46.1435C114.235 46.0782 114.236 46.0128 114.238 45.9475C114.241 45.8798 114.244 45.8122 114.249 45.7445L113.668 46.2275C113.616 46.2672 113.565 46.2917 113.514 46.301C113.465 46.308 113.418 46.308 113.374 46.301C113.329 46.2917 113.29 46.2765 113.255 46.2555C113.22 46.2322 113.194 46.2088 113.178 46.1855L112.835 45.7305L114.424 44.397H115.32V48.716H116.16ZM122.805 45.8565C122.843 45.6022 122.914 45.3805 123.019 45.1915C123.126 45.0025 123.258 44.845 123.414 44.719C123.573 44.593 123.754 44.4997 123.957 44.439C124.16 44.376 124.378 44.3445 124.611 44.3445C124.863 44.3445 125.087 44.3807 125.283 44.453C125.479 44.523 125.645 44.6187 125.78 44.74C125.916 44.8613 126.018 45.0025 126.088 45.1635C126.158 45.3222 126.193 45.4902 126.193 45.6675C126.193 45.8285 126.177 45.9708 126.144 46.0945C126.112 46.2158 126.063 46.322 125.997 46.413C125.934 46.5017 125.855 46.5775 125.759 46.6405C125.666 46.7012 125.559 46.7525 125.437 46.7945C126.002 46.9928 126.284 47.3778 126.284 47.9495C126.284 48.2202 126.235 48.4558 126.137 48.6565C126.039 48.8572 125.907 49.024 125.742 49.157C125.578 49.29 125.388 49.3903 125.171 49.458C124.954 49.5233 124.728 49.556 124.492 49.556C124.25 49.556 124.034 49.5303 123.845 49.479C123.656 49.4253 123.488 49.3437 123.341 49.234C123.194 49.122 123.064 48.9797 122.952 48.807C122.843 48.6343 122.747 48.429 122.665 48.191L123.148 47.995C123.274 47.946 123.391 47.9332 123.498 47.9565C123.606 47.9798 123.683 48.0335 123.729 48.1175C123.834 48.3112 123.945 48.4523 124.062 48.541C124.181 48.6273 124.32 48.6705 124.478 48.6705C124.6 48.6705 124.705 48.6507 124.793 48.611C124.884 48.569 124.959 48.5165 125.017 48.4535C125.078 48.3882 125.123 48.3147 125.154 48.233C125.184 48.1513 125.199 48.0685 125.199 47.9845C125.199 47.8748 125.191 47.7768 125.175 47.6905C125.161 47.6018 125.119 47.526 125.049 47.463C124.979 47.4 124.873 47.3522 124.73 47.3195C124.59 47.2845 124.394 47.267 124.142 47.267V46.518C124.355 46.518 124.526 46.5017 124.657 46.469C124.787 46.4363 124.888 46.392 124.958 46.336C125.03 46.2777 125.078 46.2077 125.101 46.126C125.125 46.0443 125.136 45.9545 125.136 45.8565C125.136 45.6558 125.087 45.5018 124.989 45.3945C124.894 45.2848 124.747 45.23 124.548 45.23C124.387 45.23 124.251 45.2732 124.139 45.3595C124.029 45.4435 123.953 45.5485 123.911 45.6745C123.862 45.8028 123.798 45.888 123.719 45.93C123.639 45.972 123.526 45.9813 123.379 45.958L122.805 45.8565Z" fill="#B4B4B4"/>
<path d="M110.761 47L107.949 49.1429L107.949 44.8572L110.761 47Z" fill="#B4B4B4"/>
<path d="M118.261 47L121.074 44.8571L121.074 49.1428L118.261 47Z" fill="#B4B4B4"/>
<path d="M3.5 43H129.5V42H3.5V43ZM131 44.5V49.5H132V44.5H131ZM129.5 51H3.5V52H129.5V51ZM2 49.5V44.5H1V49.5H2ZM3.5 51C2.67157 51 2 50.3284 2 49.5H1C1 50.8807 2.11929 52 3.5 52V51ZM131 49.5C131 50.3284 130.328 51 129.5 51V52C130.881 52 132 50.8807 132 49.5H131ZM129.5 43C130.328 43 131 43.6716 131 44.5H132C132 43.1193 130.881 42 129.5 42V43ZM3.5 42C2.11929 42 1 43.1193 1 44.5H2C2 43.6716 2.67157 43 3.5 43V42Z" fill="black"/>
</svg>
