<svg width="555" height="179" viewBox="0 0 555 179" fill="none" xmlns="http://www.w3.org/2000/svg">
<path fill-rule="evenodd" clip-rule="evenodd" d="M98.7142 26.2495L136.305 51.7907V0.404907H10.6966C4.76762 0.404907 0 5.13702 0 11.0218V110.032L25.7329 117.252C27.0776 117.616 28.4224 116.827 28.8502 115.553L35.2682 92.499C35.696 90.8609 37.652 90.1329 39.1189 91.1036L100.67 133.147C102.993 134.724 101.281 138.364 98.592 137.575L51.1602 124.41C49.8155 124.046 48.4097 124.835 48.1041 126.17L41.8084 149.224C41.3805 150.862 39.3634 151.59 37.9576 150.619L0 124.532V178.405H124.753C131.11 178.405 136.244 173.248 136.244 166.999V66.5937L110.817 59.5562C109.472 59.1922 108.127 59.9809 107.76 61.2549L101.159 84.3694C100.67 86.0075 98.7753 86.6748 97.3084 85.7648L35.696 43.6612C33.3733 42.0838 35.0848 38.4438 37.7742 39.2324L85.2059 52.3974C86.5507 52.7614 87.8954 51.9727 88.2621 50.6987L94.8634 27.5842C95.3524 26.0068 97.2472 25.2788 98.7142 26.2495Z" fill="#C9478F"/>
<path fill-rule="evenodd" clip-rule="evenodd" d="M228.418 23.9877L209.103 24.9693C209.103 22.3313 208.308 20.3067 206.78 18.773C205.252 17.2393 203.113 16.5031 200.362 16.5031C198.04 16.5031 196.145 17.0552 194.739 18.2209C193.333 19.3865 192.661 20.9816 192.661 23.0061C192.661 24.8466 193.455 26.2577 195.106 27.2393C196.878 28.1595 200.118 29.2024 204.824 30.3681C213.382 32.638 219.616 35.4601 223.589 38.773C227.562 42.0859 229.518 46.6871 229.518 52.5153C229.518 60.2454 226.951 66.0736 221.755 70C216.499 73.865 209.898 75.8282 201.952 75.8282C192.844 75.8282 185.509 73.681 179.886 69.3251C174.324 64.908 171.573 58.773 171.634 50.9202L190.949 49.9386C190.888 52.7607 191.866 55.0307 193.944 56.7485C196.023 58.4662 198.651 59.3251 201.952 59.3251C207.453 59.3251 210.203 57.3619 210.203 53.4356C210.203 51.7178 209.225 50.2454 207.391 49.0797C205.497 47.8527 202.318 46.6871 197.795 45.4601C190.583 43.681 184.898 41.411 180.742 38.6503C175.852 35.4601 173.407 30.3681 173.407 23.4969C173.407 16.6871 175.668 11.0429 180.253 6.68711C184.898 2.20858 191.499 0 200.057 0C208.553 0 215.399 2.14724 220.655 6.38036C225.667 10.6748 228.296 16.5031 228.418 23.9877Z" fill="#7432FF"/>
<path fill-rule="evenodd" clip-rule="evenodd" d="M294.126 1.16565H312.952V43.4969C312.952 53.6809 310.079 61.5951 304.333 67.3007C298.649 73.0061 290.764 75.8895 280.617 75.8895C270.41 75.8895 262.464 73.0061 256.718 67.3007C250.972 61.5951 248.1 53.6809 248.1 43.4969V1.16565H267.048V43.1902C267.048 53.7424 271.571 59.0184 280.678 59.0184C289.725 59.0184 294.187 53.7424 294.187 43.1902V1.16565H294.126Z" fill="#7432FF"/>
<path fill-rule="evenodd" clip-rule="evenodd" d="M395.651 74.7852H374.258L361.239 50.184H353.232V74.7852H334.284V1.16565H367.412C374.931 1.16565 380.86 3.37424 385.26 7.73006C389.661 12.0858 391.801 18.0981 391.801 25.7055C391.801 35.7668 388.133 42.822 380.798 46.9325L395.651 74.7852ZM353.232 17.9754V33.313H365.212C367.535 33.313 369.368 32.638 370.713 31.227C371.997 29.8773 372.669 27.9754 372.669 25.6442C372.669 23.3129 371.997 21.411 370.713 20.0613C369.429 18.7117 367.596 17.9754 365.212 17.9754H353.232Z" fill="#7432FF"/>
<path fill-rule="evenodd" clip-rule="evenodd" d="M449.501 32.8221H485.258V38.8957C485.258 49.8773 482.08 58.7116 475.662 65.5828C469.244 72.3926 460.626 75.8282 449.684 75.8282C438.499 75.8282 429.33 72.3926 422.118 65.5828C415.089 58.8343 411.544 49.6319 411.544 37.9141C411.544 26.2577 415.089 16.9939 422.118 10.2454C429.33 3.43558 438.499 0 449.684 0C458.364 0 465.821 2.20859 471.933 6.56441C478.046 10.9202 482.263 16.9939 484.464 24.7853L464.843 28.0368C462.52 20.5521 457.386 16.8098 449.44 16.8098C443.45 16.8098 438.805 18.5889 435.626 22.1472C432.448 25.7055 430.797 30.9202 430.797 37.9141C430.797 44.8466 432.387 50.1227 435.626 53.681C438.805 57.2392 443.45 59.0184 449.44 59.0184C456.714 59.0184 461.542 55.8895 464.049 49.6932H449.44V32.8221H449.501Z" fill="#7432FF"/>
<path fill-rule="evenodd" clip-rule="evenodd" d="M553.166 1.16566V17.9754H524.072V29.0184H548.949V45.4601H524.072V57.9754H553.289V74.7852H505.185V1.16565H553.166V1.16566Z" fill="#7432FF"/>
<path fill-rule="evenodd" clip-rule="evenodd" d="M188.871 112.945V118.957H178.419V122.822H186.732V128.834H178.419V139.325H171.634V112.945H188.871Z" fill="#B4B4B4"/>
<path fill-rule="evenodd" clip-rule="evenodd" d="M213.748 139.325H206.108L201.401 130.491H198.529V139.325H191.744V112.945H203.663C206.352 112.945 208.492 113.742 210.081 115.276C211.67 116.871 212.465 119.018 212.465 121.718C212.465 125.337 211.12 127.853 208.553 129.325L213.748 139.325ZM198.467 118.957V124.479H202.746C203.602 124.479 204.274 124.233 204.702 123.742C205.191 123.252 205.374 122.577 205.374 121.718C205.374 120.859 205.13 120.184 204.702 119.693C204.213 119.203 203.602 118.957 202.746 118.957H198.467Z" fill="#B4B4B4"/>
<path fill-rule="evenodd" clip-rule="evenodd" d="M233.552 112.945V118.957H223.1V122.883H232.024V128.773H223.1V133.252H233.552V139.264H216.254V112.883H233.552V112.945Z" fill="#B4B4B4"/>
<path fill-rule="evenodd" clip-rule="evenodd" d="M254.151 112.945V118.957H243.699V122.883H252.623V128.773H243.699V133.252H254.151V139.264H236.853V112.883H254.151V112.945Z" fill="#B4B4B4"/>
<path fill-rule="evenodd" clip-rule="evenodd" d="M288.624 134.969L285.079 139.693L281.167 136.503C279.028 138.65 276.339 139.693 273.221 139.693C270.104 139.693 267.659 138.957 265.948 137.485C264.297 136.012 263.442 134.172 263.442 131.902C263.442 129.141 264.725 126.871 267.231 125.031C265.948 123.497 265.275 121.963 265.275 120.307C265.275 117.853 266.07 115.951 267.659 114.601C269.248 113.252 271.388 112.577 274.077 112.577C276.4 112.577 278.417 113.19 279.945 114.479C281.534 115.767 282.512 117.485 282.879 119.693L276.277 120.245C276.094 118.773 275.361 118.037 274.016 118.037C273.405 118.037 272.855 118.221 272.549 118.589C272.182 118.957 271.999 119.509 271.999 120.184C271.999 120.92 272.304 121.534 272.855 122.147C272.916 122.209 272.977 122.27 272.977 122.27C273.038 122.331 273.038 122.331 273.099 122.393C273.099 122.454 273.16 122.454 273.16 122.515C273.221 122.577 273.221 122.577 273.282 122.638C273.344 122.699 273.405 122.761 273.466 122.822C273.649 123.006 273.771 123.068 273.833 123.129C274.322 123.497 274.566 123.681 274.627 123.742L279.456 127.669C279.761 126.81 280.067 125.706 280.373 124.295L286.363 125.828C285.813 127.976 285.14 129.877 284.346 131.595L288.624 134.969ZM273.343 133.988C274.505 133.988 275.605 133.62 276.583 132.822L271.449 128.65C270.715 129.325 270.348 130.184 270.348 131.35C270.348 132.209 270.593 132.822 271.143 133.313C271.693 133.742 272.427 133.988 273.343 133.988Z" fill="#B4B4B4"/>
<path fill-rule="evenodd" clip-rule="evenodd" d="M309.712 112.515C313.807 112.515 317.169 113.742 319.675 116.258C322.303 118.712 323.587 122.025 323.587 126.135C323.587 130.245 322.303 133.497 319.675 136.012C317.108 138.466 313.807 139.693 309.712 139.693C305.556 139.693 302.194 138.466 299.627 136.012C297.059 133.497 295.776 130.184 295.776 126.135C295.776 122.025 297.059 118.773 299.627 116.258C302.194 113.804 305.556 112.515 309.712 112.515ZM309.712 118.589C307.573 118.589 305.861 119.264 304.578 120.614C303.294 121.963 302.683 123.804 302.683 126.135C302.683 128.466 303.294 130.307 304.578 131.656C305.861 133.006 307.573 133.681 309.712 133.681C311.851 133.681 313.563 133.006 314.785 131.656C316.069 130.307 316.68 128.466 316.68 126.135C316.68 123.804 316.069 121.963 314.785 120.614C313.563 119.264 311.851 118.589 309.712 118.589Z" fill="#B4B4B4"/>
<path fill-rule="evenodd" clip-rule="evenodd" d="M326.765 139.325V112.945H338.807C341.496 112.945 343.635 113.742 345.225 115.337C346.814 116.933 347.608 119.08 347.608 121.779C347.608 124.479 346.814 126.626 345.225 128.221C343.635 129.755 341.557 130.552 338.868 130.552H333.611V139.325H326.765ZM337.951 118.957H333.55V124.54H337.951C338.746 124.54 339.418 124.295 339.907 123.804C340.396 123.313 340.64 122.638 340.64 121.779C340.64 120.92 340.396 120.245 339.907 119.755C339.418 119.203 338.746 118.957 337.951 118.957Z" fill="#B4B4B4"/>
<path fill-rule="evenodd" clip-rule="evenodd" d="M367.107 112.945V118.957H356.655V122.883H365.579V128.773H356.655V133.252H367.107V139.264H349.809V112.883H367.107V112.945Z" fill="#B4B4B4"/>
<path fill-rule="evenodd" clip-rule="evenodd" d="M370.53 112.393L385.566 125.276V112.945H392.351V139.877L377.314 127.055V139.325H370.53V112.393Z" fill="#B4B4B4"/>
<path fill-rule="evenodd" clip-rule="evenodd" d="M422.607 121.104L415.7 121.472C415.7 120.552 415.394 119.816 414.844 119.264C414.294 118.712 413.499 118.466 412.521 118.466C411.666 118.466 410.993 118.65 410.504 119.08C410.015 119.509 409.771 120.061 409.771 120.798C409.771 121.472 410.076 121.963 410.627 122.331C411.238 122.638 412.399 123.068 414.111 123.436C417.167 124.233 419.428 125.276 420.834 126.442C422.24 127.607 422.974 129.264 422.974 131.35C422.974 134.111 422.057 136.196 420.223 137.607C418.328 139.018 416.005 139.693 413.133 139.693C409.893 139.693 407.265 138.896 405.248 137.362C403.231 135.767 402.253 133.558 402.314 130.736L409.221 130.368C409.221 131.411 409.526 132.209 410.321 132.822C411.054 133.436 412.032 133.742 413.194 133.742C415.15 133.742 416.128 133.006 416.128 131.595C416.128 130.982 415.761 130.43 415.089 130C414.416 129.571 413.255 129.141 411.666 128.712C409.099 128.098 407.02 127.239 405.553 126.258C403.781 125.092 402.925 123.313 402.925 120.798C402.925 118.344 403.72 116.319 405.37 114.785C407.02 113.19 409.404 112.393 412.46 112.393C415.516 112.393 417.961 113.129 419.856 114.663C421.629 116.319 422.546 118.405 422.607 121.104Z" fill="#B4B4B4"/>
<path fill-rule="evenodd" clip-rule="evenodd" d="M439.11 112.515C443.205 112.515 446.567 113.742 449.073 116.258C451.702 118.712 452.985 122.025 452.985 126.135C452.985 130.245 451.702 133.497 449.073 136.012C446.506 138.466 443.205 139.693 439.11 139.693C434.954 139.693 431.592 138.466 429.025 136.012C426.458 133.497 425.174 130.184 425.174 126.135C425.174 122.025 426.458 118.773 429.025 116.258C431.592 113.804 434.954 112.515 439.11 112.515ZM439.11 118.589C436.971 118.589 435.259 119.264 433.976 120.614C432.692 121.963 432.081 123.804 432.081 126.135C432.081 128.466 432.692 130.307 433.976 131.656C435.259 133.006 436.971 133.681 439.11 133.681C441.249 133.681 442.961 133.006 444.183 131.656C445.467 130.307 446.078 128.466 446.078 126.135C446.078 123.804 445.467 121.963 444.183 120.614C442.9 119.264 441.249 118.589 439.11 118.589Z" fill="#B4B4B4"/>
<path fill-rule="evenodd" clip-rule="evenodd" d="M472.483 112.945H479.207V128.098C479.207 131.718 478.168 134.601 476.09 136.626C474.073 138.65 471.2 139.693 467.593 139.693C463.926 139.693 461.053 138.65 459.036 136.626C456.958 134.601 455.919 131.718 455.919 128.098V112.945H462.704V128.037C462.704 131.841 464.354 133.742 467.593 133.742C470.833 133.742 472.422 131.841 472.422 128.037V112.945H472.483Z" fill="#B4B4B4"/>
<path fill-rule="evenodd" clip-rule="evenodd" d="M505.001 139.325H497.361L492.654 130.491H489.781V139.325H482.997V112.945H494.916C497.605 112.945 499.744 113.742 501.334 115.276C502.923 116.871 503.717 119.018 503.717 121.718C503.717 125.337 502.373 127.853 499.805 129.325L505.001 139.325ZM489.781 118.957V124.479H494.06C494.916 124.479 495.588 124.233 496.016 123.742C496.505 123.252 496.688 122.577 496.688 121.718C496.688 120.859 496.444 120.184 496.016 119.693C495.527 119.203 494.916 118.957 494.06 118.957H489.781Z" fill="#B4B4B4"/>
<path fill-rule="evenodd" clip-rule="evenodd" d="M520.465 112.515C523.766 112.515 526.578 113.436 528.961 115.276C531.345 117.117 532.751 119.632 533.24 122.699L526.15 123.374C525.416 120.123 523.399 118.528 520.221 118.528C518.265 118.528 516.676 119.203 515.514 120.614C514.353 121.963 513.742 123.804 513.742 126.074C513.742 128.466 514.353 130.307 515.514 131.656C516.737 133.006 518.265 133.681 520.221 133.681C521.81 133.681 523.094 133.252 524.133 132.454C525.172 131.656 525.844 130.429 526.15 128.896L533.24 129.509C532.751 132.638 531.345 135.153 528.961 137.055C526.639 138.896 523.766 139.816 520.465 139.816C516.431 139.816 513.131 138.589 510.563 136.135C508.057 133.681 506.774 130.429 506.774 126.196C506.774 122.025 508.057 118.712 510.563 116.258C513.192 113.742 516.492 112.515 520.465 112.515Z" fill="#B4B4B4"/>
<path fill-rule="evenodd" clip-rule="evenodd" d="M553.533 112.945V118.957H543.081V122.883H552.005V128.773H543.081V133.252H553.533V139.264H536.235V112.883H553.533V112.945Z" fill="#B4B4B4"/>
<path fill-rule="evenodd" clip-rule="evenodd" d="M194.005 151.35V177.73H187.221V167.301H178.419V177.73H171.634V151.35H178.419V161.288H187.221V151.35H194.005Z" fill="#B4B4B4"/>
<path fill-rule="evenodd" clip-rule="evenodd" d="M222.183 151.35L212.22 168.098V177.791H205.436V168.098L195.472 151.35H203.357L208.858 161.288L214.36 151.35H222.183Z" fill="#B4B4B4"/>
<path fill-rule="evenodd" clip-rule="evenodd" d="M223.589 177.792V151.411H235.325C237.953 151.411 239.97 152.025 241.498 153.313C243.026 154.601 243.76 156.442 243.76 158.896C243.76 160.798 243.026 162.454 241.621 163.865C242.599 164.356 243.332 165.153 243.943 166.196C244.493 167.239 244.799 168.466 244.799 169.877C244.799 172.393 244.004 174.295 242.415 175.706C240.826 177.117 238.687 177.792 235.997 177.792H223.589ZM234.53 157.362H230.374V161.35H234.469C236.058 161.35 236.853 160.675 236.853 159.387C236.853 158.037 236.058 157.362 234.53 157.362ZM235.203 167.178H230.435V171.718H235.264C237.036 171.718 237.892 170.982 237.892 169.448C237.831 167.914 236.975 167.178 235.203 167.178Z" fill="#B4B4B4"/>
<path fill-rule="evenodd" clip-rule="evenodd" d="M269.737 177.792H262.097L257.39 168.957H254.517V177.792H247.733V151.411H259.652C262.341 151.411 264.481 152.209 266.07 153.742C267.659 155.338 268.454 157.485 268.454 160.184C268.454 163.804 267.109 166.319 264.542 167.792L269.737 177.792ZM254.518 157.362V162.884H258.796C259.652 162.884 260.324 162.638 260.752 162.147C261.241 161.657 261.424 160.982 261.424 160.123C261.424 159.264 261.18 158.589 260.752 158.098C260.263 157.607 259.652 157.362 258.796 157.362H254.518Z" fill="#B4B4B4"/>
<path fill-rule="evenodd" clip-rule="evenodd" d="M278.661 151.35V177.73H271.876V151.35H278.661Z" fill="#B4B4B4"/>
<path fill-rule="evenodd" clip-rule="evenodd" d="M282.145 177.792V151.411H293.27C297.182 151.411 300.36 152.577 302.866 154.969C305.372 157.301 306.595 160.552 306.595 164.601C306.595 168.65 305.372 171.902 302.866 174.233C300.36 176.626 297.182 177.792 293.27 177.792H282.145ZM293.392 157.239H288.93V171.902H293.392C295.47 171.902 297.059 171.288 298.221 170.061C299.321 168.834 299.932 166.994 299.932 164.601C299.932 162.147 299.382 160.368 298.221 159.141C297.059 157.853 295.47 157.239 293.392 157.239Z" fill="#B4B4B4"/>
<path fill-rule="evenodd" clip-rule="evenodd" d="M335.262 159.571L328.355 159.939C328.355 159.019 328.049 158.282 327.499 157.73C326.949 157.178 326.154 156.933 325.176 156.933C324.321 156.933 323.648 157.117 323.159 157.546C322.67 157.976 322.426 158.528 322.426 159.264C322.426 159.939 322.731 160.43 323.282 160.798C323.893 161.104 325.054 161.534 326.766 161.902C329.822 162.7 332.083 163.742 333.489 164.908C334.895 166.074 335.628 167.73 335.628 169.816C335.628 172.577 334.712 174.663 332.878 176.074C330.983 177.485 328.66 178.16 325.788 178.16C322.548 178.16 319.92 177.362 317.903 175.828C315.886 174.233 314.908 172.025 314.969 169.203L321.876 168.834C321.876 169.877 322.181 170.675 322.976 171.288C323.709 171.902 324.687 172.209 325.849 172.209C327.805 172.209 328.783 171.473 328.783 170.061C328.783 169.448 328.416 168.896 327.744 168.466C327.071 168.037 325.91 167.608 324.321 167.178C321.753 166.565 319.675 165.706 318.208 164.724C316.436 163.558 315.58 161.779 315.58 159.264C315.58 156.81 316.375 154.785 318.025 153.252C319.675 151.657 322.059 150.859 325.115 150.859C328.171 150.859 330.616 151.595 332.511 153.129C334.284 154.785 335.201 156.871 335.262 159.571Z" fill="#B4B4B4"/>
<path fill-rule="evenodd" clip-rule="evenodd" d="M362.828 151.35L352.865 168.098V177.791H346.081V168.098L336.117 151.35H344.002L349.503 161.288L355.005 151.35H362.828Z" fill="#B4B4B4"/>
<path fill-rule="evenodd" clip-rule="evenodd" d="M364.295 150.798L379.331 163.681V151.35H386.116V178.282L371.08 165.46V177.792H364.295V150.798Z" fill="#B4B4B4"/>
<path fill-rule="evenodd" clip-rule="evenodd" d="M411.177 151.35V157.362H402.986V177.73H396.201V157.362H387.95V151.35H411.177Z" fill="#B4B4B4"/>
<path fill-rule="evenodd" clip-rule="evenodd" d="M435.382 151.35V177.73H428.597V167.301H419.795V177.73H413.01V151.35H419.795V161.288H428.597V151.35H435.382Z" fill="#B4B4B4"/>
<path fill-rule="evenodd" clip-rule="evenodd" d="M456.102 151.35V157.362H445.65V161.288H454.574V167.178H445.65V171.657H456.102V177.669H438.865V151.288H456.102V151.35Z" fill="#B4B4B4"/>
<path fill-rule="evenodd" clip-rule="evenodd" d="M478.535 159.571L471.628 159.939C471.628 159.019 471.322 158.282 470.772 157.73C470.222 157.178 469.427 156.933 468.449 156.933C467.594 156.933 466.921 157.117 466.432 157.546C465.943 157.976 465.699 158.528 465.699 159.264C465.699 159.939 466.004 160.43 466.554 160.798C467.166 161.104 468.327 161.534 470.039 161.902C473.095 162.7 475.356 163.742 476.762 164.908C478.168 166.074 478.901 167.73 478.901 169.816C478.901 172.577 477.985 174.663 476.151 176.074C474.256 177.485 471.933 178.16 469.061 178.16C465.821 178.16 463.193 177.362 461.176 175.828C459.159 174.233 458.181 172.025 458.242 169.203L465.149 168.834C465.149 169.877 465.454 170.675 466.249 171.288C466.982 171.902 467.96 172.209 469.122 172.209C471.078 172.209 472.056 171.473 472.056 170.061C472.056 169.448 471.689 168.896 471.017 168.466C470.344 168.037 469.183 167.608 467.594 167.178C465.026 166.565 462.948 165.706 461.481 164.724C459.709 163.558 458.853 161.779 458.853 159.264C458.853 156.81 459.648 154.785 461.298 153.252C462.948 151.657 465.332 150.859 468.388 150.859C471.444 150.859 473.889 151.595 475.784 153.129C477.557 154.785 478.535 156.871 478.535 159.571Z" fill="#B4B4B4"/>
<path fill-rule="evenodd" clip-rule="evenodd" d="M488.253 151.35V177.73H481.469V151.35H488.253Z" fill="#B4B4B4"/>
<path fill-rule="evenodd" clip-rule="evenodd" d="M510.502 151.35L500.478 171.718H510.38V177.73H490.27L500.295 157.362H490.637V151.35H510.502Z" fill="#B4B4B4"/>
<path fill-rule="evenodd" clip-rule="evenodd" d="M530.001 151.35V157.362H519.548V161.288H528.472V167.178H519.548V171.657H530.001V177.669H512.703V151.288H530.001V151.35Z" fill="#B4B4B4"/>
<path fill-rule="evenodd" clip-rule="evenodd" d="M555 177.792H547.36L542.653 168.957H539.78V177.792H532.996V151.411H544.915C547.604 151.411 549.743 152.209 551.333 153.742C552.922 155.338 553.716 157.485 553.716 160.184C553.716 163.804 552.372 166.319 549.805 167.792L555 177.792ZM539.78 157.362V162.884H544.059C544.915 162.884 545.587 162.638 546.015 162.147C546.504 161.657 546.687 160.982 546.687 160.123C546.687 159.264 546.443 158.589 546.015 158.098C545.526 157.607 544.915 157.362 544.059 157.362H539.78Z" fill="#B4B4B4"/>
</svg>
