<svg width="11" height="22" viewBox="0 0 11 22" fill="none" xmlns="http://www.w3.org/2000/svg">
<path fill-rule="evenodd" clip-rule="evenodd" d="M0.5 3.5C0.5 1.84315 1.84315 0.5 3.5 0.5H7.5C9.15685 0.5 10.5 1.84315 10.5 3.5V7.5C10.5 9.15685 9.15685 10.5 7.5 10.5H3.5C1.84315 10.5 0.5 9.15685 0.5 7.5V3.5Z" fill="#242424" stroke="black"/>
<path d="M9 3.5C7.677 3.5 7.0155 3.5 7.0155 3.5C5.5 3.5 5.5 7.5 4.00476 7.5C4.00476 7.5 3.33651 7.5 2 7.5" stroke="#B4B4B4"/>
<path fill-rule="evenodd" clip-rule="evenodd" d="M0.5 14.5C0.5 12.8431 1.84315 11.5 3.5 11.5H7.5C9.15685 11.5 10.5 12.8431 10.5 14.5V18.5C10.5 20.1569 9.15685 21.5 7.5 21.5H3.5C1.84315 21.5 0.5 20.1569 0.5 18.5V14.5Z" fill="#7432FF"/>
<path d="M9 14.5C7.677 14.5 7.0155 14.5 7.0155 14.5C5.5 14.5 5.5 18.5 4.00476 18.5C4.00476 18.5 3.33651 18.5 2 18.5" stroke="white"/>
</svg>
