<svg width="120" height="52" viewBox="0 0 120 52" fill="none" xmlns="http://www.w3.org/2000/svg">
<path d="M62.5 6H76V14M68 6.5V14H26.5M26.5 38H68V45.5M62.5 46H76V38M80.5 26H84V16H88.5" stroke="#9099FF"/>
<rect x="36.5" y="25.5" width="1" height="1" fill="#9099FF"/>
<rect x="38.5" y="25.5" width="1" height="1" fill="#9099FF"/>
<rect x="40.5" y="25.5" width="1" height="1" fill="#9099FF"/>
<rect x="42.5" y="25.5" width="1" height="1" fill="#9099FF"/>
<rect x="62.5" y="25.5" width="1" height="1" fill="#9099FF"/>
<path d="M107.5 36H112V26.5" stroke="#9099FF"/>
<path fill-rule="evenodd" clip-rule="evenodd" d="M75.2501 22.5H76.7501V25.252L79.499 25.25L79.5001 26.75L76.7501 26.752V29.5H75.2501V26.7531L72.5011 26.7551L72.5 25.2551L75.2501 25.2531V22.5Z" fill="#9099FF"/>
<path d="M76 31C78.7614 31 81 28.7614 81 26C81 23.2386 78.7614 21 76 21C73.2386 21 71 23.2386 71 26C71 28.7614 73.2386 31 76 31Z" stroke="#9099FF"/>
<path fill-rule="evenodd" clip-rule="evenodd" d="M98.5 25.5L100.5 25.5L98 29.5L95.5 25.5L97.5 25.5L98.5 25.5Z" fill="#9099FF"/>
<path d="M98.5 21.5L98.5 26L97.5 26L97.5 21.5L98.5 21.5Z" fill="#9099FF"/>
<path fill-rule="evenodd" clip-rule="evenodd" d="M27.5 15.5L29.5 15.5L27 19.5L24.5 15.5L26.5 15.5L27.5 15.5Z" fill="#9099FF"/>
<path d="M27.5 13.5L27.5 16L26.5 16L26.5 13.5L27.5 13.5Z" fill="#9099FF"/>
<path fill-rule="evenodd" clip-rule="evenodd" d="M52.5 36.5L50.5 36.5L53 32.5L55.5 36.5L53.5 36.5L52.5 36.5Z" fill="#9099FF"/>
<path d="M52.5 37.5L52.5 36L53.5 36L53.5 37.5L52.5 37.5Z" fill="#9099FF"/>
<path fill-rule="evenodd" clip-rule="evenodd" d="M75.5 36.5L73.5 36.5L76 32.5L78.5 36.5L76.5 36.5L75.5 36.5Z" fill="#9099FF"/>
<path d="M75.5 38.5L75.5 36L76.5 36L76.5 38.5L75.5 38.5Z" fill="#9099FF"/>
<path fill-rule="evenodd" clip-rule="evenodd" d="M53.5 15.5L55.5 15.5L53 19.5L50.5 15.5L52.5 15.5L53.5 15.5Z" fill="#9099FF"/>
<path d="M53.5 14.5L53.5 16L52.5 16L52.5 14.5L53.5 14.5Z" fill="#9099FF"/>
<path fill-rule="evenodd" clip-rule="evenodd" d="M76.5 15.5L78.5 15.5L76 19.5L73.5 15.5L75.5 15.5L76.5 15.5Z" fill="#9099FF"/>
<path d="M76.5 13.5L76.5 16L75.5 16L75.5 13.5L76.5 13.5Z" fill="#9099FF"/>
<path fill-rule="evenodd" clip-rule="evenodd" d="M26.5 36.5L24.5 36.5L27 32.5L29.5 36.5L27.5 36.5L26.5 36.5Z" fill="#9099FF"/>
<path d="M26.5 37.5L26.5 36L27.5 36L27.5 37.5L26.5 37.5Z" fill="#9099FF"/>
<path fill-rule="evenodd" clip-rule="evenodd" d="M12.5 5.5V3.5L16.5 6L12.5 8.5V6.5V5.5Z" fill="#9099FF"/>
<path d="M10.5 5.5H13V6.5H10.5V5.5Z" fill="#9099FF"/>
<path fill-rule="evenodd" clip-rule="evenodd" d="M38.5 5.5V3.5L42.5 6L38.5 8.5V6.5V5.5Z" fill="#9099FF"/>
<path d="M36.5 5.5H39V6.5H36.5V5.5Z" fill="#9099FF"/>
<path fill-rule="evenodd" clip-rule="evenodd" d="M38.5 45.5V43.5L42.5 46L38.5 48.5V46.5V45.5Z" fill="#9099FF"/>
<path d="M36.5 45.5H39V46.5H36.5V45.5Z" fill="#9099FF"/>
<path fill-rule="evenodd" clip-rule="evenodd" d="M65.5 25.5V23.5L69.5 26L65.5 28.5V26.5V25.5Z" fill="#9099FF"/>
<path d="M64.5 25.5H66V26.5H64.5V25.5Z" fill="#9099FF"/>
<path fill-rule="evenodd" clip-rule="evenodd" d="M12.5 45.5V43.5L16.5 46L12.5 48.5V46.5V45.5Z" fill="#9099FF"/>
<path d="M10.5 45.5H13V46.5H10.5V45.5Z" fill="#9099FF"/>
<path fill-rule="evenodd" clip-rule="evenodd" d="M114.5 25.5V23.5L118.5 26L114.5 28.5V26.5V25.5Z" fill="#9099FF"/>
<path d="M111.5 25.5H115.944V26.5H111.5V25.5Z" fill="#9099FF"/>
</svg>
