<svg width="51" height="760" fill="none" xmlns="http://www.w3.org/2000/svg"><path d="M.5 2.5a2 2 0 0 1 2-2h46a2 2 0 0 1 2 2v71a2 2 0 0 1-2 2h-46a2 2 0 0 1-2-2v-71Z" fill="#242424"/><path d="M23.5 2.5h-21v11h21v-11Z" fill="#7432FF"/><path d="M22.5 2.5h-19a1 1 0 0 0-1 1v9a1 1 0 0 0 1 1h19a1 1 0 0 0 1-1v-9a1 1 0 0 0-1-1Z" fill="#7432FF"/><path d="M22.5 2.5h-19a1 1 0 0 0-1 1v9a1 1 0 0 0 1 1h19a1 1 0 0 0 1-1v-9a1 1 0 0 0-1-1Z" stroke="#7432FF"/><path opacity=".75" d="M25 15H1v1h24v-1ZM25 30H1v1h24v-1ZM25 45H1v1h24v-1ZM25 60H1v1h24v-1ZM25 1v74h1V1h-1ZM50 15H26v1h24v-1ZM50 30H26v1h24v-1ZM50 45H26v1h24v-1ZM50 60H26v1h24v-1Z" fill="#000"/><path d="m46.55 8.016-4 4-8-8-4.3 4" stroke="#B4B4B4" stroke-linecap="round"/><path d="m38.4 19.016 8 8-8-8Zm-8 8v-8 8Zm8-8v8-8Zm-8 0 8 8-8-8ZM39.4 41.016h2-2Zm-8-3v-4 4Zm8 3v-6 6Zm-6-7v3-3Zm10 2v1.5-1.5Zm-8 1v5-5Zm6 .5v3.5-3.5Zm4-1.5v4-4Zm-8-1v7-7Zm-6-1h2-2Zm2 3h2-2Zm2 5h2-2Zm2-7h2-2Zm4 2.5h2-2Zm2-1.5h2-2Zm-14 2h2-2Zm16 2h2-2Z" stroke="#B4B4B4" stroke-linecap="round" stroke-linejoin="round"/><path fill-rule="evenodd" clip-rule="evenodd" d="M29 58.016h2v-5h-2v5Zm16.8 0h2v-5h-2v5Zm-12.7-2h-2v-3h2v3Zm12.6 0h-2v-3h2v3Zm-12.5-2.75h2v-.5h-2v.5Zm10.4 0h-2v-.5h2v.5Zm-8.3-.25h2v-3h-2v3Zm4.1 0h-2v-5h2v5Zm.1 0h2v-3h-2v3Z" fill="#B4B4B4"/><path d="m31.284 69.142.343-1.354h.413l.102-.343h-.425c.122-.494.282-.855.48-1.084.122-.142.24-.214.355-.214a.08.08 0 0 1 .057.021.069.069 0 0 1 .022.053c0 .02-.016.056-.048.111a.308.308 0 0 0-.048.155c0 .069.025.127.076.176.05.049.115.073.193.073a.28.28 0 0 0 .211-.089.336.336 0 0 0 .085-.242.352.352 0 0 0-.127-.281c-.085-.072-.221-.108-.409-.108a1.33 1.33 0 0 0-.797.257c-.238.172-.465.457-.68.853-.074.137-.144.225-.21.264-.067.039-.173.057-.32.055l-.096.343h.407l-.598 2.34a8.88 8.88 0 0 1-.202.713.85.85 0 0 1-.232.334.215.215 0 0 1-.149.056.062.062 0 0 1-.04-.015l-.016-.02c0-.01.015-.03.044-.06.03-.031.044-.077.044-.14a.225.225 0 0 0-.07-.17c-.047-.045-.114-.067-.202-.067-.106 0-.19.03-.255.088a.272.272 0 0 0-.097.208c0 .086.04.16.117.224.079.063.2.095.367.095.263 0 .497-.069.701-.206.204-.138.383-.35.535-.638.152-.287.309-.75.469-1.388Zm14.997-1.36.507-1.766h-.176l-.979.172-.032.118c.111-.006.194.01.25.05.038.027.058.064.058.11 0 .056-.022.156-.065.303l-.896 3.108c.36.19.7.284 1.022.284.434 0 .82-.183 1.16-.548.383-.414.575-.885.575-1.412 0-.22-.058-.415-.175-.584-.116-.17-.291-.254-.526-.254a.7.7 0 0 0-.336.084c-.104.055-.233.167-.387.335Zm-4.573.117h1.409v-1.406h.384V67.9h1.409v.387H43.5v1.395h-.383v-1.395h-1.41V67.9Zm-3.36-.495-.57 1.949-.058.237a.365.365 0 0 0-.008.064c0 .024.008.044.024.062.017.017.034.026.052.026.04 0 .097-.031.17-.094.029-.025.1-.115.21-.27l.103.054c-.139.254-.287.439-.444.555a.838.838 0 0 1-.508.174c-.111 0-.196-.029-.255-.086a.293.293 0 0 1-.088-.219c0-.076.031-.217.094-.424l.07-.238c-.226.389-.444.664-.653.826a.62.62 0 0 1-.387.141c-.18 0-.31-.074-.39-.221a1.029 1.029 0 0 1-.12-.5c0-.275.084-.59.252-.947.168-.357.389-.643.663-.86.224-.18.435-.27.632-.27.11 0 .198.032.264.096.066.063.115.179.146.347l.106-.36.694-.042Zm1.42-.04-1.022.175-.02.111a.99.99 0 0 1 .193-.023c.101 0 .185.044.252.132.105.136.251.552.439 1.248a6.432 6.432 0 0 1-.302.387.885.885 0 0 1-.222.19.325.325 0 0 1-.153.035.581.581 0 0 1-.21-.07.428.428 0 0 0-.18-.047c-.1 0-.181.032-.246.097a.334.334 0 0 0-.096.246c0 .094.03.17.09.228a.33.33 0 0 0 .24.088c.099 0 .19-.02.276-.061.086-.041.194-.129.324-.263.13-.133.309-.346.538-.637.087.278.164.48.228.605a.703.703 0 0 0 .221.273.549.549 0 0 0 .312.083.641.641 0 0 0 .37-.132c.164-.113.331-.308.503-.586l-.105-.061c-.117.164-.204.266-.26.307a.228.228 0 0 1-.133.039c-.06 0-.12-.038-.178-.115-.1-.129-.233-.486-.399-1.072.149-.262.274-.433.375-.513a.373.373 0 0 1 .234-.088c.032 0 .088.012.169.034a.818.818 0 0 0 .215.034c.086 0 .158-.03.216-.09a.317.317 0 0 0 .086-.23c0-.1-.029-.178-.086-.237-.058-.058-.14-.088-.248-.088a.562.562 0 0 0-.271.07c-.085.045-.193.144-.324.296a7.125 7.125 0 0 0-.433.595 2.93 2.93 0 0 0-.393-.96Zm-4.274.067h-3.205v.38h3.205v-.38Zm1.916.53c0-.158-.025-.272-.073-.343a.168.168 0 0 0-.144-.073c-.06 0-.123.03-.188.088-.13.12-.272.367-.423.737-.151.37-.227.69-.227.96 0 .103.017.177.051.223.035.046.072.07.113.07.088 0 .177-.052.267-.153a2.38 2.38 0 0 0 .348-.53c.184-.368.276-.694.276-.98Zm8.502 2.033a.475.475 0 0 1-.25-.088l.4-1.377c.08-.279.153-.462.222-.548.101-.132.22-.199.357-.199a.28.28 0 0 1 .217.109c.063.072.094.177.094.316 0 .244-.041.49-.123.735a2.427 2.427 0 0 1-.306.63c-.123.174-.24.294-.35.36a.51.51 0 0 1-.261.062ZM35.494 68.39h-3.205v.38h3.205v-.38Z" fill="#B4B4B4"/><path d="M21.3 8.001c-.551 4.486-4.5 4.016-4.5 4.016M4.7 8.015c.55-4.485 4.3-4 4.3-4l-4.3 4Zm8.3.016c-.55-4.486-4.5-4.016-4.5-4.016L13 8.031ZM13 8c.55 4.486 4.395 4.027 4.5 4.015L13 8Z" stroke="#fff" stroke-linecap="round"/><path d="M5 26.534v-7h8v7h8v-7" stroke="#B4B4B4" stroke-linecap="round" stroke-linejoin="round"/><path d="M4 37.11c.043-1.023.745-4.58 1-4 .255.579.4 5.933.9 6.933s.63-3.502 1.1-2.934c.47.569.312 5.727.779 5.208.467-.52.666-6.406 1.221-7.208.555-.802.465 4.267 1 4 .535-.266.64-5.565 1.14-5.065.5.5.395 6.049.86 7.065.465 1.017.506-3.277 1-3 .494.277.517 4.736 1 4 .483-.736.431-6.194.931-6.944s.591 4.216 1.069 3.944c.478-.272.343-5.532.843-5.032.5.5.618 6.024 1.157 7.032.54 1.008.515-2.725 1-3 .485-.275.441 3.15.941 1.9.5-1.25.544-6.175 1.059-6.9.515-.725 1 4 1 4" stroke="#B4B4B4" stroke-width=".75"/><path d="m18 52.853 3 4-3-4Zm-13 4 3-8-3 8Zm13-4h-7 7Zm-10-4 3 4-3-4Z" stroke="#B4B4B4" stroke-linecap="round" stroke-linejoin="round"/><path fill-rule="evenodd" clip-rule="evenodd" d="M11 64.5a.5.5 0 1 1 1 0 .5.5 0 0 1-1 0Zm.009.871c-.43.154-.774.45-1.079.852-.483.64-.834 1.508-1.216 2.463l-.015.037c-.364.91-.76 1.9-1.331 2.656-.486.643-1.116 1.141-1.969 1.31a1 1 0 1 1-.077-1.008c.511-.133.905-.45 1.248-.904.483-.64.834-1.508 1.216-2.463l.015-.037c.364-.91.76-1.9 1.331-2.657.364-.481.809-.882 1.368-1.123a1 1 0 1 1 1.886.468 19.644 19.644 0 0 0 1.043 2.028c.365.609.779 1.195 1.206 1.622.192.192.372.337.538.44a.997.997 0 0 1 .392-.053 12.846 12.846 0 0 1 1.165-1.81c.675-.866 1.63-1.82 2.813-2.233a1 1 0 1 1 .233.98c-.858.332-1.627 1.059-2.256 1.868a11.748 11.748 0 0 0-1.12 1.755 1 1 0 1 1-1.883.257 4.264 4.264 0 0 1-.59-.497c-.51-.51-.971-1.174-1.356-1.815A19.659 19.659 0 0 1 11.53 65.5H11.5a.996.996 0 0 1-.491-.129ZM4.5 71.75a.5.5 0 1 0 0 1 .5.5 0 0 0 0-1Zm11-2.25a.5.5 0 1 0 0 1 .5.5 0 0 0 0-1Zm4.5-4.25a.5.5 0 1 1 1 0 .5.5 0 0 1-1 0Z" fill="#B4B4B4"/><path d="M2.5 1h46V0h-46v1ZM50 2.5v71h1v-71h-1ZM48.5 75h-46v1h46v-1ZM1 73.5v-71H0v71h1ZM2.5 75A1.5 1.5 0 0 1 1 73.5H0A2.5 2.5 0 0 0 2.5 76v-1ZM50 73.5a1.5 1.5 0 0 1-1.5 1.5v1a2.5 2.5 0 0 0 2.5-2.5h-1ZM48.5 1A1.5 1.5 0 0 1 50 2.5h1A2.5 2.5 0 0 0 48.5 0v1Zm-46-1A2.5 2.5 0 0 0 0 2.5h1A1.5 1.5 0 0 1 2.5 1V0Z" fill="#000"/><path d="M.5 78.5a2 2 0 0 1 2-2h46a2 2 0 0 1 2 2v71a2 2 0 0 1-2 2h-46a2 2 0 0 1-2-2v-71Z" fill="#242424"/><path opacity=".75" d="M25 91H1v1h24v-1ZM25 106H1v1h24v-1ZM25 121H1v1h24v-1ZM25 136H1v1h24v-1ZM25 77v74h1V77h-1Z" fill="#000"/><path d="M48.5 78.5h-21v11h21v-11Z" fill="#7432FF"/><path d="M47.5 78.5h-19a1 1 0 0 0-1 1v9a1 1 0 0 0 1 1h19a1 1 0 0 0 1-1v-9a1 1 0 0 0-1-1Z" fill="#7432FF"/><path d="M47.5 78.5h-19a1 1 0 0 0-1 1v9a1 1 0 0 0 1 1h19a1 1 0 0 0 1-1v-9a1 1 0 0 0-1-1Z" stroke="#7432FF"/><path opacity=".75" d="M50 91H26v1h24v-1ZM50 106H26v1h24v-1ZM50 121H26v1h24v-1ZM50 136H26v1h24v-1Z" fill="#000"/><path d="m46.55 84.016-4 4-8-8-4.3 4" stroke="#fff" stroke-linecap="round"/><path d="m38.4 95.016 8 8-8-8Zm-8 8v-8 8Zm8-8v8-8Zm-8 0 8 8-8-8ZM39.4 117.016h2-2Zm-8-3v-4 4Zm8 3v-6 6Zm-6-7v3-3Zm10 2v1.5-1.5Zm-8 1v5-5Zm6 .5v3.5-3.5Zm4-1.5v4-4Zm-8-1v7-7Zm-6-1h2-2Zm2 3h2-2Zm2 5h2-2Zm2-7h2-2Zm4 2.5h2-2Zm2-1.5h2-2Zm-14 2h2-2Zm16 2h2-2Z" stroke="#B4B4B4" stroke-linecap="round" stroke-linejoin="round"/><path fill-rule="evenodd" clip-rule="evenodd" d="M29 134.016h2v-5h-2v5Zm16.8 0h2v-5h-2v5Zm-12.7-2h-2v-3h2v3Zm12.6 0h-2v-3h2v3Zm-12.5-2.75h2v-.5h-2v.5Zm10.4 0h-2v-.5h2v.5Zm-8.3-.25h2v-3h-2v3Zm4.1 0h-2v-5h2v5Zm.1 0h2v-3h-2v3Z" fill="#B4B4B4"/><path d="m31.284 145.142.343-1.354h.413l.102-.343h-.425c.122-.494.282-.855.48-1.084.122-.142.24-.214.355-.214.024 0 .043.007.057.021a.069.069 0 0 1 .022.053.3.3 0 0 1-.048.111.308.308 0 0 0-.048.155c0 .069.025.127.076.176.05.049.115.073.193.073a.277.277 0 0 0 .211-.089.337.337 0 0 0 .085-.242.351.351 0 0 0-.127-.281c-.085-.072-.221-.108-.409-.108-.293 0-.559.086-.797.257-.238.172-.465.456-.68.853-.074.137-.144.225-.21.264-.067.039-.173.057-.32.055l-.096.343h.407l-.598 2.341c-.1.385-.167.622-.202.712a.851.851 0 0 1-.232.334.215.215 0 0 1-.149.055.06.06 0 0 1-.04-.014l-.016-.021c0-.009.015-.029.044-.06.03-.03.044-.076.044-.139a.226.226 0 0 0-.07-.17c-.047-.045-.114-.067-.202-.067a.362.362 0 0 0-.255.088.271.271 0 0 0-.097.208c0 .086.04.16.117.224.079.063.2.095.367.095.263 0 .497-.069.701-.207.204-.137.383-.35.535-.637.152-.287.309-.75.469-1.388Zm14.997-1.36.507-1.766h-.176l-.979.172-.032.118c.111-.006.194.01.25.049a.13.13 0 0 1 .058.112c0 .054-.022.155-.065.302l-.896 3.108c.36.189.7.284 1.022.284.434 0 .82-.182 1.16-.548.383-.414.575-.884.575-1.412 0-.221-.058-.415-.175-.584-.116-.169-.291-.254-.526-.254a.697.697 0 0 0-.336.084c-.104.055-.233.167-.387.335Zm-4.573.117h1.409v-1.406h.384v1.406h1.409v.387H43.5v1.395h-.383v-1.395h-1.41v-.387Zm-3.36-.495-.57 1.949-.058.237a.366.366 0 0 0-.008.064c0 .024.008.044.024.062.017.017.034.026.052.026.04 0 .097-.031.17-.094.029-.025.1-.115.21-.269l.103.053c-.139.254-.287.439-.444.555a.84.84 0 0 1-.508.174c-.111 0-.196-.029-.255-.086a.295.295 0 0 1-.088-.219c0-.076.031-.217.094-.424l.07-.238c-.226.389-.444.664-.653.827a.625.625 0 0 1-.387.14.411.411 0 0 1-.39-.221 1.031 1.031 0 0 1-.12-.5c0-.275.084-.591.252-.947.168-.357.389-.643.663-.86.224-.18.435-.27.632-.27.11 0 .198.032.264.095.066.064.115.18.146.348l.106-.361.694-.041Zm1.42-.041-1.022.176-.02.111c.075-.015.14-.023.193-.023.101 0 .185.044.252.132.105.137.251.553.439 1.248a6.71 6.71 0 0 1-.302.387.888.888 0 0 1-.222.19.33.33 0 0 1-.153.035.577.577 0 0 1-.21-.07.431.431 0 0 0-.18-.047.332.332 0 0 0-.342.343c0 .093.03.17.09.228.059.059.14.088.24.088a.63.63 0 0 0 .276-.061c.086-.041.194-.129.324-.263.13-.133.309-.346.538-.637.087.278.164.479.228.605a.708.708 0 0 0 .221.273.554.554 0 0 0 .312.083.641.641 0 0 0 .37-.132c.164-.113.331-.308.503-.586l-.105-.061c-.117.164-.204.266-.26.307a.224.224 0 0 1-.133.039c-.06 0-.12-.039-.178-.115-.1-.129-.233-.486-.399-1.072.149-.262.274-.433.375-.513a.376.376 0 0 1 .234-.088c.032 0 .088.012.169.034a.799.799 0 0 0 .215.034c.086 0 .158-.03.216-.09a.316.316 0 0 0 .086-.23.325.325 0 0 0-.086-.237.334.334 0 0 0-.248-.088.56.56 0 0 0-.271.069c-.085.046-.193.145-.324.297a7.305 7.305 0 0 0-.433.595 2.936 2.936 0 0 0-.393-.961Zm-4.274.068h-3.205v.381h3.205v-.381Zm1.916.53c0-.158-.025-.273-.073-.343a.167.167 0 0 0-.144-.073c-.06 0-.123.029-.188.088-.13.121-.272.367-.423.737-.151.37-.227.69-.227.959 0 .104.017.178.051.224.035.046.072.069.113.069.088 0 .177-.051.267-.152.129-.145.245-.322.348-.531.184-.367.276-.693.276-.978Zm8.502 2.033a.472.472 0 0 1-.25-.088l.4-1.377c.08-.279.153-.462.222-.548.101-.132.22-.199.357-.199.082 0 .154.036.217.109.063.072.094.177.094.316 0 .244-.041.489-.123.735a2.431 2.431 0 0 1-.306.63 1.256 1.256 0 0 1-.35.361.51.51 0 0 1-.261.061Zm-10.418-1.605h-3.205v.381h3.205v-.381Z" fill="#B4B4B4"/><path d="M21.3 84.001c-.551 4.486-4.5 4.016-4.5 4.016M4.7 84.015c.55-4.485 4.3-4 4.3-4l-4.3 4Zm8.3.016c-.55-4.486-4.5-4.016-4.5-4.016l4.5 4.016ZM13 84c.55 4.486 4.395 4.027 4.5 4.015L13 84Z" stroke="#B4B4B4" stroke-linecap="round"/><path d="M5 102.534v-7h8v7h8v-7" stroke="#B4B4B4" stroke-linecap="round" stroke-linejoin="round"/><path d="M4 113.109c.043-1.022.745-4.579 1-4 .255.58.4 5.934.9 6.934s.63-3.502 1.1-2.934c.47.569.312 5.727.779 5.208.467-.519.666-6.406 1.221-7.208.555-.802.465 4.267 1 4 .535-.266.64-5.565 1.14-5.065.5.5.395 6.049.86 7.065.465 1.017.506-3.277 1-3 .494.278.517 4.737 1 4 .483-.736.431-6.194.931-6.944s.591 4.216 1.069 3.944c.478-.272.343-5.532.843-5.032.5.5.618 6.024 1.157 7.032.54 1.008.515-2.725 1-3 .485-.275.441 3.151.941 1.901.5-1.25.544-6.176 1.059-6.901.515-.725 1 4 1 4" stroke="#B4B4B4" stroke-width=".75"/><path d="m18 128.854 3 4-3-4Zm-13 4 3-8-3 8Zm13-4h-7 7Zm-10-4 3 4-3-4Z" stroke="#B4B4B4" stroke-linecap="round" stroke-linejoin="round"/><path fill-rule="evenodd" clip-rule="evenodd" d="M11 140.5a.5.5 0 1 1 1 0 .5.5 0 0 1-1 0Zm.009.871c-.43.154-.774.449-1.079.852-.483.639-.834 1.508-1.216 2.463l-.015.037c-.364.91-.76 1.899-1.331 2.656-.486.643-1.116 1.141-1.969 1.309a1 1 0 1 1-.077-1.008c.511-.132.905-.449 1.248-.903.483-.639.834-1.508 1.216-2.463l.015-.037c.364-.91.76-1.9 1.331-2.657.364-.481.809-.882 1.368-1.123a1 1 0 1 1 1.886.468c.045.103.1.222.16.355.215.459.52 1.067.883 1.673.365.609.779 1.195 1.206 1.622.192.192.372.337.538.44a.984.984 0 0 1 .392-.053l.107-.198c.243-.437.6-1.023 1.058-1.611.675-.867 1.63-1.822 2.813-2.234a1 1 0 1 1 .233.98c-.858.332-1.627 1.059-2.256 1.868a11.685 11.685 0 0 0-1.12 1.755 1 1 0 1 1-1.884.258 4.317 4.317 0 0 1-.588-.498c-.51-.51-.972-1.174-1.357-1.815a19.644 19.644 0 0 1-1.042-2.007H11.5a.995.995 0 0 1-.491-.129ZM4.5 147.75a.5.5 0 1 0 0 1 .5.5 0 0 0 0-1Zm11-2.25a.5.5 0 1 0 0 1 .5.5 0 0 0 0-1Zm4.5-4.25a.5.5 0 1 1 1 0 .5.5 0 0 1-1 0Z" fill="#B4B4B4"/><path d="M2.5 77h46v-1h-46v1ZM50 78.5v71h1v-71h-1ZM48.5 151h-46v1h46v-1ZM1 149.5v-71H0v71h1Zm1.5 1.5a1.5 1.5 0 0 1-1.5-1.5H0a2.5 2.5 0 0 0 2.5 2.5v-1Zm47.5-1.5a1.5 1.5 0 0 1-1.5 1.5v1a2.5 2.5 0 0 0 2.5-2.5h-1ZM48.5 77a1.5 1.5 0 0 1 1.5 1.5h1a2.5 2.5 0 0 0-2.5-2.5v1Zm-46-1A2.5 2.5 0 0 0 0 78.5h1A1.5 1.5 0 0 1 2.5 77v-1Z" fill="#000"/><path d="M.5 154.5a2 2 0 0 1 2-2h46a2 2 0 0 1 2 2v71a2 2 0 0 1-2 2h-46a2 2 0 0 1-2-2v-71Z" fill="#242424"/><path opacity=".75" d="M25 167H1v1h24v-1Z" fill="#000"/><path d="M23.5 169.5h-21v11h21v-11Z" fill="#7432FF"/><path d="M22.5 169.5h-19a1 1 0 0 0-1 1v9a1 1 0 0 0 1 1h19a1 1 0 0 0 1-1v-9a1 1 0 0 0-1-1Z" fill="#7432FF"/><path d="M22.5 169.5h-19a1 1 0 0 0-1 1v9a1 1 0 0 0 1 1h19a1 1 0 0 0 1-1v-9a1 1 0 0 0-1-1Z" stroke="#7432FF"/><path opacity=".75" d="M25 182H1v1h24v-1ZM25 197H1v1h24v-1ZM25 212H1v1h24v-1ZM25 153v74h1v-74h-1ZM50 167H26v1h24v-1ZM50 182H26v1h24v-1ZM50 197H26v1h24v-1ZM50 212H26v1h24v-1Z" fill="#000"/><path d="m46.55 160.016-4 4-8-8-4.3 4" stroke="#B4B4B4" stroke-linecap="round"/><path d="m38.4 171.016 8 8-8-8Zm-8 8v-8 8Zm8-8v8-8Zm-8 0 8 8-8-8ZM39.4 193.016h2-2Zm-8-3v-4 4Zm8 3v-6 6Zm-6-7v3-3Zm10 2v1.5-1.5Zm-8 1v5-5Zm6 .5v3.5-3.5Zm4-1.5v4-4Zm-8-1v7-7Zm-6-1h2-2Zm2 3h2-2Zm2 5h2-2Zm2-7h2-2Zm4 2.5h2-2Zm2-1.5h2-2Zm-14 2h2-2Zm16 2h2-2Z" stroke="#B4B4B4" stroke-linecap="round" stroke-linejoin="round"/><path fill-rule="evenodd" clip-rule="evenodd" d="M29 210.016h2v-5h-2v5Zm16.8 0h2v-5h-2v5Zm-12.7-2h-2v-3h2v3Zm12.6 0h-2v-3h2v3Zm-12.5-2.75h2v-.5h-2v.5Zm10.4 0h-2v-.5h2v.5Zm-8.3-.25h2v-3h-2v3Zm4.1 0h-2v-5h2v5Zm.1 0h2v-3h-2v3Z" fill="#B4B4B4"/><path d="m31.284 221.142.343-1.354h.413l.102-.343h-.425c.122-.494.282-.855.48-1.084.122-.142.24-.214.355-.214.024 0 .043.007.057.021a.069.069 0 0 1 .022.053.3.3 0 0 1-.048.111.308.308 0 0 0-.048.155c0 .069.025.127.076.176.05.049.115.073.193.073a.277.277 0 0 0 .211-.089.337.337 0 0 0 .085-.242.351.351 0 0 0-.127-.281c-.085-.072-.221-.108-.409-.108-.293 0-.559.086-.797.257-.238.172-.465.456-.68.853-.074.137-.144.225-.21.264-.067.039-.173.057-.32.055l-.096.343h.407l-.598 2.341c-.1.385-.167.622-.202.712a.851.851 0 0 1-.232.334.215.215 0 0 1-.149.055.06.06 0 0 1-.04-.014l-.016-.021c0-.009.015-.029.044-.06.03-.03.044-.076.044-.139a.226.226 0 0 0-.07-.17c-.047-.045-.114-.067-.202-.067a.362.362 0 0 0-.255.088.271.271 0 0 0-.097.208c0 .086.04.16.117.224.079.063.2.095.367.095.263 0 .497-.069.701-.207.204-.137.383-.35.535-.637.152-.287.309-.75.469-1.388Zm14.997-1.36.507-1.766h-.176l-.979.172-.032.118c.111-.006.194.01.25.049a.13.13 0 0 1 .058.112c0 .054-.022.155-.065.302l-.896 3.108c.36.189.7.284 1.022.284.434 0 .82-.182 1.16-.548.383-.414.575-.884.575-1.412 0-.221-.058-.415-.175-.584-.116-.169-.291-.254-.526-.254a.697.697 0 0 0-.336.084c-.104.055-.233.167-.387.335Zm-4.573.117h1.409v-1.406h.384v1.406h1.409v.387H43.5v1.395h-.383v-1.395h-1.41v-.387Zm-3.36-.495-.57 1.949-.058.237a.366.366 0 0 0-.008.064c0 .024.008.044.024.062.017.017.034.026.052.026.04 0 .097-.031.17-.094.029-.025.1-.115.21-.269l.103.053c-.139.254-.287.439-.444.555a.84.84 0 0 1-.508.174c-.111 0-.196-.029-.255-.086a.295.295 0 0 1-.088-.219c0-.076.031-.217.094-.424l.07-.238c-.226.389-.444.664-.653.827a.625.625 0 0 1-.387.14.411.411 0 0 1-.39-.221 1.031 1.031 0 0 1-.12-.5c0-.275.084-.591.252-.947.168-.357.389-.643.663-.86.224-.18.435-.27.632-.27.11 0 .198.032.264.095.066.064.115.18.146.348l.106-.361.694-.041Zm1.42-.041-1.022.176-.02.111c.075-.015.14-.023.193-.023.101 0 .185.044.252.132.105.137.251.553.439 1.248a6.71 6.71 0 0 1-.302.387.888.888 0 0 1-.222.19.33.33 0 0 1-.153.035.577.577 0 0 1-.21-.07.431.431 0 0 0-.18-.047.332.332 0 0 0-.342.343c0 .093.03.17.09.228.059.059.14.088.24.088a.63.63 0 0 0 .276-.061c.086-.041.194-.129.324-.263.13-.133.309-.346.538-.637.087.278.164.479.228.605a.708.708 0 0 0 .221.273.554.554 0 0 0 .312.083.641.641 0 0 0 .37-.132c.164-.113.331-.308.503-.586l-.105-.061c-.117.164-.204.266-.26.307a.224.224 0 0 1-.133.039c-.06 0-.12-.039-.178-.115-.1-.129-.233-.486-.399-1.072.149-.262.274-.433.375-.513a.376.376 0 0 1 .234-.088c.032 0 .088.012.169.034a.799.799 0 0 0 .215.034c.086 0 .158-.03.216-.09a.316.316 0 0 0 .086-.23.325.325 0 0 0-.086-.237.334.334 0 0 0-.248-.088.56.56 0 0 0-.271.069c-.085.046-.193.145-.324.297a7.305 7.305 0 0 0-.433.595 2.936 2.936 0 0 0-.393-.961Zm-4.274.068h-3.205v.381h3.205v-.381Zm1.916.53c0-.158-.025-.273-.073-.343a.167.167 0 0 0-.144-.073c-.06 0-.123.029-.188.088-.13.121-.272.367-.423.737-.151.37-.227.69-.227.959 0 .104.017.178.051.224.035.046.072.069.113.069.088 0 .177-.051.267-.152.129-.145.245-.322.348-.531.184-.367.276-.693.276-.978Zm8.502 2.033a.472.472 0 0 1-.25-.088l.4-1.377c.08-.279.153-.462.222-.548.101-.132.22-.199.357-.199.082 0 .154.036.217.109.063.072.094.177.094.316 0 .244-.041.489-.123.735a2.431 2.431 0 0 1-.306.63 1.256 1.256 0 0 1-.35.361.51.51 0 0 1-.261.061Zm-10.418-1.605h-3.205v.381h3.205v-.381Z" fill="#B4B4B4"/><path d="M21.3 160.001c-.551 4.486-4.5 4.016-4.5 4.016m-12.1-4.002c.55-4.485 4.3-4 4.3-4l-4.3 4Zm8.3.016c-.55-4.486-4.5-4.016-4.5-4.016l4.5 4.016Zm0-.031c.55 4.486 4.395 4.027 4.5 4.015L13 160Z" stroke="#B4B4B4" stroke-linecap="round"/><path d="M5 178.534v-7h8v7h8v-7" stroke="#fff" stroke-linecap="round" stroke-linejoin="round"/><path d="M4 189.109c.043-1.022.745-4.579 1-4 .255.58.4 5.934.9 6.934s.63-3.502 1.1-2.934c.47.569.312 5.727.779 5.208.467-.519.666-6.406 1.221-7.208.555-.802.465 4.267 1 4 .535-.266.64-5.565 1.14-5.065.5.5.395 6.049.86 7.065.465 1.017.506-3.277 1-3 .494.278.517 4.737 1 4 .483-.736.431-6.194.931-6.944s.591 4.216 1.069 3.944c.478-.272.343-5.532.843-5.032.5.5.618 6.024 1.157 7.032.54 1.008.515-2.725 1-3 .485-.275.441 3.151.941 1.901.5-1.25.544-6.176 1.059-6.901.515-.725 1 4 1 4" stroke="#B4B4B4" stroke-width=".75"/><path d="m18 204.854 3 4-3-4Zm-13 4 3-8-3 8Zm13-4h-7 7Zm-10-4 3 4-3-4Z" stroke="#B4B4B4" stroke-linecap="round" stroke-linejoin="round"/><path fill-rule="evenodd" clip-rule="evenodd" d="M11 216.5a.5.5 0 1 1 1 0 .5.5 0 0 1-1 0Zm.009.871c-.43.154-.774.449-1.079.852-.483.639-.834 1.508-1.216 2.463l-.015.037c-.364.91-.76 1.899-1.331 2.656-.486.643-1.116 1.141-1.969 1.309a1 1 0 1 1-.077-1.008c.511-.132.905-.449 1.248-.903.483-.639.834-1.508 1.216-2.463l.015-.037c.364-.91.76-1.9 1.331-2.657.364-.481.809-.882 1.368-1.123a1 1 0 1 1 1.886.468c.045.103.1.222.16.355.215.459.52 1.067.883 1.673.365.609.779 1.195 1.206 1.622.192.192.372.337.538.44a.984.984 0 0 1 .392-.053l.107-.198c.243-.437.6-1.023 1.058-1.611.675-.867 1.63-1.822 2.813-2.234a1 1 0 1 1 .233.98c-.858.332-1.627 1.059-2.256 1.868a11.685 11.685 0 0 0-1.12 1.755 1 1 0 1 1-1.884.258 4.317 4.317 0 0 1-.588-.498c-.51-.51-.972-1.174-1.357-1.815a19.644 19.644 0 0 1-1.042-2.007H11.5a.995.995 0 0 1-.491-.129ZM4.5 223.75a.5.5 0 1 0 0 1 .5.5 0 0 0 0-1Zm11-2.25a.5.5 0 1 0 0 1 .5.5 0 0 0 0-1Zm4.5-4.25a.5.5 0 1 1 1 0 .5.5 0 0 1-1 0Z" fill="#B4B4B4"/><path d="M2.5 153h46v-1h-46v1Zm47.5 1.5v71h1v-71h-1ZM48.5 227h-46v1h46v-1ZM1 225.5v-71H0v71h1Zm1.5 1.5a1.5 1.5 0 0 1-1.5-1.5H0a2.5 2.5 0 0 0 2.5 2.5v-1Zm47.5-1.5a1.5 1.5 0 0 1-1.5 1.5v1a2.5 2.5 0 0 0 2.5-2.5h-1ZM48.5 153a1.5 1.5 0 0 1 1.5 1.5h1a2.5 2.5 0 0 0-2.5-2.5v1Zm-46-1a2.5 2.5 0 0 0-2.5 2.5h1a1.5 1.5 0 0 1 1.5-1.5v-1Z" fill="#000"/><path d="M.5 230.5a2 2 0 0 1 2-2h46a2 2 0 0 1 2 2v71a2 2 0 0 1-2 2h-46a2 2 0 0 1-2-2v-71Z" fill="#242424"/><path opacity=".75" d="M25 243H1v1h24v-1ZM25 258H1v1h24v-1ZM25 273H1v1h24v-1ZM25 288H1v1h24v-1ZM25 229v74h1v-74h-1ZM50 243H26v1h24v-1Z" fill="#000"/><path d="M48.5 245.5h-21v11h21v-11Z" fill="#7432FF"/><path d="M47.5 245.5h-19a1 1 0 0 0-1 1v9a1 1 0 0 0 1 1h19a1 1 0 0 0 1-1v-9a1 1 0 0 0-1-1Z" fill="#7432FF"/><path d="M47.5 245.5h-19a1 1 0 0 0-1 1v9a1 1 0 0 0 1 1h19a1 1 0 0 0 1-1v-9a1 1 0 0 0-1-1Z" stroke="#7432FF"/><path opacity=".75" d="M50 258H26v1h24v-1ZM50 273H26v1h24v-1ZM50 288H26v1h24v-1Z" fill="#000"/><path d="m46.55 236.016-4 4-8-8-4.3 4" stroke="#B4B4B4" stroke-linecap="round"/><path d="m38.4 247.016 8 8-8-8Zm-8 8v-8 8Zm8-8v8-8Zm-8 0 8 8-8-8Z" stroke="#fff" stroke-linecap="round" stroke-linejoin="round"/><path d="M39.4 269.016h2-2Zm-8-3v-4 4Zm8 3v-6 6Zm-6-7v3-3Zm10 2v1.5-1.5Zm-8 1v5-5Zm6 .5v3.5-3.5Zm4-1.5v4-4Zm-8-1v7-7Zm-6-1h2-2Zm2 3h2-2Zm2 5h2-2Zm2-7h2-2Zm4 2.5h2-2Zm2-1.5h2-2Zm-14 2h2-2Zm16 2h2-2Z" stroke="#B4B4B4" stroke-linecap="round" stroke-linejoin="round"/><path fill-rule="evenodd" clip-rule="evenodd" d="M29 286.016h2v-5h-2v5Zm16.8 0h2v-5h-2v5Zm-12.7-2h-2v-3h2v3Zm12.6 0h-2v-3h2v3Zm-12.5-2.75h2v-.5h-2v.5Zm10.4 0h-2v-.5h2v.5Zm-8.3-.25h2v-3h-2v3Zm4.1 0h-2v-5h2v5Zm.1 0h2v-3h-2v3Z" fill="#B4B4B4"/><path d="m31.284 297.142.343-1.354h.413l.102-.343h-.425c.122-.494.282-.855.48-1.084.122-.142.24-.214.355-.214.024 0 .043.007.057.021a.069.069 0 0 1 .022.053.3.3 0 0 1-.048.111.308.308 0 0 0-.048.155c0 .069.025.127.076.176.05.049.115.073.193.073a.277.277 0 0 0 .211-.089.337.337 0 0 0 .085-.242.351.351 0 0 0-.127-.281c-.085-.072-.221-.108-.409-.108-.293 0-.559.086-.797.257-.238.172-.465.456-.68.853-.074.137-.144.225-.21.264-.067.039-.173.057-.32.055l-.096.343h.407l-.598 2.341c-.1.385-.167.622-.202.712a.851.851 0 0 1-.232.334.215.215 0 0 1-.149.055.06.06 0 0 1-.04-.014l-.016-.021c0-.009.015-.029.044-.06.03-.03.044-.076.044-.139a.226.226 0 0 0-.07-.17c-.047-.045-.114-.067-.202-.067a.362.362 0 0 0-.255.088.271.271 0 0 0-.097.208c0 .086.04.16.117.224.079.063.2.095.367.095.263 0 .497-.069.701-.207.204-.137.383-.35.535-.637.152-.287.309-.75.469-1.388Zm14.997-1.36.507-1.766h-.176l-.979.172-.032.118c.111-.006.194.01.25.049a.13.13 0 0 1 .058.112c0 .054-.022.155-.065.302l-.896 3.108c.36.189.7.284 1.022.284.434 0 .82-.182 1.16-.548.383-.414.575-.884.575-1.412 0-.221-.058-.415-.175-.584-.116-.169-.291-.254-.526-.254a.697.697 0 0 0-.336.084c-.104.055-.233.167-.387.335Zm-4.573.117h1.409v-1.406h.384v1.406h1.409v.387H43.5v1.395h-.383v-1.395h-1.41v-.387Zm-3.36-.495-.57 1.949-.058.237a.366.366 0 0 0-.008.064c0 .024.008.044.024.062.017.017.034.026.052.026.04 0 .097-.031.17-.094.029-.025.1-.115.21-.269l.103.053c-.139.254-.287.439-.444.555a.84.84 0 0 1-.508.174c-.111 0-.196-.029-.255-.086a.295.295 0 0 1-.088-.219c0-.076.031-.217.094-.424l.07-.238c-.226.389-.444.664-.653.827a.625.625 0 0 1-.387.14.411.411 0 0 1-.39-.221 1.031 1.031 0 0 1-.12-.5c0-.275.084-.591.252-.947.168-.357.389-.643.663-.86.224-.18.435-.27.632-.27.11 0 .198.032.264.095.066.064.115.18.146.348l.106-.361.694-.041Zm1.42-.041-1.022.176-.02.111c.075-.015.14-.023.193-.023.101 0 .185.044.252.132.105.137.251.553.439 1.248a6.71 6.71 0 0 1-.302.387.888.888 0 0 1-.222.19.33.33 0 0 1-.153.035.577.577 0 0 1-.21-.07.431.431 0 0 0-.18-.047.332.332 0 0 0-.342.343c0 .093.03.17.09.228.059.059.14.088.24.088a.63.63 0 0 0 .276-.061c.086-.041.194-.129.324-.263.13-.133.309-.346.538-.637.087.278.164.479.228.605a.708.708 0 0 0 .221.273.554.554 0 0 0 .312.083.641.641 0 0 0 .37-.132c.164-.113.331-.308.503-.586l-.105-.061c-.117.164-.204.266-.26.307a.224.224 0 0 1-.133.039c-.06 0-.12-.039-.178-.115-.1-.129-.233-.486-.399-1.072.149-.262.274-.433.375-.513a.376.376 0 0 1 .234-.088c.032 0 .088.012.169.034a.799.799 0 0 0 .215.034c.086 0 .158-.03.216-.09a.316.316 0 0 0 .086-.23.325.325 0 0 0-.086-.237.334.334 0 0 0-.248-.088.56.56 0 0 0-.271.069c-.085.046-.193.145-.324.297a7.305 7.305 0 0 0-.433.595 2.936 2.936 0 0 0-.393-.961Zm-4.274.068h-3.205v.381h3.205v-.381Zm1.916.53c0-.158-.025-.273-.073-.343a.167.167 0 0 0-.144-.073c-.06 0-.123.029-.188.088-.13.121-.272.367-.423.737-.151.37-.227.69-.227.959 0 .104.017.178.051.224.035.046.072.069.113.069.088 0 .177-.051.267-.152.129-.145.245-.322.348-.531.184-.367.276-.693.276-.978Zm8.502 2.033a.472.472 0 0 1-.25-.088l.4-1.377c.08-.279.153-.462.222-.548.101-.132.22-.199.357-.199.082 0 .154.036.217.109.063.072.094.177.094.316 0 .244-.041.489-.123.735a2.431 2.431 0 0 1-.306.63 1.256 1.256 0 0 1-.35.361.51.51 0 0 1-.261.061Zm-10.418-1.605h-3.205v.381h3.205v-.381Z" fill="#B4B4B4"/><path d="M21.3 236.001c-.551 4.486-4.5 4.016-4.5 4.016m-12.1-4.002c.55-4.485 4.3-4 4.3-4l-4.3 4Zm8.3.016c-.55-4.486-4.5-4.016-4.5-4.016l4.5 4.016Zm0-.031c.55 4.486 4.395 4.027 4.5 4.015L13 236Z" stroke="#B4B4B4" stroke-linecap="round"/><path d="M5 254.534v-7h8v7h8v-7" stroke="#B4B4B4" stroke-linecap="round" stroke-linejoin="round"/><path d="M4 265.109c.043-1.022.745-4.579 1-4 .255.58.4 5.934.9 6.934s.63-3.502 1.1-2.934c.47.569.312 5.727.779 5.208.467-.519.666-6.406 1.221-7.208.555-.802.465 4.267 1 4 .535-.266.64-5.565 1.14-5.065.5.5.395 6.049.86 7.065.465 1.017.506-3.277 1-3 .494.278.517 4.737 1 4 .483-.736.431-6.194.931-6.944s.591 4.216 1.069 3.944c.478-.272.343-5.532.843-5.032.5.5.618 6.024 1.157 7.032.54 1.008.515-2.725 1-3 .485-.275.441 3.151.941 1.901.5-1.25.544-6.176 1.059-6.901.515-.725 1 4 1 4" stroke="#B4B4B4" stroke-width=".75"/><path d="m18 280.854 3 4-3-4Zm-13 4 3-8-3 8Zm13-4h-7 7Zm-10-4 3 4-3-4Z" stroke="#B4B4B4" stroke-linecap="round" stroke-linejoin="round"/><path fill-rule="evenodd" clip-rule="evenodd" d="M11 292.5a.5.5 0 1 1 1 0 .5.5 0 0 1-1 0Zm.009.871c-.43.154-.774.449-1.079.852-.483.639-.834 1.508-1.216 2.463l-.015.037c-.364.91-.76 1.899-1.331 2.656-.486.643-1.116 1.141-1.969 1.309a1 1 0 1 1-.077-1.008c.511-.132.905-.449 1.248-.903.483-.639.834-1.508 1.216-2.463l.015-.037c.364-.91.76-1.9 1.331-2.657.364-.481.809-.882 1.368-1.123a1 1 0 1 1 1.886.468c.045.103.1.222.16.355.215.459.52 1.067.883 1.673.365.609.779 1.195 1.206 1.622.192.192.372.337.538.44a.984.984 0 0 1 .392-.053l.107-.198c.243-.437.6-1.023 1.058-1.611.675-.867 1.63-1.822 2.813-2.234a1 1 0 1 1 .233.98c-.858.332-1.627 1.059-2.256 1.868a11.685 11.685 0 0 0-1.12 1.755 1 1 0 1 1-1.884.258 4.317 4.317 0 0 1-.588-.498c-.51-.51-.972-1.174-1.357-1.815a19.644 19.644 0 0 1-1.042-2.007H11.5a.995.995 0 0 1-.491-.129ZM4.5 299.75a.5.5 0 1 0 0 1 .5.5 0 0 0 0-1Zm11-2.25a.5.5 0 1 0 0 1 .5.5 0 0 0 0-1Zm4.5-4.25a.5.5 0 1 1 1 0 .5.5 0 0 1-1 0Z" fill="#B4B4B4"/><path d="M2.5 229h46v-1h-46v1Zm47.5 1.5v71h1v-71h-1ZM48.5 303h-46v1h46v-1ZM1 301.5v-71H0v71h1Zm1.5 1.5a1.5 1.5 0 0 1-1.5-1.5H0a2.5 2.5 0 0 0 2.5 2.5v-1Zm47.5-1.5a1.5 1.5 0 0 1-1.5 1.5v1a2.5 2.5 0 0 0 2.5-2.5h-1ZM48.5 229a1.5 1.5 0 0 1 1.5 1.5h1a2.5 2.5 0 0 0-2.5-2.5v1Zm-46-1a2.5 2.5 0 0 0-2.5 2.5h1a1.5 1.5 0 0 1 1.5-1.5v-1Z" fill="#000"/><path d="M.5 306.5a2 2 0 0 1 2-2h46a2 2 0 0 1 2 2v71a2 2 0 0 1-2 2h-46a2 2 0 0 1-2-2v-71Z" fill="#242424"/><path opacity=".75" d="M25 319H1v1h24v-1ZM25 334H1v1h24v-1Z" fill="#000"/><path d="M23.5 336.5h-21v11h21v-11Z" fill="#7432FF"/><path d="M22.5 336.5h-19a1 1 0 0 0-1 1v9a1 1 0 0 0 1 1h19a1 1 0 0 0 1-1v-9a1 1 0 0 0-1-1Z" fill="#7432FF"/><path d="M22.5 336.5h-19a1 1 0 0 0-1 1v9a1 1 0 0 0 1 1h19a1 1 0 0 0 1-1v-9a1 1 0 0 0-1-1Z" stroke="#7432FF"/><path opacity=".75" d="M25 349H1v1h24v-1ZM25 364H1v1h24v-1ZM25 305v74h1v-74h-1ZM50 319H26v1h24v-1ZM50 334H26v1h24v-1ZM50 349H26v1h24v-1ZM50 364H26v1h24v-1Z" fill="#000"/><path d="m46.55 312.016-4 4-8-8-4.3 4" stroke="#B4B4B4" stroke-linecap="round"/><path d="m38.4 323.016 8 8-8-8Zm-8 8v-8 8Zm8-8v8-8Zm-8 0 8 8-8-8ZM39.4 345.016h2-2Zm-8-3v-4 4Zm8 3v-6 6Zm-6-7v3-3Zm10 2v1.5-1.5Zm-8 1v5-5Zm6 .5v3.5-3.5Zm4-1.5v4-4Zm-8-1v7-7Zm-6-1h2-2Zm2 3h2-2Zm2 5h2-2Zm2-7h2-2Zm4 2.5h2-2Zm2-1.5h2-2Zm-14 2h2-2Zm16 2h2-2Z" stroke="#B4B4B4" stroke-linecap="round" stroke-linejoin="round"/><path fill-rule="evenodd" clip-rule="evenodd" d="M29 362.016h2v-5h-2v5Zm16.8 0h2v-5h-2v5Zm-12.7-2h-2v-3h2v3Zm12.6 0h-2v-3h2v3Zm-12.5-2.75h2v-.5h-2v.5Zm10.4 0h-2v-.5h2v.5Zm-8.3-.25h2v-3h-2v3Zm4.1 0h-2v-5h2v5Zm.1 0h2v-3h-2v3Z" fill="#B4B4B4"/><path d="m31.284 373.142.343-1.354h.413l.102-.343h-.425c.122-.494.282-.855.48-1.084.122-.142.24-.214.355-.214.024 0 .043.007.057.021a.069.069 0 0 1 .022.053.3.3 0 0 1-.048.111.308.308 0 0 0-.048.155c0 .069.025.127.076.176.05.049.115.073.193.073a.277.277 0 0 0 .211-.089.337.337 0 0 0 .085-.242.351.351 0 0 0-.127-.281c-.085-.072-.221-.108-.409-.108-.293 0-.559.086-.797.257-.238.172-.465.456-.68.853-.074.137-.144.225-.21.264-.067.039-.173.057-.32.055l-.096.343h.407l-.598 2.341c-.1.385-.167.622-.202.712a.851.851 0 0 1-.232.334.215.215 0 0 1-.149.055.06.06 0 0 1-.04-.014l-.016-.021c0-.009.015-.029.044-.06.03-.03.044-.076.044-.139a.226.226 0 0 0-.07-.17c-.047-.045-.114-.067-.202-.067a.362.362 0 0 0-.255.088.271.271 0 0 0-.097.208c0 .086.04.16.117.224.079.063.2.095.367.095.263 0 .497-.069.701-.207.204-.137.383-.35.535-.637.152-.287.309-.75.469-1.388Zm14.997-1.36.507-1.766h-.176l-.979.172-.032.118c.111-.006.194.01.25.049a.13.13 0 0 1 .058.112c0 .054-.022.155-.065.302l-.896 3.108c.36.189.7.284 1.022.284.434 0 .82-.182 1.16-.548.383-.414.575-.884.575-1.412 0-.221-.058-.415-.175-.584-.116-.169-.291-.254-.526-.254a.697.697 0 0 0-.336.084c-.104.055-.233.167-.387.335Zm-4.573.117h1.409v-1.406h.384v1.406h1.409v.387H43.5v1.395h-.383v-1.395h-1.41v-.387Zm-3.36-.495-.57 1.949-.058.237a.366.366 0 0 0-.008.064c0 .024.008.044.024.062.017.017.034.026.052.026.04 0 .097-.031.17-.094.029-.025.1-.115.21-.269l.103.053c-.139.254-.287.439-.444.555a.84.84 0 0 1-.508.174c-.111 0-.196-.029-.255-.086a.295.295 0 0 1-.088-.219c0-.076.031-.217.094-.424l.07-.238c-.226.389-.444.664-.653.827a.625.625 0 0 1-.387.14.411.411 0 0 1-.39-.221 1.031 1.031 0 0 1-.12-.5c0-.275.084-.591.252-.947.168-.357.389-.643.663-.86.224-.18.435-.27.632-.27.11 0 .198.032.264.095.066.064.115.18.146.348l.106-.361.694-.041Zm1.42-.041-1.022.176-.02.111c.075-.015.14-.023.193-.023.101 0 .185.044.252.132.105.137.251.553.439 1.248a6.71 6.71 0 0 1-.302.387.888.888 0 0 1-.222.19.33.33 0 0 1-.153.035.577.577 0 0 1-.21-.07.431.431 0 0 0-.18-.047.332.332 0 0 0-.342.343c0 .093.03.17.09.228.059.059.14.088.24.088a.63.63 0 0 0 .276-.061c.086-.041.194-.129.324-.263.13-.133.309-.346.538-.637.087.278.164.479.228.605a.708.708 0 0 0 .221.273.554.554 0 0 0 .312.083.641.641 0 0 0 .37-.132c.164-.113.331-.308.503-.586l-.105-.061c-.117.164-.204.266-.26.307a.224.224 0 0 1-.133.039c-.06 0-.12-.039-.178-.115-.1-.129-.233-.486-.399-1.072.149-.262.274-.433.375-.513a.376.376 0 0 1 .234-.088c.032 0 .088.012.169.034a.799.799 0 0 0 .215.034c.086 0 .158-.03.216-.09a.316.316 0 0 0 .086-.23.325.325 0 0 0-.086-.237.334.334 0 0 0-.248-.088.56.56 0 0 0-.271.069c-.085.046-.193.145-.324.297a7.305 7.305 0 0 0-.433.595 2.936 2.936 0 0 0-.393-.961Zm-4.274.068h-3.205v.381h3.205v-.381Zm1.916.53c0-.158-.025-.273-.073-.343a.167.167 0 0 0-.144-.073c-.06 0-.123.029-.188.088-.13.121-.272.367-.423.737-.151.37-.227.69-.227.959 0 .104.017.178.051.224.035.046.072.069.113.069.088 0 .177-.051.267-.152.129-.145.245-.322.348-.531.184-.367.276-.693.276-.978Zm8.502 2.033a.472.472 0 0 1-.25-.088l.4-1.377c.08-.279.153-.462.222-.548.101-.132.22-.199.357-.199.082 0 .154.036.217.109.063.072.094.177.094.316 0 .244-.041.489-.123.735a2.431 2.431 0 0 1-.306.63 1.256 1.256 0 0 1-.35.361.51.51 0 0 1-.261.061Zm-10.418-1.605h-3.205v.381h3.205v-.381Z" fill="#B4B4B4"/><path d="M21.3 312.001c-.551 4.486-4.5 4.016-4.5 4.016m-12.1-4.002c.55-4.485 4.3-4 4.3-4l-4.3 4Zm8.3.016c-.55-4.486-4.5-4.016-4.5-4.016l4.5 4.016Zm0-.031c.55 4.486 4.395 4.027 4.5 4.015L13 312Z" stroke="#B4B4B4" stroke-linecap="round"/><path d="M5 330.534v-7h8v7h8v-7" stroke="#B4B4B4" stroke-linecap="round" stroke-linejoin="round"/><path d="M4 341.109c.043-1.022.745-4.579 1-4 .255.58.4 5.934.9 6.934s.63-3.502 1.1-2.934c.47.569.312 5.727.779 5.208.467-.519.666-6.406 1.221-7.208.555-.802.465 4.267 1 4 .535-.266.64-5.565 1.14-5.065.5.5.395 6.049.86 7.065.465 1.017.506-3.277 1-3 .494.278.517 4.737 1 4 .483-.736.431-6.194.931-6.944s.591 4.216 1.069 3.944c.478-.272.343-5.532.843-5.032.5.5.618 6.024 1.157 7.032.54 1.008.515-2.725 1-3 .485-.275.441 3.151.941 1.901.5-1.25.544-6.176 1.059-6.901.515-.725 1 4 1 4" stroke="#fff" stroke-width=".75"/><path d="m18 356.854 3 4-3-4Zm-13 4 3-8-3 8Zm13-4h-7 7Zm-10-4 3 4-3-4Z" stroke="#B4B4B4" stroke-linecap="round" stroke-linejoin="round"/><path fill-rule="evenodd" clip-rule="evenodd" d="M11 368.5a.5.5 0 1 1 1 0 .5.5 0 0 1-1 0Zm.009.871c-.43.154-.774.449-1.079.852-.483.639-.834 1.508-1.216 2.463l-.015.037c-.364.91-.76 1.899-1.331 2.656-.486.643-1.116 1.141-1.969 1.309a1 1 0 1 1-.077-1.008c.511-.132.905-.449 1.248-.903.483-.639.834-1.508 1.216-2.463l.015-.037c.364-.91.76-1.9 1.331-2.657.364-.481.809-.882 1.368-1.123a1 1 0 1 1 1.886.468c.045.103.1.222.16.355.215.459.52 1.067.883 1.673.365.609.779 1.195 1.206 1.622.192.192.372.337.538.44a.984.984 0 0 1 .392-.053l.107-.198c.243-.437.6-1.023 1.058-1.611.675-.867 1.63-1.822 2.813-2.234a1 1 0 1 1 .233.98c-.858.332-1.627 1.059-2.256 1.868a11.685 11.685 0 0 0-1.12 1.755 1 1 0 1 1-1.884.258 4.317 4.317 0 0 1-.588-.498c-.51-.51-.972-1.174-1.357-1.815a19.644 19.644 0 0 1-1.042-2.007H11.5a.995.995 0 0 1-.491-.129ZM4.5 375.75a.5.5 0 1 0 0 1 .5.5 0 0 0 0-1Zm11-2.25a.5.5 0 1 0 0 1 .5.5 0 0 0 0-1Zm4.5-4.25a.5.5 0 1 1 1 0 .5.5 0 0 1-1 0Z" fill="#B4B4B4"/><path d="M2.5 305h46v-1h-46v1Zm47.5 1.5v71h1v-71h-1ZM48.5 379h-46v1h46v-1ZM1 377.5v-71H0v71h1Zm1.5 1.5a1.5 1.5 0 0 1-1.5-1.5H0a2.5 2.5 0 0 0 2.5 2.5v-1Zm47.5-1.5a1.5 1.5 0 0 1-1.5 1.5v1a2.5 2.5 0 0 0 2.5-2.5h-1ZM48.5 305a1.5 1.5 0 0 1 1.5 1.5h1a2.5 2.5 0 0 0-2.5-2.5v1Zm-46-1a2.5 2.5 0 0 0-2.5 2.5h1a1.5 1.5 0 0 1 1.5-1.5v-1Z" fill="#000"/><path d="M.5 382.5a2 2 0 0 1 2-2h46a2 2 0 0 1 2 2v71a2 2 0 0 1-2 2h-46a2 2 0 0 1-2-2v-71Z" fill="#242424"/><path opacity=".75" d="M25 395H1v1h24v-1ZM25 410H1v1h24v-1ZM25 425H1v1h24v-1ZM25 440H1v1h24v-1ZM25 381v74h1v-74h-1ZM50 395H26v1h24v-1ZM50 410H26v1h24v-1Z" fill="#000"/><path d="M48.5 412.5h-21v11h21v-11Z" fill="#7432FF"/><path d="M47.5 412.5h-19a1 1 0 0 0-1 1v9a1 1 0 0 0 1 1h19a1 1 0 0 0 1-1v-9a1 1 0 0 0-1-1Z" fill="#7432FF"/><path d="M47.5 412.5h-19a1 1 0 0 0-1 1v9a1 1 0 0 0 1 1h19a1 1 0 0 0 1-1v-9a1 1 0 0 0-1-1Z" stroke="#7432FF"/><path opacity=".75" d="M50 425H26v1h24v-1ZM50 440H26v1h24v-1Z" fill="#000"/><path d="m46.55 388.016-4 4-8-8-4.3 4" stroke="#B4B4B4" stroke-linecap="round"/><path d="m38.4 399.016 8 8-8-8Zm-8 8v-8 8Zm8-8v8-8Zm-8 0 8 8-8-8Z" stroke="#B4B4B4" stroke-linecap="round" stroke-linejoin="round"/><path d="M39.4 421.016h2-2Zm-8-3v-4 4Zm8 3v-6 6Zm-6-7v3-3Zm10 2v1.5-1.5Zm-8 1v5-5Zm6 .5v3.5-3.5Zm4-1.5v4-4Zm-8-1v7-7Zm-6-1h2-2Zm2 3h2-2Zm2 5h2-2Zm2-7h2-2Zm4 2.5h2-2Zm2-1.5h2-2Zm-14 2h2-2Zm16 2h2-2Z" stroke="#fff" stroke-linecap="round" stroke-linejoin="round"/><path fill-rule="evenodd" clip-rule="evenodd" d="M29 438.016h2v-5h-2v5Zm16.8 0h2v-5h-2v5Zm-12.7-2h-2v-3h2v3Zm12.6 0h-2v-3h2v3Zm-12.5-2.75h2v-.5h-2v.5Zm10.4 0h-2v-.5h2v.5Zm-8.3-.25h2v-3h-2v3Zm4.1 0h-2v-5h2v5Zm.1 0h2v-3h-2v3Z" fill="#B4B4B4"/><path d="m31.284 449.142.343-1.354h.413l.102-.343h-.425c.122-.494.282-.855.48-1.084.122-.142.24-.214.355-.214.024 0 .043.007.057.021a.069.069 0 0 1 .022.053.3.3 0 0 1-.048.111.308.308 0 0 0-.048.155c0 .069.025.127.076.176.05.049.115.073.193.073a.277.277 0 0 0 .211-.089.337.337 0 0 0 .085-.242.351.351 0 0 0-.127-.281c-.085-.072-.221-.108-.409-.108-.293 0-.559.086-.797.257-.238.172-.465.456-.68.853-.074.137-.144.225-.21.264-.067.039-.173.057-.32.055l-.096.343h.407l-.598 2.341c-.1.385-.167.622-.202.712a.851.851 0 0 1-.232.334.215.215 0 0 1-.149.055.06.06 0 0 1-.04-.014l-.016-.021c0-.009.015-.029.044-.06.03-.03.044-.076.044-.139a.226.226 0 0 0-.07-.17c-.047-.045-.114-.067-.202-.067a.362.362 0 0 0-.255.088.271.271 0 0 0-.097.208c0 .086.04.16.117.224.079.063.2.095.367.095.263 0 .497-.069.701-.207.204-.137.383-.35.535-.637.152-.287.309-.75.469-1.388Zm14.997-1.36.507-1.766h-.176l-.979.172-.032.118c.111-.006.194.01.25.049a.13.13 0 0 1 .058.112c0 .054-.022.155-.065.302l-.896 3.108c.36.189.7.284 1.022.284.434 0 .82-.182 1.16-.548.383-.414.575-.884.575-1.412 0-.221-.058-.415-.175-.584-.116-.169-.291-.254-.526-.254a.697.697 0 0 0-.336.084c-.104.055-.233.167-.387.335Zm-4.573.117h1.409v-1.406h.384v1.406h1.409v.387H43.5v1.395h-.383v-1.395h-1.41v-.387Zm-3.36-.495-.57 1.949-.058.237a.366.366 0 0 0-.008.064c0 .024.008.044.024.062.017.017.034.026.052.026.04 0 .097-.031.17-.094.029-.025.1-.115.21-.269l.103.053c-.139.254-.287.439-.444.555a.84.84 0 0 1-.508.174c-.111 0-.196-.029-.255-.086a.295.295 0 0 1-.088-.219c0-.076.031-.217.094-.424l.07-.238c-.226.389-.444.664-.653.827a.625.625 0 0 1-.387.14.411.411 0 0 1-.39-.221 1.031 1.031 0 0 1-.12-.5c0-.275.084-.591.252-.947.168-.357.389-.643.663-.86.224-.18.435-.27.632-.27.11 0 .198.032.264.095.066.064.115.18.146.348l.106-.361.694-.041Zm1.42-.041-1.022.176-.02.111c.075-.015.14-.023.193-.023.101 0 .185.044.252.132.105.137.251.553.439 1.248a6.71 6.71 0 0 1-.302.387.888.888 0 0 1-.222.19.33.33 0 0 1-.153.035.577.577 0 0 1-.21-.07.431.431 0 0 0-.18-.047.332.332 0 0 0-.342.343c0 .093.03.17.09.228.059.059.14.088.24.088a.63.63 0 0 0 .276-.061c.086-.041.194-.129.324-.263.13-.133.309-.346.538-.637.087.278.164.479.228.605a.708.708 0 0 0 .221.273.554.554 0 0 0 .312.083.641.641 0 0 0 .37-.132c.164-.113.331-.308.503-.586l-.105-.061c-.117.164-.204.266-.26.307a.224.224 0 0 1-.133.039c-.06 0-.12-.039-.178-.115-.1-.129-.233-.486-.399-1.072.149-.262.274-.433.375-.513a.376.376 0 0 1 .234-.088c.032 0 .088.012.169.034a.799.799 0 0 0 .215.034c.086 0 .158-.03.216-.09a.316.316 0 0 0 .086-.23.325.325 0 0 0-.086-.237.334.334 0 0 0-.248-.088.56.56 0 0 0-.271.069c-.085.046-.193.145-.324.297a7.305 7.305 0 0 0-.433.595 2.936 2.936 0 0 0-.393-.961Zm-4.274.068h-3.205v.381h3.205v-.381Zm1.916.53c0-.158-.025-.273-.073-.343a.167.167 0 0 0-.144-.073c-.06 0-.123.029-.188.088-.13.121-.272.367-.423.737-.151.37-.227.69-.227.959 0 .104.017.178.051.224.035.046.072.069.113.069.088 0 .177-.051.267-.152.129-.145.245-.322.348-.531.184-.367.276-.693.276-.978Zm8.502 2.033a.472.472 0 0 1-.25-.088l.4-1.377c.08-.279.153-.462.222-.548.101-.132.22-.199.357-.199.082 0 .154.036.217.109.063.072.094.177.094.316 0 .244-.041.489-.123.735a2.431 2.431 0 0 1-.306.63 1.256 1.256 0 0 1-.35.361.51.51 0 0 1-.261.061Zm-10.418-1.605h-3.205v.381h3.205v-.381Z" fill="#B4B4B4"/><path d="M21.3 388.001c-.551 4.486-4.5 4.016-4.5 4.016m-12.1-4.002c.55-4.485 4.3-4 4.3-4l-4.3 4Zm8.3.016c-.55-4.486-4.5-4.016-4.5-4.016l4.5 4.016Zm0-.031c.55 4.486 4.395 4.027 4.5 4.015L13 388Z" stroke="#B4B4B4" stroke-linecap="round"/><path d="M5 406.534v-7h8v7h8v-7" stroke="#B4B4B4" stroke-linecap="round" stroke-linejoin="round"/><path d="M4 417.109c.043-1.022.745-4.579 1-4 .255.58.4 5.934.9 6.934s.63-3.502 1.1-2.934c.47.569.312 5.727.779 5.208.467-.519.666-6.406 1.221-7.208.555-.802.465 4.267 1 4 .535-.266.64-5.565 1.14-5.065.5.5.395 6.049.86 7.065.465 1.017.506-3.277 1-3 .494.278.517 4.737 1 4 .483-.736.431-6.194.931-6.944s.591 4.216 1.069 3.944c.478-.272.343-5.532.843-5.032.5.5.618 6.024 1.157 7.032.54 1.008.515-2.725 1-3 .485-.275.441 3.151.941 1.901.5-1.25.544-6.176 1.059-6.901.515-.725 1 4 1 4" stroke="#B4B4B4" stroke-width=".75"/><path d="m18 432.854 3 4-3-4Zm-13 4 3-8-3 8Zm13-4h-7 7Zm-10-4 3 4-3-4Z" stroke="#B4B4B4" stroke-linecap="round" stroke-linejoin="round"/><path fill-rule="evenodd" clip-rule="evenodd" d="M11 444.5a.5.5 0 1 1 1 0 .5.5 0 0 1-1 0Zm.009.871c-.43.154-.774.449-1.079.852-.483.639-.834 1.508-1.216 2.463l-.015.037c-.364.91-.76 1.899-1.331 2.656-.486.643-1.116 1.141-1.969 1.309a1 1 0 1 1-.077-1.008c.511-.132.905-.449 1.248-.903.483-.639.834-1.508 1.216-2.463l.015-.037c.364-.91.76-1.9 1.331-2.657.364-.481.809-.882 1.368-1.123a1 1 0 1 1 1.886.468c.045.103.1.222.16.355.215.459.52 1.067.883 1.673.365.609.779 1.195 1.206 1.622.192.192.372.337.538.44a.984.984 0 0 1 .392-.053l.107-.198c.243-.437.6-1.023 1.058-1.611.675-.867 1.63-1.822 2.813-2.234a1 1 0 1 1 .233.98c-.858.332-1.627 1.059-2.256 1.868a11.685 11.685 0 0 0-1.12 1.755 1 1 0 1 1-1.884.258 4.317 4.317 0 0 1-.588-.498c-.51-.51-.972-1.174-1.357-1.815a19.644 19.644 0 0 1-1.042-2.007H11.5a.995.995 0 0 1-.491-.129ZM4.5 451.75a.5.5 0 1 0 0 1 .5.5 0 0 0 0-1Zm11-2.25a.5.5 0 1 0 0 1 .5.5 0 0 0 0-1Zm4.5-4.25a.5.5 0 1 1 1 0 .5.5 0 0 1-1 0Z" fill="#B4B4B4"/><path d="M2.5 381h46v-1h-46v1Zm47.5 1.5v71h1v-71h-1ZM48.5 455h-46v1h46v-1ZM1 453.5v-71H0v71h1Zm1.5 1.5a1.5 1.5 0 0 1-1.5-1.5H0a2.5 2.5 0 0 0 2.5 2.5v-1Zm47.5-1.5a1.5 1.5 0 0 1-1.5 1.5v1a2.5 2.5 0 0 0 2.5-2.5h-1ZM48.5 381a1.5 1.5 0 0 1 1.5 1.5h1a2.5 2.5 0 0 0-2.5-2.5v1Zm-46-1a2.5 2.5 0 0 0-2.5 2.5h1a1.5 1.5 0 0 1 1.5-1.5v-1Z" fill="#000"/><path d="M.5 458.5a2 2 0 0 1 2-2h46a2 2 0 0 1 2 2v71a2 2 0 0 1-2 2h-46a2 2 0 0 1-2-2v-71Z" fill="#242424"/><path opacity=".75" d="M25 471H1v1h24v-1ZM25 486H1v1h24v-1ZM25 501H1v1h24v-1Z" fill="#000"/><path d="M23.5 503.5h-21v11h21v-11Z" fill="#7432FF"/><path d="M22.5 503.5h-19a1 1 0 0 0-1 1v9a1 1 0 0 0 1 1h19a1 1 0 0 0 1-1v-9a1 1 0 0 0-1-1Z" fill="#7432FF"/><path d="M22.5 503.5h-19a1 1 0 0 0-1 1v9a1 1 0 0 0 1 1h19a1 1 0 0 0 1-1v-9a1 1 0 0 0-1-1Z" stroke="#7432FF"/><path opacity=".75" d="M25 516H1v1h24v-1ZM25 457v74h1v-74h-1ZM50 471H26v1h24v-1ZM50 486H26v1h24v-1ZM50 501H26v1h24v-1ZM50 516H26v1h24v-1Z" fill="#000"/><path d="m46.55 464.016-4 4-8-8-4.3 4" stroke="#B4B4B4" stroke-linecap="round"/><path d="m38.4 475.016 8 8-8-8Zm-8 8v-8 8Zm8-8v8-8Zm-8 0 8 8-8-8ZM39.4 497.016h2-2Zm-8-3v-4 4Zm8 3v-6 6Zm-6-7v3-3Zm10 2v1.5-1.5Zm-8 1v5-5Zm6 .5v3.5-3.5Zm4-1.5v4-4Zm-8-1v7-7Zm-6-1h2-2Zm2 3h2-2Zm2 5h2-2Zm2-7h2-2Zm4 2.5h2-2Zm2-1.5h2-2Zm-14 2h2-2Zm16 2h2-2Z" stroke="#B4B4B4" stroke-linecap="round" stroke-linejoin="round"/><path fill-rule="evenodd" clip-rule="evenodd" d="M29 514.016h2v-5h-2v5Zm16.8 0h2v-5h-2v5Zm-12.7-2h-2v-3h2v3Zm12.6 0h-2v-3h2v3Zm-12.5-2.75h2v-.5h-2v.5Zm10.4 0h-2v-.5h2v.5Zm-8.3-.25h2v-3h-2v3Zm4.1 0h-2v-5h2v5Zm.1 0h2v-3h-2v3Z" fill="#B4B4B4"/><path d="m31.284 525.142.343-1.354h.413l.102-.343h-.425c.122-.494.282-.855.48-1.084.122-.142.24-.214.355-.214.024 0 .043.007.057.021a.069.069 0 0 1 .022.053.3.3 0 0 1-.048.111.308.308 0 0 0-.048.155c0 .069.025.127.076.176.05.049.115.073.193.073a.277.277 0 0 0 .211-.089.337.337 0 0 0 .085-.242.351.351 0 0 0-.127-.281c-.085-.072-.221-.108-.409-.108-.293 0-.559.086-.797.257-.238.172-.465.456-.68.853-.074.137-.144.225-.21.264-.067.039-.173.057-.32.055l-.096.343h.407l-.598 2.341c-.1.385-.167.622-.202.712a.851.851 0 0 1-.232.334.215.215 0 0 1-.149.055.06.06 0 0 1-.04-.014l-.016-.021c0-.009.015-.029.044-.06.03-.03.044-.076.044-.139a.226.226 0 0 0-.07-.17c-.047-.045-.114-.067-.202-.067a.362.362 0 0 0-.255.088.271.271 0 0 0-.097.208c0 .086.04.16.117.224.079.063.2.095.367.095.263 0 .497-.069.701-.207.204-.137.383-.35.535-.637.152-.287.309-.75.469-1.388Zm14.997-1.36.507-1.766h-.176l-.979.172-.032.118c.111-.006.194.01.25.049a.13.13 0 0 1 .058.112c0 .054-.022.155-.065.302l-.896 3.108c.36.189.7.284 1.022.284.434 0 .82-.182 1.16-.548.383-.414.575-.884.575-1.412 0-.221-.058-.415-.175-.584-.116-.169-.291-.254-.526-.254a.697.697 0 0 0-.336.084c-.104.055-.233.167-.387.335Zm-4.573.117h1.409v-1.406h.384v1.406h1.409v.387H43.5v1.395h-.383v-1.395h-1.41v-.387Zm-3.36-.495-.57 1.949-.058.237a.366.366 0 0 0-.008.064c0 .024.008.044.024.062.017.017.034.026.052.026.04 0 .097-.031.17-.094.029-.025.1-.115.21-.269l.103.053c-.139.254-.287.439-.444.555a.84.84 0 0 1-.508.174c-.111 0-.196-.029-.255-.086a.295.295 0 0 1-.088-.219c0-.076.031-.217.094-.424l.07-.238c-.226.389-.444.664-.653.827a.625.625 0 0 1-.387.14.411.411 0 0 1-.39-.221 1.031 1.031 0 0 1-.12-.5c0-.275.084-.591.252-.947.168-.357.389-.643.663-.86.224-.18.435-.27.632-.27.11 0 .198.032.264.095.066.064.115.18.146.348l.106-.361.694-.041Zm1.42-.041-1.022.176-.02.111c.075-.015.14-.023.193-.023.101 0 .185.044.252.132.105.137.251.553.439 1.248a6.71 6.71 0 0 1-.302.387.888.888 0 0 1-.222.19.33.33 0 0 1-.153.035.577.577 0 0 1-.21-.07.431.431 0 0 0-.18-.047.332.332 0 0 0-.342.343c0 .093.03.17.09.228.059.059.14.088.24.088a.63.63 0 0 0 .276-.061c.086-.041.194-.129.324-.263.13-.133.309-.346.538-.637.087.278.164.479.228.605a.708.708 0 0 0 .221.273.554.554 0 0 0 .312.083.641.641 0 0 0 .37-.132c.164-.113.331-.308.503-.586l-.105-.061c-.117.164-.204.266-.26.307a.224.224 0 0 1-.133.039c-.06 0-.12-.039-.178-.115-.1-.129-.233-.486-.399-1.072.149-.262.274-.433.375-.513a.376.376 0 0 1 .234-.088c.032 0 .088.012.169.034a.799.799 0 0 0 .215.034c.086 0 .158-.03.216-.09a.316.316 0 0 0 .086-.23.325.325 0 0 0-.086-.237.334.334 0 0 0-.248-.088.56.56 0 0 0-.271.069c-.085.046-.193.145-.324.297a7.305 7.305 0 0 0-.433.595 2.936 2.936 0 0 0-.393-.961Zm-4.274.068h-3.205v.381h3.205v-.381Zm1.916.53c0-.158-.025-.273-.073-.343a.167.167 0 0 0-.144-.073c-.06 0-.123.029-.188.088-.13.121-.272.367-.423.737-.151.37-.227.69-.227.959 0 .104.017.178.051.224.035.046.072.069.113.069.088 0 .177-.051.267-.152.129-.145.245-.322.348-.531.184-.367.276-.693.276-.978Zm8.502 2.033a.472.472 0 0 1-.25-.088l.4-1.377c.08-.279.153-.462.222-.548.101-.132.22-.199.357-.199.082 0 .154.036.217.109.063.072.094.177.094.316 0 .244-.041.489-.123.735a2.431 2.431 0 0 1-.306.63 1.256 1.256 0 0 1-.35.361.51.51 0 0 1-.261.061Zm-10.418-1.605h-3.205v.381h3.205v-.381Z" fill="#B4B4B4"/><path d="M21.3 464.001c-.551 4.486-4.5 4.016-4.5 4.016m-12.1-4.002c.55-4.485 4.3-4 4.3-4l-4.3 4Zm8.3.016c-.55-4.486-4.5-4.016-4.5-4.016l4.5 4.016Zm0-.031c.55 4.486 4.395 4.027 4.5 4.015L13 464Z" stroke="#B4B4B4" stroke-linecap="round"/><path d="M5 482.534v-7h8v7h8v-7" stroke="#B4B4B4" stroke-linecap="round" stroke-linejoin="round"/><path d="M4 493.109c.043-1.022.745-4.579 1-4 .255.58.4 5.934.9 6.934s.63-3.502 1.1-2.934c.47.569.312 5.727.779 5.208.467-.519.666-6.406 1.221-7.208.555-.802.465 4.267 1 4 .535-.266.64-5.565 1.14-5.065.5.5.395 6.049.86 7.065.465 1.017.506-3.277 1-3 .494.278.517 4.737 1 4 .483-.736.431-6.194.931-6.944s.591 4.216 1.069 3.944c.478-.272.343-5.532.843-5.032.5.5.618 6.024 1.157 7.032.54 1.008.515-2.725 1-3 .485-.275.441 3.151.941 1.901.5-1.25.544-6.176 1.059-6.901.515-.725 1 4 1 4" stroke="#B4B4B4" stroke-width=".75"/><path d="m18 508.854 3 4-3-4Zm-13 4 3-8-3 8Zm13-4h-7 7Zm-10-4 3 4-3-4Z" stroke="#fff" stroke-linecap="round" stroke-linejoin="round"/><path fill-rule="evenodd" clip-rule="evenodd" d="M11 520.5a.5.5 0 1 1 1 0 .5.5 0 0 1-1 0Zm.009.871c-.43.154-.774.449-1.079.852-.483.639-.834 1.508-1.216 2.463l-.015.037c-.364.91-.76 1.899-1.331 2.656-.486.643-1.116 1.141-1.969 1.309a1 1 0 1 1-.077-1.008c.511-.132.905-.449 1.248-.903.483-.639.834-1.508 1.216-2.463l.015-.037c.364-.91.76-1.9 1.331-2.657.364-.481.809-.882 1.368-1.123a1 1 0 1 1 1.886.468c.045.103.1.222.16.355.215.459.52 1.067.883 1.673.365.609.779 1.195 1.206 1.622.192.192.372.337.538.44a.984.984 0 0 1 .392-.053l.107-.198c.243-.437.6-1.023 1.058-1.611.675-.867 1.63-1.822 2.813-2.234a1 1 0 1 1 .233.98c-.858.332-1.627 1.059-2.256 1.868a11.685 11.685 0 0 0-1.12 1.755 1 1 0 1 1-1.884.258 4.317 4.317 0 0 1-.588-.498c-.51-.51-.972-1.174-1.357-1.815a19.644 19.644 0 0 1-1.042-2.007H11.5a.995.995 0 0 1-.491-.129ZM4.5 527.75a.5.5 0 1 0 0 1 .5.5 0 0 0 0-1Zm11-2.25a.5.5 0 1 0 0 1 .5.5 0 0 0 0-1Zm4.5-4.25a.5.5 0 1 1 1 0 .5.5 0 0 1-1 0Z" fill="#B4B4B4"/><path d="M2.5 457h46v-1h-46v1Zm47.5 1.5v71h1v-71h-1ZM48.5 531h-46v1h46v-1ZM1 529.5v-71H0v71h1Zm1.5 1.5a1.5 1.5 0 0 1-1.5-1.5H0a2.5 2.5 0 0 0 2.5 2.5v-1Zm47.5-1.5a1.5 1.5 0 0 1-1.5 1.5v1a2.5 2.5 0 0 0 2.5-2.5h-1ZM48.5 457a1.5 1.5 0 0 1 1.5 1.5h1a2.5 2.5 0 0 0-2.5-2.5v1Zm-46-1a2.5 2.5 0 0 0-2.5 2.5h1a1.5 1.5 0 0 1 1.5-1.5v-1Z" fill="#000"/><path d="M.5 534.5a2 2 0 0 1 2-2h46a2 2 0 0 1 2 2v71a2 2 0 0 1-2 2h-46a2 2 0 0 1-2-2v-71Z" fill="#242424"/><path opacity=".75" d="M25 547H1v1h24v-1ZM25 562H1v1h24v-1ZM25 577H1v1h24v-1ZM25 592H1v1h24v-1ZM25 533v74h1v-74h-1ZM50 547H26v1h24v-1ZM50 562H26v1h24v-1ZM50 577H26v1h24v-1Z" fill="#000"/><path d="M48.5 579.5h-21v11h21v-11Z" fill="#7432FF"/><path d="M47.5 579.5h-19a1 1 0 0 0-1 1v9a1 1 0 0 0 1 1h19a1 1 0 0 0 1-1v-9a1 1 0 0 0-1-1Z" fill="#7432FF"/><path d="M47.5 579.5h-19a1 1 0 0 0-1 1v9a1 1 0 0 0 1 1h19a1 1 0 0 0 1-1v-9a1 1 0 0 0-1-1Z" stroke="#7432FF"/><path opacity=".75" d="M50 592H26v1h24v-1Z" fill="#000"/><path d="m46.55 540.016-4 4-8-8-4.3 4" stroke="#B4B4B4" stroke-linecap="round"/><path d="m38.4 551.016 8 8-8-8Zm-8 8v-8 8Zm8-8v8-8Zm-8 0 8 8-8-8ZM39.4 573.016h2-2Zm-8-3v-4 4Zm8 3v-6 6Zm-6-7v3-3Zm10 2v1.5-1.5Zm-8 1v5-5Zm6 .5v3.5-3.5Zm4-1.5v4-4Zm-8-1v7-7Zm-6-1h2-2Zm2 3h2-2Zm2 5h2-2Zm2-7h2-2Zm4 2.5h2-2Zm2-1.5h2-2Zm-14 2h2-2Zm16 2h2-2Z" stroke="#B4B4B4" stroke-linecap="round" stroke-linejoin="round"/><path fill-rule="evenodd" clip-rule="evenodd" d="M29 590.016h2v-5h-2v5Zm16.8 0h2v-5h-2v5Zm-12.7-2h-2v-3h2v3Zm12.6 0h-2v-3h2v3Zm-12.5-2.75h2v-.5h-2v.5Zm10.4 0h-2v-.5h2v.5Zm-8.3-.25h2v-3h-2v3Zm4.1 0h-2v-5h2v5Zm.1 0h2v-3h-2v3Z" fill="#fff"/><path d="m31.284 601.142.343-1.354h.413l.102-.343h-.425c.122-.494.282-.855.48-1.084.122-.142.24-.214.355-.214.024 0 .043.007.057.021a.069.069 0 0 1 .022.053.3.3 0 0 1-.048.111.308.308 0 0 0-.048.155c0 .069.025.127.076.176.05.049.115.073.193.073a.277.277 0 0 0 .211-.089.337.337 0 0 0 .085-.242.351.351 0 0 0-.127-.281c-.085-.072-.221-.108-.409-.108-.293 0-.559.086-.797.257-.238.172-.465.456-.68.853-.074.137-.144.225-.21.264-.067.039-.173.057-.32.055l-.096.343h.407l-.598 2.341c-.1.385-.167.622-.202.712a.851.851 0 0 1-.232.334.215.215 0 0 1-.149.055.06.06 0 0 1-.04-.014l-.016-.021c0-.009.015-.029.044-.06.03-.03.044-.076.044-.139a.226.226 0 0 0-.07-.17c-.047-.045-.114-.067-.202-.067a.362.362 0 0 0-.255.088.271.271 0 0 0-.097.208c0 .086.04.16.117.224.079.063.2.095.367.095.263 0 .497-.069.701-.207.204-.137.383-.35.535-.637.152-.287.309-.75.469-1.388Zm14.997-1.36.507-1.766h-.176l-.979.172-.032.118c.111-.006.194.01.25.049a.13.13 0 0 1 .058.112c0 .054-.022.155-.065.302l-.896 3.108c.36.189.7.284 1.022.284.434 0 .82-.182 1.16-.548.383-.414.575-.884.575-1.412 0-.221-.058-.415-.175-.584-.116-.169-.291-.254-.526-.254a.697.697 0 0 0-.336.084c-.104.055-.233.167-.387.335Zm-4.573.117h1.409v-1.406h.384v1.406h1.409v.387H43.5v1.395h-.383v-1.395h-1.41v-.387Zm-3.36-.495-.57 1.949-.058.237a.366.366 0 0 0-.008.064c0 .024.008.044.024.062.017.017.034.026.052.026.04 0 .097-.031.17-.094.029-.025.1-.115.21-.269l.103.053c-.139.254-.287.439-.444.555a.84.84 0 0 1-.508.174c-.111 0-.196-.029-.255-.086a.295.295 0 0 1-.088-.219c0-.076.031-.217.094-.424l.07-.238c-.226.389-.444.664-.653.827a.625.625 0 0 1-.387.14.411.411 0 0 1-.39-.221 1.031 1.031 0 0 1-.12-.5c0-.275.084-.591.252-.947.168-.357.389-.643.663-.86.224-.18.435-.27.632-.27.11 0 .198.032.264.095.066.064.115.18.146.348l.106-.361.694-.041Zm1.42-.041-1.022.176-.02.111c.075-.015.14-.023.193-.023.101 0 .185.044.252.132.105.137.251.553.439 1.248a6.71 6.71 0 0 1-.302.387.888.888 0 0 1-.222.19.33.33 0 0 1-.153.035.577.577 0 0 1-.21-.07.431.431 0 0 0-.18-.047.332.332 0 0 0-.342.343c0 .093.03.17.09.228.059.059.14.088.24.088a.63.63 0 0 0 .276-.061c.086-.041.194-.129.324-.263.13-.133.309-.346.538-.637.087.278.164.479.228.605a.708.708 0 0 0 .221.273.554.554 0 0 0 .312.083.641.641 0 0 0 .37-.132c.164-.113.331-.308.503-.586l-.105-.061c-.117.164-.204.266-.26.307a.224.224 0 0 1-.133.039c-.06 0-.12-.039-.178-.115-.1-.129-.233-.486-.399-1.072.149-.262.274-.433.375-.513a.376.376 0 0 1 .234-.088c.032 0 .088.012.169.034a.799.799 0 0 0 .215.034c.086 0 .158-.03.216-.09a.316.316 0 0 0 .086-.23.325.325 0 0 0-.086-.237.334.334 0 0 0-.248-.088.56.56 0 0 0-.271.069c-.085.046-.193.145-.324.297a7.305 7.305 0 0 0-.433.595 2.936 2.936 0 0 0-.393-.961Zm-4.274.068h-3.205v.381h3.205v-.381Zm1.916.53c0-.158-.025-.273-.073-.343a.167.167 0 0 0-.144-.073c-.06 0-.123.029-.188.088-.13.121-.272.367-.423.737-.151.37-.227.69-.227.959 0 .104.017.178.051.224.035.046.072.069.113.069.088 0 .177-.051.267-.152.129-.145.245-.322.348-.531.184-.367.276-.693.276-.978Zm8.502 2.033a.472.472 0 0 1-.25-.088l.4-1.377c.08-.279.153-.462.222-.548.101-.132.22-.199.357-.199.082 0 .154.036.217.109.063.072.094.177.094.316 0 .244-.041.489-.123.735a2.431 2.431 0 0 1-.306.63 1.256 1.256 0 0 1-.35.361.51.51 0 0 1-.261.061Zm-10.418-1.605h-3.205v.381h3.205v-.381Z" fill="#B4B4B4"/><path d="M21.3 540.001c-.551 4.486-4.5 4.016-4.5 4.016m-12.1-4.002c.55-4.485 4.3-4 4.3-4l-4.3 4Zm8.3.016c-.55-4.486-4.5-4.016-4.5-4.016l4.5 4.016Zm0-.031c.55 4.486 4.395 4.027 4.5 4.015L13 540Z" stroke="#B4B4B4" stroke-linecap="round"/><path d="M5 558.534v-7h8v7h8v-7" stroke="#B4B4B4" stroke-linecap="round" stroke-linejoin="round"/><path d="M4 569.109c.043-1.022.745-4.579 1-4 .255.58.4 5.934.9 6.934s.63-3.502 1.1-2.934c.47.569.312 5.727.779 5.208.467-.519.666-6.406 1.221-7.208.555-.802.465 4.267 1 4 .535-.266.64-5.565 1.14-5.065.5.5.395 6.049.86 7.065.465 1.017.506-3.277 1-3 .494.278.517 4.737 1 4 .483-.736.431-6.194.931-6.944s.591 4.216 1.069 3.944c.478-.272.343-5.532.843-5.032.5.5.618 6.024 1.157 7.032.54 1.008.515-2.725 1-3 .485-.275.441 3.151.941 1.901.5-1.25.544-6.176 1.059-6.901.515-.725 1 4 1 4" stroke="#B4B4B4" stroke-width=".75"/><path d="m18 584.854 3 4-3-4Zm-13 4 3-8-3 8Zm13-4h-7 7Zm-10-4 3 4-3-4Z" stroke="#B4B4B4" stroke-linecap="round" stroke-linejoin="round"/><path fill-rule="evenodd" clip-rule="evenodd" d="M11 596.5a.5.5 0 1 1 1 0 .5.5 0 0 1-1 0Zm.009.871c-.43.154-.774.449-1.079.852-.483.639-.834 1.508-1.216 2.463l-.015.037c-.364.91-.76 1.899-1.331 2.656-.486.643-1.116 1.141-1.969 1.309a1 1 0 1 1-.077-1.008c.511-.132.905-.449 1.248-.903.483-.639.834-1.508 1.216-2.463l.015-.037c.364-.91.76-1.9 1.331-2.657.364-.481.809-.882 1.368-1.123a1 1 0 1 1 1.886.468c.045.103.1.222.16.355.215.459.52 1.067.883 1.673.365.609.779 1.195 1.206 1.622.192.192.372.337.538.44a.984.984 0 0 1 .392-.053l.107-.198c.243-.437.6-1.023 1.058-1.611.675-.867 1.63-1.822 2.813-2.234a1 1 0 1 1 .233.98c-.858.332-1.627 1.059-2.256 1.868a11.685 11.685 0 0 0-1.12 1.755 1 1 0 1 1-1.884.258 4.317 4.317 0 0 1-.588-.498c-.51-.51-.972-1.174-1.357-1.815a19.644 19.644 0 0 1-1.042-2.007H11.5a.995.995 0 0 1-.491-.129ZM4.5 603.75a.5.5 0 1 0 0 1 .5.5 0 0 0 0-1Zm11-2.25a.5.5 0 1 0 0 1 .5.5 0 0 0 0-1Zm4.5-4.25a.5.5 0 1 1 1 0 .5.5 0 0 1-1 0Z" fill="#B4B4B4"/><path d="M2.5 533h46v-1h-46v1Zm47.5 1.5v71h1v-71h-1ZM48.5 607h-46v1h46v-1ZM1 605.5v-71H0v71h1Zm1.5 1.5a1.5 1.5 0 0 1-1.5-1.5H0a2.5 2.5 0 0 0 2.5 2.5v-1Zm47.5-1.5a1.5 1.5 0 0 1-1.5 1.5v1a2.5 2.5 0 0 0 2.5-2.5h-1ZM48.5 533a1.5 1.5 0 0 1 1.5 1.5h1a2.5 2.5 0 0 0-2.5-2.5v1Zm-46-1a2.5 2.5 0 0 0-2.5 2.5h1a1.5 1.5 0 0 1 1.5-1.5v-1Z" fill="#000"/><path d="M.5 610.5a2 2 0 0 1 2-2h46a2 2 0 0 1 2 2v71a2 2 0 0 1-2 2h-46a2 2 0 0 1-2-2v-71Z" fill="#242424"/><path opacity=".75" d="M25 623H1v1h24v-1ZM25 638H1v1h24v-1ZM25 653H1v1h24v-1ZM25 668H1v1h24v-1Z" fill="#000"/><path d="M23.5 670.5h-21v11h21v-11Z" fill="#7432FF"/><path d="M22.5 670.5h-19a1 1 0 0 0-1 1v9a1 1 0 0 0 1 1h19a1 1 0 0 0 1-1v-9a1 1 0 0 0-1-1Z" fill="#7432FF"/><path d="M22.5 670.5h-19a1 1 0 0 0-1 1v9a1 1 0 0 0 1 1h19a1 1 0 0 0 1-1v-9a1 1 0 0 0-1-1Z" stroke="#7432FF"/><path opacity=".75" d="M25 609v74h1v-74h-1ZM50 623H26v1h24v-1ZM50 638H26v1h24v-1ZM50 653H26v1h24v-1ZM50 668H26v1h24v-1Z" fill="#000"/><path d="m46.55 616.016-4 4-8-8-4.3 4" stroke="#B4B4B4" stroke-linecap="round"/><path d="m38.4 627.016 8 8-8-8Zm-8 8v-8 8Zm8-8v8-8Zm-8 0 8 8-8-8ZM39.4 649.016h2-2Zm-8-3v-4 4Zm8 3v-6 6Zm-6-7v3-3Zm10 2v1.5-1.5Zm-8 1v5-5Zm6 .5v3.5-3.5Zm4-1.5v4-4Zm-8-1v7-7Zm-6-1h2-2Zm2 3h2-2Zm2 5h2-2Zm2-7h2-2Zm4 2.5h2-2Zm2-1.5h2-2Zm-14 2h2-2Zm16 2h2-2Z" stroke="#B4B4B4" stroke-linecap="round" stroke-linejoin="round"/><path fill-rule="evenodd" clip-rule="evenodd" d="M29 666.016h2v-5h-2v5Zm16.8 0h2v-5h-2v5Zm-12.7-2h-2v-3h2v3Zm12.6 0h-2v-3h2v3Zm-12.5-2.75h2v-.5h-2v.5Zm10.4 0h-2v-.5h2v.5Zm-8.3-.25h2v-3h-2v3Zm4.1 0h-2v-5h2v5Zm.1 0h2v-3h-2v3Z" fill="#B4B4B4"/><path d="m31.284 677.142.343-1.354h.413l.102-.343h-.425c.122-.494.282-.855.48-1.084.122-.142.24-.214.355-.214.024 0 .043.007.057.021a.069.069 0 0 1 .022.053.3.3 0 0 1-.048.111.308.308 0 0 0-.048.155c0 .069.025.127.076.176.05.049.115.073.193.073a.277.277 0 0 0 .211-.089.337.337 0 0 0 .085-.242.351.351 0 0 0-.127-.281c-.085-.072-.221-.108-.409-.108-.293 0-.559.086-.797.257-.238.172-.465.456-.68.853-.074.137-.144.225-.21.264-.067.039-.173.057-.32.055l-.096.343h.407l-.598 2.341c-.1.385-.167.622-.202.712a.851.851 0 0 1-.232.334.215.215 0 0 1-.149.055.06.06 0 0 1-.04-.014l-.016-.021c0-.009.015-.029.044-.06.03-.03.044-.076.044-.139a.226.226 0 0 0-.07-.17c-.047-.045-.114-.067-.202-.067a.362.362 0 0 0-.255.088.271.271 0 0 0-.097.208c0 .086.04.16.117.224.079.063.2.095.367.095.263 0 .497-.069.701-.207.204-.137.383-.35.535-.637.152-.287.309-.75.469-1.388Zm14.997-1.36.507-1.766h-.176l-.979.172-.032.118c.111-.006.194.01.25.049a.13.13 0 0 1 .058.112c0 .054-.022.155-.065.302l-.896 3.108c.36.189.7.284 1.022.284.434 0 .82-.182 1.16-.548.383-.414.575-.884.575-1.412 0-.221-.058-.415-.175-.584-.116-.169-.291-.254-.526-.254a.697.697 0 0 0-.336.084c-.104.055-.233.167-.387.335Zm-4.573.117h1.409v-1.406h.384v1.406h1.409v.387H43.5v1.395h-.383v-1.395h-1.41v-.387Zm-3.36-.495-.57 1.949-.058.237a.366.366 0 0 0-.008.064c0 .024.008.044.024.062.017.017.034.026.052.026.04 0 .097-.031.17-.094.029-.025.1-.115.21-.269l.103.053c-.139.254-.287.439-.444.555a.84.84 0 0 1-.508.174c-.111 0-.196-.029-.255-.086a.295.295 0 0 1-.088-.219c0-.076.031-.217.094-.424l.07-.238c-.226.389-.444.664-.653.827a.625.625 0 0 1-.387.14.411.411 0 0 1-.39-.221 1.031 1.031 0 0 1-.12-.5c0-.275.084-.591.252-.947.168-.357.389-.643.663-.86.224-.18.435-.27.632-.27.11 0 .198.032.264.095.066.064.115.18.146.348l.106-.361.694-.041Zm1.42-.041-1.022.176-.02.111c.075-.015.14-.023.193-.023.101 0 .185.044.252.132.105.137.251.553.439 1.248a6.71 6.71 0 0 1-.302.387.888.888 0 0 1-.222.19.33.33 0 0 1-.153.035.577.577 0 0 1-.21-.07.431.431 0 0 0-.18-.047.332.332 0 0 0-.342.343c0 .093.03.17.09.228.059.059.14.088.24.088a.63.63 0 0 0 .276-.061c.086-.041.194-.129.324-.263.13-.133.309-.346.538-.637.087.278.164.479.228.605a.708.708 0 0 0 .221.273.554.554 0 0 0 .312.083.641.641 0 0 0 .37-.132c.164-.113.331-.308.503-.586l-.105-.061c-.117.164-.204.266-.26.307a.224.224 0 0 1-.133.039c-.06 0-.12-.039-.178-.115-.1-.129-.233-.486-.399-1.072.149-.262.274-.433.375-.513a.376.376 0 0 1 .234-.088c.032 0 .088.012.169.034a.799.799 0 0 0 .215.034c.086 0 .158-.03.216-.09a.316.316 0 0 0 .086-.23.325.325 0 0 0-.086-.237.334.334 0 0 0-.248-.088.56.56 0 0 0-.271.069c-.085.046-.193.145-.324.297a7.305 7.305 0 0 0-.433.595 2.936 2.936 0 0 0-.393-.961Zm-4.274.068h-3.205v.381h3.205v-.381Zm1.916.53c0-.158-.025-.273-.073-.343a.167.167 0 0 0-.144-.073c-.06 0-.123.029-.188.088-.13.121-.272.367-.423.737-.151.37-.227.69-.227.959 0 .104.017.178.051.224.035.046.072.069.113.069.088 0 .177-.051.267-.152.129-.145.245-.322.348-.531.184-.367.276-.693.276-.978Zm8.502 2.033a.472.472 0 0 1-.25-.088l.4-1.377c.08-.279.153-.462.222-.548.101-.132.22-.199.357-.199.082 0 .154.036.217.109.063.072.094.177.094.316 0 .244-.041.489-.123.735a2.431 2.431 0 0 1-.306.63 1.256 1.256 0 0 1-.35.361.51.51 0 0 1-.261.061Zm-10.418-1.605h-3.205v.381h3.205v-.381Z" fill="#B4B4B4"/><path d="M21.3 616.001c-.551 4.486-4.5 4.016-4.5 4.016m-12.1-4.002c.55-4.485 4.3-4 4.3-4l-4.3 4Zm8.3.016c-.55-4.486-4.5-4.016-4.5-4.016l4.5 4.016Zm0-.031c.55 4.486 4.395 4.027 4.5 4.015L13 616Z" stroke="#B4B4B4" stroke-linecap="round"/><path d="M5 634.534v-7h8v7h8v-7" stroke="#B4B4B4" stroke-linecap="round" stroke-linejoin="round"/><path d="M4 645.109c.043-1.022.745-4.579 1-4 .255.58.4 5.934.9 6.934s.63-3.502 1.1-2.934c.47.569.312 5.727.779 5.208.467-.519.666-6.406 1.221-7.208.555-.802.465 4.267 1 4 .535-.266.64-5.565 1.14-5.065.5.5.395 6.049.86 7.065.465 1.017.506-3.277 1-3 .494.278.517 4.737 1 4 .483-.736.431-6.194.931-6.944s.591 4.216 1.069 3.944c.478-.272.343-5.532.843-5.032.5.5.618 6.024 1.157 7.032.54 1.008.515-2.725 1-3 .485-.275.441 3.151.941 1.901.5-1.25.544-6.176 1.059-6.901.515-.725 1 4 1 4" stroke="#B4B4B4" stroke-width=".75"/><path d="m18 660.854 3 4-3-4Zm-13 4 3-8-3 8Zm13-4h-7 7Zm-10-4 3 4-3-4Z" stroke="#B4B4B4" stroke-linecap="round" stroke-linejoin="round"/><path fill-rule="evenodd" clip-rule="evenodd" d="M11 672.5a.5.5 0 1 1 1 0 .5.5 0 0 1-1 0Zm.009.871c-.43.154-.774.449-1.079.852-.483.639-.834 1.508-1.216 2.463l-.015.037c-.364.91-.76 1.899-1.331 2.656-.486.643-1.116 1.141-1.969 1.309a1 1 0 1 1-.077-1.008c.511-.132.905-.449 1.248-.903.483-.639.834-1.508 1.216-2.463l.015-.037c.364-.91.76-1.9 1.331-2.657.364-.481.809-.882 1.368-1.123a1 1 0 1 1 1.886.468c.045.103.1.222.16.355.215.459.52 1.067.883 1.673.365.609.779 1.195 1.206 1.622.192.192.372.337.538.44a.984.984 0 0 1 .392-.053l.107-.198c.243-.437.6-1.023 1.058-1.611.675-.867 1.63-1.822 2.813-2.234a1 1 0 1 1 .233.98c-.858.332-1.627 1.059-2.256 1.868a11.685 11.685 0 0 0-1.12 1.755 1 1 0 1 1-1.884.258 4.317 4.317 0 0 1-.588-.498c-.51-.51-.972-1.174-1.357-1.815a19.644 19.644 0 0 1-1.042-2.007H11.5a.995.995 0 0 1-.491-.129ZM4.5 679.75a.5.5 0 1 0 0 1 .5.5 0 0 0 0-1Zm11-2.25a.5.5 0 1 0 0 1 .5.5 0 0 0 0-1Zm4.5-4.25a.5.5 0 1 1 1 0 .5.5 0 0 1-1 0Z" fill="#fff"/><path d="M2.5 609h46v-1h-46v1Zm47.5 1.5v71h1v-71h-1ZM48.5 683h-46v1h46v-1ZM1 681.5v-71H0v71h1Zm1.5 1.5a1.5 1.5 0 0 1-1.5-1.5H0a2.5 2.5 0 0 0 2.5 2.5v-1Zm47.5-1.5a1.5 1.5 0 0 1-1.5 1.5v1a2.5 2.5 0 0 0 2.5-2.5h-1ZM48.5 609a1.5 1.5 0 0 1 1.5 1.5h1a2.5 2.5 0 0 0-2.5-2.5v1Zm-46-1a2.5 2.5 0 0 0-2.5 2.5h1a1.5 1.5 0 0 1 1.5-1.5v-1Z" fill="#000"/><path d="M.5 686.5a2 2 0 0 1 2-2h46a2 2 0 0 1 2 2v71a2 2 0 0 1-2 2h-46a2 2 0 0 1-2-2v-71Z" fill="#242424"/><path opacity=".75" d="M25 699H1v1h24v-1ZM25 714H1v1h24v-1ZM25 729H1v1h24v-1ZM25 744H1v1h24v-1ZM25 685v74h1v-74h-1ZM50 699H26v1h24v-1ZM50 714H26v1h24v-1ZM50 729H26v1h24v-1ZM50 744H26v1h24v-1Z" fill="#000"/><path d="M48.5 746.5h-21v11h21v-11Z" fill="#7432FF"/><path d="M47.5 746.5h-19a1 1 0 0 0-1 1v9a1 1 0 0 0 1 1h19a1 1 0 0 0 1-1v-9a1 1 0 0 0-1-1Z" fill="#7432FF"/><path d="M47.5 746.5h-19a1 1 0 0 0-1 1v9a1 1 0 0 0 1 1h19a1 1 0 0 0 1-1v-9a1 1 0 0 0-1-1Z" stroke="#7432FF"/><path d="m46.55 692.016-4 4-8-8-4.3 4" stroke="#B4B4B4" stroke-linecap="round"/><path d="m38.4 703.016 8 8-8-8Zm-8 8v-8 8Zm8-8v8-8Zm-8 0 8 8-8-8ZM39.4 725.016h2-2Zm-8-3v-4 4Zm8 3v-6 6Zm-6-7v3-3Zm10 2v1.5-1.5Zm-8 1v5-5Zm6 .5v3.5-3.5Zm4-1.5v4-4Zm-8-1v7-7Zm-6-1h2-2Zm2 3h2-2Zm2 5h2-2Zm2-7h2-2Zm4 2.5h2-2Zm2-1.5h2-2Zm-14 2h2-2Zm16 2h2-2Z" stroke="#B4B4B4" stroke-linecap="round" stroke-linejoin="round"/><path fill-rule="evenodd" clip-rule="evenodd" d="M29 742.016h2v-5h-2v5Zm16.8 0h2v-5h-2v5Zm-12.7-2h-2v-3h2v3Zm12.6 0h-2v-3h2v3Zm-12.5-2.75h2v-.5h-2v.5Zm10.4 0h-2v-.5h2v.5Zm-8.3-.25h2v-3h-2v3Zm4.1 0h-2v-5h2v5Zm.1 0h2v-3h-2v3Z" fill="#B4B4B4"/><path d="m31.284 753.142.343-1.354h.413l.102-.343h-.425c.122-.494.282-.855.48-1.084.122-.142.24-.214.355-.214.024 0 .043.007.057.021a.069.069 0 0 1 .022.053.3.3 0 0 1-.048.111.308.308 0 0 0-.048.155c0 .069.025.127.076.176.05.049.115.073.193.073a.277.277 0 0 0 .211-.089.337.337 0 0 0 .085-.242.351.351 0 0 0-.127-.281c-.085-.072-.221-.108-.409-.108-.293 0-.559.086-.797.257-.238.172-.465.456-.68.853-.074.137-.144.225-.21.264-.067.039-.173.057-.32.055l-.096.343h.407l-.598 2.341c-.1.385-.167.622-.202.712a.851.851 0 0 1-.232.334.215.215 0 0 1-.149.055.06.06 0 0 1-.04-.014l-.016-.021c0-.009.015-.029.044-.06.03-.03.044-.076.044-.139a.226.226 0 0 0-.07-.17c-.047-.045-.114-.067-.202-.067a.362.362 0 0 0-.255.088.271.271 0 0 0-.097.208c0 .086.04.16.117.224.079.063.2.095.367.095.263 0 .497-.069.701-.207.204-.137.383-.35.535-.637.152-.287.309-.75.469-1.388Zm14.997-1.36.507-1.766h-.176l-.979.172-.032.118c.111-.006.194.01.25.049a.13.13 0 0 1 .058.112c0 .054-.022.155-.065.302l-.896 3.108c.36.189.7.284 1.022.284.434 0 .82-.182 1.16-.548.383-.414.575-.884.575-1.412 0-.221-.058-.415-.175-.584-.116-.169-.291-.254-.526-.254a.697.697 0 0 0-.336.084c-.104.055-.233.167-.387.335Zm-4.573.117h1.409v-1.406h.384v1.406h1.409v.387H43.5v1.395h-.383v-1.395h-1.41v-.387Zm-3.36-.495-.57 1.949-.058.237a.366.366 0 0 0-.008.064c0 .024.008.044.024.062.017.017.034.026.052.026.04 0 .097-.031.17-.094.029-.025.1-.115.21-.269l.103.053c-.139.254-.287.439-.444.555a.84.84 0 0 1-.508.174c-.111 0-.196-.029-.255-.086a.295.295 0 0 1-.088-.219c0-.076.031-.217.094-.424l.07-.238c-.226.389-.444.664-.653.827a.625.625 0 0 1-.387.14.411.411 0 0 1-.39-.221 1.031 1.031 0 0 1-.12-.5c0-.275.084-.591.252-.947.168-.357.389-.643.663-.86.224-.18.435-.27.632-.27.11 0 .198.032.264.095.066.064.115.18.146.348l.106-.361.694-.041Zm1.42-.041-1.022.176-.02.111c.075-.015.14-.023.193-.023.101 0 .185.044.252.132.105.137.251.553.439 1.248a6.71 6.71 0 0 1-.302.387.888.888 0 0 1-.222.19.33.33 0 0 1-.153.035.577.577 0 0 1-.21-.07.431.431 0 0 0-.18-.047.332.332 0 0 0-.342.343c0 .093.03.17.09.228.059.059.14.088.24.088a.63.63 0 0 0 .276-.061c.086-.041.194-.129.324-.263.13-.133.309-.346.538-.637.087.278.164.479.228.605a.708.708 0 0 0 .221.273.554.554 0 0 0 .312.083.641.641 0 0 0 .37-.132c.164-.113.331-.308.503-.586l-.105-.061c-.117.164-.204.266-.26.307a.224.224 0 0 1-.133.039c-.06 0-.12-.039-.178-.115-.1-.129-.233-.486-.399-1.072.149-.262.274-.433.375-.513a.376.376 0 0 1 .234-.088c.032 0 .088.012.169.034a.799.799 0 0 0 .215.034c.086 0 .158-.03.216-.09a.316.316 0 0 0 .086-.23.325.325 0 0 0-.086-.237.334.334 0 0 0-.248-.088.56.56 0 0 0-.271.069c-.085.046-.193.145-.324.297a7.305 7.305 0 0 0-.433.595 2.936 2.936 0 0 0-.393-.961Zm-4.274.068h-3.205v.381h3.205v-.381Zm1.916.53c0-.158-.025-.273-.073-.343a.167.167 0 0 0-.144-.073c-.06 0-.123.029-.188.088-.13.121-.272.367-.423.737-.151.37-.227.69-.227.959 0 .104.017.178.051.224.035.046.072.069.113.069.088 0 .177-.051.267-.152.129-.145.245-.322.348-.531.184-.367.276-.693.276-.978Zm8.502 2.033a.472.472 0 0 1-.25-.088l.4-1.377c.08-.279.153-.462.222-.548.101-.132.22-.199.357-.199.082 0 .154.036.217.109.063.072.094.177.094.316 0 .244-.041.489-.123.735a2.431 2.431 0 0 1-.306.63 1.256 1.256 0 0 1-.35.361.51.51 0 0 1-.261.061Zm-10.418-1.605h-3.205v.381h3.205v-.381Z" fill="#fff"/><path d="M21.3 692.001c-.551 4.486-4.5 4.016-4.5 4.016m-12.1-4.002c.55-4.485 4.3-4 4.3-4l-4.3 4Zm8.3.016c-.55-4.486-4.5-4.016-4.5-4.016l4.5 4.016Zm0-.031c.55 4.486 4.395 4.027 4.5 4.015L13 692Z" stroke="#B4B4B4" stroke-linecap="round"/><path d="M5 710.534v-7h8v7h8v-7" stroke="#B4B4B4" stroke-linecap="round" stroke-linejoin="round"/><path d="M4 721.109c.043-1.022.745-4.579 1-4 .255.58.4 5.934.9 6.934s.63-3.502 1.1-2.934c.47.569.312 5.727.779 5.208.467-.519.666-6.406 1.221-7.208.555-.802.465 4.267 1 4 .535-.266.64-5.565 1.14-5.065.5.5.395 6.049.86 7.065.465 1.017.506-3.277 1-3 .494.278.517 4.737 1 4 .483-.736.431-6.194.931-6.944s.591 4.216 1.069 3.944c.478-.272.343-5.532.843-5.032.5.5.618 6.024 1.157 7.032.54 1.008.515-2.725 1-3 .485-.275.441 3.151.941 1.901.5-1.25.544-6.176 1.059-6.901.515-.725 1 4 1 4" stroke="#B4B4B4" stroke-width=".75"/><path d="m18 736.854 3 4-3-4Zm-13 4 3-8-3 8Zm13-4h-7 7Zm-10-4 3 4-3-4Z" stroke="#B4B4B4" stroke-linecap="round" stroke-linejoin="round"/><path fill-rule="evenodd" clip-rule="evenodd" d="M11 748.5a.5.5 0 1 1 1 0 .5.5 0 0 1-1 0Zm.009.871c-.43.154-.774.449-1.079.852-.483.639-.834 1.508-1.216 2.463l-.015.037c-.364.91-.76 1.899-1.331 2.656-.486.643-1.116 1.141-1.969 1.309a1 1 0 1 1-.077-1.008c.511-.132.905-.449 1.248-.903.483-.639.834-1.508 1.216-2.463l.015-.037c.364-.91.76-1.9 1.331-2.657.364-.481.809-.882 1.368-1.123a1 1 0 1 1 1.886.468c.045.103.1.222.16.355.215.459.52 1.067.883 1.673.365.609.779 1.195 1.206 1.622.192.192.372.337.538.44a.984.984 0 0 1 .392-.053l.107-.198c.243-.437.6-1.023 1.058-1.611.675-.867 1.63-1.822 2.813-2.234a1 1 0 1 1 .233.98c-.858.332-1.627 1.059-2.256 1.868a11.685 11.685 0 0 0-1.12 1.755 1 1 0 1 1-1.884.258 4.317 4.317 0 0 1-.588-.498c-.51-.51-.972-1.174-1.357-1.815a19.644 19.644 0 0 1-1.042-2.007H11.5a.995.995 0 0 1-.491-.129ZM4.5 755.75a.5.5 0 1 0 0 1 .5.5 0 0 0 0-1Zm11-2.25a.5.5 0 1 0 0 1 .5.5 0 0 0 0-1Zm4.5-4.25a.5.5 0 1 1 1 0 .5.5 0 0 1-1 0Z" fill="#B4B4B4"/><path d="M2.5 685h46v-1h-46v1Zm47.5 1.5v71h1v-71h-1ZM48.5 759h-46v1h46v-1ZM1 757.5v-71H0v71h1Zm1.5 1.5a1.5 1.5 0 0 1-1.5-1.5H0a2.5 2.5 0 0 0 2.5 2.5v-1Zm47.5-1.5a1.5 1.5 0 0 1-1.5 1.5v1a2.5 2.5 0 0 0 2.5-2.5h-1ZM48.5 685a1.5 1.5 0 0 1 1.5 1.5h1a2.5 2.5 0 0 0-2.5-2.5v1Zm-46-1a2.5 2.5 0 0 0-2.5 2.5h1a1.5 1.5 0 0 1 1.5-1.5v-1Z" fill="#000"/></svg>