<svg width="399" height="84" fill="none" xmlns="http://www.w3.org/2000/svg"><g opacity=".1"><path fill-rule="evenodd" clip-rule="evenodd" d="M260.5 7.5a.5.5 0 0 1-.5.5H140a.5.5 0 0 1 0-1h120a.5.5 0 0 1 .5.5Z" fill="#EEE"/><path clip-rule="evenodd" d="M261 7.5a1 1 0 0 1-1 1H140a1 1 0 0 1 0-2h120a1 1 0 0 1 1 1Z" stroke="#EEE"/><path d="M144.5 4h-1v2h1V4ZM144.5 9h-1v2h1V9ZM256.5 4h-1v2h1V4ZM256.5 9h-1v2h1V9Z" fill="#EEE"/></g><path fill-rule="evenodd" clip-rule="evenodd" d="M260 7a.5.5 0 0 1-.5.5h-120a.5.5 0 0 1 0-1h120a.5.5 0 0 1 .5.5Z" fill="#737373"/><path clip-rule="evenodd" d="M260.5 7a1 1 0 0 1-1 1h-120a1 1 0 0 1 0-2h120a1 1 0 0 1 1 1Z" stroke="#000"/><path d="M144 3.5h-1v2h1v-2ZM144 8.5h-1v2h1v-2ZM256 3.5h-1v2h1v-2ZM256 8.5h-1v2h1v-2Z" fill="#000"/><g opacity=".1" fill="#EEE"><path d="M200.5 18.5h-1V20h1v-1.5ZM200.5 23h-1v1.5h1V23ZM144.5 16h-1v2h1v-2ZM144.5 25h-1v2h1v-2ZM256.5 16h-1v2h1v-2ZM256.5 25h-1v2h1v-2Z"/></g><g opacity=".1"><path fill-rule="evenodd" clip-rule="evenodd" d="M260.5 21.5a.5.5 0 0 1-.5.5H140a.5.5 0 0 1 0-1h120a.5.5 0 0 1 .5.5Z" fill="#EEE"/><path clip-rule="evenodd" d="M261 21.5a1 1 0 0 1-1 1H140a1 1 0 0 1 0-2h120a1 1 0 0 1 1 1Z" stroke="#EEE"/><path d="M144.5 18h-1v2h1v-2ZM144.5 23h-1v2h1v-2ZM256.5 18h-1v2h1v-2ZM256.5 23h-1v2h1v-2Z" fill="#EEE"/></g><path fill-rule="evenodd" clip-rule="evenodd" d="M260 21a.5.5 0 0 1-.5.5h-120a.5.5 0 0 1 0-1h120a.5.5 0 0 1 .5.5Z" fill="#737373"/><path clip-rule="evenodd" d="M260.5 21a1 1 0 0 1-1 1h-120a1 1 0 0 1 0-2h120a1 1 0 0 1 1 1Z" stroke="#000"/><path d="M144 17.5h-1v2h1v-2ZM144 22.5h-1v2h1v-2ZM256 17.5h-1v2h1v-2ZM256 22.5h-1v2h1v-2ZM200 18h-1v1.5h1V18ZM200 22.5h-1V24h1v-1.5ZM144 15.5h-1v2h1v-2ZM144 24.5h-1v2h1v-2ZM256 15.5h-1v2h1v-2ZM256 24.5h-1v2h1v-2Z" fill="#000"/><g opacity=".1"><path fill-rule="evenodd" clip-rule="evenodd" d="M260.5 35.5a.5.5 0 0 1-.5.5H140a.5.5 0 0 1 0-1h120a.5.5 0 0 1 .5.5Z" fill="#EEE"/><path clip-rule="evenodd" d="M261 35.5a1 1 0 0 1-1 1H140a1 1 0 0 1 0-2h120a1 1 0 0 1 1 1Z" stroke="#EEE"/><path d="M144.5 31h-1v3h1v-3ZM144.5 37h-1v3h1v-3ZM152.5 31h-1v3h1v-3ZM152.5 37h-1v3h1v-3ZM160.5 31h-1v3h1v-3ZM160.5 37h-1v3h1v-3ZM168.5 31h-1v3h1v-3ZM168.5 37h-1v3h1v-3ZM176.5 31h-1v3h1v-3ZM176.5 37h-1v3h1v-3ZM184.5 31h-1v3h1v-3ZM184.5 37h-1v3h1v-3ZM192.5 31h-1v3h1v-3ZM192.5 37h-1v3h1v-3ZM200.5 31h-1v3h1v-3ZM200.5 37h-1v3h1v-3ZM208.5 31h-1v3h1v-3ZM208.5 37h-1v3h1v-3ZM216.5 31h-1v3h1v-3ZM216.5 37h-1v3h1v-3ZM224.5 31h-1v3h1v-3ZM224.5 37h-1v3h1v-3ZM232.5 31h-1v3h1v-3ZM232.5 37h-1v3h1v-3ZM240.5 31h-1v3h1v-3ZM240.5 37h-1v3h1v-3ZM248.5 31h-1v3h1v-3ZM248.5 37h-1v3h1v-3ZM256.5 31h-1v3h1v-3ZM256.5 37h-1v3h1v-3Z" fill="#EEE"/></g><path fill-rule="evenodd" clip-rule="evenodd" d="M260 35a.5.5 0 0 1-.5.5h-120a.5.5 0 0 1 0-1h120a.5.5 0 0 1 .5.5Z" fill="#737373"/><path clip-rule="evenodd" d="M260.5 35a1 1 0 0 1-1 1h-120a1 1 0 0 1 0-2h120a1 1 0 0 1 1 1Z" stroke="#000"/><path d="M144 30.5h-1v3h1v-3ZM144 36.5h-1v3h1v-3ZM152 30.5h-1v3h1v-3ZM152 36.5h-1v3h1v-3ZM160 30.5h-1v3h1v-3ZM160 36.5h-1v3h1v-3ZM168 30.5h-1v3h1v-3ZM168 36.5h-1v3h1v-3ZM176 30.5h-1v3h1v-3ZM176 36.5h-1v3h1v-3ZM184 30.5h-1v3h1v-3ZM184 36.5h-1v3h1v-3ZM192 30.5h-1v3h1v-3ZM192 36.5h-1v3h1v-3ZM200 30.5h-1v3h1v-3ZM200 36.5h-1v3h1v-3ZM208 30.5h-1v3h1v-3ZM208 36.5h-1v3h1v-3ZM216 30.5h-1v3h1v-3ZM216 36.5h-1v3h1v-3ZM224 30.5h-1v3h1v-3ZM224 36.5h-1v3h1v-3ZM232 30.5h-1v3h1v-3ZM232 36.5h-1v3h1v-3ZM240 30.5h-1v3h1v-3ZM240 36.5h-1v3h1v-3ZM248 30.5h-1v3h1v-3ZM248 36.5h-1v3h1v-3ZM256 30.5h-1v3h1v-3ZM256 36.5h-1v3h1v-3Z" fill="#000"/><g opacity=".1"><path fill-rule="evenodd" clip-rule="evenodd" d="M393.5 7.5a.5.5 0 0 1-.5.5H273a.5.5 0 0 1 0-1h120a.5.5 0 0 1 .5.5Z" fill="#EEE"/><path clip-rule="evenodd" d="M394 7.5a1 1 0 0 1-1 1H273a1 1 0 0 1 0-2h120a1 1 0 0 1 1 1Z" stroke="#EEE"/><path d="M277.5 4h-1v2h1V4ZM277.5 9h-1v2h1V9ZM389.5 4h-1v2h1V4ZM389.5 9h-1v2h1V9Z" fill="#EEE"/></g><path fill-rule="evenodd" clip-rule="evenodd" d="M393 7a.5.5 0 0 1-.5.5h-120a.5.5 0 0 1 0-1h120a.5.5 0 0 1 .5.5Z" fill="url(#a)"/><path clip-rule="evenodd" d="M393.5 7a1 1 0 0 1-1 1h-120a1 1 0 0 1 0-2h120a1 1 0 0 1 1 1Z" stroke="#000"/><path clip-rule="evenodd" d="M393.5 7a2 2 0 0 1-2 2h-118a2 2 0 1 1 0-4h118a2 2 0 0 1 2 2Z" stroke="#001E3C" stroke-opacity=".5"/><path d="M277 3.5h-1v2h1v-2ZM277 8.5h-1v2h1v-2ZM389 3.5h-1v2h1v-2ZM389 8.5h-1v2h1v-2Z" fill="#000"/><g opacity=".1" fill="#EEE"><path d="M333.5 18.5h-1V20h1v-1.5ZM333.5 23h-1v1.5h1V23ZM277.5 16h-1v2h1v-2ZM277.5 25h-1v2h1v-2ZM389.5 16h-1v2h1v-2ZM389.5 25h-1v2h1v-2Z"/></g><g opacity=".1"><path fill-rule="evenodd" clip-rule="evenodd" d="M393.5 21.5a.5.5 0 0 1-.5.5H273a.5.5 0 0 1 0-1h120a.5.5 0 0 1 .5.5Z" fill="#EEE"/><path clip-rule="evenodd" d="M394 21.5a1 1 0 0 1-1 1H273a1 1 0 0 1 0-2h120a1 1 0 0 1 1 1Z" stroke="#EEE"/><path d="M277.5 18h-1v2h1v-2ZM277.5 23h-1v2h1v-2ZM389.5 18h-1v2h1v-2ZM389.5 23h-1v2h1v-2Z" fill="#EEE"/></g><path fill-rule="evenodd" clip-rule="evenodd" d="M393 21a.5.5 0 0 1-.5.5h-120a.5.5 0 0 1 0-1h120a.5.5 0 0 1 .5.5Z" fill="url(#b)"/><path clip-rule="evenodd" d="M393.5 21a1 1 0 0 1-1 1h-120a1 1 0 0 1 0-2h120a1 1 0 0 1 1 1Z" stroke="#000"/><path clip-rule="evenodd" d="M393.5 21a2 2 0 0 1-2 2h-118a2 2 0 1 1 0-4h118a2 2 0 0 1 2 2Z" stroke="#001E3C" stroke-opacity=".5"/><path d="M277 17.5h-1v2h1v-2ZM277 22.5h-1v2h1v-2ZM389 17.5h-1v2h1v-2ZM389 22.5h-1v2h1v-2ZM333 18h-1v1.5h1V18ZM333 22.5h-1V24h1v-1.5ZM277 15.5h-1v2h1v-2ZM277 24.5h-1v2h1v-2ZM389 15.5h-1v2h1v-2ZM389 24.5h-1v2h1v-2Z" fill="#000"/><g opacity=".1"><path fill-rule="evenodd" clip-rule="evenodd" d="M393.5 35.5a.5.5 0 0 1-.5.5H273a.5.5 0 0 1 0-1h120a.5.5 0 0 1 .5.5Z" fill="#EEE"/><path clip-rule="evenodd" d="M394 35.5a1 1 0 0 1-1 1H273a1 1 0 0 1 0-2h120a1 1 0 0 1 1 1Z" stroke="#EEE"/><path d="M277.5 31h-1v3h1v-3ZM277.5 37h-1v3h1v-3ZM285.5 31h-1v3h1v-3ZM285.5 37h-1v3h1v-3ZM293.5 31h-1v3h1v-3ZM293.5 37h-1v3h1v-3ZM301.5 31h-1v3h1v-3ZM301.5 37h-1v3h1v-3ZM309.5 31h-1v3h1v-3ZM309.5 37h-1v3h1v-3ZM317.5 31h-1v3h1v-3ZM317.5 37h-1v3h1v-3ZM325.5 31h-1v3h1v-3ZM325.5 37h-1v3h1v-3ZM333.5 31h-1v3h1v-3ZM333.5 37h-1v3h1v-3ZM341.5 31h-1v3h1v-3ZM341.5 37h-1v3h1v-3ZM349.5 31h-1v3h1v-3ZM349.5 37h-1v3h1v-3ZM357.5 31h-1v3h1v-3ZM357.5 37h-1v3h1v-3ZM365.5 31h-1v3h1v-3ZM365.5 37h-1v3h1v-3ZM373.5 31h-1v3h1v-3ZM373.5 37h-1v3h1v-3ZM381.5 31h-1v3h1v-3ZM381.5 37h-1v3h1v-3ZM389.5 31h-1v3h1v-3ZM389.5 37h-1v3h1v-3Z" fill="#EEE"/></g><path fill-rule="evenodd" clip-rule="evenodd" d="M393 35a.5.5 0 0 1-.5.5h-120a.5.5 0 0 1 0-1h120a.5.5 0 0 1 .5.5Z" fill="url(#c)"/><path clip-rule="evenodd" d="M393.5 35a1 1 0 0 1-1 1h-120a1 1 0 0 1 0-2h120a1 1 0 0 1 1 1Z" stroke="#000"/><path clip-rule="evenodd" d="M393.5 35a2 2 0 0 1-2 2h-118a2 2 0 1 1 0-4h118a2 2 0 0 1 2 2Z" stroke="#001E3C" stroke-opacity=".5"/><path d="M277 30.5h-1v3h1v-3ZM277 36.5h-1v3h1v-3ZM285 30.5h-1v3h1v-3ZM285 36.5h-1v3h1v-3ZM293 30.5h-1v3h1v-3ZM293 36.5h-1v3h1v-3ZM301 30.5h-1v3h1v-3ZM301 36.5h-1v3h1v-3ZM309 30.5h-1v3h1v-3ZM309 36.5h-1v3h1v-3ZM317 30.5h-1v3h1v-3ZM317 36.5h-1v3h1v-3ZM325 30.5h-1v3h1v-3ZM325 36.5h-1v3h1v-3ZM333 30.5h-1v3h1v-3ZM333 36.5h-1v3h1v-3ZM341 30.5h-1v3h1v-3ZM341 36.5h-1v3h1v-3ZM349 30.5h-1v3h1v-3ZM349 36.5h-1v3h1v-3ZM357 30.5h-1v3h1v-3ZM357 36.5h-1v3h1v-3ZM365 30.5h-1v3h1v-3ZM365 36.5h-1v3h1v-3ZM373 30.5h-1v3h1v-3ZM373 36.5h-1v3h1v-3ZM381 30.5h-1v3h1v-3ZM381 36.5h-1v3h1v-3ZM389 30.5h-1v3h1v-3ZM389 36.5h-1v3h1v-3Z" fill="#000"/><g opacity=".1"><path fill-rule="evenodd" clip-rule="evenodd" d="M127.5 49.5a.5.5 0 0 1-.5.5H7a.5.5 0 0 1 0-1h120a.5.5 0 0 1 .5.5Z" fill="#EEE"/><path clip-rule="evenodd" d="M128 49.5a1 1 0 0 1-1 1H7a1 1 0 1 1 0-2h120a1 1 0 0 1 1 1Z" stroke="#EEE"/><path d="M11.5 46h-1v2h1v-2ZM11.5 51h-1v2h1v-2ZM123.5 46h-1v2h1v-2ZM123.5 51h-1v2h1v-2Z" fill="#EEE"/></g><path fill-rule="evenodd" clip-rule="evenodd" d="M127 49a.5.5 0 0 1-.5.5H6.5a.5.5 0 0 1 0-1h120a.5.5 0 0 1 .5.5Z" fill="#1F1F1F"/><path clip-rule="evenodd" d="M127.5 49a1 1 0 0 1-1 1H6.5a1 1 0 1 1 0-2h120a1 1 0 0 1 1 1Z" stroke="#000"/><path d="M11 45.5h-1v2h1v-2ZM11 50.5h-1v2h1v-2ZM123 45.5h-1v2h1v-2ZM123 50.5h-1v2h1v-2Z" fill="#000"/><g opacity=".1" fill="#EEE"><path d="M67.5 60.5h-1V62h1v-1.5ZM67.5 65h-1v1.5h1V65ZM11.5 58h-1v2h1v-2ZM11.5 67h-1v2h1v-2ZM123.5 58h-1v2h1v-2ZM123.5 67h-1v2h1v-2Z"/></g><g opacity=".1"><path fill-rule="evenodd" clip-rule="evenodd" d="M127.5 63.5a.5.5 0 0 1-.5.5H7a.5.5 0 0 1 0-1h120a.5.5 0 0 1 .5.5Z" fill="#EEE"/><path clip-rule="evenodd" d="M128 63.5a1 1 0 0 1-1 1H7a1 1 0 1 1 0-2h120a1 1 0 0 1 1 1Z" stroke="#EEE"/><path d="M11.5 60h-1v2h1v-2ZM11.5 65h-1v2h1v-2ZM123.5 60h-1v2h1v-2ZM123.5 65h-1v2h1v-2Z" fill="#EEE"/></g><path fill-rule="evenodd" clip-rule="evenodd" d="M127 63a.5.5 0 0 1-.5.5H6.5a.5.5 0 0 1 0-1h120a.5.5 0 0 1 .5.5Z" fill="#1F1F1F"/><path clip-rule="evenodd" d="M127.5 63a1 1 0 0 1-1 1H6.5a1 1 0 1 1 0-2h120a1 1 0 0 1 1 1Z" stroke="#000"/><path d="M11 59.5h-1v2h1v-2ZM11 64.5h-1v2h1v-2ZM123 59.5h-1v2h1v-2ZM123 64.5h-1v2h1v-2ZM67 60h-1v1.5h1V60ZM67 64.5h-1V66h1v-1.5ZM11 57.5h-1v2h1v-2ZM11 66.5h-1v2h1v-2ZM123 57.5h-1v2h1v-2ZM123 66.5h-1v2h1v-2Z" fill="#000"/><g opacity=".1"><path fill-rule="evenodd" clip-rule="evenodd" d="M127.5 77.5a.5.5 0 0 1-.5.5H7a.5.5 0 0 1 0-1h120a.5.5 0 0 1 .5.5Z" fill="#EEE"/><path clip-rule="evenodd" d="M128 77.5a1 1 0 0 1-1 1H7a1 1 0 1 1 0-2h120a1 1 0 0 1 1 1Z" stroke="#EEE"/><path d="M11.5 73h-1v3h1v-3ZM11.5 79h-1v3h1v-3ZM19.5 73h-1v3h1v-3ZM19.5 79h-1v3h1v-3ZM27.5 73h-1v3h1v-3ZM27.5 79h-1v3h1v-3ZM35.5 73h-1v3h1v-3ZM35.5 79h-1v3h1v-3ZM43.5 73h-1v3h1v-3ZM43.5 79h-1v3h1v-3ZM51.5 73h-1v3h1v-3ZM51.5 79h-1v3h1v-3ZM59.5 73h-1v3h1v-3ZM59.5 79h-1v3h1v-3ZM67.5 73h-1v3h1v-3ZM67.5 79h-1v3h1v-3ZM75.5 73h-1v3h1v-3ZM75.5 79h-1v3h1v-3ZM83.5 73h-1v3h1v-3ZM83.5 79h-1v3h1v-3ZM91.5 73h-1v3h1v-3ZM91.5 79h-1v3h1v-3ZM99.5 73h-1v3h1v-3ZM99.5 79h-1v3h1v-3ZM107.5 73h-1v3h1v-3ZM107.5 79h-1v3h1v-3ZM115.5 73h-1v3h1v-3ZM115.5 79h-1v3h1v-3ZM123.5 73h-1v3h1v-3ZM123.5 79h-1v3h1v-3Z" fill="#EEE"/></g><path fill-rule="evenodd" clip-rule="evenodd" d="M127 77a.5.5 0 0 1-.5.5H6.5a.5.5 0 0 1 0-1h120a.5.5 0 0 1 .5.5Z" fill="#1F1F1F"/><path clip-rule="evenodd" d="M127.5 77a1 1 0 0 1-1 1H6.5a1 1 0 1 1 0-2h120a1 1 0 0 1 1 1Z" stroke="#000"/><path d="M11 72.5h-1v3h1v-3ZM11 78.5h-1v3h1v-3ZM19 72.5h-1v3h1v-3ZM19 78.5h-1v3h1v-3ZM27 72.5h-1v3h1v-3ZM27 78.5h-1v3h1v-3ZM35 72.5h-1v3h1v-3ZM35 78.5h-1v3h1v-3ZM43 72.5h-1v3h1v-3ZM43 78.5h-1v3h1v-3ZM51 72.5h-1v3h1v-3ZM51 78.5h-1v3h1v-3ZM59 72.5h-1v3h1v-3ZM59 78.5h-1v3h1v-3ZM67 72.5h-1v3h1v-3ZM67 78.5h-1v3h1v-3ZM75 72.5h-1v3h1v-3ZM75 78.5h-1v3h1v-3ZM83 72.5h-1v3h1v-3ZM83 78.5h-1v3h1v-3ZM91 72.5h-1v3h1v-3ZM91 78.5h-1v3h1v-3ZM99 72.5h-1v3h1v-3ZM99 78.5h-1v3h1v-3ZM107 72.5h-1v3h1v-3ZM107 78.5h-1v3h1v-3ZM115 72.5h-1v3h1v-3ZM115 78.5h-1v3h1v-3ZM123 72.5h-1v3h1v-3ZM123 78.5h-1v3h1v-3Z" fill="#000"/><g opacity=".1"><path fill-rule="evenodd" clip-rule="evenodd" d="M260.5 49.5a.5.5 0 0 1-.5.5H140a.5.5 0 0 1 0-1h120a.5.5 0 0 1 .5.5Z" fill="#EEE"/><path clip-rule="evenodd" d="M261 49.5a1 1 0 0 1-1 1H140a1 1 0 0 1 0-2h120a1 1 0 0 1 1 1Z" stroke="#EEE"/><path d="M144.5 46h-1v2h1v-2ZM144.5 51h-1v2h1v-2ZM256.5 46h-1v2h1v-2ZM256.5 51h-1v2h1v-2Z" fill="#EEE"/></g><path fill-rule="evenodd" clip-rule="evenodd" d="M260 49a.5.5 0 0 1-.5.5h-120a.5.5 0 0 1 0-1h120a.5.5 0 0 1 .5.5Z" fill="#737373"/><path clip-rule="evenodd" d="M260.5 49a1 1 0 0 1-1 1h-120a1 1 0 0 1 0-2h120a1 1 0 0 1 1 1Z" stroke="#000"/><path d="M144 45.5h-1v2h1v-2ZM144 50.5h-1v2h1v-2ZM256 45.5h-1v2h1v-2ZM256 50.5h-1v2h1v-2Z" fill="#000"/><g opacity=".1" fill="#EEE"><path d="M200.5 60.5h-1V62h1v-1.5ZM200.5 65h-1v1.5h1V65ZM144.5 58h-1v2h1v-2ZM144.5 67h-1v2h1v-2ZM256.5 58h-1v2h1v-2ZM256.5 67h-1v2h1v-2Z"/></g><g opacity=".1"><path fill-rule="evenodd" clip-rule="evenodd" d="M260.5 63.5a.5.5 0 0 1-.5.5H140a.5.5 0 0 1 0-1h120a.5.5 0 0 1 .5.5Z" fill="#EEE"/><path clip-rule="evenodd" d="M261 63.5a1 1 0 0 1-1 1H140a1 1 0 0 1 0-2h120a1 1 0 0 1 1 1Z" stroke="#EEE"/><path d="M144.5 60h-1v2h1v-2ZM144.5 65h-1v2h1v-2ZM256.5 60h-1v2h1v-2ZM256.5 65h-1v2h1v-2Z" fill="#EEE"/></g><path fill-rule="evenodd" clip-rule="evenodd" d="M260 63a.5.5 0 0 1-.5.5h-120a.5.5 0 0 1 0-1h120a.5.5 0 0 1 .5.5Z" fill="#737373"/><path clip-rule="evenodd" d="M260.5 63a1 1 0 0 1-1 1h-120a1 1 0 0 1 0-2h120a1 1 0 0 1 1 1Z" stroke="#000"/><path d="M144 59.5h-1v2h1v-2ZM144 64.5h-1v2h1v-2ZM256 59.5h-1v2h1v-2ZM256 64.5h-1v2h1v-2ZM200 60h-1v1.5h1V60ZM200 64.5h-1V66h1v-1.5ZM144 57.5h-1v2h1v-2ZM144 66.5h-1v2h1v-2ZM256 57.5h-1v2h1v-2ZM256 66.5h-1v2h1v-2Z" fill="#000"/><g opacity=".1"><path fill-rule="evenodd" clip-rule="evenodd" d="M260.5 77.5a.5.5 0 0 1-.5.5H140a.5.5 0 0 1 0-1h120a.5.5 0 0 1 .5.5Z" fill="#EEE"/><path clip-rule="evenodd" d="M261 77.5a1 1 0 0 1-1 1H140a1 1 0 0 1 0-2h120a1 1 0 0 1 1 1Z" stroke="#EEE"/><path d="M144.5 73h-1v3h1v-3ZM144.5 79h-1v3h1v-3ZM152.5 73h-1v3h1v-3ZM152.5 79h-1v3h1v-3ZM160.5 73h-1v3h1v-3ZM160.5 79h-1v3h1v-3ZM168.5 73h-1v3h1v-3ZM168.5 79h-1v3h1v-3ZM176.5 73h-1v3h1v-3ZM176.5 79h-1v3h1v-3ZM184.5 73h-1v3h1v-3ZM184.5 79h-1v3h1v-3ZM192.5 73h-1v3h1v-3ZM192.5 79h-1v3h1v-3ZM200.5 73h-1v3h1v-3ZM200.5 79h-1v3h1v-3ZM208.5 73h-1v3h1v-3ZM208.5 79h-1v3h1v-3ZM216.5 73h-1v3h1v-3ZM216.5 79h-1v3h1v-3ZM224.5 73h-1v3h1v-3ZM224.5 79h-1v3h1v-3ZM232.5 73h-1v3h1v-3ZM232.5 79h-1v3h1v-3ZM240.5 73h-1v3h1v-3ZM240.5 79h-1v3h1v-3ZM248.5 73h-1v3h1v-3ZM248.5 79h-1v3h1v-3ZM256.5 73h-1v3h1v-3ZM256.5 79h-1v3h1v-3Z" fill="#EEE"/></g><path fill-rule="evenodd" clip-rule="evenodd" d="M260 77a.5.5 0 0 1-.5.5h-120a.5.5 0 0 1 0-1h120a.5.5 0 0 1 .5.5Z" fill="#737373"/><path clip-rule="evenodd" d="M260.5 77a1 1 0 0 1-1 1h-120a1 1 0 0 1 0-2h120a1 1 0 0 1 1 1Z" stroke="#000"/><path d="M144 72.5h-1v3h1v-3ZM144 78.5h-1v3h1v-3ZM152 72.5h-1v3h1v-3ZM152 78.5h-1v3h1v-3ZM160 72.5h-1v3h1v-3ZM160 78.5h-1v3h1v-3ZM168 72.5h-1v3h1v-3ZM168 78.5h-1v3h1v-3ZM176 72.5h-1v3h1v-3ZM176 78.5h-1v3h1v-3ZM184 72.5h-1v3h1v-3ZM184 78.5h-1v3h1v-3ZM192 72.5h-1v3h1v-3ZM192 78.5h-1v3h1v-3ZM200 72.5h-1v3h1v-3ZM200 78.5h-1v3h1v-3ZM208 72.5h-1v3h1v-3ZM208 78.5h-1v3h1v-3ZM216 72.5h-1v3h1v-3ZM216 78.5h-1v3h1v-3ZM224 72.5h-1v3h1v-3ZM224 78.5h-1v3h1v-3ZM232 72.5h-1v3h1v-3ZM232 78.5h-1v3h1v-3ZM240 72.5h-1v3h1v-3ZM240 78.5h-1v3h1v-3ZM248 72.5h-1v3h1v-3ZM248 78.5h-1v3h1v-3ZM256 72.5h-1v3h1v-3ZM256 78.5h-1v3h1v-3Z" fill="#000"/><g opacity=".1"><path fill-rule="evenodd" clip-rule="evenodd" d="M393.5 49.5a.5.5 0 0 1-.5.5H273a.5.5 0 0 1 0-1h120a.5.5 0 0 1 .5.5Z" fill="#EEE"/><path clip-rule="evenodd" d="M394 49.5a1 1 0 0 1-1 1H273a1 1 0 0 1 0-2h120a1 1 0 0 1 1 1Z" stroke="#EEE"/><path d="M277.5 46h-1v2h1v-2ZM277.5 51h-1v2h1v-2ZM389.5 46h-1v2h1v-2ZM389.5 51h-1v2h1v-2Z" fill="#EEE"/></g><path fill-rule="evenodd" clip-rule="evenodd" d="M393 49a.5.5 0 0 1-.5.5h-120a.5.5 0 0 1 0-1h120a.5.5 0 0 1 .5.5Z" fill="url(#d)"/><path clip-rule="evenodd" d="M393.5 49a1 1 0 0 1-1 1h-120a1 1 0 0 1 0-2h120a1 1 0 0 1 1 1Z" stroke="#000"/><path clip-rule="evenodd" d="M393.5 49a2 2 0 0 1-2 2h-118a2 2 0 1 1 0-4h118a2 2 0 0 1 2 2Z" stroke="#001E3C" stroke-opacity=".5"/><path d="M277 45.5h-1v2h1v-2ZM277 50.5h-1v2h1v-2ZM389 45.5h-1v2h1v-2ZM389 50.5h-1v2h1v-2Z" fill="#000"/><g opacity=".1" fill="#EEE"><path d="M333.5 60.5h-1V62h1v-1.5ZM333.5 65h-1v1.5h1V65ZM277.5 58h-1v2h1v-2ZM277.5 67h-1v2h1v-2ZM389.5 58h-1v2h1v-2ZM389.5 67h-1v2h1v-2Z"/></g><g opacity=".1"><path fill-rule="evenodd" clip-rule="evenodd" d="M393.5 63.5a.5.5 0 0 1-.5.5H273a.5.5 0 0 1 0-1h120a.5.5 0 0 1 .5.5Z" fill="#EEE"/><path clip-rule="evenodd" d="M394 63.5a1 1 0 0 1-1 1H273a1 1 0 0 1 0-2h120a1 1 0 0 1 1 1Z" stroke="#EEE"/><path d="M277.5 60h-1v2h1v-2ZM277.5 65h-1v2h1v-2ZM389.5 60h-1v2h1v-2ZM389.5 65h-1v2h1v-2Z" fill="#EEE"/></g><path fill-rule="evenodd" clip-rule="evenodd" d="M393 63a.5.5 0 0 1-.5.5h-120a.5.5 0 0 1 0-1h120a.5.5 0 0 1 .5.5Z" fill="url(#e)"/><path clip-rule="evenodd" d="M393.5 63a1 1 0 0 1-1 1h-120a1 1 0 0 1 0-2h120a1 1 0 0 1 1 1Z" stroke="#000"/><path clip-rule="evenodd" d="M393.5 63a2 2 0 0 1-2 2h-118a2 2 0 1 1 0-4h118a2 2 0 0 1 2 2Z" stroke="#001E3C" stroke-opacity=".5"/><path d="M277 59.5h-1v2h1v-2ZM277 64.5h-1v2h1v-2ZM389 59.5h-1v2h1v-2ZM389 64.5h-1v2h1v-2ZM333 60h-1v1.5h1V60ZM333 64.5h-1V66h1v-1.5ZM277 57.5h-1v2h1v-2ZM277 66.5h-1v2h1v-2ZM389 57.5h-1v2h1v-2ZM389 66.5h-1v2h1v-2Z" fill="#000"/><g opacity=".1"><path fill-rule="evenodd" clip-rule="evenodd" d="M393.5 77.5a.5.5 0 0 1-.5.5H273a.5.5 0 0 1 0-1h120a.5.5 0 0 1 .5.5Z" fill="#EEE"/><path clip-rule="evenodd" d="M394 77.5a1 1 0 0 1-1 1H273a1 1 0 0 1 0-2h120a1 1 0 0 1 1 1Z" stroke="#EEE"/><path d="M277.5 73h-1v3h1v-3ZM277.5 79h-1v3h1v-3ZM285.5 73h-1v3h1v-3ZM285.5 79h-1v3h1v-3ZM293.5 73h-1v3h1v-3ZM293.5 79h-1v3h1v-3ZM301.5 73h-1v3h1v-3ZM301.5 79h-1v3h1v-3ZM309.5 73h-1v3h1v-3ZM309.5 79h-1v3h1v-3ZM317.5 73h-1v3h1v-3ZM317.5 79h-1v3h1v-3ZM325.5 73h-1v3h1v-3ZM325.5 79h-1v3h1v-3ZM333.5 73h-1v3h1v-3ZM333.5 79h-1v3h1v-3ZM341.5 73h-1v3h1v-3ZM341.5 79h-1v3h1v-3ZM349.5 73h-1v3h1v-3ZM349.5 79h-1v3h1v-3ZM357.5 73h-1v3h1v-3ZM357.5 79h-1v3h1v-3ZM365.5 73h-1v3h1v-3ZM365.5 79h-1v3h1v-3ZM373.5 73h-1v3h1v-3ZM373.5 79h-1v3h1v-3ZM381.5 73h-1v3h1v-3ZM381.5 79h-1v3h1v-3ZM389.5 73h-1v3h1v-3ZM389.5 79h-1v3h1v-3Z" fill="#EEE"/></g><path fill-rule="evenodd" clip-rule="evenodd" d="M393 77a.5.5 0 0 1-.5.5h-120a.5.5 0 0 1 0-1h120a.5.5 0 0 1 .5.5Z" fill="url(#f)"/><path clip-rule="evenodd" d="M393.5 77a1 1 0 0 1-1 1h-120a1 1 0 0 1 0-2h120a1 1 0 0 1 1 1Z" stroke="#000"/><path clip-rule="evenodd" d="M393.5 77a2 2 0 0 1-2 2h-118a2 2 0 1 1 0-4h118a2 2 0 0 1 2 2Z" stroke="#001E3C" stroke-opacity=".5"/><path d="M277 72.5h-1v3h1v-3ZM277 78.5h-1v3h1v-3ZM285 72.5h-1v3h1v-3ZM285 78.5h-1v3h1v-3ZM293 72.5h-1v3h1v-3ZM293 78.5h-1v3h1v-3ZM301 72.5h-1v3h1v-3ZM301 78.5h-1v3h1v-3ZM309 72.5h-1v3h1v-3ZM309 78.5h-1v3h1v-3ZM317 72.5h-1v3h1v-3ZM317 78.5h-1v3h1v-3ZM325 72.5h-1v3h1v-3ZM325 78.5h-1v3h1v-3ZM333 72.5h-1v3h1v-3ZM333 78.5h-1v3h1v-3ZM341 72.5h-1v3h1v-3ZM341 78.5h-1v3h1v-3ZM349 72.5h-1v3h1v-3ZM349 78.5h-1v3h1v-3ZM357 72.5h-1v3h1v-3ZM357 78.5h-1v3h1v-3ZM365 72.5h-1v3h1v-3ZM365 78.5h-1v3h1v-3ZM373 72.5h-1v3h1v-3ZM373 78.5h-1v3h1v-3ZM381 72.5h-1v3h1v-3ZM381 78.5h-1v3h1v-3ZM389 72.5h-1v3h1v-3ZM389 78.5h-1v3h1v-3Z" fill="#000"/><g opacity=".1"><path fill-rule="evenodd" clip-rule="evenodd" d="M127.5 7.5a.5.5 0 0 1-.5.5H7a.5.5 0 0 1 0-1h120a.5.5 0 0 1 .5.5Z" fill="#EEE"/><path clip-rule="evenodd" d="M128 7.5a1 1 0 0 1-1 1H7a1 1 0 1 1 0-2h120a1 1 0 0 1 1 1Z" stroke="#EEE"/><path d="M11.5 4h-1v2h1V4ZM11.5 9h-1v2h1V9ZM123.5 4h-1v2h1V4ZM123.5 9h-1v2h1V9Z" fill="#EEE"/></g><path fill-rule="evenodd" clip-rule="evenodd" d="M127 7a.5.5 0 0 1-.5.5H6.5a.5.5 0 0 1 0-1h120a.5.5 0 0 1 .5.5Z" fill="#1F1F1F"/><path clip-rule="evenodd" d="M127.5 7a1 1 0 0 1-1 1H6.5a1 1 0 1 1 0-2h120a1 1 0 0 1 1 1Z" stroke="#000"/><path d="M11 3.5h-1v2h1v-2ZM11 8.5h-1v2h1v-2ZM123 3.5h-1v2h1v-2ZM123 8.5h-1v2h1v-2Z" fill="#000"/><g opacity=".1" fill="#EEE"><path d="M67.5 18.5h-1V20h1v-1.5ZM67.5 23h-1v1.5h1V23ZM11.5 16h-1v2h1v-2ZM11.5 25h-1v2h1v-2ZM123.5 16h-1v2h1v-2ZM123.5 25h-1v2h1v-2Z"/></g><g opacity=".1"><path fill-rule="evenodd" clip-rule="evenodd" d="M127.5 21.5a.5.5 0 0 1-.5.5H7a.5.5 0 0 1 0-1h120a.5.5 0 0 1 .5.5Z" fill="#EEE"/><path clip-rule="evenodd" d="M128 21.5a1 1 0 0 1-1 1H7a1 1 0 1 1 0-2h120a1 1 0 0 1 1 1Z" stroke="#EEE"/><path d="M11.5 18h-1v2h1v-2ZM11.5 23h-1v2h1v-2ZM123.5 18h-1v2h1v-2ZM123.5 23h-1v2h1v-2Z" fill="#EEE"/></g><path fill-rule="evenodd" clip-rule="evenodd" d="M127 21a.5.5 0 0 1-.5.5H6.5a.5.5 0 0 1 0-1h120a.5.5 0 0 1 .5.5Z" fill="#1F1F1F"/><path clip-rule="evenodd" d="M127.5 21a1 1 0 0 1-1 1H6.5a1 1 0 1 1 0-2h120a1 1 0 0 1 1 1Z" stroke="#000"/><path d="M11 17.5h-1v2h1v-2ZM11 22.5h-1v2h1v-2ZM123 17.5h-1v2h1v-2ZM123 22.5h-1v2h1v-2ZM67 18h-1v1.5h1V18ZM67 22.5h-1V24h1v-1.5ZM11 15.5h-1v2h1v-2ZM11 24.5h-1v2h1v-2ZM123 15.5h-1v2h1v-2ZM123 24.5h-1v2h1v-2Z" fill="#000"/><g opacity=".1"><path fill-rule="evenodd" clip-rule="evenodd" d="M127.5 35.5a.5.5 0 0 1-.5.5H7a.5.5 0 0 1 0-1h120a.5.5 0 0 1 .5.5Z" fill="#EEE"/><path clip-rule="evenodd" d="M128 35.5a1 1 0 0 1-1 1H7a1 1 0 1 1 0-2h120a1 1 0 0 1 1 1Z" stroke="#EEE"/><path d="M11.5 31h-1v3h1v-3ZM11.5 37h-1v3h1v-3ZM19.5 31h-1v3h1v-3ZM19.5 37h-1v3h1v-3ZM27.5 31h-1v3h1v-3ZM27.5 37h-1v3h1v-3ZM35.5 31h-1v3h1v-3ZM35.5 37h-1v3h1v-3ZM43.5 31h-1v3h1v-3ZM43.5 37h-1v3h1v-3ZM51.5 31h-1v3h1v-3ZM51.5 37h-1v3h1v-3ZM59.5 31h-1v3h1v-3ZM59.5 37h-1v3h1v-3ZM67.5 31h-1v3h1v-3ZM67.5 37h-1v3h1v-3ZM75.5 31h-1v3h1v-3ZM75.5 37h-1v3h1v-3ZM83.5 31h-1v3h1v-3ZM83.5 37h-1v3h1v-3ZM91.5 31h-1v3h1v-3ZM91.5 37h-1v3h1v-3ZM99.5 31h-1v3h1v-3ZM99.5 37h-1v3h1v-3ZM107.5 31h-1v3h1v-3ZM107.5 37h-1v3h1v-3ZM115.5 31h-1v3h1v-3ZM115.5 37h-1v3h1v-3ZM123.5 31h-1v3h1v-3ZM123.5 37h-1v3h1v-3Z" fill="#EEE"/></g><path fill-rule="evenodd" clip-rule="evenodd" d="M127 35a.5.5 0 0 1-.5.5H6.5a.5.5 0 0 1 0-1h120a.5.5 0 0 1 .5.5Z" fill="#1F1F1F"/><path clip-rule="evenodd" d="M127.5 35a1 1 0 0 1-1 1H6.5a1 1 0 1 1 0-2h120a1 1 0 0 1 1 1Z" stroke="#000"/><path d="M11 30.5h-1v3h1v-3ZM11 36.5h-1v3h1v-3ZM19 30.5h-1v3h1v-3ZM19 36.5h-1v3h1v-3ZM27 30.5h-1v3h1v-3ZM27 36.5h-1v3h1v-3ZM35 30.5h-1v3h1v-3ZM35 36.5h-1v3h1v-3ZM43 30.5h-1v3h1v-3ZM43 36.5h-1v3h1v-3ZM51 30.5h-1v3h1v-3ZM51 36.5h-1v3h1v-3ZM59 30.5h-1v3h1v-3ZM59 36.5h-1v3h1v-3ZM67 30.5h-1v3h1v-3ZM67 36.5h-1v3h1v-3ZM75 30.5h-1v3h1v-3ZM75 36.5h-1v3h1v-3ZM83 30.5h-1v3h1v-3ZM83 36.5h-1v3h1v-3ZM91 30.5h-1v3h1v-3ZM91 36.5h-1v3h1v-3ZM99 30.5h-1v3h1v-3ZM99 36.5h-1v3h1v-3ZM107 30.5h-1v3h1v-3ZM107 36.5h-1v3h1v-3ZM115 30.5h-1v3h1v-3ZM115 36.5h-1v3h1v-3ZM123 30.5h-1v3h1v-3ZM123 36.5h-1v3h1v-3Z" fill="#000"/><defs><linearGradient id="a" x1="332.5" y1="6.5" x2="332.5" y2="7.5" gradientUnits="userSpaceOnUse"><stop stop-color="#FF99D2"/><stop offset="1" stop-color="#BF287C"/></linearGradient><linearGradient id="b" x1="332.5" y1="20.5" x2="332.5" y2="21.5" gradientUnits="userSpaceOnUse"><stop stop-color="#FF99D2"/><stop offset="1" stop-color="#BF287C"/></linearGradient><linearGradient id="c" x1="332.5" y1="34.5" x2="332.5" y2="35.5" gradientUnits="userSpaceOnUse"><stop stop-color="#FF99D2"/><stop offset="1" stop-color="#BF287C"/></linearGradient><linearGradient id="d" x1="332.5" y1="48.5" x2="332.5" y2="49.5" gradientUnits="userSpaceOnUse"><stop stop-color="#FF99D2"/><stop offset="1" stop-color="#BF287C"/></linearGradient><linearGradient id="e" x1="332.5" y1="62.5" x2="332.5" y2="63.5" gradientUnits="userSpaceOnUse"><stop stop-color="#FF99D2"/><stop offset="1" stop-color="#BF287C"/></linearGradient><linearGradient id="f" x1="332.5" y1="76.5" x2="332.5" y2="77.5" gradientUnits="userSpaceOnUse"><stop stop-color="#FF99D2"/><stop offset="1" stop-color="#BF287C"/></linearGradient></defs></svg>