<svg width="51" height="760" fill="none" xmlns="http://www.w3.org/2000/svg"><path d="M.5 3.5a3 3 0 0 1 3-3h44a3 3 0 0 1 3 3v69a3 3 0 0 1-3 3h-44a3 3 0 0 1-3-3v-69Z" fill="url(#a)"/><path opacity=".75" d="M25 15H1v1h24v-1Zm0 15H1v1h24v-1Zm0 15H1v1h24v-1Zm0 15H1v1h24v-1Zm0-59v74h1V1h-1Zm25 14H26v1h24v-1Zm0 15H26v1h24v-1Zm0 15H26v1h24v-1Zm0 15H26v1h24v-1Z" fill="#DBDBDB"/><path d="m46.55 8.016-4 4-8-8-4.3 4" stroke="#DBDBDB" stroke-linecap="round"/><path d="m38.4 19.016 8 8-8-8Zm-8 8v-8 8Zm8-8v8-8Zm-8 0 8 8-8-8Zm9 22h2-2Zm-8-3v-4 4Zm8 3v-6 6Zm-6-7v3-3Zm10 2v1.5-1.5Zm-8 1v5-5Zm6 .5v3.5-3.5Zm4-1.5v4-4Zm-8-1v7-7Zm-6-1h2-2Zm2 3h2-2Zm2 5h2-2Zm2-7h2-2Zm4 2.5h2-2Zm2-1.5h2-2Zm-14 2h2-2Zm16 2h2-2Z" stroke="#DBDBDB" stroke-linecap="round" stroke-linejoin="round"/><path fill-rule="evenodd" clip-rule="evenodd" d="M29 58.016h2v-5h-2v5Zm16.8 0h2v-5h-2v5Zm-12.7-2h-2v-3h2v3Zm12.6 0h-2v-3h2v3Zm-12.5-2.75h2v-.5h-2v.5Zm10.4 0h-2v-.5h2v.5Zm-8.3-.25h2v-3h-2v3Zm4.1 0h-2v-5h2v5Zm.1 0h2v-3h-2v3Z" fill="#DBDBDB"/><path d="m31.284 69.142.343-1.354h.413l.103-.343h-.425c.12-.494.281-.855.48-1.084.121-.142.24-.214.355-.214a.08.08 0 0 1 .057.021.069.069 0 0 1 .022.053c0 .02-.016.056-.048.111a.308.308 0 0 0-.049.155c0 .069.026.127.076.176a.269.269 0 0 0 .194.073.28.28 0 0 0 .21-.089.336.336 0 0 0 .086-.242.352.352 0 0 0-.128-.281c-.085-.072-.221-.108-.409-.108a1.33 1.33 0 0 0-.796.257c-.239.172-.465.457-.68.853-.074.137-.145.225-.211.264-.066.039-.173.057-.32.055l-.096.343h.407l-.598 2.34a8.88 8.88 0 0 1-.202.713.85.85 0 0 1-.231.334.215.215 0 0 1-.15.056.062.062 0 0 1-.04-.015l-.015-.02c0-.01.014-.03.044-.06.03-.031.044-.077.044-.14a.225.225 0 0 0-.07-.17c-.047-.045-.115-.067-.203-.067a.37.37 0 0 0-.255.088.272.272 0 0 0-.096.208c0 .086.039.16.117.224.078.063.2.095.366.095.264 0 .498-.069.702-.206.204-.138.382-.35.534-.638.153-.287.309-.75.47-1.388Zm14.997-1.36.507-1.766h-.176l-.978.172-.032.118c.11-.006.194.01.249.05a.127.127 0 0 1 .058.11c0 .056-.021.156-.064.303l-.897 3.108c.36.19.7.284 1.023.284.433 0 .82-.183 1.16-.548.383-.414.574-.885.574-1.412 0-.22-.058-.415-.174-.584-.117-.17-.292-.254-.526-.254a.7.7 0 0 0-.337.084c-.103.055-.233.167-.387.335Zm-4.573.117h1.41v-1.406h.383V67.9h1.41v.387H43.5v1.395h-.384v-1.395h-1.409V67.9Zm-3.36-.495-.569 1.949-.058.237a.365.365 0 0 0-.01.064c0 .024.01.044.026.062.016.017.033.026.051.026.041 0 .098-.031.17-.094.03-.025.1-.115.21-.27l.104.054c-.14.254-.287.439-.444.555a.838.838 0 0 1-.509.174c-.111 0-.196-.029-.255-.086a.293.293 0 0 1-.087-.219c0-.076.03-.217.093-.424l.07-.238c-.226.389-.444.664-.653.826a.62.62 0 0 1-.386.141c-.18 0-.31-.074-.39-.221a1.029 1.029 0 0 1-.12-.5c0-.275.084-.59.252-.947.168-.357.388-.643.662-.86.224-.18.435-.27.633-.27a.36.36 0 0 1 .263.096c.067.063.116.179.147.347l.105-.36.695-.042Zm1.42-.04-1.022.175-.02.111a.99.99 0 0 1 .193-.023c.102 0 .186.044.252.132.105.136.252.552.44 1.248a6.432 6.432 0 0 1-.302.387.885.885 0 0 1-.223.19.325.325 0 0 1-.152.035.581.581 0 0 1-.211-.07.428.428 0 0 0-.18-.047.33.33 0 0 0-.245.097.334.334 0 0 0-.097.246c0 .094.03.17.09.228a.33.33 0 0 0 .241.088c.098 0 .19-.02.276-.061.086-.041.193-.129.323-.263.13-.133.31-.346.538-.637.088.278.164.48.229.605a.703.703 0 0 0 .22.273.549.549 0 0 0 .313.083.641.641 0 0 0 .369-.132c.164-.113.332-.308.504-.586l-.106-.061c-.117.164-.204.266-.26.307a.228.228 0 0 1-.132.039c-.06 0-.12-.038-.18-.115-.099-.129-.231-.486-.398-1.072.149-.262.274-.433.375-.513a.373.373 0 0 1 .235-.088c.031 0 .087.012.168.034a.818.818 0 0 0 .216.034c.086 0 .157-.03.215-.09a.317.317 0 0 0 .086-.23c0-.1-.028-.178-.086-.237a.335.335 0 0 0-.248-.088.562.562 0 0 0-.27.07c-.085.045-.193.144-.324.296a7.125 7.125 0 0 0-.434.595 2.93 2.93 0 0 0-.392-.96Zm-4.274.067H32.29v.38h3.205v-.38Zm1.916.53c0-.158-.024-.272-.073-.343a.168.168 0 0 0-.144-.073c-.06 0-.123.03-.187.088-.131.12-.272.367-.423.737-.152.37-.227.69-.227.96 0 .103.017.177.05.223.035.046.072.07.114.07.087 0 .176-.052.266-.153a2.38 2.38 0 0 0 .349-.53c.183-.368.275-.694.275-.98Zm8.502 2.033a.475.475 0 0 1-.249-.088l.399-1.377c.08-.279.154-.462.222-.548.102-.132.22-.199.358-.199a.28.28 0 0 1 .216.109c.063.072.094.177.094.316 0 .244-.04.49-.123.735a2.427 2.427 0 0 1-.306.63c-.122.174-.239.294-.35.36a.51.51 0 0 1-.26.062ZM35.494 68.39H32.29v.38h3.205v-.38Z" fill="#DBDBDB"/><path d="M21.3 8.001c-.55 4.486-4.5 4.016-4.5 4.016M4.7 8.015c.551-4.485 4.3-4 4.3-4l-4.3 4Zm8.3.016c-.55-4.486-4.5-4.016-4.5-4.016L13 8.031ZM13 8c.551 4.486 4.395 4.027 4.5 4.015L13 8Z" stroke="#FF9000" stroke-linecap="round"/><path d="M5 26.534v-7h8v7h8v-7" stroke="#DBDBDB" stroke-linecap="round" stroke-linejoin="round"/><path d="M4 37.11c.043-1.023.745-4.58 1-4 .255.579.4 5.933.9 6.933s.63-3.502 1.1-2.934c.47.569.312 5.727.779 5.208.467-.52.666-6.406 1.221-7.208.555-.802.465 4.267 1 4 .535-.266.64-5.565 1.14-5.065.5.5.395 6.049.86 7.065.465 1.017.506-3.277 1-3 .494.277.517 4.737 1 4 .483-.736.431-6.194.931-6.944s.591 4.216 1.069 3.944c.478-.272.343-5.532.843-5.032.5.5.618 6.024 1.157 7.032.54 1.008.515-2.725 1-3 .485-.275.441 3.15.941 1.9.5-1.25.544-6.175 1.059-6.9.515-.725 1 4 1 4" stroke="#DBDBDB" stroke-width=".75"/><path d="m18 52.853 3 4-3-4Zm-13 4 3-8-3 8Zm13-4h-7 7Zm-10-4 3 4-3-4Z" stroke="#DBDBDB" stroke-linecap="round" stroke-linejoin="round"/><path fill-rule="evenodd" clip-rule="evenodd" d="M11 64.5a.5.5 0 1 1 1 0 .5.5 0 0 1-1 0Zm.009.871c-.43.154-.774.45-1.079.852-.483.64-.834 1.508-1.216 2.463l-.015.037c-.364.91-.76 1.9-1.331 2.656-.486.643-1.116 1.142-1.97 1.31a1 1 0 1 1-.076-1.008c.511-.133.905-.45 1.248-.904.483-.64.834-1.508 1.216-2.463l.015-.037c.364-.91.76-1.9 1.331-2.656.364-.482.809-.882 1.368-1.124a1 1 0 1 1 1.886.468 19.9 19.9 0 0 0 1.043 2.028c.365.61.778 1.195 1.206 1.622.192.192.372.337.538.44a1 1 0 0 1 .392-.053l.107-.198c.243-.437.6-1.023 1.058-1.611.675-.867 1.63-1.822 2.813-2.234a1 1 0 1 1 .233.98c-.858.332-1.627 1.059-2.256 1.868a11.719 11.719 0 0 0-1.12 1.755 1 1 0 1 1-1.883.257 4.26 4.26 0 0 1-.59-.497c-.51-.51-.971-1.174-1.356-1.815A19.619 19.619 0 0 1 11.53 65.5h-.03a.994.994 0 0 1-.491-.129ZM4.5 71.75a.5.5 0 1 0 0 1 .5.5 0 0 0 0-1Zm11-2.25a.5.5 0 1 0 0 1 .5.5 0 0 0 0-1Zm4.5-4.25a.5.5 0 1 1 1 0 .5.5 0 0 1-1 0Z" fill="#DBDBDB"/><path d="M.5 79.5a3 3 0 0 1 3-3h44a3 3 0 0 1 3 3v69a3 3 0 0 1-3 3h-44a3 3 0 0 1-3-3v-69Z" fill="url(#b)"/><path opacity=".75" d="M25 91H1v1h24v-1Zm0 15H1v1h24v-1Zm0 15H1v1h24v-1Zm0 15H1v1h24v-1Zm0-59v74h1V77h-1Zm25 14H26v1h24v-1Zm0 15H26v1h24v-1Zm0 15H26v1h24v-1Zm0 15H26v1h24v-1Z" fill="#DBDBDB"/><path d="m46.55 84.016-4 4-8-8-4.3 4" stroke="#FF9000" stroke-linecap="round"/><path d="m38.4 95.016 8 8-8-8Zm-8 8v-8 8Zm8-8v8-8Zm-8 0 8 8-8-8Zm9 22h2-2Zm-8-3v-4 4Zm8 3v-6 6Zm-6-7v3-3Zm10 2v1.5-1.5Zm-8 1v5-5Zm6 .5v3.5-3.5Zm4-1.5v4-4Zm-8-1v7-7Zm-6-1h2-2Zm2 3h2-2Zm2 5h2-2Zm2-7h2-2Zm4 2.5h2-2Zm2-1.5h2-2Zm-14 2h2-2Zm16 2h2-2Z" stroke="#DBDBDB" stroke-linecap="round" stroke-linejoin="round"/><path fill-rule="evenodd" clip-rule="evenodd" d="M29 134.016h2v-5h-2v5Zm16.8 0h2v-5h-2v5Zm-12.7-2h-2v-3h2v3Zm12.6 0h-2v-3h2v3Zm-12.5-2.75h2v-.5h-2v.5Zm10.4 0h-2v-.5h2v.5Zm-8.3-.25h2v-3h-2v3Zm4.1 0h-2v-5h2v5Zm.1 0h2v-3h-2v3Z" fill="#DBDBDB"/><path d="m31.284 145.142.343-1.354h.413l.103-.343h-.425c.12-.494.281-.855.48-1.084.121-.142.24-.214.355-.214a.08.08 0 0 1 .057.021.069.069 0 0 1 .022.053.3.3 0 0 1-.048.111.308.308 0 0 0-.049.155c0 .069.026.127.076.176a.269.269 0 0 0 .194.073.277.277 0 0 0 .21-.089.337.337 0 0 0 .086-.242.351.351 0 0 0-.128-.281c-.085-.072-.221-.108-.409-.108-.292 0-.558.086-.796.257-.239.172-.465.456-.68.853-.074.137-.145.225-.211.264-.066.039-.173.057-.32.055l-.096.343h.407l-.598 2.341c-.1.385-.166.622-.202.712a.851.851 0 0 1-.231.334.215.215 0 0 1-.15.055.06.06 0 0 1-.04-.014l-.015-.021c0-.009.014-.029.044-.06.03-.03.044-.076.044-.139a.226.226 0 0 0-.07-.17c-.047-.045-.115-.067-.203-.067a.362.362 0 0 0-.255.088.271.271 0 0 0-.096.208c0 .086.039.16.117.224.078.063.2.095.366.095.264 0 .498-.069.702-.207.204-.137.382-.35.534-.637.153-.287.309-.75.47-1.388Zm14.997-1.36.507-1.766h-.176l-.978.172-.032.118c.11-.006.194.01.249.049a.13.13 0 0 1 .058.112c0 .054-.021.155-.064.302l-.897 3.108c.36.189.7.284 1.023.284.433 0 .82-.182 1.16-.548.383-.414.574-.884.574-1.412 0-.221-.058-.415-.174-.584-.117-.169-.292-.254-.526-.254a.697.697 0 0 0-.337.084c-.103.055-.233.167-.387.335Zm-4.573.117h1.41v-1.406h.383v1.406h1.41v.387H43.5v1.395h-.384v-1.395h-1.409v-.387Zm-3.36-.495-.569 1.949-.058.237a.366.366 0 0 0-.01.064c0 .024.01.044.026.062.016.017.033.026.051.026.041 0 .098-.031.17-.094.03-.025.1-.115.21-.269l.104.053c-.14.254-.287.439-.444.555a.84.84 0 0 1-.509.174c-.111 0-.196-.029-.255-.086a.295.295 0 0 1-.087-.219c0-.076.03-.217.093-.424l.07-.238c-.226.389-.444.664-.653.827a.625.625 0 0 1-.386.14.411.411 0 0 1-.39-.221 1.031 1.031 0 0 1-.12-.5c0-.275.084-.591.252-.947.168-.357.388-.643.662-.86.224-.18.435-.27.633-.27.11 0 .197.032.263.095.067.064.116.18.147.348l.105-.361.695-.041Zm1.42-.041-1.022.176-.02.111c.076-.015.14-.023.193-.023.102 0 .186.044.252.132.105.137.252.553.44 1.248a6.71 6.71 0 0 1-.302.387.888.888 0 0 1-.223.19.33.33 0 0 1-.152.035.577.577 0 0 1-.211-.07.431.431 0 0 0-.18-.047.332.332 0 0 0-.342.343c0 .093.03.17.09.228.06.059.14.088.241.088a.63.63 0 0 0 .276-.061c.086-.041.193-.129.323-.263.13-.133.31-.346.538-.637.088.278.164.479.229.605a.708.708 0 0 0 .22.273.554.554 0 0 0 .313.083.641.641 0 0 0 .369-.132c.164-.113.332-.308.504-.586l-.106-.061c-.117.164-.204.266-.26.307a.224.224 0 0 1-.132.039c-.06 0-.12-.039-.18-.115-.099-.129-.231-.486-.398-1.072.149-.262.274-.433.375-.513a.376.376 0 0 1 .235-.088c.031 0 .087.012.168.034a.799.799 0 0 0 .216.034c.086 0 .157-.03.215-.09a.316.316 0 0 0 .086-.23.325.325 0 0 0-.086-.237.334.334 0 0 0-.248-.088.56.56 0 0 0-.27.069c-.085.046-.193.145-.324.297a7.305 7.305 0 0 0-.434.595 2.936 2.936 0 0 0-.392-.961Zm-4.274.068H32.29v.381h3.205v-.381Zm1.916.53c0-.158-.024-.273-.073-.343a.167.167 0 0 0-.144-.073c-.06 0-.123.029-.187.088-.131.121-.272.367-.423.737-.152.37-.227.69-.227.959 0 .104.017.178.05.224.035.046.072.069.114.069.087 0 .176-.051.266-.152.129-.145.245-.322.349-.531.183-.367.275-.693.275-.978Zm8.502 2.033a.472.472 0 0 1-.249-.088l.399-1.377c.08-.279.154-.462.222-.548.102-.132.22-.199.358-.199.082 0 .154.036.216.109.063.072.094.177.094.316 0 .244-.04.489-.123.735a2.431 2.431 0 0 1-.306.63 1.256 1.256 0 0 1-.35.361.51.51 0 0 1-.26.061Zm-10.418-1.605H32.29v.381h3.205v-.381Z" fill="#DBDBDB"/><path d="M21.3 84.001c-.55 4.486-4.5 4.016-4.5 4.016M4.7 84.015c.551-4.485 4.3-4 4.3-4l-4.3 4Zm8.3.016c-.55-4.486-4.5-4.016-4.5-4.016l4.5 4.016ZM13 84c.551 4.486 4.395 4.027 4.5 4.015L13 84Z" stroke="#DBDBDB" stroke-linecap="round"/><path d="M5 102.534v-7h8v7h8v-7" stroke="#DBDBDB" stroke-linecap="round" stroke-linejoin="round"/><path d="M4 113.109c.043-1.022.745-4.579 1-4 .255.58.4 5.934.9 6.934s.63-3.502 1.1-2.934c.47.569.312 5.727.779 5.208.467-.519.666-6.406 1.221-7.208.555-.802.465 4.267 1 4 .535-.266.64-5.565 1.14-5.065.5.5.395 6.049.86 7.065.465 1.017.506-3.277 1-3 .494.278.517 4.737 1 4 .483-.736.431-6.194.931-6.944s.591 4.216 1.069 3.944c.478-.272.343-5.532.843-5.032.5.5.618 6.024 1.157 7.032.54 1.008.515-2.725 1-3 .485-.275.441 3.151.941 1.901.5-1.25.544-6.176 1.059-6.901.515-.725 1 4 1 4" stroke="#DBDBDB" stroke-width=".75"/><path d="m18 128.854 3 4-3-4Zm-13 4 3-8-3 8Zm13-4h-7 7Zm-10-4 3 4-3-4Z" stroke="#DBDBDB" stroke-linecap="round" stroke-linejoin="round"/><path fill-rule="evenodd" clip-rule="evenodd" d="M11 140.5a.5.5 0 1 1 1 0 .5.5 0 0 1-1 0Zm.009.871c-.43.154-.774.449-1.079.852-.483.639-.834 1.508-1.216 2.463l-.015.037c-.364.91-.76 1.9-1.331 2.657-.486.642-1.116 1.141-1.97 1.309a1 1 0 1 1-.076-1.008c.511-.133.905-.45 1.248-.904.483-.639.834-1.508 1.216-2.463l.015-.037c.364-.91.76-1.9 1.331-2.657.364-.481.809-.881 1.368-1.123a1 1 0 1 1 1.886.468c.045.103.1.222.16.355.215.459.52 1.067.883 1.673.365.609.778 1.195 1.206 1.622.192.192.372.337.538.44a.985.985 0 0 1 .392-.053l.107-.198c.243-.437.6-1.023 1.058-1.611.675-.867 1.63-1.822 2.813-2.234a1 1 0 1 1 .233.98c-.858.332-1.627 1.059-2.256 1.868a11.734 11.734 0 0 0-1.12 1.755 1 1 0 1 1-1.884.258 4.235 4.235 0 0 1-.588-.498c-.51-.51-.972-1.174-1.357-1.815a19.618 19.618 0 0 1-1.042-2.007H11.5a.994.994 0 0 1-.491-.129ZM4.5 147.75a.5.5 0 1 0 0 1 .5.5 0 0 0 0-1Zm11-2.25a.5.5 0 1 0 0 1 .5.5 0 0 0 0-1Zm4.5-4.25a.5.5 0 1 1 1 0 .5.5 0 0 1-1 0Z" fill="#DBDBDB"/><path d="M.5 155.5a3 3 0 0 1 3-3h44a3 3 0 0 1 3 3v69a3 3 0 0 1-3 3h-44a3 3 0 0 1-3-3v-69Z" fill="url(#c)"/><path opacity=".75" d="M25 167H1v1h24v-1Zm0 15H1v1h24v-1Zm0 15H1v1h24v-1Zm0 15H1v1h24v-1Zm0-59v74h1v-74h-1Zm25 14H26v1h24v-1Zm0 15H26v1h24v-1Zm0 15H26v1h24v-1Zm0 15H26v1h24v-1Z" fill="#DBDBDB"/><path d="m46.55 160.016-4 4-8-8-4.3 4" stroke="#DBDBDB" stroke-linecap="round"/><path d="m38.4 171.016 8 8-8-8Zm-8 8v-8 8Zm8-8v8-8Zm-8 0 8 8-8-8Zm9 22h2-2Zm-8-3v-4 4Zm8 3v-6 6Zm-6-7v3-3Zm10 2v1.5-1.5Zm-8 1v5-5Zm6 .5v3.5-3.5Zm4-1.5v4-4Zm-8-1v7-7Zm-6-1h2-2Zm2 3h2-2Zm2 5h2-2Zm2-7h2-2Zm4 2.5h2-2Zm2-1.5h2-2Zm-14 2h2-2Zm16 2h2-2Z" stroke="#DBDBDB" stroke-linecap="round" stroke-linejoin="round"/><path fill-rule="evenodd" clip-rule="evenodd" d="M29 210.016h2v-5h-2v5Zm16.8 0h2v-5h-2v5Zm-12.7-2h-2v-3h2v3Zm12.6 0h-2v-3h2v3Zm-12.5-2.75h2v-.5h-2v.5Zm10.4 0h-2v-.5h2v.5Zm-8.3-.25h2v-3h-2v3Zm4.1 0h-2v-5h2v5Zm.1 0h2v-3h-2v3Z" fill="#DBDBDB"/><path d="m31.284 221.142.343-1.354h.413l.103-.343h-.425c.12-.494.281-.855.48-1.084.121-.142.24-.214.355-.214a.08.08 0 0 1 .057.021.069.069 0 0 1 .022.053.3.3 0 0 1-.048.111.308.308 0 0 0-.049.155c0 .069.026.127.076.176a.269.269 0 0 0 .194.073.277.277 0 0 0 .21-.089.337.337 0 0 0 .086-.242.351.351 0 0 0-.128-.281c-.085-.072-.221-.108-.409-.108-.292 0-.558.086-.796.257-.239.172-.465.456-.68.853-.074.137-.145.225-.211.264-.066.039-.173.057-.32.055l-.096.343h.407l-.598 2.341c-.1.385-.166.622-.202.712a.851.851 0 0 1-.231.334.215.215 0 0 1-.15.055.06.06 0 0 1-.04-.014l-.015-.021c0-.009.014-.029.044-.06.03-.03.044-.076.044-.139a.226.226 0 0 0-.07-.17c-.047-.045-.115-.067-.203-.067a.362.362 0 0 0-.255.088.271.271 0 0 0-.096.208c0 .086.039.16.117.224.078.063.2.095.366.095.264 0 .498-.069.702-.207.204-.137.382-.35.534-.637.153-.287.309-.75.47-1.388Zm14.997-1.36.507-1.766h-.176l-.978.172-.032.118c.11-.006.194.01.249.049a.13.13 0 0 1 .058.112c0 .054-.021.155-.064.302l-.897 3.108c.36.189.7.284 1.023.284.433 0 .82-.182 1.16-.548.383-.414.574-.884.574-1.412 0-.221-.058-.415-.174-.584-.117-.169-.292-.254-.526-.254a.697.697 0 0 0-.337.084c-.103.055-.233.167-.387.335Zm-4.573.117h1.41v-1.406h.383v1.406h1.41v.387H43.5v1.395h-.384v-1.395h-1.409v-.387Zm-3.36-.495-.569 1.949-.058.237a.366.366 0 0 0-.01.064c0 .024.01.044.026.062.016.017.033.026.051.026.041 0 .098-.031.17-.094.03-.025.1-.115.21-.269l.104.053c-.14.254-.287.439-.444.555a.84.84 0 0 1-.509.174c-.111 0-.196-.029-.255-.086a.295.295 0 0 1-.087-.219c0-.076.03-.217.093-.424l.07-.238c-.226.389-.444.664-.653.827a.625.625 0 0 1-.386.14.411.411 0 0 1-.39-.221 1.031 1.031 0 0 1-.12-.5c0-.275.084-.591.252-.947.168-.357.388-.643.662-.86.224-.18.435-.27.633-.27.11 0 .197.032.263.095.067.064.116.18.147.348l.105-.361.695-.041Zm1.42-.041-1.022.176-.02.111c.076-.015.14-.023.193-.023.102 0 .186.044.252.132.105.137.252.553.44 1.248a6.71 6.71 0 0 1-.302.387.888.888 0 0 1-.223.19.33.33 0 0 1-.152.035.577.577 0 0 1-.211-.07.431.431 0 0 0-.18-.047.332.332 0 0 0-.342.343c0 .093.03.17.09.228.06.059.14.088.241.088a.63.63 0 0 0 .276-.061c.086-.041.193-.129.323-.263.13-.133.31-.346.538-.637.088.278.164.479.229.605a.708.708 0 0 0 .22.273.554.554 0 0 0 .313.083.641.641 0 0 0 .369-.132c.164-.113.332-.308.504-.586l-.106-.061c-.117.164-.204.266-.26.307a.224.224 0 0 1-.132.039c-.06 0-.12-.039-.18-.115-.099-.129-.231-.486-.398-1.072.149-.262.274-.433.375-.513a.376.376 0 0 1 .235-.088c.031 0 .087.012.168.034a.799.799 0 0 0 .216.034c.086 0 .157-.03.215-.09a.316.316 0 0 0 .086-.23.325.325 0 0 0-.086-.237.334.334 0 0 0-.248-.088.56.56 0 0 0-.27.069c-.085.046-.193.145-.324.297a7.305 7.305 0 0 0-.434.595 2.936 2.936 0 0 0-.392-.961Zm-4.274.068H32.29v.381h3.205v-.381Zm1.916.53c0-.158-.024-.273-.073-.343a.167.167 0 0 0-.144-.073c-.06 0-.123.029-.187.088-.131.121-.272.367-.423.737-.152.37-.227.69-.227.959 0 .104.017.178.05.224.035.046.072.069.114.069.087 0 .176-.051.266-.152.129-.145.245-.322.349-.531.183-.367.275-.693.275-.978Zm8.502 2.033a.472.472 0 0 1-.249-.088l.399-1.377c.08-.279.154-.462.222-.548.102-.132.22-.199.358-.199.082 0 .154.036.216.109.063.072.094.177.094.316 0 .244-.04.489-.123.735a2.431 2.431 0 0 1-.306.63 1.256 1.256 0 0 1-.35.361.51.51 0 0 1-.26.061Zm-10.418-1.605H32.29v.381h3.205v-.381Z" fill="#DBDBDB"/><path d="M21.3 160.001c-.55 4.486-4.5 4.016-4.5 4.016m-12.1-4.002c.551-4.485 4.3-4 4.3-4l-4.3 4Zm8.3.016c-.55-4.486-4.5-4.016-4.5-4.016l4.5 4.016Zm0-.031c.551 4.486 4.395 4.027 4.5 4.015L13 160Z" stroke="#DBDBDB" stroke-linecap="round"/><path d="M5 178.534v-7h8v7h8v-7" stroke="#FF9000" stroke-linecap="round" stroke-linejoin="round"/><path d="M4 189.109c.043-1.022.745-4.579 1-4 .255.58.4 5.934.9 6.934s.63-3.502 1.1-2.934c.47.569.312 5.727.779 5.208.467-.519.666-6.406 1.221-7.208.555-.802.465 4.267 1 4 .535-.266.64-5.565 1.14-5.065.5.5.395 6.049.86 7.065.465 1.017.506-3.277 1-3 .494.278.517 4.737 1 4 .483-.736.431-6.194.931-6.944s.591 4.216 1.069 3.944c.478-.272.343-5.532.843-5.032.5.5.618 6.024 1.157 7.032.54 1.008.515-2.725 1-3 .485-.275.441 3.151.941 1.901.5-1.25.544-6.176 1.059-6.901.515-.725 1 4 1 4" stroke="#DBDBDB" stroke-width=".75"/><path d="m18 204.854 3 4-3-4Zm-13 4 3-8-3 8Zm13-4h-7 7Zm-10-4 3 4-3-4Z" stroke="#DBDBDB" stroke-linecap="round" stroke-linejoin="round"/><path fill-rule="evenodd" clip-rule="evenodd" d="M11 216.5a.5.5 0 1 1 1 0 .5.5 0 0 1-1 0Zm.009.871c-.43.154-.774.449-1.079.852-.483.639-.834 1.508-1.216 2.463l-.015.037c-.364.91-.76 1.9-1.331 2.657-.486.642-1.116 1.141-1.97 1.309a1 1 0 1 1-.076-1.008c.511-.133.905-.45 1.248-.904.483-.639.834-1.508 1.216-2.463l.015-.037c.364-.91.76-1.9 1.331-2.657.364-.481.809-.881 1.368-1.123a1 1 0 1 1 1.886.468c.045.103.1.222.16.355.215.459.52 1.067.883 1.673.365.609.778 1.195 1.206 1.622.192.192.372.337.538.44a.985.985 0 0 1 .392-.053l.107-.198c.243-.437.6-1.023 1.058-1.611.675-.867 1.63-1.822 2.813-2.234a1 1 0 1 1 .233.98c-.858.332-1.627 1.059-2.256 1.868a11.734 11.734 0 0 0-1.12 1.755 1 1 0 1 1-1.884.258 4.235 4.235 0 0 1-.588-.498c-.51-.51-.972-1.174-1.357-1.815a19.618 19.618 0 0 1-1.042-2.007H11.5a.994.994 0 0 1-.491-.129ZM4.5 223.75a.5.5 0 1 0 0 1 .5.5 0 0 0 0-1Zm11-2.25a.5.5 0 1 0 0 1 .5.5 0 0 0 0-1Zm4.5-4.25a.5.5 0 1 1 1 0 .5.5 0 0 1-1 0Z" fill="#DBDBDB"/><path d="M.5 231.5a3 3 0 0 1 3-3h44a3 3 0 0 1 3 3v69a3 3 0 0 1-3 3h-44a3 3 0 0 1-3-3v-69Z" fill="url(#d)"/><path opacity=".75" d="M25 243H1v1h24v-1Zm0 15H1v1h24v-1Zm0 15H1v1h24v-1Zm0 15H1v1h24v-1Zm0-59v74h1v-74h-1Zm25 14H26v1h24v-1Zm0 15H26v1h24v-1Zm0 15H26v1h24v-1Zm0 15H26v1h24v-1Z" fill="#DBDBDB"/><path d="m46.55 236.016-4 4-8-8-4.3 4" stroke="#DBDBDB" stroke-linecap="round"/><path d="m38.4 247.016 8 8-8-8Zm-8 8v-8 8Zm8-8v8-8Zm-8 0 8 8-8-8Z" stroke="#FF9000" stroke-linecap="round" stroke-linejoin="round"/><path d="M39.4 269.016h2-2Zm-8-3v-4 4Zm8 3v-6 6Zm-6-7v3-3Zm10 2v1.5-1.5Zm-8 1v5-5Zm6 .5v3.5-3.5Zm4-1.5v4-4Zm-8-1v7-7Zm-6-1h2-2Zm2 3h2-2Zm2 5h2-2Zm2-7h2-2Zm4 2.5h2-2Zm2-1.5h2-2Zm-14 2h2-2Zm16 2h2-2Z" stroke="#DBDBDB" stroke-linecap="round" stroke-linejoin="round"/><path fill-rule="evenodd" clip-rule="evenodd" d="M29 286.016h2v-5h-2v5Zm16.8 0h2v-5h-2v5Zm-12.7-2h-2v-3h2v3Zm12.6 0h-2v-3h2v3Zm-12.5-2.75h2v-.5h-2v.5Zm10.4 0h-2v-.5h2v.5Zm-8.3-.25h2v-3h-2v3Zm4.1 0h-2v-5h2v5Zm.1 0h2v-3h-2v3Z" fill="#DBDBDB"/><path d="m31.284 297.142.343-1.354h.413l.103-.343h-.425c.12-.494.281-.855.48-1.084.121-.142.24-.214.355-.214a.08.08 0 0 1 .057.021.069.069 0 0 1 .022.053.3.3 0 0 1-.048.111.308.308 0 0 0-.049.155c0 .069.026.127.076.176a.269.269 0 0 0 .194.073.277.277 0 0 0 .21-.089.337.337 0 0 0 .086-.242.351.351 0 0 0-.128-.281c-.085-.072-.221-.108-.409-.108-.292 0-.558.086-.796.257-.239.172-.465.456-.68.853-.074.137-.145.225-.211.264-.066.039-.173.057-.32.055l-.096.343h.407l-.598 2.341c-.1.385-.166.622-.202.712a.851.851 0 0 1-.231.334.215.215 0 0 1-.15.055.06.06 0 0 1-.04-.014l-.015-.021c0-.009.014-.029.044-.06.03-.03.044-.076.044-.139a.226.226 0 0 0-.07-.17c-.047-.045-.115-.067-.203-.067a.362.362 0 0 0-.255.088.271.271 0 0 0-.096.208c0 .086.039.16.117.224.078.063.2.095.366.095.264 0 .498-.069.702-.207.204-.137.382-.35.534-.637.153-.287.309-.75.47-1.388Zm14.997-1.36.507-1.766h-.176l-.978.172-.032.118c.11-.006.194.01.249.049a.13.13 0 0 1 .058.112c0 .054-.021.155-.064.302l-.897 3.108c.36.189.7.284 1.023.284.433 0 .82-.182 1.16-.548.383-.414.574-.884.574-1.412 0-.221-.058-.415-.174-.584-.117-.169-.292-.254-.526-.254a.697.697 0 0 0-.337.084c-.103.055-.233.167-.387.335Zm-4.573.117h1.41v-1.406h.383v1.406h1.41v.387H43.5v1.395h-.384v-1.395h-1.409v-.387Zm-3.36-.495-.569 1.949-.058.237a.366.366 0 0 0-.01.064c0 .024.01.044.026.062.016.017.033.026.051.026.041 0 .098-.031.17-.094.03-.025.1-.115.21-.269l.104.053c-.14.254-.287.439-.444.555a.84.84 0 0 1-.509.174c-.111 0-.196-.029-.255-.086a.295.295 0 0 1-.087-.219c0-.076.03-.217.093-.424l.07-.238c-.226.389-.444.664-.653.827a.625.625 0 0 1-.386.14.411.411 0 0 1-.39-.221 1.031 1.031 0 0 1-.12-.5c0-.275.084-.591.252-.947.168-.357.388-.643.662-.86.224-.18.435-.27.633-.27.11 0 .197.032.263.095.067.064.116.18.147.348l.105-.361.695-.041Zm1.42-.041-1.022.176-.02.111c.076-.015.14-.023.193-.023.102 0 .186.044.252.132.105.137.252.553.44 1.248a6.71 6.71 0 0 1-.302.387.888.888 0 0 1-.223.19.33.33 0 0 1-.152.035.577.577 0 0 1-.211-.07.431.431 0 0 0-.18-.047.332.332 0 0 0-.342.343c0 .093.03.17.09.228.06.059.14.088.241.088a.63.63 0 0 0 .276-.061c.086-.041.193-.129.323-.263.13-.133.31-.346.538-.637.088.278.164.479.229.605a.708.708 0 0 0 .22.273.554.554 0 0 0 .313.083.641.641 0 0 0 .369-.132c.164-.113.332-.308.504-.586l-.106-.061c-.117.164-.204.266-.26.307a.224.224 0 0 1-.132.039c-.06 0-.12-.039-.18-.115-.099-.129-.231-.486-.398-1.072.149-.262.274-.433.375-.513a.376.376 0 0 1 .235-.088c.031 0 .087.012.168.034a.799.799 0 0 0 .216.034c.086 0 .157-.03.215-.09a.316.316 0 0 0 .086-.23.325.325 0 0 0-.086-.237.334.334 0 0 0-.248-.088.56.56 0 0 0-.27.069c-.085.046-.193.145-.324.297a7.305 7.305 0 0 0-.434.595 2.936 2.936 0 0 0-.392-.961Zm-4.274.068H32.29v.381h3.205v-.381Zm1.916.53c0-.158-.024-.273-.073-.343a.167.167 0 0 0-.144-.073c-.06 0-.123.029-.187.088-.131.121-.272.367-.423.737-.152.37-.227.69-.227.959 0 .104.017.178.05.224.035.046.072.069.114.069.087 0 .176-.051.266-.152.129-.145.245-.322.349-.531.183-.367.275-.693.275-.978Zm8.502 2.033a.472.472 0 0 1-.249-.088l.399-1.377c.08-.279.154-.462.222-.548.102-.132.22-.199.358-.199.082 0 .154.036.216.109.063.072.094.177.094.316 0 .244-.04.489-.123.735a2.431 2.431 0 0 1-.306.63 1.256 1.256 0 0 1-.35.361.51.51 0 0 1-.26.061Zm-10.418-1.605H32.29v.381h3.205v-.381Z" fill="#DBDBDB"/><path d="M21.3 236.001c-.55 4.486-4.5 4.016-4.5 4.016m-12.1-4.002c.551-4.485 4.3-4 4.3-4l-4.3 4Zm8.3.016c-.55-4.486-4.5-4.016-4.5-4.016l4.5 4.016Zm0-.031c.551 4.486 4.395 4.027 4.5 4.015L13 236Z" stroke="#DBDBDB" stroke-linecap="round"/><path d="M5 254.534v-7h8v7h8v-7" stroke="#DBDBDB" stroke-linecap="round" stroke-linejoin="round"/><path d="M4 265.109c.043-1.022.745-4.579 1-4 .255.58.4 5.934.9 6.934s.63-3.502 1.1-2.934c.47.569.312 5.727.779 5.208.467-.519.666-6.406 1.221-7.208.555-.802.465 4.267 1 4 .535-.266.64-5.565 1.14-5.065.5.5.395 6.049.86 7.065.465 1.017.506-3.277 1-3 .494.278.517 4.737 1 4 .483-.736.431-6.194.931-6.944s.591 4.216 1.069 3.944c.478-.272.343-5.532.843-5.032.5.5.618 6.024 1.157 7.032.54 1.008.515-2.725 1-3 .485-.275.441 3.151.941 1.901.5-1.25.544-6.176 1.059-6.901.515-.725 1 4 1 4" stroke="#DBDBDB" stroke-width=".75"/><path d="m18 280.854 3 4-3-4Zm-13 4 3-8-3 8Zm13-4h-7 7Zm-10-4 3 4-3-4Z" stroke="#DBDBDB" stroke-linecap="round" stroke-linejoin="round"/><path fill-rule="evenodd" clip-rule="evenodd" d="M11 292.5a.5.5 0 1 1 1 0 .5.5 0 0 1-1 0Zm.009.871c-.43.154-.774.449-1.079.852-.483.639-.834 1.508-1.216 2.463l-.015.037c-.364.91-.76 1.9-1.331 2.657-.486.642-1.116 1.141-1.97 1.309a1 1 0 1 1-.076-1.008c.511-.133.905-.45 1.248-.904.483-.639.834-1.508 1.216-2.463l.015-.037c.364-.91.76-1.9 1.331-2.657.364-.481.809-.881 1.368-1.123a1 1 0 1 1 1.886.468c.045.103.1.222.16.355.215.459.52 1.067.883 1.673.365.609.778 1.195 1.206 1.622.192.192.372.337.538.44a.985.985 0 0 1 .392-.053l.107-.198c.243-.437.6-1.023 1.058-1.611.675-.867 1.63-1.822 2.813-2.234a1 1 0 1 1 .233.98c-.858.332-1.627 1.059-2.256 1.868a11.734 11.734 0 0 0-1.12 1.755 1 1 0 1 1-1.884.258 4.235 4.235 0 0 1-.588-.498c-.51-.51-.972-1.174-1.357-1.815a19.618 19.618 0 0 1-1.042-2.007H11.5a.994.994 0 0 1-.491-.129ZM4.5 299.75a.5.5 0 1 0 0 1 .5.5 0 0 0 0-1Zm11-2.25a.5.5 0 1 0 0 1 .5.5 0 0 0 0-1Zm4.5-4.25a.5.5 0 1 1 1 0 .5.5 0 0 1-1 0Z" fill="#DBDBDB"/><path d="M.5 307.5a3 3 0 0 1 3-3h44a3 3 0 0 1 3 3v69a3 3 0 0 1-3 3h-44a3 3 0 0 1-3-3v-69Z" fill="url(#e)"/><path opacity=".75" d="M25 319H1v1h24v-1Zm0 15H1v1h24v-1Zm0 15H1v1h24v-1Zm0 15H1v1h24v-1Zm0-59v74h1v-74h-1Zm25 14H26v1h24v-1Zm0 15H26v1h24v-1Zm0 15H26v1h24v-1Zm0 15H26v1h24v-1Z" fill="#DBDBDB"/><path d="m46.55 312.016-4 4-8-8-4.3 4" stroke="#DBDBDB" stroke-linecap="round"/><path d="m38.4 323.016 8 8-8-8Zm-8 8v-8 8Zm8-8v8-8Zm-8 0 8 8-8-8Zm9 22h2-2Zm-8-3v-4 4Zm8 3v-6 6Zm-6-7v3-3Zm10 2v1.5-1.5Zm-8 1v5-5Zm6 .5v3.5-3.5Zm4-1.5v4-4Zm-8-1v7-7Zm-6-1h2-2Zm2 3h2-2Zm2 5h2-2Zm2-7h2-2Zm4 2.5h2-2Zm2-1.5h2-2Zm-14 2h2-2Zm16 2h2-2Z" stroke="#DBDBDB" stroke-linecap="round" stroke-linejoin="round"/><path fill-rule="evenodd" clip-rule="evenodd" d="M29 362.016h2v-5h-2v5Zm16.8 0h2v-5h-2v5Zm-12.7-2h-2v-3h2v3Zm12.6 0h-2v-3h2v3Zm-12.5-2.75h2v-.5h-2v.5Zm10.4 0h-2v-.5h2v.5Zm-8.3-.25h2v-3h-2v3Zm4.1 0h-2v-5h2v5Zm.1 0h2v-3h-2v3Z" fill="#DBDBDB"/><path d="m31.284 373.142.343-1.354h.413l.103-.343h-.425c.12-.494.281-.855.48-1.084.121-.142.24-.214.355-.214a.08.08 0 0 1 .057.021.069.069 0 0 1 .022.053.3.3 0 0 1-.048.111.308.308 0 0 0-.049.155c0 .069.026.127.076.176a.269.269 0 0 0 .194.073.277.277 0 0 0 .21-.089.337.337 0 0 0 .086-.242.351.351 0 0 0-.128-.281c-.085-.072-.221-.108-.409-.108-.292 0-.558.086-.796.257-.239.172-.465.456-.68.853-.074.137-.145.225-.211.264-.066.039-.173.057-.32.055l-.096.343h.407l-.598 2.341c-.1.385-.166.622-.202.712a.851.851 0 0 1-.231.334.215.215 0 0 1-.15.055.06.06 0 0 1-.04-.014l-.015-.021c0-.009.014-.029.044-.06.03-.03.044-.076.044-.139a.226.226 0 0 0-.07-.17c-.047-.045-.115-.067-.203-.067a.362.362 0 0 0-.255.088.271.271 0 0 0-.096.208c0 .086.039.16.117.224.078.063.2.095.366.095.264 0 .498-.069.702-.207.204-.137.382-.35.534-.637.153-.287.309-.75.47-1.388Zm14.997-1.36.507-1.766h-.176l-.978.172-.032.118c.11-.006.194.01.249.049a.13.13 0 0 1 .058.112c0 .054-.021.155-.064.302l-.897 3.108c.36.189.7.284 1.023.284.433 0 .82-.182 1.16-.548.383-.414.574-.884.574-1.412 0-.221-.058-.415-.174-.584-.117-.169-.292-.254-.526-.254a.697.697 0 0 0-.337.084c-.103.055-.233.167-.387.335Zm-4.573.117h1.41v-1.406h.383v1.406h1.41v.387H43.5v1.395h-.384v-1.395h-1.409v-.387Zm-3.36-.495-.569 1.949-.058.237a.366.366 0 0 0-.01.064c0 .024.01.044.026.062.016.017.033.026.051.026.041 0 .098-.031.17-.094.03-.025.1-.115.21-.269l.104.053c-.14.254-.287.439-.444.555a.84.84 0 0 1-.509.174c-.111 0-.196-.029-.255-.086a.295.295 0 0 1-.087-.219c0-.076.03-.217.093-.424l.07-.238c-.226.389-.444.664-.653.827a.625.625 0 0 1-.386.14.411.411 0 0 1-.39-.221 1.031 1.031 0 0 1-.12-.5c0-.275.084-.591.252-.947.168-.357.388-.643.662-.86.224-.18.435-.27.633-.27.11 0 .197.032.263.095.067.064.116.18.147.348l.105-.361.695-.041Zm1.42-.041-1.022.176-.02.111c.076-.015.14-.023.193-.023.102 0 .186.044.252.132.105.137.252.553.44 1.248a6.71 6.71 0 0 1-.302.387.888.888 0 0 1-.223.19.33.33 0 0 1-.152.035.577.577 0 0 1-.211-.07.431.431 0 0 0-.18-.047.332.332 0 0 0-.342.343c0 .093.03.17.09.228.06.059.14.088.241.088a.63.63 0 0 0 .276-.061c.086-.041.193-.129.323-.263.13-.133.31-.346.538-.637.088.278.164.479.229.605a.708.708 0 0 0 .22.273.554.554 0 0 0 .313.083.641.641 0 0 0 .369-.132c.164-.113.332-.308.504-.586l-.106-.061c-.117.164-.204.266-.26.307a.224.224 0 0 1-.132.039c-.06 0-.12-.039-.18-.115-.099-.129-.231-.486-.398-1.072.149-.262.274-.433.375-.513a.376.376 0 0 1 .235-.088c.031 0 .087.012.168.034a.799.799 0 0 0 .216.034c.086 0 .157-.03.215-.09a.316.316 0 0 0 .086-.23.325.325 0 0 0-.086-.237.334.334 0 0 0-.248-.088.56.56 0 0 0-.27.069c-.085.046-.193.145-.324.297a7.305 7.305 0 0 0-.434.595 2.936 2.936 0 0 0-.392-.961Zm-4.274.068H32.29v.381h3.205v-.381Zm1.916.53c0-.158-.024-.273-.073-.343a.167.167 0 0 0-.144-.073c-.06 0-.123.029-.187.088-.131.121-.272.367-.423.737-.152.37-.227.69-.227.959 0 .104.017.178.05.224.035.046.072.069.114.069.087 0 .176-.051.266-.152.129-.145.245-.322.349-.531.183-.367.275-.693.275-.978Zm8.502 2.033a.472.472 0 0 1-.249-.088l.399-1.377c.08-.279.154-.462.222-.548.102-.132.22-.199.358-.199.082 0 .154.036.216.109.063.072.094.177.094.316 0 .244-.04.489-.123.735a2.431 2.431 0 0 1-.306.63 1.256 1.256 0 0 1-.35.361.51.51 0 0 1-.26.061Zm-10.418-1.605H32.29v.381h3.205v-.381Z" fill="#DBDBDB"/><path d="M21.3 312.001c-.55 4.486-4.5 4.016-4.5 4.016m-12.1-4.002c.551-4.485 4.3-4 4.3-4l-4.3 4Zm8.3.016c-.55-4.486-4.5-4.016-4.5-4.016l4.5 4.016Zm0-.031c.551 4.486 4.395 4.027 4.5 4.015L13 312Z" stroke="#DBDBDB" stroke-linecap="round"/><path d="M5 330.534v-7h8v7h8v-7" stroke="#DBDBDB" stroke-linecap="round" stroke-linejoin="round"/><path d="M4 341.109c.043-1.022.745-4.579 1-4 .255.58.4 5.934.9 6.934s.63-3.502 1.1-2.934c.47.569.312 5.727.779 5.208.467-.519.666-6.406 1.221-7.208.555-.802.465 4.267 1 4 .535-.266.64-5.565 1.14-5.065.5.5.395 6.049.86 7.065.465 1.017.506-3.277 1-3 .494.278.517 4.737 1 4 .483-.736.431-6.194.931-6.944s.591 4.216 1.069 3.944c.478-.272.343-5.532.843-5.032.5.5.618 6.024 1.157 7.032.54 1.008.515-2.725 1-3 .485-.275.441 3.151.941 1.901.5-1.25.544-6.176 1.059-6.901.515-.725 1 4 1 4" stroke="#FF9000" stroke-width=".75"/><path d="m18 356.854 3 4-3-4Zm-13 4 3-8-3 8Zm13-4h-7 7Zm-10-4 3 4-3-4Z" stroke="#DBDBDB" stroke-linecap="round" stroke-linejoin="round"/><path fill-rule="evenodd" clip-rule="evenodd" d="M11 368.5a.5.5 0 1 1 1 0 .5.5 0 0 1-1 0Zm.009.871c-.43.154-.774.449-1.079.852-.483.639-.834 1.508-1.216 2.463l-.015.037c-.364.91-.76 1.9-1.331 2.657-.486.642-1.116 1.141-1.97 1.309a1 1 0 1 1-.076-1.008c.511-.133.905-.45 1.248-.904.483-.639.834-1.508 1.216-2.463l.015-.037c.364-.91.76-1.9 1.331-2.657.364-.481.809-.881 1.368-1.123a1 1 0 1 1 1.886.468c.045.103.1.222.16.355.215.459.52 1.067.883 1.673.365.609.778 1.195 1.206 1.622.192.192.372.337.538.44a.985.985 0 0 1 .392-.053l.107-.198c.243-.437.6-1.023 1.058-1.611.675-.867 1.63-1.822 2.813-2.234a1 1 0 1 1 .233.98c-.858.332-1.627 1.059-2.256 1.868a11.734 11.734 0 0 0-1.12 1.755 1 1 0 1 1-1.884.258 4.235 4.235 0 0 1-.588-.498c-.51-.51-.972-1.174-1.357-1.815a19.618 19.618 0 0 1-1.042-2.007H11.5a.994.994 0 0 1-.491-.129ZM4.5 375.75a.5.5 0 1 0 0 1 .5.5 0 0 0 0-1Zm11-2.25a.5.5 0 1 0 0 1 .5.5 0 0 0 0-1Zm4.5-4.25a.5.5 0 1 1 1 0 .5.5 0 0 1-1 0Z" fill="#DBDBDB"/><path d="M.5 383.5a3 3 0 0 1 3-3h44a3 3 0 0 1 3 3v69a3 3 0 0 1-3 3h-44a3 3 0 0 1-3-3v-69Z" fill="url(#f)"/><path opacity=".75" d="M25 395H1v1h24v-1Zm0 15H1v1h24v-1Zm0 15H1v1h24v-1Zm0 15H1v1h24v-1Zm0-59v74h1v-74h-1Zm25 14H26v1h24v-1Zm0 15H26v1h24v-1Zm0 15H26v1h24v-1Zm0 15H26v1h24v-1Z" fill="#DBDBDB"/><path d="m46.55 388.016-4 4-8-8-4.3 4" stroke="#DBDBDB" stroke-linecap="round"/><path d="m38.4 399.016 8 8-8-8Zm-8 8v-8 8Zm8-8v8-8Zm-8 0 8 8-8-8Z" stroke="#DBDBDB" stroke-linecap="round" stroke-linejoin="round"/><path d="M39.4 421.016h2-2Zm-8-3v-4 4Zm8 3v-6 6Zm-6-7v3-3Zm10 2v1.5-1.5Zm-8 1v5-5Zm6 .5v3.5-3.5Zm4-1.5v4-4Zm-8-1v7-7Zm-6-1h2-2Zm2 3h2-2Zm2 5h2-2Zm2-7h2-2Zm4 2.5h2-2Zm2-1.5h2-2Zm-14 2h2-2Zm16 2h2-2Z" stroke="#FF9000" stroke-linecap="round" stroke-linejoin="round"/><path fill-rule="evenodd" clip-rule="evenodd" d="M29 438.016h2v-5h-2v5Zm16.8 0h2v-5h-2v5Zm-12.7-2h-2v-3h2v3Zm12.6 0h-2v-3h2v3Zm-12.5-2.75h2v-.5h-2v.5Zm10.4 0h-2v-.5h2v.5Zm-8.3-.25h2v-3h-2v3Zm4.1 0h-2v-5h2v5Zm.1 0h2v-3h-2v3Z" fill="#DBDBDB"/><path d="m31.284 449.142.343-1.354h.413l.103-.343h-.425c.12-.494.281-.855.48-1.084.121-.142.24-.214.355-.214a.08.08 0 0 1 .057.021.069.069 0 0 1 .022.053.3.3 0 0 1-.048.111.308.308 0 0 0-.049.155c0 .069.026.127.076.176a.269.269 0 0 0 .194.073.277.277 0 0 0 .21-.089.337.337 0 0 0 .086-.242.351.351 0 0 0-.128-.281c-.085-.072-.221-.108-.409-.108-.292 0-.558.086-.796.257-.239.172-.465.456-.68.853-.074.137-.145.225-.211.264-.066.039-.173.057-.32.055l-.096.343h.407l-.598 2.341c-.1.385-.166.622-.202.712a.851.851 0 0 1-.231.334.215.215 0 0 1-.15.055.06.06 0 0 1-.04-.014l-.015-.021c0-.009.014-.029.044-.06.03-.03.044-.076.044-.139a.226.226 0 0 0-.07-.17c-.047-.045-.115-.067-.203-.067a.362.362 0 0 0-.255.088.271.271 0 0 0-.096.208c0 .086.039.16.117.224.078.063.2.095.366.095.264 0 .498-.069.702-.207.204-.137.382-.35.534-.637.153-.287.309-.75.47-1.388Zm14.997-1.36.507-1.766h-.176l-.978.172-.032.118c.11-.006.194.01.249.049a.13.13 0 0 1 .058.112c0 .054-.021.155-.064.302l-.897 3.108c.36.189.7.284 1.023.284.433 0 .82-.182 1.16-.548.383-.414.574-.884.574-1.412 0-.221-.058-.415-.174-.584-.117-.169-.292-.254-.526-.254a.697.697 0 0 0-.337.084c-.103.055-.233.167-.387.335Zm-4.573.117h1.41v-1.406h.383v1.406h1.41v.387H43.5v1.395h-.384v-1.395h-1.409v-.387Zm-3.36-.495-.569 1.949-.058.237a.366.366 0 0 0-.01.064c0 .024.01.044.026.062.016.017.033.026.051.026.041 0 .098-.031.17-.094.03-.025.1-.115.21-.269l.104.053c-.14.254-.287.439-.444.555a.84.84 0 0 1-.509.174c-.111 0-.196-.029-.255-.086a.295.295 0 0 1-.087-.219c0-.076.03-.217.093-.424l.07-.238c-.226.389-.444.664-.653.827a.625.625 0 0 1-.386.14.411.411 0 0 1-.39-.221 1.031 1.031 0 0 1-.12-.5c0-.275.084-.591.252-.947.168-.357.388-.643.662-.86.224-.18.435-.27.633-.27.11 0 .197.032.263.095.067.064.116.18.147.348l.105-.361.695-.041Zm1.42-.041-1.022.176-.02.111c.076-.015.14-.023.193-.023.102 0 .186.044.252.132.105.137.252.553.44 1.248a6.71 6.71 0 0 1-.302.387.888.888 0 0 1-.223.19.33.33 0 0 1-.152.035.577.577 0 0 1-.211-.07.431.431 0 0 0-.18-.047.332.332 0 0 0-.342.343c0 .093.03.17.09.228.06.059.14.088.241.088a.63.63 0 0 0 .276-.061c.086-.041.193-.129.323-.263.13-.133.31-.346.538-.637.088.278.164.479.229.605a.708.708 0 0 0 .22.273.554.554 0 0 0 .313.083.641.641 0 0 0 .369-.132c.164-.113.332-.308.504-.586l-.106-.061c-.117.164-.204.266-.26.307a.224.224 0 0 1-.132.039c-.06 0-.12-.039-.18-.115-.099-.129-.231-.486-.398-1.072.149-.262.274-.433.375-.513a.376.376 0 0 1 .235-.088c.031 0 .087.012.168.034a.799.799 0 0 0 .216.034c.086 0 .157-.03.215-.09a.316.316 0 0 0 .086-.23.325.325 0 0 0-.086-.237.334.334 0 0 0-.248-.088.56.56 0 0 0-.27.069c-.085.046-.193.145-.324.297a7.305 7.305 0 0 0-.434.595 2.936 2.936 0 0 0-.392-.961Zm-4.274.068H32.29v.381h3.205v-.381Zm1.916.53c0-.158-.024-.273-.073-.343a.167.167 0 0 0-.144-.073c-.06 0-.123.029-.187.088-.131.121-.272.367-.423.737-.152.37-.227.69-.227.959 0 .104.017.178.05.224.035.046.072.069.114.069.087 0 .176-.051.266-.152.129-.145.245-.322.349-.531.183-.367.275-.693.275-.978Zm8.502 2.033a.472.472 0 0 1-.249-.088l.399-1.377c.08-.279.154-.462.222-.548.102-.132.22-.199.358-.199.082 0 .154.036.216.109.063.072.094.177.094.316 0 .244-.04.489-.123.735a2.431 2.431 0 0 1-.306.63 1.256 1.256 0 0 1-.35.361.51.51 0 0 1-.26.061Zm-10.418-1.605H32.29v.381h3.205v-.381Z" fill="#DBDBDB"/><path d="M21.3 388.001c-.55 4.486-4.5 4.016-4.5 4.016m-12.1-4.002c.551-4.485 4.3-4 4.3-4l-4.3 4Zm8.3.016c-.55-4.486-4.5-4.016-4.5-4.016l4.5 4.016Zm0-.031c.551 4.486 4.395 4.027 4.5 4.015L13 388Z" stroke="#DBDBDB" stroke-linecap="round"/><path d="M5 406.534v-7h8v7h8v-7" stroke="#DBDBDB" stroke-linecap="round" stroke-linejoin="round"/><path d="M4 417.109c.043-1.022.745-4.579 1-4 .255.58.4 5.934.9 6.934s.63-3.502 1.1-2.934c.47.569.312 5.727.779 5.208.467-.519.666-6.406 1.221-7.208.555-.802.465 4.267 1 4 .535-.266.64-5.565 1.14-5.065.5.5.395 6.049.86 7.065.465 1.017.506-3.277 1-3 .494.278.517 4.737 1 4 .483-.736.431-6.194.931-6.944s.591 4.216 1.069 3.944c.478-.272.343-5.532.843-5.032.5.5.618 6.024 1.157 7.032.54 1.008.515-2.725 1-3 .485-.275.441 3.151.941 1.901.5-1.25.544-6.176 1.059-6.901.515-.725 1 4 1 4" stroke="#DBDBDB" stroke-width=".75"/><path d="m18 432.854 3 4-3-4Zm-13 4 3-8-3 8Zm13-4h-7 7Zm-10-4 3 4-3-4Z" stroke="#DBDBDB" stroke-linecap="round" stroke-linejoin="round"/><path fill-rule="evenodd" clip-rule="evenodd" d="M11 444.5a.5.5 0 1 1 1 0 .5.5 0 0 1-1 0Zm.009.871c-.43.154-.774.449-1.079.852-.483.639-.834 1.508-1.216 2.463l-.015.037c-.364.91-.76 1.9-1.331 2.657-.486.642-1.116 1.141-1.97 1.309a1 1 0 1 1-.076-1.008c.511-.133.905-.45 1.248-.904.483-.639.834-1.508 1.216-2.463l.015-.037c.364-.91.76-1.9 1.331-2.657.364-.481.809-.881 1.368-1.123a1 1 0 1 1 1.886.468c.045.103.1.222.16.355.215.459.52 1.067.883 1.673.365.609.778 1.195 1.206 1.622.192.192.372.337.538.44a.985.985 0 0 1 .392-.053l.107-.198c.243-.437.6-1.023 1.058-1.611.675-.867 1.63-1.822 2.813-2.234a1 1 0 1 1 .233.98c-.858.332-1.627 1.059-2.256 1.868a11.734 11.734 0 0 0-1.12 1.755 1 1 0 1 1-1.884.258 4.235 4.235 0 0 1-.588-.498c-.51-.51-.972-1.174-1.357-1.815a19.618 19.618 0 0 1-1.042-2.007H11.5a.994.994 0 0 1-.491-.129ZM4.5 451.75a.5.5 0 1 0 0 1 .5.5 0 0 0 0-1Zm11-2.25a.5.5 0 1 0 0 1 .5.5 0 0 0 0-1Zm4.5-4.25a.5.5 0 1 1 1 0 .5.5 0 0 1-1 0Z" fill="#DBDBDB"/><path d="M.5 459.5a3 3 0 0 1 3-3h44a3 3 0 0 1 3 3v69a3 3 0 0 1-3 3h-44a3 3 0 0 1-3-3v-69Z" fill="url(#g)"/><path opacity=".75" d="M25 471H1v1h24v-1Zm0 15H1v1h24v-1Zm0 15H1v1h24v-1Zm0 15H1v1h24v-1Zm0-59v74h1v-74h-1Zm25 14H26v1h24v-1Zm0 15H26v1h24v-1Zm0 15H26v1h24v-1Zm0 15H26v1h24v-1Z" fill="#DBDBDB"/><path d="m46.55 464.016-4 4-8-8-4.3 4" stroke="#DBDBDB" stroke-linecap="round"/><path d="m38.4 475.016 8 8-8-8Zm-8 8v-8 8Zm8-8v8-8Zm-8 0 8 8-8-8Zm9 22h2-2Zm-8-3v-4 4Zm8 3v-6 6Zm-6-7v3-3Zm10 2v1.5-1.5Zm-8 1v5-5Zm6 .5v3.5-3.5Zm4-1.5v4-4Zm-8-1v7-7Zm-6-1h2-2Zm2 3h2-2Zm2 5h2-2Zm2-7h2-2Zm4 2.5h2-2Zm2-1.5h2-2Zm-14 2h2-2Zm16 2h2-2Z" stroke="#DBDBDB" stroke-linecap="round" stroke-linejoin="round"/><path fill-rule="evenodd" clip-rule="evenodd" d="M29 514.016h2v-5h-2v5Zm16.8 0h2v-5h-2v5Zm-12.7-2h-2v-3h2v3Zm12.6 0h-2v-3h2v3Zm-12.5-2.75h2v-.5h-2v.5Zm10.4 0h-2v-.5h2v.5Zm-8.3-.25h2v-3h-2v3Zm4.1 0h-2v-5h2v5Zm.1 0h2v-3h-2v3Z" fill="#DBDBDB"/><path d="m31.284 525.142.343-1.354h.413l.103-.343h-.425c.12-.494.281-.855.48-1.084.121-.142.24-.214.355-.214a.08.08 0 0 1 .057.021.069.069 0 0 1 .022.053.3.3 0 0 1-.048.111.308.308 0 0 0-.049.155c0 .069.026.127.076.176a.269.269 0 0 0 .194.073.277.277 0 0 0 .21-.089.337.337 0 0 0 .086-.242.351.351 0 0 0-.128-.281c-.085-.072-.221-.108-.409-.108-.292 0-.558.086-.796.257-.239.172-.465.456-.68.853-.074.137-.145.225-.211.264-.066.039-.173.057-.32.055l-.096.343h.407l-.598 2.341c-.1.385-.166.622-.202.712a.851.851 0 0 1-.231.334.215.215 0 0 1-.15.055.06.06 0 0 1-.04-.014l-.015-.021c0-.009.014-.029.044-.06.03-.03.044-.076.044-.139a.226.226 0 0 0-.07-.17c-.047-.045-.115-.067-.203-.067a.362.362 0 0 0-.255.088.271.271 0 0 0-.096.208c0 .086.039.16.117.224.078.063.2.095.366.095.264 0 .498-.069.702-.207.204-.137.382-.35.534-.637.153-.287.309-.75.47-1.388Zm14.997-1.36.507-1.766h-.176l-.978.172-.032.118c.11-.006.194.01.249.049a.13.13 0 0 1 .058.112c0 .054-.021.155-.064.302l-.897 3.108c.36.189.7.284 1.023.284.433 0 .82-.182 1.16-.548.383-.414.574-.884.574-1.412 0-.221-.058-.415-.174-.584-.117-.169-.292-.254-.526-.254a.697.697 0 0 0-.337.084c-.103.055-.233.167-.387.335Zm-4.573.117h1.41v-1.406h.383v1.406h1.41v.387H43.5v1.395h-.384v-1.395h-1.409v-.387Zm-3.36-.495-.569 1.949-.058.237a.366.366 0 0 0-.01.064c0 .024.01.044.026.062.016.017.033.026.051.026.041 0 .098-.031.17-.094.03-.025.1-.115.21-.269l.104.053c-.14.254-.287.439-.444.555a.84.84 0 0 1-.509.174c-.111 0-.196-.029-.255-.086a.295.295 0 0 1-.087-.219c0-.076.03-.217.093-.424l.07-.238c-.226.389-.444.664-.653.827a.625.625 0 0 1-.386.14.411.411 0 0 1-.39-.221 1.031 1.031 0 0 1-.12-.5c0-.275.084-.591.252-.947.168-.357.388-.643.662-.86.224-.18.435-.27.633-.27.11 0 .197.032.263.095.067.064.116.18.147.348l.105-.361.695-.041Zm1.42-.041-1.022.176-.02.111c.076-.015.14-.023.193-.023.102 0 .186.044.252.132.105.137.252.553.44 1.248a6.71 6.71 0 0 1-.302.387.888.888 0 0 1-.223.19.33.33 0 0 1-.152.035.577.577 0 0 1-.211-.07.431.431 0 0 0-.18-.047.332.332 0 0 0-.342.343c0 .093.03.17.09.228.06.059.14.088.241.088a.63.63 0 0 0 .276-.061c.086-.041.193-.129.323-.263.13-.133.31-.346.538-.637.088.278.164.479.229.605a.708.708 0 0 0 .22.273.554.554 0 0 0 .313.083.641.641 0 0 0 .369-.132c.164-.113.332-.308.504-.586l-.106-.061c-.117.164-.204.266-.26.307a.224.224 0 0 1-.132.039c-.06 0-.12-.039-.18-.115-.099-.129-.231-.486-.398-1.072.149-.262.274-.433.375-.513a.376.376 0 0 1 .235-.088c.031 0 .087.012.168.034a.799.799 0 0 0 .216.034c.086 0 .157-.03.215-.09a.316.316 0 0 0 .086-.23.325.325 0 0 0-.086-.237.334.334 0 0 0-.248-.088.56.56 0 0 0-.27.069c-.085.046-.193.145-.324.297a7.305 7.305 0 0 0-.434.595 2.936 2.936 0 0 0-.392-.961Zm-4.274.068H32.29v.381h3.205v-.381Zm1.916.53c0-.158-.024-.273-.073-.343a.167.167 0 0 0-.144-.073c-.06 0-.123.029-.187.088-.131.121-.272.367-.423.737-.152.37-.227.69-.227.959 0 .104.017.178.05.224.035.046.072.069.114.069.087 0 .176-.051.266-.152.129-.145.245-.322.349-.531.183-.367.275-.693.275-.978Zm8.502 2.033a.472.472 0 0 1-.249-.088l.399-1.377c.08-.279.154-.462.222-.548.102-.132.22-.199.358-.199.082 0 .154.036.216.109.063.072.094.177.094.316 0 .244-.04.489-.123.735a2.431 2.431 0 0 1-.306.63 1.256 1.256 0 0 1-.35.361.51.51 0 0 1-.26.061Zm-10.418-1.605H32.29v.381h3.205v-.381Z" fill="#DBDBDB"/><path d="M21.3 464.001c-.55 4.486-4.5 4.016-4.5 4.016m-12.1-4.002c.551-4.485 4.3-4 4.3-4l-4.3 4Zm8.3.016c-.55-4.486-4.5-4.016-4.5-4.016l4.5 4.016Zm0-.031c.551 4.486 4.395 4.027 4.5 4.015L13 464Z" stroke="#DBDBDB" stroke-linecap="round"/><path d="M5 482.534v-7h8v7h8v-7" stroke="#DBDBDB" stroke-linecap="round" stroke-linejoin="round"/><path d="M4 493.109c.043-1.022.745-4.579 1-4 .255.58.4 5.934.9 6.934s.63-3.502 1.1-2.934c.47.569.312 5.727.779 5.208.467-.519.666-6.406 1.221-7.208.555-.802.465 4.267 1 4 .535-.266.64-5.565 1.14-5.065.5.5.395 6.049.86 7.065.465 1.017.506-3.277 1-3 .494.278.517 4.737 1 4 .483-.736.431-6.194.931-6.944s.591 4.216 1.069 3.944c.478-.272.343-5.532.843-5.032.5.5.618 6.024 1.157 7.032.54 1.008.515-2.725 1-3 .485-.275.441 3.151.941 1.901.5-1.25.544-6.176 1.059-6.901.515-.725 1 4 1 4" stroke="#DBDBDB" stroke-width=".75"/><path d="m18 508.854 3 4-3-4Zm-13 4 3-8-3 8Zm13-4h-7 7Zm-10-4 3 4-3-4Z" stroke="#FF9000" stroke-linecap="round" stroke-linejoin="round"/><path fill-rule="evenodd" clip-rule="evenodd" d="M11 520.5a.5.5 0 1 1 1 0 .5.5 0 0 1-1 0Zm.009.871c-.43.154-.774.449-1.079.852-.483.639-.834 1.508-1.216 2.463l-.015.037c-.364.91-.76 1.9-1.331 2.657-.486.642-1.116 1.141-1.97 1.309a1 1 0 1 1-.076-1.008c.511-.133.905-.45 1.248-.904.483-.639.834-1.508 1.216-2.463l.015-.037c.364-.91.76-1.9 1.331-2.657.364-.481.809-.881 1.368-1.123a1 1 0 1 1 1.886.468c.045.103.1.222.16.355.215.459.52 1.067.883 1.673.365.609.778 1.195 1.206 1.622.192.192.372.337.538.44a.985.985 0 0 1 .392-.053l.107-.198c.243-.437.6-1.023 1.058-1.611.675-.867 1.63-1.822 2.813-2.234a1 1 0 1 1 .233.98c-.858.332-1.627 1.059-2.256 1.868a11.734 11.734 0 0 0-1.12 1.755 1 1 0 1 1-1.884.258 4.235 4.235 0 0 1-.588-.498c-.51-.51-.972-1.174-1.357-1.815a19.618 19.618 0 0 1-1.042-2.007H11.5a.994.994 0 0 1-.491-.129ZM4.5 527.75a.5.5 0 1 0 0 1 .5.5 0 0 0 0-1Zm11-2.25a.5.5 0 1 0 0 1 .5.5 0 0 0 0-1Zm4.5-4.25a.5.5 0 1 1 1 0 .5.5 0 0 1-1 0Z" fill="#DBDBDB"/><path d="M.5 535.5a3 3 0 0 1 3-3h44a3 3 0 0 1 3 3v69a3 3 0 0 1-3 3h-44a3 3 0 0 1-3-3v-69Z" fill="url(#h)"/><path opacity=".75" d="M25 547H1v1h24v-1Zm0 15H1v1h24v-1Zm0 15H1v1h24v-1Zm0 15H1v1h24v-1Zm0-59v74h1v-74h-1Zm25 14H26v1h24v-1Zm0 15H26v1h24v-1Zm0 15H26v1h24v-1Zm0 15H26v1h24v-1Z" fill="#DBDBDB"/><path d="m46.55 540.016-4 4-8-8-4.3 4" stroke="#DBDBDB" stroke-linecap="round"/><path d="m38.4 551.016 8 8-8-8Zm-8 8v-8 8Zm8-8v8-8Zm-8 0 8 8-8-8Zm9 22h2-2Zm-8-3v-4 4Zm8 3v-6 6Zm-6-7v3-3Zm10 2v1.5-1.5Zm-8 1v5-5Zm6 .5v3.5-3.5Zm4-1.5v4-4Zm-8-1v7-7Zm-6-1h2-2Zm2 3h2-2Zm2 5h2-2Zm2-7h2-2Zm4 2.5h2-2Zm2-1.5h2-2Zm-14 2h2-2Zm16 2h2-2Z" stroke="#DBDBDB" stroke-linecap="round" stroke-linejoin="round"/><path fill-rule="evenodd" clip-rule="evenodd" d="M29 590.016h2v-5h-2v5Zm16.8 0h2v-5h-2v5Zm-12.7-2h-2v-3h2v3Zm12.6 0h-2v-3h2v3Zm-12.5-2.75h2v-.5h-2v.5Zm10.4 0h-2v-.5h2v.5Zm-8.3-.25h2v-3h-2v3Zm4.1 0h-2v-5h2v5Zm.1 0h2v-3h-2v3Z" fill="#FF9000"/><path d="m31.284 601.142.343-1.354h.413l.103-.343h-.425c.12-.494.281-.855.48-1.084.121-.142.24-.214.355-.214a.08.08 0 0 1 .057.021.069.069 0 0 1 .022.053.3.3 0 0 1-.048.111.308.308 0 0 0-.049.155c0 .069.026.127.076.176a.269.269 0 0 0 .194.073.277.277 0 0 0 .21-.089.337.337 0 0 0 .086-.242.351.351 0 0 0-.128-.281c-.085-.072-.221-.108-.409-.108-.292 0-.558.086-.796.257-.239.172-.465.456-.68.853-.074.137-.145.225-.211.264-.066.039-.173.057-.32.055l-.096.343h.407l-.598 2.341c-.1.385-.166.622-.202.712a.851.851 0 0 1-.231.334.215.215 0 0 1-.15.055.06.06 0 0 1-.04-.014l-.015-.021c0-.009.014-.029.044-.06.03-.03.044-.076.044-.139a.226.226 0 0 0-.07-.17c-.047-.045-.115-.067-.203-.067a.362.362 0 0 0-.255.088.271.271 0 0 0-.096.208c0 .086.039.16.117.224.078.063.2.095.366.095.264 0 .498-.069.702-.207.204-.137.382-.35.534-.637.153-.287.309-.75.47-1.388Zm14.997-1.36.507-1.766h-.176l-.978.172-.032.118c.11-.006.194.01.249.049a.13.13 0 0 1 .058.112c0 .054-.021.155-.064.302l-.897 3.108c.36.189.7.284 1.023.284.433 0 .82-.182 1.16-.548.383-.414.574-.884.574-1.412 0-.221-.058-.415-.174-.584-.117-.169-.292-.254-.526-.254a.697.697 0 0 0-.337.084c-.103.055-.233.167-.387.335Zm-4.573.117h1.41v-1.406h.383v1.406h1.41v.387H43.5v1.395h-.384v-1.395h-1.409v-.387Zm-3.36-.495-.569 1.949-.058.237a.366.366 0 0 0-.01.064c0 .024.01.044.026.062.016.017.033.026.051.026.041 0 .098-.031.17-.094.03-.025.1-.115.21-.269l.104.053c-.14.254-.287.439-.444.555a.84.84 0 0 1-.509.174c-.111 0-.196-.029-.255-.086a.295.295 0 0 1-.087-.219c0-.076.03-.217.093-.424l.07-.238c-.226.389-.444.664-.653.827a.625.625 0 0 1-.386.14.411.411 0 0 1-.39-.221 1.031 1.031 0 0 1-.12-.5c0-.275.084-.591.252-.947.168-.357.388-.643.662-.86.224-.18.435-.27.633-.27.11 0 .197.032.263.095.067.064.116.18.147.348l.105-.361.695-.041Zm1.42-.041-1.022.176-.02.111c.076-.015.14-.023.193-.023.102 0 .186.044.252.132.105.137.252.553.44 1.248a6.71 6.71 0 0 1-.302.387.888.888 0 0 1-.223.19.33.33 0 0 1-.152.035.577.577 0 0 1-.211-.07.431.431 0 0 0-.18-.047.332.332 0 0 0-.342.343c0 .093.03.17.09.228.06.059.14.088.241.088a.63.63 0 0 0 .276-.061c.086-.041.193-.129.323-.263.13-.133.31-.346.538-.637.088.278.164.479.229.605a.708.708 0 0 0 .22.273.554.554 0 0 0 .313.083.641.641 0 0 0 .369-.132c.164-.113.332-.308.504-.586l-.106-.061c-.117.164-.204.266-.26.307a.224.224 0 0 1-.132.039c-.06 0-.12-.039-.18-.115-.099-.129-.231-.486-.398-1.072.149-.262.274-.433.375-.513a.376.376 0 0 1 .235-.088c.031 0 .087.012.168.034a.799.799 0 0 0 .216.034c.086 0 .157-.03.215-.09a.316.316 0 0 0 .086-.23.325.325 0 0 0-.086-.237.334.334 0 0 0-.248-.088.56.56 0 0 0-.27.069c-.085.046-.193.145-.324.297a7.305 7.305 0 0 0-.434.595 2.936 2.936 0 0 0-.392-.961Zm-4.274.068H32.29v.381h3.205v-.381Zm1.916.53c0-.158-.024-.273-.073-.343a.167.167 0 0 0-.144-.073c-.06 0-.123.029-.187.088-.131.121-.272.367-.423.737-.152.37-.227.69-.227.959 0 .104.017.178.05.224.035.046.072.069.114.069.087 0 .176-.051.266-.152.129-.145.245-.322.349-.531.183-.367.275-.693.275-.978Zm8.502 2.033a.472.472 0 0 1-.249-.088l.399-1.377c.08-.279.154-.462.222-.548.102-.132.22-.199.358-.199.082 0 .154.036.216.109.063.072.094.177.094.316 0 .244-.04.489-.123.735a2.431 2.431 0 0 1-.306.63 1.256 1.256 0 0 1-.35.361.51.51 0 0 1-.26.061Zm-10.418-1.605H32.29v.381h3.205v-.381Z" fill="#DBDBDB"/><path d="M21.3 540.001c-.55 4.486-4.5 4.016-4.5 4.016m-12.1-4.002c.551-4.485 4.3-4 4.3-4l-4.3 4Zm8.3.016c-.55-4.486-4.5-4.016-4.5-4.016l4.5 4.016Zm0-.031c.551 4.486 4.395 4.027 4.5 4.015L13 540Z" stroke="#DBDBDB" stroke-linecap="round"/><path d="M5 558.534v-7h8v7h8v-7" stroke="#DBDBDB" stroke-linecap="round" stroke-linejoin="round"/><path d="M4 569.109c.043-1.022.745-4.579 1-4 .255.58.4 5.934.9 6.934s.63-3.502 1.1-2.934c.47.569.312 5.727.779 5.208.467-.519.666-6.406 1.221-7.208.555-.802.465 4.267 1 4 .535-.266.64-5.565 1.14-5.065.5.5.395 6.049.86 7.065.465 1.017.506-3.277 1-3 .494.278.517 4.737 1 4 .483-.736.431-6.194.931-6.944s.591 4.216 1.069 3.944c.478-.272.343-5.532.843-5.032.5.5.618 6.024 1.157 7.032.54 1.008.515-2.725 1-3 .485-.275.441 3.151.941 1.901.5-1.25.544-6.176 1.059-6.901.515-.725 1 4 1 4" stroke="#DBDBDB" stroke-width=".75"/><path d="m18 584.854 3 4-3-4Zm-13 4 3-8-3 8Zm13-4h-7 7Zm-10-4 3 4-3-4Z" stroke="#DBDBDB" stroke-linecap="round" stroke-linejoin="round"/><path fill-rule="evenodd" clip-rule="evenodd" d="M11 596.5a.5.5 0 1 1 1 0 .5.5 0 0 1-1 0Zm.009.871c-.43.154-.774.449-1.079.852-.483.639-.834 1.508-1.216 2.463l-.015.037c-.364.91-.76 1.9-1.331 2.657-.486.642-1.116 1.141-1.97 1.309a1 1 0 1 1-.076-1.008c.511-.133.905-.45 1.248-.904.483-.639.834-1.508 1.216-2.463l.015-.037c.364-.91.76-1.9 1.331-2.657.364-.481.809-.881 1.368-1.123a1 1 0 1 1 1.886.468c.045.103.1.222.16.355.215.459.52 1.067.883 1.673.365.609.778 1.195 1.206 1.622.192.192.372.337.538.44a.985.985 0 0 1 .392-.053l.107-.198c.243-.437.6-1.023 1.058-1.611.675-.867 1.63-1.822 2.813-2.234a1 1 0 1 1 .233.98c-.858.332-1.627 1.059-2.256 1.868a11.734 11.734 0 0 0-1.12 1.755 1 1 0 1 1-1.884.258 4.235 4.235 0 0 1-.588-.498c-.51-.51-.972-1.174-1.357-1.815a19.618 19.618 0 0 1-1.042-2.007H11.5a.994.994 0 0 1-.491-.129ZM4.5 603.75a.5.5 0 1 0 0 1 .5.5 0 0 0 0-1Zm11-2.25a.5.5 0 1 0 0 1 .5.5 0 0 0 0-1Zm4.5-4.25a.5.5 0 1 1 1 0 .5.5 0 0 1-1 0Z" fill="#DBDBDB"/><path d="M.5 611.5a3 3 0 0 1 3-3h44a3 3 0 0 1 3 3v69a3 3 0 0 1-3 3h-44a3 3 0 0 1-3-3v-69Z" fill="url(#i)"/><path opacity=".75" d="M25 623H1v1h24v-1Zm0 15H1v1h24v-1Zm0 15H1v1h24v-1Zm0 15H1v1h24v-1Zm0-59v74h1v-74h-1Zm25 14H26v1h24v-1Zm0 15H26v1h24v-1Zm0 15H26v1h24v-1Zm0 15H26v1h24v-1Z" fill="#DBDBDB"/><path d="m46.55 616.016-4 4-8-8-4.3 4" stroke="#DBDBDB" stroke-linecap="round"/><path d="m38.4 627.016 8 8-8-8Zm-8 8v-8 8Zm8-8v8-8Zm-8 0 8 8-8-8Zm9 22h2-2Zm-8-3v-4 4Zm8 3v-6 6Zm-6-7v3-3Zm10 2v1.5-1.5Zm-8 1v5-5Zm6 .5v3.5-3.5Zm4-1.5v4-4Zm-8-1v7-7Zm-6-1h2-2Zm2 3h2-2Zm2 5h2-2Zm2-7h2-2Zm4 2.5h2-2Zm2-1.5h2-2Zm-14 2h2-2Zm16 2h2-2Z" stroke="#DBDBDB" stroke-linecap="round" stroke-linejoin="round"/><path fill-rule="evenodd" clip-rule="evenodd" d="M29 666.016h2v-5h-2v5Zm16.8 0h2v-5h-2v5Zm-12.7-2h-2v-3h2v3Zm12.6 0h-2v-3h2v3Zm-12.5-2.75h2v-.5h-2v.5Zm10.4 0h-2v-.5h2v.5Zm-8.3-.25h2v-3h-2v3Zm4.1 0h-2v-5h2v5Zm.1 0h2v-3h-2v3Z" fill="#DBDBDB"/><path d="m31.284 677.142.343-1.354h.413l.103-.343h-.425c.12-.494.281-.855.48-1.084.121-.142.24-.214.355-.214a.08.08 0 0 1 .057.021.069.069 0 0 1 .022.053.3.3 0 0 1-.048.111.308.308 0 0 0-.049.155c0 .069.026.127.076.176a.269.269 0 0 0 .194.073.277.277 0 0 0 .21-.089.337.337 0 0 0 .086-.242.351.351 0 0 0-.128-.281c-.085-.072-.221-.108-.409-.108-.292 0-.558.086-.796.257-.239.172-.465.456-.68.853-.074.137-.145.225-.211.264-.066.039-.173.057-.32.055l-.096.343h.407l-.598 2.341c-.1.385-.166.622-.202.712a.851.851 0 0 1-.231.334.215.215 0 0 1-.15.055.06.06 0 0 1-.04-.014l-.015-.021c0-.009.014-.029.044-.06.03-.03.044-.076.044-.139a.226.226 0 0 0-.07-.17c-.047-.045-.115-.067-.203-.067a.362.362 0 0 0-.255.088.271.271 0 0 0-.096.208c0 .086.039.16.117.224.078.063.2.095.366.095.264 0 .498-.069.702-.207.204-.137.382-.35.534-.637.153-.287.309-.75.47-1.388Zm14.997-1.36.507-1.766h-.176l-.978.172-.032.118c.11-.006.194.01.249.049a.13.13 0 0 1 .058.112c0 .054-.021.155-.064.302l-.897 3.108c.36.189.7.284 1.023.284.433 0 .82-.182 1.16-.548.383-.414.574-.884.574-1.412 0-.221-.058-.415-.174-.584-.117-.169-.292-.254-.526-.254a.697.697 0 0 0-.337.084c-.103.055-.233.167-.387.335Zm-4.573.117h1.41v-1.406h.383v1.406h1.41v.387H43.5v1.395h-.384v-1.395h-1.409v-.387Zm-3.36-.495-.569 1.949-.058.237a.366.366 0 0 0-.01.064c0 .024.01.044.026.062.016.017.033.026.051.026.041 0 .098-.031.17-.094.03-.025.1-.115.21-.269l.104.053c-.14.254-.287.439-.444.555a.84.84 0 0 1-.509.174c-.111 0-.196-.029-.255-.086a.295.295 0 0 1-.087-.219c0-.076.03-.217.093-.424l.07-.238c-.226.389-.444.664-.653.827a.625.625 0 0 1-.386.14.411.411 0 0 1-.39-.221 1.031 1.031 0 0 1-.12-.5c0-.275.084-.591.252-.947.168-.357.388-.643.662-.86.224-.18.435-.27.633-.27.11 0 .197.032.263.095.067.064.116.18.147.348l.105-.361.695-.041Zm1.42-.041-1.022.176-.02.111c.076-.015.14-.023.193-.023.102 0 .186.044.252.132.105.137.252.553.44 1.248a6.71 6.71 0 0 1-.302.387.888.888 0 0 1-.223.19.33.33 0 0 1-.152.035.577.577 0 0 1-.211-.07.431.431 0 0 0-.18-.047.332.332 0 0 0-.342.343c0 .093.03.17.09.228.06.059.14.088.241.088a.63.63 0 0 0 .276-.061c.086-.041.193-.129.323-.263.13-.133.31-.346.538-.637.088.278.164.479.229.605a.708.708 0 0 0 .22.273.554.554 0 0 0 .313.083.641.641 0 0 0 .369-.132c.164-.113.332-.308.504-.586l-.106-.061c-.117.164-.204.266-.26.307a.224.224 0 0 1-.132.039c-.06 0-.12-.039-.18-.115-.099-.129-.231-.486-.398-1.072.149-.262.274-.433.375-.513a.376.376 0 0 1 .235-.088c.031 0 .087.012.168.034a.799.799 0 0 0 .216.034c.086 0 .157-.03.215-.09a.316.316 0 0 0 .086-.23.325.325 0 0 0-.086-.237.334.334 0 0 0-.248-.088.56.56 0 0 0-.27.069c-.085.046-.193.145-.324.297a7.305 7.305 0 0 0-.434.595 2.936 2.936 0 0 0-.392-.961Zm-4.274.068H32.29v.381h3.205v-.381Zm1.916.53c0-.158-.024-.273-.073-.343a.167.167 0 0 0-.144-.073c-.06 0-.123.029-.187.088-.131.121-.272.367-.423.737-.152.37-.227.69-.227.959 0 .104.017.178.05.224.035.046.072.069.114.069.087 0 .176-.051.266-.152.129-.145.245-.322.349-.531.183-.367.275-.693.275-.978Zm8.502 2.033a.472.472 0 0 1-.249-.088l.399-1.377c.08-.279.154-.462.222-.548.102-.132.22-.199.358-.199.082 0 .154.036.216.109.063.072.094.177.094.316 0 .244-.04.489-.123.735a2.431 2.431 0 0 1-.306.63 1.256 1.256 0 0 1-.35.361.51.51 0 0 1-.26.061Zm-10.418-1.605H32.29v.381h3.205v-.381Z" fill="#DBDBDB"/><path d="M21.3 616.001c-.55 4.486-4.5 4.016-4.5 4.016m-12.1-4.002c.551-4.485 4.3-4 4.3-4l-4.3 4Zm8.3.016c-.55-4.486-4.5-4.016-4.5-4.016l4.5 4.016Zm0-.031c.551 4.486 4.395 4.027 4.5 4.015L13 616Z" stroke="#DBDBDB" stroke-linecap="round"/><path d="M5 634.534v-7h8v7h8v-7" stroke="#DBDBDB" stroke-linecap="round" stroke-linejoin="round"/><path d="M4 645.109c.043-1.022.745-4.579 1-4 .255.58.4 5.934.9 6.934s.63-3.502 1.1-2.934c.47.569.312 5.727.779 5.208.467-.519.666-6.406 1.221-7.208.555-.802.465 4.267 1 4 .535-.266.64-5.565 1.14-5.065.5.5.395 6.049.86 7.065.465 1.017.506-3.277 1-3 .494.278.517 4.737 1 4 .483-.736.431-6.194.931-6.944s.591 4.216 1.069 3.944c.478-.272.343-5.532.843-5.032.5.5.618 6.024 1.157 7.032.54 1.008.515-2.725 1-3 .485-.275.441 3.151.941 1.901.5-1.25.544-6.176 1.059-6.901.515-.725 1 4 1 4" stroke="#DBDBDB" stroke-width=".75"/><path d="m18 660.854 3 4-3-4Zm-13 4 3-8-3 8Zm13-4h-7 7Zm-10-4 3 4-3-4Z" stroke="#DBDBDB" stroke-linecap="round" stroke-linejoin="round"/><path fill-rule="evenodd" clip-rule="evenodd" d="M11 672.5a.5.5 0 1 1 1 0 .5.5 0 0 1-1 0Zm.009.871c-.43.154-.774.449-1.079.852-.483.639-.834 1.508-1.216 2.463l-.015.037c-.364.91-.76 1.9-1.331 2.657-.486.642-1.116 1.141-1.97 1.309a1 1 0 1 1-.076-1.008c.511-.133.905-.45 1.248-.904.483-.639.834-1.508 1.216-2.463l.015-.037c.364-.91.76-1.9 1.331-2.657.364-.481.809-.881 1.368-1.123a1 1 0 1 1 1.886.468c.045.103.1.222.16.355.215.459.52 1.067.883 1.673.365.609.778 1.195 1.206 1.622.192.192.372.337.538.44a.985.985 0 0 1 .392-.053l.107-.198c.243-.437.6-1.023 1.058-1.611.675-.867 1.63-1.822 2.813-2.234a1 1 0 1 1 .233.98c-.858.332-1.627 1.059-2.256 1.868a11.734 11.734 0 0 0-1.12 1.755 1 1 0 1 1-1.884.258 4.235 4.235 0 0 1-.588-.498c-.51-.51-.972-1.174-1.357-1.815a19.618 19.618 0 0 1-1.042-2.007H11.5a.994.994 0 0 1-.491-.129ZM4.5 679.75a.5.5 0 1 0 0 1 .5.5 0 0 0 0-1Zm11-2.25a.5.5 0 1 0 0 1 .5.5 0 0 0 0-1Zm4.5-4.25a.5.5 0 1 1 1 0 .5.5 0 0 1-1 0Z" fill="#FF9000"/><path d="M.5 687.5a3 3 0 0 1 3-3h44a3 3 0 0 1 3 3v69a3 3 0 0 1-3 3h-44a3 3 0 0 1-3-3v-69Z" fill="url(#j)"/><path opacity=".75" d="M25 699H1v1h24v-1Zm0 15H1v1h24v-1Zm0 15H1v1h24v-1Zm0 15H1v1h24v-1Zm0-59v74h1v-74h-1Zm25 14H26v1h24v-1Zm0 15H26v1h24v-1Zm0 15H26v1h24v-1Zm0 15H26v1h24v-1Z" fill="#DBDBDB"/><path d="m46.55 692.016-4 4-8-8-4.3 4" stroke="#DBDBDB" stroke-linecap="round"/><path d="m38.4 703.016 8 8-8-8Zm-8 8v-8 8Zm8-8v8-8Zm-8 0 8 8-8-8Zm9 22h2-2Zm-8-3v-4 4Zm8 3v-6 6Zm-6-7v3-3Zm10 2v1.5-1.5Zm-8 1v5-5Zm6 .5v3.5-3.5Zm4-1.5v4-4Zm-8-1v7-7Zm-6-1h2-2Zm2 3h2-2Zm2 5h2-2Zm2-7h2-2Zm4 2.5h2-2Zm2-1.5h2-2Zm-14 2h2-2Zm16 2h2-2Z" stroke="#DBDBDB" stroke-linecap="round" stroke-linejoin="round"/><path fill-rule="evenodd" clip-rule="evenodd" d="M29 742.016h2v-5h-2v5Zm16.8 0h2v-5h-2v5Zm-12.7-2h-2v-3h2v3Zm12.6 0h-2v-3h2v3Zm-12.5-2.75h2v-.5h-2v.5Zm10.4 0h-2v-.5h2v.5Zm-8.3-.25h2v-3h-2v3Zm4.1 0h-2v-5h2v5Zm.1 0h2v-3h-2v3Z" fill="#DBDBDB"/><path d="m31.284 753.142.343-1.354h.413l.103-.343h-.425c.12-.494.281-.855.48-1.084.121-.142.24-.214.355-.214a.08.08 0 0 1 .057.021.069.069 0 0 1 .022.053.3.3 0 0 1-.048.111.308.308 0 0 0-.049.155c0 .069.026.127.076.176a.269.269 0 0 0 .194.073.277.277 0 0 0 .21-.089.337.337 0 0 0 .086-.242.351.351 0 0 0-.128-.281c-.085-.072-.221-.108-.409-.108-.292 0-.558.086-.796.257-.239.172-.465.456-.68.853-.074.137-.145.225-.211.264-.066.039-.173.057-.32.055l-.096.343h.407l-.598 2.341c-.1.385-.166.622-.202.712a.851.851 0 0 1-.231.334.215.215 0 0 1-.15.055.06.06 0 0 1-.04-.014l-.015-.021c0-.009.014-.029.044-.06.03-.03.044-.076.044-.139a.226.226 0 0 0-.07-.17c-.047-.045-.115-.067-.203-.067a.362.362 0 0 0-.255.088.271.271 0 0 0-.096.208c0 .086.039.16.117.224.078.063.2.095.366.095.264 0 .498-.069.702-.207.204-.137.382-.35.534-.637.153-.287.309-.75.47-1.388Zm14.997-1.36.507-1.766h-.176l-.978.172-.032.118c.11-.006.194.01.249.049a.13.13 0 0 1 .058.112c0 .054-.021.155-.064.302l-.897 3.108c.36.189.7.284 1.023.284.433 0 .82-.182 1.16-.548.383-.414.574-.884.574-1.412 0-.221-.058-.415-.174-.584-.117-.169-.292-.254-.526-.254a.697.697 0 0 0-.337.084c-.103.055-.233.167-.387.335Zm-4.573.117h1.41v-1.406h.383v1.406h1.41v.387H43.5v1.395h-.384v-1.395h-1.409v-.387Zm-3.36-.495-.569 1.949-.058.237a.366.366 0 0 0-.01.064c0 .024.01.044.026.062.016.017.033.026.051.026.041 0 .098-.031.17-.094.03-.025.1-.115.21-.269l.104.053c-.14.254-.287.439-.444.555a.84.84 0 0 1-.509.174c-.111 0-.196-.029-.255-.086a.295.295 0 0 1-.087-.219c0-.076.03-.217.093-.424l.07-.238c-.226.389-.444.664-.653.827a.625.625 0 0 1-.386.14.411.411 0 0 1-.39-.221 1.031 1.031 0 0 1-.12-.5c0-.275.084-.591.252-.947.168-.357.388-.643.662-.86.224-.18.435-.27.633-.27.11 0 .197.032.263.095.067.064.116.18.147.348l.105-.361.695-.041Zm1.42-.041-1.022.176-.02.111c.076-.015.14-.023.193-.023.102 0 .186.044.252.132.105.137.252.553.44 1.248a6.71 6.71 0 0 1-.302.387.888.888 0 0 1-.223.19.33.33 0 0 1-.152.035.577.577 0 0 1-.211-.07.431.431 0 0 0-.18-.047.332.332 0 0 0-.342.343c0 .093.03.17.09.228.06.059.14.088.241.088a.63.63 0 0 0 .276-.061c.086-.041.193-.129.323-.263.13-.133.31-.346.538-.637.088.278.164.479.229.605a.708.708 0 0 0 .22.273.554.554 0 0 0 .313.083.641.641 0 0 0 .369-.132c.164-.113.332-.308.504-.586l-.106-.061c-.117.164-.204.266-.26.307a.224.224 0 0 1-.132.039c-.06 0-.12-.039-.18-.115-.099-.129-.231-.486-.398-1.072.149-.262.274-.433.375-.513a.376.376 0 0 1 .235-.088c.031 0 .087.012.168.034a.799.799 0 0 0 .216.034c.086 0 .157-.03.215-.09a.316.316 0 0 0 .086-.23.325.325 0 0 0-.086-.237.334.334 0 0 0-.248-.088.56.56 0 0 0-.27.069c-.085.046-.193.145-.324.297a7.305 7.305 0 0 0-.434.595 2.936 2.936 0 0 0-.392-.961Zm-4.274.068H32.29v.381h3.205v-.381Zm1.916.53c0-.158-.024-.273-.073-.343a.167.167 0 0 0-.144-.073c-.06 0-.123.029-.187.088-.131.121-.272.367-.423.737-.152.37-.227.69-.227.959 0 .104.017.178.05.224.035.046.072.069.114.069.087 0 .176-.051.266-.152.129-.145.245-.322.349-.531.183-.367.275-.693.275-.978Zm8.502 2.033a.472.472 0 0 1-.249-.088l.399-1.377c.08-.279.154-.462.222-.548.102-.132.22-.199.358-.199.082 0 .154.036.216.109.063.072.094.177.094.316 0 .244-.04.489-.123.735a2.431 2.431 0 0 1-.306.63 1.256 1.256 0 0 1-.35.361.51.51 0 0 1-.26.061Zm-10.418-1.605H32.29v.381h3.205v-.381Z" fill="#FF9000"/><path d="M21.3 692.001c-.55 4.486-4.5 4.016-4.5 4.016m-12.1-4.002c.551-4.485 4.3-4 4.3-4l-4.3 4Zm8.3.016c-.55-4.486-4.5-4.016-4.5-4.016l4.5 4.016Zm0-.031c.551 4.486 4.395 4.027 4.5 4.015L13 692Z" stroke="#DBDBDB" stroke-linecap="round"/><path d="M5 710.534v-7h8v7h8v-7" stroke="#DBDBDB" stroke-linecap="round" stroke-linejoin="round"/><path d="M4 721.109c.043-1.022.745-4.579 1-4 .255.58.4 5.934.9 6.934s.63-3.502 1.1-2.934c.47.569.312 5.727.779 5.208.467-.519.666-6.406 1.221-7.208.555-.802.465 4.267 1 4 .535-.266.64-5.565 1.14-5.065.5.5.395 6.049.86 7.065.465 1.017.506-3.277 1-3 .494.278.517 4.737 1 4 .483-.736.431-6.194.931-6.944s.591 4.216 1.069 3.944c.478-.272.343-5.532.843-5.032.5.5.618 6.024 1.157 7.032.54 1.008.515-2.725 1-3 .485-.275.441 3.151.941 1.901.5-1.25.544-6.176 1.059-6.901.515-.725 1 4 1 4" stroke="#DBDBDB" stroke-width=".75"/><path d="m18 736.854 3 4-3-4Zm-13 4 3-8-3 8Zm13-4h-7 7Zm-10-4 3 4-3-4Z" stroke="#DBDBDB" stroke-linecap="round" stroke-linejoin="round"/><path fill-rule="evenodd" clip-rule="evenodd" d="M11 748.5a.5.5 0 1 1 1 0 .5.5 0 0 1-1 0Zm.009.871c-.43.154-.774.449-1.079.852-.483.639-.834 1.508-1.216 2.463l-.015.037c-.364.91-.76 1.9-1.331 2.657-.486.642-1.116 1.141-1.97 1.309a1 1 0 1 1-.076-1.008c.511-.133.905-.45 1.248-.904.483-.639.834-1.508 1.216-2.463l.015-.037c.364-.91.76-1.9 1.331-2.657.364-.481.809-.881 1.368-1.123a1 1 0 1 1 1.886.468c.045.103.1.222.16.355.215.459.52 1.067.883 1.673.365.609.778 1.195 1.206 1.622.192.192.372.337.538.44a.985.985 0 0 1 .392-.053l.107-.198c.243-.437.6-1.023 1.058-1.611.675-.867 1.63-1.822 2.813-2.234a1 1 0 1 1 .233.98c-.858.332-1.627 1.059-2.256 1.868a11.734 11.734 0 0 0-1.12 1.755 1 1 0 1 1-1.884.258 4.235 4.235 0 0 1-.588-.498c-.51-.51-.972-1.174-1.357-1.815a19.618 19.618 0 0 1-1.042-2.007H11.5a.994.994 0 0 1-.491-.129ZM4.5 755.75a.5.5 0 1 0 0 1 .5.5 0 0 0 0-1Zm11-2.25a.5.5 0 1 0 0 1 .5.5 0 0 0 0-1Zm4.5-4.25a.5.5 0 1 1 1 0 .5.5 0 0 1-1 0Z" fill="#DBDBDB"/><defs><linearGradient id="a" x1="25.5" y1=".5" x2="25.5" y2="75.5" gradientUnits="userSpaceOnUse"><stop/><stop offset="1" stop-opacity=".25"/></linearGradient><linearGradient id="b" x1="25.5" y1="76.5" x2="25.5" y2="151.5" gradientUnits="userSpaceOnUse"><stop/><stop offset="1" stop-opacity=".25"/></linearGradient><linearGradient id="c" x1="25.5" y1="152.5" x2="25.5" y2="227.5" gradientUnits="userSpaceOnUse"><stop/><stop offset="1" stop-opacity=".25"/></linearGradient><linearGradient id="d" x1="25.5" y1="228.5" x2="25.5" y2="303.5" gradientUnits="userSpaceOnUse"><stop/><stop offset="1" stop-opacity=".25"/></linearGradient><linearGradient id="e" x1="25.5" y1="304.5" x2="25.5" y2="379.5" gradientUnits="userSpaceOnUse"><stop/><stop offset="1" stop-opacity=".25"/></linearGradient><linearGradient id="f" x1="25.5" y1="380.5" x2="25.5" y2="455.5" gradientUnits="userSpaceOnUse"><stop/><stop offset="1" stop-opacity=".25"/></linearGradient><linearGradient id="g" x1="25.5" y1="456.5" x2="25.5" y2="531.5" gradientUnits="userSpaceOnUse"><stop/><stop offset="1" stop-opacity=".25"/></linearGradient><linearGradient id="h" x1="25.5" y1="532.5" x2="25.5" y2="607.5" gradientUnits="userSpaceOnUse"><stop/><stop offset="1" stop-opacity=".25"/></linearGradient><linearGradient id="i" x1="25.5" y1="608.5" x2="25.5" y2="683.5" gradientUnits="userSpaceOnUse"><stop/><stop offset="1" stop-opacity=".25"/></linearGradient><linearGradient id="j" x1="25.5" y1="684.5" x2="25.5" y2="759.5" gradientUnits="userSpaceOnUse"><stop/><stop offset="1" stop-opacity=".25"/></linearGradient></defs></svg>