<svg width="49" height="18" fill="none" xmlns="http://www.w3.org/2000/svg"><path fill-rule="evenodd" clip-rule="evenodd" d="M.5 4V3c0-.276.098-.512.293-.707A.964.964 0 0 1 1.5 2h46c.276 0 .512.098.707.293A.963.963 0 0 1 48.5 3v9a.963.963 0 0 1-.293.707.963.963 0 0 1-.707.293h-46a.963.963 0 0 1-.707-.293A.964.964 0 0 1 .5 12V4Z" fill="url(#a)"/><path clip-rule="evenodd" d="M.5 4V3c0-.276.098-.512.293-.707A.964.964 0 0 1 1.5 2h46c.276 0 .512.098.707.293A.963.963 0 0 1 48.5 3v9a.963.963 0 0 1-.293.707.963.963 0 0 1-.707.293h-46a.963.963 0 0 1-.707-.293A.964.964 0 0 1 .5 12V4Z" stroke="url(#b)"/><path fill-rule="evenodd" clip-rule="evenodd" d="M45.5 10 43 7h5l-2.5 3Z" fill="#000"/><defs><linearGradient id="a" x1="24.5" y1="2" x2="24.5" y2="13" gradientUnits="userSpaceOnUse"><stop stop-color="#FFA127"/><stop offset="1" stop-color="#D87A00"/></linearGradient><linearGradient id="b" x1="24.5" y1="2" x2="24.5" y2="13" gradientUnits="userSpaceOnUse"><stop stop-color="#FFA127"/><stop offset="1" stop-color="#D87A00"/></linearGradient></defs></svg>