<svg width="399" height="84" fill="none" xmlns="http://www.w3.org/2000/svg"><g opacity=".1"><path opacity=".1" fill-rule="evenodd" clip-rule="evenodd" d="M260.5 7.5a.5.5 0 0 1-.5.5H140a.5.5 0 0 1 0-1h120a.5.5 0 0 1 .5.5Z" fill="#EEE"/><path opacity=".1" clip-rule="evenodd" d="M261 7.5a1 1 0 0 1-1 1H140a1 1 0 0 1 0-2h120a1 1 0 0 1 1 1Z" stroke="#EEE"/><path opacity=".1" d="M144.5 4h-1v2h1V4ZM144.5 9h-1v2h1V9ZM256.5 4h-1v2h1V4ZM256.5 9h-1v2h1V9Z" fill="#EEE"/></g><path fill-rule="evenodd" clip-rule="evenodd" d="M260 7a.5.5 0 0 1-.5.5h-120a.5.5 0 0 1 0-1h120a.5.5 0 0 1 .5.5Z" fill="#FF9000"/><path clip-rule="evenodd" d="M260.5 7a1 1 0 0 1-1 1h-120a1 1 0 0 1 0-2h120a1 1 0 0 1 1 1Z" stroke="#000"/><path d="M144 3.5h-1v2h1v-2ZM144 8.5h-1v2h1v-2ZM256 3.5h-1v2h1v-2ZM256 8.5h-1v2h1v-2Z" fill="#000"/><g opacity=".1" fill="#EEE"><path opacity=".1" d="M200.5 18.5h-1V20h1v-1.5ZM200.5 23h-1v1.5h1V23ZM144.5 16h-1v2h1v-2ZM144.5 25h-1v2h1v-2ZM256.5 16h-1v2h1v-2ZM256.5 25h-1v2h1v-2Z"/></g><g opacity=".1"><path opacity=".1" fill-rule="evenodd" clip-rule="evenodd" d="M260.5 21.5a.5.5 0 0 1-.5.5H140a.5.5 0 0 1 0-1h120a.5.5 0 0 1 .5.5Z" fill="#EEE"/><path opacity=".1" clip-rule="evenodd" d="M261 21.5a1 1 0 0 1-1 1H140a1 1 0 0 1 0-2h120a1 1 0 0 1 1 1Z" stroke="#EEE"/><path opacity=".1" d="M144.5 18h-1v2h1v-2ZM144.5 23h-1v2h1v-2ZM256.5 18h-1v2h1v-2ZM256.5 23h-1v2h1v-2Z" fill="#EEE"/></g><path fill-rule="evenodd" clip-rule="evenodd" d="M260 21a.5.5 0 0 1-.5.5h-120a.5.5 0 0 1 0-1h120a.5.5 0 0 1 .5.5Z" fill="#FF9000"/><path clip-rule="evenodd" d="M260.5 21a1 1 0 0 1-1 1h-120a1 1 0 0 1 0-2h120a1 1 0 0 1 1 1Z" stroke="#000"/><path d="M144 17.5h-1v2h1v-2ZM144 22.5h-1v2h1v-2ZM256 17.5h-1v2h1v-2ZM256 22.5h-1v2h1v-2ZM200 18h-1v1.5h1V18ZM200 22.5h-1V24h1v-1.5ZM144 15.5h-1v2h1v-2ZM144 24.5h-1v2h1v-2ZM256 15.5h-1v2h1v-2ZM256 24.5h-1v2h1v-2Z" fill="#000"/><g opacity=".1"><path opacity=".1" fill-rule="evenodd" clip-rule="evenodd" d="M260.5 35.5a.5.5 0 0 1-.5.5H140a.5.5 0 0 1 0-1h120a.5.5 0 0 1 .5.5Z" fill="#EEE"/><path opacity=".1" clip-rule="evenodd" d="M261 35.5a1 1 0 0 1-1 1H140a1 1 0 0 1 0-2h120a1 1 0 0 1 1 1Z" stroke="#EEE"/><path opacity=".1" d="M144.5 37h-1v3h1v-3ZM152.5 37h-1v2.57h1V37ZM160.5 37h-1v2.14h1V37ZM168.5 37h-1v1.71h1V37ZM176.5 37h-1v1.28h1V37ZM184.5 37h-1v.85h1V37ZM192.5 37h-1v.42h1V37ZM200.5 31h-1v3h1v-3ZM200.5 37h-1v3h1v-3ZM208.5 33.57h-1v.42h1v-.42ZM216.5 33.14h-1v.85h1v-.85ZM224.5 32.71h-1v1.28h1v-1.28ZM232.5 32.28h-1v1.71h1v-1.71ZM240.5 31.85h-1v2.14h1v-2.14ZM248.5 31.42h-1v2.57h1v-2.57ZM256.5 31h-1v3h1v-3Z" fill="#EEE"/></g><path fill-rule="evenodd" clip-rule="evenodd" d="M260 35a.5.5 0 0 1-.5.5h-120a.5.5 0 0 1 0-1h120a.5.5 0 0 1 .5.5Z" fill="#FF9000"/><path clip-rule="evenodd" d="M260.5 35a1 1 0 0 1-1 1h-120a1 1 0 0 1 0-2h120a1 1 0 0 1 1 1Z" stroke="#000"/><path d="M144 36.5h-1v3h1v-3ZM152 36.5h-1v2.57h1V36.5ZM160 36.5h-1v2.14h1V36.5ZM168 36.5h-1v1.71h1V36.5ZM176 36.5h-1v1.28h1V36.5ZM184 36.5h-1v.85h1v-.85ZM192 36.5h-1v.42h1v-.42ZM200 30.5h-1v3h1v-3ZM200 36.5h-1v3h1v-3ZM208 33.07h-1v.42h1v-.42ZM216 32.64h-1v.85h1v-.85ZM224 32.21h-1v1.28h1v-1.28ZM232 31.78h-1v1.71h1v-1.71ZM240 31.35h-1v2.14h1v-2.14ZM248 30.92h-1v2.57h1v-2.57ZM256 30.5h-1v3h1v-3Z" fill="#000"/><g opacity=".1"><path opacity=".1" fill-rule="evenodd" clip-rule="evenodd" d="M393.5 7.5a.5.5 0 0 1-.5.5H273a.5.5 0 0 1 0-1h120a.5.5 0 0 1 .5.5Z" fill="#EEE"/><path opacity=".1" clip-rule="evenodd" d="M394 7.5a1 1 0 0 1-1 1H273a1 1 0 0 1 0-2h120a1 1 0 0 1 1 1Z" stroke="#EEE"/><path opacity=".1" d="M277.5 4h-1v2h1V4ZM277.5 9h-1v2h1V9ZM389.5 4h-1v2h1V4ZM389.5 9h-1v2h1V9Z" fill="#EEE"/></g><path fill-rule="evenodd" clip-rule="evenodd" d="M393 7a.5.5 0 0 1-.5.5h-120a.5.5 0 0 1 0-1h120a.5.5 0 0 1 .5.5Z" fill="#FFEE58"/><path clip-rule="evenodd" d="M393.5 7a1 1 0 0 1-1 1h-120a1 1 0 0 1 0-2h120a1 1 0 0 1 1 1Z" stroke="#000"/><path d="M277 3.5h-1v2h1v-2ZM277 8.5h-1v2h1v-2ZM389 3.5h-1v2h1v-2ZM389 8.5h-1v2h1v-2Z" fill="#000"/><g opacity=".1" fill="#EEE"><path opacity=".1" d="M333.5 18.5h-1V20h1v-1.5ZM333.5 23h-1v1.5h1V23ZM277.5 16h-1v2h1v-2ZM277.5 25h-1v2h1v-2ZM389.5 16h-1v2h1v-2ZM389.5 25h-1v2h1v-2Z"/></g><g opacity=".1"><path opacity=".1" fill-rule="evenodd" clip-rule="evenodd" d="M393.5 21.5a.5.5 0 0 1-.5.5H273a.5.5 0 0 1 0-1h120a.5.5 0 0 1 .5.5Z" fill="#EEE"/><path opacity=".1" clip-rule="evenodd" d="M394 21.5a1 1 0 0 1-1 1H273a1 1 0 0 1 0-2h120a1 1 0 0 1 1 1Z" stroke="#EEE"/><path opacity=".1" d="M277.5 18h-1v2h1v-2ZM277.5 23h-1v2h1v-2ZM389.5 18h-1v2h1v-2ZM389.5 23h-1v2h1v-2Z" fill="#EEE"/></g><path fill-rule="evenodd" clip-rule="evenodd" d="M393 21a.5.5 0 0 1-.5.5h-120a.5.5 0 0 1 0-1h120a.5.5 0 0 1 .5.5Z" fill="#FFEE58"/><path clip-rule="evenodd" d="M393.5 21a1 1 0 0 1-1 1h-120a1 1 0 0 1 0-2h120a1 1 0 0 1 1 1Z" stroke="#000"/><path d="M277 17.5h-1v2h1v-2ZM277 22.5h-1v2h1v-2ZM389 17.5h-1v2h1v-2ZM389 22.5h-1v2h1v-2ZM333 18h-1v1.5h1V18ZM333 22.5h-1V24h1v-1.5ZM277 15.5h-1v2h1v-2ZM277 24.5h-1v2h1v-2ZM389 15.5h-1v2h1v-2ZM389 24.5h-1v2h1v-2Z" fill="#000"/><g opacity=".1"><path opacity=".1" fill-rule="evenodd" clip-rule="evenodd" d="M393.5 35.5a.5.5 0 0 1-.5.5H273a.5.5 0 0 1 0-1h120a.5.5 0 0 1 .5.5Z" fill="#EEE"/><path opacity=".1" clip-rule="evenodd" d="M394 35.5a1 1 0 0 1-1 1H273a1 1 0 0 1 0-2h120a1 1 0 0 1 1 1Z" stroke="#EEE"/><path opacity=".1" d="M277.5 37h-1v3h1v-3ZM285.5 37h-1v2.57h1V37ZM293.5 37h-1v2.14h1V37ZM301.5 37h-1v1.71h1V37ZM309.5 37h-1v1.28h1V37ZM317.5 37h-1v.85h1V37ZM325.5 37h-1v.42h1V37ZM333.5 31h-1v3h1v-3ZM333.5 37h-1v3h1v-3ZM341.5 33.57h-1v.42h1v-.42ZM349.5 33.14h-1v.85h1v-.85ZM357.5 32.71h-1v1.28h1v-1.28ZM365.5 32.28h-1v1.71h1v-1.71ZM373.5 31.85h-1v2.14h1v-2.14ZM381.5 31.42h-1v2.57h1v-2.57ZM389.5 31h-1v3h1v-3Z" fill="#EEE"/></g><path fill-rule="evenodd" clip-rule="evenodd" d="M393 35a.5.5 0 0 1-.5.5h-120a.5.5 0 0 1 0-1h120a.5.5 0 0 1 .5.5Z" fill="#FFEE58"/><path clip-rule="evenodd" d="M393.5 35a1 1 0 0 1-1 1h-120a1 1 0 0 1 0-2h120a1 1 0 0 1 1 1Z" stroke="#000"/><path d="M277 36.5h-1v3h1v-3ZM285 36.5h-1v2.57h1V36.5ZM293 36.5h-1v2.14h1V36.5ZM301 36.5h-1v1.71h1V36.5ZM309 36.5h-1v1.28h1V36.5ZM317 36.5h-1v.85h1v-.85ZM325 36.5h-1v.42h1v-.42ZM333 30.5h-1v3h1v-3ZM333 36.5h-1v3h1v-3ZM341 33.07h-1v.42h1v-.42ZM349 32.64h-1v.85h1v-.85ZM357 32.21h-1v1.28h1v-1.28ZM365 31.78h-1v1.71h1v-1.71ZM373 31.35h-1v2.14h1v-2.14ZM381 30.92h-1v2.57h1v-2.57ZM389 30.5h-1v3h1v-3Z" fill="#000"/><g opacity=".1"><path opacity=".1" fill-rule="evenodd" clip-rule="evenodd" d="M127.5 49.5a.5.5 0 0 1-.5.5H7a.5.5 0 0 1 0-1h120a.5.5 0 0 1 .5.5Z" fill="#EEE"/><path opacity=".1" clip-rule="evenodd" d="M128 49.5a1 1 0 0 1-1 1H7a1 1 0 1 1 0-2h120a1 1 0 0 1 1 1Z" stroke="#EEE"/><path opacity=".1" d="M11.5 46h-1v2h1v-2ZM11.5 51h-1v2h1v-2ZM123.5 46h-1v2h1v-2ZM123.5 51h-1v2h1v-2Z" fill="#EEE"/></g><path fill-rule="evenodd" clip-rule="evenodd" d="M127 49a.5.5 0 0 1-.5.5H6.5a.5.5 0 0 1 0-1h120a.5.5 0 0 1 .5.5Z" fill="#1F1F1F"/><path clip-rule="evenodd" d="M127.5 49a1 1 0 0 1-1 1H6.5a1 1 0 1 1 0-2h120a1 1 0 0 1 1 1Z" stroke="#000"/><path d="M11 45.5h-1v2h1v-2ZM11 50.5h-1v2h1v-2ZM123 45.5h-1v2h1v-2ZM123 50.5h-1v2h1v-2Z" fill="#000"/><g opacity=".1" fill="#EEE"><path opacity=".1" d="M67.5 60.5h-1V62h1v-1.5ZM67.5 65h-1v1.5h1V65ZM11.5 58h-1v2h1v-2ZM11.5 67h-1v2h1v-2ZM123.5 58h-1v2h1v-2ZM123.5 67h-1v2h1v-2Z"/></g><g opacity=".1"><path opacity=".1" fill-rule="evenodd" clip-rule="evenodd" d="M127.5 63.5a.5.5 0 0 1-.5.5H7a.5.5 0 0 1 0-1h120a.5.5 0 0 1 .5.5Z" fill="#EEE"/><path opacity=".1" clip-rule="evenodd" d="M128 63.5a1 1 0 0 1-1 1H7a1 1 0 1 1 0-2h120a1 1 0 0 1 1 1Z" stroke="#EEE"/><path opacity=".1" d="M11.5 60h-1v2h1v-2ZM11.5 65h-1v2h1v-2ZM123.5 60h-1v2h1v-2ZM123.5 65h-1v2h1v-2Z" fill="#EEE"/></g><path fill-rule="evenodd" clip-rule="evenodd" d="M127 63a.5.5 0 0 1-.5.5H6.5a.5.5 0 0 1 0-1h120a.5.5 0 0 1 .5.5Z" fill="#1F1F1F"/><path clip-rule="evenodd" d="M127.5 63a1 1 0 0 1-1 1H6.5a1 1 0 1 1 0-2h120a1 1 0 0 1 1 1Z" stroke="#000"/><path d="M11 59.5h-1v2h1v-2ZM11 64.5h-1v2h1v-2ZM123 59.5h-1v2h1v-2ZM123 64.5h-1v2h1v-2ZM67 60h-1v1.5h1V60ZM67 64.5h-1V66h1v-1.5ZM11 57.5h-1v2h1v-2ZM11 66.5h-1v2h1v-2ZM123 57.5h-1v2h1v-2ZM123 66.5h-1v2h1v-2Z" fill="#000"/><g opacity=".1"><path opacity=".1" fill-rule="evenodd" clip-rule="evenodd" d="M127.5 77.5a.5.5 0 0 1-.5.5H7a.5.5 0 0 1 0-1h120a.5.5 0 0 1 .5.5Z" fill="#EEE"/><path opacity=".1" clip-rule="evenodd" d="M128 77.5a1 1 0 0 1-1 1H7a1 1 0 1 1 0-2h120a1 1 0 0 1 1 1Z" stroke="#EEE"/><path opacity=".1" d="M11.5 79h-1v3h1v-3ZM19.5 79h-1v2.57h1V79ZM27.5 79h-1v2.14h1V79ZM35.5 79h-1v1.71h1V79ZM43.5 79h-1v1.28h1V79ZM51.5 79h-1v.85h1V79ZM59.5 79h-1v.42h1V79ZM67.5 73h-1v3h1v-3ZM67.5 79h-1v3h1v-3ZM75.5 75.57h-1v.42h1v-.42ZM83.5 75.14h-1v.85h1v-.85ZM91.5 74.71h-1v1.28h1v-1.28ZM99.5 74.28h-1v1.71h1v-1.71ZM107.5 73.85h-1v2.14h1v-2.14ZM115.5 73.42h-1v2.57h1v-2.57ZM123.5 73h-1v3h1v-3Z" fill="#EEE"/></g><path fill-rule="evenodd" clip-rule="evenodd" d="M127 77a.5.5 0 0 1-.5.5H6.5a.5.5 0 0 1 0-1h120a.5.5 0 0 1 .5.5Z" fill="#1F1F1F"/><path clip-rule="evenodd" d="M127.5 77a1 1 0 0 1-1 1H6.5a1 1 0 1 1 0-2h120a1 1 0 0 1 1 1Z" stroke="#000"/><path d="M11 78.5h-1v3h1v-3ZM19 78.5h-1v2.57h1V78.5ZM27 78.5h-1v2.14h1V78.5ZM35 78.5h-1v1.71h1V78.5ZM43 78.5h-1v1.28h1V78.5ZM51 78.5h-1v.85h1v-.85ZM59 78.5h-1v.42h1v-.42ZM67 72.5h-1v3h1v-3ZM67 78.5h-1v3h1v-3ZM75 75.07h-1v.42h1v-.42ZM83 74.64h-1v.85h1v-.85ZM91 74.21h-1v1.28h1v-1.28ZM99 73.78h-1v1.71h1v-1.71ZM107 73.35h-1v2.14h1v-2.14ZM115 72.92h-1v2.57h1v-2.57ZM123 72.5h-1v3h1v-3Z" fill="#000"/><g opacity=".1"><path opacity=".1" fill-rule="evenodd" clip-rule="evenodd" d="M260.5 49.5a.5.5 0 0 1-.5.5H140a.5.5 0 0 1 0-1h120a.5.5 0 0 1 .5.5Z" fill="#EEE"/><path opacity=".1" clip-rule="evenodd" d="M261 49.5a1 1 0 0 1-1 1H140a1 1 0 0 1 0-2h120a1 1 0 0 1 1 1Z" stroke="#EEE"/><path opacity=".1" d="M144.5 46h-1v2h1v-2ZM144.5 51h-1v2h1v-2ZM256.5 46h-1v2h1v-2ZM256.5 51h-1v2h1v-2Z" fill="#EEE"/></g><path fill-rule="evenodd" clip-rule="evenodd" d="M260 49a.5.5 0 0 1-.5.5h-120a.5.5 0 0 1 0-1h120a.5.5 0 0 1 .5.5Z" fill="#FF9000"/><path clip-rule="evenodd" d="M260.5 49a1 1 0 0 1-1 1h-120a1 1 0 0 1 0-2h120a1 1 0 0 1 1 1Z" stroke="#000"/><path d="M144 45.5h-1v2h1v-2ZM144 50.5h-1v2h1v-2ZM256 45.5h-1v2h1v-2ZM256 50.5h-1v2h1v-2Z" fill="#000"/><g opacity=".1" fill="#EEE"><path opacity=".1" d="M200.5 60.5h-1V62h1v-1.5ZM200.5 65h-1v1.5h1V65ZM144.5 58h-1v2h1v-2ZM144.5 67h-1v2h1v-2ZM256.5 58h-1v2h1v-2ZM256.5 67h-1v2h1v-2Z"/></g><g opacity=".1"><path opacity=".1" fill-rule="evenodd" clip-rule="evenodd" d="M260.5 63.5a.5.5 0 0 1-.5.5H140a.5.5 0 0 1 0-1h120a.5.5 0 0 1 .5.5Z" fill="#EEE"/><path opacity=".1" clip-rule="evenodd" d="M261 63.5a1 1 0 0 1-1 1H140a1 1 0 0 1 0-2h120a1 1 0 0 1 1 1Z" stroke="#EEE"/><path opacity=".1" d="M144.5 60h-1v2h1v-2ZM144.5 65h-1v2h1v-2ZM256.5 60h-1v2h1v-2ZM256.5 65h-1v2h1v-2Z" fill="#EEE"/></g><path fill-rule="evenodd" clip-rule="evenodd" d="M260 63a.5.5 0 0 1-.5.5h-120a.5.5 0 0 1 0-1h120a.5.5 0 0 1 .5.5Z" fill="#FF9000"/><path clip-rule="evenodd" d="M260.5 63a1 1 0 0 1-1 1h-120a1 1 0 0 1 0-2h120a1 1 0 0 1 1 1Z" stroke="#000"/><path d="M144 59.5h-1v2h1v-2ZM144 64.5h-1v2h1v-2ZM256 59.5h-1v2h1v-2ZM256 64.5h-1v2h1v-2ZM200 60h-1v1.5h1V60ZM200 64.5h-1V66h1v-1.5ZM144 57.5h-1v2h1v-2ZM144 66.5h-1v2h1v-2ZM256 57.5h-1v2h1v-2ZM256 66.5h-1v2h1v-2Z" fill="#000"/><g opacity=".1"><path opacity=".1" fill-rule="evenodd" clip-rule="evenodd" d="M260.5 77.5a.5.5 0 0 1-.5.5H140a.5.5 0 0 1 0-1h120a.5.5 0 0 1 .5.5Z" fill="#EEE"/><path opacity=".1" clip-rule="evenodd" d="M261 77.5a1 1 0 0 1-1 1H140a1 1 0 0 1 0-2h120a1 1 0 0 1 1 1Z" stroke="#EEE"/><path opacity=".1" d="M144.5 79h-1v3h1v-3ZM152.5 79h-1v2.57h1V79ZM160.5 79h-1v2.14h1V79ZM168.5 79h-1v1.71h1V79ZM176.5 79h-1v1.28h1V79ZM184.5 79h-1v.85h1V79ZM192.5 79h-1v.42h1V79ZM200.5 73h-1v3h1v-3ZM200.5 79h-1v3h1v-3ZM208.5 75.57h-1v.42h1v-.42ZM216.5 75.14h-1v.85h1v-.85ZM224.5 74.71h-1v1.28h1v-1.28ZM232.5 74.28h-1v1.71h1v-1.71ZM240.5 73.85h-1v2.14h1v-2.14ZM248.5 73.42h-1v2.57h1v-2.57ZM256.5 73h-1v3h1v-3Z" fill="#EEE"/></g><path fill-rule="evenodd" clip-rule="evenodd" d="M260 77a.5.5 0 0 1-.5.5h-120a.5.5 0 0 1 0-1h120a.5.5 0 0 1 .5.5Z" fill="#FF9000"/><path clip-rule="evenodd" d="M260.5 77a1 1 0 0 1-1 1h-120a1 1 0 0 1 0-2h120a1 1 0 0 1 1 1Z" stroke="#000"/><path d="M144 78.5h-1v3h1v-3ZM152 78.5h-1v2.57h1V78.5ZM160 78.5h-1v2.14h1V78.5ZM168 78.5h-1v1.71h1V78.5ZM176 78.5h-1v1.28h1V78.5ZM184 78.5h-1v.85h1v-.85ZM192 78.5h-1v.42h1v-.42ZM200 72.5h-1v3h1v-3ZM200 78.5h-1v3h1v-3ZM208 75.07h-1v.42h1v-.42ZM216 74.64h-1v.85h1v-.85ZM224 74.21h-1v1.28h1v-1.28ZM232 73.78h-1v1.71h1v-1.71ZM240 73.35h-1v2.14h1v-2.14ZM248 72.92h-1v2.57h1v-2.57ZM256 72.5h-1v3h1v-3Z" fill="#000"/><g opacity=".1"><path opacity=".1" fill-rule="evenodd" clip-rule="evenodd" d="M393.5 49.5a.5.5 0 0 1-.5.5H273a.5.5 0 0 1 0-1h120a.5.5 0 0 1 .5.5Z" fill="#EEE"/><path opacity=".1" clip-rule="evenodd" d="M394 49.5a1 1 0 0 1-1 1H273a1 1 0 0 1 0-2h120a1 1 0 0 1 1 1Z" stroke="#EEE"/><path opacity=".1" d="M277.5 46h-1v2h1v-2ZM277.5 51h-1v2h1v-2ZM389.5 46h-1v2h1v-2ZM389.5 51h-1v2h1v-2Z" fill="#EEE"/></g><path fill-rule="evenodd" clip-rule="evenodd" d="M393 49a.5.5 0 0 1-.5.5h-120a.5.5 0 0 1 0-1h120a.5.5 0 0 1 .5.5Z" fill="#FFEE58"/><path clip-rule="evenodd" d="M393.5 49a1 1 0 0 1-1 1h-120a1 1 0 0 1 0-2h120a1 1 0 0 1 1 1Z" stroke="#000"/><path d="M277 45.5h-1v2h1v-2ZM277 50.5h-1v2h1v-2ZM389 45.5h-1v2h1v-2ZM389 50.5h-1v2h1v-2Z" fill="#000"/><g opacity=".1" fill="#EEE"><path opacity=".1" d="M333.5 60.5h-1V62h1v-1.5ZM333.5 65h-1v1.5h1V65ZM277.5 58h-1v2h1v-2ZM277.5 67h-1v2h1v-2ZM389.5 58h-1v2h1v-2ZM389.5 67h-1v2h1v-2Z"/></g><g opacity=".1"><path opacity=".1" fill-rule="evenodd" clip-rule="evenodd" d="M393.5 63.5a.5.5 0 0 1-.5.5H273a.5.5 0 0 1 0-1h120a.5.5 0 0 1 .5.5Z" fill="#EEE"/><path opacity=".1" clip-rule="evenodd" d="M394 63.5a1 1 0 0 1-1 1H273a1 1 0 0 1 0-2h120a1 1 0 0 1 1 1Z" stroke="#EEE"/><path opacity=".1" d="M277.5 60h-1v2h1v-2ZM277.5 65h-1v2h1v-2ZM389.5 60h-1v2h1v-2ZM389.5 65h-1v2h1v-2Z" fill="#EEE"/></g><path fill-rule="evenodd" clip-rule="evenodd" d="M393 63a.5.5 0 0 1-.5.5h-120a.5.5 0 0 1 0-1h120a.5.5 0 0 1 .5.5Z" fill="#FFEE58"/><path clip-rule="evenodd" d="M393.5 63a1 1 0 0 1-1 1h-120a1 1 0 0 1 0-2h120a1 1 0 0 1 1 1Z" stroke="#000"/><path d="M277 59.5h-1v2h1v-2ZM277 64.5h-1v2h1v-2ZM389 59.5h-1v2h1v-2ZM389 64.5h-1v2h1v-2ZM333 60h-1v1.5h1V60ZM333 64.5h-1V66h1v-1.5ZM277 57.5h-1v2h1v-2ZM277 66.5h-1v2h1v-2ZM389 57.5h-1v2h1v-2ZM389 66.5h-1v2h1v-2Z" fill="#000"/><g opacity=".1"><path opacity=".1" fill-rule="evenodd" clip-rule="evenodd" d="M393.5 77.5a.5.5 0 0 1-.5.5H273a.5.5 0 0 1 0-1h120a.5.5 0 0 1 .5.5Z" fill="#EEE"/><path opacity=".1" clip-rule="evenodd" d="M394 77.5a1 1 0 0 1-1 1H273a1 1 0 0 1 0-2h120a1 1 0 0 1 1 1Z" stroke="#EEE"/><path opacity=".1" d="M277.5 79h-1v3h1v-3ZM285.5 79h-1v2.57h1V79ZM293.5 79h-1v2.14h1V79ZM301.5 79h-1v1.71h1V79ZM309.5 79h-1v1.28h1V79ZM317.5 79h-1v.85h1V79ZM325.5 79h-1v.42h1V79ZM333.5 73h-1v3h1v-3ZM333.5 79h-1v3h1v-3ZM341.5 75.57h-1v.42h1v-.42ZM349.5 75.14h-1v.85h1v-.85ZM357.5 74.71h-1v1.28h1v-1.28ZM365.5 74.28h-1v1.71h1v-1.71ZM373.5 73.85h-1v2.14h1v-2.14ZM381.5 73.42h-1v2.57h1v-2.57ZM389.5 73h-1v3h1v-3Z" fill="#EEE"/></g><path fill-rule="evenodd" clip-rule="evenodd" d="M393 77a.5.5 0 0 1-.5.5h-120a.5.5 0 0 1 0-1h120a.5.5 0 0 1 .5.5Z" fill="#FFEE58"/><path clip-rule="evenodd" d="M393.5 77a1 1 0 0 1-1 1h-120a1 1 0 0 1 0-2h120a1 1 0 0 1 1 1Z" stroke="#000"/><path d="M277 78.5h-1v3h1v-3ZM285 78.5h-1v2.57h1V78.5ZM293 78.5h-1v2.14h1V78.5ZM301 78.5h-1v1.71h1V78.5ZM309 78.5h-1v1.28h1V78.5ZM317 78.5h-1v.85h1v-.85ZM325 78.5h-1v.42h1v-.42ZM333 72.5h-1v3h1v-3ZM333 78.5h-1v3h1v-3ZM341 75.07h-1v.42h1v-.42ZM349 74.64h-1v.85h1v-.85ZM357 74.21h-1v1.28h1v-1.28ZM365 73.78h-1v1.71h1v-1.71ZM373 73.35h-1v2.14h1v-2.14ZM381 72.92h-1v2.57h1v-2.57ZM389 72.5h-1v3h1v-3Z" fill="#000"/><g opacity=".1"><path opacity=".1" fill-rule="evenodd" clip-rule="evenodd" d="M127.5 7.5a.5.5 0 0 1-.5.5H7a.5.5 0 0 1 0-1h120a.5.5 0 0 1 .5.5Z" fill="#EEE"/><path opacity=".1" clip-rule="evenodd" d="M128 7.5a1 1 0 0 1-1 1H7a1 1 0 0 1 0-2h120a1 1 0 0 1 1 1Z" stroke="#EEE"/><path opacity=".1" d="M11.5 4h-1v2h1V4ZM11.5 9h-1v2h1V9ZM123.5 4h-1v2h1V4ZM123.5 9h-1v2h1V9Z" fill="#EEE"/></g><path fill-rule="evenodd" clip-rule="evenodd" d="M127 7a.5.5 0 0 1-.5.5H6.5a.5.5 0 0 1 0-1h120a.5.5 0 0 1 .5.5Z" fill="#1F1F1F"/><path clip-rule="evenodd" d="M127.5 7a1 1 0 0 1-1 1H6.5a1 1 0 0 1 0-2h120a1 1 0 0 1 1 1Z" stroke="#000"/><path d="M11 3.5h-1v2h1v-2ZM11 8.5h-1v2h1v-2ZM123 3.5h-1v2h1v-2ZM123 8.5h-1v2h1v-2Z" fill="#000"/><g opacity=".1" fill="#EEE"><path opacity=".1" d="M67.5 18.5h-1V20h1v-1.5ZM67.5 23h-1v1.5h1V23ZM11.5 16h-1v2h1v-2ZM11.5 25h-1v2h1v-2ZM123.5 16h-1v2h1v-2ZM123.5 25h-1v2h1v-2Z"/></g><g opacity=".1"><path opacity=".1" fill-rule="evenodd" clip-rule="evenodd" d="M127.5 21.5a.5.5 0 0 1-.5.5H7a.5.5 0 0 1 0-1h120a.5.5 0 0 1 .5.5Z" fill="#EEE"/><path opacity=".1" clip-rule="evenodd" d="M128 21.5a1 1 0 0 1-1 1H7a1 1 0 1 1 0-2h120a1 1 0 0 1 1 1Z" stroke="#EEE"/><path opacity=".1" d="M11.5 18h-1v2h1v-2ZM11.5 23h-1v2h1v-2ZM123.5 18h-1v2h1v-2ZM123.5 23h-1v2h1v-2Z" fill="#EEE"/></g><path fill-rule="evenodd" clip-rule="evenodd" d="M127 21a.5.5 0 0 1-.5.5H6.5a.5.5 0 0 1 0-1h120a.5.5 0 0 1 .5.5Z" fill="#1F1F1F"/><path clip-rule="evenodd" d="M127.5 21a1 1 0 0 1-1 1H6.5a1 1 0 1 1 0-2h120a1 1 0 0 1 1 1Z" stroke="#000"/><path d="M11 17.5h-1v2h1v-2ZM11 22.5h-1v2h1v-2ZM123 17.5h-1v2h1v-2ZM123 22.5h-1v2h1v-2ZM67 18h-1v1.5h1V18ZM67 22.5h-1V24h1v-1.5ZM11 15.5h-1v2h1v-2ZM11 24.5h-1v2h1v-2ZM123 15.5h-1v2h1v-2ZM123 24.5h-1v2h1v-2Z" fill="#000"/><g opacity=".1"><path opacity=".1" fill-rule="evenodd" clip-rule="evenodd" d="M127.5 35.5a.5.5 0 0 1-.5.5H7a.5.5 0 0 1 0-1h120a.5.5 0 0 1 .5.5Z" fill="#EEE"/><path opacity=".1" clip-rule="evenodd" d="M128 35.5a1 1 0 0 1-1 1H7a1 1 0 1 1 0-2h120a1 1 0 0 1 1 1Z" stroke="#EEE"/><path opacity=".1" d="M11.5 37h-1v3h1v-3ZM19.5 37h-1v2.57h1V37ZM27.5 37h-1v2.14h1V37ZM35.5 37h-1v1.71h1V37ZM43.5 37h-1v1.28h1V37ZM51.5 37h-1v.85h1V37ZM59.5 37h-1v.42h1V37ZM67.5 31h-1v3h1v-3ZM67.5 37h-1v3h1v-3ZM75.5 33.57h-1v.42h1v-.42ZM83.5 33.14h-1v.85h1v-.85ZM91.5 32.71h-1v1.28h1v-1.28ZM99.5 32.28h-1v1.71h1v-1.71ZM107.5 31.85h-1v2.14h1v-2.14ZM115.5 31.42h-1v2.57h1v-2.57ZM123.5 31h-1v3h1v-3Z" fill="#EEE"/></g><path fill-rule="evenodd" clip-rule="evenodd" d="M127 35a.5.5 0 0 1-.5.5H6.5a.5.5 0 0 1 0-1h120a.5.5 0 0 1 .5.5Z" fill="#1F1F1F"/><path clip-rule="evenodd" d="M127.5 35a1 1 0 0 1-1 1H6.5a1 1 0 1 1 0-2h120a1 1 0 0 1 1 1Z" stroke="#000"/><path d="M11 36.5h-1v3h1v-3ZM19 36.5h-1v2.57h1V36.5ZM27 36.5h-1v2.14h1V36.5ZM35 36.5h-1v1.71h1V36.5ZM43 36.5h-1v1.28h1V36.5ZM51 36.5h-1v.85h1v-.85ZM59 36.5h-1v.42h1v-.42ZM67 30.5h-1v3h1v-3ZM67 36.5h-1v3h1v-3ZM75 33.07h-1v.42h1v-.42ZM83 32.64h-1v.85h1v-.85ZM91 32.21h-1v1.28h1v-1.28ZM99 31.78h-1v1.71h1v-1.71ZM107 31.35h-1v2.14h1v-2.14ZM115 30.92h-1v2.57h1v-2.57ZM123 30.5h-1v3h1v-3Z" fill="#000"/></svg>