<svg width="11" height="22" fill="none" xmlns="http://www.w3.org/2000/svg"><path fill-rule="evenodd" clip-rule="evenodd" d="M.5 3.5a3 3 0 0 1 3-3h4a3 3 0 0 1 3 3v4a3 3 0 0 1-3 3h-4a3 3 0 0 1-3-3v-4Z" fill="#242424"/><path fill-rule="evenodd" clip-rule="evenodd" d="M5 10V1h1v9H5Z" fill="#369EB3" fill-opacity=".5"/><path fill-rule="evenodd" clip-rule="evenodd" d="M1 5h9v1H1V5Z" fill="#369EB3" fill-opacity=".5"/><path d="M9 3.5H7.016c-1.516 0-1.516 4-3.011 4H2" stroke="#369EB3"/><path fill-rule="evenodd" clip-rule="evenodd" d="M.5 14.5a3 3 0 0 1 3-3h4a3 3 0 0 1 3 3v4a3 3 0 0 1-3 3h-4a3 3 0 0 1-3-3v-4Z" fill="#369EB3"/><path fill-rule="evenodd" clip-rule="evenodd" d="M2 15a2 2 0 0 1 2-2h3a2 2 0 0 1 2 2v3a2 2 0 0 1-2 2H4a2 2 0 0 1-2-2v-3Z" fill="#369EB3"/><path fill-rule="evenodd" clip-rule="evenodd" d="M5 21v-9h1v9H5Z" fill="#0E0E0E" fill-opacity=".25"/><path fill-rule="evenodd" clip-rule="evenodd" d="M1 16h9v1H1v-1Z" fill="#0E0E0E" fill-opacity=".25"/><path d="M9 14.5H7.016c-1.516 0-1.516 4-3.011 4H2" stroke="#000"/></svg>