<svg width="30" height="13" viewBox="0 0 30 13" fill="none" xmlns="http://www.w3.org/2000/svg">
<path d="M0.6521 2.54151C0.6521 1.43694 1.54753 0.541504 2.6521 0.541504H27.3478C28.4523 0.541504 29.3477 1.43693 29.3477 2.5415V10.4582C29.3477 11.5627 28.4523 12.4582 27.3477 12.4582H2.6521C1.54753 12.4582 0.6521 11.5627 0.6521 10.4582V2.54151Z" fill="#242424"/>
<path d="M2.6521 1.0415H27.3478V0.0415039H2.6521V1.0415ZM28.8477 2.5415V10.4582H29.8477V2.5415H28.8477ZM27.3477 11.9582H2.6521V12.9582H27.3477V11.9582ZM1.1521 10.4582V2.54151H0.1521V10.4582H1.1521ZM2.6521 11.9582C1.82367 11.9582 1.1521 11.2866 1.1521 10.4582H0.1521C0.1521 11.8389 1.27139 12.9582 2.6521 12.9582V11.9582ZM28.8477 10.4582C28.8477 11.2866 28.1762 11.9582 27.3477 11.9582V12.9582C28.7285 12.9582 29.8477 11.8389 29.8477 10.4582H28.8477ZM27.3478 1.0415C28.1762 1.0415 28.8477 1.71308 28.8477 2.5415H29.8477C29.8477 1.16079 28.7285 0.0415039 27.3478 0.0415039V1.0415ZM2.6521 0.0415039C1.27139 0.0415039 0.1521 1.16079 0.1521 2.54151H1.1521C1.1521 1.71308 1.82367 1.0415 2.6521 1.0415V0.0415039Z" fill="#B4B4B4" fill-opacity="0.25"/>
</svg>
