<svg width="40" height="84" viewBox="0 0 40 84" fill="none" xmlns="http://www.w3.org/2000/svg">
<path d="M0.5 2.5C0.5 1.39543 1.39543 0.5 2.5 0.5H37.5C38.6046 0.5 39.5 1.39543 39.5 2.5V39.5C39.5 40.6046 38.6046 41.5 37.5 41.5H2.5C1.39543 41.5 0.5 40.6046 0.5 39.5V2.5Z" fill="#242424"/>
<rect x="2.5" y="2.5" width="35" height="16" rx="1" fill="#369EB3"/>
<path d="M25.6563 17H23.9923C23.8056 17 23.651 16.9547 23.5283 16.864C23.411 16.768 23.3256 16.6507 23.2723 16.512L22.4083 14.152H17.6163L16.7523 16.512C16.7096 16.6347 16.6243 16.7467 16.4963 16.848C16.3736 16.9493 16.2216 17 16.0403 17H14.3683L18.9123 5.432H21.1123L25.6563 17ZM18.1683 12.632H21.8563L20.4483 8.784C20.3843 8.61333 20.3123 8.41333 20.2323 8.184C20.1576 7.94933 20.083 7.696 20.0083 7.424C19.9336 7.696 19.859 7.94933 19.7843 8.184C19.715 8.41867 19.6456 8.624 19.5763 8.8L18.1683 12.632Z" fill="black"/>
<path opacity="0.5" d="M38 20.5H2V21.5H38V20.5Z" fill="black"/>
<path d="M15.9571 38V26.432H19.9491C20.7064 26.432 21.3517 26.504 21.8851 26.648C22.4237 26.792 22.8637 26.9973 23.2051 27.264C23.5517 27.5307 23.8051 27.8533 23.9651 28.232C24.1251 28.6107 24.2051 29.0373 24.2051 29.512C24.2051 29.784 24.1651 30.0453 24.0851 30.296C24.0051 30.5413 23.8797 30.7733 23.7091 30.992C23.5437 31.2053 23.3304 31.4 23.0691 31.576C22.8131 31.752 22.5064 31.9013 22.1491 32.024C23.7384 32.3813 24.5331 33.24 24.5331 34.6C24.5331 35.0907 24.4397 35.544 24.2531 35.96C24.0664 36.376 23.7944 36.736 23.4371 37.04C23.0797 37.3387 22.6397 37.5733 22.1171 37.744C21.5944 37.9147 20.9971 38 20.3251 38H15.9571ZM18.1091 32.928V36.32H20.2931C20.6931 36.32 21.0264 36.272 21.2931 36.176C21.5651 36.08 21.7811 35.952 21.9411 35.792C22.1064 35.632 22.2237 35.4453 22.2931 35.232C22.3677 35.0187 22.4051 34.792 22.4051 34.552C22.4051 34.3013 22.3651 34.0773 22.2851 33.88C22.2051 33.6773 22.0797 33.5067 21.9091 33.368C21.7384 33.224 21.5197 33.1147 21.2531 33.04C20.9864 32.9653 20.6637 32.928 20.2851 32.928H18.1091ZM18.1091 31.44H19.8291C20.5597 31.44 21.1144 31.3067 21.4931 31.04C21.8717 30.7733 22.0611 30.3493 22.0611 29.768C22.0611 29.1653 21.8904 28.736 21.5491 28.48C21.2077 28.224 20.6744 28.096 19.9491 28.096H18.1091V31.44Z" fill="#B4B4B4"/>
<path d="M2.5 1H37.5V0H2.5V1ZM39 2.5V39.5H40V2.5H39ZM37.5 41H2.5V42H37.5V41ZM1 39.5V2.5H0V39.5H1ZM2.5 41C1.67157 41 1 40.3284 1 39.5H0C0 40.8807 1.11929 42 2.5 42V41ZM39 39.5C39 40.3284 38.3284 41 37.5 41V42C38.8807 42 40 40.8807 40 39.5H39ZM37.5 1C38.3284 1 39 1.67157 39 2.5H40C40 1.11929 38.8807 0 37.5 0V1ZM2.5 0C1.11929 0 0 1.11929 0 2.5H1C1 1.67157 1.67157 1 2.5 1V0Z" fill="#B4B4B4" fill-opacity="0.25"/>
<path d="M0.5 44.5C0.5 43.3954 1.39543 42.5 2.5 42.5H37.5C38.6046 42.5 39.5 43.3954 39.5 44.5V81.5C39.5 82.6046 38.6046 83.5 37.5 83.5H2.5C1.39543 83.5 0.5 82.6046 0.5 81.5V44.5Z" fill="#242424"/>
<path d="M25.6563 59H23.9923C23.8056 59 23.651 58.9547 23.5283 58.864C23.411 58.768 23.3256 58.6507 23.2723 58.512L22.4083 56.152H17.6163L16.7523 58.512C16.7096 58.6347 16.6243 58.7467 16.4963 58.848C16.3736 58.9493 16.2216 59 16.0403 59H14.3683L18.9123 47.432H21.1123L25.6563 59ZM18.1683 54.632H21.8563L20.4483 50.784C20.3843 50.6133 20.3123 50.4133 20.2323 50.184C20.1576 49.9493 20.083 49.696 20.0083 49.424C19.9336 49.696 19.859 49.9493 19.7843 50.184C19.715 50.4187 19.6456 50.624 19.5763 50.8L18.1683 54.632Z" fill="#B4B4B4"/>
<path opacity="0.5" d="M38 62.5H2V63.5H38V62.5Z" fill="black"/>
<rect x="2.5" y="65.5" width="35" height="16" rx="1" fill="#369EB3"/>
<path d="M15.9571 80V68.432H19.9491C20.7064 68.432 21.3517 68.504 21.8851 68.648C22.4237 68.792 22.8637 68.9973 23.2051 69.264C23.5517 69.5307 23.8051 69.8533 23.9651 70.232C24.1251 70.6107 24.2051 71.0373 24.2051 71.512C24.2051 71.784 24.1651 72.0453 24.0851 72.296C24.0051 72.5413 23.8797 72.7733 23.7091 72.992C23.5437 73.2053 23.3304 73.4 23.0691 73.576C22.8131 73.752 22.5064 73.9013 22.1491 74.024C23.7384 74.3813 24.5331 75.24 24.5331 76.6C24.5331 77.0907 24.4397 77.544 24.2531 77.96C24.0664 78.376 23.7944 78.736 23.4371 79.04C23.0797 79.3387 22.6397 79.5733 22.1171 79.744C21.5944 79.9147 20.9971 80 20.3251 80H15.9571ZM18.1091 74.928V78.32H20.2931C20.6931 78.32 21.0264 78.272 21.2931 78.176C21.5651 78.08 21.7811 77.952 21.9411 77.792C22.1064 77.632 22.2237 77.4453 22.2931 77.232C22.3677 77.0187 22.4051 76.792 22.4051 76.552C22.4051 76.3013 22.3651 76.0773 22.2851 75.88C22.2051 75.6773 22.0797 75.5067 21.9091 75.368C21.7384 75.224 21.5197 75.1147 21.2531 75.04C20.9864 74.9653 20.6637 74.928 20.2851 74.928H18.1091ZM18.1091 73.44H19.8291C20.5597 73.44 21.1144 73.3067 21.4931 73.04C21.8717 72.7733 22.0611 72.3493 22.0611 71.768C22.0611 71.1653 21.8904 70.736 21.5491 70.48C21.2077 70.224 20.6744 70.096 19.9491 70.096H18.1091V73.44Z" fill="black"/>
<path d="M2.5 43H37.5V42H2.5V43ZM39 44.5V81.5H40V44.5H39ZM37.5 83H2.5V84H37.5V83ZM1 81.5V44.5H0V81.5H1ZM2.5 83C1.67157 83 1 82.3284 1 81.5H0C0 82.8807 1.11929 84 2.5 84V83ZM39 81.5C39 82.3284 38.3284 83 37.5 83V84C38.8807 84 40 82.8807 40 81.5H39ZM37.5 43C38.3284 43 39 43.6716 39 44.5H40C40 43.1193 38.8807 42 37.5 42V43ZM2.5 42C1.11929 42 0 43.1193 0 44.5H1C1 43.6716 1.67157 43 2.5 43V42Z" fill="#B4B4B4" fill-opacity="0.25"/>
</svg>
