<svg width="12" height="14" viewBox="0 0 12 14" fill="none" xmlns="http://www.w3.org/2000/svg">
<path fill-rule="evenodd" clip-rule="evenodd" d="M8.2405 2.74855L10.9992 4.45082L10.9961 1H1.83331C1.39856 1.00204 0.999046 1.36453 1 1.76021L1.00422 8.40797L2.89201 8.8848C2.9904 8.90811 3.08927 8.855 3.12053 8.76909L3.58993 7.21894C3.62108 7.10926 3.76495 7.05933 3.87268 7.12421L8.38871 9.92632C8.55909 10.0308 8.4336 10.2768 8.2368 10.2242L4.75728 9.35579C4.6589 9.33248 4.55586 9.3856 4.53378 9.47572L4.07271 11.0258C4.04156 11.1355 3.89353 11.1855 3.79079 11.1206L1.00529 9.3819L1.00748 13H10.1666C10.633 12.9978 10.9994 12.6066 11 12.1872L10.9953 5.44431L9.13011 4.98095C9.03089 4.9568 8.93285 5.01075 8.90575 5.09664L8.42221 6.65026C8.3869 6.76081 8.24801 6.80562 8.1403 6.74583L3.61925 3.93949C3.44887 3.83415 3.57436 3.58902 3.77115 3.64074L7.25067 4.50918C7.34989 4.53334 7.44793 4.48023 7.47586 4.39434L7.95857 2.83903C7.9939 2.73357 8.13277 2.68367 8.2405 2.74855Z" fill="#B4B4B4"/>
</svg>
