<svg width="32" height="24" viewBox="0 0 32 24" fill="none" xmlns="http://www.w3.org/2000/svg">
<path d="M0.55957 2.5C0.55957 1.39543 1.455 0.5 2.55957 0.5H28.5596C29.6641 0.5 30.5596 1.39543 30.5596 2.5V9.5C30.5596 10.6046 29.6641 11.5 28.5596 11.5H2.55957C1.455 11.5 0.55957 10.6046 0.55957 9.5V2.5Z" fill="#242424"/>
<path d="M10.0215 3.66C10.0215 3.72933 10.0095 3.79733 9.98551 3.864C9.96418 3.93067 9.93351 3.99333 9.89351 4.052L7.15751 7.96H9.93351V9H5.43751V8.48C5.43751 8.41867 5.44817 8.35867 5.46951 8.3C5.49084 8.23867 5.52017 8.18267 5.55751 8.132L8.30151 4.212H5.66151V3.172H10.0215V3.66ZM12.2641 4.788C12.5787 4.788 12.8654 4.83733 13.1241 4.936C13.3827 5.03467 13.6041 5.176 13.7881 5.36C13.9747 5.544 14.1187 5.768 14.2201 6.032C14.3241 6.29333 14.3761 6.588 14.3761 6.916C14.3761 7.24667 14.3241 7.54533 14.2201 7.812C14.1187 8.076 13.9747 8.30133 13.7881 8.488C13.6041 8.672 13.3827 8.81467 13.1241 8.916C12.8654 9.01467 12.5787 9.064 12.2641 9.064C11.9467 9.064 11.6574 9.01467 11.3961 8.916C11.1374 8.81467 10.9134 8.672 10.7241 8.488C10.5374 8.30133 10.3921 8.076 10.2881 7.812C10.1867 7.54533 10.1361 7.24667 10.1361 6.916C10.1361 6.588 10.1867 6.29333 10.2881 6.032C10.3921 5.768 10.5374 5.544 10.7241 5.36C10.9134 5.176 11.1374 5.03467 11.3961 4.936C11.6574 4.83733 11.9467 4.788 12.2641 4.788ZM12.2641 8.144C12.5494 8.144 12.7587 8.044 12.8921 7.844C13.0281 7.64133 13.0961 7.33467 13.0961 6.924C13.0961 6.51333 13.0281 6.208 12.8921 6.008C12.7587 5.808 12.5494 5.708 12.2641 5.708C11.9707 5.708 11.7561 5.808 11.6201 6.008C11.4841 6.208 11.4161 6.51333 11.4161 6.924C11.4161 7.33467 11.4841 7.64133 11.6201 7.844C11.7561 8.044 11.9707 8.144 12.2641 8.144ZM16.7925 4.788C17.1072 4.788 17.3938 4.83733 17.6525 4.936C17.9112 5.03467 18.1325 5.176 18.3165 5.36C18.5032 5.544 18.6472 5.768 18.7485 6.032C18.8525 6.29333 18.9045 6.588 18.9045 6.916C18.9045 7.24667 18.8525 7.54533 18.7485 7.812C18.6472 8.076 18.5032 8.30133 18.3165 8.488C18.1325 8.672 17.9112 8.81467 17.6525 8.916C17.3938 9.01467 17.1072 9.064 16.7925 9.064C16.4752 9.064 16.1858 9.01467 15.9245 8.916C15.6658 8.81467 15.4418 8.672 15.2525 8.488C15.0658 8.30133 14.9205 8.076 14.8165 7.812C14.7152 7.54533 14.6645 7.24667 14.6645 6.916C14.6645 6.588 14.7152 6.29333 14.8165 6.032C14.9205 5.768 15.0658 5.544 15.2525 5.36C15.4418 5.176 15.6658 5.03467 15.9245 4.936C16.1858 4.83733 16.4752 4.788 16.7925 4.788ZM16.7925 8.144C17.0778 8.144 17.2872 8.044 17.4205 7.844C17.5565 7.64133 17.6245 7.33467 17.6245 6.924C17.6245 6.51333 17.5565 6.208 17.4205 6.008C17.2872 5.808 17.0778 5.708 16.7925 5.708C16.4992 5.708 16.2845 5.808 16.1485 6.008C16.0125 6.208 15.9445 6.51333 15.9445 6.924C15.9445 7.33467 16.0125 7.64133 16.1485 7.844C16.2845 8.044 16.4992 8.144 16.7925 8.144ZM19.4089 9V4.852H20.1769C20.3316 4.852 20.4329 4.92133 20.4809 5.06L20.5489 5.284C20.6183 5.212 20.6903 5.14667 20.7649 5.088C20.8396 5.02667 20.9196 4.97467 21.0049 4.932C21.0929 4.88667 21.1863 4.852 21.2849 4.828C21.3863 4.80133 21.4969 4.788 21.6169 4.788C21.8676 4.788 22.0743 4.85333 22.2369 4.984C22.4023 5.112 22.5276 5.284 22.6129 5.5C22.6823 5.372 22.7663 5.26267 22.8649 5.172C22.9663 5.08133 23.0743 5.008 23.1889 4.952C23.3063 4.896 23.4289 4.85467 23.5569 4.828C23.6876 4.80133 23.8169 4.788 23.9449 4.788C24.1823 4.788 24.3929 4.824 24.5769 4.896C24.7609 4.96533 24.9143 5.068 25.0369 5.204C25.1623 5.33733 25.2569 5.50267 25.3209 5.7C25.3849 5.89467 25.4169 6.116 25.4169 6.364V9H24.1769V6.364C24.1769 5.93467 23.9929 5.72 23.6249 5.72C23.4569 5.72 23.3169 5.776 23.2049 5.888C23.0956 5.99733 23.0409 6.156 23.0409 6.364V9H21.8009V6.364C21.8009 6.12667 21.7543 5.96 21.6609 5.864C21.5676 5.768 21.4303 5.72 21.2489 5.72C21.1369 5.72 21.0303 5.74533 20.9289 5.796C20.8303 5.84667 20.7369 5.91467 20.6489 6V9H19.4089Z" fill="#B4B4B4"/>
<path d="M2.55957 1H28.5596V0H2.55957V1ZM30.0596 2.5V9.5H31.0596V2.5H30.0596ZM28.5596 11H2.55957V12H28.5596V11ZM1.05957 9.5V2.5H0.0595703V9.5H1.05957ZM2.55957 11C1.73114 11 1.05957 10.3284 1.05957 9.5H0.0595703C0.0595703 10.8807 1.17886 12 2.55957 12V11ZM30.0596 9.5C30.0596 10.3284 29.388 11 28.5596 11V12C29.9403 12 31.0596 10.8807 31.0596 9.5H30.0596ZM28.5596 1C29.388 1 30.0596 1.67157 30.0596 2.5H31.0596C31.0596 1.11929 29.9403 0 28.5596 0V1ZM2.55957 0C1.17886 0 0.0595703 1.11929 0.0595703 2.5H1.05957C1.05957 1.67157 1.73114 1 2.55957 1V0Z" fill="#B4B4B4" fill-opacity="0.25"/>
<path d="M0.560547 14.5C0.560547 13.3954 1.45598 12.5 2.56055 12.5H28.5605C29.6651 12.5 30.5605 13.3954 30.5605 14.5V21.5C30.5605 22.6046 29.6651 23.5 28.5605 23.5H2.56055C1.45598 23.5 0.560547 22.6046 0.560547 21.5V14.5Z" fill="#242424"/>
<rect x="2.56055" y="14.5" width="26" height="7" rx="1" fill="#369EB3"/>
<rect x="2.56055" y="14.5" width="26" height="7" rx="1" stroke="#369EB3"/>
<path d="M10.0225 15.66C10.0225 15.7293 10.0105 15.7973 9.98649 15.864C9.96515 15.9307 9.93448 15.9933 9.89448 16.052L7.15848 19.96H9.93448V21H5.43848V20.48C5.43848 20.4187 5.44915 20.3587 5.47048 20.3C5.49182 20.2387 5.52115 20.1827 5.55848 20.132L8.30248 16.212H5.66248V15.172H10.0225V15.66ZM12.265 16.788C12.5797 16.788 12.8664 16.8373 13.125 16.936C13.3837 17.0347 13.605 17.176 13.789 17.36C13.9757 17.544 14.1197 17.768 14.221 18.032C14.325 18.2933 14.377 18.588 14.377 18.916C14.377 19.2467 14.325 19.5453 14.221 19.812C14.1197 20.076 13.9757 20.3013 13.789 20.488C13.605 20.672 13.3837 20.8147 13.125 20.916C12.8664 21.0147 12.5797 21.064 12.265 21.064C11.9477 21.064 11.6584 21.0147 11.397 20.916C11.1384 20.8147 10.9144 20.672 10.725 20.488C10.5384 20.3013 10.393 20.076 10.289 19.812C10.1877 19.5453 10.137 19.2467 10.137 18.916C10.137 18.588 10.1877 18.2933 10.289 18.032C10.393 17.768 10.5384 17.544 10.725 17.36C10.9144 17.176 11.1384 17.0347 11.397 16.936C11.6584 16.8373 11.9477 16.788 12.265 16.788ZM12.265 20.144C12.5504 20.144 12.7597 20.044 12.893 19.844C13.029 19.6413 13.097 19.3347 13.097 18.924C13.097 18.5133 13.029 18.208 12.893 18.008C12.7597 17.808 12.5504 17.708 12.265 17.708C11.9717 17.708 11.757 17.808 11.621 18.008C11.485 18.208 11.417 18.5133 11.417 18.924C11.417 19.3347 11.485 19.6413 11.621 19.844C11.757 20.044 11.9717 20.144 12.265 20.144ZM16.7935 16.788C17.1082 16.788 17.3948 16.8373 17.6535 16.936C17.9122 17.0347 18.1335 17.176 18.3175 17.36C18.5042 17.544 18.6482 17.768 18.7495 18.032C18.8535 18.2933 18.9055 18.588 18.9055 18.916C18.9055 19.2467 18.8535 19.5453 18.7495 19.812C18.6482 20.076 18.5042 20.3013 18.3175 20.488C18.1335 20.672 17.9122 20.8147 17.6535 20.916C17.3948 21.0147 17.1082 21.064 16.7935 21.064C16.4762 21.064 16.1868 21.0147 15.9255 20.916C15.6668 20.8147 15.4428 20.672 15.2535 20.488C15.0668 20.3013 14.9215 20.076 14.8175 19.812C14.7162 19.5453 14.6655 19.2467 14.6655 18.916C14.6655 18.588 14.7162 18.2933 14.8175 18.032C14.9215 17.768 15.0668 17.544 15.2535 17.36C15.4428 17.176 15.6668 17.0347 15.9255 16.936C16.1868 16.8373 16.4762 16.788 16.7935 16.788ZM16.7935 20.144C17.0788 20.144 17.2882 20.044 17.4215 19.844C17.5575 19.6413 17.6255 19.3347 17.6255 18.924C17.6255 18.5133 17.5575 18.208 17.4215 18.008C17.2882 17.808 17.0788 17.708 16.7935 17.708C16.5002 17.708 16.2855 17.808 16.1495 18.008C16.0135 18.208 15.9455 18.5133 15.9455 18.924C15.9455 19.3347 16.0135 19.6413 16.1495 19.844C16.2855 20.044 16.5002 20.144 16.7935 20.144ZM19.4099 21V16.852H20.1779C20.3326 16.852 20.4339 16.9213 20.4819 17.06L20.5499 17.284C20.6193 17.212 20.6913 17.1467 20.7659 17.088C20.8406 17.0267 20.9206 16.9747 21.0059 16.932C21.0939 16.8867 21.1873 16.852 21.2859 16.828C21.3873 16.8013 21.4979 16.788 21.6179 16.788C21.8686 16.788 22.0753 16.8533 22.2379 16.984C22.4033 17.112 22.5286 17.284 22.6139 17.5C22.6833 17.372 22.7673 17.2627 22.8659 17.172C22.9673 17.0813 23.0753 17.008 23.1899 16.952C23.3073 16.896 23.4299 16.8547 23.5579 16.828C23.6886 16.8013 23.8179 16.788 23.9459 16.788C24.1833 16.788 24.3939 16.824 24.5779 16.896C24.7619 16.9653 24.9153 17.068 25.0379 17.204C25.1633 17.3373 25.2579 17.5027 25.3219 17.7C25.3859 17.8947 25.4179 18.116 25.4179 18.364V21H24.1779V18.364C24.1779 17.9347 23.9939 17.72 23.6259 17.72C23.4579 17.72 23.3179 17.776 23.2059 17.888C23.0966 17.9973 23.0419 18.156 23.0419 18.364V21H21.8019V18.364C21.8019 18.1267 21.7553 17.96 21.6619 17.864C21.5686 17.768 21.4313 17.72 21.2499 17.72C21.1379 17.72 21.0313 17.7453 20.9299 17.796C20.8313 17.8467 20.7379 17.9147 20.6499 18V21H19.4099Z" fill="black"/>
<path d="M2.56055 13H28.5605V12H2.56055V13ZM30.0605 14.5V21.5H31.0605V14.5H30.0605ZM28.5605 23H2.56055V24H28.5605V23ZM1.06055 21.5V14.5H0.0605469V21.5H1.06055ZM2.56055 23C1.73212 23 1.06055 22.3284 1.06055 21.5H0.0605469C0.0605469 22.8807 1.17983 24 2.56055 24V23ZM30.0605 21.5C30.0605 22.3284 29.389 23 28.5605 23V24C29.9413 24 31.0605 22.8807 31.0605 21.5H30.0605ZM28.5605 13C29.389 13 30.0605 13.6716 30.0605 14.5H31.0605C31.0605 13.1193 29.9413 12 28.5605 12V13ZM2.56055 12C1.17984 12 0.0605469 13.1193 0.0605469 14.5H1.06055C1.06055 13.6716 1.73212 13 2.56055 13V12Z" fill="#B4B4B4" fill-opacity="0.25"/>
</svg>
