<svg width="49" height="144" viewBox="0 0 49 144" fill="none" xmlns="http://www.w3.org/2000/svg">
<path d="M46 10L43.5 7L48.5 7L46 10Z" fill="#B4B4B4"/>
<path d="M46 28L43.5 25L48.5 25L46 28Z" fill="#B4B4B4"/>
<path d="M46 46L43.5 43L48.5 43L46 46Z" fill="#B4B4B4"/>
<path d="M46 64L43.5 61L48.5 61L46 64Z" fill="#B4B4B4"/>
<path d="M46 82L43.5 79L48.5 79L46 82Z" fill="#B4B4B4"/>
<path d="M46 100L43.5 97L48.5 97L46 100Z" fill="#B4B4B4"/>
<path d="M46 118L43.5 115L48.5 115L46 118Z" fill="#B4B4B4"/>
<path d="M46 136L43.5 133L48.5 133L46 136Z" fill="#B4B4B4"/>
</svg>
