<svg width="134" height="208" viewBox="0 0 134 208" fill="none" xmlns="http://www.w3.org/2000/svg">
<path fill-rule="evenodd" clip-rule="evenodd" d="M1 160V163H121V171H128V173L132 170.5L128 168V170H123V160H1Z" fill="#2D8699"/>
<rect x="13.5" y="182.5" width="10" height="10" rx="2" stroke="#2D8699"/>
<rect x="45.5" y="182.5" width="10" height="10" rx="2" stroke="#2D8699"/>
<rect x="77.5" y="182.5" width="10" height="10" rx="2" stroke="#2D8699"/>
<path opacity="0.5" d="M117 182.5H111C109.895 182.5 109 183.395 109 184.5V190.5C109 191.605 109.895 192.5 111 192.5H117C118.105 192.5 119 191.605 119 190.5V184.5C119 183.395 118.105 182.5 117 182.5Z" stroke="#2D8699"/>
<path d="M38 188H37V197.012H83V193H82V196H38V188Z" fill="#2D8699"/>
<path d="M17.4112 189.352H18.4367V186.402C18.4367 186.288 18.4402 186.167 18.4472 186.041L17.7192 186.65C17.6889 186.676 17.6574 186.694 17.6247 186.703C17.5944 186.712 17.5641 186.717 17.5337 186.717C17.4871 186.717 17.4439 186.708 17.4042 186.689C17.3669 186.668 17.3389 186.645 17.3202 186.619L17.0472 186.244L18.5907 184.932H19.3012V189.352H20.2112V190H17.4112V189.352Z" fill="white"/>
<path d="M50.5767 184.883C50.8101 184.883 51.0236 184.918 51.2172 184.988C51.4109 185.056 51.5766 185.152 51.7142 185.278C51.8519 185.404 51.9592 185.556 52.0362 185.733C52.1132 185.911 52.1517 186.108 52.1517 186.325C52.1517 186.512 52.1237 186.684 52.0677 186.843C52.0141 187.002 51.9406 187.153 51.8472 187.298C51.7562 187.443 51.6489 187.583 51.5252 187.718C51.4016 187.853 51.2721 187.991 51.1367 188.131L49.9957 189.296C50.1077 189.264 50.2174 189.239 50.3247 189.223C50.4321 189.204 50.5347 189.195 50.6327 189.195H51.9312C52.0246 189.195 52.0981 189.222 52.1517 189.275C52.2077 189.327 52.2357 189.396 52.2357 189.482V190H48.7637V189.713C48.7637 189.655 48.7754 189.594 48.7987 189.531C48.8244 189.468 48.8641 189.41 48.9177 189.356L50.4542 187.816C50.5826 187.685 50.6969 187.56 50.7972 187.441C50.8999 187.322 50.9851 187.205 51.0527 187.088C51.1227 186.971 51.1752 186.853 51.2102 186.734C51.2476 186.613 51.2662 186.486 51.2662 186.353C51.2662 186.232 51.2487 186.125 51.2137 186.034C51.1787 185.941 51.1286 185.863 51.0632 185.8C50.9979 185.737 50.9197 185.69 50.8287 185.66C50.7401 185.627 50.6397 185.611 50.5277 185.611C50.3201 185.611 50.1486 185.663 50.0132 185.768C49.8802 185.873 49.7869 186.015 49.7332 186.192C49.7076 186.281 49.6691 186.345 49.6177 186.385C49.5664 186.422 49.5011 186.44 49.4217 186.44C49.3867 186.44 49.3482 186.437 49.3062 186.43L48.8512 186.349C48.8862 186.107 48.9539 185.894 49.0542 185.712C49.1546 185.528 49.2794 185.375 49.4287 185.254C49.5804 185.13 49.7531 185.038 49.9467 184.977C50.1427 184.914 50.3527 184.883 50.5767 184.883Z" fill="white"/>
<path d="M82.6572 184.883C82.8906 184.883 83.1006 184.917 83.2872 184.984C83.4762 185.05 83.6372 185.142 83.7702 185.261C83.9032 185.378 84.0047 185.515 84.0747 185.674C84.1471 185.833 84.1832 186.004 84.1832 186.188C84.1832 186.349 84.1646 186.492 84.1272 186.615C84.0922 186.737 84.0397 186.843 83.9697 186.934C83.9021 187.025 83.8181 187.102 83.7177 187.165C83.6197 187.228 83.5077 187.28 83.3817 187.322C83.6851 187.418 83.9114 187.564 84.0607 187.76C84.2101 187.956 84.2847 188.202 84.2847 188.498C84.2847 188.75 84.2381 188.973 84.1447 189.167C84.0514 189.361 83.9254 189.524 83.7667 189.657C83.6081 189.788 83.4237 189.887 83.2137 189.954C83.0061 190.022 82.7856 190.056 82.5522 190.056C82.2979 190.056 82.0762 190.027 81.8872 189.968C81.6982 189.91 81.5337 189.824 81.3937 189.709C81.2537 189.595 81.1347 189.455 81.0367 189.289C80.9387 189.124 80.8547 188.932 80.7847 188.715L81.1662 188.558C81.2316 188.53 81.2981 188.516 81.3657 188.516C81.4264 188.516 81.4801 188.529 81.5267 188.554C81.5757 188.58 81.6131 188.617 81.6387 188.666C81.6807 188.748 81.7262 188.829 81.7752 188.908C81.8266 188.987 81.8872 189.058 81.9572 189.121C82.0272 189.182 82.1089 189.232 82.2022 189.272C82.2979 189.309 82.4111 189.328 82.5417 189.328C82.6887 189.328 82.8171 189.305 82.9267 189.258C83.0364 189.209 83.1274 189.146 83.1997 189.069C83.2744 188.992 83.3292 188.907 83.3642 188.813C83.4016 188.718 83.4202 188.622 83.4202 188.526C83.4202 188.405 83.4074 188.295 83.3817 188.197C83.3561 188.097 83.3024 188.012 83.2207 187.942C83.1391 187.872 83.0212 187.817 82.8672 187.777C82.7156 187.738 82.5114 187.718 82.2547 187.718V187.102C82.4671 187.1 82.6432 187.08 82.7832 187.042C82.9232 187.005 83.0341 186.954 83.1157 186.888C83.1997 186.821 83.2581 186.74 83.2907 186.647C83.3234 186.554 83.3397 186.451 83.3397 186.339C83.3397 186.099 83.2744 185.918 83.1437 185.796C83.0131 185.673 82.8346 185.611 82.6082 185.611C82.4029 185.611 82.2326 185.666 82.0972 185.775C81.9619 185.883 81.8674 186.022 81.8137 186.192C81.7857 186.281 81.7472 186.345 81.6982 186.385C81.6492 186.422 81.5851 186.44 81.5057 186.44C81.4684 186.44 81.4287 186.437 81.3867 186.43L80.9317 186.349C80.9667 186.107 81.0344 185.894 81.1347 185.712C81.2351 185.528 81.3599 185.375 81.5092 185.254C81.6609 185.13 81.8336 185.038 82.0272 184.977C82.2232 184.914 82.4332 184.883 82.6572 184.883Z" fill="white"/>
<path d="M112.359 184.939C112.401 184.939 112.436 184.941 112.464 184.946C112.492 184.948 112.516 184.955 112.537 184.967C112.561 184.976 112.583 184.991 112.604 185.012C112.625 185.031 112.648 185.057 112.674 185.089L115.33 188.474C115.321 188.392 115.314 188.313 115.309 188.236C115.307 188.157 115.306 188.083 115.306 188.015V184.939H116.135V190H115.649C115.574 190 115.512 189.988 115.463 189.965C115.414 189.942 115.367 189.9 115.32 189.839L112.674 186.468C112.681 186.543 112.686 186.618 112.688 186.692C112.693 186.765 112.695 186.831 112.695 186.892V190H111.865V184.939H112.359Z" fill="white"/>
<g opacity="0.5">
<path d="M34.5 180.5C37.2614 180.5 39.5 178.261 39.5 175.5C39.5 172.739 37.2614 170.5 34.5 170.5C31.7386 170.5 29.5 172.739 29.5 175.5C29.5 178.261 31.7386 180.5 34.5 180.5Z" stroke="#2D8699"/>
<path d="M36.4449 172.495L37.5055 173.555L35.5595 175.501L37.5047 177.444L36.4449 178.505L34.4989 176.562L32.5558 178.505L31.4951 177.444L33.4375 175.502L31.4922 173.56L32.5521 172.498L34.4981 174.441L36.4449 172.495Z" fill="#EEEEEE"/>
</g>
<g opacity="0.5">
<path d="M66.5 180.5C69.2614 180.5 71.5 178.261 71.5 175.5C71.5 172.739 69.2614 170.5 66.5 170.5C63.7386 170.5 61.5 172.739 61.5 175.5C61.5 178.261 63.7386 180.5 66.5 180.5Z" stroke="#2D8699"/>
<path d="M68.4449 172.495L69.5055 173.555L67.5595 175.501L69.5047 177.444L68.4449 178.505L66.4989 176.562L64.5558 178.505L63.4951 177.444L65.4375 175.502L63.4922 173.56L64.5521 172.498L66.4981 174.441L68.4449 172.495Z" fill="#EEEEEE"/>
</g>
<path fill-rule="evenodd" clip-rule="evenodd" d="M82 168L80 168L82.5 164L85 168L83 168L82 168Z" fill="#2D8699"/>
<path d="M82 182L82 167.5L83 167.5L83 182L82 182Z" fill="#2D8699"/>
<g opacity="0.5">
<path fill-rule="evenodd" clip-rule="evenodd" d="M113.5 168L111.5 168L114 164L116.5 168L114.5 168L113.5 168Z" fill="#2D8699"/>
<path d="M113.5 182L113.5 167.5L114.5 167.5L114.5 182L113.5 182Z" fill="#2D8699"/>
</g>
<path fill-rule="evenodd" clip-rule="evenodd" d="M50 168L48 168L50.5 164L53 168L51 168L50 168Z" fill="#2D8699"/>
<path d="M50 182L50 167.5L51 167.5L51 182L50 182Z" fill="#2D8699"/>
<path fill-rule="evenodd" clip-rule="evenodd" d="M18 168L16 168L18.5 164L21 168L19 168L18 168Z" fill="#2D8699"/>
<path d="M18 182L18 167.5L19 167.5L19 182L18 182Z" fill="#2D8699"/>
<g opacity="0.5">
<path fill-rule="evenodd" clip-rule="evenodd" d="M34 168L32 168L34.5 164L37 168L35 168L34 168Z" fill="#2D8699"/>
<path d="M34 170L34 167.5L35 167.5L35 170L34 170Z" fill="#2D8699"/>
</g>
<g opacity="0.5">
<path fill-rule="evenodd" clip-rule="evenodd" d="M66 168L64 168L66.5 164L69 168L67 168L66 168Z" fill="#2D8699"/>
<path d="M66 170L66 167.5L67 167.5L67 170L66 170Z" fill="#2D8699"/>
</g>
<g opacity="0.5">
<path fill-rule="evenodd" clip-rule="evenodd" d="M45 176L45 178L41 175.5L45 173L45 175L45 176Z" fill="#2D8699"/>
<path d="M50 176L44.5 176L44.5 175L50 175L50 176Z" fill="#2D8699"/>
</g>
<g opacity="0.5">
<path fill-rule="evenodd" clip-rule="evenodd" d="M77 176L77 178L73 175.5L77 173L77 175L77 176Z" fill="#2D8699"/>
<path d="M82 176L76.5 176L76.5 175L82 175L82 176Z" fill="#2D8699"/>
</g>
<path fill-rule="evenodd" clip-rule="evenodd" d="M29 188L29 190L25 187.5L29 185L29 187L29 188Z" fill="#2D8699"/>
<path d="M45 188L28.5 188L28.5 187L45 187L45 188Z" fill="#2D8699"/>
<g opacity="0.5">
<path fill-rule="evenodd" clip-rule="evenodd" d="M24 175L24 173L28 175.5L24 178L24 176L24 175Z" fill="#2D8699"/>
<path d="M19 175L24.5 175L24.5 176L19 176L19 175Z" fill="#2D8699"/>
</g>
<g opacity="0.5">
<path fill-rule="evenodd" clip-rule="evenodd" d="M56 175L56 173L60 175.5L56 178L56 176L56 175Z" fill="#2D8699"/>
<path d="M51 175L56.5 175L56.5 176L51 176L51 175Z" fill="#2D8699"/>
</g>
<path d="M1.5 200.5C1.5 199.395 2.39543 198.5 3.5 198.5H129.5C130.605 198.5 131.5 199.395 131.5 200.5V205.5C131.5 206.605 130.605 207.5 129.5 207.5H3.5C2.39543 207.5 1.5 206.605 1.5 205.5V200.5Z" fill="#242424"/>
<path d="M11.9319 200.4V205.5H11.3159C11.2249 205.5 11.1479 205.486 11.0849 205.458C11.0242 205.428 10.9635 205.376 10.9029 205.304L8.49837 202.262C8.5077 202.353 8.51353 202.442 8.51587 202.528C8.52053 202.612 8.52287 202.692 8.52287 202.766V205.5H7.47987V200.4H8.10287C8.1542 200.4 8.19737 200.403 8.23237 200.407C8.26737 200.412 8.29887 200.421 8.32687 200.435C8.35487 200.447 8.3817 200.465 8.40737 200.488C8.43303 200.511 8.4622 200.543 8.49487 200.582L10.9204 203.645C10.9087 203.547 10.9005 203.452 10.8959 203.361C10.8912 203.268 10.8889 203.181 10.8889 203.099V200.4H11.9319ZM17.8213 202.948C17.8213 203.317 17.7571 203.66 17.6288 203.977C17.5028 204.295 17.3243 204.571 17.0933 204.807C16.8623 205.04 16.5834 205.223 16.2568 205.356C15.9324 205.49 15.5719 205.556 15.1753 205.556C14.7786 205.556 14.4169 205.49 14.0903 205.356C13.7636 205.223 13.4836 205.04 13.2503 204.807C13.0193 204.571 12.8396 204.295 12.7113 203.977C12.5853 203.66 12.5223 203.317 12.5223 202.948C12.5223 202.58 12.5853 202.237 12.7113 201.919C12.8396 201.602 13.0193 201.327 13.2503 201.093C13.4836 200.86 13.7636 200.677 14.0903 200.544C14.4169 200.411 14.7786 200.344 15.1753 200.344C15.5719 200.344 15.9324 200.412 16.2568 200.547C16.5834 200.68 16.8623 200.864 17.0933 201.097C17.3243 201.33 17.5028 201.606 17.6288 201.923C17.7571 202.24 17.8213 202.582 17.8213 202.948ZM16.6103 202.948C16.6103 202.696 16.5776 202.47 16.5123 202.269C16.4469 202.066 16.3524 201.895 16.2288 201.755C16.1074 201.615 15.9581 201.508 15.7808 201.433C15.6034 201.358 15.4016 201.321 15.1753 201.321C14.9466 201.321 14.7424 201.358 14.5628 201.433C14.3854 201.508 14.2349 201.615 14.1113 201.755C13.9899 201.895 13.8966 202.066 13.8313 202.269C13.7659 202.47 13.7333 202.696 13.7333 202.948C13.7333 203.203 13.7659 203.431 13.8313 203.634C13.8966 203.835 13.9899 204.005 14.1113 204.145C14.2349 204.285 14.3854 204.393 14.5628 204.467C14.7424 204.54 14.9466 204.576 15.1753 204.576C15.4016 204.576 15.6034 204.54 15.7808 204.467C15.9581 204.393 16.1074 204.285 16.2288 204.145C16.3524 204.005 16.4469 203.835 16.5123 203.634C16.5776 203.431 16.6103 203.203 16.6103 202.948ZM21.1176 201.31V202.602H22.8606V203.515H21.1176V205.5H19.9276V200.4H23.2106V201.31H21.1176ZM29.5204 200.4V205.5H28.4774V202.567C28.4774 202.499 28.4786 202.426 28.4809 202.346C28.4856 202.267 28.4926 202.187 28.5019 202.105L27.1474 204.726C27.1054 204.808 27.0482 204.87 26.9759 204.912C26.9059 204.954 26.8254 204.975 26.7344 204.975H26.5734C26.4824 204.975 26.4007 204.954 26.3284 204.912C26.2584 204.87 26.2024 204.808 26.1604 204.726L24.8059 202.098C24.8129 202.182 24.8187 202.265 24.8234 202.346C24.8281 202.426 24.8304 202.499 24.8304 202.567V205.5H23.7874V200.4H24.6904C24.7417 200.4 24.7861 200.402 24.8234 200.404C24.8631 200.406 24.8981 200.413 24.9284 200.425C24.9587 200.437 24.9856 200.455 25.0089 200.481C25.0346 200.504 25.0591 200.538 25.0824 200.582L26.3949 203.169C26.4416 203.258 26.4859 203.35 26.5279 203.445C26.5722 203.541 26.6142 203.639 26.6539 203.739C26.6936 203.637 26.7344 203.536 26.7764 203.438C26.8207 203.34 26.8674 203.247 26.9164 203.158L28.2254 200.582C28.2487 200.538 28.2721 200.504 28.2954 200.481C28.3211 200.455 28.3491 200.437 28.3794 200.425C28.4097 200.413 28.4436 200.406 28.4809 200.404C28.5206 200.402 28.5661 200.4 28.6174 200.4H29.5204Z" fill="#B4B4B4"/>
<path d="M47.647 204.52C47.7637 204.52 47.8558 204.553 47.9235 204.618C47.9912 204.681 48.025 204.765 48.025 204.87V205.5H44.441V205.15C44.441 205.082 44.455 205.01 44.483 204.933C44.511 204.856 44.56 204.786 44.63 204.723L46.1 203.242C46.226 203.116 46.3357 202.996 46.429 202.882C46.5223 202.768 46.5993 202.656 46.66 202.546C46.7207 202.434 46.7662 202.323 46.7965 202.213C46.8268 202.101 46.842 201.984 46.842 201.86C46.842 201.657 46.793 201.502 46.695 201.394C46.5993 201.285 46.4523 201.23 46.254 201.23C46.093 201.23 45.9565 201.273 45.8445 201.359C45.7348 201.443 45.659 201.548 45.617 201.674C45.568 201.803 45.5038 201.888 45.4245 201.93C45.3452 201.972 45.232 201.981 45.085 201.958L44.511 201.856C44.5483 201.602 44.6195 201.38 44.7245 201.191C44.8318 201.002 44.9637 200.845 45.12 200.719C45.2787 200.593 45.4595 200.5 45.6625 200.439C45.8655 200.376 46.0837 200.344 46.317 200.344C46.569 200.344 46.7953 200.382 46.996 200.456C47.199 200.529 47.3717 200.63 47.514 200.761C47.6563 200.892 47.7648 201.048 47.8395 201.23C47.9165 201.41 47.955 201.608 47.955 201.825C47.955 202.012 47.9282 202.184 47.8745 202.343C47.8232 202.502 47.752 202.653 47.661 202.798C47.57 202.94 47.4638 203.079 47.3425 203.214C47.2235 203.347 47.0963 203.483 46.961 203.62L45.9635 204.642C46.0918 204.603 46.219 204.572 46.345 204.551C46.471 204.53 46.5877 204.52 46.695 204.52H47.647ZM56.4104 204.716V205.5H53.5054V204.716H54.4854V202.143C54.4854 202.078 54.4866 202.013 54.4889 201.947C54.4912 201.88 54.4947 201.812 54.4994 201.744L53.9184 202.227C53.8671 202.267 53.8157 202.292 53.7644 202.301C53.7154 202.308 53.6687 202.308 53.6244 202.301C53.5801 202.292 53.5404 202.276 53.5054 202.255C53.4704 202.232 53.4447 202.209 53.4284 202.185L53.0854 201.73L54.6744 200.397H55.5704V204.716H56.4104Z" fill="#B4B4B4"/>
<path d="M52.3867 203L49.5742 205.143L49.5742 200.857L52.3867 203Z" fill="#B4B4B4"/>
<path d="M70.7734 201.856C70.8108 201.602 70.8819 201.38 70.9869 201.191C71.0943 201.002 71.2261 200.845 71.3824 200.719C71.5411 200.593 71.7219 200.5 71.9249 200.439C72.1279 200.376 72.3461 200.344 72.5794 200.344C72.8314 200.344 73.0554 200.381 73.2514 200.453C73.4474 200.523 73.6131 200.619 73.7484 200.74C73.8838 200.861 73.9864 201.002 74.0564 201.163C74.1264 201.322 74.1614 201.49 74.1614 201.667C74.1614 201.828 74.1451 201.971 74.1124 202.094C74.0798 202.216 74.0308 202.322 73.9654 202.413C73.9024 202.502 73.8231 202.577 73.7274 202.64C73.6341 202.701 73.5268 202.752 73.4054 202.794C73.9701 202.993 74.2524 203.378 74.2524 203.949C74.2524 204.22 74.2034 204.456 74.1054 204.656C74.0074 204.857 73.8756 205.024 73.7099 205.157C73.5466 205.29 73.3564 205.39 73.1394 205.458C72.9224 205.523 72.6961 205.556 72.4604 205.556C72.2178 205.556 72.0019 205.53 71.8129 205.479C71.6239 205.425 71.4559 205.344 71.3089 205.234C71.1619 205.122 71.0324 204.98 70.9204 204.807C70.8108 204.634 70.7151 204.429 70.6334 204.191L71.1164 203.995C71.2424 203.946 71.3591 203.933 71.4664 203.956C71.5738 203.98 71.6508 204.033 71.6974 204.117C71.8024 204.311 71.9133 204.452 72.0299 204.541C72.1489 204.627 72.2878 204.67 72.4464 204.67C72.5678 204.67 72.6728 204.651 72.7614 204.611C72.8524 204.569 72.9271 204.516 72.9854 204.453C73.0461 204.388 73.0916 204.315 73.1219 204.233C73.1523 204.151 73.1674 204.068 73.1674 203.984C73.1674 203.875 73.1593 203.777 73.1429 203.69C73.1289 203.602 73.0869 203.526 73.0169 203.463C72.9469 203.4 72.8408 203.352 72.6984 203.319C72.5584 203.284 72.3624 203.267 72.1104 203.267V202.518C72.3228 202.518 72.4943 202.502 72.6249 202.469C72.7556 202.436 72.8559 202.392 72.9259 202.336C72.9983 202.278 73.0461 202.208 73.0694 202.126C73.0928 202.044 73.1044 201.954 73.1044 201.856C73.1044 201.656 73.0554 201.502 72.9574 201.394C72.8618 201.285 72.7148 201.23 72.5164 201.23C72.3554 201.23 72.2189 201.273 72.1069 201.359C71.9973 201.443 71.9214 201.548 71.8794 201.674C71.8304 201.803 71.7663 201.888 71.6869 201.93C71.6076 201.972 71.4944 201.981 71.3474 201.958L70.7734 201.856ZM83.8974 204.52C84.0141 204.52 84.1063 204.553 84.1739 204.618C84.2416 204.681 84.2754 204.765 84.2754 204.87V205.5H80.6914V205.15C80.6914 205.082 80.7054 205.01 80.7334 204.933C80.7614 204.856 80.8104 204.786 80.8804 204.723L82.3504 203.242C82.4764 203.116 82.5861 202.996 82.6794 202.882C82.7728 202.768 82.8498 202.656 82.9104 202.546C82.9711 202.434 83.0166 202.323 83.0469 202.213C83.0773 202.101 83.0924 201.984 83.0924 201.86C83.0924 201.657 83.0434 201.502 82.9454 201.394C82.8498 201.285 82.7028 201.23 82.5044 201.23C82.3434 201.23 82.2069 201.273 82.0949 201.359C81.9853 201.443 81.9094 201.548 81.8674 201.674C81.8184 201.803 81.7543 201.888 81.6749 201.93C81.5956 201.972 81.4824 201.981 81.3354 201.958L80.7614 201.856C80.7988 201.602 80.8699 201.38 80.9749 201.191C81.0823 201.002 81.2141 200.845 81.3704 200.719C81.5291 200.593 81.7099 200.5 81.9129 200.439C82.1159 200.376 82.3341 200.344 82.5674 200.344C82.8194 200.344 83.0458 200.382 83.2464 200.456C83.4494 200.529 83.6221 200.63 83.7644 200.761C83.9068 200.892 84.0153 201.048 84.0899 201.23C84.1669 201.41 84.2054 201.608 84.2054 201.825C84.2054 202.012 84.1786 202.184 84.1249 202.343C84.0736 202.502 84.0024 202.653 83.9114 202.798C83.8204 202.94 83.7143 203.079 83.5929 203.214C83.4739 203.347 83.3468 203.483 83.2114 203.62L82.2139 204.642C82.3423 204.603 82.4694 204.572 82.5954 204.551C82.7214 204.53 82.8381 204.52 82.9454 204.52H83.8974ZM94.176 204.716V205.5H91.271V204.716H92.251V202.143C92.251 202.078 92.2521 202.013 92.2545 201.947C92.2568 201.88 92.2603 201.812 92.265 201.744L91.684 202.227C91.6326 202.267 91.5813 202.292 91.53 202.301C91.481 202.308 91.4343 202.308 91.39 202.301C91.3456 202.292 91.306 202.276 91.271 202.255C91.236 202.232 91.2103 202.209 91.194 202.185L90.851 201.73L92.44 200.397H93.336V204.716H94.176Z" fill="#B4B4B4"/>
<path d="M78.7617 203L75.9492 205.143L75.9492 200.857L78.7617 203Z" fill="#B4B4B4"/>
<path d="M89.0742 203L86.2617 205.143L86.2617 200.857L89.0742 203Z" fill="#B4B4B4"/>
<rect x="99.5117" y="200" width="30" height="6" rx="1" fill="#2D8699"/>
<rect x="99.5117" y="200" width="30" height="6" rx="1" stroke="#2D8699"/>
<path d="M105.881 204.52C105.998 204.52 106.09 204.553 106.158 204.618C106.226 204.681 106.259 204.765 106.259 204.87V205.5H102.675V205.15C102.675 205.082 102.689 205.01 102.717 204.933C102.745 204.856 102.794 204.786 102.864 204.723L104.334 203.242C104.46 203.116 104.57 202.996 104.663 202.882C104.757 202.768 104.834 202.656 104.894 202.546C104.955 202.434 105.001 202.323 105.031 202.213C105.061 202.101 105.076 201.984 105.076 201.86C105.076 201.657 105.027 201.502 104.929 201.394C104.834 201.285 104.687 201.23 104.488 201.23C104.327 201.23 104.191 201.273 104.079 201.359C103.969 201.443 103.893 201.548 103.851 201.674C103.802 201.803 103.738 201.888 103.659 201.93C103.58 201.972 103.466 201.981 103.319 201.958L102.745 201.856C102.783 201.602 102.854 201.38 102.959 201.191C103.066 201.002 103.198 200.845 103.354 200.719C103.513 200.593 103.694 200.5 103.897 200.439C104.1 200.376 104.318 200.344 104.551 200.344C104.803 200.344 105.03 200.382 105.23 200.456C105.433 200.529 105.606 200.63 105.748 200.761C105.891 200.892 105.999 201.048 106.074 201.23C106.151 201.41 106.189 201.608 106.189 201.825C106.189 202.012 106.163 202.184 106.109 202.343C106.058 202.502 105.986 202.653 105.895 202.798C105.804 202.94 105.698 203.079 105.577 203.214C105.458 203.347 105.331 203.483 105.195 203.62L104.198 204.642C104.326 204.603 104.453 204.572 104.579 204.551C104.705 204.53 104.822 204.52 104.929 204.52H105.881ZM116.16 204.716V205.5H113.255V204.716H114.235V202.143C114.235 202.078 114.236 202.013 114.238 201.947C114.241 201.88 114.244 201.812 114.249 201.744L113.668 202.227C113.617 202.267 113.565 202.292 113.514 202.301C113.465 202.308 113.418 202.308 113.374 202.301C113.33 202.292 113.29 202.276 113.255 202.255C113.22 202.232 113.194 202.209 113.178 202.185L112.835 201.73L114.424 200.397H115.32V204.716H116.16ZM122.805 201.856C122.843 201.602 122.914 201.38 123.019 201.191C123.126 201.002 123.258 200.845 123.414 200.719C123.573 200.593 123.754 200.5 123.957 200.439C124.16 200.376 124.378 200.344 124.611 200.344C124.863 200.344 125.087 200.381 125.283 200.453C125.479 200.523 125.645 200.619 125.78 200.74C125.916 200.861 126.018 201.002 126.088 201.163C126.158 201.322 126.193 201.49 126.193 201.667C126.193 201.828 126.177 201.971 126.144 202.094C126.112 202.216 126.063 202.322 125.997 202.413C125.934 202.502 125.855 202.577 125.759 202.64C125.666 202.701 125.559 202.752 125.437 202.794C126.002 202.993 126.284 203.378 126.284 203.949C126.284 204.22 126.235 204.456 126.137 204.656C126.039 204.857 125.908 205.024 125.742 205.157C125.579 205.29 125.388 205.39 125.171 205.458C124.954 205.523 124.728 205.556 124.492 205.556C124.25 205.556 124.034 205.53 123.845 205.479C123.656 205.425 123.488 205.344 123.341 205.234C123.194 205.122 123.064 204.98 122.952 204.807C122.843 204.634 122.747 204.429 122.665 204.191L123.148 203.995C123.274 203.946 123.391 203.933 123.498 203.956C123.606 203.98 123.683 204.033 123.729 204.117C123.834 204.311 123.945 204.452 124.062 204.541C124.181 204.627 124.32 204.67 124.478 204.67C124.6 204.67 124.705 204.651 124.793 204.611C124.884 204.569 124.959 204.516 125.017 204.453C125.078 204.388 125.124 204.315 125.154 204.233C125.184 204.151 125.199 204.068 125.199 203.984C125.199 203.875 125.191 203.777 125.175 203.69C125.161 203.602 125.119 203.526 125.049 203.463C124.979 203.4 124.873 203.352 124.73 203.319C124.59 203.284 124.394 203.267 124.142 203.267V202.518C124.355 202.518 124.526 202.502 124.657 202.469C124.788 202.436 124.888 202.392 124.958 202.336C125.03 202.278 125.078 202.208 125.101 202.126C125.125 202.044 125.136 201.954 125.136 201.856C125.136 201.656 125.087 201.502 124.989 201.394C124.894 201.285 124.747 201.23 124.548 201.23C124.387 201.23 124.251 201.273 124.139 201.359C124.029 201.443 123.953 201.548 123.911 201.674C123.862 201.803 123.798 201.888 123.719 201.93C123.64 201.972 123.526 201.981 123.379 201.958L122.805 201.856Z" fill="black"/>
<path d="M110.762 203L107.949 205.143L107.949 200.857L110.762 203Z" fill="black"/>
<path d="M118.262 203L121.074 200.857L121.074 205.143L118.262 203Z" fill="black"/>
<path d="M3.5 199H129.5V198H3.5V199ZM131 200.5V205.5H132V200.5H131ZM129.5 207H3.5V208H129.5V207ZM2 205.5V200.5H1V205.5H2ZM3.5 207C2.67157 207 2 206.328 2 205.5H1C1 206.881 2.11929 208 3.5 208V207ZM131 205.5C131 206.328 130.328 207 129.5 207V208C130.881 208 132 206.881 132 205.5H131ZM129.5 199C130.328 199 131 199.672 131 200.5H132C132 199.119 130.881 198 129.5 198V199ZM3.5 198C2.11929 198 1 199.119 1 200.5H2C2 199.672 2.67157 199 3.5 199V198Z" fill="black"/>
<path fill-rule="evenodd" clip-rule="evenodd" d="M1 108V111H121V119H128V121L132 118.5L128 116V118H123V108H1Z" fill="#2D8699"/>
<rect x="13.5" y="130.5" width="10" height="10" rx="2" stroke="#2D8699"/>
<rect x="45.5" y="130.5" width="10" height="10" rx="2" stroke="#2D8699"/>
<rect x="77.5" y="130.5" width="10" height="10" rx="2" stroke="#2D8699"/>
<path opacity="0.5" d="M117 130.5H111C109.895 130.5 109 131.395 109 132.5V138.5C109 139.605 109.895 140.5 111 140.5H117C118.105 140.5 119 139.605 119 138.5V132.5C119 131.395 118.105 130.5 117 130.5Z" stroke="#2D8699"/>
<path d="M17.4112 137.352H18.4367V134.402C18.4367 134.288 18.4402 134.167 18.4472 134.041L17.7192 134.65C17.6889 134.676 17.6574 134.694 17.6247 134.703C17.5944 134.712 17.5641 134.717 17.5337 134.717C17.4871 134.717 17.4439 134.708 17.4042 134.689C17.3669 134.668 17.3389 134.645 17.3202 134.619L17.0472 134.244L18.5907 132.932H19.3012V137.352H20.2112V138H17.4112V137.352Z" fill="white"/>
<path d="M50.5767 132.883C50.8101 132.883 51.0236 132.918 51.2172 132.988C51.4109 133.056 51.5766 133.152 51.7142 133.278C51.8519 133.404 51.9592 133.556 52.0362 133.733C52.1132 133.911 52.1517 134.108 52.1517 134.325C52.1517 134.512 52.1237 134.684 52.0677 134.843C52.0141 135.002 51.9406 135.153 51.8472 135.298C51.7562 135.443 51.6489 135.583 51.5252 135.718C51.4016 135.853 51.2721 135.991 51.1367 136.131L49.9957 137.296C50.1077 137.264 50.2174 137.239 50.3247 137.223C50.4321 137.204 50.5347 137.195 50.6327 137.195H51.9312C52.0246 137.195 52.0981 137.222 52.1517 137.275C52.2077 137.327 52.2357 137.396 52.2357 137.482V138H48.7637V137.713C48.7637 137.655 48.7754 137.594 48.7987 137.531C48.8244 137.468 48.8641 137.41 48.9177 137.356L50.4542 135.816C50.5826 135.685 50.6969 135.56 50.7972 135.441C50.8999 135.322 50.9851 135.205 51.0527 135.088C51.1227 134.971 51.1752 134.853 51.2102 134.734C51.2476 134.613 51.2662 134.486 51.2662 134.353C51.2662 134.232 51.2487 134.125 51.2137 134.034C51.1787 133.941 51.1286 133.863 51.0632 133.8C50.9979 133.737 50.9197 133.69 50.8287 133.66C50.7401 133.627 50.6397 133.611 50.5277 133.611C50.3201 133.611 50.1486 133.663 50.0132 133.768C49.8802 133.873 49.7869 134.015 49.7332 134.192C49.7076 134.281 49.6691 134.345 49.6177 134.385C49.5664 134.422 49.5011 134.44 49.4217 134.44C49.3867 134.44 49.3482 134.437 49.3062 134.43L48.8512 134.349C48.8862 134.107 48.9539 133.894 49.0542 133.712C49.1546 133.528 49.2794 133.375 49.4287 133.254C49.5804 133.13 49.7531 133.038 49.9467 132.977C50.1427 132.914 50.3527 132.883 50.5767 132.883Z" fill="white"/>
<path d="M82.6572 132.883C82.8906 132.883 83.1006 132.917 83.2872 132.984C83.4762 133.05 83.6372 133.142 83.7702 133.261C83.9032 133.378 84.0047 133.515 84.0747 133.674C84.1471 133.833 84.1832 134.004 84.1832 134.188C84.1832 134.349 84.1646 134.492 84.1272 134.615C84.0922 134.737 84.0397 134.843 83.9697 134.934C83.9021 135.025 83.8181 135.102 83.7177 135.165C83.6197 135.228 83.5077 135.28 83.3817 135.322C83.6851 135.418 83.9114 135.564 84.0607 135.76C84.2101 135.956 84.2847 136.202 84.2847 136.498C84.2847 136.75 84.2381 136.973 84.1447 137.167C84.0514 137.361 83.9254 137.524 83.7667 137.657C83.6081 137.788 83.4237 137.887 83.2137 137.954C83.0061 138.022 82.7856 138.056 82.5522 138.056C82.2979 138.056 82.0762 138.027 81.8872 137.968C81.6982 137.91 81.5337 137.824 81.3937 137.709C81.2537 137.595 81.1347 137.455 81.0367 137.289C80.9387 137.124 80.8547 136.932 80.7847 136.715L81.1662 136.558C81.2316 136.53 81.2981 136.516 81.3657 136.516C81.4264 136.516 81.4801 136.529 81.5267 136.554C81.5757 136.58 81.6131 136.617 81.6387 136.666C81.6807 136.748 81.7262 136.829 81.7752 136.908C81.8266 136.987 81.8872 137.058 81.9572 137.121C82.0272 137.182 82.1089 137.232 82.2022 137.272C82.2979 137.309 82.4111 137.328 82.5417 137.328C82.6887 137.328 82.8171 137.305 82.9267 137.258C83.0364 137.209 83.1274 137.146 83.1997 137.069C83.2744 136.992 83.3292 136.907 83.3642 136.813C83.4016 136.718 83.4202 136.622 83.4202 136.526C83.4202 136.405 83.4074 136.295 83.3817 136.197C83.3561 136.097 83.3024 136.012 83.2207 135.942C83.1391 135.872 83.0212 135.817 82.8672 135.777C82.7156 135.738 82.5114 135.718 82.2547 135.718V135.102C82.4671 135.1 82.6432 135.08 82.7832 135.042C82.9232 135.005 83.0341 134.954 83.1157 134.888C83.1997 134.821 83.2581 134.74 83.2907 134.647C83.3234 134.554 83.3397 134.451 83.3397 134.339C83.3397 134.099 83.2744 133.918 83.1437 133.796C83.0131 133.673 82.8346 133.611 82.6082 133.611C82.4029 133.611 82.2326 133.666 82.0972 133.775C81.9619 133.883 81.8674 134.022 81.8137 134.192C81.7857 134.281 81.7472 134.345 81.6982 134.385C81.6492 134.422 81.5851 134.44 81.5057 134.44C81.4684 134.44 81.4287 134.437 81.3867 134.43L80.9317 134.349C80.9667 134.107 81.0344 133.894 81.1347 133.712C81.2351 133.528 81.3599 133.375 81.5092 133.254C81.6609 133.13 81.8336 133.038 82.0272 132.977C82.2232 132.914 82.4332 132.883 82.6572 132.883Z" fill="white"/>
<path d="M112.359 132.939C112.401 132.939 112.436 132.941 112.464 132.946C112.492 132.948 112.516 132.955 112.537 132.967C112.561 132.976 112.583 132.991 112.604 133.012C112.625 133.031 112.648 133.057 112.674 133.089L115.33 136.474C115.321 136.392 115.314 136.313 115.309 136.236C115.307 136.157 115.306 136.083 115.306 136.015V132.939H116.135V138H115.649C115.574 138 115.512 137.988 115.463 137.965C115.414 137.942 115.367 137.9 115.32 137.839L112.674 134.468C112.681 134.543 112.686 134.618 112.688 134.692C112.693 134.765 112.695 134.831 112.695 134.892V138H111.865V132.939H112.359Z" fill="white"/>
<g opacity="0.5">
<path d="M34.5 128.5C37.2614 128.5 39.5 126.261 39.5 123.5C39.5 120.739 37.2614 118.5 34.5 118.5C31.7386 118.5 29.5 120.739 29.5 123.5C29.5 126.261 31.7386 128.5 34.5 128.5Z" stroke="#2D8699"/>
<path d="M36.4449 120.495L37.5055 121.555L35.5595 123.501L37.5047 125.444L36.4449 126.505L34.4989 124.562L32.5558 126.505L31.4951 125.444L33.4375 123.502L31.4922 121.56L32.5521 120.498L34.4981 122.441L36.4449 120.495Z" fill="#EEEEEE"/>
</g>
<g opacity="0.5">
<path d="M66.5 128.5C69.2614 128.5 71.5 126.261 71.5 123.5C71.5 120.739 69.2614 118.5 66.5 118.5C63.7386 118.5 61.5 120.739 61.5 123.5C61.5 126.261 63.7386 128.5 66.5 128.5Z" stroke="#2D8699"/>
<path d="M68.4449 120.495L69.5055 121.555L67.5595 123.501L69.5047 125.444L68.4449 126.505L66.4989 124.562L64.5558 126.505L63.4951 125.444L65.4375 123.502L63.4922 121.56L64.5521 120.498L66.4981 122.441L68.4449 120.495Z" fill="#EEEEEE"/>
</g>
<path fill-rule="evenodd" clip-rule="evenodd" d="M82 116L80 116L82.5 112L85 116L83 116L82 116Z" fill="#2D8699"/>
<path d="M82 130L82 115.5L83 115.5L83 130L82 130Z" fill="#2D8699"/>
<g opacity="0.5">
<path fill-rule="evenodd" clip-rule="evenodd" d="M113.5 116L111.5 116L114 112L116.5 116L114.5 116L113.5 116Z" fill="#2D8699"/>
<path d="M113.5 130L113.5 115.5L114.5 115.5L114.5 130L113.5 130Z" fill="#2D8699"/>
</g>
<path fill-rule="evenodd" clip-rule="evenodd" d="M50 116L48 116L50.5 112L53 116L51 116L50 116Z" fill="#2D8699"/>
<path d="M50 130L50 115.5L51 115.5L51 130L50 130Z" fill="#2D8699"/>
<path fill-rule="evenodd" clip-rule="evenodd" d="M18 116L16 116L18.5 112L21 116L19 116L18 116Z" fill="#2D8699"/>
<path d="M18 130L18 115.5L19 115.5L19 130L18 130Z" fill="#2D8699"/>
<g opacity="0.5">
<path fill-rule="evenodd" clip-rule="evenodd" d="M34 116L32 116L34.5 112L37 116L35 116L34 116Z" fill="#2D8699"/>
<path d="M34 118L34 115.5L35 115.5L35 118L34 118Z" fill="#2D8699"/>
</g>
<g opacity="0.5">
<path fill-rule="evenodd" clip-rule="evenodd" d="M66 116L64 116L66.5 112L69 116L67 116L66 116Z" fill="#2D8699"/>
<path d="M66 118L66 115.5L67 115.5L67 118L66 118Z" fill="#2D8699"/>
</g>
<g opacity="0.5">
<path fill-rule="evenodd" clip-rule="evenodd" d="M45 124L45 126L41 123.5L45 121L45 123L45 124Z" fill="#2D8699"/>
<path d="M50 124L44.5 124L44.5 123L50 123L50 124Z" fill="#2D8699"/>
</g>
<g opacity="0.5">
<path fill-rule="evenodd" clip-rule="evenodd" d="M77 124L77 126L73 123.5L77 121L77 123L77 124Z" fill="#2D8699"/>
<path d="M82 124L76.5 124L76.5 123L82 123L82 124Z" fill="#2D8699"/>
</g>
<path fill-rule="evenodd" clip-rule="evenodd" d="M61 136L61 138L57 135.5L61 133L61 135L61 136Z" fill="#2D8699"/>
<path d="M77 136L60.5 136L60.5 135L77 135L77 136Z" fill="#2D8699"/>
<path fill-rule="evenodd" clip-rule="evenodd" d="M29 136L29 138L25 135.5L29 133L29 135L29 136Z" fill="#2D8699"/>
<path d="M45 136L28.5 136L28.5 135L45 135L45 136Z" fill="#2D8699"/>
<g opacity="0.5">
<path fill-rule="evenodd" clip-rule="evenodd" d="M24 123L24 121L28 123.5L24 126L24 124L24 123Z" fill="#2D8699"/>
<path d="M19 123L24.5 123L24.5 124L19 124L19 123Z" fill="#2D8699"/>
</g>
<g opacity="0.5">
<path fill-rule="evenodd" clip-rule="evenodd" d="M56 123L56 121L60 123.5L56 126L56 124L56 123Z" fill="#2D8699"/>
<path d="M51 123L56.5 123L56.5 124L51 124L51 123Z" fill="#2D8699"/>
</g>
<path d="M1.5 148.5C1.5 147.395 2.39543 146.5 3.5 146.5H129.5C130.605 146.5 131.5 147.395 131.5 148.5V153.5C131.5 154.605 130.605 155.5 129.5 155.5H3.5C2.39543 155.5 1.5 154.605 1.5 153.5V148.5Z" fill="#242424"/>
<path d="M11.9319 148.4V153.5H11.3159C11.2249 153.5 11.1479 153.486 11.0849 153.458C11.0242 153.428 10.9635 153.376 10.9029 153.304L8.49837 150.262C8.5077 150.353 8.51353 150.442 8.51587 150.528C8.52053 150.612 8.52287 150.692 8.52287 150.766V153.5H7.47987V148.4H8.10287C8.1542 148.4 8.19737 148.403 8.23237 148.407C8.26737 148.412 8.29887 148.421 8.32687 148.435C8.35487 148.447 8.3817 148.465 8.40737 148.488C8.43303 148.511 8.4622 148.543 8.49487 148.582L10.9204 151.645C10.9087 151.547 10.9005 151.452 10.8959 151.361C10.8912 151.268 10.8889 151.181 10.8889 151.099V148.4H11.9319ZM17.8213 150.948C17.8213 151.317 17.7571 151.66 17.6288 151.977C17.5028 152.295 17.3243 152.571 17.0933 152.807C16.8623 153.04 16.5834 153.223 16.2568 153.356C15.9324 153.49 15.5719 153.556 15.1753 153.556C14.7786 153.556 14.4169 153.49 14.0903 153.356C13.7636 153.223 13.4836 153.04 13.2503 152.807C13.0193 152.571 12.8396 152.295 12.7113 151.977C12.5853 151.66 12.5223 151.317 12.5223 150.948C12.5223 150.58 12.5853 150.237 12.7113 149.919C12.8396 149.602 13.0193 149.327 13.2503 149.093C13.4836 148.86 13.7636 148.677 14.0903 148.544C14.4169 148.411 14.7786 148.344 15.1753 148.344C15.5719 148.344 15.9324 148.412 16.2568 148.547C16.5834 148.68 16.8623 148.864 17.0933 149.097C17.3243 149.33 17.5028 149.606 17.6288 149.923C17.7571 150.24 17.8213 150.582 17.8213 150.948ZM16.6103 150.948C16.6103 150.696 16.5776 150.47 16.5123 150.269C16.4469 150.066 16.3524 149.895 16.2288 149.755C16.1074 149.615 15.9581 149.508 15.7808 149.433C15.6034 149.358 15.4016 149.321 15.1753 149.321C14.9466 149.321 14.7424 149.358 14.5628 149.433C14.3854 149.508 14.2349 149.615 14.1113 149.755C13.9899 149.895 13.8966 150.066 13.8313 150.269C13.7659 150.47 13.7333 150.696 13.7333 150.948C13.7333 151.203 13.7659 151.431 13.8313 151.634C13.8966 151.835 13.9899 152.005 14.1113 152.145C14.2349 152.285 14.3854 152.393 14.5628 152.467C14.7424 152.54 14.9466 152.576 15.1753 152.576C15.4016 152.576 15.6034 152.54 15.7808 152.467C15.9581 152.393 16.1074 152.285 16.2288 152.145C16.3524 152.005 16.4469 151.835 16.5123 151.634C16.5776 151.431 16.6103 151.203 16.6103 150.948ZM21.1176 149.31V150.602H22.8606V151.515H21.1176V153.5H19.9276V148.4H23.2106V149.31H21.1176ZM29.5204 148.4V153.5H28.4774V150.567C28.4774 150.499 28.4786 150.426 28.4809 150.346C28.4856 150.267 28.4926 150.187 28.5019 150.105L27.1474 152.726C27.1054 152.808 27.0482 152.87 26.9759 152.912C26.9059 152.954 26.8254 152.975 26.7344 152.975H26.5734C26.4824 152.975 26.4007 152.954 26.3284 152.912C26.2584 152.87 26.2024 152.808 26.1604 152.726L24.8059 150.098C24.8129 150.182 24.8187 150.265 24.8234 150.346C24.8281 150.426 24.8304 150.499 24.8304 150.567V153.5H23.7874V148.4H24.6904C24.7417 148.4 24.7861 148.402 24.8234 148.404C24.8631 148.406 24.8981 148.413 24.9284 148.425C24.9587 148.437 24.9856 148.455 25.0089 148.481C25.0346 148.504 25.0591 148.538 25.0824 148.582L26.3949 151.169C26.4416 151.258 26.4859 151.35 26.5279 151.445C26.5722 151.541 26.6142 151.639 26.6539 151.739C26.6936 151.637 26.7344 151.536 26.7764 151.438C26.8207 151.34 26.8674 151.247 26.9164 151.158L28.2254 148.582C28.2487 148.538 28.2721 148.504 28.2954 148.481C28.3211 148.455 28.3491 148.437 28.3794 148.425C28.4097 148.413 28.4436 148.406 28.4809 148.404C28.5206 148.402 28.5661 148.4 28.6174 148.4H29.5204Z" fill="#B4B4B4"/>
<path d="M47.647 152.52C47.7637 152.52 47.8558 152.553 47.9235 152.618C47.9912 152.681 48.025 152.765 48.025 152.87V153.5H44.441V153.15C44.441 153.082 44.455 153.01 44.483 152.933C44.511 152.856 44.56 152.786 44.63 152.723L46.1 151.242C46.226 151.116 46.3357 150.996 46.429 150.882C46.5223 150.768 46.5993 150.656 46.66 150.546C46.7207 150.434 46.7662 150.323 46.7965 150.213C46.8268 150.101 46.842 149.984 46.842 149.86C46.842 149.657 46.793 149.502 46.695 149.394C46.5993 149.285 46.4523 149.23 46.254 149.23C46.093 149.23 45.9565 149.273 45.8445 149.359C45.7348 149.443 45.659 149.548 45.617 149.674C45.568 149.803 45.5038 149.888 45.4245 149.93C45.3452 149.972 45.232 149.981 45.085 149.958L44.511 149.856C44.5483 149.602 44.6195 149.38 44.7245 149.191C44.8318 149.002 44.9637 148.845 45.12 148.719C45.2787 148.593 45.4595 148.5 45.6625 148.439C45.8655 148.376 46.0837 148.344 46.317 148.344C46.569 148.344 46.7953 148.382 46.996 148.456C47.199 148.529 47.3717 148.63 47.514 148.761C47.6563 148.892 47.7648 149.048 47.8395 149.23C47.9165 149.41 47.955 149.608 47.955 149.825C47.955 150.012 47.9282 150.184 47.8745 150.343C47.8232 150.502 47.752 150.653 47.661 150.798C47.57 150.94 47.4638 151.079 47.3425 151.214C47.2235 151.347 47.0963 151.483 46.961 151.62L45.9635 152.642C46.0918 152.603 46.219 152.572 46.345 152.551C46.471 152.53 46.5877 152.52 46.695 152.52H47.647ZM56.4104 152.716V153.5H53.5054V152.716H54.4854V150.143C54.4854 150.078 54.4866 150.013 54.4889 149.947C54.4912 149.88 54.4947 149.812 54.4994 149.744L53.9184 150.227C53.8671 150.267 53.8157 150.292 53.7644 150.301C53.7154 150.308 53.6687 150.308 53.6244 150.301C53.5801 150.292 53.5404 150.276 53.5054 150.255C53.4704 150.232 53.4447 150.209 53.4284 150.185L53.0854 149.73L54.6744 148.397H55.5704V152.716H56.4104Z" fill="#B4B4B4"/>
<path d="M52.3867 151L49.5742 153.143L49.5742 148.857L52.3867 151Z" fill="#B4B4B4"/>
<rect x="67.5117" y="148" width="30" height="6" rx="1" fill="#2D8699"/>
<rect x="67.5117" y="148" width="30" height="6" rx="1" stroke="#2D8699"/>
<path d="M70.7734 149.856C70.8108 149.602 70.8819 149.38 70.9869 149.191C71.0943 149.002 71.2261 148.845 71.3824 148.719C71.5411 148.593 71.7219 148.5 71.9249 148.439C72.1279 148.376 72.3461 148.344 72.5794 148.344C72.8314 148.344 73.0554 148.381 73.2514 148.453C73.4474 148.523 73.6131 148.619 73.7484 148.74C73.8838 148.861 73.9864 149.002 74.0564 149.163C74.1264 149.322 74.1614 149.49 74.1614 149.667C74.1614 149.828 74.1451 149.971 74.1124 150.094C74.0798 150.216 74.0308 150.322 73.9654 150.413C73.9024 150.502 73.8231 150.577 73.7274 150.64C73.6341 150.701 73.5268 150.752 73.4054 150.794C73.9701 150.993 74.2524 151.378 74.2524 151.949C74.2524 152.22 74.2034 152.456 74.1054 152.656C74.0074 152.857 73.8756 153.024 73.7099 153.157C73.5466 153.29 73.3564 153.39 73.1394 153.458C72.9224 153.523 72.6961 153.556 72.4604 153.556C72.2178 153.556 72.0019 153.53 71.8129 153.479C71.6239 153.425 71.4559 153.344 71.3089 153.234C71.1619 153.122 71.0324 152.98 70.9204 152.807C70.8108 152.634 70.7151 152.429 70.6334 152.191L71.1164 151.995C71.2424 151.946 71.3591 151.933 71.4664 151.956C71.5738 151.98 71.6508 152.033 71.6974 152.117C71.8024 152.311 71.9133 152.452 72.0299 152.541C72.1489 152.627 72.2878 152.67 72.4464 152.67C72.5678 152.67 72.6728 152.651 72.7614 152.611C72.8524 152.569 72.9271 152.516 72.9854 152.453C73.0461 152.388 73.0916 152.315 73.1219 152.233C73.1523 152.151 73.1674 152.068 73.1674 151.984C73.1674 151.875 73.1593 151.777 73.1429 151.69C73.1289 151.602 73.0869 151.526 73.0169 151.463C72.9469 151.4 72.8408 151.352 72.6984 151.319C72.5584 151.284 72.3624 151.267 72.1104 151.267V150.518C72.3228 150.518 72.4943 150.502 72.6249 150.469C72.7556 150.436 72.8559 150.392 72.9259 150.336C72.9983 150.278 73.0461 150.208 73.0694 150.126C73.0928 150.044 73.1044 149.954 73.1044 149.856C73.1044 149.656 73.0554 149.502 72.9574 149.394C72.8618 149.285 72.7148 149.23 72.5164 149.23C72.3554 149.23 72.2189 149.273 72.1069 149.359C71.9973 149.443 71.9214 149.548 71.8794 149.674C71.8304 149.803 71.7663 149.888 71.6869 149.93C71.6076 149.972 71.4944 149.981 71.3474 149.958L70.7734 149.856ZM83.8974 152.52C84.0141 152.52 84.1063 152.553 84.1739 152.618C84.2416 152.681 84.2754 152.765 84.2754 152.87V153.5H80.6914V153.15C80.6914 153.082 80.7054 153.01 80.7334 152.933C80.7614 152.856 80.8104 152.786 80.8804 152.723L82.3504 151.242C82.4764 151.116 82.5861 150.996 82.6794 150.882C82.7728 150.768 82.8498 150.656 82.9104 150.546C82.9711 150.434 83.0166 150.323 83.0469 150.213C83.0773 150.101 83.0924 149.984 83.0924 149.86C83.0924 149.657 83.0434 149.502 82.9454 149.394C82.8498 149.285 82.7028 149.23 82.5044 149.23C82.3434 149.23 82.2069 149.273 82.0949 149.359C81.9853 149.443 81.9094 149.548 81.8674 149.674C81.8184 149.803 81.7543 149.888 81.6749 149.93C81.5956 149.972 81.4824 149.981 81.3354 149.958L80.7614 149.856C80.7988 149.602 80.8699 149.38 80.9749 149.191C81.0823 149.002 81.2141 148.845 81.3704 148.719C81.5291 148.593 81.7099 148.5 81.9129 148.439C82.1159 148.376 82.3341 148.344 82.5674 148.344C82.8194 148.344 83.0458 148.382 83.2464 148.456C83.4494 148.529 83.6221 148.63 83.7644 148.761C83.9068 148.892 84.0153 149.048 84.0899 149.23C84.1669 149.41 84.2054 149.608 84.2054 149.825C84.2054 150.012 84.1786 150.184 84.1249 150.343C84.0736 150.502 84.0024 150.653 83.9114 150.798C83.8204 150.94 83.7143 151.079 83.5929 151.214C83.4739 151.347 83.3468 151.483 83.2114 151.62L82.2139 152.642C82.3423 152.603 82.4694 152.572 82.5954 152.551C82.7214 152.53 82.8381 152.52 82.9454 152.52H83.8974ZM94.176 152.716V153.5H91.271V152.716H92.251V150.143C92.251 150.078 92.2521 150.013 92.2545 149.947C92.2568 149.88 92.2603 149.812 92.265 149.744L91.684 150.227C91.6326 150.267 91.5813 150.292 91.53 150.301C91.481 150.308 91.4343 150.308 91.39 150.301C91.3456 150.292 91.306 150.276 91.271 150.255C91.236 150.232 91.2103 150.209 91.194 150.185L90.851 149.73L92.44 148.397H93.336V152.716H94.176Z" fill="black"/>
<path d="M78.7617 151L75.9492 153.143L75.9492 148.857L78.7617 151Z" fill="black"/>
<path d="M89.0742 151L86.2617 153.143L86.2617 148.857L89.0742 151Z" fill="black"/>
<path d="M105.881 152.52C105.998 152.52 106.09 152.553 106.158 152.618C106.226 152.681 106.259 152.765 106.259 152.87V153.5H102.675V153.15C102.675 153.082 102.689 153.01 102.717 152.933C102.745 152.856 102.794 152.786 102.864 152.723L104.334 151.242C104.46 151.116 104.57 150.996 104.663 150.882C104.757 150.768 104.834 150.656 104.894 150.546C104.955 150.434 105.001 150.323 105.031 150.213C105.061 150.101 105.076 149.984 105.076 149.86C105.076 149.657 105.027 149.502 104.929 149.394C104.834 149.285 104.687 149.23 104.488 149.23C104.327 149.23 104.191 149.273 104.079 149.359C103.969 149.443 103.893 149.548 103.851 149.674C103.802 149.803 103.738 149.888 103.659 149.93C103.58 149.972 103.466 149.981 103.319 149.958L102.745 149.856C102.783 149.602 102.854 149.38 102.959 149.191C103.066 149.002 103.198 148.845 103.354 148.719C103.513 148.593 103.694 148.5 103.897 148.439C104.1 148.376 104.318 148.344 104.551 148.344C104.803 148.344 105.03 148.382 105.23 148.456C105.433 148.529 105.606 148.63 105.748 148.761C105.891 148.892 105.999 149.048 106.074 149.23C106.151 149.41 106.189 149.608 106.189 149.825C106.189 150.012 106.163 150.184 106.109 150.343C106.058 150.502 105.986 150.653 105.895 150.798C105.804 150.94 105.698 151.079 105.577 151.214C105.458 151.347 105.331 151.483 105.195 151.62L104.198 152.642C104.326 152.603 104.453 152.572 104.579 152.551C104.705 152.53 104.822 152.52 104.929 152.52H105.881ZM116.16 152.716V153.5H113.255V152.716H114.235V150.143C114.235 150.078 114.236 150.013 114.238 149.947C114.241 149.88 114.244 149.812 114.249 149.744L113.668 150.227C113.617 150.267 113.565 150.292 113.514 150.301C113.465 150.308 113.418 150.308 113.374 150.301C113.33 150.292 113.29 150.276 113.255 150.255C113.22 150.232 113.194 150.209 113.178 150.185L112.835 149.73L114.424 148.397H115.32V152.716H116.16ZM122.805 149.856C122.843 149.602 122.914 149.38 123.019 149.191C123.126 149.002 123.258 148.845 123.414 148.719C123.573 148.593 123.754 148.5 123.957 148.439C124.16 148.376 124.378 148.344 124.611 148.344C124.863 148.344 125.087 148.381 125.283 148.453C125.479 148.523 125.645 148.619 125.78 148.74C125.916 148.861 126.018 149.002 126.088 149.163C126.158 149.322 126.193 149.49 126.193 149.667C126.193 149.828 126.177 149.971 126.144 150.094C126.112 150.216 126.063 150.322 125.997 150.413C125.934 150.502 125.855 150.577 125.759 150.64C125.666 150.701 125.559 150.752 125.437 150.794C126.002 150.993 126.284 151.378 126.284 151.949C126.284 152.22 126.235 152.456 126.137 152.656C126.039 152.857 125.908 153.024 125.742 153.157C125.579 153.29 125.388 153.39 125.171 153.458C124.954 153.523 124.728 153.556 124.492 153.556C124.25 153.556 124.034 153.53 123.845 153.479C123.656 153.425 123.488 153.344 123.341 153.234C123.194 153.122 123.064 152.98 122.952 152.807C122.843 152.634 122.747 152.429 122.665 152.191L123.148 151.995C123.274 151.946 123.391 151.933 123.498 151.956C123.606 151.98 123.683 152.033 123.729 152.117C123.834 152.311 123.945 152.452 124.062 152.541C124.181 152.627 124.32 152.67 124.478 152.67C124.6 152.67 124.705 152.651 124.793 152.611C124.884 152.569 124.959 152.516 125.017 152.453C125.078 152.388 125.124 152.315 125.154 152.233C125.184 152.151 125.199 152.068 125.199 151.984C125.199 151.875 125.191 151.777 125.175 151.69C125.161 151.602 125.119 151.526 125.049 151.463C124.979 151.4 124.873 151.352 124.73 151.319C124.59 151.284 124.394 151.267 124.142 151.267V150.518C124.355 150.518 124.526 150.502 124.657 150.469C124.788 150.436 124.888 150.392 124.958 150.336C125.03 150.278 125.078 150.208 125.101 150.126C125.125 150.044 125.136 149.954 125.136 149.856C125.136 149.656 125.087 149.502 124.989 149.394C124.894 149.285 124.747 149.23 124.548 149.23C124.387 149.23 124.251 149.273 124.139 149.359C124.029 149.443 123.953 149.548 123.911 149.674C123.862 149.803 123.798 149.888 123.719 149.93C123.64 149.972 123.526 149.981 123.379 149.958L122.805 149.856Z" fill="#B4B4B4"/>
<path d="M110.762 151L107.949 153.143L107.949 148.857L110.762 151Z" fill="#B4B4B4"/>
<path d="M118.262 151L121.074 148.857L121.074 153.143L118.262 151Z" fill="#B4B4B4"/>
<path d="M3.5 147H129.5V146H3.5V147ZM131 148.5V153.5H132V148.5H131ZM129.5 155H3.5V156H129.5V155ZM2 153.5V148.5H1V153.5H2ZM3.5 155C2.67157 155 2 154.328 2 153.5H1C1 154.881 2.11929 156 3.5 156V155ZM131 153.5C131 154.328 130.328 155 129.5 155V156C130.881 156 132 154.881 132 153.5H131ZM129.5 147C130.328 147 131 147.672 131 148.5H132C132 147.119 130.881 146 129.5 146V147ZM3.5 146C2.11929 146 1 147.119 1 148.5H2C2 147.672 2.67157 147 3.5 147V146Z" fill="black"/>
<path fill-rule="evenodd" clip-rule="evenodd" d="M1 56V59H121V67H128V69L132 66.5L128 64V66H123V56H1Z" fill="#2D8699"/>
<rect x="13.5" y="78.5" width="10" height="10" rx="2" stroke="#2D8699"/>
<rect x="45.5" y="78.5" width="10" height="10" rx="2" stroke="#2D8699"/>
<rect x="77.5" y="78.5" width="10" height="10" rx="2" stroke="#2D8699"/>
<path opacity="0.5" d="M117 78.5H111C109.895 78.5 109 79.3954 109 80.5V86.5C109 87.6046 109.895 88.5 111 88.5H117C118.105 88.5 119 87.6046 119 86.5V80.5C119 79.3954 118.105 78.5 117 78.5Z" stroke="#2D8699"/>
<path d="M17.4112 85.3525H18.4367V82.402C18.4367 82.2877 18.4402 82.1675 18.4472 82.0415L17.7192 82.6505C17.6889 82.6762 17.6574 82.6937 17.6247 82.703C17.5944 82.7123 17.5641 82.717 17.5337 82.717C17.4871 82.717 17.4439 82.7077 17.4042 82.689C17.3669 82.668 17.3389 82.6447 17.3202 82.619L17.0472 82.2445L18.5907 80.932H19.3012V85.3525H20.2112V86H17.4112V85.3525Z" fill="white"/>
<path d="M50.5767 80.883C50.8101 80.883 51.0236 80.918 51.2172 80.988C51.4109 81.0557 51.5766 81.1525 51.7142 81.2785C51.8519 81.4045 51.9592 81.5562 52.0362 81.7335C52.1132 81.9108 52.1517 82.108 52.1517 82.325C52.1517 82.5117 52.1237 82.6843 52.0677 82.843C52.0141 83.0017 51.9406 83.1533 51.8472 83.298C51.7562 83.4427 51.6489 83.5827 51.5252 83.718C51.4016 83.8533 51.2721 83.991 51.1367 84.131L49.9957 85.2965C50.1077 85.2638 50.2174 85.2393 50.3247 85.223C50.4321 85.2043 50.5347 85.195 50.6327 85.195H51.9312C52.0246 85.195 52.0981 85.2218 52.1517 85.2755C52.2077 85.3268 52.2357 85.3957 52.2357 85.482V86H48.7637V85.713C48.7637 85.6547 48.7754 85.594 48.7987 85.531C48.8244 85.468 48.8641 85.4097 48.9177 85.356L50.4542 83.816C50.5826 83.6853 50.6969 83.5605 50.7972 83.4415C50.8999 83.3225 50.9851 83.2047 51.0527 83.088C51.1227 82.9713 51.1752 82.8535 51.2102 82.7345C51.2476 82.6132 51.2662 82.486 51.2662 82.353C51.2662 82.2317 51.2487 82.1255 51.2137 82.0345C51.1787 81.9412 51.1286 81.863 51.0632 81.8C50.9979 81.737 50.9197 81.6903 50.8287 81.66C50.7401 81.6273 50.6397 81.611 50.5277 81.611C50.3201 81.611 50.1486 81.6635 50.0132 81.7685C49.8802 81.8735 49.7869 82.0147 49.7332 82.192C49.7076 82.2807 49.6691 82.3448 49.6177 82.3845C49.5664 82.4218 49.5011 82.4405 49.4217 82.4405C49.3867 82.4405 49.3482 82.437 49.3062 82.43L48.8512 82.3495C48.8862 82.1068 48.9539 81.8945 49.0542 81.7125C49.1546 81.5282 49.2794 81.3753 49.4287 81.254C49.5804 81.1303 49.7531 81.0382 49.9467 80.9775C50.1427 80.9145 50.3527 80.883 50.5767 80.883Z" fill="white"/>
<path d="M82.6572 80.883C82.8906 80.883 83.1006 80.9168 83.2872 80.9845C83.4762 81.0498 83.6372 81.142 83.7702 81.261C83.9032 81.3777 84.0047 81.5153 84.0747 81.674C84.1471 81.8327 84.1832 82.0042 84.1832 82.1885C84.1832 82.3495 84.1646 82.4918 84.1272 82.6155C84.0922 82.7368 84.0397 82.843 83.9697 82.934C83.9021 83.025 83.8181 83.102 83.7177 83.165C83.6197 83.228 83.5077 83.2805 83.3817 83.3225C83.6851 83.4182 83.9114 83.564 84.0607 83.76C84.2101 83.956 84.2847 84.2022 84.2847 84.4985C84.2847 84.7505 84.2381 84.9733 84.1447 85.167C84.0514 85.3607 83.9254 85.524 83.7667 85.657C83.6081 85.7877 83.4237 85.8868 83.2137 85.9545C83.0061 86.0222 82.7856 86.056 82.5522 86.056C82.2979 86.056 82.0762 86.0268 81.8872 85.9685C81.6982 85.9102 81.5337 85.8238 81.3937 85.7095C81.2537 85.5952 81.1347 85.4552 81.0367 85.2895C80.9387 85.1238 80.8547 84.9325 80.7847 84.7155L81.1662 84.558C81.2316 84.53 81.2981 84.516 81.3657 84.516C81.4264 84.516 81.4801 84.5288 81.5267 84.5545C81.5757 84.5802 81.6131 84.6175 81.6387 84.6665C81.6807 84.7482 81.7262 84.8287 81.7752 84.908C81.8266 84.9873 81.8872 85.0585 81.9572 85.1215C82.0272 85.1822 82.1089 85.2323 82.2022 85.272C82.2979 85.3093 82.4111 85.328 82.5417 85.328C82.6887 85.328 82.8171 85.3047 82.9267 85.258C83.0364 85.209 83.1274 85.146 83.1997 85.069C83.2744 84.992 83.3292 84.9068 83.3642 84.8135C83.4016 84.7178 83.4202 84.6222 83.4202 84.5265C83.4202 84.4052 83.4074 84.2955 83.3817 84.1975C83.3561 84.0972 83.3024 84.012 83.2207 83.942C83.1391 83.872 83.0212 83.8172 82.8672 83.7775C82.7156 83.7378 82.5114 83.718 82.2547 83.718V83.102C82.4671 83.0997 82.6432 83.0798 82.7832 83.0425C82.9232 83.0052 83.0341 82.9538 83.1157 82.8885C83.1997 82.8208 83.2581 82.7403 83.2907 82.647C83.3234 82.5537 83.3397 82.451 83.3397 82.339C83.3397 82.0987 83.2744 81.9178 83.1437 81.7965C83.0131 81.6728 82.8346 81.611 82.6082 81.611C82.4029 81.611 82.2326 81.6658 82.0972 81.7755C81.9619 81.8828 81.8674 82.0217 81.8137 82.192C81.7857 82.2807 81.7472 82.3448 81.6982 82.3845C81.6492 82.4218 81.5851 82.4405 81.5057 82.4405C81.4684 82.4405 81.4287 82.437 81.3867 82.43L80.9317 82.3495C80.9667 82.1068 81.0344 81.8945 81.1347 81.7125C81.2351 81.5282 81.3599 81.3753 81.5092 81.254C81.6609 81.1303 81.8336 81.0382 82.0272 80.9775C82.2232 80.9145 82.4332 80.883 82.6572 80.883Z" fill="white"/>
<path d="M112.359 80.939C112.401 80.939 112.436 80.9413 112.464 80.946C112.492 80.9483 112.516 80.9553 112.537 80.967C112.561 80.9763 112.583 80.9915 112.604 81.0125C112.625 81.0312 112.648 81.0568 112.674 81.0895L115.33 84.474C115.321 84.3923 115.314 84.313 115.309 84.236C115.307 84.1567 115.306 84.0832 115.306 84.0155V80.939H116.135V86H115.649C115.574 86 115.512 85.9883 115.463 85.965C115.414 85.9417 115.367 85.8997 115.32 85.839L112.674 82.4685C112.681 82.5432 112.686 82.6178 112.688 82.6925C112.693 82.7648 112.695 82.8313 112.695 82.892V86H111.865V80.939H112.359Z" fill="white"/>
<g opacity="0.5">
<path d="M34.5 76.5C37.2614 76.5 39.5 74.2614 39.5 71.5C39.5 68.7386 37.2614 66.5 34.5 66.5C31.7386 66.5 29.5 68.7386 29.5 71.5C29.5 74.2614 31.7386 76.5 34.5 76.5Z" stroke="#2D8699"/>
<path d="M36.4449 68.4946L37.5055 69.5553L35.5595 71.5013L37.5047 73.4436L36.4449 74.505L34.4989 72.5619L32.5558 74.505L31.4951 73.4444L33.4375 71.502L31.4922 69.5596L32.5521 68.4982L34.4981 70.4414L36.4449 68.4946Z" fill="#EEEEEE"/>
</g>
<g opacity="0.5">
<path d="M66.5 76.5C69.2614 76.5 71.5 74.2614 71.5 71.5C71.5 68.7386 69.2614 66.5 66.5 66.5C63.7386 66.5 61.5 68.7386 61.5 71.5C61.5 74.2614 63.7386 76.5 66.5 76.5Z" stroke="#2D8699"/>
<path d="M68.4449 68.4946L69.5055 69.5553L67.5595 71.5013L69.5047 73.4436L68.4449 74.505L66.4989 72.5619L64.5558 74.505L63.4951 73.4444L65.4375 71.502L63.4922 69.5596L64.5521 68.4982L66.4981 70.4414L68.4449 68.4946Z" fill="#EEEEEE"/>
</g>
<path fill-rule="evenodd" clip-rule="evenodd" d="M82 64L80 64L82.5 60L85 64L83 64L82 64Z" fill="#2D8699"/>
<path d="M82 78L82 63.5L83 63.5L83 78L82 78Z" fill="#2D8699"/>
<g opacity="0.5">
<path fill-rule="evenodd" clip-rule="evenodd" d="M113.5 64L111.5 64L114 60L116.5 64L114.5 64L113.5 64Z" fill="#2D8699"/>
<path d="M113.5 78L113.5 63.5L114.5 63.5L114.5 78L113.5 78Z" fill="#2D8699"/>
</g>
<path fill-rule="evenodd" clip-rule="evenodd" d="M50 64L48 64L50.5 60L53 64L51 64L50 64Z" fill="#2D8699"/>
<path d="M50 78L50 63.5L51 63.5L51 78L50 78Z" fill="#2D8699"/>
<path fill-rule="evenodd" clip-rule="evenodd" d="M18 64L16 64L18.5 60L21 64L19 64L18 64Z" fill="#2D8699"/>
<path d="M18 78L18 63.5L19 63.5L19 78L18 78Z" fill="#2D8699"/>
<g opacity="0.5">
<path fill-rule="evenodd" clip-rule="evenodd" d="M34 64L32 64L34.5 60L37 64L35 64L34 64Z" fill="#2D8699"/>
<path d="M34 66L34 63.5L35 63.5L35 66L34 66Z" fill="#2D8699"/>
</g>
<g opacity="0.5">
<path fill-rule="evenodd" clip-rule="evenodd" d="M66 64L64 64L66.5 60L69 64L67 64L66 64Z" fill="#2D8699"/>
<path d="M66 66L66 63.5L67 63.5L67 66L66 66Z" fill="#2D8699"/>
</g>
<g opacity="0.5">
<path fill-rule="evenodd" clip-rule="evenodd" d="M45 72L45 74L41 71.5L45 69L45 71L45 72Z" fill="#2D8699"/>
<path d="M50 72L44.5 72L44.5 71L50 71L50 72Z" fill="#2D8699"/>
</g>
<g opacity="0.5">
<path fill-rule="evenodd" clip-rule="evenodd" d="M77 72L77 74L73 71.5L77 69L77 71L77 72Z" fill="#2D8699"/>
<path d="M82 72L76.5 72L76.5 71L82 71L82 72Z" fill="#2D8699"/>
</g>
<path fill-rule="evenodd" clip-rule="evenodd" d="M29 84L29 86L25 83.5L29 81L29 83L29 84Z" fill="#2D8699"/>
<path d="M45 84L28.5 84L28.5 83L45 83L45 84Z" fill="#2D8699"/>
<g opacity="0.5">
<path fill-rule="evenodd" clip-rule="evenodd" d="M24 71L24 69L28 71.5L24 74L24 72L24 71Z" fill="#2D8699"/>
<path d="M19 71L24.5 71L24.5 72L19 72L19 71Z" fill="#2D8699"/>
</g>
<g opacity="0.5">
<path fill-rule="evenodd" clip-rule="evenodd" d="M56 71L56 69L60 71.5L56 74L56 72L56 71Z" fill="#2D8699"/>
<path d="M51 71L56.5 71L56.5 72L51 72L51 71Z" fill="#2D8699"/>
</g>
<path d="M1.5 96.5C1.5 95.3954 2.39543 94.5 3.5 94.5H129.5C130.605 94.5 131.5 95.3954 131.5 96.5V101.5C131.5 102.605 130.605 103.5 129.5 103.5H3.5C2.39543 103.5 1.5 102.605 1.5 101.5V96.5Z" fill="#242424"/>
<path d="M11.9319 96.4005V101.5H11.3159C11.2249 101.5 11.1479 101.486 11.0849 101.458C11.0242 101.428 10.9635 101.376 10.9029 101.304L8.49837 98.2625C8.5077 98.3535 8.51353 98.4422 8.51587 98.5285C8.52053 98.6125 8.52287 98.6918 8.52287 98.7665V101.5H7.47987V96.4005H8.10287C8.1542 96.4005 8.19737 96.4028 8.23237 96.4075C8.26737 96.4122 8.29887 96.4215 8.32687 96.4355C8.35487 96.4472 8.3817 96.4647 8.40737 96.488C8.43303 96.5113 8.4622 96.5428 8.49487 96.5825L10.9204 99.645C10.9087 99.547 10.9005 99.4525 10.8959 99.3615C10.8912 99.2682 10.8889 99.1807 10.8889 99.099V96.4005H11.9319ZM17.8213 98.9485C17.8213 99.3172 17.7571 99.6602 17.6288 99.9775C17.5028 100.295 17.3243 100.571 17.0933 100.807C16.8623 101.04 16.5834 101.223 16.2568 101.356C15.9324 101.49 15.5719 101.556 15.1753 101.556C14.7786 101.556 14.4169 101.49 14.0903 101.356C13.7636 101.223 13.4836 101.04 13.2503 100.807C13.0193 100.571 12.8396 100.295 12.7113 99.9775C12.5853 99.6602 12.5223 99.3172 12.5223 98.9485C12.5223 98.5798 12.5853 98.2368 12.7113 97.9195C12.8396 97.6022 13.0193 97.3268 13.2503 97.0935C13.4836 96.8602 13.7636 96.677 14.0903 96.544C14.4169 96.411 14.7786 96.3445 15.1753 96.3445C15.5719 96.3445 15.9324 96.4122 16.2568 96.5475C16.5834 96.6805 16.8623 96.8637 17.0933 97.097C17.3243 97.3303 17.5028 97.6057 17.6288 97.923C17.7571 98.2403 17.8213 98.5822 17.8213 98.9485ZM16.6103 98.9485C16.6103 98.6965 16.5776 98.4702 16.5123 98.2695C16.4469 98.0665 16.3524 97.895 16.2288 97.755C16.1074 97.615 15.9581 97.5077 15.7808 97.433C15.6034 97.3583 15.4016 97.321 15.1753 97.321C14.9466 97.321 14.7424 97.3583 14.5628 97.433C14.3854 97.5077 14.2349 97.615 14.1113 97.755C13.9899 97.895 13.8966 98.0665 13.8313 98.2695C13.7659 98.4702 13.7333 98.6965 13.7333 98.9485C13.7333 99.2028 13.7659 99.4315 13.8313 99.6345C13.8966 99.8352 13.9899 100.005 14.1113 100.145C14.2349 100.285 14.3854 100.393 14.5628 100.467C14.7424 100.54 14.9466 100.576 15.1753 100.576C15.4016 100.576 15.6034 100.54 15.7808 100.467C15.9581 100.393 16.1074 100.285 16.2288 100.145C16.3524 100.005 16.4469 99.8352 16.5123 99.6345C16.5776 99.4315 16.6103 99.2028 16.6103 98.9485ZM21.1176 97.3105V98.602H22.8606V99.5155H21.1176V101.5H19.9276V96.4005H23.2106V97.3105H21.1176ZM29.5204 96.4005V101.5H28.4774V98.567C28.4774 98.4993 28.4786 98.4258 28.4809 98.3465C28.4856 98.2672 28.4926 98.1867 28.5019 98.105L27.1474 100.726C27.1054 100.808 27.0482 100.87 26.9759 100.912C26.9059 100.954 26.8254 100.975 26.7344 100.975H26.5734C26.4824 100.975 26.4007 100.954 26.3284 100.912C26.2584 100.87 26.2024 100.808 26.1604 100.726L24.8059 98.098C24.8129 98.182 24.8187 98.2648 24.8234 98.3465C24.8281 98.4258 24.8304 98.4993 24.8304 98.567V101.5H23.7874V96.4005H24.6904C24.7417 96.4005 24.7861 96.4017 24.8234 96.404C24.8631 96.4063 24.8981 96.4133 24.9284 96.425C24.9587 96.4367 24.9856 96.4553 25.0089 96.481C25.0346 96.5043 25.0591 96.5382 25.0824 96.5825L26.3949 99.169C26.4416 99.2577 26.4859 99.3498 26.5279 99.4455C26.5722 99.5412 26.6142 99.6392 26.6539 99.7395C26.6936 99.6368 26.7344 99.5365 26.7764 99.4385C26.8207 99.3405 26.8674 99.2472 26.9164 99.1585L28.2254 96.5825C28.2487 96.5382 28.2721 96.5043 28.2954 96.481C28.3211 96.4553 28.3491 96.4367 28.3794 96.425C28.4097 96.4133 28.4436 96.4063 28.4809 96.404C28.5206 96.4017 28.5661 96.4005 28.6174 96.4005H29.5204Z" fill="#B4B4B4"/>
<rect x="35.5117" y="96" width="30" height="6" rx="1" fill="#2D8699"/>
<rect x="35.5117" y="96" width="30" height="6" rx="1" stroke="#2D8699"/>
<path d="M47.647 100.52C47.7637 100.52 47.8558 100.553 47.9235 100.618C47.9912 100.681 48.025 100.765 48.025 100.87V101.5H44.441V101.15C44.441 101.082 44.455 101.01 44.483 100.933C44.511 100.856 44.56 100.786 44.63 100.723L46.1 99.2425C46.226 99.1165 46.3357 98.9963 46.429 98.882C46.5223 98.7677 46.5993 98.6557 46.66 98.546C46.7207 98.434 46.7662 98.3232 46.7965 98.2135C46.8268 98.1015 46.842 97.9837 46.842 97.86C46.842 97.657 46.793 97.5018 46.695 97.3945C46.5993 97.2848 46.4523 97.23 46.254 97.23C46.093 97.23 45.9565 97.2732 45.8445 97.3595C45.7348 97.4435 45.659 97.5485 45.617 97.6745C45.568 97.8028 45.5038 97.888 45.4245 97.93C45.3452 97.972 45.232 97.9813 45.085 97.958L44.511 97.8565C44.5483 97.6022 44.6195 97.3805 44.7245 97.1915C44.8318 97.0025 44.9637 96.845 45.12 96.719C45.2787 96.593 45.4595 96.4997 45.6625 96.439C45.8655 96.376 46.0837 96.3445 46.317 96.3445C46.569 96.3445 46.7953 96.3818 46.996 96.4565C47.199 96.5288 47.3717 96.6303 47.514 96.761C47.6563 96.8917 47.7648 97.048 47.8395 97.23C47.9165 97.4097 47.955 97.608 47.955 97.825C47.955 98.0117 47.9282 98.1843 47.8745 98.343C47.8232 98.5017 47.752 98.6533 47.661 98.798C47.57 98.9403 47.4638 99.0792 47.3425 99.2145C47.2235 99.3475 47.0963 99.4828 46.961 99.6205L45.9635 100.642C46.0918 100.603 46.219 100.572 46.345 100.551C46.471 100.53 46.5877 100.52 46.695 100.52H47.647ZM56.4104 100.716V101.5H53.5054V100.716H54.4854V98.1435C54.4854 98.0782 54.4866 98.0128 54.4889 97.9475C54.4912 97.8798 54.4947 97.8122 54.4994 97.7445L53.9184 98.2275C53.8671 98.2672 53.8157 98.2917 53.7644 98.301C53.7154 98.308 53.6687 98.308 53.6244 98.301C53.5801 98.2917 53.5404 98.2765 53.5054 98.2555C53.4704 98.2322 53.4447 98.2088 53.4284 98.1855L53.0854 97.7305L54.6744 96.397H55.5704V100.716H56.4104Z" fill="black"/>
<path d="M52.3867 99.0003L49.5742 101.143L49.5742 96.8574L52.3867 99.0003Z" fill="black"/>
<path d="M70.7734 97.8565C70.8108 97.6022 70.8819 97.3805 70.9869 97.1915C71.0943 97.0025 71.2261 96.845 71.3824 96.719C71.5411 96.593 71.7219 96.4997 71.9249 96.439C72.1279 96.376 72.3461 96.3445 72.5794 96.3445C72.8314 96.3445 73.0554 96.3807 73.2514 96.453C73.4474 96.523 73.6131 96.6187 73.7484 96.74C73.8838 96.8613 73.9864 97.0025 74.0564 97.1635C74.1264 97.3222 74.1614 97.4902 74.1614 97.6675C74.1614 97.8285 74.1451 97.9708 74.1124 98.0945C74.0798 98.2158 74.0308 98.322 73.9654 98.413C73.9024 98.5017 73.8231 98.5775 73.7274 98.6405C73.6341 98.7012 73.5268 98.7525 73.4054 98.7945C73.9701 98.9928 74.2524 99.3778 74.2524 99.9495C74.2524 100.22 74.2034 100.456 74.1054 100.656C74.0074 100.857 73.8756 101.024 73.7099 101.157C73.5466 101.29 73.3564 101.39 73.1394 101.458C72.9224 101.523 72.6961 101.556 72.4604 101.556C72.2178 101.556 72.0019 101.53 71.8129 101.479C71.6239 101.425 71.4559 101.344 71.3089 101.234C71.1619 101.122 71.0324 100.98 70.9204 100.807C70.8108 100.634 70.7151 100.429 70.6334 100.191L71.1164 99.995C71.2424 99.946 71.3591 99.9332 71.4664 99.9565C71.5738 99.9798 71.6508 100.033 71.6974 100.117C71.8024 100.311 71.9133 100.452 72.0299 100.541C72.1489 100.627 72.2878 100.67 72.4464 100.67C72.5678 100.67 72.6728 100.651 72.7614 100.611C72.8524 100.569 72.9271 100.516 72.9854 100.453C73.0461 100.388 73.0916 100.315 73.1219 100.233C73.1523 100.151 73.1674 100.068 73.1674 99.9845C73.1674 99.8748 73.1593 99.7768 73.1429 99.6905C73.1289 99.6018 73.0869 99.526 73.0169 99.463C72.9469 99.4 72.8408 99.3522 72.6984 99.3195C72.5584 99.2845 72.3624 99.267 72.1104 99.267V98.518C72.3228 98.518 72.4943 98.5017 72.6249 98.469C72.7556 98.4363 72.8559 98.392 72.9259 98.336C72.9983 98.2777 73.0461 98.2077 73.0694 98.126C73.0928 98.0443 73.1044 97.9545 73.1044 97.8565C73.1044 97.6558 73.0554 97.5018 72.9574 97.3945C72.8618 97.2848 72.7148 97.23 72.5164 97.23C72.3554 97.23 72.2189 97.2732 72.1069 97.3595C71.9973 97.4435 71.9214 97.5485 71.8794 97.6745C71.8304 97.8028 71.7663 97.888 71.6869 97.93C71.6076 97.972 71.4944 97.9813 71.3474 97.958L70.7734 97.8565ZM83.8974 100.52C84.0141 100.52 84.1063 100.553 84.1739 100.618C84.2416 100.681 84.2754 100.765 84.2754 100.87V101.5H80.6914V101.15C80.6914 101.082 80.7054 101.01 80.7334 100.933C80.7614 100.856 80.8104 100.786 80.8804 100.723L82.3504 99.2425C82.4764 99.1165 82.5861 98.9963 82.6794 98.882C82.7728 98.7677 82.8498 98.6557 82.9104 98.546C82.9711 98.434 83.0166 98.3232 83.0469 98.2135C83.0773 98.1015 83.0924 97.9837 83.0924 97.86C83.0924 97.657 83.0434 97.5018 82.9454 97.3945C82.8498 97.2848 82.7028 97.23 82.5044 97.23C82.3434 97.23 82.2069 97.2732 82.0949 97.3595C81.9853 97.4435 81.9094 97.5485 81.8674 97.6745C81.8184 97.8028 81.7543 97.888 81.6749 97.93C81.5956 97.972 81.4824 97.9813 81.3354 97.958L80.7614 97.8565C80.7988 97.6022 80.8699 97.3805 80.9749 97.1915C81.0823 97.0025 81.2141 96.845 81.3704 96.719C81.5291 96.593 81.7099 96.4997 81.9129 96.439C82.1159 96.376 82.3341 96.3445 82.5674 96.3445C82.8194 96.3445 83.0458 96.3818 83.2464 96.4565C83.4494 96.5288 83.6221 96.6303 83.7644 96.761C83.9068 96.8917 84.0153 97.048 84.0899 97.23C84.1669 97.4097 84.2054 97.608 84.2054 97.825C84.2054 98.0117 84.1786 98.1843 84.1249 98.343C84.0736 98.5017 84.0024 98.6533 83.9114 98.798C83.8204 98.9403 83.7143 99.0792 83.5929 99.2145C83.4739 99.3475 83.3468 99.4828 83.2114 99.6205L82.2139 100.642C82.3423 100.603 82.4694 100.572 82.5954 100.551C82.7214 100.53 82.8381 100.52 82.9454 100.52H83.8974ZM94.176 100.716V101.5H91.271V100.716H92.251V98.1435C92.251 98.0782 92.2521 98.0128 92.2545 97.9475C92.2568 97.8798 92.2603 97.8122 92.265 97.7445L91.684 98.2275C91.6326 98.2672 91.5813 98.2917 91.53 98.301C91.481 98.308 91.4343 98.308 91.39 98.301C91.3456 98.2917 91.306 98.2765 91.271 98.2555C91.236 98.2322 91.2103 98.2088 91.194 98.1855L90.851 97.7305L92.44 96.397H93.336V100.716H94.176Z" fill="#B4B4B4"/>
<path d="M78.7617 99.0003L75.9492 101.143L75.9492 96.8574L78.7617 99.0003Z" fill="#B4B4B4"/>
<path d="M89.0742 99.0003L86.2617 101.143L86.2617 96.8574L89.0742 99.0003Z" fill="#B4B4B4"/>
<path d="M105.881 100.52C105.998 100.52 106.09 100.553 106.158 100.618C106.226 100.681 106.259 100.765 106.259 100.87V101.5H102.675V101.15C102.675 101.082 102.689 101.01 102.717 100.933C102.745 100.856 102.794 100.786 102.864 100.723L104.334 99.2425C104.46 99.1165 104.57 98.9963 104.663 98.882C104.757 98.7677 104.834 98.6557 104.894 98.546C104.955 98.434 105.001 98.3232 105.031 98.2135C105.061 98.1015 105.076 97.9837 105.076 97.86C105.076 97.657 105.027 97.5018 104.929 97.3945C104.834 97.2848 104.687 97.23 104.488 97.23C104.327 97.23 104.191 97.2732 104.079 97.3595C103.969 97.4435 103.893 97.5485 103.851 97.6745C103.802 97.8028 103.738 97.888 103.659 97.93C103.58 97.972 103.466 97.9813 103.319 97.958L102.745 97.8565C102.783 97.6022 102.854 97.3805 102.959 97.1915C103.066 97.0025 103.198 96.845 103.354 96.719C103.513 96.593 103.694 96.4997 103.897 96.439C104.1 96.376 104.318 96.3445 104.551 96.3445C104.803 96.3445 105.03 96.3818 105.23 96.4565C105.433 96.5288 105.606 96.6303 105.748 96.761C105.891 96.8917 105.999 97.048 106.074 97.23C106.151 97.4097 106.189 97.608 106.189 97.825C106.189 98.0117 106.163 98.1843 106.109 98.343C106.058 98.5017 105.986 98.6533 105.895 98.798C105.804 98.9403 105.698 99.0792 105.577 99.2145C105.458 99.3475 105.331 99.4828 105.195 99.6205L104.198 100.642C104.326 100.603 104.453 100.572 104.579 100.551C104.705 100.53 104.822 100.52 104.929 100.52H105.881ZM116.16 100.716V101.5H113.255V100.716H114.235V98.1435C114.235 98.0782 114.236 98.0128 114.238 97.9475C114.241 97.8798 114.244 97.8122 114.249 97.7445L113.668 98.2275C113.617 98.2672 113.565 98.2917 113.514 98.301C113.465 98.308 113.418 98.308 113.374 98.301C113.33 98.2917 113.29 98.2765 113.255 98.2555C113.22 98.2322 113.194 98.2088 113.178 98.1855L112.835 97.7305L114.424 96.397H115.32V100.716H116.16ZM122.805 97.8565C122.843 97.6022 122.914 97.3805 123.019 97.1915C123.126 97.0025 123.258 96.845 123.414 96.719C123.573 96.593 123.754 96.4997 123.957 96.439C124.16 96.376 124.378 96.3445 124.611 96.3445C124.863 96.3445 125.087 96.3807 125.283 96.453C125.479 96.523 125.645 96.6187 125.78 96.74C125.916 96.8613 126.018 97.0025 126.088 97.1635C126.158 97.3222 126.193 97.4902 126.193 97.6675C126.193 97.8285 126.177 97.9708 126.144 98.0945C126.112 98.2158 126.063 98.322 125.997 98.413C125.934 98.5017 125.855 98.5775 125.759 98.6405C125.666 98.7012 125.559 98.7525 125.437 98.7945C126.002 98.9928 126.284 99.3778 126.284 99.9495C126.284 100.22 126.235 100.456 126.137 100.656C126.039 100.857 125.908 101.024 125.742 101.157C125.579 101.29 125.388 101.39 125.171 101.458C124.954 101.523 124.728 101.556 124.492 101.556C124.25 101.556 124.034 101.53 123.845 101.479C123.656 101.425 123.488 101.344 123.341 101.234C123.194 101.122 123.064 100.98 122.952 100.807C122.843 100.634 122.747 100.429 122.665 100.191L123.148 99.995C123.274 99.946 123.391 99.9332 123.498 99.9565C123.606 99.9798 123.683 100.033 123.729 100.117C123.834 100.311 123.945 100.452 124.062 100.541C124.181 100.627 124.32 100.67 124.478 100.67C124.6 100.67 124.705 100.651 124.793 100.611C124.884 100.569 124.959 100.516 125.017 100.453C125.078 100.388 125.124 100.315 125.154 100.233C125.184 100.151 125.199 100.068 125.199 99.9845C125.199 99.8748 125.191 99.7768 125.175 99.6905C125.161 99.6018 125.119 99.526 125.049 99.463C124.979 99.4 124.873 99.3522 124.73 99.3195C124.59 99.2845 124.394 99.267 124.142 99.267V98.518C124.355 98.518 124.526 98.5017 124.657 98.469C124.788 98.4363 124.888 98.392 124.958 98.336C125.03 98.2777 125.078 98.2077 125.101 98.126C125.125 98.0443 125.136 97.9545 125.136 97.8565C125.136 97.6558 125.087 97.5018 124.989 97.3945C124.894 97.2848 124.747 97.23 124.548 97.23C124.387 97.23 124.251 97.2732 124.139 97.3595C124.029 97.4435 123.953 97.5485 123.911 97.6745C123.862 97.8028 123.798 97.888 123.719 97.93C123.64 97.972 123.526 97.9813 123.379 97.958L122.805 97.8565Z" fill="#B4B4B4"/>
<path d="M110.762 99.0003L107.949 101.143L107.949 96.8574L110.762 99.0003Z" fill="#B4B4B4"/>
<path d="M118.262 98.9997L121.074 96.8569L121.074 101.143L118.262 98.9997Z" fill="#B4B4B4"/>
<path d="M3.5 95H129.5V94H3.5V95ZM131 96.5V101.5H132V96.5H131ZM129.5 103H3.5V104H129.5V103ZM2 101.5V96.5H1V101.5H2ZM3.5 103C2.67157 103 2 102.328 2 101.5H1C1 102.881 2.11929 104 3.5 104V103ZM131 101.5C131 102.328 130.328 103 129.5 103V104C130.881 104 132 102.881 132 101.5H131ZM129.5 95C130.328 95 131 95.6716 131 96.5H132C132 95.1193 130.881 94 129.5 94V95ZM3.5 94C2.11929 94 1 95.1193 1 96.5H2C2 95.6716 2.67157 95 3.5 95V94Z" fill="black"/>
<path fill-rule="evenodd" clip-rule="evenodd" d="M1 4V7H121V15H128V17L132 14.5L128 12V14H123V4H1Z" fill="#2D8699"/>
<rect x="13.5" y="26.5" width="10" height="10" rx="2" stroke="#2D8699"/>
<rect x="45.5" y="26.5" width="10" height="10" rx="2" stroke="#2D8699"/>
<rect x="77.5" y="26.5" width="10" height="10" rx="2" stroke="#2D8699"/>
<path opacity="0.5" d="M117 26.5H111C109.895 26.5 109 27.3954 109 28.5V34.5C109 35.6046 109.895 36.5 111 36.5H117C118.105 36.5 119 35.6046 119 34.5V28.5C119 27.3954 118.105 26.5 117 26.5Z" stroke="#2D8699"/>
<path d="M17.4112 33.3525H18.4367V30.402C18.4367 30.2877 18.4402 30.1675 18.4472 30.0415L17.7192 30.6505C17.6889 30.6762 17.6574 30.6937 17.6247 30.703C17.5944 30.7123 17.5641 30.717 17.5337 30.717C17.4871 30.717 17.4439 30.7077 17.4042 30.689C17.3669 30.668 17.3389 30.6447 17.3202 30.619L17.0472 30.2445L18.5907 28.932H19.3012V33.3525H20.2112V34H17.4112V33.3525Z" fill="white"/>
<path d="M50.5767 28.883C50.8101 28.883 51.0236 28.918 51.2172 28.988C51.4109 29.0557 51.5766 29.1525 51.7142 29.2785C51.8519 29.4045 51.9592 29.5562 52.0362 29.7335C52.1132 29.9108 52.1517 30.108 52.1517 30.325C52.1517 30.5117 52.1237 30.6843 52.0677 30.843C52.0141 31.0017 51.9406 31.1533 51.8472 31.298C51.7562 31.4427 51.6489 31.5827 51.5252 31.718C51.4016 31.8533 51.2721 31.991 51.1367 32.131L49.9957 33.2965C50.1077 33.2638 50.2174 33.2393 50.3247 33.223C50.4321 33.2043 50.5347 33.195 50.6327 33.195H51.9312C52.0246 33.195 52.0981 33.2218 52.1517 33.2755C52.2077 33.3268 52.2357 33.3957 52.2357 33.482V34H48.7637V33.713C48.7637 33.6547 48.7754 33.594 48.7987 33.531C48.8244 33.468 48.8641 33.4097 48.9177 33.356L50.4542 31.816C50.5826 31.6853 50.6969 31.5605 50.7972 31.4415C50.8999 31.3225 50.9851 31.2047 51.0527 31.088C51.1227 30.9713 51.1752 30.8535 51.2102 30.7345C51.2476 30.6132 51.2662 30.486 51.2662 30.353C51.2662 30.2317 51.2487 30.1255 51.2137 30.0345C51.1787 29.9412 51.1286 29.863 51.0632 29.8C50.9979 29.737 50.9197 29.6903 50.8287 29.66C50.7401 29.6273 50.6397 29.611 50.5277 29.611C50.3201 29.611 50.1486 29.6635 50.0132 29.7685C49.8802 29.8735 49.7869 30.0147 49.7332 30.192C49.7076 30.2807 49.6691 30.3448 49.6177 30.3845C49.5664 30.4218 49.5011 30.4405 49.4217 30.4405C49.3867 30.4405 49.3482 30.437 49.3062 30.43L48.8512 30.3495C48.8862 30.1068 48.9539 29.8945 49.0542 29.7125C49.1546 29.5282 49.2794 29.3753 49.4287 29.254C49.5804 29.1303 49.7531 29.0382 49.9467 28.9775C50.1427 28.9145 50.3527 28.883 50.5767 28.883Z" fill="white"/>
<path d="M82.6572 28.883C82.8906 28.883 83.1006 28.9168 83.2872 28.9845C83.4762 29.0498 83.6372 29.142 83.7702 29.261C83.9032 29.3777 84.0047 29.5153 84.0747 29.674C84.1471 29.8327 84.1832 30.0042 84.1832 30.1885C84.1832 30.3495 84.1646 30.4918 84.1272 30.6155C84.0922 30.7368 84.0397 30.843 83.9697 30.934C83.9021 31.025 83.8181 31.102 83.7177 31.165C83.6197 31.228 83.5077 31.2805 83.3817 31.3225C83.6851 31.4182 83.9114 31.564 84.0607 31.76C84.2101 31.956 84.2847 32.2022 84.2847 32.4985C84.2847 32.7505 84.2381 32.9733 84.1447 33.167C84.0514 33.3607 83.9254 33.524 83.7667 33.657C83.6081 33.7877 83.4237 33.8868 83.2137 33.9545C83.0061 34.0222 82.7856 34.056 82.5522 34.056C82.2979 34.056 82.0762 34.0268 81.8872 33.9685C81.6982 33.9102 81.5337 33.8238 81.3937 33.7095C81.2537 33.5952 81.1347 33.4552 81.0367 33.2895C80.9387 33.1238 80.8547 32.9325 80.7847 32.7155L81.1662 32.558C81.2316 32.53 81.2981 32.516 81.3657 32.516C81.4264 32.516 81.4801 32.5288 81.5267 32.5545C81.5757 32.5802 81.6131 32.6175 81.6387 32.6665C81.6807 32.7482 81.7262 32.8287 81.7752 32.908C81.8266 32.9873 81.8872 33.0585 81.9572 33.1215C82.0272 33.1822 82.1089 33.2323 82.2022 33.272C82.2979 33.3093 82.4111 33.328 82.5417 33.328C82.6887 33.328 82.8171 33.3047 82.9267 33.258C83.0364 33.209 83.1274 33.146 83.1997 33.069C83.2744 32.992 83.3292 32.9068 83.3642 32.8135C83.4016 32.7178 83.4202 32.6222 83.4202 32.5265C83.4202 32.4052 83.4074 32.2955 83.3817 32.1975C83.3561 32.0972 83.3024 32.012 83.2207 31.942C83.1391 31.872 83.0212 31.8172 82.8672 31.7775C82.7156 31.7378 82.5114 31.718 82.2547 31.718V31.102C82.4671 31.0997 82.6432 31.0798 82.7832 31.0425C82.9232 31.0052 83.0341 30.9538 83.1157 30.8885C83.1997 30.8208 83.2581 30.7403 83.2907 30.647C83.3234 30.5537 83.3397 30.451 83.3397 30.339C83.3397 30.0987 83.2744 29.9178 83.1437 29.7965C83.0131 29.6728 82.8346 29.611 82.6082 29.611C82.4029 29.611 82.2326 29.6658 82.0972 29.7755C81.9619 29.8828 81.8674 30.0217 81.8137 30.192C81.7857 30.2807 81.7472 30.3448 81.6982 30.3845C81.6492 30.4218 81.5851 30.4405 81.5057 30.4405C81.4684 30.4405 81.4287 30.437 81.3867 30.43L80.9317 30.3495C80.9667 30.1068 81.0344 29.8945 81.1347 29.7125C81.2351 29.5282 81.3599 29.3753 81.5092 29.254C81.6609 29.1303 81.8336 29.0382 82.0272 28.9775C82.2232 28.9145 82.4332 28.883 82.6572 28.883Z" fill="white"/>
<path d="M112.359 28.939C112.401 28.939 112.436 28.9413 112.464 28.946C112.492 28.9483 112.516 28.9553 112.537 28.967C112.561 28.9763 112.583 28.9915 112.604 29.0125C112.625 29.0312 112.648 29.0568 112.674 29.0895L115.33 32.474C115.321 32.3923 115.314 32.313 115.309 32.236C115.307 32.1567 115.306 32.0832 115.306 32.0155V28.939H116.135V34H115.649C115.574 34 115.512 33.9883 115.463 33.965C115.414 33.9417 115.367 33.8997 115.32 33.839L112.674 30.4685C112.681 30.5432 112.686 30.6178 112.688 30.6925C112.693 30.7648 112.695 30.8313 112.695 30.892V34H111.865V28.939H112.359Z" fill="white"/>
<g opacity="0.5">
<path d="M34.5 24.5C37.2614 24.5 39.5 22.2614 39.5 19.5C39.5 16.7386 37.2614 14.5 34.5 14.5C31.7386 14.5 29.5 16.7386 29.5 19.5C29.5 22.2614 31.7386 24.5 34.5 24.5Z" stroke="#2D8699"/>
<path d="M36.4449 16.4946L37.5055 17.5553L35.5595 19.5013L37.5047 21.4436L36.4449 22.505L34.4989 20.5619L32.5558 22.505L31.4951 21.4444L33.4375 19.502L31.4922 17.5596L32.5521 16.4982L34.4981 18.4414L36.4449 16.4946Z" fill="#EEEEEE"/>
</g>
<g opacity="0.5">
<path d="M66.5 24.5C69.2614 24.5 71.5 22.2614 71.5 19.5C71.5 16.7386 69.2614 14.5 66.5 14.5C63.7386 14.5 61.5 16.7386 61.5 19.5C61.5 22.2614 63.7386 24.5 66.5 24.5Z" stroke="#2D8699"/>
<path d="M68.4449 16.4946L69.5055 17.5553L67.5595 19.5013L69.5047 21.4436L68.4449 22.505L66.4989 20.5619L64.5558 22.505L63.4951 21.4444L65.4375 19.502L63.4922 17.5596L64.5521 16.4982L66.4981 18.4414L68.4449 16.4946Z" fill="#EEEEEE"/>
</g>
<path fill-rule="evenodd" clip-rule="evenodd" d="M82 12L80 12L82.5 8L85 12L83 12L82 12Z" fill="#2D8699"/>
<path d="M82 26L82 11.5L83 11.5L83 26L82 26Z" fill="#2D8699"/>
<g opacity="0.5">
<path fill-rule="evenodd" clip-rule="evenodd" d="M113.5 12L111.5 12L114 8L116.5 12L114.5 12L113.5 12Z" fill="#2D8699"/>
<path d="M113.5 26L113.5 11.5L114.5 11.5L114.5 26L113.5 26Z" fill="#2D8699"/>
</g>
<path fill-rule="evenodd" clip-rule="evenodd" d="M50 12L48 12L50.5 8L53 12L51 12L50 12Z" fill="#2D8699"/>
<path d="M50 26L50 11.5L51 11.5L51 26L50 26Z" fill="#2D8699"/>
<path fill-rule="evenodd" clip-rule="evenodd" d="M18 12L16 12L18.5 8L21 12L19 12L18 12Z" fill="#2D8699"/>
<path d="M18 26L18 11.5L19 11.5L19 26L18 26Z" fill="#2D8699"/>
<g opacity="0.5">
<path fill-rule="evenodd" clip-rule="evenodd" d="M34 12L32 12L34.5 8L37 12L35 12L34 12Z" fill="#2D8699"/>
<path d="M34 14L34 11.5L35 11.5L35 14L34 14Z" fill="#2D8699"/>
</g>
<g opacity="0.5">
<path fill-rule="evenodd" clip-rule="evenodd" d="M66 12L64 12L66.5 8L69 12L67 12L66 12Z" fill="#2D8699"/>
<path d="M66 14L66 11.5L67 11.5L67 14L66 14Z" fill="#2D8699"/>
</g>
<g opacity="0.5">
<path fill-rule="evenodd" clip-rule="evenodd" d="M45 20L45 22L41 19.5L45 17L45 19L45 20Z" fill="#2D8699"/>
<path d="M50 20L44.5 20L44.5 19L50 19L50 20Z" fill="#2D8699"/>
</g>
<g opacity="0.5">
<path fill-rule="evenodd" clip-rule="evenodd" d="M77 20L77 22L73 19.5L77 17L77 19L77 20Z" fill="#2D8699"/>
<path d="M82 20L76.5 20L76.5 19L82 19L82 20Z" fill="#2D8699"/>
</g>
<g opacity="0.5">
<path fill-rule="evenodd" clip-rule="evenodd" d="M24 19L24 17L28 19.5L24 22L24 20L24 19Z" fill="#2D8699"/>
<path d="M19 19L24.5 19L24.5 20L19 20L19 19Z" fill="#2D8699"/>
</g>
<g opacity="0.5">
<path fill-rule="evenodd" clip-rule="evenodd" d="M56 19L56 17L60 19.5L56 22L56 20L56 19Z" fill="#2D8699"/>
<path d="M51 19L56.5 19L56.5 20L51 20L51 19Z" fill="#2D8699"/>
</g>
<path d="M1.5 44.5C1.5 43.3954 2.39543 42.5 3.5 42.5H129.5C130.605 42.5 131.5 43.3954 131.5 44.5V49.5C131.5 50.6046 130.605 51.5 129.5 51.5H3.5C2.39543 51.5 1.5 50.6046 1.5 49.5V44.5Z" fill="#242424"/>
<rect x="3.5" y="44" width="30" height="6" rx="1" fill="#2D8699"/>
<rect x="3.5" y="44" width="30" height="6" rx="1" stroke="#2D8699"/>
<path d="M11.9319 44.4005V49.5H11.3159C11.2249 49.5 11.1479 49.486 11.0849 49.458C11.0242 49.4277 10.9635 49.3763 10.9029 49.304L8.49837 46.2625C8.5077 46.3535 8.51353 46.4422 8.51587 46.5285C8.52053 46.6125 8.52287 46.6918 8.52287 46.7665V49.5H7.47987V44.4005H8.10287C8.1542 44.4005 8.19737 44.4028 8.23237 44.4075C8.26737 44.4122 8.29887 44.4215 8.32687 44.4355C8.35487 44.4472 8.3817 44.4647 8.40737 44.488C8.43303 44.5113 8.4622 44.5428 8.49487 44.5825L10.9204 47.645C10.9087 47.547 10.9005 47.4525 10.8959 47.3615C10.8912 47.2682 10.8889 47.1807 10.8889 47.099V44.4005H11.9319ZM17.8213 46.9485C17.8213 47.3172 17.7571 47.6602 17.6288 47.9775C17.5028 48.2948 17.3243 48.5713 17.0933 48.807C16.8623 49.0403 16.5834 49.2235 16.2568 49.3565C15.9324 49.4895 15.5719 49.556 15.1753 49.556C14.7786 49.556 14.4169 49.4895 14.0903 49.3565C13.7636 49.2235 13.4836 49.0403 13.2503 48.807C13.0193 48.5713 12.8396 48.2948 12.7113 47.9775C12.5853 47.6602 12.5223 47.3172 12.5223 46.9485C12.5223 46.5798 12.5853 46.2368 12.7113 45.9195C12.8396 45.6022 13.0193 45.3268 13.2503 45.0935C13.4836 44.8602 13.7636 44.677 14.0903 44.544C14.4169 44.411 14.7786 44.3445 15.1753 44.3445C15.5719 44.3445 15.9324 44.4122 16.2568 44.5475C16.5834 44.6805 16.8623 44.8637 17.0933 45.097C17.3243 45.3303 17.5028 45.6057 17.6288 45.923C17.7571 46.2403 17.8213 46.5822 17.8213 46.9485ZM16.6103 46.9485C16.6103 46.6965 16.5776 46.4702 16.5123 46.2695C16.4469 46.0665 16.3524 45.895 16.2288 45.755C16.1074 45.615 15.9581 45.5077 15.7808 45.433C15.6034 45.3583 15.4016 45.321 15.1753 45.321C14.9466 45.321 14.7424 45.3583 14.5628 45.433C14.3854 45.5077 14.2349 45.615 14.1113 45.755C13.9899 45.895 13.8966 46.0665 13.8313 46.2695C13.7659 46.4702 13.7333 46.6965 13.7333 46.9485C13.7333 47.2028 13.7659 47.4315 13.8313 47.6345C13.8966 47.8352 13.9899 48.0055 14.1113 48.1455C14.2349 48.2855 14.3854 48.3928 14.5628 48.4675C14.7424 48.5398 14.9466 48.576 15.1753 48.576C15.4016 48.576 15.6034 48.5398 15.7808 48.4675C15.9581 48.3928 16.1074 48.2855 16.2288 48.1455C16.3524 48.0055 16.4469 47.8352 16.5123 47.6345C16.5776 47.4315 16.6103 47.2028 16.6103 46.9485ZM21.1176 45.3105V46.602H22.8606V47.5155H21.1176V49.5H19.9276V44.4005H23.2106V45.3105H21.1176ZM29.5204 44.4005V49.5H28.4774V46.567C28.4774 46.4993 28.4786 46.4258 28.4809 46.3465C28.4856 46.2672 28.4926 46.1867 28.5019 46.105L27.1474 48.7265C27.1054 48.8082 27.0482 48.87 26.9759 48.912C26.9059 48.954 26.8254 48.975 26.7344 48.975H26.5734C26.4824 48.975 26.4007 48.954 26.3284 48.912C26.2584 48.87 26.2024 48.8082 26.1604 48.7265L24.8059 46.098C24.8129 46.182 24.8187 46.2648 24.8234 46.3465C24.8281 46.4258 24.8304 46.4993 24.8304 46.567V49.5H23.7874V44.4005H24.6904C24.7417 44.4005 24.7861 44.4017 24.8234 44.404C24.8631 44.4063 24.8981 44.4133 24.9284 44.425C24.9587 44.4367 24.9856 44.4553 25.0089 44.481C25.0346 44.5043 25.0591 44.5382 25.0824 44.5825L26.3949 47.169C26.4416 47.2577 26.4859 47.3498 26.5279 47.4455C26.5722 47.5412 26.6142 47.6392 26.6539 47.7395C26.6936 47.6368 26.7344 47.5365 26.7764 47.4385C26.8207 47.3405 26.8674 47.2472 26.9164 47.1585L28.2254 44.5825C28.2487 44.5382 28.2721 44.5043 28.2954 44.481C28.3211 44.4553 28.3491 44.4367 28.3794 44.425C28.4097 44.4133 28.4436 44.4063 28.4809 44.404C28.5206 44.4017 28.5661 44.4005 28.6174 44.4005H29.5204Z" fill="black"/>
<path d="M47.647 48.52C47.7637 48.52 47.8558 48.5527 47.9235 48.618C47.9912 48.681 48.025 48.765 48.025 48.87V49.5H44.441V49.15C44.441 49.0823 44.455 49.01 44.483 48.933C44.511 48.856 44.56 48.786 44.63 48.723L46.1 47.2425C46.226 47.1165 46.3357 46.9963 46.429 46.882C46.5223 46.7677 46.5993 46.6557 46.66 46.546C46.7207 46.434 46.7662 46.3232 46.7965 46.2135C46.8268 46.1015 46.842 45.9837 46.842 45.86C46.842 45.657 46.793 45.5018 46.695 45.3945C46.5993 45.2848 46.4523 45.23 46.254 45.23C46.093 45.23 45.9565 45.2732 45.8445 45.3595C45.7348 45.4435 45.659 45.5485 45.617 45.6745C45.568 45.8028 45.5038 45.888 45.4245 45.93C45.3452 45.972 45.232 45.9813 45.085 45.958L44.511 45.8565C44.5483 45.6022 44.6195 45.3805 44.7245 45.1915C44.8318 45.0025 44.9637 44.845 45.12 44.719C45.2787 44.593 45.4595 44.4997 45.6625 44.439C45.8655 44.376 46.0837 44.3445 46.317 44.3445C46.569 44.3445 46.7953 44.3818 46.996 44.4565C47.199 44.5288 47.3717 44.6303 47.514 44.761C47.6563 44.8917 47.7648 45.048 47.8395 45.23C47.9165 45.4097 47.955 45.608 47.955 45.825C47.955 46.0117 47.9282 46.1843 47.8745 46.343C47.8232 46.5017 47.752 46.6533 47.661 46.798C47.57 46.9403 47.4638 47.0792 47.3425 47.2145C47.2235 47.3475 47.0963 47.4828 46.961 47.6205L45.9635 48.6425C46.0918 48.6028 46.219 48.5725 46.345 48.5515C46.471 48.5305 46.5877 48.52 46.695 48.52H47.647ZM56.4104 48.716V49.5H53.5054V48.716H54.4854V46.1435C54.4854 46.0782 54.4866 46.0128 54.4889 45.9475C54.4912 45.8798 54.4947 45.8122 54.4994 45.7445L53.9184 46.2275C53.8671 46.2672 53.8157 46.2917 53.7644 46.301C53.7154 46.308 53.6687 46.308 53.6244 46.301C53.5801 46.2917 53.5404 46.2765 53.5054 46.2555C53.4704 46.2322 53.4447 46.2088 53.4284 46.1855L53.0854 45.7305L54.6744 44.397H55.5704V48.716H56.4104Z" fill="#B4B4B4"/>
<path d="M52.3867 47.0003L49.5742 49.1431L49.5742 44.8574L52.3867 47.0003Z" fill="#B4B4B4"/>
<path d="M70.7734 45.8565C70.8108 45.6022 70.8819 45.3805 70.9869 45.1915C71.0943 45.0025 71.2261 44.845 71.3824 44.719C71.5411 44.593 71.7219 44.4997 71.9249 44.439C72.1279 44.376 72.3461 44.3445 72.5794 44.3445C72.8314 44.3445 73.0554 44.3807 73.2514 44.453C73.4474 44.523 73.6131 44.6187 73.7484 44.74C73.8838 44.8613 73.9864 45.0025 74.0564 45.1635C74.1264 45.3222 74.1614 45.4902 74.1614 45.6675C74.1614 45.8285 74.1451 45.9708 74.1124 46.0945C74.0798 46.2158 74.0308 46.322 73.9654 46.413C73.9024 46.5017 73.8231 46.5775 73.7274 46.6405C73.6341 46.7012 73.5268 46.7525 73.4054 46.7945C73.9701 46.9928 74.2524 47.3778 74.2524 47.9495C74.2524 48.2202 74.2034 48.4558 74.1054 48.6565C74.0074 48.8572 73.8756 49.024 73.7099 49.157C73.5466 49.29 73.3564 49.3903 73.1394 49.458C72.9224 49.5233 72.6961 49.556 72.4604 49.556C72.2178 49.556 72.0019 49.5303 71.8129 49.479C71.6239 49.4253 71.4559 49.3437 71.3089 49.234C71.1619 49.122 71.0324 48.9797 70.9204 48.807C70.8108 48.6343 70.7151 48.429 70.6334 48.191L71.1164 47.995C71.2424 47.946 71.3591 47.9332 71.4664 47.9565C71.5738 47.9798 71.6508 48.0335 71.6974 48.1175C71.8024 48.3112 71.9133 48.4523 72.0299 48.541C72.1489 48.6273 72.2878 48.6705 72.4464 48.6705C72.5678 48.6705 72.6728 48.6507 72.7614 48.611C72.8524 48.569 72.9271 48.5165 72.9854 48.4535C73.0461 48.3882 73.0916 48.3147 73.1219 48.233C73.1523 48.1513 73.1674 48.0685 73.1674 47.9845C73.1674 47.8748 73.1593 47.7768 73.1429 47.6905C73.1289 47.6018 73.0869 47.526 73.0169 47.463C72.9469 47.4 72.8408 47.3522 72.6984 47.3195C72.5584 47.2845 72.3624 47.267 72.1104 47.267V46.518C72.3228 46.518 72.4943 46.5017 72.6249 46.469C72.7556 46.4363 72.8559 46.392 72.9259 46.336C72.9983 46.2777 73.0461 46.2077 73.0694 46.126C73.0928 46.0443 73.1044 45.9545 73.1044 45.8565C73.1044 45.6558 73.0554 45.5018 72.9574 45.3945C72.8618 45.2848 72.7148 45.23 72.5164 45.23C72.3554 45.23 72.2189 45.2732 72.1069 45.3595C71.9973 45.4435 71.9214 45.5485 71.8794 45.6745C71.8304 45.8028 71.7663 45.888 71.6869 45.93C71.6076 45.972 71.4944 45.9813 71.3474 45.958L70.7734 45.8565ZM83.8974 48.52C84.0141 48.52 84.1063 48.5527 84.1739 48.618C84.2416 48.681 84.2754 48.765 84.2754 48.87V49.5H80.6914V49.15C80.6914 49.0823 80.7054 49.01 80.7334 48.933C80.7614 48.856 80.8104 48.786 80.8804 48.723L82.3504 47.2425C82.4764 47.1165 82.5861 46.9963 82.6794 46.882C82.7728 46.7677 82.8498 46.6557 82.9104 46.546C82.9711 46.434 83.0166 46.3232 83.0469 46.2135C83.0773 46.1015 83.0924 45.9837 83.0924 45.86C83.0924 45.657 83.0434 45.5018 82.9454 45.3945C82.8498 45.2848 82.7028 45.23 82.5044 45.23C82.3434 45.23 82.2069 45.2732 82.0949 45.3595C81.9853 45.4435 81.9094 45.5485 81.8674 45.6745C81.8184 45.8028 81.7543 45.888 81.6749 45.93C81.5956 45.972 81.4824 45.9813 81.3354 45.958L80.7614 45.8565C80.7988 45.6022 80.8699 45.3805 80.9749 45.1915C81.0823 45.0025 81.2141 44.845 81.3704 44.719C81.5291 44.593 81.7099 44.4997 81.9129 44.439C82.1159 44.376 82.3341 44.3445 82.5674 44.3445C82.8194 44.3445 83.0458 44.3818 83.2464 44.4565C83.4494 44.5288 83.6221 44.6303 83.7644 44.761C83.9068 44.8917 84.0153 45.048 84.0899 45.23C84.1669 45.4097 84.2054 45.608 84.2054 45.825C84.2054 46.0117 84.1786 46.1843 84.1249 46.343C84.0736 46.5017 84.0024 46.6533 83.9114 46.798C83.8204 46.9403 83.7143 47.0792 83.5929 47.2145C83.4739 47.3475 83.3468 47.4828 83.2114 47.6205L82.2139 48.6425C82.3423 48.6028 82.4694 48.5725 82.5954 48.5515C82.7214 48.5305 82.8381 48.52 82.9454 48.52H83.8974ZM94.176 48.716V49.5H91.271V48.716H92.251V46.1435C92.251 46.0782 92.2521 46.0128 92.2545 45.9475C92.2568 45.8798 92.2603 45.8122 92.265 45.7445L91.684 46.2275C91.6326 46.2672 91.5813 46.2917 91.53 46.301C91.481 46.308 91.4343 46.308 91.39 46.301C91.3456 46.2917 91.306 46.2765 91.271 46.2555C91.236 46.2322 91.2103 46.2088 91.194 46.1855L90.851 45.7305L92.44 44.397H93.336V48.716H94.176Z" fill="#B4B4B4"/>
<path d="M78.7617 47.0003L75.9492 49.1431L75.9492 44.8574L78.7617 47.0003Z" fill="#B4B4B4"/>
<path d="M89.0742 47.0003L86.2617 49.1431L86.2617 44.8574L89.0742 47.0003Z" fill="#B4B4B4"/>
<path d="M105.881 48.52C105.998 48.52 106.09 48.5527 106.158 48.618C106.226 48.681 106.259 48.765 106.259 48.87V49.5H102.675V49.15C102.675 49.0823 102.689 49.01 102.717 48.933C102.745 48.856 102.794 48.786 102.864 48.723L104.334 47.2425C104.46 47.1165 104.57 46.9963 104.663 46.882C104.757 46.7677 104.834 46.6557 104.894 46.546C104.955 46.434 105.001 46.3232 105.031 46.2135C105.061 46.1015 105.076 45.9837 105.076 45.86C105.076 45.657 105.027 45.5018 104.929 45.3945C104.834 45.2848 104.687 45.23 104.488 45.23C104.327 45.23 104.191 45.2732 104.079 45.3595C103.969 45.4435 103.893 45.5485 103.851 45.6745C103.802 45.8028 103.738 45.888 103.659 45.93C103.58 45.972 103.466 45.9813 103.319 45.958L102.745 45.8565C102.783 45.6022 102.854 45.3805 102.959 45.1915C103.066 45.0025 103.198 44.845 103.354 44.719C103.513 44.593 103.694 44.4997 103.897 44.439C104.1 44.376 104.318 44.3445 104.551 44.3445C104.803 44.3445 105.03 44.3818 105.23 44.4565C105.433 44.5288 105.606 44.6303 105.748 44.761C105.891 44.8917 105.999 45.048 106.074 45.23C106.151 45.4097 106.189 45.608 106.189 45.825C106.189 46.0117 106.163 46.1843 106.109 46.343C106.058 46.5017 105.986 46.6533 105.895 46.798C105.804 46.9403 105.698 47.0792 105.577 47.2145C105.458 47.3475 105.331 47.4828 105.195 47.6205L104.198 48.6425C104.326 48.6028 104.453 48.5725 104.579 48.5515C104.705 48.5305 104.822 48.52 104.929 48.52H105.881ZM116.16 48.716V49.5H113.255V48.716H114.235V46.1435C114.235 46.0782 114.236 46.0128 114.238 45.9475C114.241 45.8798 114.244 45.8122 114.249 45.7445L113.668 46.2275C113.617 46.2672 113.565 46.2917 113.514 46.301C113.465 46.308 113.418 46.308 113.374 46.301C113.33 46.2917 113.29 46.2765 113.255 46.2555C113.22 46.2322 113.194 46.2088 113.178 46.1855L112.835 45.7305L114.424 44.397H115.32V48.716H116.16ZM122.805 45.8565C122.843 45.6022 122.914 45.3805 123.019 45.1915C123.126 45.0025 123.258 44.845 123.414 44.719C123.573 44.593 123.754 44.4997 123.957 44.439C124.16 44.376 124.378 44.3445 124.611 44.3445C124.863 44.3445 125.087 44.3807 125.283 44.453C125.479 44.523 125.645 44.6187 125.78 44.74C125.916 44.8613 126.018 45.0025 126.088 45.1635C126.158 45.3222 126.193 45.4902 126.193 45.6675C126.193 45.8285 126.177 45.9708 126.144 46.0945C126.112 46.2158 126.063 46.322 125.997 46.413C125.934 46.5017 125.855 46.5775 125.759 46.6405C125.666 46.7012 125.559 46.7525 125.437 46.7945C126.002 46.9928 126.284 47.3778 126.284 47.9495C126.284 48.2202 126.235 48.4558 126.137 48.6565C126.039 48.8572 125.908 49.024 125.742 49.157C125.579 49.29 125.388 49.3903 125.171 49.458C124.954 49.5233 124.728 49.556 124.492 49.556C124.25 49.556 124.034 49.5303 123.845 49.479C123.656 49.4253 123.488 49.3437 123.341 49.234C123.194 49.122 123.064 48.9797 122.952 48.807C122.843 48.6343 122.747 48.429 122.665 48.191L123.148 47.995C123.274 47.946 123.391 47.9332 123.498 47.9565C123.606 47.9798 123.683 48.0335 123.729 48.1175C123.834 48.3112 123.945 48.4523 124.062 48.541C124.181 48.6273 124.32 48.6705 124.478 48.6705C124.6 48.6705 124.705 48.6507 124.793 48.611C124.884 48.569 124.959 48.5165 125.017 48.4535C125.078 48.3882 125.124 48.3147 125.154 48.233C125.184 48.1513 125.199 48.0685 125.199 47.9845C125.199 47.8748 125.191 47.7768 125.175 47.6905C125.161 47.6018 125.119 47.526 125.049 47.463C124.979 47.4 124.873 47.3522 124.73 47.3195C124.59 47.2845 124.394 47.267 124.142 47.267V46.518C124.355 46.518 124.526 46.5017 124.657 46.469C124.788 46.4363 124.888 46.392 124.958 46.336C125.03 46.2777 125.078 46.2077 125.101 46.126C125.125 46.0443 125.136 45.9545 125.136 45.8565C125.136 45.6558 125.087 45.5018 124.989 45.3945C124.894 45.2848 124.747 45.23 124.548 45.23C124.387 45.23 124.251 45.2732 124.139 45.3595C124.029 45.4435 123.953 45.5485 123.911 45.6745C123.862 45.8028 123.798 45.888 123.719 45.93C123.64 45.972 123.526 45.9813 123.379 45.958L122.805 45.8565Z" fill="#B4B4B4"/>
<path d="M110.762 47.0003L107.949 49.1431L107.949 44.8574L110.762 47.0003Z" fill="#B4B4B4"/>
<path d="M118.262 46.9997L121.074 44.8569L121.074 49.1426L118.262 46.9997Z" fill="#B4B4B4"/>
<path d="M3.5 43H129.5V42H3.5V43ZM131 44.5V49.5H132V44.5H131ZM129.5 51H3.5V52H129.5V51ZM2 49.5V44.5H1V49.5H2ZM3.5 51C2.67157 51 2 50.3284 2 49.5H1C1 50.8807 2.11929 52 3.5 52V51ZM131 49.5C131 50.3284 130.328 51 129.5 51V52C130.881 52 132 50.8807 132 49.5H131ZM129.5 43C130.328 43 131 43.6716 131 44.5H132C132 43.1193 130.881 42 129.5 42V43ZM3.5 42C2.11929 42 1 43.1193 1 44.5H2C2 43.6716 2.67157 43 3.5 43V42Z" fill="black"/>
</svg>
