<svg width="51" height="760" viewBox="0 0 51 760" fill="none" xmlns="http://www.w3.org/2000/svg">
<rect x="2.5" y="2.5" width="21" height="11" rx="1" fill="url(#paint0_linear)"/>
<rect x="2.5" y="2.5" width="21" height="11" rx="1" stroke="url(#paint1_linear)"/>
<path d="M4.69995 8.0154C5.25084 3.52956 8.99995 4.0154 8.99995 4.0154M13 8.0308C12.4491 3.54496 8.49995 4.0154 8.49995 4.0154M13 8C13.5508 12.4858 17.3951 12.0271 17.5 12.0154M21.3 8.00126C20.7491 12.4871 16.8 12.0167 16.8 12.0167" stroke="black" stroke-linecap="round"/>
<rect x="27.5" y="78.5" width="21" height="11" rx="1" fill="url(#paint2_linear)"/>
<rect x="27.5" y="78.5" width="21" height="11" rx="1" stroke="url(#paint3_linear)"/>
<path d="M46.55 84.0156L42.55 88.0156L34.55 80.0156L30.25 84.0156" stroke="black" stroke-linecap="round"/>
<rect x="2.5" y="169.5" width="21" height="11" rx="1" fill="url(#paint4_linear)"/>
<rect x="2.5" y="169.5" width="21" height="11" rx="1" stroke="url(#paint5_linear)"/>
<path d="M13 178.534L21 178.534M5 178.534L5 171.534L5 178.534ZM13 171.534L13 178.534L13 171.534ZM21 171.534L21 178.534L21 171.534ZM5 171.534H13H5Z" stroke="black" stroke-linecap="round" stroke-linejoin="round"/>
<rect width="21" height="11" transform="translate(27.5 245.5)" fill="url(#paint6_linear)"/>
<rect x="27.5" y="245.5" width="21" height="11" rx="1" fill="url(#paint7_linear)"/>
<rect x="27.5" y="245.5" width="21" height="11" rx="1" stroke="url(#paint8_linear)"/>
<path d="M38.3999 247.016L46.3999 255.016M30.3999 255.016L30.3999 247.016L30.3999 255.016ZM38.3999 247.016L38.3999 255.016L38.3999 247.016ZM30.3999 247.016L38.3999 255.016L30.3999 247.016Z" stroke="black" stroke-linecap="round" stroke-linejoin="round"/>
<rect width="21" height="11" transform="translate(2.5 336.5)" fill="url(#paint9_linear)"/>
<rect x="2.5" y="336.5" width="21" height="11" rx="1" fill="url(#paint10_linear)"/>
<rect x="2.5" y="336.5" width="21" height="11" rx="1" stroke="url(#paint11_linear)"/>
<path d="M4 341.109C4.04326 340.087 4.74512 336.53 5 337.109C5.25488 337.689 5.40018 343.043 5.90018 344.043C6.40018 345.043 6.53032 340.541 7 341.109C7.46968 341.678 7.31225 346.836 7.77889 346.317C8.24553 345.798 8.44472 339.911 9 339.109C9.55528 338.307 9.4648 343.376 10 343.109C10.5352 342.843 10.6408 337.544 11.1408 338.044C11.6408 338.544 11.5352 344.093 12 345.109C12.4648 346.126 12.5062 341.832 13 342.109C13.4938 342.387 13.5172 346.846 14 346.109C14.4828 345.373 14.4312 339.915 14.9312 339.165C15.4312 338.415 15.5221 343.381 16 343.109C16.4779 342.837 16.3428 337.577 16.8428 338.077C17.3428 338.577 17.4607 344.101 18 345.109C18.5393 346.117 18.5148 342.384 19 342.109C19.4853 341.834 19.4411 345.26 19.9411 344.01C20.441 342.76 20.4853 337.834 21 337.109C21.5147 336.384 22 341.109 22 341.109" stroke="black" stroke-width="0.75"/>
<rect x="27.5" y="412.5" width="21" height="11" rx="1" fill="url(#paint12_linear)"/>
<rect x="27.5" y="412.5" width="21" height="11" rx="1" stroke="url(#paint13_linear)"/>
<path d="M39.3999 421.016H41.3999M31.3999 418.016L31.3999 414.016L31.3999 418.016ZM39.3999 421.016L39.3999 415.016L39.3999 421.016ZM33.3999 414.016L33.3999 417.016L33.3999 414.016ZM43.3999 416.016L43.3999 417.516L43.3999 416.016ZM35.3999 417.016L35.3999 422.016L35.3999 417.016ZM41.3999 417.516L41.3999 421.016L41.3999 417.516ZM45.3999 416.016L45.3999 420.016L45.3999 416.016ZM37.3999 415.016L37.3999 422.016L37.3999 415.016ZM31.3999 414.016H33.3999H31.3999ZM33.3999 417.016H35.3999H33.3999ZM35.3999 422.016H37.3999H35.3999ZM37.3999 415.016H39.3999H37.3999ZM41.3999 417.516H43.3999H41.3999ZM43.3999 416.016H45.3999H43.3999ZM29.3999 418.016H31.3999H29.3999ZM45.3999 420.016L47.3999 420.016L45.3999 420.016Z" stroke="black" stroke-linecap="round" stroke-linejoin="round"/>
<rect x="2.5" y="503.5" width="21" height="11" rx="1" fill="url(#paint14_linear)"/>
<rect x="2.5" y="503.5" width="21" height="11" rx="1" stroke="url(#paint15_linear)"/>
<path d="M18 508.854L21 512.854M5 512.854L8 504.854L5 512.854ZM18 508.854H11H18ZM8 504.854L11 508.854L8 504.854Z" stroke="black" stroke-linecap="round" stroke-linejoin="round"/>
<rect x="27.5" y="579.5" width="21" height="11" rx="1" fill="url(#paint16_linear)"/>
<rect x="27.5" y="579.5" width="21" height="11" rx="1" stroke="url(#paint17_linear)"/>
<path fill-rule="evenodd" clip-rule="evenodd" d="M29 590.016H31L31 585.016H29L29 590.016ZM45.8 590.016H47.8L47.8 585.016H45.8L45.8 590.016ZM33.1 588.016H31.1L31.1 585.016H33.1L33.1 588.016ZM45.7 588.016H43.7L43.7 585.016H45.7L45.7 588.016ZM33.2 585.266H35.2V584.766H33.2V585.266ZM43.6 585.266H41.6V584.766H43.6V585.266ZM35.3 585.016H37.3L37.3 582.016H35.3L35.3 585.016ZM39.4 585.016H37.4L37.4 580.016H39.4L39.4 585.016ZM39.5 585.016H41.5L41.5 582.016H39.5L39.5 585.016Z" fill="black"/>
<rect width="21" height="11" transform="translate(2.5 670.5)" fill="url(#paint18_linear)"/>
<rect x="2.5" y="670.5" width="21" height="11" rx="1" fill="url(#paint19_linear)"/>
<rect x="2.5" y="670.5" width="21" height="11" rx="1" stroke="url(#paint20_linear)"/>
<path fill-rule="evenodd" clip-rule="evenodd" d="M11 672.5C11 672.224 11.2239 672 11.5 672C11.7761 672 12 672.224 12 672.5C12 672.776 11.7761 673 11.5 673C11.2239 673 11 672.776 11 672.5ZM11.0088 673.371C10.5784 673.525 10.2346 673.82 9.93023 674.223C9.44741 674.862 9.09614 675.731 8.71428 676.686L8.69941 676.723C8.33538 677.633 7.93961 678.622 7.36773 679.379C6.88225 680.022 6.25209 680.52 5.39899 680.688C5.2365 681.021 4.895 681.25 4.5 681.25C3.94772 681.25 3.5 680.802 3.5 680.25C3.5 679.698 3.94772 679.25 4.5 679.25C4.84065 679.25 5.14151 679.42 5.32208 679.68C5.8332 679.548 6.22662 679.231 6.56986 678.777C7.05268 678.138 7.40395 677.269 7.78581 676.314L7.80068 676.277C8.16471 675.367 8.56048 674.377 9.13236 673.62C9.49607 673.139 9.94098 672.738 10.5 672.497C10.5016 671.946 10.9487 671.5 11.5 671.5C12.0523 671.5 12.5 671.948 12.5 672.5C12.5 672.668 12.4586 672.826 12.3855 672.965C12.4311 673.068 12.4851 673.187 12.5469 673.32C12.7611 673.779 13.0655 674.387 13.4288 674.993C13.7945 675.602 14.2076 676.188 14.6349 676.615C14.8268 676.807 15.0067 676.952 15.173 677.055C15.2755 677.019 15.3855 677 15.5 677C15.5217 677 15.5432 677.001 15.5645 677.002C15.5975 676.94 15.6335 676.874 15.6723 676.804C15.9151 676.367 16.2727 675.781 16.7304 675.193C17.4048 674.326 18.36 673.371 19.5431 672.959C19.6678 672.548 20.0491 672.25 20.5 672.25C21.0523 672.25 21.5 672.698 21.5 673.25C21.5 673.802 21.0523 674.25 20.5 674.25C20.2149 674.25 19.9577 674.131 19.7755 673.939C18.9176 674.271 18.1489 674.998 17.5197 675.807C17.1024 676.343 16.7725 676.883 16.5465 677.29C16.4909 677.39 16.4418 677.481 16.3994 677.562C16.4639 677.695 16.5 677.843 16.5 678C16.5 678.552 16.0523 679 15.5 679C14.9477 679 14.5 678.552 14.5 678C14.5 677.938 14.5056 677.878 14.5162 677.82C14.3049 677.674 14.108 677.502 13.9277 677.322C13.4175 676.812 12.9556 676.148 12.5713 675.507C12.1846 674.863 11.864 674.221 11.6407 673.743C11.6004 673.656 11.5631 673.575 11.5292 673.5C11.5195 673.5 11.5098 673.5 11.5 673.5C11.3215 673.5 11.1539 673.453 11.0088 673.371ZM4.5 679.75C4.22386 679.75 4 679.974 4 680.25C4 680.526 4.22386 680.75 4.5 680.75C4.77614 680.75 5 680.526 5 680.25C5 679.974 4.77614 679.75 4.5 679.75ZM15.5 677.5C15.2239 677.5 15 677.724 15 678C15 678.276 15.2239 678.5 15.5 678.5C15.7761 678.5 16 678.276 16 678C16 677.724 15.7761 677.5 15.5 677.5ZM20 673.25C20 672.974 20.2239 672.75 20.5 672.75C20.7761 672.75 21 672.974 21 673.25C21 673.526 20.7761 673.75 20.5 673.75C20.2239 673.75 20 673.526 20 673.25Z" fill="black"/>
<rect x="27.5" y="746.5" width="21" height="11" rx="1" fill="url(#paint21_linear)"/>
<rect x="27.5" y="746.5" width="21" height="11" rx="1" stroke="url(#paint22_linear)"/>
<path d="M31.2837 753.142L31.6265 751.788H32.0396L32.1421 751.445H31.7173C31.8384 750.951 31.9985 750.59 32.1978 750.361C32.3188 750.219 32.437 750.147 32.5523 750.147C32.5757 750.147 32.5947 750.154 32.6094 750.168C32.624 750.182 32.6314 750.199 32.6314 750.221C32.6314 750.24 32.6152 750.277 32.583 750.332C32.5508 750.387 32.5347 750.438 32.5347 750.487C32.5347 750.556 32.5601 750.614 32.6108 750.663C32.6616 750.712 32.7261 750.736 32.8042 750.736C32.8882 750.736 32.9585 750.707 33.0151 750.647C33.0718 750.587 33.1001 750.507 33.1001 750.405C33.1001 750.29 33.0576 750.196 32.9727 750.124C32.8877 750.052 32.7515 750.016 32.564 750.016C32.271 750.016 32.0054 750.102 31.7671 750.273C31.5288 750.445 31.3022 750.729 31.0874 751.126C31.0132 751.263 30.9429 751.351 30.8765 751.39C30.8101 751.429 30.7036 751.447 30.5571 751.445L30.4605 751.788H30.8677L30.27 754.129C30.1704 754.514 30.103 754.751 30.0679 754.841C30.0171 754.972 29.9399 755.083 29.8364 755.175C29.7954 755.212 29.7456 755.23 29.687 755.23C29.6714 755.23 29.6577 755.226 29.646 755.216L29.6314 755.195C29.6314 755.186 29.646 755.166 29.6753 755.135C29.7046 755.105 29.7192 755.059 29.7192 754.996C29.7192 754.928 29.6958 754.871 29.6489 754.826C29.602 754.781 29.5347 754.759 29.4468 754.759C29.3413 754.759 29.2563 754.788 29.1919 754.847C29.1274 754.905 29.0952 754.975 29.0952 755.055C29.0952 755.141 29.1343 755.215 29.2124 755.279C29.2905 755.342 29.4126 755.374 29.5786 755.374C29.8423 755.374 30.0762 755.305 30.2803 755.167C30.4844 755.03 30.6626 754.817 30.8149 754.53C30.9673 754.243 31.1235 753.78 31.2837 753.142ZM46.2807 751.782L46.7876 750.016H46.6118L45.6333 750.188L45.6011 750.306C45.7124 750.3 45.7954 750.316 45.8501 750.355C45.8892 750.383 45.9087 750.42 45.9087 750.467C45.9087 750.521 45.8872 750.622 45.8442 750.769L44.9477 753.877C45.3071 754.066 45.648 754.161 45.9702 754.161C46.4038 754.161 46.7906 753.979 47.1304 753.613C47.5132 753.199 47.7046 752.729 47.7046 752.201C47.7046 751.98 47.6465 751.786 47.5303 751.617C47.4141 751.448 47.2388 751.363 47.0044 751.363C46.8833 751.363 46.771 751.391 46.6675 751.447C46.564 751.502 46.4351 751.614 46.2807 751.782ZM41.7075 751.899H43.1167V750.493H43.5005V751.899H44.9096V752.286H43.5005L43.5005 753.681H43.1167L43.1167 752.286H41.7075V751.899ZM38.3472 751.404L37.7788 753.353L37.7202 753.59C37.7144 753.619 37.7114 753.641 37.7114 753.654C37.7114 753.678 37.7197 753.698 37.7363 753.716C37.7529 753.733 37.77 753.742 37.7876 753.742C37.8286 753.742 37.8853 753.711 37.9575 753.648C37.9868 753.623 38.0571 753.533 38.1685 753.379L38.271 753.432C38.1323 753.686 37.9844 753.871 37.8272 753.987C37.6699 754.103 37.5005 754.161 37.3189 754.161C37.2075 754.161 37.1226 754.132 37.064 754.075C37.0054 754.017 36.9761 753.944 36.9761 753.856C36.9761 753.78 37.0073 753.639 37.0698 753.432L37.1401 753.194C36.9136 753.583 36.6958 753.858 36.4868 754.021C36.3657 754.114 36.2368 754.161 36.1001 754.161C35.9204 754.161 35.7905 754.087 35.7105 753.94C35.6304 753.792 35.5903 753.626 35.5903 753.44C35.5903 753.165 35.6743 752.849 35.8423 752.493C36.0103 752.136 36.231 751.85 36.5044 751.633C36.729 751.453 36.9399 751.363 37.1372 751.363C37.2466 751.363 37.3345 751.395 37.4009 751.458C37.4673 751.522 37.5161 751.638 37.5474 751.806L37.6528 751.445L38.3472 751.404ZM39.768 751.363L38.7456 751.539L38.7251 751.65C38.8013 751.635 38.8657 751.627 38.9184 751.627C39.02 751.627 39.104 751.671 39.1704 751.759C39.2759 751.896 39.4224 752.312 39.6098 753.007C39.4634 753.204 39.3628 753.333 39.3081 753.394C39.2183 753.491 39.144 753.555 39.0854 753.584C39.0405 753.607 38.9897 753.619 38.9331 753.619C38.8901 753.619 38.8198 753.596 38.7221 753.549C38.6557 753.518 38.5962 753.502 38.5434 753.502C38.4438 753.502 38.3618 753.534 38.2974 753.599C38.2329 753.663 38.2007 753.745 38.2007 753.845C38.2007 753.938 38.2305 754.015 38.29 754.073C38.3496 754.132 38.4302 754.161 38.5317 754.161C38.6294 754.161 38.7212 754.141 38.8071 754.1C38.8931 754.059 39.001 753.971 39.1308 753.837C39.2608 753.704 39.44 753.491 39.6684 753.2C39.7564 753.478 39.8326 753.679 39.897 753.805C39.9614 753.931 40.0351 754.022 40.1181 754.078C40.2012 754.133 40.3052 754.161 40.4302 754.161C40.5513 754.161 40.6743 754.117 40.7993 754.029C40.9634 753.916 41.1314 753.721 41.3032 753.443L41.1977 753.382C41.0806 753.546 40.9937 753.648 40.937 753.689C40.8999 753.715 40.856 753.728 40.8052 753.728C40.7446 753.728 40.685 753.689 40.6264 753.613C40.5268 753.484 40.394 753.127 40.228 752.541C40.3765 752.279 40.5015 752.108 40.603 752.028C40.6772 751.97 40.7554 751.94 40.8374 751.94C40.8687 751.94 40.9248 751.952 41.0058 751.974C41.0869 751.997 41.1587 752.008 41.2212 752.008C41.3072 752.008 41.3789 751.978 41.4365 751.918C41.4941 751.859 41.5229 751.782 41.5229 751.688C41.5229 751.589 41.4941 751.51 41.4365 751.451C41.3789 751.393 41.2964 751.363 41.1889 751.363C41.0933 751.363 41.0029 751.386 40.9179 751.432C40.833 751.478 40.7251 751.577 40.5942 751.729C40.4966 751.843 40.352 752.041 40.1606 752.324C40.0845 751.975 39.9536 751.654 39.768 751.363ZM35.4937 751.431H32.2886V751.812H35.4937V751.431ZM37.4097 751.961C37.4097 751.803 37.3853 751.688 37.3364 751.618C37.3013 751.569 37.2534 751.545 37.1929 751.545C37.1323 751.545 37.0698 751.574 37.0054 751.633C36.8745 751.754 36.7334 752 36.582 752.37C36.4307 752.74 36.355 753.06 36.355 753.329C36.355 753.433 36.3721 753.507 36.4063 753.553C36.4404 753.599 36.478 753.622 36.519 753.622C36.6069 753.622 36.6958 753.571 36.7856 753.47C36.9145 753.325 37.0308 753.148 37.1343 752.939C37.3179 752.572 37.4097 752.246 37.4097 751.961ZM45.9116 753.994C45.8374 753.994 45.7544 753.965 45.6626 753.906L46.061 752.529C46.1411 752.25 46.2153 752.067 46.2837 751.981C46.3853 751.849 46.5044 751.782 46.6411 751.782C46.7231 751.782 46.7954 751.818 46.8579 751.891C46.9204 751.963 46.9516 752.068 46.9516 752.207C46.9516 752.451 46.9106 752.696 46.8286 752.942C46.7466 753.188 46.6445 753.398 46.5224 753.572C46.4004 753.746 46.2837 753.866 46.1723 753.933C46.1021 753.974 46.0152 753.994 45.9116 753.994ZM35.4937 752.389H32.2886V752.77H35.4937V752.389Z" fill="black"/>
<defs>
<linearGradient id="paint0_linear" x1="13" y1="2.5" x2="13" y2="13.5" gradientUnits="userSpaceOnUse">
<stop stop-color="#B4B4B4"/>
<stop offset="1" stop-color="#E4E4E4"/>
</linearGradient>
<linearGradient id="paint1_linear" x1="13" y1="2.5" x2="13" y2="13.5" gradientUnits="userSpaceOnUse">
<stop stop-color="#B4B4B4"/>
<stop offset="1" stop-color="#E4E4E4"/>
</linearGradient>
<linearGradient id="paint2_linear" x1="38" y1="78.5" x2="38" y2="89.5" gradientUnits="userSpaceOnUse">
<stop stop-color="#B4B4B4"/>
<stop offset="1" stop-color="#E4E4E4"/>
</linearGradient>
<linearGradient id="paint3_linear" x1="38" y1="78.5" x2="38" y2="89.5" gradientUnits="userSpaceOnUse">
<stop stop-color="#B4B4B4"/>
<stop offset="1" stop-color="#E4E4E4"/>
</linearGradient>
<linearGradient id="paint4_linear" x1="13" y1="169.5" x2="13" y2="180.5" gradientUnits="userSpaceOnUse">
<stop stop-color="#B4B4B4"/>
<stop offset="1" stop-color="#E4E4E4"/>
</linearGradient>
<linearGradient id="paint5_linear" x1="13" y1="169.5" x2="13" y2="180.5" gradientUnits="userSpaceOnUse">
<stop stop-color="#B4B4B4"/>
<stop offset="1" stop-color="#E4E4E4"/>
</linearGradient>
<linearGradient id="paint6_linear" x1="10.5" y1="0" x2="10.5" y2="11" gradientUnits="userSpaceOnUse">
<stop stop-color="#B4B4B4"/>
<stop offset="1" stop-color="#E4E4E4"/>
</linearGradient>
<linearGradient id="paint7_linear" x1="38" y1="245.5" x2="38" y2="256.5" gradientUnits="userSpaceOnUse">
<stop stop-color="#B4B4B4"/>
<stop offset="1" stop-color="#E4E4E4"/>
</linearGradient>
<linearGradient id="paint8_linear" x1="38" y1="245.5" x2="38" y2="256.5" gradientUnits="userSpaceOnUse">
<stop stop-color="#B4B4B4"/>
<stop offset="1" stop-color="#E4E4E4"/>
</linearGradient>
<linearGradient id="paint9_linear" x1="10.5" y1="0" x2="10.5" y2="11" gradientUnits="userSpaceOnUse">
<stop stop-color="#B4B4B4"/>
<stop offset="1" stop-color="#E4E4E4"/>
</linearGradient>
<linearGradient id="paint10_linear" x1="13" y1="336.5" x2="13" y2="347.5" gradientUnits="userSpaceOnUse">
<stop stop-color="#B4B4B4"/>
<stop offset="1" stop-color="#E4E4E4"/>
</linearGradient>
<linearGradient id="paint11_linear" x1="13" y1="336.5" x2="13" y2="347.5" gradientUnits="userSpaceOnUse">
<stop stop-color="#B4B4B4"/>
<stop offset="1" stop-color="#E4E4E4"/>
</linearGradient>
<linearGradient id="paint12_linear" x1="38" y1="412.5" x2="38" y2="423.5" gradientUnits="userSpaceOnUse">
<stop stop-color="#B4B4B4"/>
<stop offset="1" stop-color="#E4E4E4"/>
</linearGradient>
<linearGradient id="paint13_linear" x1="38" y1="412.5" x2="38" y2="423.5" gradientUnits="userSpaceOnUse">
<stop stop-color="#B4B4B4"/>
<stop offset="1" stop-color="#E4E4E4"/>
</linearGradient>
<linearGradient id="paint14_linear" x1="13" y1="503.5" x2="13" y2="514.5" gradientUnits="userSpaceOnUse">
<stop stop-color="#B4B4B4"/>
<stop offset="1" stop-color="#E4E4E4"/>
</linearGradient>
<linearGradient id="paint15_linear" x1="13" y1="503.5" x2="13" y2="514.5" gradientUnits="userSpaceOnUse">
<stop stop-color="#B4B4B4"/>
<stop offset="1" stop-color="#E4E4E4"/>
</linearGradient>
<linearGradient id="paint16_linear" x1="38" y1="579.5" x2="38" y2="590.5" gradientUnits="userSpaceOnUse">
<stop stop-color="#B4B4B4"/>
<stop offset="1" stop-color="#E4E4E4"/>
</linearGradient>
<linearGradient id="paint17_linear" x1="38" y1="579.5" x2="38" y2="590.5" gradientUnits="userSpaceOnUse">
<stop stop-color="#B4B4B4"/>
<stop offset="1" stop-color="#E4E4E4"/>
</linearGradient>
<linearGradient id="paint18_linear" x1="10.5" y1="0" x2="10.5" y2="11" gradientUnits="userSpaceOnUse">
<stop stop-color="#B4B4B4"/>
<stop offset="1" stop-color="#E4E4E4"/>
</linearGradient>
<linearGradient id="paint19_linear" x1="13" y1="670.5" x2="13" y2="681.5" gradientUnits="userSpaceOnUse">
<stop stop-color="#B4B4B4"/>
<stop offset="1" stop-color="#E4E4E4"/>
</linearGradient>
<linearGradient id="paint20_linear" x1="13" y1="670.5" x2="13" y2="681.5" gradientUnits="userSpaceOnUse">
<stop stop-color="#B4B4B4"/>
<stop offset="1" stop-color="#E4E4E4"/>
</linearGradient>
<linearGradient id="paint21_linear" x1="38" y1="746.5" x2="38" y2="757.5" gradientUnits="userSpaceOnUse">
<stop stop-color="#B4B4B4"/>
<stop offset="1" stop-color="#E4E4E4"/>
</linearGradient>
<linearGradient id="paint22_linear" x1="38" y1="746.5" x2="38" y2="757.5" gradientUnits="userSpaceOnUse">
<stop stop-color="#B4B4B4"/>
<stop offset="1" stop-color="#E4E4E4"/>
</linearGradient>
</defs>
</svg>
