<svg width="11" height="22" viewBox="0 0 11 22" fill="none" xmlns="http://www.w3.org/2000/svg">
<rect x="2.5" y="2.5" width="6" height="6" rx="0.25" fill="url(#paint0_linear)"/>
<rect x="2.5" y="2.5" width="6" height="6" rx="0.25" stroke="url(#paint1_linear)"/>
<path fill-rule="evenodd" clip-rule="evenodd" d="M6.2751 3L3.40025 5.84901L5.12516 7.55842L8 4.70941L6.2751 3ZM4.62627 8L3 6.38824V8H4.62627Z" fill="black"/>
<rect x="1.5" y="12.5" width="8" height="8" rx="1" fill="url(#paint2_linear)"/>
<path fill-rule="evenodd" clip-rule="evenodd" d="M6.2751 14L3.40025 16.849L5.12516 18.5584L8 15.7094L6.2751 14ZM4.62627 19L3 17.3882V19H4.62627Z" fill="black"/>
<defs>
<linearGradient id="paint0_linear" x1="5.5" y1="2.5" x2="5.5" y2="8.5" gradientUnits="userSpaceOnUse">
<stop stop-color="#B4B4B4"/>
<stop offset="1" stop-color="#E4E4E4"/>
</linearGradient>
<linearGradient id="paint1_linear" x1="5.5" y1="2.5" x2="5.5" y2="8.5" gradientUnits="userSpaceOnUse">
<stop stop-color="#B4B4B4"/>
<stop offset="1" stop-color="#E4E4E4"/>
</linearGradient>
<linearGradient id="paint2_linear" x1="5.5" y1="12.5" x2="5.5" y2="20.5" gradientUnits="userSpaceOnUse">
<stop stop-color="#B4B4B4"/>
<stop offset="1" stop-color="#E4E4E4"/>
</linearGradient>
</defs>
</svg>
