<svg width="13" height="52" viewBox="0 0 13 52" fill="none" xmlns="http://www.w3.org/2000/svg">
<path fill-rule="evenodd" clip-rule="evenodd" d="M12.2 4.33504C12.2 2.59771 10.7766 1.19 9.02189 1.19C7.95638 1.19 7.01693 1.70992 6.44001 2.50574C5.86309 1.70992 4.92272 1.19 3.85813 1.19C2.10345 1.19 0.680008 2.59771 0.680008 4.33504C0.680008 4.58088 0.712212 4.81945 0.76558 5.04891C1.20724 7.76143 4.25563 10.6242 6.44001 11.41C8.62439 10.6242 11.6728 7.76143 12.1135 5.04891C12.1678 4.81945 12.2 4.58088 12.2 4.33504Z" stroke="#BBBBBB"/>
<path fill-rule="evenodd" clip-rule="evenodd" d="M12.1 17.335C12.1 15.5977 10.6766 14.19 8.92188 14.19C7.85637 14.19 6.91692 14.7099 6.34 15.5057C5.76308 14.7099 4.82271 14.19 3.75812 14.19C2.00344 14.19 0.580002 15.5977 0.580002 17.335C0.580002 17.5809 0.612206 17.8194 0.665574 18.0489C1.10723 20.7614 4.15562 23.6242 6.34 24.41C8.52438 23.6242 11.5728 20.7614 12.0135 18.0489C12.0678 17.8194 12.1 17.5809 12.1 17.335Z" stroke="#0077BB"/>
<path fill-rule="evenodd" clip-rule="evenodd" d="M12.2 30.335C12.2 28.5977 10.7766 27.19 9.02189 27.19C7.95638 27.19 7.01693 27.7099 6.44001 28.5057C5.86309 27.7099 4.92272 27.19 3.85813 27.19C2.10345 27.19 0.680008 28.5977 0.680008 30.335C0.680008 30.5809 0.712212 30.8194 0.76558 31.0489C1.20724 33.7614 4.25563 36.6242 6.44001 37.41C8.62439 36.6242 11.6728 33.7614 12.1135 31.0489C12.1678 30.8194 12.2 30.5809 12.2 30.335Z" fill="#CC3311" stroke="#CC3311"/>
<path fill-rule="evenodd" clip-rule="evenodd" d="M12.2 43.335C12.2 41.5977 10.7766 40.19 9.02189 40.19C7.95638 40.19 7.01693 40.7099 6.44001 41.5057C5.86309 40.7099 4.92272 40.19 3.85813 40.19C2.10345 40.19 0.680008 41.5977 0.680008 43.335C0.680008 43.5809 0.712212 43.8194 0.76558 44.0489C1.20724 46.7614 4.25563 49.6242 6.44001 50.41C8.62439 49.6242 11.6728 46.7614 12.1135 44.0489C12.1678 43.8194 12.2 43.5809 12.2 43.335Z" fill="#CC3311" stroke="#0077BB"/>
</svg>
