<svg width="216" height="72" viewBox="0 0 216 72" fill="none" xmlns="http://www.w3.org/2000/svg">
<path fill-rule="evenodd" clip-rule="evenodd" d="M18 39.2999C10.044 39.2999 3.59998 46.0124 3.59998 54.3C3.59998 60.9375 7.72198 66.5437 13.446 68.5312C14.166 68.6625 14.436 68.2125 14.436 67.8187C14.436 67.4625 14.418 66.2812 14.418 65.025C10.8 65.7187 9.86398 64.1062 9.57598 63.2625C9.41398 62.8312 8.71198 61.5 8.09998 61.1437C7.59598 60.8625 6.87598 60.1687 8.08198 60.15C9.21598 60.1312 10.026 61.2375 10.296 61.6875C11.592 63.9562 13.662 63.3187 14.49 62.925C14.616 61.95 14.994 61.2937 15.408 60.9187C12.204 60.5437 8.85598 59.25 8.85598 53.5125C8.85598 51.8812 9.41398 50.5311 10.332 49.4811C10.188 49.1062 9.68398 47.5686 10.476 45.5061C10.476 45.5061 11.682 45.1124 14.436 47.0437C15.588 46.7062 16.812 46.5374 18.036 46.5374C19.26 46.5374 20.484 46.7062 21.636 47.0437C24.39 45.0937 25.596 45.5061 25.596 45.5061C26.388 47.5686 25.884 49.1062 25.74 49.4811C26.658 50.5311 27.216 51.8625 27.216 53.5125C27.216 59.2687 23.85 60.5437 20.646 60.9187C21.168 61.3875 21.618 62.2875 21.618 63.6937C21.618 65.7 21.6 67.3125 21.6 67.8187C21.6 68.2125 21.87 68.6812 22.59 68.5312C28.278 66.5437 32.4 60.9187 32.4 54.3C32.4 46.0124 25.956 39.2999 18 39.2999Z" fill="white"/>
<path fill-rule="evenodd" clip-rule="evenodd" d="M18 3.29993C10.044 3.29993 3.59998 10.0124 3.59998 18.3C3.59998 24.9375 7.72198 30.5437 13.446 32.5312C14.166 32.6625 14.436 32.2125 14.436 31.8187C14.436 31.4625 14.418 30.2812 14.418 29.025C10.8 29.7187 9.86398 28.1062 9.57598 27.2625C9.41398 26.8312 8.71198 25.5 8.09998 25.1437C7.59598 24.8625 6.87598 24.1687 8.08198 24.15C9.21598 24.1312 10.026 25.2375 10.296 25.6875C11.592 27.9562 13.662 27.3187 14.49 26.925C14.616 25.95 14.994 25.2937 15.408 24.9187C12.204 24.5437 8.85598 23.25 8.85598 17.5125C8.85598 15.8812 9.41398 14.5312 10.332 13.4811C10.188 13.1062 9.68398 11.5687 10.476 9.50618C10.476 9.50618 11.682 9.11243 14.436 11.0437C15.588 10.7062 16.812 10.5374 18.036 10.5374C19.26 10.5374 20.484 10.7062 21.636 11.0437C24.39 9.09368 25.596 9.50618 25.596 9.50618C26.388 11.5687 25.884 13.1062 25.74 13.4811C26.658 14.5312 27.216 15.8625 27.216 17.5125C27.216 23.2687 23.85 24.5437 20.646 24.9187C21.168 25.3875 21.618 26.2875 21.618 27.6937C21.618 29.7 21.6 31.3125 21.6 31.8187C21.6 32.2125 21.87 32.6812 22.59 32.5312C28.278 30.5437 32.4 24.9187 32.4 18.3C32.4 10.0124 25.956 3.29993 18 3.29993Z" fill="white"/>
<path fill-rule="evenodd" clip-rule="evenodd" d="M70.6747 43.6897V64.2603H37.3252V43.6897H70.6747ZM71 43.375H70.6748H37.3252H37V43.6897V64.2603V64.575H37.3252H70.6748H71V64.2603V43.6897V43.375Z" fill="white"/>
<path fill-rule="evenodd" clip-rule="evenodd" d="M42.8835 60.0833C42.7652 60.3408 42.4104 61.0274 41.4939 61.0274C40.7252 61.0274 39.9861 60.541 39.9861 59.368C39.9861 58.6814 40.4 57.7659 41.4939 57.7659C42.3217 57.7659 42.647 58.2808 42.7948 58.71L42.2035 58.853C42.1739 58.5097 41.8783 58.2808 41.5235 58.2808C40.9913 58.2808 40.6365 58.6528 40.6365 59.368C40.6365 59.7972 40.8139 60.4552 41.5235 60.4552C41.9374 60.4552 42.2035 60.1405 42.2922 59.8258L42.8835 60.0833Z" fill="white"/>
<path fill-rule="evenodd" clip-rule="evenodd" d="M44.8052 57.7659C45.7809 57.7659 46.3426 58.5383 46.3426 59.368C46.3426 60.0833 45.9583 61.0274 44.8052 61.0274C43.8591 61.0274 43.2678 60.2835 43.2678 59.3966C43.2678 58.5097 43.8591 57.7659 44.8052 57.7659ZM44.8052 60.4838C45.2783 60.4838 45.7217 60.1405 45.7217 59.4252C45.7217 58.8817 45.4261 58.3095 44.7756 58.3095C44.2435 58.3095 43.8591 58.71 43.8591 59.3966C43.8887 59.883 44.1252 60.4838 44.8052 60.4838Z" fill="white"/>
<path fill-rule="evenodd" clip-rule="evenodd" d="M49.2696 60.9416C49.2696 60.8557 49.3287 58.3953 49.3287 58.3953L48.6487 60.9416H48.1165L47.4365 58.3953C47.4365 58.3953 47.4957 60.8271 47.4957 60.9416H46.9044V57.8517H47.7617L48.3826 60.1405L49.0035 57.8517H49.8608V60.9416H49.2696Z" fill="white"/>
<path fill-rule="evenodd" clip-rule="evenodd" d="M52.0192 57.8517C52.6696 57.8517 53.1426 58.2522 53.1426 58.8816C53.1426 59.4538 52.8174 59.883 51.96 59.883H51.3392V60.9416H50.7479V57.8517H52.0192ZM51.3687 59.4252H51.9009C52.3148 59.4252 52.5513 59.225 52.5513 58.8816C52.5513 58.3953 52.1374 58.3667 51.8417 58.3667H51.3983V59.4252H51.3687Z" fill="white"/>
<path fill-rule="evenodd" clip-rule="evenodd" d="M55.3896 60.9416L55.2121 60.3408H54L53.8226 60.9416H53.1722L54.2365 57.8517H54.9165L56.0104 60.9416H55.3896ZM54.6201 58.4239L54.1479 59.8544H55.0923L54.6201 58.4239Z" fill="white"/>
<path fill-rule="evenodd" clip-rule="evenodd" d="M57.2521 58.3667V60.9416H56.6609V58.3667H55.8035V57.8517H58.1687V58.3667H57.2521Z" fill="white"/>
<path fill-rule="evenodd" clip-rule="evenodd" d="M58.6122 60.9416V57.8517H59.5566V60.9416H58.6122Z" fill="white"/>
<path fill-rule="evenodd" clip-rule="evenodd" d="M61.5392 57.8517C62.2192 57.8517 62.5148 58.2236 62.5148 58.6242C62.5148 58.8816 62.367 59.225 61.9826 59.2536C62.2783 59.3108 62.6626 59.5397 62.6626 60.0833C62.6626 60.5124 62.3965 60.9702 61.5983 60.9702H60.12V57.8517H61.5392ZM60.7113 59.252H61.3026C61.5687 59.252 61.8939 59.1504 61.8939 58.7781C61.8939 58.4058 61.5687 58.3381 61.3322 58.3381H60.7113V59.252ZM60.7113 60.4552H61.5096C61.9235 60.4552 62.0713 60.2549 62.0713 60.026C62.0713 59.5969 61.6279 59.5397 61.3913 59.5397H60.7113V60.4552Z" fill="white"/>
<path fill-rule="evenodd" clip-rule="evenodd" d="M63.4313 60.9416V57.8517H64.0226V60.4266H65.2939V60.9416H63.4313Z" fill="white"/>
<path fill-rule="evenodd" clip-rule="evenodd" d="M65.6783 60.9416V57.8517H67.9548V58.3667H66.2696V59.0819H67.807V59.5683H66.2696V60.398H68.073V60.9129H65.6783V60.9416Z" fill="white"/>
<path fill-rule="evenodd" clip-rule="evenodd" d="M57.3704 48.7823H68.0731L68.1026 50.6133H67.6C67.4226 49.9839 66.9496 49.5548 66.1513 49.3545C65.7078 49.24 65.0278 49.1542 64.1409 49.1542V53.7318C64.1409 54.0465 64.2591 54.1895 64.466 54.2754C64.7026 54.3899 65.1756 54.3899 65.8853 54.3899V54.7904H59.5878V54.3899C60.2678 54.3899 60.7409 54.3327 60.9774 54.2468C61.2139 54.1323 61.3322 54.0465 61.3322 53.7318V49.1542C60.4747 49.1542 59.7948 49.24 59.3513 49.3545C58.4939 49.5834 58.0209 50.0125 57.9026 50.6133C57.7548 50.6133 57.4 50.6133 57.4 50.6133L57.3704 48.7823Z" fill="white"/>
<path fill-rule="evenodd" clip-rule="evenodd" d="M48.9739 51.8722L49.9496 51.9866L49.9792 52.0152C50.3635 52.7877 50.9844 53.3885 51.8418 53.7318C52.6992 54.1037 53.7044 54.2754 54.8278 54.2754C55.9218 54.2754 56.6905 54.161 57.1339 53.9035C57.5774 53.6746 57.7844 53.4171 57.7844 53.1596C57.7844 52.8735 57.5478 52.616 57.1044 52.4444C56.7792 52.3013 56.1287 52.1297 55.1826 51.9294L53.6157 51.5861C52.0783 51.2427 50.9548 50.8994 50.3339 50.5561C49.6835 50.2128 49.3583 49.755 49.3583 49.24C49.3583 48.6965 49.8018 48.1815 50.6592 47.6951C51.5165 47.2373 52.8174 47.0085 54.5618 47.0085C55.4487 47.0085 56.3061 47.0657 57.1339 47.1801C57.6661 47.266 58.4052 47.3518 58.553 47.3518C58.8783 47.3518 58.9966 47.2946 59.0557 47.266C59.1444 47.2087 59.233 47.1229 59.2922 47.0085L59.3217 46.9799H60.1495V49.4689H59.2626L59.233 49.4403C58.9079 48.8967 58.3461 48.439 57.5478 48.067C56.7496 47.6665 55.7739 47.4948 54.6505 47.4948C53.8522 47.4948 53.2018 47.5807 52.7583 47.7809C52.3148 47.9526 52.1078 48.1815 52.1078 48.439C52.1078 48.7537 52.3148 48.9825 52.7287 49.1542C53.1722 49.3259 54.1478 49.5834 55.6261 49.8981L57.4296 50.2986C58.2278 50.4703 58.8783 50.6705 59.3513 50.8994C60.2679 51.3286 60.7409 51.8436 60.7409 52.4444C60.7409 53.0166 60.2383 53.5602 59.2626 54.0465C58.3165 54.5329 56.7496 54.7904 54.6505 54.7904C54.1774 54.7904 53.6748 54.7618 53.1722 54.7332C52.6696 54.7046 52.167 54.6187 51.6939 54.5615L51.2209 54.4757C51.1026 54.4757 51.0139 54.4471 50.9252 54.4471C50.8365 54.4471 50.7478 54.4185 50.6592 54.4185C50.4226 54.4185 50.2748 54.4471 50.1861 54.5043C50.0974 54.5615 50.0383 54.6473 49.9496 54.7618L49.92 54.7904H48.9739V51.8722Z" fill="white"/>
<path fill-rule="evenodd" clip-rule="evenodd" d="M59.9722 47.0943V49.4403H59.2922C58.967 48.8967 58.4052 48.4389 57.607 48.0384C56.8087 47.6379 55.8331 47.4376 54.68 47.4376C53.8522 47.4376 53.2313 47.5234 52.7583 47.7237C52.2852 47.924 52.0487 48.1529 52.0487 48.4389C52.0487 48.7823 52.2852 49.0398 52.7287 49.2114C53.1722 49.3831 54.1478 49.6406 55.6557 49.9553L57.4591 50.3558C58.2574 50.5275 58.9079 50.7278 59.3809 50.9566C60.2679 51.3572 60.7113 51.8722 60.7113 52.4444C60.7113 52.988 60.2383 53.5029 59.2626 53.9893C58.3165 54.4757 56.7791 54.7046 54.68 54.7046C54.207 54.7046 53.7044 54.6759 53.2017 54.6473C52.6991 54.6187 52.2261 54.5615 51.7235 54.4757L51.2504 54.3898C51.1322 54.3898 51.0435 54.3612 50.9252 54.3612C50.8365 54.3612 50.7478 54.3326 50.6591 54.3326C50.4226 54.3326 50.2452 54.3612 50.1565 54.4184C50.0678 54.4757 49.9791 54.5615 49.92 54.7046H49.0626V51.9294L49.92 52.0438C50.3044 52.8449 50.9252 53.4457 51.8122 53.789C52.6991 54.161 53.6748 54.3326 54.7983 54.3326C55.8922 54.3326 56.6609 54.2182 57.1339 53.9607C57.607 53.7032 57.8139 53.4457 57.8139 53.1596C57.8139 52.8449 57.5774 52.5874 57.0748 52.3585C56.7496 52.2155 56.0991 52.0438 55.1531 51.8435L53.5861 51.5002C52.0487 51.1569 50.9548 50.8136 50.3044 50.4703C49.6835 50.1269 49.3583 49.7264 49.3583 49.2114C49.3583 48.6964 49.7722 48.1815 50.6 47.7237C51.4574 47.2659 52.7287 47.0371 54.4731 47.0371C55.36 47.0371 56.2174 47.0943 57.0157 47.2087C57.8435 47.3232 58.3165 47.3804 58.4348 47.3804C58.7008 47.3804 58.8783 47.3518 58.9966 47.2946C59.0852 47.2373 59.1739 47.1229 59.233 47.0085H59.9722V47.0943ZM60.0904 46.9512H59.9426H59.2626H59.1739L59.1444 47.0085C59.0852 47.0943 59.0261 47.1801 58.9374 47.2373C58.9079 47.2659 58.7896 47.3232 58.4644 47.3232C58.3165 47.3232 57.3704 47.1801 57.0748 47.1515C56.247 47.0371 55.3896 46.9798 54.5026 46.9798C52.7583 46.9798 51.4278 47.2087 50.5705 47.6951C49.6835 48.1815 49.24 48.6964 49.24 49.2973C49.24 49.8408 49.5948 50.2986 50.2748 50.6705C50.9252 51.0139 52.0191 51.3572 53.5861 51.7005L55.1531 52.0438C56.0991 52.2441 56.7496 52.4157 57.0748 52.5588C57.4887 52.7305 57.7252 52.9593 57.7252 53.2168C57.7252 53.4457 57.5183 53.6746 57.1044 53.9035C56.6609 54.1323 55.8922 54.2468 54.8278 54.2468C53.7339 54.2468 52.7287 54.0751 51.8713 53.7032C50.9844 53.3599 50.3931 52.7877 50.0087 52.0152L49.9791 51.9294H49.8904L49.0331 51.8149H48.9148V51.958V54.7332V54.8762H49.0626H49.92H50.0087L50.0383 54.819C50.0974 54.7045 50.1565 54.6473 50.2452 54.5901C50.2748 54.5615 50.3931 54.5043 50.6887 54.5043C50.7478 54.5043 50.8365 54.5043 50.9252 54.5329C51.0139 54.5329 51.1322 54.5615 51.2504 54.5615L51.7235 54.6473C52.1965 54.7332 52.6991 54.7904 53.2018 54.819C53.7044 54.8476 54.207 54.8762 54.68 54.8762C56.8087 54.8762 58.3757 54.6187 59.3513 54.1323C60.3566 53.6174 60.8592 53.0738 60.8592 52.473C60.8592 51.8435 60.3861 51.3 59.44 50.8708C58.967 50.6419 58.287 50.4417 57.4887 50.27L55.6852 49.8695C54.207 49.5547 53.2313 49.2973 52.7878 49.1256C52.4035 48.9825 52.1965 48.7537 52.1965 48.4962C52.1965 48.2673 52.4035 48.067 52.8174 47.8954C53.2609 47.6951 53.9113 47.6093 54.7096 47.6093C55.8331 47.6093 56.8087 47.8095 57.5774 48.1815C58.3757 48.5534 58.9079 49.0112 59.233 49.5261L59.2626 49.5834H59.3513H60.0313H60.1792V49.4403V47.0943V46.9512H60.0904Z" fill="white"/>
<path fill-rule="evenodd" clip-rule="evenodd" d="M45.2487 54.9621L40.7844 49.8981C40.607 49.6978 40.4296 49.5548 40.2522 49.4689C40.0748 49.3831 39.5722 49.3259 39.1287 49.3259H39.0696V48.9254H45.2783V49.3545H45.2191C44.5983 49.3831 44.2139 49.4117 44.007 49.4403C43.8 49.4689 43.8 49.5548 43.8 49.6406C43.8 49.6692 43.8 49.7264 43.8 49.755C43.8 49.7837 43.8296 49.8123 43.8591 49.8409L46.4609 52.9308H46.4904L48.7374 50.0984C48.7965 50.0411 48.8261 49.9839 48.8556 49.9267C48.9147 49.8409 48.9444 49.755 48.9444 49.6978C48.9444 49.612 48.9147 49.4976 48.7078 49.4689C48.5304 49.4403 48.1165 49.4117 47.5252 49.3831H47.4661V48.954H51.5461V49.3545H51.4869C51.0435 49.3831 50.4818 49.4403 50.3044 49.5262C50.0974 49.612 49.92 49.7836 49.7131 50.0125L45.7809 54.9621H45.2487Z" fill="white"/>
<path fill-rule="evenodd" clip-rule="evenodd" d="M51.5165 48.9826V49.2687C51.1027 49.2973 50.5113 49.3545 50.3044 49.4403C50.0974 49.5262 49.8905 49.6978 49.6835 49.9553L45.7513 54.9048H45.2783L40.8139 49.8409C40.6365 49.6406 40.4592 49.4976 40.2522 49.4117C40.0748 49.3259 39.5131 49.2687 39.0992 49.2401V48.954H45.16V49.2401C44.5392 49.2687 44.1252 49.2973 43.9478 49.3259C43.7705 49.3545 43.6818 49.4403 43.6818 49.5834C43.6818 49.612 43.6818 49.6692 43.7113 49.6978C43.7409 49.7264 43.7705 49.7837 43.8 49.8123L46.4313 52.9308H46.5496L48.8261 50.0984C48.8853 50.0411 48.9148 49.9839 48.974 49.8981C49.0331 49.7837 49.0627 49.6978 49.0627 49.6406C49.0627 49.4689 48.974 49.3831 48.7669 49.3545C48.5896 49.3259 48.1757 49.2687 47.5844 49.2687V48.9826H51.5165ZM51.6644 48.8395H51.5165H47.5844H47.4365V48.9826V49.2687V49.4117H47.5844C48.1757 49.4403 48.56 49.4689 48.7374 49.4976C48.9148 49.5262 48.9148 49.5834 48.9148 49.6406C48.9148 49.6692 48.9148 49.7264 48.8261 49.8409C48.7965 49.8981 48.7374 49.9553 48.7078 50.0125L46.4905 52.7877L43.9183 49.755C43.8887 49.7264 43.8592 49.6978 43.8592 49.6692C43.8592 49.6406 43.8592 49.612 43.8592 49.5834C43.8592 49.5548 43.8592 49.4976 44.007 49.4689C44.1844 49.4403 44.5687 49.4117 45.1896 49.3831H45.3374V49.2401V48.954V48.8109H45.1896H39.1287H38.9809V48.954V49.2401V49.3545H39.0992C39.6018 49.3831 40.0452 49.4403 40.1931 49.4976C40.3705 49.5834 40.5479 49.7264 40.6957 49.8981L45.16 54.9335L45.1896 54.9907H45.2487H45.7218H45.7809L45.8105 54.9335L49.8018 50.0125C49.9791 49.7837 50.1861 49.6406 50.3635 49.5548C50.5113 49.4689 50.9844 49.4117 51.5165 49.3831H51.6349V49.2687V48.9826V48.8395H51.6644Z" fill="white"/>
<path fill-rule="evenodd" clip-rule="evenodd" d="M68.0139 47.6093C67.3043 47.6093 66.713 47.0371 66.713 46.3505C66.713 45.6638 67.3043 45.0916 68.0139 45.0916C68.7235 45.0916 69.3148 45.6638 69.3148 46.3218C69.3443 47.0371 68.7826 47.6093 68.0139 47.6093ZM68.0139 45.1774C67.3634 45.1774 66.8313 45.6924 66.8313 46.3218C66.8313 46.9513 67.3339 47.4662 68.0139 47.4662C68.6643 47.4662 69.1965 46.9513 69.1965 46.3505C69.1965 45.6924 68.6939 45.1774 68.0139 45.1774ZM67.9843 45.5208C68.3982 45.5208 68.5756 45.6638 68.5756 45.9785C68.5756 46.236 68.4574 46.3505 68.2208 46.4363L68.6052 47.1229H68.3095L67.9548 46.4649H67.7478V47.1229H67.4817V45.5208H67.9843ZM67.7774 46.635H68.1447C68.5644 46.635 68.7218 46.4826 68.7218 46.178C68.7218 45.8734 68.512 45.721 68.0922 45.721H67.7774V46.635Z" fill="white"/>
<path fill-rule="evenodd" clip-rule="evenodd" d="M70.6747 7.68971V28.2603H37.3252V7.68971H70.6747ZM71 7.375H70.6748H37.3252H37V7.68971V28.2603V28.575H37.3252H70.6748H71V28.2603V7.68971V7.375Z" fill="white"/>
<path fill-rule="evenodd" clip-rule="evenodd" d="M42.8835 24.0832C42.7652 24.3407 42.4104 25.0273 41.4939 25.0273C40.7252 25.0273 39.9861 24.541 39.9861 23.368C39.9861 22.6813 40.4 21.7658 41.4939 21.7658C42.3217 21.7658 42.647 22.2808 42.7948 22.7099L42.2035 22.853C42.1739 22.5097 41.8783 22.2808 41.5235 22.2808C40.9913 22.2808 40.6365 22.6527 40.6365 23.368C40.6365 23.7971 40.8139 24.4551 41.5235 24.4551C41.9374 24.4551 42.2035 24.1404 42.2922 23.8257L42.8835 24.0832Z" fill="white"/>
<path fill-rule="evenodd" clip-rule="evenodd" d="M44.8052 21.7658C45.7809 21.7658 46.3426 22.5383 46.3426 23.368C46.3426 24.0832 45.9583 25.0273 44.8052 25.0273C43.8591 25.0273 43.2678 24.2835 43.2678 23.3966C43.2678 22.5097 43.8591 21.7658 44.8052 21.7658ZM44.8052 24.4838C45.2783 24.4838 45.7217 24.1404 45.7217 23.4252C45.7217 22.8816 45.4261 22.3094 44.7756 22.3094C44.2435 22.3094 43.8591 22.7099 43.8591 23.3966C43.8887 23.8829 44.1252 24.4838 44.8052 24.4838Z" fill="white"/>
<path fill-rule="evenodd" clip-rule="evenodd" d="M49.2696 24.9415C49.2696 24.8557 49.3287 22.3952 49.3287 22.3952L48.6487 24.9415H48.1165L47.4365 22.3952C47.4365 22.3952 47.4957 24.8271 47.4957 24.9415H46.9044V21.8516H47.7618L48.3826 24.1404L49.0035 21.8516H49.8609V24.9415H49.2696Z" fill="white"/>
<path fill-rule="evenodd" clip-rule="evenodd" d="M52.0192 21.8516C52.6696 21.8516 53.1426 22.2522 53.1426 22.8816C53.1426 23.4538 52.8174 23.8829 51.96 23.8829H51.3392V24.9415H50.7479V21.8516H52.0192ZM51.3687 23.4252H51.9009C52.3148 23.4252 52.5513 23.2249 52.5513 22.8816C52.5513 22.3952 52.1374 22.3666 51.8417 22.3666H51.3983V23.4252H51.3687Z" fill="white"/>
<path fill-rule="evenodd" clip-rule="evenodd" d="M55.3896 24.9415L55.2121 24.3407H54L53.8226 24.9415H53.1722L54.2365 21.8516H54.9165L56.0105 24.9415H55.3896ZM54.6201 22.4238L54.1479 23.8543H55.0923L54.6201 22.4238Z" fill="white"/>
<path fill-rule="evenodd" clip-rule="evenodd" d="M57.2521 22.3666V24.9415H56.6609V22.3666H55.8035V21.8516H58.1687V22.3666H57.2521Z" fill="white"/>
<path fill-rule="evenodd" clip-rule="evenodd" d="M58.6122 24.9415V21.8516H59.5566V24.9415H58.6122Z" fill="white"/>
<path fill-rule="evenodd" clip-rule="evenodd" d="M61.5392 21.8516C62.2192 21.8516 62.5148 22.2236 62.5148 22.6241C62.5148 22.8816 62.367 23.2249 61.9826 23.2535C62.2783 23.3107 62.6626 23.5396 62.6626 24.0832C62.6626 24.5124 62.3965 24.9701 61.5983 24.9701H60.12V21.8516H61.5392ZM60.7113 23.2519H61.3026C61.5687 23.2519 61.8939 23.1504 61.8939 22.778C61.8939 22.4057 61.5687 22.338 61.3322 22.338H60.7113V23.2519ZM60.7113 24.4551H61.5096C61.9235 24.4551 62.0713 24.2549 62.0713 24.026C62.0713 23.5968 61.6279 23.5396 61.3913 23.5396H60.7113V24.4551Z" fill="white"/>
<path fill-rule="evenodd" clip-rule="evenodd" d="M63.4313 24.9415V21.8516H64.0226V24.4265H65.2939V24.9415H63.4313Z" fill="white"/>
<path fill-rule="evenodd" clip-rule="evenodd" d="M65.6783 24.9415V21.8516H67.9548V22.3666H66.2696V23.0819H67.807V23.5682H66.2696V24.3979H68.073V24.9129H65.6783V24.9415Z" fill="white"/>
<path fill-rule="evenodd" clip-rule="evenodd" d="M57.3704 12.7823H68.0731L68.1026 14.6133H67.6C67.4226 13.9839 66.9496 13.5548 66.1513 13.3545C65.7078 13.24 65.0278 13.1542 64.1409 13.1542V17.7318C64.1409 18.0465 64.2591 18.1895 64.466 18.2754C64.7026 18.3899 65.1756 18.3899 65.8853 18.3899V18.7904H59.5878V18.3899C60.2678 18.3899 60.7409 18.3327 60.9774 18.2468C61.2139 18.1323 61.3322 18.0465 61.3322 17.7318V13.1542C60.4747 13.1542 59.7948 13.24 59.3513 13.3545C58.4939 13.5834 58.0209 14.0125 57.9026 14.6133C57.7548 14.6133 57.4 14.6133 57.4 14.6133L57.3704 12.7823Z" fill="white"/>
<path fill-rule="evenodd" clip-rule="evenodd" d="M48.9739 15.8722L49.9496 15.9866L49.9792 16.0152C50.3635 16.7877 50.9844 17.3885 51.8418 17.7318C52.6992 18.1037 53.7044 18.2754 54.8278 18.2754C55.9218 18.2754 56.6905 18.161 57.1339 17.9035C57.5774 17.6746 57.7844 17.4171 57.7844 17.1596C57.7844 16.8735 57.5478 16.616 57.1044 16.4444C56.7792 16.3013 56.1287 16.1297 55.1826 15.9294L53.6157 15.5861C52.0783 15.2428 50.9548 14.8994 50.3339 14.5561C49.6835 14.2128 49.3583 13.755 49.3583 13.24C49.3583 12.6965 49.8018 12.1815 50.6592 11.6951C51.5165 11.2373 52.8174 11.0085 54.5618 11.0085C55.4487 11.0085 56.3061 11.0657 57.1339 11.1801C57.6661 11.266 58.4052 11.3518 58.553 11.3518C58.8783 11.3518 58.9966 11.2946 59.0557 11.266C59.1444 11.2087 59.233 11.1229 59.2922 11.0085L59.3217 10.9799H60.1495V13.4689H59.2626L59.233 13.4403C58.9079 12.8967 58.3461 12.439 57.5478 12.067C56.7496 11.6665 55.7739 11.4948 54.6505 11.4948C53.8522 11.4948 53.2018 11.5807 52.7583 11.7809C52.3148 11.9526 52.1078 12.1815 52.1078 12.439C52.1078 12.7537 52.3148 12.9825 52.7287 13.1542C53.1722 13.3259 54.1478 13.5834 55.6261 13.8981L57.4296 14.2986C58.2278 14.4703 58.8783 14.6705 59.3513 14.8994C60.2679 15.3286 60.7409 15.8436 60.7409 16.4444C60.7409 17.0166 60.2383 17.5602 59.2626 18.0465C58.3165 18.5329 56.7496 18.7904 54.6505 18.7904C54.1774 18.7904 53.6748 18.7618 53.1722 18.7332C52.6696 18.7046 52.167 18.6187 51.6939 18.5615L51.2209 18.4757C51.1026 18.4757 51.0139 18.4471 50.9252 18.4471C50.8365 18.4471 50.7478 18.4185 50.6592 18.4185C50.4226 18.4185 50.2748 18.4471 50.1861 18.5043C50.0974 18.5615 50.0383 18.6473 49.9496 18.7618L49.92 18.7904H48.9739V15.8722Z" fill="white"/>
<path fill-rule="evenodd" clip-rule="evenodd" d="M59.9722 11.0943V13.4403H59.2922C58.967 12.8967 58.4052 12.4389 57.607 12.0384C56.8087 11.6379 55.8331 11.4376 54.68 11.4376C53.8522 11.4376 53.2313 11.5234 52.7583 11.7237C52.2852 11.924 52.0487 12.1529 52.0487 12.4389C52.0487 12.7823 52.2852 13.0398 52.7287 13.2114C53.1722 13.3831 54.1478 13.6406 55.6557 13.9553L57.4591 14.3558C58.2574 14.5275 58.9079 14.7278 59.3809 14.9566C60.2679 15.3572 60.7113 15.8722 60.7113 16.4444C60.7113 16.988 60.2383 17.5029 59.2626 17.9893C58.3165 18.4757 56.7791 18.7046 54.68 18.7046C54.207 18.7046 53.7044 18.6759 53.2017 18.6473C52.6991 18.6187 52.2261 18.5615 51.7235 18.4757L51.2504 18.3898C51.1322 18.3898 51.0435 18.3612 50.9252 18.3612C50.8365 18.3612 50.7478 18.3326 50.6591 18.3326C50.4226 18.3326 50.2452 18.3612 50.1565 18.4184C50.0678 18.4757 49.9791 18.5615 49.92 18.7046H49.0626V15.9294L49.92 16.0438C50.3044 16.8449 50.9252 17.4457 51.8122 17.789C52.6991 18.161 53.6748 18.3326 54.7983 18.3326C55.8922 18.3326 56.6609 18.2182 57.1339 17.9607C57.607 17.7032 57.8139 17.4457 57.8139 17.1596C57.8139 16.8449 57.5774 16.5874 57.0748 16.3585C56.7496 16.2155 56.0991 16.0438 55.1531 15.8435L53.5861 15.5002C52.0487 15.1569 50.9548 14.8136 50.3044 14.4703C49.6835 14.1269 49.3583 13.7264 49.3583 13.2114C49.3583 12.6964 49.7722 12.1815 50.6 11.7237C51.4574 11.2659 52.7287 11.0371 54.4731 11.0371C55.36 11.0371 56.2174 11.0943 57.0157 11.2087C57.8435 11.3232 58.3165 11.3804 58.4348 11.3804C58.7008 11.3804 58.8783 11.3518 58.9966 11.2946C59.0852 11.2373 59.1739 11.1229 59.233 11.0085H59.9722V11.0943ZM60.0904 10.9512H59.9426H59.2626H59.1739L59.1444 11.0085C59.0852 11.0943 59.0261 11.1801 58.9374 11.2373C58.9079 11.2659 58.7896 11.3232 58.4644 11.3232C58.3165 11.3232 57.3704 11.1801 57.0748 11.1515C56.247 11.0371 55.3896 10.9798 54.5026 10.9798C52.7583 10.9798 51.4278 11.2087 50.5705 11.6951C49.6835 12.1815 49.24 12.6964 49.24 13.2973C49.24 13.8408 49.5948 14.2986 50.2748 14.6705C50.9252 15.0139 52.0191 15.3572 53.5861 15.7005L55.1531 16.0438C56.0991 16.2441 56.7496 16.4157 57.0748 16.5588C57.4887 16.7305 57.7252 16.9593 57.7252 17.2168C57.7252 17.4457 57.5183 17.6746 57.1044 17.9035C56.6609 18.1323 55.8922 18.2468 54.8278 18.2468C53.7339 18.2468 52.7287 18.0751 51.8713 17.7032C50.9844 17.3599 50.3931 16.7877 50.0087 16.0152L49.9791 15.9294H49.8904L49.0331 15.8149H48.9148V15.958V18.7332V18.8762H49.0626H49.92H50.0087L50.0383 18.819C50.0974 18.7045 50.1565 18.6473 50.2452 18.5901C50.2748 18.5615 50.3931 18.5043 50.6887 18.5043C50.7478 18.5043 50.8365 18.5043 50.9252 18.5329C51.0139 18.5329 51.1322 18.5615 51.2504 18.5615L51.7235 18.6473C52.1965 18.7332 52.6991 18.7904 53.2018 18.819C53.7044 18.8476 54.207 18.8762 54.68 18.8762C56.8087 18.8762 58.3757 18.6187 59.3513 18.1323C60.3566 17.6174 60.8592 17.0738 60.8592 16.473C60.8592 15.8435 60.3861 15.3 59.44 14.8708C58.967 14.6419 58.287 14.4417 57.4887 14.27L55.6852 13.8695C54.207 13.5547 53.2313 13.2973 52.7878 13.1256C52.4035 12.9825 52.1965 12.7537 52.1965 12.4962C52.1965 12.2673 52.4035 12.067 52.8174 11.8954C53.2609 11.6951 53.9113 11.6093 54.7096 11.6093C55.8331 11.6093 56.8087 11.8095 57.5774 12.1815C58.3757 12.5534 58.9079 13.0112 59.233 13.5261L59.2626 13.5834H59.3513H60.0313H60.1792V13.4403V11.0943V10.9512H60.0904Z" fill="white"/>
<path fill-rule="evenodd" clip-rule="evenodd" d="M45.2487 18.9621L40.7844 13.8981C40.607 13.6978 40.4296 13.5548 40.2522 13.4689C40.0748 13.3831 39.5722 13.3259 39.1287 13.3259H39.0696V12.9254H45.2783V13.3545H45.2191C44.5983 13.3831 44.2139 13.4117 44.007 13.4403C43.8 13.4689 43.8 13.5548 43.8 13.6406C43.8 13.6692 43.8 13.7264 43.8 13.755C43.8 13.7837 43.8296 13.8123 43.8592 13.8409L46.4609 16.9308H46.4905L48.7374 14.0984C48.7965 14.0411 48.8261 13.9839 48.8556 13.9267C48.9147 13.8409 48.9444 13.755 48.9444 13.6978C48.9444 13.612 48.9147 13.4976 48.7078 13.4689C48.5304 13.4403 48.1165 13.4117 47.5252 13.3831H47.4661V12.954H51.5461V13.3545H51.4869C51.0435 13.3831 50.4818 13.4403 50.3044 13.5262C50.0974 13.612 49.92 13.7837 49.7131 14.0125L45.7809 18.9621H45.2487Z" fill="white"/>
<path fill-rule="evenodd" clip-rule="evenodd" d="M51.5165 12.9826V13.2687C51.1027 13.2973 50.5113 13.3545 50.3044 13.4403C50.0974 13.5262 49.8905 13.6978 49.6835 13.9553L45.7513 18.9048H45.2783L40.8139 13.8409C40.6365 13.6406 40.4592 13.4976 40.2522 13.4117C40.0748 13.3259 39.5131 13.2687 39.0992 13.2401V12.954H45.16V13.2401C44.5392 13.2687 44.1252 13.2973 43.9478 13.3259C43.7705 13.3545 43.6818 13.4403 43.6818 13.5834C43.6818 13.612 43.6818 13.6692 43.7113 13.6978C43.7409 13.7264 43.7705 13.7837 43.8 13.8123L46.4313 16.9308H46.5496L48.8261 14.0984C48.8853 14.0411 48.9148 13.9839 48.974 13.8981C49.0331 13.7837 49.0627 13.6978 49.0627 13.6406C49.0627 13.4689 48.974 13.3831 48.7669 13.3545C48.5896 13.3259 48.1757 13.2687 47.5844 13.2687V12.9826H51.5165ZM51.6644 12.8395H51.5165H47.5844H47.4365V12.9826V13.2687V13.4117H47.5844C48.1757 13.4403 48.56 13.4689 48.7374 13.4976C48.9148 13.5262 48.9148 13.5834 48.9148 13.6406C48.9148 13.6692 48.9148 13.7264 48.8261 13.8409C48.7965 13.8981 48.7374 13.9553 48.7078 14.0125L46.4905 16.7877L43.9183 13.755C43.8887 13.7264 43.8592 13.6978 43.8592 13.6692C43.8592 13.6406 43.8592 13.612 43.8592 13.5834C43.8592 13.5548 43.8592 13.4976 44.007 13.4689C44.1844 13.4403 44.5687 13.4117 45.1896 13.3831H45.3374V13.2401V12.954V12.8109H45.1896H39.1287H38.9809V12.954V13.2401V13.3545H39.0992C39.6018 13.3831 40.0452 13.4403 40.1931 13.4976C40.3705 13.5834 40.5479 13.7264 40.6957 13.8981L45.16 18.9335L45.1896 18.9907H45.2487H45.7218H45.7809L45.8105 18.9335L49.8018 14.0125C49.9791 13.7837 50.1861 13.6406 50.3635 13.5548C50.5113 13.4689 50.9844 13.4117 51.5165 13.3831H51.6349V13.2687V12.9826V12.8395H51.6644Z" fill="white"/>
<path fill-rule="evenodd" clip-rule="evenodd" d="M68.0139 11.6093C67.3043 11.6093 66.713 11.0371 66.713 10.3505C66.713 9.66381 67.3043 9.09161 68.0139 9.09161C68.7235 9.09161 69.3148 9.66381 69.3148 10.3218C69.3443 11.0371 68.7826 11.6093 68.0139 11.6093ZM68.0139 9.17744C67.3634 9.17744 66.8313 9.69242 66.8313 10.3218C66.8313 10.9513 67.3339 11.4662 68.0139 11.4662C68.6643 11.4662 69.1965 10.9513 69.1965 10.3505C69.1965 9.69242 68.6939 9.17744 68.0139 9.17744ZM67.9843 9.52077C68.3982 9.52077 68.5756 9.66382 68.5756 9.97853C68.5756 10.236 68.4574 10.3505 68.2208 10.4363L68.6052 11.1229H68.3095L67.9548 10.4649H67.7478V11.1229H67.4817V9.52077H67.9843ZM67.7774 10.635H68.1447C68.5644 10.635 68.7218 10.4827 68.7218 10.178C68.7218 9.87336 68.512 9.72104 68.0922 9.72104H67.7774V10.635Z" fill="white"/>
<path fill-rule="evenodd" clip-rule="evenodd" d="M106.5 70.5H73.5V37.5H106.5V70.5Z" stroke="white"/>
<path fill-rule="evenodd" clip-rule="evenodd" d="M81.3155 51.5709C81.3155 53.5575 82.0048 55.503 83.256 57.0421L84.2327 56.2472C83.1615 54.9316 82.5729 53.2709 82.5729 51.5709C82.5729 49.8725 83.1593 48.2126 84.2274 46.8985L83.2498 46.1054C82.0035 47.645 81.3155 49.5857 81.3155 51.5709Z" fill="white"/>
<path fill-rule="evenodd" clip-rule="evenodd" d="M78.9125 51.5709C78.9125 54.1031 79.7889 56.5787 81.3801 58.5443L82.3555 57.7526C80.9452 56.0105 80.1672 53.816 80.1672 51.5709C80.1672 49.3249 80.9421 47.1312 82.351 45.3915L81.373 44.5995C79.7858 46.5631 78.9125 49.0379 78.9125 51.5709Z" fill="white"/>
<path fill-rule="evenodd" clip-rule="evenodd" d="M76.5335 51.5709C76.5335 54.6478 77.6007 57.6563 79.5354 60.0451L80.5139 59.2529C78.7601 57.088 77.7923 54.3594 77.7923 51.5709C77.7923 48.7836 78.7552 46.0595 80.5028 43.9L79.5243 43.1072C77.5962 45.4917 76.5335 48.4974 76.5335 51.5709Z" fill="white"/>
<path fill-rule="evenodd" clip-rule="evenodd" d="M95.7617 46.8985C96.8268 48.2126 97.4132 49.8725 97.4132 51.5709C97.4132 53.2709 96.8237 54.9316 95.7546 56.2472L96.73 57.0421C97.9832 55.503 98.6733 53.5575 98.6733 51.5709C98.6733 49.5857 97.9856 47.645 96.7382 46.1054L95.7617 46.8985Z" fill="white"/>
<path fill-rule="evenodd" clip-rule="evenodd" d="M97.6369 45.3915C99.043 47.1312 99.819 49.3249 99.819 51.5709C99.819 53.816 99.0417 56.0106 97.6306 57.7526L98.6083 58.5443C100.2 56.5787 101.076 54.1031 101.076 51.5709C101.076 49.0379 100.2 46.5631 98.6135 44.5995L97.6369 45.3915Z" fill="white"/>
<path fill-rule="evenodd" clip-rule="evenodd" d="M99.4852 43.9C101.232 46.0595 102.194 48.7836 102.194 51.5709C102.194 54.3594 101.228 57.088 99.4745 59.2529L100.452 60.0451C102.387 57.6563 103.454 54.6478 103.454 51.5709C103.454 48.4974 102.392 45.4917 100.464 43.1072L99.4852 43.9" fill="white"/>
<path fill-rule="evenodd" clip-rule="evenodd" d="M84.3125 51.5709C84.3125 54.7036 86.8608 57.2534 89.9937 57.2534C93.127 57.2534 95.6749 54.7036 95.6749 51.5709C95.6749 48.436 93.127 45.8871 89.9937 45.8871C86.8608 45.8871 84.3125 48.436 84.3125 51.5709ZM85.5146 51.5709C85.5146 49.1009 87.5251 47.0925 89.9937 47.0925C92.4622 47.0925 94.47 49.1009 94.47 51.5709C94.47 54.0405 92.4622 56.0481 89.9937 56.0481C87.5251 56.0481 85.5146 54.0405 85.5146 51.5709Z" fill="white"/>
<path fill-rule="evenodd" clip-rule="evenodd" d="M79.7069 67.2105H79.0782L78.7338 66.1337H77.5378L77.2108 67.2105H76.599L77.7829 63.531H78.515L79.7069 67.2105ZM78.6322 65.6829L78.3203 64.7171C78.2873 64.6203 78.2249 64.3879 78.1349 64.0219H78.1242C78.0859 64.1789 78.0289 64.4103 77.9482 64.7171L77.643 65.6829H78.6322Z" fill="white"/>
<path fill-rule="evenodd" clip-rule="evenodd" d="M82.3724 67.2104H81.8533L81.8213 66.8116H81.8119C81.6234 67.116 81.3449 67.2684 80.968 67.2684C80.7046 67.2684 80.4979 67.189 80.341 67.0304C80.1534 66.828 80.0616 66.5242 80.0616 66.1214V64.5554H80.6525V66.0211C80.6525 66.5312 80.8289 66.7876 81.1747 66.7876C81.4354 66.7876 81.6176 66.6574 81.7192 66.4035C81.7446 66.3389 81.7575 66.264 81.7575 66.1789V64.5554H82.3488V66.4493C82.3488 66.7003 82.3564 66.9547 82.3724 67.2104Z" fill="white"/>
<path fill-rule="evenodd" clip-rule="evenodd" d="M85.4688 67.2105H84.9435L84.9158 66.7893H84.9007C84.7327 67.1102 84.448 67.2684 84.0478 67.2684C83.7275 67.2684 83.4605 67.1431 83.2498 66.8939C83.0368 66.6437 82.9312 66.3215 82.9312 65.9177C82.9312 65.489 83.0475 65.1424 83.2774 64.8771C83.5024 64.629 83.7765 64.5043 84.1021 64.5043C84.4609 64.5043 84.7122 64.6268 84.8548 64.8665V63.3434H85.4474V66.4988C85.4474 66.7578 85.4532 66.9962 85.4688 67.2105ZM84.8548 66.0963V65.6544C84.8548 65.5772 84.8495 65.5147 84.8379 65.4675C84.8058 65.3267 84.7354 65.2056 84.6249 65.1107C84.5148 65.0126 84.3847 64.9635 84.2314 64.9635C84.0127 64.9635 83.838 65.0518 83.7137 65.2271C83.5867 65.4025 83.5256 65.6277 83.5256 65.8994C83.5256 66.1604 83.5844 66.3768 83.7047 66.539C83.8317 66.7135 84.0047 66.8023 84.2216 66.8023C84.4137 66.8023 84.5673 66.7288 84.6863 66.5825C84.7982 66.447 84.8548 66.2862 84.8548 66.0964" fill="white"/>
<path fill-rule="evenodd" clip-rule="evenodd" d="M87.0595 63.8808C87.0595 64.0245 87.0137 64.1383 86.9237 64.2247C86.8344 64.315 86.7166 64.3565 86.5738 64.3565C86.4462 64.3565 86.3389 64.3137 86.2489 64.2205C86.1625 64.1321 86.1167 64.018 86.1167 63.8809C86.1167 63.7475 86.1625 63.6322 86.2519 63.5451C86.3418 63.4568 86.4555 63.4137 86.5889 63.4137C86.7224 63.4137 86.8344 63.4568 86.9237 63.5451C87.0137 63.6322 87.0595 63.7475 87.0595 63.8809V63.8808ZM87.1268 67.2105H86.184V64.5554H87.1268V67.2105Z" fill="white"/>
<path fill-rule="evenodd" clip-rule="evenodd" d="M89.9478 65.8654C89.9478 66.2734 89.8324 66.6092 89.5989 66.8714C89.3552 67.1361 89.0307 67.2684 88.6262 67.2684C88.235 67.2684 87.9249 67.1399 87.6931 66.8832C87.4632 66.6265 87.3478 66.3035 87.3478 65.907C87.3478 65.4983 87.4654 65.1607 87.7042 64.8976C87.9435 64.6375 88.2649 64.5043 88.6694 64.5043C89.0598 64.5043 89.3721 64.6361 89.6109 64.8941C89.8359 65.1435 89.9478 65.4675 89.9478 65.8654ZM89.3369 65.8811C89.3369 65.6373 89.2839 65.4281 89.1778 65.2523C89.0544 65.0411 88.8775 64.9345 88.6471 64.9345C88.4105 64.9345 88.2305 65.0411 88.1071 65.2523C88.0006 65.4281 87.948 65.6428 87.948 65.8919C87.948 66.1351 88.0006 66.3473 88.1071 66.5207C88.2327 66.7308 88.4118 66.8388 88.6431 66.8388C88.869 66.8388 89.045 66.7297 89.172 66.5152C89.2816 66.3384 89.3369 66.1253 89.3369 65.8811Z" fill="white"/>
<path fill-rule="evenodd" clip-rule="evenodd" d="M94.5738 65.669C94.5738 66.2104 94.4414 66.6199 94.1795 66.891C93.9394 67.1422 93.6002 67.2684 93.1622 67.2684C92.2648 67.2684 91.8175 66.7386 91.8175 65.6797V63.531H92.41V65.7105C92.41 66.0719 92.4823 66.3473 92.6271 66.5312C92.7594 66.7051 92.943 66.7948 93.1845 66.7948C93.7156 66.7948 93.9812 66.4334 93.9812 65.7105V63.531H94.5738V65.669Z" fill="white"/>
<path fill-rule="evenodd" clip-rule="evenodd" d="M97.6168 67.2105H97.0243V65.6918C97.0243 65.2202 96.8468 64.9859 96.49 64.9859C96.3143 64.9859 96.1712 65.0518 96.0607 65.181C95.952 65.3108 95.8977 65.4632 95.8977 65.6373V67.2105H95.3045V65.3165C95.3045 65.0831 95.2974 64.8312 95.2845 64.5554H95.8036L95.8312 64.9667H95.8482C95.9186 64.8433 96.0198 64.7354 96.1543 64.6521C96.3161 64.554 96.4943 64.5043 96.6919 64.5043C96.939 64.5043 97.1454 64.5848 97.3099 64.7452C97.5143 64.9409 97.6168 65.2346 97.6168 65.6267V67.2105Z" fill="white"/>
<path fill-rule="evenodd" clip-rule="evenodd" d="M99.1733 63.8808C99.1733 64.0245 99.13 64.1383 99.0387 64.2247C98.9484 64.315 98.8304 64.3565 98.6872 64.3565C98.5594 64.3565 98.4504 64.3137 98.3609 64.2205C98.275 64.1321 98.2305 64.018 98.2305 63.8809C98.2305 63.7475 98.2762 63.6322 98.365 63.5451C98.4566 63.4568 98.568 63.4137 98.7017 63.4137C98.8357 63.4137 98.9484 63.4568 99.0387 63.5451C99.13 63.6322 99.1733 63.7475 99.1733 63.8809V63.8808ZM99.2388 67.2105H98.2959V64.5554H99.2388V67.2105Z" fill="white"/>
<path fill-rule="evenodd" clip-rule="evenodd" d="M100.971 65.001H100.318V66.2894C100.318 66.6161 100.433 66.7785 100.663 66.7785C100.769 66.7785 100.856 66.7733 100.926 66.7564L100.943 67.2029C100.826 67.2403 100.672 67.2618 100.484 67.2618C100.249 67.2618 100.068 67.1922 99.9371 67.0537C99.8038 66.9102 99.7402 66.6731 99.7402 66.3418V65.001H99.3521V64.5554H99.7402V64.0732L100.318 63.8994V64.5554H100.971V65.001Z" fill="white"/>
<path fill-rule="evenodd" clip-rule="evenodd" d="M103.107 66.447C103.107 66.6957 103.015 66.8919 102.833 67.0411C102.651 67.189 102.399 67.2618 102.079 67.2618C101.776 67.2618 101.519 67.2042 101.308 67.0902L101.433 66.6508C101.638 66.7755 101.853 66.8388 102.084 66.8388C102.384 66.8388 102.536 66.7255 102.536 66.5027C102.536 66.4066 102.502 66.3259 102.438 66.2627C102.373 66.1967 102.256 66.1337 102.088 66.0742C101.617 65.8972 101.381 65.6436 101.381 65.3066C101.381 65.0776 101.467 64.8877 101.643 64.7324C101.817 64.5809 102.048 64.5043 102.335 64.5043C102.598 64.5043 102.822 64.5576 103.007 64.6637L102.882 65.0831C102.713 64.9793 102.533 64.9284 102.344 64.9284C102.22 64.9284 102.122 64.956 102.053 65.0158C101.985 65.0755 101.95 65.1499 101.95 65.2403C101.95 65.3333 101.989 65.4061 102.059 65.4632C102.121 65.5189 102.242 65.5806 102.419 65.646C102.877 65.8196 103.107 66.0879 103.107 66.447Z" fill="white"/>
<path fill-rule="evenodd" clip-rule="evenodd" d="M106.5 34.5H73.5V1.5H106.5V34.5Z" stroke="white"/>
<path fill-rule="evenodd" clip-rule="evenodd" d="M81.3155 15.5709C81.3155 17.5575 82.0048 19.503 83.256 21.0422L84.2327 20.2473C83.1615 18.9316 82.5729 17.2709 82.5729 15.5709C82.5729 13.8725 83.1593 12.2126 84.2274 10.8985L83.2498 10.1054C82.0035 11.645 81.3155 13.5857 81.3155 15.5709Z" fill="white"/>
<path fill-rule="evenodd" clip-rule="evenodd" d="M78.9125 15.5709C78.9125 18.1032 79.7889 20.5788 81.3801 22.5444L82.3555 21.7527C80.9452 20.0106 80.1672 17.816 80.1672 15.5709C80.1672 13.3249 80.9421 11.1312 82.351 9.39149L81.373 8.59955C79.7858 10.5631 78.9125 13.0379 78.9125 15.5709Z" fill="white"/>
<path fill-rule="evenodd" clip-rule="evenodd" d="M76.5335 15.5709C76.5335 18.6478 77.6007 21.6563 79.5354 24.0451L80.5139 23.2529C78.7601 21.088 77.7923 18.3594 77.7923 15.5709C77.7923 12.7835 78.7552 10.0595 80.5028 7.90002L79.5243 7.10718C77.5962 9.49166 76.5335 12.4974 76.5335 15.5709Z" fill="white"/>
<path fill-rule="evenodd" clip-rule="evenodd" d="M95.7617 10.8985C96.8268 12.2126 97.4132 13.8725 97.4132 15.5709C97.4132 17.2709 96.8237 18.9316 95.7546 20.2472L96.73 21.0421C97.9832 19.503 98.6733 17.5575 98.6733 15.5709C98.6733 13.5857 97.9856 11.645 96.7382 10.1054L95.7617 10.8985Z" fill="white"/>
<path fill-rule="evenodd" clip-rule="evenodd" d="M97.6369 9.39149C99.043 11.1312 99.819 13.3249 99.819 15.5709C99.819 17.816 99.0417 20.0105 97.6306 21.7526L98.6083 22.5443C100.2 20.5787 101.076 18.1031 101.076 15.5709C101.076 13.0379 100.2 10.5631 98.6135 8.59955L97.6369 9.39149Z" fill="white"/>
<path fill-rule="evenodd" clip-rule="evenodd" d="M99.4852 7.90004C101.232 10.0595 102.194 12.7835 102.194 15.5709C102.194 18.3594 101.228 21.088 99.4745 23.2529L100.452 24.0451C102.387 21.6563 103.454 18.6478 103.454 15.5709C103.454 12.4974 102.392 9.49166 100.464 7.10718L99.4852 7.90003" fill="white"/>
<path fill-rule="evenodd" clip-rule="evenodd" d="M84.3125 15.5709C84.3125 18.7036 86.8608 21.2534 89.9937 21.2534C93.127 21.2534 95.6749 18.7036 95.6749 15.5709C95.6749 12.436 93.127 9.88708 89.9937 9.88708C86.8608 9.88708 84.3125 12.436 84.3125 15.5709ZM85.5146 15.5709C85.5146 13.1009 87.5252 11.0925 89.9937 11.0925C92.4622 11.0925 94.47 13.1009 94.47 15.5709C94.47 18.0405 92.4622 20.0481 89.9937 20.0481C87.5252 20.0481 85.5146 18.0405 85.5146 15.5709Z" fill="white"/>
<path fill-rule="evenodd" clip-rule="evenodd" d="M79.707 31.2105H79.0783L78.7338 30.1337H77.5379L77.2108 31.2105H76.5991L77.783 27.531H78.5151L79.707 31.2105ZM78.6323 29.6829L78.3204 28.7171C78.2874 28.6203 78.225 28.3879 78.135 28.0219H78.1243C78.086 28.1789 78.0289 28.4103 77.9483 28.7171L77.6431 29.6829H78.6323Z" fill="white"/>
<path fill-rule="evenodd" clip-rule="evenodd" d="M82.3724 31.2105H81.8533L81.8212 30.8116H81.8119C81.6234 31.116 81.3449 31.2684 80.9679 31.2684C80.7046 31.2684 80.4979 31.189 80.341 31.0304C80.1534 30.828 80.0616 30.5242 80.0616 30.1215V28.5554H80.6525V30.0211C80.6525 30.5312 80.8289 30.7877 81.1747 30.7877C81.4354 30.7877 81.6176 30.6574 81.7192 30.4035C81.7446 30.3389 81.7575 30.264 81.7575 30.1789V28.5554H82.3488V30.4493C82.3488 30.7003 82.3564 30.9547 82.3724 31.2105Z" fill="white"/>
<path fill-rule="evenodd" clip-rule="evenodd" d="M85.4688 31.2104H84.9435L84.9158 30.7892H84.9007C84.7327 31.1102 84.448 31.2684 84.0478 31.2684C83.7275 31.2684 83.4605 31.1431 83.2498 30.8939C83.0368 30.6437 82.9312 30.3215 82.9312 29.9177C82.9312 29.489 83.0475 29.1424 83.2774 28.8771C83.5024 28.629 83.7765 28.5043 84.1021 28.5043C84.4609 28.5043 84.7122 28.6268 84.8548 28.8665V27.3433H85.4474V30.4988C85.4474 30.7578 85.4532 30.9962 85.4688 31.2105V31.2104ZM84.8548 30.0963V29.6544C84.8548 29.5772 84.8495 29.5147 84.8379 29.4675C84.8058 29.3267 84.7354 29.2056 84.6249 29.1107C84.5148 29.0126 84.3847 28.9635 84.2314 28.9635C84.0126 28.9635 83.838 29.0518 83.7136 29.2271C83.5867 29.4025 83.5256 29.6277 83.5256 29.8994C83.5256 30.1604 83.5844 30.3767 83.7047 30.539C83.8317 30.7135 84.0047 30.8022 84.2216 30.8022C84.4137 30.8022 84.5673 30.7288 84.6863 30.5825C84.7982 30.447 84.8548 30.2862 84.8548 30.0963Z" fill="white"/>
<path fill-rule="evenodd" clip-rule="evenodd" d="M87.0595 27.8808C87.0595 28.0245 87.0137 28.1383 86.9237 28.2247C86.8344 28.315 86.7166 28.3565 86.5738 28.3565C86.4463 28.3565 86.3389 28.3137 86.2489 28.2205C86.1625 28.1321 86.1167 28.018 86.1167 27.8808C86.1167 27.7475 86.1625 27.6322 86.2519 27.5451C86.3418 27.4568 86.4555 27.4137 86.5889 27.4137C86.7224 27.4137 86.8344 27.4568 86.9237 27.5451C87.0137 27.6322 87.0595 27.7475 87.0595 27.8808ZM87.1268 31.2105H86.184V28.5554H87.1268V31.2105Z" fill="white"/>
<path fill-rule="evenodd" clip-rule="evenodd" d="M89.9478 29.8655C89.9478 30.2734 89.8324 30.6092 89.5989 30.8714C89.3552 31.1361 89.0307 31.2684 88.6262 31.2684C88.235 31.2684 87.9249 31.1399 87.6931 30.8833C87.4632 30.6266 87.3478 30.3035 87.3478 29.907C87.3478 29.4983 87.4654 29.1607 87.7042 28.8976C87.9435 28.6375 88.2648 28.5043 88.6694 28.5043C89.0597 28.5043 89.3721 28.6361 89.6109 28.8941C89.8359 29.1435 89.9478 29.4675 89.9478 29.8655ZM89.3369 29.8812C89.3369 29.6373 89.2838 29.4281 89.1778 29.2523C89.0544 29.0411 88.8775 28.9345 88.6471 28.9345C88.4105 28.9345 88.2305 29.0411 88.107 29.2523C88.0006 29.4281 87.948 29.6428 87.948 29.8919C87.948 30.1351 88.0006 30.3473 88.107 30.5207C88.2327 30.7308 88.4118 30.8388 88.6431 30.8388C88.869 30.8388 89.045 30.7297 89.172 30.5152C89.2816 30.3384 89.3369 30.1253 89.3369 29.8811" fill="white"/>
<path fill-rule="evenodd" clip-rule="evenodd" d="M94.5738 29.669C94.5738 30.2104 94.4414 30.62 94.1795 30.891C93.9394 31.1422 93.6002 31.2684 93.1622 31.2684C92.2648 31.2684 91.8175 30.7386 91.8175 29.6797V27.531H92.41V29.7105C92.41 30.0719 92.4823 30.3473 92.6271 30.5312C92.7594 30.7051 92.943 30.7948 93.1845 30.7948C93.7156 30.7948 93.9812 30.4334 93.9812 29.7105V27.531H94.5738V29.669Z" fill="white"/>
<path fill-rule="evenodd" clip-rule="evenodd" d="M97.6168 31.2105H97.0243V29.6918C97.0243 29.2202 96.8468 28.9859 96.49 28.9859C96.3143 28.9859 96.1712 29.0518 96.0607 29.181C95.952 29.3108 95.8977 29.4632 95.8977 29.6373V31.2105H95.3046V29.3165C95.3046 29.0831 95.2974 28.8312 95.2845 28.5554H95.8036L95.8313 28.9667H95.8482C95.9186 28.8433 96.0198 28.7354 96.1543 28.6521C96.3161 28.554 96.4943 28.5043 96.6919 28.5043C96.939 28.5043 97.1454 28.5848 97.3099 28.7452C97.5143 28.9409 97.6168 29.2346 97.6168 29.6267V31.2105Z" fill="white"/>
<path fill-rule="evenodd" clip-rule="evenodd" d="M99.1733 27.8808C99.1733 28.0245 99.13 28.1383 99.0387 28.2247C98.9484 28.315 98.8304 28.3565 98.6872 28.3565C98.5594 28.3565 98.4504 28.3137 98.3609 28.2205C98.275 28.1321 98.2305 28.018 98.2305 27.8808C98.2305 27.7475 98.2762 27.6322 98.365 27.5451C98.4566 27.4568 98.568 27.4137 98.7017 27.4137C98.8357 27.4137 98.9484 27.4568 99.0387 27.5451C99.13 27.6322 99.1733 27.7475 99.1733 27.8808ZM99.2388 31.2105H98.2959V28.5554H99.2388V31.2105Z" fill="white"/>
<path fill-rule="evenodd" clip-rule="evenodd" d="M100.971 29.001H100.318V30.2894C100.318 30.6161 100.433 30.7785 100.663 30.7785C100.769 30.7785 100.856 30.7733 100.926 30.7564L100.943 31.2029C100.826 31.2404 100.672 31.2618 100.484 31.2618C100.249 31.2618 100.068 31.1922 99.9371 31.0537C99.8038 30.9102 99.7402 30.6731 99.7402 30.3418V29.001H99.3521V28.5554H99.7402V28.0733L100.318 27.8994V28.5554H100.971V29.001Z" fill="white"/>
<path fill-rule="evenodd" clip-rule="evenodd" d="M103.107 30.447C103.107 30.6957 103.015 30.8919 102.833 31.0411C102.651 31.189 102.399 31.2618 102.079 31.2618C101.776 31.2618 101.519 31.2042 101.308 31.0902L101.433 30.6508C101.638 30.7755 101.853 30.8388 102.084 30.8388C102.384 30.8388 102.536 30.7256 102.536 30.5027C102.536 30.4066 102.502 30.3259 102.438 30.2626C102.373 30.1967 102.256 30.1337 102.088 30.0742C101.617 29.8972 101.381 29.6436 101.381 29.3066C101.381 29.0776 101.467 28.8877 101.643 28.7324C101.817 28.5809 102.048 28.5043 102.335 28.5043C102.598 28.5043 102.822 28.5576 103.007 28.6637L102.882 29.0831C102.713 28.9793 102.533 28.9284 102.344 28.9284C102.22 28.9284 102.122 28.956 102.053 29.0158C101.985 29.0756 101.95 29.1499 101.95 29.2403C101.95 29.3333 101.989 29.4061 102.059 29.4632C102.121 29.5189 102.242 29.5807 102.419 29.646C102.877 29.8196 103.107 30.0879 103.107 30.447Z" fill="white"/>
<path fill-rule="evenodd" clip-rule="evenodd" d="M131.503 37.2H140.394L126.697 61.2421C125.915 62.5819 125.152 63.613 124.408 64.3357C123.663 65.0588 122.976 65.584 122.346 65.9125C121.715 66.241 121.173 66.4319 120.719 66.4838C120.265 66.5366 119.949 66.5627 119.773 66.5627H111.6V45.7923H119.243L119.281 60.0595L131.503 37.2Z" fill="white"/>
<path fill-rule="evenodd" clip-rule="evenodd" d="M114.465 69.2174C114.478 69.1274 114.463 69.0652 114.42 69.0308H114.422C114.382 68.9999 114.325 68.9842 114.25 68.9842H112.829C112.744 68.9842 112.666 69.0037 112.593 69.0451C112.529 69.079 112.489 69.1204 112.472 69.1675L112.322 69.5993H113.37L113.265 69.902H112.216L111.894 70.8247H111.601L112.18 69.1675C112.228 69.0328 112.326 68.9161 112.476 68.8195C112.622 68.7266 112.775 68.6795 112.935 68.6795H114.356C114.507 68.6795 114.619 68.7238 114.693 68.809C114.773 68.8961 114.796 69.0328 114.76 69.217H114.465V69.2174Z" fill="white"/>
<path fill-rule="evenodd" clip-rule="evenodd" d="M116.563 69.7969C116.569 69.7112 116.544 69.6532 116.49 69.6226C116.469 69.6098 116.446 69.5998 116.42 69.5945C116.394 69.5903 116.367 69.5875 116.339 69.5875H115.653C115.584 69.5875 115.515 69.6017 115.447 69.6298C115.369 69.6602 115.323 69.6998 115.305 69.7469L114.929 70.8253H114.636L115.174 69.2855H115.467L115.445 69.3499C115.502 69.3269 115.556 69.3109 115.606 69.3008C115.656 69.2908 115.707 69.2855 115.756 69.2855H116.445C116.575 69.2855 116.682 69.3203 116.765 69.3889C116.864 69.4732 116.893 69.6083 116.853 69.7969H116.563Z" fill="white"/>
<path fill-rule="evenodd" clip-rule="evenodd" d="M119.165 69.7426C119.115 69.8854 119.006 70.0021 118.839 70.0934C118.702 70.1692 118.562 70.2058 118.421 70.2058H117.734C117.688 70.2058 117.647 70.2016 117.607 70.1939C117.567 70.1858 117.519 70.1707 117.463 70.1473L117.391 70.3534L117.39 70.3582C117.38 70.4015 117.403 70.4396 117.462 70.4738C117.487 70.4924 117.514 70.5043 117.541 70.5124C117.569 70.52 117.596 70.5229 117.624 70.5229H118.31C118.338 70.5229 118.368 70.52 118.396 70.5158C118.426 70.5106 118.455 70.5014 118.485 70.4887C118.561 70.4572 118.627 70.3991 118.68 70.3139H118.97C118.88 70.501 118.756 70.6357 118.598 70.7195C118.468 70.7896 118.337 70.8253 118.205 70.8253H117.519C117.387 70.8253 117.277 70.789 117.187 70.7171C117.076 70.6267 117.045 70.5082 117.097 70.361L117.312 69.745C117.364 69.5989 117.47 69.4826 117.63 69.3961C117.765 69.3227 117.907 69.2855 118.058 69.2855H118.743C118.888 69.2855 119.003 69.3208 119.089 69.3917C119.19 69.4784 119.216 69.5945 119.165 69.7426ZM118.893 70.0086C118.907 69.8855 118.893 69.7786 118.851 69.6839C118.805 69.5656 118.739 69.5055 118.652 69.5055H117.956C117.896 69.5055 117.827 69.5505 117.75 69.639C117.669 69.7308 117.621 69.8524 117.604 70.0024C117.588 70.1482 117.608 70.2684 117.666 70.3645C117.718 70.4592 117.778 70.5055 117.844 70.5055H118.543C118.626 70.5055 118.704 70.4487 118.778 70.3347C118.841 70.2414 118.879 70.1331 118.893 70.0086Z" fill="white"/>
<path fill-rule="evenodd" clip-rule="evenodd" d="M121.464 69.7426C121.415 69.8854 121.306 70.0021 121.139 70.0934C121.001 70.1692 120.862 70.2058 120.72 70.2058H120.034C119.988 70.2058 119.947 70.2016 119.906 70.1939C119.867 70.1858 119.819 70.1707 119.763 70.1473L119.691 70.3534L119.689 70.3582C119.679 70.4015 119.703 70.4396 119.762 70.4738C119.787 70.4924 119.814 70.5043 119.841 70.5124C119.868 70.52 119.896 70.5229 119.924 70.5229H120.61C120.638 70.5229 120.667 70.52 120.696 70.5158C120.725 70.5106 120.755 70.5014 120.785 70.4887C120.861 70.4572 120.926 70.3991 120.98 70.3139H121.269C121.18 70.501 121.056 70.6357 120.898 70.7195C120.768 70.7896 120.638 70.8253 120.506 70.8253H119.819C119.687 70.8253 119.577 70.789 119.487 70.7171C119.375 70.6267 119.345 70.5082 119.397 70.361L119.612 69.745C119.663 69.5989 119.769 69.4826 119.93 69.3961C120.065 69.3227 120.207 69.2855 120.357 69.2855H121.043C121.187 69.2855 121.303 69.3208 121.388 69.3917C121.49 69.4784 121.516 69.5945 121.464 69.7426ZM121.194 70.0086C121.207 69.8855 121.193 69.7786 121.151 69.6839C121.105 69.5656 121.039 69.5055 120.953 69.5055H120.257C120.196 69.5055 120.127 69.5505 120.05 69.639C119.969 69.7308 119.921 69.8524 119.904 70.0024C119.888 70.1482 119.908 70.2684 119.966 70.3645C120.018 70.4592 120.078 70.5055 120.145 70.5055H120.843C120.926 70.5055 121.004 70.4487 121.078 70.3347C121.141 70.2414 121.179 70.1331 121.194 70.0086Z" fill="white"/>
<path fill-rule="evenodd" clip-rule="evenodd" d="M125.882 70.6871C125.742 70.7791 125.591 70.8251 125.429 70.8251H124.004C123.854 70.8251 123.742 70.7833 123.668 70.7C123.588 70.61 123.566 70.4719 123.601 70.2872H123.891C123.881 70.3744 123.897 70.4362 123.938 70.4738H123.935C123.978 70.5062 124.036 70.5233 124.11 70.5233H125.535C125.619 70.5233 125.697 70.5029 125.769 70.4624C125.835 70.4267 125.876 70.3843 125.893 70.3367L125.979 70.091C125.995 70.043 125.983 70.0016 125.942 69.9659C125.898 69.925 125.834 69.9044 125.749 69.9044H124.326C124.166 69.9044 124.046 69.8582 123.967 69.7664C123.882 69.6716 123.863 69.554 123.913 69.4136L123.999 69.1675C124.046 69.0328 124.145 68.9161 124.295 68.8195C124.44 68.7266 124.593 68.6795 124.753 68.6795H126.179C126.329 68.6795 126.44 68.7238 126.513 68.809C126.594 68.8961 126.617 69.0328 126.581 69.217H126.291C126.3 69.1298 126.284 69.0674 126.242 69.0304H126.245C126.206 68.9995 126.148 68.9837 126.073 68.9837H124.647C124.562 68.9837 124.482 69.0032 124.409 69.0446C124.344 69.0784 124.304 69.1199 124.288 69.167L124.202 69.4132C124.185 69.4627 124.196 69.5045 124.235 69.5407C124.279 69.5816 124.344 69.6022 124.431 69.6022H125.857C126.019 69.6022 126.138 69.6484 126.214 69.7397C126.298 69.8368 126.316 69.953 126.268 70.0906L126.182 70.3363C126.134 70.4753 126.034 70.5934 125.882 70.6871Z" fill="white"/>
<path fill-rule="evenodd" clip-rule="evenodd" d="M128.149 70.7128C128.013 70.7875 127.873 70.8251 127.73 70.8251H127.044C126.904 70.8251 126.791 70.7879 126.704 70.7152C126.598 70.6247 126.571 70.5067 126.622 70.3615L126.837 69.7454C126.887 69.6025 126.996 69.4859 127.163 69.394C127.3 69.3188 127.441 69.2812 127.584 69.2812H128.27C128.405 69.2812 128.516 69.3164 128.603 69.3874C128.713 69.4787 128.742 69.5968 128.691 69.743L128.475 70.3619C128.425 70.5038 128.316 70.6208 128.149 70.7128ZM128.398 69.753C128.414 69.7037 128.394 69.6631 128.337 69.63C128.289 69.6001 128.231 69.5858 128.163 69.5858H127.477C127.408 69.5858 127.341 69.5991 127.275 69.6276C127.195 69.662 127.147 69.7037 127.131 69.753L126.914 70.4156C126.898 70.4649 126.918 70.5055 126.974 70.5386C127.025 70.57 127.083 70.5858 127.148 70.5858H127.836C127.867 70.5858 127.9 70.5821 127.934 70.5751C127.967 70.5674 128.002 70.5573 128.037 70.5417C128.118 70.5066 128.166 70.4639 128.182 70.4132L128.398 69.753Z" fill="white"/>
<path fill-rule="evenodd" clip-rule="evenodd" d="M129.543 69.5876L129.076 70.8254H128.759L129.395 69.1415C129.45 68.9977 129.553 68.8816 129.703 68.7949C129.836 68.7197 130.001 68.6821 130.199 68.6821L130.087 68.9797C129.962 68.9977 129.872 69.02 129.815 69.0476C129.759 69.0763 129.725 69.1072 129.712 69.1415L129.657 69.2857H129.973L129.859 69.5881H129.543V69.5876Z" fill="white"/>
<path fill-rule="evenodd" clip-rule="evenodd" d="M131.013 69.5881L130.459 70.8259H130.082L130.636 69.5881H130.264L130.399 69.2858H130.77L131.041 68.6803H131.419L131.148 69.2858H131.522L131.387 69.5881H131.013Z" fill="white"/>
<path fill-rule="evenodd" clip-rule="evenodd" d="M133.04 70.7072C132.916 70.7839 132.776 70.823 132.621 70.823C132.536 70.823 132.456 70.8106 132.383 70.7858C132.31 70.7611 132.248 70.7225 132.197 70.6706C132.109 70.721 132.018 70.7602 131.925 70.7858C131.832 70.8125 131.743 70.8253 131.658 70.8253C131.508 70.8253 131.397 70.7878 131.323 70.7129C131.24 70.6268 131.226 70.5101 131.278 70.3616L131.654 69.2857H131.946L131.569 70.364C131.554 70.4102 131.567 70.4473 131.61 70.4768C131.658 70.5077 131.723 70.5235 131.808 70.5235C131.895 70.5235 131.971 70.5083 132.037 70.4768C132.101 70.4488 132.142 70.4102 132.159 70.3616L132.392 69.6985H132.684L132.451 70.3636C132.435 70.4111 132.449 70.4477 132.493 70.4735C132.541 70.5044 132.604 70.5202 132.686 70.5202C132.774 70.5202 132.851 70.5049 132.917 70.4735C132.982 70.4459 133.022 70.4092 133.038 70.3636L133.415 69.2852H133.71L133.334 70.3612C133.283 70.5055 133.185 70.6211 133.04 70.7072Z" fill="white"/>
<path fill-rule="evenodd" clip-rule="evenodd" d="M135.242 70.7152C135.105 70.7879 134.963 70.8251 134.817 70.8251H134.131C133.984 70.8251 133.867 70.789 133.783 70.717C133.68 70.6309 133.655 70.5148 133.707 70.3657C133.757 70.2214 133.865 70.1053 134.032 70.0172C134.169 69.9419 134.309 69.9049 134.453 69.9049H135.139C135.182 69.9049 135.224 69.9091 135.263 69.9167C135.303 69.9253 135.351 69.941 135.407 69.9638L135.48 69.7549C135.49 69.7106 135.466 69.6716 135.41 69.6377C135.361 69.6049 135.307 69.5882 135.249 69.5882H134.563C134.533 69.5882 134.503 69.5911 134.474 69.5954C134.446 69.6007 134.415 69.6101 134.386 69.6235C134.309 69.6539 134.244 69.7126 134.191 69.7978H133.901C133.993 69.6106 134.116 69.4759 134.272 69.392C134.401 69.3217 134.532 69.286 134.666 69.286H135.354C135.489 69.286 135.601 69.3212 135.687 69.392C135.798 69.4807 135.828 69.5992 135.775 69.7477L135.56 70.3643C135.509 70.5095 135.403 70.6261 135.242 70.7152ZM135.289 70.6102C135.305 70.4664 135.284 70.3449 135.227 70.2469C135.175 70.1538 135.116 70.106 135.051 70.106H134.353C134.272 70.106 134.193 70.1646 134.115 70.2772C134.052 70.3699 134.014 70.4797 134 70.6027C133.985 70.7304 133.998 70.8416 134.039 70.9362C134.087 71.0487 134.153 71.106 134.238 71.106H134.938C135.007 71.106 135.075 71.0653 135.141 70.9825C135.224 70.8789 135.273 70.7545 135.289 70.6102Z" fill="white"/>
<path fill-rule="evenodd" clip-rule="evenodd" d="M137.773 69.7969C137.779 69.7112 137.754 69.6532 137.699 69.6226C137.679 69.6098 137.655 69.5998 137.63 69.5945C137.604 69.5903 137.577 69.5875 137.549 69.5875H136.863C136.794 69.5875 136.725 69.6017 136.658 69.6298C136.579 69.6602 136.532 69.6998 136.514 69.7469L136.139 70.8253H135.846L136.383 69.2855H136.676L136.654 69.3499C136.712 69.3269 136.766 69.3109 136.816 69.3008C136.865 69.2908 136.915 69.2855 136.966 69.2855H137.654C137.785 69.2855 137.891 69.3203 137.974 69.3889C138.074 69.4732 138.102 69.6083 138.062 69.7969H137.773Z" fill="white"/>
<path fill-rule="evenodd" clip-rule="evenodd" d="M140.374 69.7426C140.324 69.8854 140.216 70.0021 140.048 70.0934C139.911 70.1692 139.771 70.2058 139.63 70.2058H138.944C138.898 70.2058 138.856 70.2016 138.817 70.1939C138.777 70.1858 138.729 70.1707 138.673 70.1473L138.601 70.3534L138.599 70.3582C138.589 70.4015 138.613 70.4396 138.671 70.4738C138.697 70.4924 138.723 70.5043 138.75 70.5124C138.778 70.52 138.805 70.5229 138.834 70.5229H139.52C139.548 70.5229 139.577 70.52 139.605 70.5158C139.635 70.5106 139.665 70.5014 139.694 70.4887C139.771 70.4572 139.836 70.3991 139.889 70.3139H140.179C140.089 70.501 139.965 70.6357 139.807 70.7195C139.677 70.7896 139.547 70.8253 139.414 70.8253H138.728C138.597 70.8253 138.486 70.789 138.396 70.7171C138.284 70.6267 138.254 70.5082 138.306 70.361L138.521 69.745C138.572 69.5989 138.678 69.4826 138.839 69.3961C138.974 69.3227 139.117 69.2855 139.266 69.2855H139.953C140.096 69.2855 140.212 69.3208 140.297 69.3917C140.4 69.4784 140.426 69.5945 140.374 69.7426ZM140.103 70.0086C140.117 69.8855 140.103 69.7786 140.06 69.6839C140.014 69.5656 139.949 69.5055 139.862 69.5055H139.167C139.106 69.5055 139.037 69.5505 138.96 69.639C138.879 69.7308 138.831 69.8524 138.814 70.0024C138.797 70.1482 138.818 70.2684 138.875 70.3645C138.927 70.4592 138.987 70.5055 139.055 70.5055H139.752C139.836 70.5055 139.914 70.4487 139.988 70.3347C140.051 70.2414 140.089 70.1331 140.103 70.0086Z" fill="white"/>
<path fill-rule="evenodd" clip-rule="evenodd" d="M140.394 65.0236C140.394 65.4622 140.208 65.8306 139.837 66.1295C139.496 66.4181 139.069 66.5629 138.559 66.5629H134.067C133.596 66.5629 133.197 66.4315 132.871 66.1681C132.519 65.8844 132.296 65.4517 132.202 64.8689H133.116C133.18 65.1422 133.299 65.3378 133.472 65.4569H133.465C133.633 65.5601 133.834 65.6111 134.066 65.6111H138.559C138.816 65.6111 139.039 65.5492 139.227 65.4254C139.396 65.3122 139.48 65.1779 139.48 65.0231V64.2496C139.48 64.1048 139.396 63.9763 139.227 63.8624C139.029 63.7288 138.804 63.6616 138.552 63.6616H136.16V62.71H138.559C138.821 62.71 139.045 62.6456 139.227 62.5166C139.396 62.4038 139.48 62.2714 139.48 62.1224V61.3487C139.48 61.2041 139.396 61.075 139.227 60.9617C139.029 60.8275 138.804 60.7603 138.552 60.7603H134.066C133.838 60.7603 133.64 60.8117 133.472 60.9151H133.479C133.301 61.0237 133.18 61.2193 133.116 61.5031H132.201C132.291 60.9151 132.509 60.4867 132.855 60.2186C133.182 59.9453 133.586 59.8091 134.066 59.8091H138.559C139.059 59.8091 139.485 59.9534 139.836 60.2419C140.208 60.5465 140.393 60.9151 140.393 61.3483C140.393 61.7249 140.379 62.0677 140.349 62.3767C140.339 62.5313 140.29 62.6737 140.2 62.8027C140.161 62.8594 140.115 62.9185 140.063 62.9807C140.011 63.0427 139.948 63.1099 139.874 63.1817C140.017 63.3212 140.126 63.4498 140.2 63.5687C140.285 63.7135 140.334 63.8525 140.349 63.9868C140.38 64.2914 140.394 64.6366 140.394 65.0236Z" fill="white"/>
<path fill-rule="evenodd" clip-rule="evenodd" d="M116.87 61.1758L116.24 61.5866V63.9604L116.87 64.3789V64.9001C116.614 64.7359 116.355 64.5694 116.091 64.3988C115.829 64.2293 115.57 64.0622 115.317 63.898C115.063 63.7343 114.818 63.5747 114.581 63.421C114.344 63.2672 114.121 63.1216 113.912 62.9845C113.831 62.9453 113.792 62.8763 113.792 62.7788C113.792 62.6888 113.831 62.6212 113.912 62.5769L116.871 60.6506V61.1758H116.87ZM115.908 63.6785V61.8766L114.537 62.7022C114.491 62.7292 114.468 62.7535 114.468 62.7754C114.468 62.8001 114.491 62.8244 114.537 62.8487L115.908 63.6785Z" fill="white"/>
<path fill-rule="evenodd" clip-rule="evenodd" d="M116.669 56.545C116.803 56.7211 116.87 56.9339 116.87 57.1838V59.3996C116.87 59.6515 116.804 59.8624 116.673 60.0308C116.536 60.2117 116.369 60.3022 116.168 60.3022H114.492C114.297 60.3022 114.13 60.2117 113.992 60.0308C113.858 59.8547 113.791 59.6419 113.791 59.3924V57.1724C113.791 56.9401 113.853 56.743 113.978 56.5816C114.102 56.4131 114.298 56.3041 114.566 56.255V56.7064C114.437 56.7377 114.347 56.7977 114.295 56.8859C114.25 56.9615 114.228 57.0581 114.228 57.1757V59.392C114.228 59.5238 114.257 59.6366 114.316 59.7295C114.365 59.81 114.423 59.8504 114.492 59.8504H116.168C116.239 59.8504 116.3 59.81 116.351 59.7295L116.348 59.7334C116.407 59.6428 116.436 59.531 116.436 59.399V57.1834C116.436 57.0682 116.413 56.9654 116.365 56.8754C116.317 56.7673 116.249 56.7136 116.165 56.7136H115.548V58.5083H115.115V56.266H116.168C116.364 56.266 116.53 56.3593 116.669 56.545Z" fill="white"/>
<path fill-rule="evenodd" clip-rule="evenodd" d="M115.349 51.8078C115.48 51.9763 115.546 52.1887 115.546 52.4429V55.1176H116.87V55.5688H114.493C114.298 55.5688 114.131 55.4783 113.992 55.2974C113.858 55.1213 113.792 54.9085 113.792 54.659V52.4429C113.792 52.1959 113.858 51.9854 113.992 51.8116C114.131 51.6283 114.298 51.5365 114.493 51.5365H114.845C115.044 51.5365 115.213 51.6269 115.349 51.8078ZM114.659 51.9839C114.551 51.9839 114.457 52.0258 114.372 52.1092C114.276 52.202 114.229 52.3135 114.229 52.4429V54.6623C114.229 54.7753 114.265 54.8767 114.337 54.9671C114.41 55.0675 114.517 55.1176 114.659 55.1176H115.669V52.4429C115.669 52.3135 115.623 52.202 115.531 52.1092C115.447 52.0258 115.347 51.9839 115.232 51.9839H114.659Z" fill="white"/>
<path fill-rule="evenodd" clip-rule="evenodd" d="M116.184 46.8068C116.393 46.844 116.56 46.9463 116.687 47.1153C116.81 47.2791 116.871 47.4771 116.871 47.7095V49.9294C116.871 50.1784 116.805 50.3907 116.673 50.564C116.537 50.7478 116.369 50.8392 116.169 50.8392H113.795V50.3808H116.169C116.239 50.3808 116.301 50.3403 116.352 50.2594L116.349 50.2632C116.407 50.1727 116.436 50.0613 116.436 49.9294V47.7095C116.436 47.5971 116.413 47.4995 116.366 47.4162V47.4195C116.314 47.3315 116.226 47.2715 116.102 47.24V46.8801L116.184 46.8068Z" fill="white"/>
<path fill-rule="evenodd" clip-rule="evenodd" d="M131.503 1.20001H140.394L126.697 25.2421C125.915 26.5819 125.152 27.613 124.408 28.3357C123.663 29.0588 122.976 29.584 122.346 29.9125C121.715 30.241 121.173 30.4319 120.719 30.4838C120.265 30.5366 119.949 30.5627 119.773 30.5627H111.6V9.79233H119.243L119.281 24.0595L131.503 1.20001Z" fill="white"/>
<path fill-rule="evenodd" clip-rule="evenodd" d="M114.465 33.2174C114.478 33.1274 114.463 33.0652 114.42 33.0308H114.422C114.382 32.9999 114.325 32.9842 114.25 32.9842H112.829C112.744 32.9842 112.666 33.0037 112.593 33.0451C112.529 33.079 112.489 33.1204 112.472 33.1675L112.322 33.5993H113.37L113.265 33.902H112.216L111.894 34.8247H111.601L112.18 33.1675C112.228 33.0328 112.326 32.9161 112.476 32.8195C112.622 32.7266 112.775 32.6795 112.935 32.6795H114.356C114.507 32.6795 114.619 32.7238 114.693 32.809C114.773 32.8961 114.796 33.0328 114.76 33.217H114.465V33.2174Z" fill="white"/>
<path fill-rule="evenodd" clip-rule="evenodd" d="M116.563 33.7969C116.569 33.7112 116.544 33.6532 116.49 33.6226C116.469 33.6098 116.446 33.5998 116.42 33.5945C116.394 33.5903 116.367 33.5875 116.339 33.5875H115.653C115.584 33.5875 115.515 33.6017 115.447 33.6298C115.369 33.6602 115.323 33.6998 115.305 33.7469L114.929 34.8253H114.636L115.174 33.2855H115.467L115.445 33.3499C115.502 33.3269 115.556 33.3109 115.606 33.3008C115.656 33.2908 115.707 33.2855 115.756 33.2855H116.445C116.575 33.2855 116.682 33.3203 116.765 33.3889C116.864 33.4732 116.893 33.6083 116.853 33.7969H116.563Z" fill="white"/>
<path fill-rule="evenodd" clip-rule="evenodd" d="M119.165 33.7426C119.115 33.8854 119.006 34.0021 118.839 34.0934C118.702 34.1692 118.562 34.2058 118.421 34.2058H117.734C117.688 34.2058 117.647 34.2016 117.607 34.1939C117.567 34.1858 117.519 34.1707 117.463 34.1473L117.391 34.3534L117.39 34.3582C117.38 34.4015 117.403 34.4396 117.462 34.4738C117.487 34.4924 117.514 34.5043 117.541 34.5124C117.569 34.52 117.596 34.5229 117.624 34.5229H118.31C118.338 34.5229 118.368 34.52 118.396 34.5158C118.426 34.5106 118.455 34.5014 118.485 34.4887C118.561 34.4572 118.627 34.3991 118.68 34.3139H118.97C118.88 34.501 118.756 34.6357 118.598 34.7195C118.468 34.7896 118.337 34.8253 118.205 34.8253H117.519C117.387 34.8253 117.277 34.789 117.187 34.7171C117.076 34.6267 117.045 34.5082 117.097 34.361L117.312 33.745C117.364 33.5989 117.47 33.4826 117.63 33.3961C117.765 33.3227 117.907 33.2855 118.058 33.2855H118.743C118.888 33.2855 119.003 33.3208 119.089 33.3917C119.19 33.4784 119.216 33.5945 119.165 33.7426ZM118.893 34.0086C118.907 33.8856 118.893 33.7786 118.851 33.684C118.805 33.5656 118.739 33.5055 118.652 33.5055H117.956C117.896 33.5055 117.827 33.5505 117.75 33.639C117.669 33.7308 117.621 33.8524 117.604 34.0024C117.588 34.1482 117.608 34.2684 117.666 34.3645C117.718 34.4592 117.778 34.5055 117.844 34.5055H118.543C118.626 34.5055 118.704 34.4487 118.778 34.3347C118.841 34.2414 118.879 34.1331 118.893 34.0086Z" fill="white"/>
<path fill-rule="evenodd" clip-rule="evenodd" d="M121.464 33.7426C121.415 33.8854 121.306 34.0021 121.139 34.0934C121.001 34.1692 120.862 34.2058 120.72 34.2058H120.034C119.988 34.2058 119.947 34.2016 119.906 34.1939C119.867 34.1858 119.819 34.1707 119.763 34.1473L119.691 34.3534L119.689 34.3582C119.679 34.4015 119.703 34.4396 119.762 34.4738C119.787 34.4924 119.814 34.5043 119.841 34.5124C119.868 34.52 119.896 34.5229 119.924 34.5229H120.61C120.638 34.5229 120.667 34.52 120.696 34.5158C120.725 34.5106 120.755 34.5014 120.785 34.4887C120.861 34.4572 120.926 34.3991 120.98 34.3139H121.269C121.18 34.501 121.056 34.6357 120.898 34.7195C120.768 34.7896 120.638 34.8253 120.506 34.8253H119.819C119.687 34.8253 119.577 34.789 119.487 34.7171C119.375 34.6267 119.345 34.5082 119.397 34.361L119.612 33.745C119.663 33.5989 119.769 33.4826 119.93 33.3961C120.065 33.3227 120.207 33.2855 120.357 33.2855H121.043C121.187 33.2855 121.303 33.3208 121.388 33.3917C121.49 33.4784 121.516 33.5945 121.464 33.7426ZM121.194 34.0086C121.207 33.8856 121.193 33.7786 121.151 33.684C121.105 33.5656 121.039 33.5055 120.953 33.5055H120.257C120.196 33.5055 120.127 33.5505 120.05 33.639C119.969 33.7308 119.921 33.8524 119.904 34.0024C119.888 34.1482 119.908 34.2684 119.966 34.3645C120.018 34.4592 120.078 34.5055 120.145 34.5055H120.843C120.926 34.5055 121.004 34.4487 121.078 34.3347C121.141 34.2414 121.179 34.1331 121.194 34.0086Z" fill="white"/>
<path fill-rule="evenodd" clip-rule="evenodd" d="M125.882 34.6871C125.742 34.7791 125.591 34.8251 125.429 34.8251H124.004C123.854 34.8251 123.742 34.7833 123.668 34.7C123.588 34.61 123.566 34.4719 123.601 34.2872H123.891C123.881 34.3744 123.897 34.4362 123.938 34.4738H123.935C123.978 34.5062 124.036 34.5233 124.11 34.5233H125.535C125.619 34.5233 125.697 34.5029 125.769 34.4624C125.835 34.4267 125.876 34.3843 125.893 34.3367L125.979 34.091C125.995 34.043 125.983 34.0016 125.942 33.9659C125.898 33.925 125.834 33.9044 125.749 33.9044H124.326C124.166 33.9044 124.046 33.8582 123.967 33.7664C123.882 33.6716 123.863 33.554 123.913 33.4136L123.999 33.1675C124.046 33.0328 124.145 32.9161 124.295 32.8195C124.44 32.7266 124.593 32.6795 124.753 32.6795H126.179C126.329 32.6795 126.44 32.7238 126.513 32.809C126.594 32.8961 126.617 33.0328 126.581 33.217H126.291C126.3 33.1298 126.284 33.0674 126.242 33.0304H126.245C126.206 32.9995 126.148 32.9837 126.073 32.9837H124.647C124.562 32.9837 124.482 33.0032 124.409 33.0446C124.344 33.0784 124.304 33.1199 124.288 33.167L124.202 33.4132C124.185 33.4627 124.196 33.5045 124.235 33.5407C124.279 33.5816 124.344 33.6022 124.431 33.6022H125.857C126.019 33.6022 126.138 33.6484 126.214 33.7397C126.298 33.8368 126.316 33.953 126.268 34.0906L126.182 34.3363C126.134 34.4753 126.034 34.5934 125.882 34.6871Z" fill="white"/>
<path fill-rule="evenodd" clip-rule="evenodd" d="M128.149 34.7128C128.013 34.7875 127.873 34.8251 127.73 34.8251H127.044C126.904 34.8251 126.791 34.7879 126.704 34.7152C126.598 34.6247 126.571 34.5067 126.622 34.3615L126.837 33.7454C126.887 33.6025 126.996 33.4859 127.163 33.394C127.3 33.3188 127.441 33.2812 127.584 33.2812H128.27C128.405 33.2812 128.516 33.3164 128.603 33.3874C128.713 33.4787 128.742 33.5968 128.691 33.743L128.475 34.3619C128.425 34.5038 128.316 34.6208 128.149 34.7128ZM128.398 33.753C128.414 33.7037 128.394 33.6631 128.337 33.63C128.289 33.6001 128.231 33.5858 128.163 33.5858H127.477C127.408 33.5858 127.341 33.5991 127.275 33.6276C127.195 33.662 127.147 33.7037 127.131 33.753L126.914 34.4156C126.898 34.4649 126.918 34.5055 126.974 34.5386C127.025 34.57 127.083 34.5858 127.148 34.5858H127.836C127.867 34.5858 127.9 34.5821 127.934 34.5751C127.967 34.5674 128.002 34.5573 128.037 34.5417C128.118 34.5066 128.166 34.4639 128.182 34.4132L128.398 33.753Z" fill="white"/>
<path fill-rule="evenodd" clip-rule="evenodd" d="M129.543 33.5876L129.076 34.8254H128.759L129.395 33.1415C129.45 32.9977 129.553 32.8816 129.703 32.7949C129.836 32.7197 130.001 32.6821 130.199 32.6821L130.087 32.9797C129.962 32.9977 129.872 33.02 129.815 33.0476C129.759 33.0763 129.725 33.1072 129.712 33.1415L129.657 33.2857H129.973L129.859 33.5881H129.543V33.5876Z" fill="white"/>
<path fill-rule="evenodd" clip-rule="evenodd" d="M131.013 33.5881L130.459 34.8259H130.082L130.636 33.5881H130.264L130.399 33.2858H130.77L131.041 32.6803H131.419L131.148 33.2858H131.522L131.387 33.5881H131.013Z" fill="white"/>
<path fill-rule="evenodd" clip-rule="evenodd" d="M133.04 34.7072C132.916 34.7839 132.776 34.823 132.621 34.823C132.536 34.823 132.456 34.8106 132.383 34.7858C132.31 34.7611 132.248 34.7225 132.197 34.6706C132.109 34.721 132.018 34.7602 131.925 34.7858C131.832 34.8125 131.743 34.8253 131.658 34.8253C131.508 34.8253 131.397 34.7878 131.323 34.7129C131.24 34.6268 131.226 34.5101 131.278 34.3616L131.654 33.2857H131.946L131.569 34.364C131.554 34.4102 131.567 34.4473 131.61 34.4768C131.658 34.5077 131.723 34.5235 131.808 34.5235C131.895 34.5235 131.971 34.5083 132.037 34.4768C132.101 34.4488 132.142 34.4102 132.159 34.3616L132.392 33.6985H132.684L132.451 34.3636C132.435 34.4111 132.449 34.4477 132.493 34.4735C132.541 34.5044 132.604 34.5202 132.686 34.5202C132.774 34.5202 132.851 34.5049 132.917 34.4735C132.982 34.4459 133.022 34.4092 133.038 34.3636L133.415 33.2852H133.71L133.334 34.3612C133.283 34.5055 133.185 34.6211 133.04 34.7072Z" fill="white"/>
<path fill-rule="evenodd" clip-rule="evenodd" d="M135.242 34.7152C135.105 34.7879 134.963 34.8251 134.817 34.8251H134.131C133.984 34.8251 133.867 34.789 133.783 34.717C133.68 34.6309 133.655 34.5148 133.707 34.3657C133.757 34.2214 133.865 34.1053 134.032 34.0172C134.169 33.9419 134.309 33.9049 134.453 33.9049H135.139C135.182 33.9049 135.224 33.9091 135.263 33.9167C135.303 33.9253 135.351 33.941 135.407 33.9638L135.48 33.7549C135.49 33.7106 135.466 33.6716 135.41 33.6377C135.361 33.6049 135.307 33.5882 135.249 33.5882H134.563C134.533 33.5882 134.503 33.5911 134.474 33.5954C134.446 33.6007 134.415 33.6101 134.386 33.6235C134.309 33.6539 134.244 33.7126 134.191 33.7978H133.901C133.993 33.6106 134.116 33.4759 134.272 33.392C134.401 33.3217 134.532 33.286 134.666 33.286H135.354C135.489 33.286 135.601 33.3212 135.687 33.392C135.798 33.4807 135.828 33.5992 135.775 33.7477L135.56 34.3643C135.509 34.5095 135.403 34.6261 135.242 34.7152ZM135.289 34.6102C135.305 34.4664 135.284 34.3449 135.227 34.2469C135.175 34.1538 135.116 34.106 135.051 34.106H134.353C134.272 34.106 134.193 34.1646 134.115 34.2772C134.052 34.3699 134.014 34.4797 134 34.6027C133.985 34.7304 133.998 34.8416 134.039 34.9362C134.087 35.0487 134.153 35.106 134.238 35.106H134.938C135.007 35.106 135.075 35.0653 135.141 34.9825C135.224 34.8789 135.273 34.7545 135.289 34.6102Z" fill="white"/>
<path fill-rule="evenodd" clip-rule="evenodd" d="M137.773 33.7969C137.779 33.7112 137.754 33.6532 137.699 33.6226C137.679 33.6098 137.655 33.5998 137.63 33.5945C137.604 33.5903 137.577 33.5875 137.549 33.5875H136.863C136.794 33.5875 136.725 33.6017 136.658 33.6298C136.579 33.6602 136.532 33.6998 136.514 33.7469L136.139 34.8253H135.846L136.383 33.2855H136.676L136.654 33.3499C136.712 33.3269 136.766 33.3109 136.816 33.3008C136.865 33.2908 136.915 33.2855 136.966 33.2855H137.654C137.785 33.2855 137.891 33.3203 137.974 33.3889C138.074 33.4732 138.102 33.6083 138.062 33.7969H137.773Z" fill="white"/>
<path fill-rule="evenodd" clip-rule="evenodd" d="M140.374 33.7426C140.324 33.8854 140.216 34.0021 140.048 34.0934C139.911 34.1692 139.771 34.2058 139.63 34.2058H138.944C138.898 34.2058 138.856 34.2016 138.817 34.1939C138.777 34.1858 138.729 34.1707 138.673 34.1473L138.601 34.3534L138.599 34.3582C138.589 34.4015 138.613 34.4396 138.671 34.4738C138.697 34.4924 138.723 34.5043 138.75 34.5124C138.778 34.52 138.805 34.5229 138.834 34.5229H139.52C139.548 34.5229 139.577 34.52 139.605 34.5158C139.635 34.5106 139.665 34.5014 139.694 34.4887C139.771 34.4572 139.836 34.3991 139.889 34.3139H140.179C140.089 34.501 139.965 34.6357 139.807 34.7195C139.677 34.7896 139.547 34.8253 139.414 34.8253H138.728C138.597 34.8253 138.486 34.789 138.396 34.7171C138.284 34.6267 138.254 34.5082 138.306 34.361L138.521 33.745C138.572 33.5989 138.678 33.4826 138.839 33.3961C138.974 33.3227 139.117 33.2855 139.266 33.2855H139.953C140.096 33.2855 140.212 33.3208 140.297 33.3917C140.4 33.4784 140.426 33.5945 140.374 33.7426ZM140.103 34.0086C140.117 33.8856 140.103 33.7786 140.06 33.684C140.014 33.5656 139.949 33.5055 139.862 33.5055H139.167C139.106 33.5055 139.037 33.5505 138.96 33.639C138.879 33.7308 138.831 33.8524 138.814 34.0024C138.797 34.1482 138.818 34.2684 138.875 34.3645C138.927 34.4592 138.987 34.5055 139.055 34.5055H139.752C139.836 34.5055 139.914 34.4487 139.988 34.3347C140.051 34.2414 140.089 34.1331 140.103 34.0086Z" fill="white"/>
<path fill-rule="evenodd" clip-rule="evenodd" d="M140.394 29.0236C140.394 29.4622 140.208 29.8306 139.837 30.1295C139.496 30.4181 139.069 30.5629 138.559 30.5629H134.067C133.596 30.5629 133.197 30.4315 132.871 30.1681C132.519 29.8844 132.296 29.4517 132.202 28.8689H133.116C133.18 29.1422 133.299 29.3378 133.472 29.4569H133.465C133.633 29.5601 133.834 29.6111 134.066 29.6111H138.559C138.816 29.6111 139.039 29.5492 139.227 29.4254C139.396 29.3122 139.48 29.1779 139.48 29.0231V28.2496C139.48 28.1048 139.396 27.9763 139.227 27.8624C139.029 27.7288 138.804 27.6616 138.552 27.6616H136.16V26.71H138.559C138.821 26.71 139.045 26.6456 139.227 26.5166C139.396 26.4038 139.48 26.2714 139.48 26.1224V25.3487C139.48 25.2041 139.396 25.075 139.227 24.9617C139.029 24.8275 138.804 24.7603 138.552 24.7603H134.066C133.838 24.7603 133.64 24.8117 133.472 24.9151H133.479C133.301 25.0237 133.18 25.2193 133.116 25.5031H132.201C132.291 24.9151 132.509 24.4867 132.855 24.2186C133.182 23.9453 133.586 23.8091 134.066 23.8091H138.559C139.059 23.8091 139.485 23.9534 139.836 24.2419C140.208 24.5465 140.393 24.9151 140.393 25.3483C140.393 25.7249 140.379 26.0677 140.349 26.3767C140.339 26.5313 140.29 26.6737 140.2 26.8027C140.161 26.8594 140.115 26.9185 140.063 26.9807C140.011 27.0427 139.948 27.1099 139.874 27.1817C140.017 27.3212 140.126 27.4498 140.2 27.5687C140.285 27.7135 140.334 27.8525 140.349 27.9868C140.38 28.2914 140.394 28.6366 140.394 29.0236Z" fill="white"/>
<path fill-rule="evenodd" clip-rule="evenodd" d="M116.87 25.1758L116.24 25.5866V27.9604L116.87 28.3789V28.9001C116.614 28.7359 116.355 28.5694 116.091 28.3988C115.829 28.2293 115.57 28.0622 115.317 27.898C115.063 27.7343 114.818 27.5747 114.581 27.421C114.344 27.2672 114.121 27.1216 113.912 26.9845C113.831 26.9453 113.792 26.8763 113.792 26.7788C113.792 26.6888 113.831 26.6212 113.912 26.5769L116.871 24.6506V25.1758H116.87ZM115.908 27.6785V25.8766L114.537 26.7022C114.491 26.7292 114.468 26.7535 114.468 26.7754C114.468 26.8001 114.491 26.8244 114.537 26.8487L115.908 27.6785Z" fill="white"/>
<path fill-rule="evenodd" clip-rule="evenodd" d="M116.669 20.545C116.803 20.7211 116.87 20.9339 116.87 21.1838V23.3996C116.87 23.6515 116.804 23.8624 116.673 24.0308C116.536 24.2117 116.369 24.3022 116.168 24.3022H114.492C114.297 24.3022 114.13 24.2117 113.992 24.0308C113.858 23.8547 113.791 23.6419 113.791 23.3924V21.1724C113.791 20.9401 113.853 20.743 113.978 20.5816C114.102 20.4131 114.298 20.3041 114.566 20.255V20.7064C114.437 20.7377 114.347 20.7977 114.295 20.8859C114.25 20.9615 114.228 21.0581 114.228 21.1757V23.392C114.228 23.5238 114.257 23.6366 114.316 23.7295C114.365 23.81 114.423 23.8504 114.492 23.8504H116.168C116.239 23.8504 116.3 23.81 116.351 23.7295L116.348 23.7334C116.407 23.6428 116.436 23.531 116.436 23.399V21.1834C116.436 21.0682 116.413 20.9654 116.365 20.8754C116.317 20.7673 116.249 20.7136 116.165 20.7136H115.548V22.5083H115.115V20.266H116.168C116.364 20.266 116.53 20.3593 116.669 20.545Z" fill="white"/>
<path fill-rule="evenodd" clip-rule="evenodd" d="M115.349 15.8078C115.48 15.9763 115.546 16.1887 115.546 16.4429V19.1176H116.87V19.5688H114.493C114.298 19.5688 114.131 19.4783 113.992 19.2974C113.858 19.1213 113.792 18.9085 113.792 18.659V16.4429C113.792 16.1959 113.858 15.9854 113.992 15.8116C114.131 15.6283 114.298 15.5365 114.493 15.5365H114.845C115.044 15.5365 115.213 15.6269 115.349 15.8078ZM114.659 15.9839C114.551 15.9839 114.457 16.0258 114.372 16.1092C114.276 16.202 114.229 16.3135 114.229 16.4429V18.6623C114.229 18.7753 114.265 18.8767 114.337 18.9671C114.41 19.0675 114.517 19.1176 114.659 19.1176H115.669V16.4429C115.669 16.3135 115.623 16.202 115.531 16.1092C115.447 16.0258 115.347 15.9839 115.232 15.9839H114.659Z" fill="white"/>
<path fill-rule="evenodd" clip-rule="evenodd" d="M116.184 10.8068C116.393 10.844 116.56 10.9463 116.687 11.1153C116.81 11.2791 116.871 11.4771 116.871 11.7095V13.9294C116.871 14.1784 116.805 14.3907 116.673 14.564C116.537 14.7478 116.369 14.8392 116.169 14.8392H113.795V14.3808H116.169C116.239 14.3808 116.301 14.3403 116.352 14.2594L116.349 14.2632C116.407 14.1727 116.436 14.0613 116.436 13.9294V11.7095C116.436 11.5971 116.413 11.4995 116.366 11.4162V11.4195C116.314 11.3315 116.226 11.2715 116.102 11.24V10.8801L116.184 10.8068Z" fill="white"/>
<path fill-rule="evenodd" clip-rule="evenodd" d="M158.952 51.3002C158 51.3002 157.248 52.111 157.248 53.1002C157.248 54.0895 158.017 54.9002 158.952 54.9002C159.904 54.9002 160.656 54.0895 160.656 53.1002C160.672 52.111 159.904 51.3002 158.952 51.3002ZM165.049 51.3002C164.096 51.3002 163.345 52.111 163.345 53.1002C163.345 54.0895 164.113 54.9002 165.049 54.9002C166.001 54.9002 166.752 54.0895 166.752 53.1002C166.752 52.111 166.001 51.3002 165.049 51.3002Z" fill="white"/>
<path fill-rule="evenodd" clip-rule="evenodd" d="M172.916 36.9001H151.084C149.243 36.9001 147.744 38.4733 147.744 40.4227V63.5419C147.744 65.4913 149.243 67.0645 151.084 67.0645H169.56L168.696 63.901L170.782 65.9359L172.753 67.8511L176.256 71.1001V40.4227C176.256 38.4733 174.757 36.9001 172.916 36.9001ZM166.627 59.2327C166.627 59.2327 166.041 58.4974 165.552 57.8476C167.686 57.2149 168.501 55.8127 168.501 55.8127C167.833 56.2744 167.198 56.5993 166.627 56.8216C165.813 57.1807 165.031 57.4201 164.265 57.5569C162.701 57.8647 161.267 57.7792 160.045 57.5398C159.116 57.3517 158.318 57.0781 157.65 56.8045C157.275 56.6506 156.868 56.4625 156.461 56.2231C156.412 56.1889 156.363 56.1718 156.314 56.1376C156.281 56.1205 156.265 56.1034 156.249 56.0863C155.956 55.9153 155.793 55.7956 155.793 55.7956C155.793 55.7956 156.575 57.1636 158.644 57.8134C158.155 58.4632 157.552 59.2327 157.552 59.2327C153.952 59.113 152.583 56.6335 152.583 56.6335C152.583 51.1273 154.929 46.6642 154.929 46.6642C157.275 44.8174 159.507 44.8687 159.507 44.8687L159.67 45.0739C156.738 45.9631 155.385 47.314 155.385 47.314C155.385 47.314 155.744 47.1088 156.347 46.8181C158.09 46.0144 159.475 45.7921 160.045 45.7408C160.143 45.7237 160.224 45.7066 160.322 45.7066C161.316 45.5698 162.44 45.5356 163.613 45.6724C165.161 45.8605 166.823 46.3393 168.517 47.314C168.517 47.314 167.23 46.0315 164.46 45.1423L164.688 44.8687C164.688 44.8687 166.92 44.8174 169.267 46.6642C169.267 46.6642 171.613 51.1273 171.613 56.6335C171.613 56.6335 170.228 59.113 166.627 59.2327Z" fill="white"/>
<path fill-rule="evenodd" clip-rule="evenodd" d="M158.952 15.3002C158 15.3002 157.248 16.111 157.248 17.1002C157.248 18.0895 158.017 18.9002 158.952 18.9002C159.904 18.9002 160.656 18.0895 160.656 17.1002C160.672 16.111 159.904 15.3002 158.952 15.3002ZM165.049 15.3002C164.097 15.3002 163.345 16.111 163.345 17.1002C163.345 18.0895 164.113 18.9002 165.049 18.9002C166.001 18.9002 166.752 18.0895 166.752 17.1002C166.752 16.111 166.001 15.3002 165.049 15.3002Z" fill="white"/>
<path fill-rule="evenodd" clip-rule="evenodd" d="M172.916 0.900146H151.084C149.243 0.900146 147.744 2.47335 147.744 4.42275V27.5419C147.744 29.4913 149.243 31.0645 151.084 31.0645H169.56L168.696 27.901L170.782 29.9359L172.753 31.8511L176.256 35.1001V4.42275C176.256 2.47335 174.757 0.900146 172.916 0.900146ZM166.627 23.2327C166.627 23.2327 166.041 22.4974 165.552 21.8476C167.686 21.2149 168.501 19.8127 168.501 19.8127C167.833 20.2744 167.198 20.5993 166.627 20.8216C165.813 21.1807 165.031 21.4201 164.265 21.5569C162.701 21.8647 161.267 21.7792 160.045 21.5398C159.116 21.3517 158.318 21.0781 157.65 20.8045C157.275 20.6506 156.868 20.4625 156.461 20.2231C156.412 20.1889 156.363 20.1718 156.314 20.1376C156.281 20.1205 156.265 20.1034 156.249 20.0863C155.956 19.9153 155.793 19.7956 155.793 19.7956C155.793 19.7956 156.575 21.1636 158.644 21.8134C158.155 22.4632 157.552 23.2327 157.552 23.2327C153.952 23.113 152.583 20.6335 152.583 20.6335C152.583 15.1273 154.929 10.6642 154.929 10.6642C157.275 8.81745 159.507 8.86875 159.507 8.86875L159.67 9.07395C156.738 9.96315 155.385 11.314 155.385 11.314C155.385 11.314 155.744 11.1088 156.347 10.8181C158.09 10.0144 159.475 9.79215 160.045 9.74085C160.143 9.72375 160.224 9.70665 160.322 9.70665C161.316 9.56985 162.44 9.53565 163.613 9.67245C165.161 9.86055 166.823 10.3393 168.517 11.314C168.517 11.314 167.23 10.0315 164.46 9.14235L164.688 8.86875C164.688 8.86875 166.92 8.81745 169.267 10.6642C169.267 10.6642 171.613 15.1273 171.613 20.6335C171.613 20.6335 170.228 23.113 166.627 23.2327Z" fill="white"/>
<path fill-rule="evenodd" clip-rule="evenodd" d="M198.26 67.33C190.44 67.33 184.09 60.97 184.09 53.16C184.09 45.35 190.45 38.98 198.26 38.98C206.07 38.98 212.43 45.34 212.43 53.15C212.43 60.96 206.08 67.33 198.26 67.33ZM198.26 39.93C190.97 39.93 185.03 45.86 185.03 53.16C185.03 60.46 190.96 66.39 198.26 66.39C205.56 66.39 211.49 60.46 211.49 53.16C211.49 45.86 205.56 39.93 198.26 39.93Z" fill="white"/>
<path fill-rule="evenodd" clip-rule="evenodd" d="M209.45 52.68C209.69 52.68 209.93 52.59 210.1 52.42C210.29 52.23 210.37 51.98 210.34 51.72C210.08 49.5 209.2 47.39 207.81 45.63C207.64 45.41 207.4 45.3 207.15 45.3C206.92 45.3 206.7 45.4 206.53 45.57L199.69 52.4C199.58 52.51 199.66 52.69 199.81 52.69L209.45 52.68Z" fill="white"/>
<path fill-rule="evenodd" clip-rule="evenodd" d="M207.15 61.02C207.41 61.02 207.64 60.9 207.81 60.69C209.2 58.93 210.07 56.82 210.34 54.6C210.37 54.34 210.28 54.09 210.1 53.9C209.93 53.73 209.69 53.64 209.45 53.64H199.81C199.66 53.64 199.59 53.82 199.69 53.93L206.53 60.77C206.7 60.92 206.92 61.02 207.15 61.02Z" fill="white"/>
<path fill-rule="evenodd" clip-rule="evenodd" d="M198.99 65C199.17 65.18 199.42 65.27 199.7 65.23C201.93 64.97 204.04 64.1 205.79 62.71C206 62.55 206.11 62.31 206.12 62.04C206.12 61.8 206.02 61.57 205.84 61.4L199.03 54.59C198.92 54.48 198.74 54.56 198.74 54.71V64.38C198.74 64.61 198.82 64.84 198.99 65Z" fill="white"/>
<path fill-rule="evenodd" clip-rule="evenodd" d="M189.38 45.29C189.12 45.29 188.89 45.41 188.72 45.62C187.33 47.38 186.46 49.49 186.19 51.71C186.16 51.97 186.25 52.22 186.43 52.41C186.6 52.58 186.84 52.67 187.08 52.67H196.72C196.87 52.67 196.94 52.49 196.84 52.38L190 45.56C189.83 45.39 189.61 45.29 189.38 45.29Z" fill="white"/>
<path fill-rule="evenodd" clip-rule="evenodd" d="M197.54 41.31C197.36 41.13 197.11 41.04 196.83 41.08C194.61 41.34 192.5 42.21 190.74 43.6C190.53 43.76 190.42 44 190.41 44.27C190.41 44.51 190.51 44.74 190.69 44.91L197.5 51.72C197.61 51.83 197.79 51.75 197.79 51.6V41.93C197.79 41.7 197.7 41.48 197.54 41.31Z" fill="white"/>
<path fill-rule="evenodd" clip-rule="evenodd" d="M206.13 44.27C206.13 44.01 206.01 43.78 205.8 43.61C204.04 42.22 201.93 41.35 199.71 41.08C199.45 41.05 199.2 41.14 199.01 41.32C198.84 41.49 198.75 41.73 198.75 41.97V51.61C198.75 51.76 198.93 51.83 199.04 51.73L205.88 44.89C206.03 44.72 206.13 44.5 206.13 44.27Z" fill="white"/>
<path fill-rule="evenodd" clip-rule="evenodd" d="M196.72 53.63H187.08C186.84 53.63 186.6 53.72 186.43 53.89C186.24 54.08 186.16 54.33 186.19 54.59C186.45 56.81 187.33 58.92 188.72 60.68C188.89 60.9 189.13 61.01 189.38 61.01C189.61 61.01 189.83 60.91 190 60.74L196.84 53.9C196.94 53.81 196.87 53.63 196.72 53.63Z" fill="white"/>
<path fill-rule="evenodd" clip-rule="evenodd" d="M197.51 54.58L190.69 61.4C190.52 61.57 190.41 61.8 190.41 62.04C190.41 62.31 190.53 62.55 190.74 62.71C192.5 64.1 194.6 64.97 196.83 65.23C197.1 65.26 197.35 65.18 197.54 65C197.7 64.84 197.79 64.62 197.79 64.37V54.7C197.79 54.55 197.61 54.48 197.51 54.58Z" fill="white"/>
<path fill-rule="evenodd" clip-rule="evenodd" d="M198.26 31.33C190.44 31.33 184.09 24.97 184.09 17.16C184.09 9.34998 190.45 2.97998 198.26 2.97998C206.07 2.97998 212.43 9.33998 212.43 17.15C212.43 24.96 206.08 31.33 198.26 31.33ZM198.26 3.92998C190.97 3.92998 185.03 9.85998 185.03 17.16C185.03 24.46 190.96 30.39 198.26 30.39C205.56 30.39 211.49 24.46 211.49 17.16C211.49 9.85998 205.56 3.92998 198.26 3.92998Z" fill="white"/>
<path fill-rule="evenodd" clip-rule="evenodd" d="M209.45 16.68C209.69 16.68 209.93 16.59 210.1 16.42C210.29 16.23 210.37 15.98 210.34 15.72C210.08 13.5 209.2 11.39 207.81 9.62999C207.64 9.40999 207.4 9.29999 207.15 9.29999C206.92 9.29999 206.7 9.39999 206.53 9.56999L199.69 16.4C199.58 16.51 199.66 16.69 199.81 16.69L209.45 16.68Z" fill="white"/>
<path fill-rule="evenodd" clip-rule="evenodd" d="M207.15 25.02C207.41 25.02 207.64 24.9 207.81 24.69C209.2 22.93 210.07 20.82 210.34 18.6C210.37 18.34 210.28 18.09 210.1 17.9C209.93 17.73 209.69 17.64 209.45 17.64H199.81C199.66 17.64 199.59 17.82 199.69 17.93L206.53 24.77C206.7 24.92 206.92 25.02 207.15 25.02Z" fill="white"/>
<path fill-rule="evenodd" clip-rule="evenodd" d="M198.99 29C199.17 29.18 199.42 29.27 199.7 29.23C201.93 28.97 204.04 28.1 205.79 26.71C206 26.55 206.11 26.31 206.12 26.04C206.12 25.8 206.02 25.57 205.84 25.4L199.03 18.59C198.92 18.48 198.74 18.56 198.74 18.71V28.38C198.74 28.61 198.82 28.84 198.99 29Z" fill="white"/>
<path fill-rule="evenodd" clip-rule="evenodd" d="M189.38 9.28998C189.12 9.28998 188.89 9.40998 188.72 9.61998C187.33 11.38 186.46 13.49 186.19 15.71C186.16 15.97 186.25 16.22 186.43 16.41C186.6 16.58 186.84 16.67 187.08 16.67H196.72C196.87 16.67 196.94 16.49 196.84 16.38L190 9.55998C189.83 9.38998 189.61 9.28998 189.38 9.28998Z" fill="white"/>
<path fill-rule="evenodd" clip-rule="evenodd" d="M197.54 5.31C197.36 5.13 197.11 5.04 196.83 5.08C194.61 5.34 192.5 6.21 190.74 7.6C190.53 7.76 190.42 8 190.41 8.27C190.41 8.51 190.51 8.74 190.69 8.91L197.5 15.72C197.61 15.83 197.79 15.75 197.79 15.6V5.93C197.79 5.7 197.7 5.48 197.54 5.31Z" fill="white"/>
<path fill-rule="evenodd" clip-rule="evenodd" d="M206.13 8.26996C206.13 8.00996 206.01 7.77997 205.8 7.60997C204.04 6.21997 201.93 5.34996 199.71 5.07996C199.45 5.04996 199.2 5.13996 199.01 5.31996C198.84 5.48996 198.75 5.72996 198.75 5.96996V15.61C198.75 15.76 198.93 15.83 199.04 15.73L205.88 8.88996C206.03 8.71996 206.13 8.49996 206.13 8.26996Z" fill="white"/>
<path fill-rule="evenodd" clip-rule="evenodd" d="M196.72 17.63H187.08C186.84 17.63 186.6 17.72 186.43 17.89C186.24 18.08 186.16 18.33 186.19 18.59C186.45 20.81 187.33 22.92 188.72 24.68C188.89 24.9 189.13 25.01 189.38 25.01C189.61 25.01 189.83 24.91 190 24.74L196.84 17.9C196.94 17.81 196.87 17.63 196.72 17.63Z" fill="white"/>
<path fill-rule="evenodd" clip-rule="evenodd" d="M197.51 18.58L190.69 25.4C190.52 25.57 190.41 25.8 190.41 26.04C190.41 26.31 190.53 26.55 190.74 26.71C192.5 28.1 194.6 28.97 196.83 29.23C197.1 29.26 197.35 29.18 197.54 29C197.7 28.84 197.79 28.62 197.79 28.37V18.7C197.79 18.55 197.61 18.48 197.51 18.58Z" fill="white"/>
</svg>
