<svg width="405" height="200" viewBox="0 0 405 200" fill="none" xmlns="http://www.w3.org/2000/svg">
<rect width="405" height="200" fill="black"/>
<path d="M8 15.9995C8 14.3427 9.34315 12.9995 11 12.9995H394C395.657 12.9995 397 14.3427 397 15.9995V35.9995C397 37.6564 395.657 38.9995 394 38.9995H11C9.34314 38.9995 8 37.6564 8 35.9995V15.9995Z" fill="black"/>
<path d="M11 13.4995H394V12.4995H11V13.4995ZM396.5 15.9995V35.9995H397.5V15.9995H396.5ZM394 38.4995H11V39.4995H394V38.4995ZM8.5 35.9995V15.9995H7.5V35.9995H8.5ZM11 38.4995C9.61928 38.4995 8.5 37.3802 8.5 35.9995H7.5C7.5 37.9325 9.067 39.4995 11 39.4995V38.4995ZM396.5 35.9995C396.5 37.3802 395.381 38.4995 394 38.4995V39.4995C395.933 39.4995 397.5 37.9325 397.5 35.9995H396.5ZM394 13.4995C395.381 13.4995 396.5 14.6188 396.5 15.9995H397.5C397.5 14.0665 395.933 12.4995 394 12.4995V13.4995ZM11 12.4995C9.067 12.4995 7.5 14.0665 7.5 15.9995H8.5C8.5 14.6188 9.61929 13.4995 11 13.4995V12.4995Z" fill="#979797"/>
<path d="M48.477 49.7945C48.5504 49.7945 48.6154 49.8228 48.672 49.8795L49.202 50.4545C48.9087 50.8178 48.547 51.0962 48.117 51.2895C47.6904 51.4828 47.177 51.5795 46.577 51.5795C46.0404 51.5795 45.557 51.4878 45.127 51.3045C44.7004 51.1212 44.3354 50.8662 44.032 50.5395C43.7287 50.2128 43.4954 49.8228 43.332 49.3695C43.172 48.9162 43.092 48.4212 43.092 47.8845C43.092 47.3412 43.1787 46.8445 43.352 46.3945C43.5254 45.9412 43.7687 45.5512 44.082 45.2245C44.3987 44.8978 44.7754 44.6445 45.212 44.4645C45.6487 44.2812 46.132 44.1895 46.662 44.1895C47.1887 44.1895 47.6554 44.2762 48.062 44.4495C48.472 44.6228 48.8204 44.8495 49.107 45.1295L48.657 45.7545C48.6304 45.7945 48.5954 45.8295 48.552 45.8595C48.512 45.8895 48.4554 45.9045 48.382 45.9045C48.332 45.9045 48.2804 45.8912 48.227 45.8645C48.1737 45.8345 48.1154 45.7995 48.052 45.7595C47.9887 45.7162 47.9154 45.6695 47.832 45.6195C47.7487 45.5695 47.652 45.5245 47.542 45.4845C47.432 45.4412 47.3037 45.4062 47.157 45.3795C47.0137 45.3495 46.847 45.3345 46.657 45.3345C46.3337 45.3345 46.037 45.3928 45.767 45.5095C45.5004 45.6228 45.2704 45.7895 45.077 46.0095C44.8837 46.2262 44.7337 46.4928 44.627 46.8095C44.5204 47.1228 44.467 47.4812 44.467 47.8845C44.467 48.2912 44.5237 48.6528 44.637 48.9695C44.7537 49.2862 44.9104 49.5528 45.107 49.7695C45.3037 49.9862 45.5354 50.1528 45.802 50.2695C46.0687 50.3828 46.3554 50.4395 46.662 50.4395C46.8454 50.4395 47.0104 50.4295 47.157 50.4095C47.307 50.3895 47.4437 50.3578 47.567 50.3145C47.6937 50.2712 47.812 50.2162 47.922 50.1495C48.0354 50.0795 48.147 49.9945 48.257 49.8945C48.2904 49.8645 48.3254 49.8412 48.362 49.8245C48.3987 49.8045 48.437 49.7945 48.477 49.7945ZM52.6384 49.3095C52.2817 49.3262 51.9817 49.3578 51.7384 49.4045C51.495 49.4478 51.3 49.5045 51.1534 49.5745C51.0067 49.6445 50.9017 49.7262 50.8384 49.8195C50.775 49.9128 50.7434 50.0145 50.7434 50.1245C50.7434 50.3412 50.8067 50.4962 50.9334 50.5895C51.0634 50.6828 51.2317 50.7295 51.4384 50.7295C51.6917 50.7295 51.91 50.6845 52.0934 50.5945C52.28 50.5012 52.4617 50.3612 52.6384 50.1745V49.3095ZM49.8084 47.0845C50.3984 46.5445 51.1084 46.2745 51.9384 46.2745C52.2384 46.2745 52.5067 46.3245 52.7434 46.4245C52.98 46.5212 53.18 46.6578 53.3434 46.8345C53.5067 47.0078 53.63 47.2162 53.7134 47.4595C53.8 47.7028 53.8434 47.9695 53.8434 48.2595V51.4995H53.2834C53.1667 51.4995 53.0767 51.4828 53.0134 51.4495C52.95 51.4128 52.9 51.3412 52.8634 51.2345L52.7534 50.8645C52.6234 50.9812 52.4967 51.0845 52.3734 51.1745C52.25 51.2612 52.1217 51.3345 51.9884 51.3945C51.855 51.4545 51.7117 51.4995 51.5584 51.5295C51.4084 51.5628 51.2417 51.5795 51.0584 51.5795C50.8417 51.5795 50.6417 51.5512 50.4584 51.4945C50.275 51.4345 50.1167 51.3462 49.9834 51.2295C49.85 51.1128 49.7467 50.9678 49.6734 50.7945C49.6 50.6212 49.5634 50.4195 49.5634 50.1895C49.5634 50.0595 49.585 49.9312 49.6284 49.8045C49.6717 49.6745 49.7417 49.5512 49.8384 49.4345C49.9384 49.3178 50.0667 49.2078 50.2234 49.1045C50.38 49.0012 50.5717 48.9112 50.7984 48.8345C51.0284 48.7578 51.295 48.6962 51.5984 48.6495C51.9017 48.5995 52.2484 48.5695 52.6384 48.5595V48.2595C52.6384 47.9162 52.565 47.6628 52.4184 47.4995C52.2717 47.3328 52.06 47.2495 51.7834 47.2495C51.5834 47.2495 51.4167 47.2728 51.2834 47.3195C51.1534 47.3662 51.0384 47.4195 50.9384 47.4795C50.8384 47.5362 50.7467 47.5878 50.6634 47.6345C50.5834 47.6812 50.4934 47.7045 50.3934 47.7045C50.3067 47.7045 50.2334 47.6828 50.1734 47.6395C50.1134 47.5928 50.065 47.5395 50.0284 47.4795L49.8084 47.0845ZM56.6481 51.5795C56.2015 51.5795 55.8581 51.4545 55.6181 51.2045C55.3815 50.9512 55.2631 50.6028 55.2631 50.1595V47.2945H54.7381C54.6715 47.2945 54.6148 47.2728 54.5681 47.2295C54.5215 47.1862 54.4981 47.1212 54.4981 47.0345V46.5445L55.3231 46.4095L55.5831 45.0095C55.5998 44.9428 55.6315 44.8912 55.6781 44.8545C55.7248 44.8178 55.7848 44.7995 55.8581 44.7995H56.4981V46.4145H57.8681V47.2945H56.4981V50.0745C56.4981 50.2345 56.5365 50.3595 56.6131 50.4495C56.6931 50.5395 56.8015 50.5845 56.9381 50.5845C57.0148 50.5845 57.0781 50.5762 57.1281 50.5595C57.1815 50.5395 57.2265 50.5195 57.2631 50.4995C57.3031 50.4795 57.3381 50.4612 57.3681 50.4445C57.3981 50.4245 57.4281 50.4145 57.4581 50.4145C57.4948 50.4145 57.5248 50.4245 57.5481 50.4445C57.5715 50.4612 57.5965 50.4878 57.6231 50.5245L57.9931 51.1245C57.8131 51.2745 57.6065 51.3878 57.3731 51.4645C57.1398 51.5412 56.8981 51.5795 56.6481 51.5795ZM61.9248 48.3445C61.9248 48.1845 61.9014 48.0345 61.8548 47.8945C61.8114 47.7512 61.7448 47.6262 61.6548 47.5195C61.5648 47.4128 61.4498 47.3295 61.3098 47.2695C61.1731 47.2062 61.0131 47.1745 60.8298 47.1745C60.4731 47.1745 60.1914 47.2762 59.9848 47.4795C59.7814 47.6828 59.6514 47.9712 59.5948 48.3445H61.9248ZM59.5698 49.0895C59.5898 49.3528 59.6364 49.5812 59.7098 49.7745C59.7831 49.9645 59.8798 50.1228 59.9998 50.2495C60.1198 50.3728 60.2614 50.4662 60.4248 50.5295C60.5914 50.5895 60.7748 50.6195 60.9748 50.6195C61.1748 50.6195 61.3464 50.5962 61.4898 50.5495C61.6364 50.5028 61.7631 50.4512 61.8698 50.3945C61.9798 50.3378 62.0748 50.2862 62.1548 50.2395C62.2381 50.1928 62.3181 50.1695 62.3948 50.1695C62.4981 50.1695 62.5748 50.2078 62.6248 50.2845L62.9798 50.7345C62.8431 50.8945 62.6898 51.0295 62.5198 51.1395C62.3498 51.2462 62.1714 51.3328 61.9848 51.3995C61.8014 51.4628 61.6131 51.5078 61.4198 51.5345C61.2298 51.5612 61.0448 51.5745 60.8648 51.5745C60.5081 51.5745 60.1764 51.5162 59.8698 51.3995C59.5631 51.2795 59.2964 51.1045 59.0698 50.8745C58.8431 50.6412 58.6648 50.3545 58.5348 50.0145C58.4048 49.6712 58.3398 49.2745 58.3398 48.8245C58.3398 48.4745 58.3964 48.1462 58.5098 47.8395C58.6231 47.5295 58.7848 47.2612 58.9948 47.0345C59.2081 46.8045 59.4664 46.6228 59.7698 46.4895C60.0764 46.3562 60.4214 46.2895 60.8048 46.2895C61.1281 46.2895 61.4264 46.3412 61.6998 46.4445C61.9731 46.5478 62.2081 46.6995 62.4048 46.8995C62.6014 47.0962 62.7548 47.3395 62.8648 47.6295C62.9781 47.9162 63.0348 48.2445 63.0348 48.6145C63.0348 48.8012 63.0148 48.9278 62.9748 48.9945C62.9348 49.0578 62.8581 49.0895 62.7448 49.0895H59.5698ZM65.8366 48.8095C65.9899 48.8095 66.1232 48.7895 66.2366 48.7495C66.3499 48.7062 66.4432 48.6478 66.5166 48.5745C66.5932 48.5012 66.6499 48.4128 66.6866 48.3095C66.7266 48.2062 66.7466 48.0928 66.7466 47.9695C66.7466 47.7162 66.6699 47.5162 66.5166 47.3695C66.3666 47.2195 66.1399 47.1445 65.8366 47.1445C65.5332 47.1445 65.3049 47.2195 65.1516 47.3695C65.0016 47.5162 64.9266 47.7162 64.9266 47.9695C64.9266 48.0895 64.9449 48.2012 64.9816 48.3045C65.0216 48.4078 65.0782 48.4978 65.1516 48.5745C65.2282 48.6478 65.3232 48.7062 65.4366 48.7495C65.5532 48.7895 65.6866 48.8095 65.8366 48.8095ZM67.2316 51.7295C67.2316 51.6295 67.2016 51.5478 67.1416 51.4845C67.0816 51.4212 66.9999 51.3728 66.8966 51.3395C66.7932 51.3028 66.6716 51.2762 66.5316 51.2595C66.3949 51.2428 66.2482 51.2312 66.0916 51.2245C65.9382 51.2145 65.7782 51.2062 65.6116 51.1995C65.4482 51.1928 65.2882 51.1795 65.1316 51.1595C64.9949 51.2362 64.8832 51.3262 64.7966 51.4295C64.7132 51.5328 64.6716 51.6528 64.6716 51.7895C64.6716 51.8795 64.6932 51.9628 64.7366 52.0395C64.7832 52.1195 64.8549 52.1878 64.9516 52.2445C65.0516 52.3012 65.1799 52.3445 65.3366 52.3745C65.4932 52.4078 65.6849 52.4245 65.9116 52.4245C66.1416 52.4245 66.3399 52.4062 66.5066 52.3695C66.6732 52.3362 66.8099 52.2878 66.9166 52.2245C67.0266 52.1645 67.1066 52.0912 67.1566 52.0045C67.2066 51.9212 67.2316 51.8295 67.2316 51.7295ZM68.4616 46.5445V47.0045C68.4616 47.1512 68.3732 47.2412 68.1966 47.2745L67.7366 47.3595C67.8066 47.5362 67.8416 47.7295 67.8416 47.9395C67.8416 48.1928 67.7899 48.4228 67.6866 48.6295C67.5866 48.8328 67.4466 49.0062 67.2666 49.1495C67.0866 49.2928 66.8732 49.4045 66.6266 49.4845C66.3832 49.5612 66.1199 49.5995 65.8366 49.5995C65.7366 49.5995 65.6399 49.5945 65.5466 49.5845C65.4532 49.5745 65.3616 49.5612 65.2716 49.5445C65.1116 49.6412 65.0316 49.7495 65.0316 49.8695C65.0316 49.9728 65.0782 50.0495 65.1716 50.0995C65.2682 50.1462 65.3949 50.1795 65.5516 50.1995C65.7082 50.2195 65.8866 50.2328 66.0866 50.2395C66.2866 50.2428 66.4916 50.2528 66.7016 50.2695C66.9116 50.2862 67.1166 50.3162 67.3166 50.3595C67.5166 50.3995 67.6949 50.4645 67.8516 50.5545C68.0082 50.6445 68.1332 50.7678 68.2266 50.9245C68.3232 51.0778 68.3716 51.2762 68.3716 51.5195C68.3716 51.7462 68.3149 51.9662 68.2016 52.1795C68.0916 52.3928 67.9299 52.5828 67.7166 52.7495C67.5066 52.9162 67.2466 53.0495 66.9366 53.1495C66.6299 53.2528 66.2799 53.3045 65.8866 53.3045C65.4999 53.3045 65.1632 53.2662 64.8766 53.1895C64.5899 53.1162 64.3516 53.0162 64.1616 52.8895C63.9716 52.7662 63.8299 52.6228 63.7366 52.4595C63.6432 52.2962 63.5966 52.1262 63.5966 51.9495C63.5966 51.7095 63.6682 51.5095 63.8116 51.3495C63.9582 51.1862 64.1582 51.0562 64.4116 50.9595C64.2749 50.8895 64.1666 50.7962 64.0866 50.6795C64.0066 50.5628 63.9666 50.4095 63.9666 50.2195C63.9666 50.1428 63.9799 50.0645 64.0066 49.9845C64.0366 49.9012 64.0782 49.8195 64.1316 49.7395C64.1882 49.6595 64.2582 49.5845 64.3416 49.5145C64.4249 49.4412 64.5232 49.3762 64.6366 49.3195C64.3766 49.1795 64.1716 48.9928 64.0216 48.7595C63.8749 48.5262 63.8016 48.2528 63.8016 47.9395C63.8016 47.6862 63.8516 47.4578 63.9516 47.2545C64.0549 47.0478 64.1966 46.8728 64.3766 46.7295C64.5599 46.5828 64.7749 46.4712 65.0216 46.3945C65.2716 46.3178 65.5432 46.2795 65.8366 46.2795C66.0566 46.2795 66.2632 46.3028 66.4566 46.3495C66.6499 46.3928 66.8266 46.4578 66.9866 46.5445H68.4616ZM71.4269 46.2895C71.8069 46.2895 72.1519 46.3512 72.4619 46.4745C72.7752 46.5978 73.0419 46.7728 73.2619 46.9995C73.4852 47.2262 73.6569 47.5028 73.7769 47.8295C73.8969 48.1562 73.9569 48.5212 73.9569 48.9245C73.9569 49.3312 73.8969 49.6978 73.7769 50.0245C73.6569 50.3512 73.4852 50.6295 73.2619 50.8595C73.0419 51.0895 72.7752 51.2662 72.4619 51.3895C72.1519 51.5128 71.8069 51.5745 71.4269 51.5745C71.0435 51.5745 70.6952 51.5128 70.3819 51.3895C70.0685 51.2662 69.8002 51.0895 69.5769 50.8595C69.3569 50.6295 69.1852 50.3512 69.0619 50.0245C68.9419 49.6978 68.8819 49.3312 68.8819 48.9245C68.8819 48.5212 68.9419 48.1562 69.0619 47.8295C69.1852 47.5028 69.3569 47.2262 69.5769 46.9995C69.8002 46.7728 70.0685 46.5978 70.3819 46.4745C70.6952 46.3512 71.0435 46.2895 71.4269 46.2895ZM71.4269 50.6245C71.8535 50.6245 72.1685 50.4812 72.3719 50.1945C72.5785 49.9078 72.6819 49.4878 72.6819 48.9345C72.6819 48.3812 72.5785 47.9595 72.3719 47.6695C72.1685 47.3795 71.8535 47.2345 71.4269 47.2345C70.9935 47.2345 70.6719 47.3812 70.4619 47.6745C70.2552 47.9645 70.1519 48.3845 70.1519 48.9345C70.1519 49.4845 70.2552 49.9045 70.4619 50.1945C70.6719 50.4812 70.9935 50.6245 71.4269 50.6245ZM76.0641 47.2595C76.2241 46.9528 76.4141 46.7128 76.6341 46.5395C76.8541 46.3628 77.1141 46.2745 77.4141 46.2745C77.6507 46.2745 77.8407 46.3262 77.9841 46.4295L77.9041 47.3545C77.8874 47.4145 77.8624 47.4578 77.8291 47.4845C77.7991 47.5078 77.7574 47.5195 77.7041 47.5195C77.6541 47.5195 77.5791 47.5112 77.4791 47.4945C77.3824 47.4778 77.2874 47.4695 77.1941 47.4695C77.0574 47.4695 76.9357 47.4895 76.8291 47.5295C76.7224 47.5695 76.6257 47.6278 76.5391 47.7045C76.4557 47.7778 76.3807 47.8678 76.3141 47.9745C76.2507 48.0812 76.1907 48.2028 76.1341 48.3395V51.4995H74.8991V46.3695H75.6241C75.7507 46.3695 75.8391 46.3928 75.8891 46.4395C75.9391 46.4828 75.9724 46.5628 75.9891 46.6795L76.0641 47.2595ZM83.2895 46.3695L80.4945 52.9095C80.4579 52.9962 80.4095 53.0612 80.3495 53.1045C80.2929 53.1512 80.2045 53.1745 80.0845 53.1745H79.1645L80.1245 51.1145L78.0495 46.3695H79.1345C79.2312 46.3695 79.3062 46.3928 79.3595 46.4395C79.4162 46.4862 79.4579 46.5395 79.4845 46.5995L80.5745 49.2595C80.6112 49.3495 80.6412 49.4395 80.6645 49.5295C80.6912 49.6195 80.7162 49.7112 80.7395 49.8045C80.7695 49.7112 80.7995 49.6195 80.8295 49.5295C80.8595 49.4362 80.8929 49.3445 80.9295 49.2545L81.9595 46.5995C81.9862 46.5328 82.0295 46.4778 82.0895 46.4345C82.1529 46.3912 82.2229 46.3695 82.2995 46.3695H83.2895Z" fill="white"/>
<path d="M134.557 47.9045C134.804 47.9045 135.019 47.8745 135.202 47.8145C135.386 47.7512 135.537 47.6628 135.657 47.5495C135.781 47.4328 135.872 47.2928 135.932 47.1295C135.992 46.9628 136.022 46.7778 136.022 46.5745C136.022 46.3812 135.992 46.2062 135.932 46.0495C135.872 45.8928 135.782 45.7595 135.662 45.6495C135.542 45.5395 135.391 45.4562 135.207 45.3995C135.024 45.3395 134.807 45.3095 134.557 45.3095H133.552V47.9045H134.557ZM134.557 44.2695C135.041 44.2695 135.459 44.3262 135.812 44.4395C136.166 44.5528 136.457 44.7112 136.687 44.9145C136.917 45.1178 137.087 45.3612 137.197 45.6445C137.311 45.9278 137.367 46.2378 137.367 46.5745C137.367 46.9245 137.309 47.2462 137.192 47.5395C137.076 47.8295 136.901 48.0795 136.667 48.2895C136.434 48.4995 136.141 48.6628 135.787 48.7795C135.437 48.8962 135.027 48.9545 134.557 48.9545H133.552V51.4995H132.207V44.2695H134.557ZM140.758 49.3095C140.401 49.3262 140.101 49.3578 139.858 49.4045C139.614 49.4478 139.419 49.5045 139.273 49.5745C139.126 49.6445 139.021 49.7262 138.958 49.8195C138.894 49.9128 138.863 50.0145 138.863 50.1245C138.863 50.3412 138.926 50.4962 139.053 50.5895C139.183 50.6828 139.351 50.7295 139.558 50.7295C139.811 50.7295 140.029 50.6845 140.213 50.5945C140.399 50.5012 140.581 50.3612 140.758 50.1745V49.3095ZM137.928 47.0845C138.518 46.5445 139.228 46.2745 140.058 46.2745C140.358 46.2745 140.626 46.3245 140.863 46.4245C141.099 46.5212 141.299 46.6578 141.463 46.8345C141.626 47.0078 141.749 47.2162 141.833 47.4595C141.919 47.7028 141.963 47.9695 141.963 48.2595V51.4995H141.403C141.286 51.4995 141.196 51.4828 141.133 51.4495C141.069 51.4128 141.019 51.3412 140.983 51.2345L140.873 50.8645C140.743 50.9812 140.616 51.0845 140.493 51.1745C140.369 51.2612 140.241 51.3345 140.108 51.3945C139.974 51.4545 139.831 51.4995 139.678 51.5295C139.528 51.5628 139.361 51.5795 139.178 51.5795C138.961 51.5795 138.761 51.5512 138.578 51.4945C138.394 51.4345 138.236 51.3462 138.103 51.2295C137.969 51.1128 137.866 50.9678 137.793 50.7945C137.719 50.6212 137.683 50.4195 137.683 50.1895C137.683 50.0595 137.704 49.9312 137.748 49.8045C137.791 49.6745 137.861 49.5512 137.958 49.4345C138.058 49.3178 138.186 49.2078 138.343 49.1045C138.499 49.0012 138.691 48.9112 138.918 48.8345C139.148 48.7578 139.414 48.6962 139.718 48.6495C140.021 48.5995 140.368 48.5695 140.758 48.5595V48.2595C140.758 47.9162 140.684 47.6628 140.538 47.4995C140.391 47.3328 140.179 47.2495 139.903 47.2495C139.703 47.2495 139.536 47.2728 139.403 47.3195C139.273 47.3662 139.158 47.4195 139.058 47.4795C138.958 47.5362 138.866 47.5878 138.783 47.6345C138.703 47.6812 138.613 47.7045 138.513 47.7045C138.426 47.7045 138.353 47.6828 138.293 47.6395C138.233 47.5928 138.184 47.5395 138.148 47.4795L137.928 47.0845ZM144.767 51.5795C144.321 51.5795 143.977 51.4545 143.737 51.2045C143.501 50.9512 143.382 50.6028 143.382 50.1595V47.2945H142.857C142.791 47.2945 142.734 47.2728 142.687 47.2295C142.641 47.1862 142.617 47.1212 142.617 47.0345V46.5445L143.442 46.4095L143.702 45.0095C143.719 44.9428 143.751 44.8912 143.797 44.8545C143.844 44.8178 143.904 44.7995 143.977 44.7995H144.617V46.4145H145.987V47.2945H144.617V50.0745C144.617 50.2345 144.656 50.3595 144.732 50.4495C144.812 50.5395 144.921 50.5845 145.057 50.5845C145.134 50.5845 145.197 50.5762 145.247 50.5595C145.301 50.5395 145.346 50.5195 145.382 50.4995C145.422 50.4795 145.457 50.4612 145.487 50.4445C145.517 50.4245 145.547 50.4145 145.577 50.4145C145.614 50.4145 145.644 50.4245 145.667 50.4445C145.691 50.4612 145.716 50.4878 145.742 50.5245L146.112 51.1245C145.932 51.2745 145.726 51.3878 145.492 51.4645C145.259 51.5412 145.017 51.5795 144.767 51.5795ZM150.414 47.4545C150.377 47.5012 150.341 47.5378 150.304 47.5645C150.271 47.5912 150.221 47.6045 150.154 47.6045C150.091 47.6045 150.029 47.5862 149.969 47.5495C149.909 47.5095 149.837 47.4662 149.754 47.4195C149.671 47.3695 149.571 47.3262 149.454 47.2895C149.341 47.2495 149.199 47.2295 149.029 47.2295C148.812 47.2295 148.622 47.2695 148.459 47.3495C148.296 47.4262 148.159 47.5378 148.049 47.6845C147.942 47.8312 147.862 48.0095 147.809 48.2195C147.756 48.4262 147.729 48.6612 147.729 48.9245C147.729 49.1978 147.757 49.4412 147.814 49.6545C147.874 49.8678 147.959 50.0478 148.069 50.1945C148.179 50.3378 148.312 50.4478 148.469 50.5245C148.626 50.5978 148.802 50.6345 148.999 50.6345C149.196 50.6345 149.354 50.6112 149.474 50.5645C149.597 50.5145 149.701 50.4612 149.784 50.4045C149.867 50.3445 149.939 50.2912 149.999 50.2445C150.062 50.1945 150.132 50.1695 150.209 50.1695C150.309 50.1695 150.384 50.2078 150.434 50.2845L150.789 50.7345C150.652 50.8945 150.504 51.0295 150.344 51.1395C150.184 51.2462 150.017 51.3328 149.844 51.3995C149.674 51.4628 149.497 51.5078 149.314 51.5345C149.134 51.5612 148.954 51.5745 148.774 51.5745C148.457 51.5745 148.159 51.5162 147.879 51.3995C147.599 51.2795 147.354 51.1062 147.144 50.8795C146.934 50.6528 146.767 50.3762 146.644 50.0495C146.524 49.7195 146.464 49.3445 146.464 48.9245C146.464 48.5478 146.517 48.1995 146.624 47.8795C146.734 47.5562 146.894 47.2778 147.104 47.0445C147.314 46.8078 147.574 46.6228 147.884 46.4895C148.194 46.3562 148.551 46.2895 148.954 46.2895C149.337 46.2895 149.672 46.3512 149.959 46.4745C150.249 46.5978 150.509 46.7745 150.739 47.0045L150.414 47.4545ZM152.798 46.9195C152.998 46.7328 153.218 46.5812 153.458 46.4645C153.698 46.3478 153.98 46.2895 154.303 46.2895C154.583 46.2895 154.831 46.3378 155.048 46.4345C155.265 46.5278 155.445 46.6612 155.588 46.8345C155.735 47.0045 155.845 47.2095 155.918 47.4495C155.995 47.6862 156.033 47.9478 156.033 48.2345V51.4995H154.798V48.2345C154.798 47.9212 154.726 47.6795 154.583 47.5095C154.44 47.3362 154.221 47.2495 153.928 47.2495C153.715 47.2495 153.515 47.2978 153.328 47.3945C153.141 47.4912 152.965 47.6228 152.798 47.7895V51.4995H151.563V44.0695H152.798V46.9195Z" fill="white"/>
<path d="M324.401 44.27V51.5H323.051V48.34H319.656V51.5H318.306V44.27H319.656V47.38H323.051V44.27H324.401ZM327.028 46.37V51.5H325.788V46.37H327.028ZM327.198 44.875C327.198 44.9817 327.176 45.0817 327.133 45.175C327.089 45.2683 327.031 45.35 326.958 45.42C326.888 45.49 326.804 45.5467 326.708 45.59C326.611 45.63 326.508 45.65 326.398 45.65C326.291 45.65 326.189 45.63 326.093 45.59C325.999 45.5467 325.918 45.49 325.848 45.42C325.778 45.35 325.721 45.2683 325.678 45.175C325.638 45.0817 325.618 44.9817 325.618 44.875C325.618 44.765 325.638 44.6617 325.678 44.565C325.721 44.4683 325.778 44.385 325.848 44.315C325.918 44.245 325.999 44.19 326.093 44.15C326.189 44.1067 326.291 44.085 326.398 44.085C326.508 44.085 326.611 44.1067 326.708 44.15C326.804 44.19 326.888 44.245 326.958 44.315C327.031 44.385 327.089 44.4683 327.133 44.565C327.176 44.6617 327.198 44.765 327.198 44.875ZM331.417 47.37C331.383 47.4233 331.348 47.4617 331.312 47.485C331.275 47.505 331.228 47.515 331.172 47.515C331.112 47.515 331.047 47.4983 330.977 47.465C330.91 47.4317 330.832 47.395 330.742 47.355C330.652 47.3117 330.548 47.2733 330.432 47.24C330.318 47.2067 330.183 47.19 330.027 47.19C329.783 47.19 329.592 47.2417 329.452 47.345C329.315 47.4483 329.247 47.5833 329.247 47.75C329.247 47.86 329.282 47.9533 329.352 48.03C329.425 48.1033 329.52 48.1683 329.637 48.225C329.757 48.2817 329.892 48.3333 330.042 48.38C330.192 48.4233 330.343 48.4717 330.497 48.525C330.653 48.5783 330.807 48.64 330.957 48.71C331.107 48.7767 331.24 48.8633 331.357 48.97C331.477 49.0733 331.572 49.1983 331.642 49.345C331.715 49.4917 331.752 49.6683 331.752 49.875C331.752 50.1217 331.707 50.35 331.617 50.56C331.53 50.7667 331.4 50.9467 331.227 51.1C331.053 51.25 330.838 51.3683 330.582 51.455C330.328 51.5383 330.035 51.58 329.702 51.58C329.525 51.58 329.352 51.5633 329.182 51.53C329.015 51.5 328.853 51.4567 328.697 51.4C328.543 51.3433 328.4 51.2767 328.267 51.2C328.137 51.1233 328.022 51.04 327.922 50.95L328.207 50.48C328.243 50.4233 328.287 50.38 328.337 50.35C328.387 50.32 328.45 50.305 328.527 50.305C328.603 50.305 328.675 50.3267 328.742 50.37C328.812 50.4133 328.892 50.46 328.982 50.51C329.072 50.56 329.177 50.6067 329.297 50.65C329.42 50.6933 329.575 50.715 329.762 50.715C329.908 50.715 330.033 50.6983 330.137 50.665C330.243 50.6283 330.33 50.5817 330.397 50.525C330.467 50.4683 330.517 50.4033 330.547 50.33C330.58 50.2533 330.597 50.175 330.597 50.095C330.597 49.975 330.56 49.8767 330.487 49.8C330.417 49.7233 330.322 49.6567 330.202 49.6C330.085 49.5433 329.95 49.4933 329.797 49.45C329.647 49.4033 329.492 49.3533 329.332 49.3C329.175 49.2467 329.02 49.185 328.867 49.115C328.717 49.0417 328.582 48.95 328.462 48.84C328.345 48.73 328.25 48.595 328.177 48.435C328.107 48.275 328.072 48.0817 328.072 47.855C328.072 47.645 328.113 47.445 328.197 47.255C328.28 47.065 328.402 46.9 328.562 46.76C328.725 46.6167 328.927 46.5033 329.167 46.42C329.41 46.3333 329.69 46.29 330.007 46.29C330.36 46.29 330.682 46.3483 330.972 46.465C331.262 46.5817 331.503 46.735 331.697 46.925L331.417 47.37ZM334.391 51.58C333.945 51.58 333.601 51.455 333.361 51.205C333.125 50.9517 333.006 50.6033 333.006 50.16V47.295H332.481C332.415 47.295 332.358 47.2733 332.311 47.23C332.265 47.1867 332.241 47.1217 332.241 47.035V46.545L333.066 46.41L333.326 45.01C333.343 44.9433 333.375 44.8917 333.421 44.855C333.468 44.8183 333.528 44.8 333.601 44.8H334.241V46.415H335.611V47.295H334.241V50.075C334.241 50.235 334.28 50.36 334.356 50.45C334.436 50.54 334.545 50.585 334.681 50.585C334.758 50.585 334.821 50.5767 334.871 50.56C334.925 50.54 334.97 50.52 335.006 50.5C335.046 50.48 335.081 50.4617 335.111 50.445C335.141 50.425 335.171 50.415 335.201 50.415C335.238 50.415 335.268 50.425 335.291 50.445C335.315 50.4617 335.34 50.4883 335.366 50.525L335.736 51.125C335.556 51.275 335.35 51.3883 335.116 51.465C334.883 51.5417 334.641 51.58 334.391 51.58ZM338.633 46.29C339.013 46.29 339.358 46.3517 339.668 46.475C339.981 46.5983 340.248 46.7733 340.468 47C340.691 47.2267 340.863 47.5033 340.983 47.83C341.103 48.1567 341.163 48.5217 341.163 48.925C341.163 49.3317 341.103 49.6983 340.983 50.025C340.863 50.3517 340.691 50.63 340.468 50.86C340.248 51.09 339.981 51.2667 339.668 51.39C339.358 51.5133 339.013 51.575 338.633 51.575C338.25 51.575 337.901 51.5133 337.588 51.39C337.275 51.2667 337.006 51.09 336.783 50.86C336.563 50.63 336.391 50.3517 336.268 50.025C336.148 49.6983 336.088 49.3317 336.088 48.925C336.088 48.5217 336.148 48.1567 336.268 47.83C336.391 47.5033 336.563 47.2267 336.783 47C337.006 46.7733 337.275 46.5983 337.588 46.475C337.901 46.3517 338.25 46.29 338.633 46.29ZM338.633 50.625C339.06 50.625 339.375 50.4817 339.578 50.195C339.785 49.9083 339.888 49.4883 339.888 48.935C339.888 48.3817 339.785 47.96 339.578 47.67C339.375 47.38 339.06 47.235 338.633 47.235C338.2 47.235 337.878 47.3817 337.668 47.675C337.461 47.965 337.358 48.385 337.358 48.935C337.358 49.485 337.461 49.905 337.668 50.195C337.878 50.4817 338.2 50.625 338.633 50.625ZM343.27 47.26C343.43 46.9533 343.62 46.7133 343.84 46.54C344.06 46.3633 344.32 46.275 344.62 46.275C344.857 46.275 345.047 46.3267 345.19 46.43L345.11 47.355C345.093 47.415 345.068 47.4583 345.035 47.485C345.005 47.5083 344.963 47.52 344.91 47.52C344.86 47.52 344.785 47.5117 344.685 47.495C344.588 47.4783 344.493 47.47 344.4 47.47C344.263 47.47 344.142 47.49 344.035 47.53C343.928 47.57 343.832 47.6283 343.745 47.705C343.662 47.7783 343.587 47.8683 343.52 47.975C343.457 48.0817 343.397 48.2033 343.34 48.34V51.5H342.105V46.37H342.83C342.957 46.37 343.045 46.3933 343.095 46.44C343.145 46.4833 343.178 46.5633 343.195 46.68L343.27 47.26ZM350.496 46.37L347.701 52.91C347.664 52.9967 347.616 53.0617 347.556 53.105C347.499 53.1517 347.411 53.175 347.291 53.175H346.371L347.331 51.115L345.256 46.37H346.341C346.437 46.37 346.512 46.3933 346.566 46.44C346.622 46.4867 346.664 46.54 346.691 46.6L347.781 49.26C347.817 49.35 347.847 49.44 347.871 49.53C347.897 49.62 347.922 49.7117 347.946 49.805C347.976 49.7117 348.006 49.62 348.036 49.53C348.066 49.4367 348.099 49.345 348.136 49.255L349.166 46.6C349.192 46.5333 349.236 46.4783 349.296 46.435C349.359 46.3917 349.429 46.37 349.506 46.37H350.496Z" fill="white"/>
<path d="M173.262 5.405C173.509 5.405 173.724 5.375 173.907 5.315C174.091 5.25167 174.242 5.16333 174.362 5.05C174.486 4.93333 174.577 4.79333 174.637 4.63C174.697 4.46333 174.727 4.27833 174.727 4.075C174.727 3.88167 174.697 3.70667 174.637 3.55C174.577 3.39333 174.487 3.26 174.367 3.15C174.247 3.04 174.096 2.95667 173.912 2.9C173.729 2.84 173.512 2.81 173.262 2.81H172.257V5.405H173.262ZM173.262 1.77C173.746 1.77 174.164 1.82667 174.517 1.94C174.871 2.05333 175.162 2.21167 175.392 2.415C175.622 2.61833 175.792 2.86167 175.902 3.145C176.016 3.42833 176.072 3.73833 176.072 4.075C176.072 4.425 176.014 4.74667 175.897 5.04C175.781 5.33 175.606 5.58 175.372 5.79C175.139 6 174.846 6.16333 174.492 6.28C174.142 6.39667 173.732 6.455 173.262 6.455H172.257V9H170.912V1.77H173.262ZM179.463 6.81C179.106 6.82667 178.806 6.85833 178.563 6.905C178.319 6.94833 178.124 7.005 177.978 7.075C177.831 7.145 177.726 7.22667 177.663 7.32C177.599 7.41333 177.568 7.515 177.568 7.625C177.568 7.84167 177.631 7.99667 177.758 8.09C177.888 8.18333 178.056 8.23 178.263 8.23C178.516 8.23 178.734 8.185 178.918 8.095C179.104 8.00167 179.286 7.86167 179.463 7.675V6.81ZM176.633 4.585C177.223 4.045 177.933 3.775 178.763 3.775C179.063 3.775 179.331 3.825 179.568 3.925C179.804 4.02167 180.004 4.15833 180.168 4.335C180.331 4.50833 180.454 4.71667 180.538 4.96C180.624 5.20333 180.668 5.47 180.668 5.76V9H180.108C179.991 9 179.901 8.98333 179.838 8.95C179.774 8.91333 179.724 8.84167 179.688 8.735L179.578 8.365C179.448 8.48167 179.321 8.585 179.198 8.675C179.074 8.76167 178.946 8.835 178.813 8.895C178.679 8.955 178.536 9 178.383 9.03C178.233 9.06333 178.066 9.08 177.883 9.08C177.666 9.08 177.466 9.05167 177.283 8.995C177.099 8.935 176.941 8.84667 176.808 8.73C176.674 8.61333 176.571 8.46833 176.498 8.295C176.424 8.12167 176.388 7.92 176.388 7.69C176.388 7.56 176.409 7.43167 176.453 7.305C176.496 7.175 176.566 7.05167 176.663 6.935C176.763 6.81833 176.891 6.70833 177.048 6.605C177.204 6.50167 177.396 6.41167 177.623 6.335C177.853 6.25833 178.119 6.19667 178.423 6.15C178.726 6.1 179.073 6.07 179.463 6.06V5.76C179.463 5.41667 179.389 5.16333 179.243 5C179.096 4.83333 178.884 4.75 178.608 4.75C178.408 4.75 178.241 4.77333 178.108 4.82C177.978 4.86667 177.863 4.92 177.763 4.98C177.663 5.03667 177.571 5.08833 177.488 5.135C177.408 5.18167 177.318 5.205 177.218 5.205C177.131 5.205 177.058 5.18333 176.998 5.14C176.938 5.09333 176.889 5.04 176.853 4.98L176.633 4.585ZM183.472 9.08C183.026 9.08 182.682 8.955 182.442 8.705C182.206 8.45167 182.087 8.10333 182.087 7.66V4.795H181.562C181.496 4.795 181.439 4.77333 181.392 4.73C181.346 4.68667 181.322 4.62167 181.322 4.535V4.045L182.147 3.91L182.407 2.51C182.424 2.44333 182.456 2.39167 182.502 2.355C182.549 2.31833 182.609 2.3 182.682 2.3H183.322V3.915H184.692V4.795H183.322V7.575C183.322 7.735 183.361 7.86 183.437 7.95C183.517 8.04 183.626 8.085 183.762 8.085C183.839 8.085 183.902 8.07667 183.952 8.06C184.006 8.04 184.051 8.02 184.087 8C184.127 7.98 184.162 7.96167 184.192 7.945C184.222 7.925 184.252 7.915 184.282 7.915C184.319 7.915 184.349 7.925 184.372 7.945C184.396 7.96167 184.421 7.98833 184.447 8.025L184.817 8.625C184.637 8.775 184.431 8.88833 184.197 8.965C183.964 9.04167 183.722 9.08 183.472 9.08ZM189.119 4.955C189.082 5.00167 189.046 5.03833 189.009 5.065C188.976 5.09167 188.926 5.105 188.859 5.105C188.796 5.105 188.734 5.08667 188.674 5.05C188.614 5.01 188.542 4.96667 188.459 4.92C188.376 4.87 188.276 4.82667 188.159 4.79C188.046 4.75 187.904 4.73 187.734 4.73C187.517 4.73 187.327 4.77 187.164 4.85C187.001 4.92667 186.864 5.03833 186.754 5.185C186.647 5.33167 186.567 5.51 186.514 5.72C186.461 5.92667 186.434 6.16167 186.434 6.425C186.434 6.69833 186.462 6.94167 186.519 7.155C186.579 7.36833 186.664 7.54833 186.774 7.695C186.884 7.83833 187.017 7.94833 187.174 8.025C187.331 8.09833 187.507 8.135 187.704 8.135C187.901 8.135 188.059 8.11167 188.179 8.065C188.302 8.015 188.406 7.96167 188.489 7.905C188.572 7.845 188.644 7.79167 188.704 7.745C188.767 7.695 188.837 7.67 188.914 7.67C189.014 7.67 189.089 7.70833 189.139 7.785L189.494 8.235C189.357 8.395 189.209 8.53 189.049 8.64C188.889 8.74667 188.722 8.83333 188.549 8.9C188.379 8.96333 188.202 9.00833 188.019 9.035C187.839 9.06167 187.659 9.075 187.479 9.075C187.162 9.075 186.864 9.01667 186.584 8.9C186.304 8.78 186.059 8.60667 185.849 8.38C185.639 8.15333 185.472 7.87667 185.349 7.55C185.229 7.22 185.169 6.845 185.169 6.425C185.169 6.04833 185.222 5.7 185.329 5.38C185.439 5.05667 185.599 4.77833 185.809 4.545C186.019 4.30833 186.279 4.12333 186.589 3.99C186.899 3.85667 187.256 3.79 187.659 3.79C188.042 3.79 188.377 3.85167 188.664 3.975C188.954 4.09833 189.214 4.275 189.444 4.505L189.119 4.955ZM191.503 4.42C191.703 4.23333 191.923 4.08167 192.163 3.965C192.403 3.84833 192.685 3.79 193.008 3.79C193.288 3.79 193.537 3.83833 193.753 3.935C193.97 4.02833 194.15 4.16167 194.293 4.335C194.44 4.505 194.55 4.71 194.623 4.95C194.7 5.18667 194.738 5.44833 194.738 5.735V9H193.503V5.735C193.503 5.42167 193.432 5.18 193.288 5.01C193.145 4.83667 192.927 4.75 192.633 4.75C192.42 4.75 192.22 4.79833 192.033 4.895C191.847 4.99167 191.67 5.12333 191.503 5.29V9H190.268V1.57H191.503V4.42ZM201.244 7.95C201.494 7.95 201.704 7.92 201.874 7.86C202.044 7.8 202.179 7.72 202.279 7.62C202.383 7.52 202.456 7.40333 202.499 7.27C202.546 7.13667 202.569 6.995 202.569 6.845C202.569 6.68833 202.544 6.54833 202.494 6.425C202.444 6.29833 202.366 6.19167 202.259 6.105C202.153 6.015 202.014 5.94667 201.844 5.9C201.678 5.85333 201.476 5.83 201.239 5.83H199.884V7.95H201.244ZM199.884 2.81V4.9H200.954C201.414 4.9 201.761 4.81667 201.994 4.65C202.231 4.48333 202.349 4.21833 202.349 3.855C202.349 3.47833 202.243 3.21 202.029 3.05C201.816 2.89 201.483 2.81 201.029 2.81H199.884ZM201.029 1.77C201.503 1.77 201.908 1.815 202.244 1.905C202.581 1.995 202.856 2.12333 203.069 2.29C203.286 2.45667 203.444 2.65833 203.544 2.895C203.644 3.13167 203.694 3.39833 203.694 3.695C203.694 3.865 203.669 4.02833 203.619 4.185C203.569 4.33833 203.491 4.48333 203.384 4.62C203.281 4.75333 203.148 4.875 202.984 4.985C202.824 5.095 202.633 5.18833 202.409 5.265C203.403 5.48833 203.899 6.025 203.899 6.875C203.899 7.18167 203.841 7.465 203.724 7.725C203.608 7.985 203.438 8.21 203.214 8.4C202.991 8.58667 202.716 8.73333 202.389 8.84C202.063 8.94667 201.689 9 201.269 9H198.539V1.77H201.029ZM205.994 4.76C206.154 4.45333 206.344 4.21333 206.564 4.04C206.784 3.86333 207.044 3.775 207.344 3.775C207.58 3.775 207.77 3.82667 207.914 3.93L207.834 4.855C207.817 4.915 207.792 4.95833 207.759 4.985C207.729 5.00833 207.687 5.02 207.634 5.02C207.584 5.02 207.509 5.01167 207.409 4.995C207.312 4.97833 207.217 4.97 207.124 4.97C206.987 4.97 206.865 4.99 206.759 5.03C206.652 5.07 206.555 5.12833 206.469 5.205C206.385 5.27833 206.31 5.36833 206.244 5.475C206.18 5.58167 206.12 5.70333 206.064 5.84V9H204.829V3.87H205.554C205.68 3.87 205.769 3.89333 205.819 3.94C205.869 3.98333 205.902 4.06333 205.919 4.18L205.994 4.76ZM210.683 3.79C211.063 3.79 211.408 3.85167 211.718 3.975C212.031 4.09833 212.298 4.27333 212.518 4.5C212.741 4.72667 212.913 5.00333 213.033 5.33C213.153 5.65667 213.213 6.02167 213.213 6.425C213.213 6.83167 213.153 7.19833 213.033 7.525C212.913 7.85167 212.741 8.13 212.518 8.36C212.298 8.59 212.031 8.76667 211.718 8.89C211.408 9.01333 211.063 9.075 210.683 9.075C210.299 9.075 209.951 9.01333 209.638 8.89C209.324 8.76667 209.056 8.59 208.833 8.36C208.613 8.13 208.441 7.85167 208.318 7.525C208.198 7.19833 208.138 6.83167 208.138 6.425C208.138 6.02167 208.198 5.65667 208.318 5.33C208.441 5.00333 208.613 4.72667 208.833 4.5C209.056 4.27333 209.324 4.09833 209.638 3.975C209.951 3.85167 210.299 3.79 210.683 3.79ZM210.683 8.125C211.109 8.125 211.424 7.98167 211.628 7.695C211.834 7.40833 211.938 6.98833 211.938 6.435C211.938 5.88167 211.834 5.46 211.628 5.17C211.424 4.88 211.109 4.735 210.683 4.735C210.249 4.735 209.928 4.88167 209.718 5.175C209.511 5.465 209.408 5.885 209.408 6.435C209.408 6.985 209.511 7.405 209.718 7.695C209.928 7.98167 210.249 8.125 210.683 8.125ZM221.392 3.87L219.762 9H218.772C218.659 9 218.58 8.92667 218.537 8.78L217.617 5.815C217.587 5.715 217.559 5.61667 217.532 5.52C217.509 5.42 217.489 5.32 217.472 5.22C217.452 5.32 217.429 5.42167 217.402 5.525C217.379 5.625 217.352 5.725 217.322 5.825L216.387 8.78C216.347 8.92667 216.259 9 216.122 9H215.172L213.547 3.87H214.532C214.622 3.87 214.699 3.89167 214.762 3.935C214.825 3.97833 214.867 4.03333 214.887 4.1L215.622 6.84C215.659 6.99 215.69 7.13667 215.717 7.28C215.747 7.42333 215.772 7.56667 215.792 7.71C215.829 7.56667 215.867 7.42333 215.907 7.28C215.95 7.13667 215.995 6.99 216.042 6.84L216.892 4.09C216.912 4.02333 216.95 3.96833 217.007 3.925C217.067 3.88167 217.139 3.86 217.222 3.86H217.767C217.854 3.86 217.927 3.88167 217.987 3.925C218.05 3.96833 218.092 4.02333 218.112 4.09L218.937 6.84C218.98 6.99 219.02 7.13833 219.057 7.285C219.097 7.42833 219.135 7.57167 219.172 7.715C219.215 7.43167 219.277 7.14 219.357 6.84L220.112 4.1C220.135 4.03333 220.177 3.97833 220.237 3.935C220.297 3.89167 220.369 3.87 220.452 3.87H221.392ZM225.166 4.87C225.132 4.92333 225.097 4.96167 225.061 4.985C225.024 5.005 224.977 5.015 224.921 5.015C224.861 5.015 224.796 4.99833 224.726 4.965C224.659 4.93167 224.581 4.895 224.491 4.855C224.401 4.81167 224.297 4.77333 224.181 4.74C224.067 4.70667 223.932 4.69 223.776 4.69C223.532 4.69 223.341 4.74167 223.201 4.845C223.064 4.94833 222.996 5.08333 222.996 5.25C222.996 5.36 223.031 5.45333 223.101 5.53C223.174 5.60333 223.269 5.66833 223.386 5.725C223.506 5.78167 223.641 5.83333 223.791 5.88C223.941 5.92333 224.092 5.97167 224.246 6.025C224.402 6.07833 224.556 6.14 224.706 6.21C224.856 6.27667 224.989 6.36333 225.106 6.47C225.226 6.57333 225.321 6.69833 225.391 6.845C225.464 6.99167 225.501 7.16833 225.501 7.375C225.501 7.62167 225.456 7.85 225.366 8.06C225.279 8.26667 225.149 8.44667 224.976 8.6C224.802 8.75 224.587 8.86833 224.331 8.955C224.077 9.03833 223.784 9.08 223.451 9.08C223.274 9.08 223.101 9.06333 222.931 9.03C222.764 9 222.602 8.95667 222.446 8.9C222.292 8.84333 222.149 8.77667 222.016 8.7C221.886 8.62333 221.771 8.54 221.671 8.45L221.956 7.98C221.992 7.92333 222.036 7.88 222.086 7.85C222.136 7.82 222.199 7.805 222.276 7.805C222.352 7.805 222.424 7.82667 222.491 7.87C222.561 7.91333 222.641 7.96 222.731 8.01C222.821 8.06 222.926 8.10667 223.046 8.15C223.169 8.19333 223.324 8.215 223.511 8.215C223.657 8.215 223.782 8.19833 223.886 8.165C223.992 8.12833 224.079 8.08167 224.146 8.025C224.216 7.96833 224.266 7.90333 224.296 7.83C224.329 7.75333 224.346 7.675 224.346 7.595C224.346 7.475 224.309 7.37667 224.236 7.3C224.166 7.22333 224.071 7.15667 223.951 7.1C223.834 7.04333 223.699 6.99333 223.546 6.95C223.396 6.90333 223.241 6.85333 223.081 6.8C222.924 6.74667 222.769 6.685 222.616 6.615C222.466 6.54167 222.331 6.45 222.211 6.34C222.094 6.23 221.999 6.095 221.926 5.935C221.856 5.775 221.821 5.58167 221.821 5.355C221.821 5.145 221.862 4.945 221.946 4.755C222.029 4.565 222.151 4.4 222.311 4.26C222.474 4.11667 222.676 4.00333 222.916 3.92C223.159 3.83333 223.439 3.79 223.756 3.79C224.109 3.79 224.431 3.84833 224.721 3.965C225.011 4.08167 225.252 4.235 225.446 4.425L225.166 4.87ZM229.735 5.845C229.735 5.685 229.712 5.535 229.665 5.395C229.622 5.25167 229.555 5.12667 229.465 5.02C229.375 4.91333 229.26 4.83 229.12 4.77C228.984 4.70667 228.824 4.675 228.64 4.675C228.284 4.675 228.002 4.77667 227.795 4.98C227.592 5.18333 227.462 5.47167 227.405 5.845H229.735ZM227.38 6.59C227.4 6.85333 227.447 7.08167 227.52 7.275C227.594 7.465 227.69 7.62333 227.81 7.75C227.93 7.87333 228.072 7.96667 228.235 8.03C228.402 8.09 228.585 8.12 228.785 8.12C228.985 8.12 229.157 8.09667 229.3 8.05C229.447 8.00333 229.574 7.95167 229.68 7.895C229.79 7.83833 229.885 7.78667 229.965 7.74C230.049 7.69333 230.129 7.67 230.205 7.67C230.309 7.67 230.385 7.70833 230.435 7.785L230.79 8.235C230.654 8.395 230.5 8.53 230.33 8.64C230.16 8.74667 229.982 8.83333 229.795 8.9C229.612 8.96333 229.424 9.00833 229.23 9.035C229.04 9.06167 228.855 9.075 228.675 9.075C228.319 9.075 227.987 9.01667 227.68 8.9C227.374 8.78 227.107 8.605 226.88 8.375C226.654 8.14167 226.475 7.855 226.345 7.515C226.215 7.17167 226.15 6.775 226.15 6.325C226.15 5.975 226.207 5.64667 226.32 5.34C226.434 5.03 226.595 4.76167 226.805 4.535C227.019 4.305 227.277 4.12333 227.58 3.99C227.887 3.85667 228.232 3.79 228.615 3.79C228.939 3.79 229.237 3.84167 229.51 3.945C229.784 4.04833 230.019 4.2 230.215 4.4C230.412 4.59667 230.565 4.84 230.675 5.13C230.789 5.41667 230.845 5.745 230.845 6.115C230.845 6.30167 230.825 6.42833 230.785 6.495C230.745 6.55833 230.669 6.59 230.555 6.59H227.38ZM232.937 4.76C233.097 4.45333 233.287 4.21333 233.507 4.04C233.727 3.86333 233.987 3.775 234.287 3.775C234.524 3.775 234.714 3.82667 234.857 3.93L234.777 4.855C234.76 4.915 234.735 4.95833 234.702 4.985C234.672 5.00833 234.63 5.02 234.577 5.02C234.527 5.02 234.452 5.01167 234.352 4.995C234.255 4.97833 234.16 4.97 234.067 4.97C233.93 4.97 233.809 4.99 233.702 5.03C233.595 5.07 233.499 5.12833 233.412 5.205C233.329 5.27833 233.254 5.36833 233.187 5.475C233.124 5.58167 233.064 5.70333 233.007 5.84V9H231.772V3.87H232.497C232.624 3.87 232.712 3.89333 232.762 3.94C232.812 3.98333 232.845 4.06333 232.862 4.18L232.937 4.76Z" fill="white"/>
</svg>
