<svg width="48" height="282" viewBox="0 0 48 282" fill="none" xmlns="http://www.w3.org/2000/svg">
<g opacity="0.1">
<path opacity="0.1" d="M5 273.5V274.5H7V273.5H5Z" fill="#EEEEEE"/>
<path opacity="0.1" d="M10 273.5V274.5H12V273.5H10Z" fill="#EEEEEE"/>
<path opacity="0.1" d="M5 234.5V235.5H7V234.5H5Z" fill="#EEEEEE"/>
<path opacity="0.1" d="M10 234.5V235.5H12V234.5H10Z" fill="#EEEEEE"/>
<path opacity="0.1" fill-rule="evenodd" clip-rule="evenodd" d="M8.5 230.5C8.77614 230.5 9 230.724 9 231V278C9 278.276 8.77614 278.5 8.5 278.5C8.22386 278.5 8 278.276 8 278V231C8 230.724 8.22386 230.5 8.5 230.5Z" fill="#EEEEEE"/>
<path opacity="0.1" fill-rule="evenodd" clip-rule="evenodd" d="M8.5 230C9.05228 230 9.5 230.448 9.5 231V278C9.5 278.552 9.05228 279 8.5 279C7.94772 279 7.5 278.552 7.5 278V231C7.5 230.448 7.94772 230 8.5 230Z" stroke="#EEEEEE"/>
</g>
<path d="M4.5 273V274H6.5V273H4.5Z" fill="black"/>
<path d="M9.5 273V274H11.5V273H9.5Z" fill="black"/>
<path d="M4.5 234V235H6.5V234H4.5Z" fill="black"/>
<path d="M9.5 234V235H11.5V234H9.5Z" fill="black"/>
<path fill-rule="evenodd" clip-rule="evenodd" d="M8 230C8.27614 230 8.5 230.224 8.5 230.5V277.5C8.5 277.776 8.27614 278 8 278C7.72386 278 7.5 277.776 7.5 277.5V230.5C7.5 230.224 7.72386 230 8 230Z" fill="#1F1F1F"/>
<path fill-rule="evenodd" clip-rule="evenodd" d="M8 229.5C8.55228 229.5 9 229.948 9 230.5V277.5C9 278.052 8.55228 278.5 8 278.5C7.44772 278.5 7 278.052 7 277.5V230.5C7 229.948 7.44772 229.5 8 229.5Z" stroke="black"/>
<g opacity="0.1">
<path opacity="0.1" d="M21 273.5V274.5H23V273.5H21Z" fill="#EEEEEE"/>
<path opacity="0.1" d="M26 273.5V274.5H28V273.5H26Z" fill="#EEEEEE"/>
<path opacity="0.1" d="M21 234.5V235.5H23V234.5H21Z" fill="#EEEEEE"/>
<path opacity="0.1" d="M26 234.5V235.5H28V234.5H26Z" fill="#EEEEEE"/>
<path opacity="0.1" fill-rule="evenodd" clip-rule="evenodd" d="M24.5 230.5C24.7761 230.5 25 230.724 25 231V278C25 278.276 24.7761 278.5 24.5 278.5C24.2239 278.5 24 278.276 24 278V231C24 230.724 24.2239 230.5 24.5 230.5Z" fill="#EEEEEE"/>
<path opacity="0.1" fill-rule="evenodd" clip-rule="evenodd" d="M24.5 230C25.0523 230 25.5 230.448 25.5 231V278C25.5 278.552 25.0523 279 24.5 279C23.9477 279 23.5 278.552 23.5 278V231C23.5 230.448 23.9477 230 24.5 230Z" stroke="#EEEEEE"/>
</g>
<path d="M20.5 273V274H22.5V273H20.5Z" fill="black"/>
<path d="M25.5 273V274H27.5V273H25.5Z" fill="black"/>
<path d="M20.5 234V235H22.5V234H20.5Z" fill="black"/>
<path d="M25.5 234V235H27.5V234H25.5Z" fill="black"/>
<path fill-rule="evenodd" clip-rule="evenodd" d="M24 230C24.2761 230 24.5 230.224 24.5 230.5V277.5C24.5 277.776 24.2761 278 24 278C23.7239 278 23.5 277.776 23.5 277.5V230.5C23.5 230.224 23.7239 230 24 230Z" fill="#B4B4B4"/>
<path fill-rule="evenodd" clip-rule="evenodd" d="M24 229.5C24.5523 229.5 25 229.948 25 230.5V277.5C25 278.052 24.5523 278.5 24 278.5C23.4477 278.5 23 278.052 23 277.5V230.5C23 229.948 23.4477 229.5 24 229.5Z" stroke="black"/>
<g opacity="0.1">
<path opacity="0.1" d="M37 273.5V274.5H39V273.5H37Z" fill="#EEEEEE"/>
<path opacity="0.1" d="M42 273.5V274.5H44V273.5H42Z" fill="#EEEEEE"/>
<path opacity="0.1" d="M37 234.5V235.5H39V234.5H37Z" fill="#EEEEEE"/>
<path opacity="0.1" d="M42 234.5V235.5H44V234.5H42Z" fill="#EEEEEE"/>
<path opacity="0.1" fill-rule="evenodd" clip-rule="evenodd" d="M40.5 230.5C40.7761 230.5 41 230.724 41 231V278C41 278.276 40.7761 278.5 40.5 278.5C40.2239 278.5 40 278.276 40 278V231C40 230.724 40.2239 230.5 40.5 230.5Z" fill="#EEEEEE"/>
<path opacity="0.1" fill-rule="evenodd" clip-rule="evenodd" d="M40.5 230C41.0523 230 41.5 230.448 41.5 231V278C41.5 278.552 41.0523 279 40.5 279C39.9477 279 39.5 278.552 39.5 278V231C39.5 230.448 39.9477 230 40.5 230Z" stroke="#EEEEEE"/>
</g>
<path d="M36.5 273V274H38.5V273H36.5Z" fill="#60ACCC"/>
<path d="M41.5 273V274H43.5V273H41.5Z" fill="#60ACCC"/>
<path d="M36.5 234V235H38.5V234H36.5Z" fill="#60ACCC"/>
<path d="M41.5 234V235H43.5V234H41.5Z" fill="#60ACCC"/>
<path fill-rule="evenodd" clip-rule="evenodd" d="M40 230C40.2761 230 40.5 230.224 40.5 230.5V277.5C40.5 277.776 40.2761 278 40 278C39.7239 278 39.5 277.776 39.5 277.5V230.5C39.5 230.224 39.7239 230 40 230Z" fill="#60ACCC"/>
<path fill-rule="evenodd" clip-rule="evenodd" d="M40 229.5C40.5523 229.5 41 229.948 41 230.5V277.5C41 278.052 40.5523 278.5 40 278.5C39.4477 278.5 39 278.052 39 277.5V230.5C39 229.948 39.4477 229.5 40 229.5Z" fill="#60ACCC" stroke="black"/>
<path fill-rule="evenodd" clip-rule="evenodd" d="M40 229.5C41.1046 229.5 42 230.395 42 231.5V276.5C42 277.605 41.1046 278.5 40 278.5C38.8954 278.5 38 277.605 38 276.5V231.5C38 230.395 38.8954 229.5 40 229.5Z" stroke="#7CA1B0" stroke-opacity="0.15"/>
<g opacity="0.1">
<path opacity="0.1" d="M5 198.5V199.5H7V198.5H5Z" fill="#EEEEEE"/>
<path opacity="0.1" d="M10 198.5V199.5H12V198.5H10Z" fill="#EEEEEE"/>
<path opacity="0.1" d="M5 159.5V160.5H7V159.5H5Z" fill="#EEEEEE"/>
<path opacity="0.1" d="M10 159.5V160.5H12V159.5H10Z" fill="#EEEEEE"/>
<path opacity="0.1" fill-rule="evenodd" clip-rule="evenodd" d="M8.5 155.5C8.77614 155.5 9 155.724 9 156V203C9 203.276 8.77614 203.5 8.5 203.5C8.22386 203.5 8 203.276 8 203V156C8 155.724 8.22386 155.5 8.5 155.5Z" fill="#EEEEEE"/>
<path opacity="0.1" fill-rule="evenodd" clip-rule="evenodd" d="M8.5 155C9.05228 155 9.5 155.448 9.5 156V203C9.5 203.552 9.05228 204 8.5 204C7.94772 204 7.5 203.552 7.5 203V156C7.5 155.448 7.94772 155 8.5 155Z" stroke="#EEEEEE"/>
</g>
<path d="M4.5 198V199H6.5V198H4.5Z" fill="black"/>
<path d="M9.5 198V199H11.5V198H9.5Z" fill="black"/>
<path d="M4.5 159V160H6.5V159H4.5Z" fill="black"/>
<path d="M9.5 159V160H11.5V159H9.5Z" fill="black"/>
<path fill-rule="evenodd" clip-rule="evenodd" d="M8 155C8.27614 155 8.5 155.224 8.5 155.5V202.5C8.5 202.776 8.27614 203 8 203C7.72386 203 7.5 202.776 7.5 202.5V155.5C7.5 155.224 7.72386 155 8 155Z" fill="#1F1F1F"/>
<path fill-rule="evenodd" clip-rule="evenodd" d="M8 154.5C8.55228 154.5 9 154.948 9 155.5V202.5C9 203.052 8.55228 203.5 8 203.5C7.44772 203.5 7 203.052 7 202.5V155.5C7 154.948 7.44772 154.5 8 154.5Z" stroke="black"/>
<g opacity="0.1">
<path opacity="0.1" d="M21 198.5V199.5H23V198.5H21Z" fill="#EEEEEE"/>
<path opacity="0.1" d="M26 198.5V199.5H28V198.5H26Z" fill="#EEEEEE"/>
<path opacity="0.1" d="M21 159.5V160.5H23V159.5H21Z" fill="#EEEEEE"/>
<path opacity="0.1" d="M26 159.5V160.5H28V159.5H26Z" fill="#EEEEEE"/>
<path opacity="0.1" fill-rule="evenodd" clip-rule="evenodd" d="M24.5 155.5C24.7761 155.5 25 155.724 25 156V203C25 203.276 24.7761 203.5 24.5 203.5C24.2239 203.5 24 203.276 24 203V156C24 155.724 24.2239 155.5 24.5 155.5Z" fill="#EEEEEE"/>
<path opacity="0.1" fill-rule="evenodd" clip-rule="evenodd" d="M24.5 155C25.0523 155 25.5 155.448 25.5 156V203C25.5 203.552 25.0523 204 24.5 204C23.9477 204 23.5 203.552 23.5 203V156C23.5 155.448 23.9477 155 24.5 155Z" stroke="#EEEEEE"/>
</g>
<path d="M20.5 198V199H22.5V198H20.5Z" fill="black"/>
<path d="M25.5 198V199H27.5V198H25.5Z" fill="black"/>
<path d="M20.5 159V160H22.5V159H20.5Z" fill="black"/>
<path d="M25.5 159V160H27.5V159H25.5Z" fill="black"/>
<path fill-rule="evenodd" clip-rule="evenodd" d="M24 155C24.2761 155 24.5 155.224 24.5 155.5V202.5C24.5 202.776 24.2761 203 24 203C23.7239 203 23.5 202.776 23.5 202.5V155.5C23.5 155.224 23.7239 155 24 155Z" fill="#B4B4B4"/>
<path fill-rule="evenodd" clip-rule="evenodd" d="M24 154.5C24.5523 154.5 25 154.948 25 155.5V202.5C25 203.052 24.5523 203.5 24 203.5C23.4477 203.5 23 203.052 23 202.5V155.5C23 154.948 23.4477 154.5 24 154.5Z" stroke="black"/>
<g opacity="0.1">
<path opacity="0.1" d="M37 198.5V199.5H39V198.5H37Z" fill="#EEEEEE"/>
<path opacity="0.1" d="M42 198.5V199.5H44V198.5H42Z" fill="#EEEEEE"/>
<path opacity="0.1" d="M37 159.5V160.5H39V159.5H37Z" fill="#EEEEEE"/>
<path opacity="0.1" d="M42 159.5V160.5H44V159.5H42Z" fill="#EEEEEE"/>
<path opacity="0.1" fill-rule="evenodd" clip-rule="evenodd" d="M40.5 155.5C40.7761 155.5 41 155.724 41 156V203C41 203.276 40.7761 203.5 40.5 203.5C40.2239 203.5 40 203.276 40 203V156C40 155.724 40.2239 155.5 40.5 155.5Z" fill="#EEEEEE"/>
<path opacity="0.1" fill-rule="evenodd" clip-rule="evenodd" d="M40.5 155C41.0523 155 41.5 155.448 41.5 156V203C41.5 203.552 41.0523 204 40.5 204C39.9477 204 39.5 203.552 39.5 203V156C39.5 155.448 39.9477 155 40.5 155Z" stroke="#EEEEEE"/>
</g>
<path d="M36.5 198V199H38.5V198H36.5Z" fill="#60ACCC"/>
<path d="M41.5 198V199H43.5V198H41.5Z" fill="#60ACCC"/>
<path d="M36.5 159V160H38.5V159H36.5Z" fill="#60ACCC"/>
<path d="M41.5 159V160H43.5V159H41.5Z" fill="#60ACCC"/>
<path fill-rule="evenodd" clip-rule="evenodd" d="M40 155C40.2761 155 40.5 155.224 40.5 155.5V202.5C40.5 202.776 40.2761 203 40 203C39.7239 203 39.5 202.776 39.5 202.5V155.5C39.5 155.224 39.7239 155 40 155Z" fill="#60ACCC"/>
<path fill-rule="evenodd" clip-rule="evenodd" d="M40 154.5C40.5523 154.5 41 154.948 41 155.5V202.5C41 203.052 40.5523 203.5 40 203.5C39.4477 203.5 39 203.052 39 202.5V155.5C39 154.948 39.4477 154.5 40 154.5Z" fill="#60ACCC" stroke="black"/>
<path fill-rule="evenodd" clip-rule="evenodd" d="M40 154.5C41.1046 154.5 42 155.395 42 156.5V201.5C42 202.605 41.1046 203.5 40 203.5C38.8954 203.5 38 202.605 38 201.5V156.5C38 155.395 38.8954 154.5 40 154.5Z" stroke="#7CA1B0" stroke-opacity="0.15"/>
<g opacity="0.1">
<path opacity="0.1" d="M5 65.5V66.5H7V65.5H5Z" fill="#EEEEEE"/>
<path opacity="0.1" d="M10 65.5V66.5H12V65.5H10Z" fill="#EEEEEE"/>
<path opacity="0.1" d="M5 9.5V10.5H7V9.5H5Z" fill="#EEEEEE"/>
<path opacity="0.1" d="M10 9.5V10.5H12V9.5H10Z" fill="#EEEEEE"/>
<path opacity="0.1" fill-rule="evenodd" clip-rule="evenodd" d="M8.5 5.5C8.77614 5.5 9 5.72386 9 6.00001V70C9 70.2761 8.77614 70.5 8.5 70.5C8.22386 70.5 8 70.2761 8 70V6C8 5.72386 8.22386 5.5 8.5 5.5Z" fill="#EEEEEE"/>
<path opacity="0.1" fill-rule="evenodd" clip-rule="evenodd" d="M8.5 5C9.05228 5 9.5 5.44771 9.5 6V70C9.5 70.5523 9.05228 71 8.5 71C7.94772 71 7.5 70.5523 7.5 70V6C7.5 5.44771 7.94772 5 8.5 5Z" stroke="#EEEEEE"/>
</g>
<path d="M4.5 65V66H6.5V65H4.5Z" fill="black"/>
<path d="M9.5 65V66H11.5V65H9.5Z" fill="black"/>
<path d="M4.5 9V10H6.5V9H4.5Z" fill="black"/>
<path d="M9.5 9V10H11.5V9H9.5Z" fill="black"/>
<path fill-rule="evenodd" clip-rule="evenodd" d="M8 5C8.27614 5 8.5 5.22386 8.5 5.50001V69.5C8.5 69.7761 8.27614 70 8 70C7.72386 70 7.5 69.7761 7.5 69.5V5.5C7.5 5.22386 7.72386 5 8 5Z" fill="#1F1F1F"/>
<path fill-rule="evenodd" clip-rule="evenodd" d="M8 4.5C8.55228 4.5 9 4.94771 9 5.5V69.5C9 70.0523 8.55228 70.5 8 70.5C7.44772 70.5 7 70.0523 7 69.5V5.5C7 4.94771 7.44772 4.5 8 4.5Z" stroke="black"/>
<g opacity="0.1">
<path opacity="0.1" d="M21 65.5V66.5H23V65.5H21Z" fill="#EEEEEE"/>
<path opacity="0.1" d="M26 65.5V66.5H28V65.5H26Z" fill="#EEEEEE"/>
<path opacity="0.1" d="M21 9.5V10.5H23V9.5H21Z" fill="#EEEEEE"/>
<path opacity="0.1" d="M26 9.5V10.5H28V9.5H26Z" fill="#EEEEEE"/>
<path opacity="0.1" fill-rule="evenodd" clip-rule="evenodd" d="M24.5 5.5C24.7761 5.5 25 5.72386 25 6.00001V70C25 70.2761 24.7761 70.5 24.5 70.5C24.2239 70.5 24 70.2761 24 70V6C24 5.72386 24.2239 5.5 24.5 5.5Z" fill="#EEEEEE"/>
<path opacity="0.1" fill-rule="evenodd" clip-rule="evenodd" d="M24.5 5C25.0523 5 25.5 5.44771 25.5 6V70C25.5 70.5523 25.0523 71 24.5 71C23.9477 71 23.5 70.5523 23.5 70V6C23.5 5.44771 23.9477 5 24.5 5Z" stroke="#EEEEEE"/>
</g>
<path d="M20.5 65V66H22.5V65H20.5Z" fill="black"/>
<path d="M25.5 65V66H27.5V65H25.5Z" fill="black"/>
<path d="M20.5 9V10H22.5V9H20.5Z" fill="black"/>
<path d="M25.5 9V10H27.5V9H25.5Z" fill="black"/>
<path fill-rule="evenodd" clip-rule="evenodd" d="M24 5C24.2761 5 24.5 5.22386 24.5 5.50001V69.5C24.5 69.7761 24.2761 70 24 70C23.7239 70 23.5 69.7761 23.5 69.5V5.5C23.5 5.22386 23.7239 5 24 5Z" fill="#B4B4B4"/>
<path fill-rule="evenodd" clip-rule="evenodd" d="M24 4.5C24.5523 4.5 25 4.94771 25 5.5V69.5C25 70.0523 24.5523 70.5 24 70.5C23.4477 70.5 23 70.0523 23 69.5V5.5C23 4.94771 23.4477 4.5 24 4.5Z" stroke="black"/>
<g opacity="0.1">
<path opacity="0.1" d="M37 65.5V66.5H39V65.5H37Z" fill="#EEEEEE"/>
<path opacity="0.1" d="M42 65.5V66.5H44V65.5H42Z" fill="#EEEEEE"/>
<path opacity="0.1" d="M37 9.5V10.5H39V9.5H37Z" fill="#EEEEEE"/>
<path opacity="0.1" d="M42 9.5V10.5H44V9.5H42Z" fill="#EEEEEE"/>
<path opacity="0.1" fill-rule="evenodd" clip-rule="evenodd" d="M40.5 5.5C40.7761 5.5 41 5.72386 41 6.00001V70C41 70.2761 40.7761 70.5 40.5 70.5C40.2239 70.5 40 70.2761 40 70V6C40 5.72386 40.2239 5.5 40.5 5.5Z" fill="#EEEEEE"/>
<path opacity="0.1" fill-rule="evenodd" clip-rule="evenodd" d="M40.5 5C41.0523 5 41.5 5.44771 41.5 6V70C41.5 70.5523 41.0523 71 40.5 71C39.9477 71 39.5 70.5523 39.5 70V6C39.5 5.44771 39.9477 5 40.5 5Z" stroke="#EEEEEE"/>
</g>
<path d="M36.5 65V66H38.5V65H36.5Z" fill="#60ACCC"/>
<path d="M41.5 65V66H43.5V65H41.5Z" fill="#60ACCC"/>
<path d="M36.5 9V10H38.5V9H36.5Z" fill="#60ACCC"/>
<path d="M41.5 9V10H43.5V9H41.5Z" fill="#60ACCC"/>
<path fill-rule="evenodd" clip-rule="evenodd" d="M40 5C40.2761 5 40.5 5.22386 40.5 5.50001V69.5C40.5 69.7761 40.2761 70 40 70C39.7239 70 39.5 69.7761 39.5 69.5V5.5C39.5 5.22386 39.7239 5 40 5Z" fill="#60ACCC"/>
<path fill-rule="evenodd" clip-rule="evenodd" d="M40 4.5C40.5523 4.5 41 4.94771 41 5.5V69.5C41 70.0523 40.5523 70.5 40 70.5C39.4477 70.5 39 70.0523 39 69.5V5.5C39 4.94771 39.4477 4.5 40 4.5Z" fill="#60ACCC" stroke="black"/>
<path fill-rule="evenodd" clip-rule="evenodd" d="M40 4.5C41.1046 4.5 42 5.39543 42 6.5V68.5C42 69.6046 41.1046 70.5 40 70.5C38.8954 70.5 38 69.6046 38 68.5V6.5C38 5.39543 38.8954 4.5 40 4.5Z" stroke="#7CA1B0" stroke-opacity="0.15"/>
<g opacity="0.1">
<path opacity="0.1" d="M5 140.5V141.5H7V140.5H5Z" fill="#EEEEEE"/>
<path opacity="0.1" d="M10 140.5V141.5H12V140.5H10Z" fill="#EEEEEE"/>
<path opacity="0.1" d="M5 84.5V85.5H7V84.5H5Z" fill="#EEEEEE"/>
<path opacity="0.1" d="M10 84.5V85.5H12V84.5H10Z" fill="#EEEEEE"/>
<path opacity="0.1" fill-rule="evenodd" clip-rule="evenodd" d="M8.5 80.5C8.77614 80.5 9 80.7239 9 81V145C9 145.276 8.77614 145.5 8.5 145.5C8.22386 145.5 8 145.276 8 145V81C8 80.7239 8.22386 80.5 8.5 80.5Z" fill="#EEEEEE"/>
<path opacity="0.1" fill-rule="evenodd" clip-rule="evenodd" d="M8.5 80C9.05228 80 9.5 80.4477 9.5 81V145C9.5 145.552 9.05228 146 8.5 146C7.94772 146 7.5 145.552 7.5 145V81C7.5 80.4477 7.94772 80 8.5 80Z" stroke="#EEEEEE"/>
</g>
<g opacity="0.1">
<path opacity="0.1" d="M5.5 113.5V112.5H7V113.5H5.5Z" fill="#EEEEEE"/>
<path opacity="0.1" d="M10 113.5V112.5H11.5V113.5H10Z" fill="#EEEEEE"/>
<path opacity="0.1" d="M3 85.5V84.5H5V85.5H3Z" fill="#EEEEEE"/>
<path opacity="0.1" d="M12 85.5V84.5H14V85.5H12Z" fill="#EEEEEE"/>
<path opacity="0.1" d="M3 141.5V140.5H5V141.5H3Z" fill="#EEEEEE"/>
<path opacity="0.1" d="M12 141.5V140.5H14V141.5H12Z" fill="#EEEEEE"/>
</g>
<path d="M5 113V112H6.5V113H5Z" fill="black"/>
<path d="M9.5 113V112H11V113H9.5Z" fill="black"/>
<path d="M2.5 85V84H4.5V85H2.5Z" fill="black"/>
<path d="M11.5 85V84H13.5V85H11.5Z" fill="black"/>
<path d="M2.5 141V140H4.5V141H2.5Z" fill="black"/>
<path d="M11.5 141V140H13.5V141H11.5Z" fill="black"/>
<path d="M4.5 140V141H6.5V140H4.5Z" fill="black"/>
<path d="M9.5 140V141H11.5V140H9.5Z" fill="black"/>
<path d="M4.5 84V85H6.5V84H4.5Z" fill="black"/>
<path d="M9.5 84V85H11.5V84H9.5Z" fill="black"/>
<path fill-rule="evenodd" clip-rule="evenodd" d="M8 80C8.27614 80 8.5 80.2239 8.5 80.5V144.5C8.5 144.776 8.27614 145 8 145C7.72386 145 7.5 144.776 7.5 144.5V80.5C7.5 80.2239 7.72386 80 8 80Z" fill="#1F1F1F"/>
<path fill-rule="evenodd" clip-rule="evenodd" d="M8 79.5C8.55228 79.5 9 79.9477 9 80.5V144.5C9 145.052 8.55228 145.5 8 145.5C7.44772 145.5 7 145.052 7 144.5V80.5C7 79.9477 7.44772 79.5 8 79.5Z" stroke="black"/>
<g opacity="0.1">
<path opacity="0.1" d="M21 140.5V141.5H23V140.5H21Z" fill="#EEEEEE"/>
<path opacity="0.1" d="M26 140.5V141.5H28V140.5H26Z" fill="#EEEEEE"/>
<path opacity="0.1" d="M21 84.5V85.5H23V84.5H21Z" fill="#EEEEEE"/>
<path opacity="0.1" d="M26 84.5V85.5H28V84.5H26Z" fill="#EEEEEE"/>
<path opacity="0.1" fill-rule="evenodd" clip-rule="evenodd" d="M24.5 80.5C24.7761 80.5 25 80.7239 25 81V145C25 145.276 24.7761 145.5 24.5 145.5C24.2239 145.5 24 145.276 24 145V81C24 80.7239 24.2239 80.5 24.5 80.5Z" fill="#EEEEEE"/>
<path opacity="0.1" fill-rule="evenodd" clip-rule="evenodd" d="M24.5 80C25.0523 80 25.5 80.4477 25.5 81V145C25.5 145.552 25.0523 146 24.5 146C23.9477 146 23.5 145.552 23.5 145V81C23.5 80.4477 23.9477 80 24.5 80Z" stroke="#EEEEEE"/>
</g>
<g opacity="0.1">
<path opacity="0.1" d="M21.5 113.5V112.5H23V113.5H21.5Z" fill="#EEEEEE"/>
<path opacity="0.1" d="M26 113.5V112.5H27.5V113.5H26Z" fill="#EEEEEE"/>
<path opacity="0.1" d="M19 85.5V84.5H21V85.5H19Z" fill="#EEEEEE"/>
<path opacity="0.1" d="M28 85.5V84.5H30V85.5H28Z" fill="#EEEEEE"/>
<path opacity="0.1" d="M19 141.5V140.5H21V141.5H19Z" fill="#EEEEEE"/>
<path opacity="0.1" d="M28 141.5V140.5H30V141.5H28Z" fill="#EEEEEE"/>
</g>
<path d="M21 113V112H22.5V113H21Z" fill="black"/>
<path d="M25.5 113V112H27V113H25.5Z" fill="black"/>
<path d="M18.5 85V84H20.5V85H18.5Z" fill="black"/>
<path d="M27.5 85V84H29.5V85H27.5Z" fill="black"/>
<path d="M18.5 141V140H20.5V141H18.5Z" fill="black"/>
<path d="M27.5 141V140H29.5V141H27.5Z" fill="black"/>
<path d="M20.5 140V141H22.5V140H20.5Z" fill="black"/>
<path d="M25.5 140V141H27.5V140H25.5Z" fill="black"/>
<path d="M20.5 84V85H22.5V84H20.5Z" fill="black"/>
<path d="M25.5 84V85H27.5V84H25.5Z" fill="black"/>
<path fill-rule="evenodd" clip-rule="evenodd" d="M24 80C24.2761 80 24.5 80.2239 24.5 80.5V144.5C24.5 144.776 24.2761 145 24 145C23.7239 145 23.5 144.776 23.5 144.5V80.5C23.5 80.2239 23.7239 80 24 80Z" fill="#B4B4B4"/>
<path fill-rule="evenodd" clip-rule="evenodd" d="M24 79.5C24.5523 79.5 25 79.9477 25 80.5V144.5C25 145.052 24.5523 145.5 24 145.5C23.4477 145.5 23 145.052 23 144.5V80.5C23 79.9477 23.4477 79.5 24 79.5Z" stroke="black"/>
<g opacity="0.1">
<path opacity="0.1" d="M37 140.5V141.5H39V140.5H37Z" fill="#EEEEEE"/>
<path opacity="0.1" d="M42 140.5V141.5H44V140.5H42Z" fill="#EEEEEE"/>
<path opacity="0.1" d="M37 84.5V85.5H39V84.5H37Z" fill="#EEEEEE"/>
<path opacity="0.1" d="M42 84.5V85.5H44V84.5H42Z" fill="#EEEEEE"/>
<path opacity="0.1" fill-rule="evenodd" clip-rule="evenodd" d="M40.5 80.5C40.7761 80.5 41 80.7239 41 81V145C41 145.276 40.7761 145.5 40.5 145.5C40.2239 145.5 40 145.276 40 145V81C40 80.7239 40.2239 80.5 40.5 80.5Z" fill="#EEEEEE"/>
<path opacity="0.1" fill-rule="evenodd" clip-rule="evenodd" d="M40.5 80C41.0523 80 41.5 80.4477 41.5 81V145C41.5 145.552 41.0523 146 40.5 146C39.9477 146 39.5 145.552 39.5 145V81C39.5 80.4477 39.9477 80 40.5 80Z" stroke="#EEEEEE"/>
</g>
<g opacity="0.1">
<path opacity="0.1" d="M37.5 113.5V112.5H39V113.5H37.5Z" fill="#EEEEEE"/>
<path opacity="0.1" d="M42 113.5V112.5H43.5V113.5H42Z" fill="#EEEEEE"/>
<path opacity="0.1" d="M35 85.5V84.5H37V85.5H35Z" fill="#EEEEEE"/>
<path opacity="0.1" d="M44 85.5V84.5H46V85.5H44Z" fill="#EEEEEE"/>
<path opacity="0.1" d="M35 141.5V140.5H37V141.5H35Z" fill="#EEEEEE"/>
<path opacity="0.1" d="M44 141.5V140.5H46V141.5H44Z" fill="#EEEEEE"/>
</g>
<path d="M37 113V112H38.5V113H37Z" fill="#60ACCC"/>
<path d="M41.5 113V112H43V113H41.5Z" fill="#60ACCC"/>
<path d="M34.5 85V84H36.5V85H34.5Z" fill="#60ACCC"/>
<path d="M43.5 85V84H45.5V85H43.5Z" fill="#60ACCC"/>
<path d="M34.5 141V140H36.5V141H34.5Z" fill="#60ACCC"/>
<path d="M43.5 141V140H45.5V141H43.5Z" fill="#60ACCC"/>
<path d="M36.5 140V141H38.5V140H36.5Z" fill="#60ACCC"/>
<path d="M41.5 140V141H43.5V140H41.5Z" fill="#60ACCC"/>
<path d="M36.5 84V85H38.5V84H36.5Z" fill="#60ACCC"/>
<path d="M41.5 84V85H43.5V84H41.5Z" fill="#60ACCC"/>
<path fill-rule="evenodd" clip-rule="evenodd" d="M40 80C40.2761 80 40.5 80.2239 40.5 80.5V144.5C40.5 144.776 40.2761 145 40 145C39.7239 145 39.5 144.776 39.5 144.5V80.5C39.5 80.2239 39.7239 80 40 80Z" fill="#60ACCC"/>
<path fill-rule="evenodd" clip-rule="evenodd" d="M40 79.5C40.5523 79.5 41 79.9477 41 80.5V144.5C41 145.052 40.5523 145.5 40 145.5C39.4477 145.5 39 145.052 39 144.5V80.5C39 79.9477 39.4477 79.5 40 79.5Z" fill="#60ACCC" stroke="black"/>
<path fill-rule="evenodd" clip-rule="evenodd" d="M40 79.5C41.1046 79.5 42 80.3954 42 81.5V143.5C42 144.605 41.1046 145.5 40 145.5C38.8954 145.5 38 144.605 38 143.5V81.5C38 80.3954 38.8954 79.5 40 79.5Z" stroke="#7CA1B0" stroke-opacity="0.15"/>
</svg>
