<svg width="40" height="84" viewBox="0 0 40 84" fill="none" xmlns="http://www.w3.org/2000/svg">
<rect x="2.5" y="2.5" width="35" height="16" rx="1" fill="url(#paint0_linear)"/>
<rect x="2.5" y="2.5" width="35" height="16" rx="1" stroke="url(#paint1_linear)"/>
<path d="M25.6563 17H23.9923C23.8056 17 23.651 16.9547 23.5283 16.864C23.411 16.768 23.3256 16.6507 23.2723 16.512L22.4083 14.152H17.6163L16.7523 16.512C16.7096 16.6347 16.6243 16.7467 16.4963 16.848C16.3736 16.9493 16.2216 17 16.0403 17H14.3683L18.9123 5.432H21.1123L25.6563 17ZM18.1683 12.632H21.8563L20.4483 8.784C20.3843 8.61333 20.3123 8.41333 20.2323 8.184C20.1576 7.94933 20.083 7.696 20.0083 7.424C19.9336 7.696 19.859 7.94933 19.7843 8.184C19.715 8.41867 19.6456 8.624 19.5763 8.8L18.1683 12.632Z" fill="black"/>
<rect x="2.5" y="65.5" width="35" height="16" rx="1" fill="url(#paint2_linear)"/>
<rect x="2.5" y="65.5" width="35" height="16" rx="1" stroke="url(#paint3_linear)"/>
<path d="M15.9571 80V68.432H19.9491C20.7064 68.432 21.3517 68.504 21.8851 68.648C22.4237 68.792 22.8637 68.9973 23.2051 69.264C23.5517 69.5307 23.8051 69.8533 23.9651 70.232C24.1251 70.6107 24.2051 71.0373 24.2051 71.512C24.2051 71.784 24.1651 72.0453 24.0851 72.296C24.0051 72.5413 23.8797 72.7733 23.7091 72.992C23.5437 73.2053 23.3304 73.4 23.0691 73.576C22.8131 73.752 22.5064 73.9013 22.1491 74.024C23.7384 74.3813 24.5331 75.24 24.5331 76.6C24.5331 77.0907 24.4397 77.544 24.2531 77.96C24.0664 78.376 23.7944 78.736 23.4371 79.04C23.0797 79.3387 22.6397 79.5733 22.1171 79.744C21.5944 79.9147 20.9971 80 20.3251 80H15.9571ZM18.1091 74.928V78.32H20.2931C20.6931 78.32 21.0264 78.272 21.2931 78.176C21.5651 78.08 21.7811 77.952 21.9411 77.792C22.1064 77.632 22.2237 77.4453 22.2931 77.232C22.3677 77.0187 22.4051 76.792 22.4051 76.552C22.4051 76.3013 22.3651 76.0773 22.2851 75.88C22.2051 75.6773 22.0797 75.5067 21.9091 75.368C21.7384 75.224 21.5197 75.1147 21.2531 75.04C20.9864 74.9653 20.6637 74.928 20.2851 74.928H18.1091ZM18.1091 73.44H19.8291C20.5597 73.44 21.1144 73.3067 21.4931 73.04C21.8717 72.7733 22.0611 72.3493 22.0611 71.768C22.0611 71.1653 21.8904 70.736 21.5491 70.48C21.2077 70.224 20.6744 70.096 19.9491 70.096H18.1091V73.44Z" fill="black"/>
<defs>
<linearGradient id="paint0_linear" x1="20" y1="2.5" x2="20" y2="18.5" gradientUnits="userSpaceOnUse">
<stop stop-color="#FFEE58"/>
<stop offset="1" stop-color="#FFEE58" stop-opacity="0.35"/>
</linearGradient>
<linearGradient id="paint1_linear" x1="20" y1="2.5" x2="20" y2="18.5" gradientUnits="userSpaceOnUse">
<stop stop-color="#FFEE58"/>
<stop offset="1" stop-color="#FFEE58" stop-opacity="0.35"/>
</linearGradient>
<linearGradient id="paint2_linear" x1="20" y1="65.5" x2="20" y2="81.5" gradientUnits="userSpaceOnUse">
<stop stop-color="#FFEE58"/>
<stop offset="1" stop-color="#FFEE58" stop-opacity="0.35"/>
</linearGradient>
<linearGradient id="paint3_linear" x1="20" y1="65.5" x2="20" y2="81.5" gradientUnits="userSpaceOnUse">
<stop stop-color="#FFEE58"/>
<stop offset="1" stop-color="#FFEE58" stop-opacity="0.35"/>
</linearGradient>
</defs>
</svg>
