<svg width="134" height="208" viewBox="0 0 134 208" fill="none" xmlns="http://www.w3.org/2000/svg">
<rect x="99.5117" y="200" width="30" height="6" rx="1" fill="url(#paint0_linear)"/>
<rect x="99.5117" y="200" width="30" height="6" rx="1" stroke="url(#paint1_linear)"/>
<path d="M105.881 204.52C105.998 204.52 106.09 204.553 106.158 204.618C106.226 204.681 106.259 204.765 106.259 204.87V205.5H102.675V205.15C102.675 205.082 102.689 205.01 102.717 204.933C102.745 204.856 102.794 204.786 102.864 204.723L104.334 203.242C104.46 203.116 104.57 202.996 104.663 202.882C104.757 202.768 104.834 202.656 104.894 202.546C104.955 202.434 105.001 202.323 105.031 202.213C105.061 202.101 105.076 201.984 105.076 201.86C105.076 201.657 105.027 201.502 104.929 201.394C104.834 201.285 104.687 201.23 104.488 201.23C104.327 201.23 104.191 201.273 104.079 201.359C103.969 201.443 103.893 201.548 103.851 201.674C103.802 201.803 103.738 201.888 103.659 201.93C103.58 201.972 103.466 201.981 103.319 201.958L102.745 201.856C102.783 201.602 102.854 201.38 102.959 201.191C103.066 201.002 103.198 200.845 103.354 200.719C103.513 200.593 103.694 200.5 103.897 200.439C104.1 200.376 104.318 200.344 104.551 200.344C104.803 200.344 105.03 200.382 105.23 200.456C105.433 200.529 105.606 200.63 105.748 200.761C105.891 200.892 105.999 201.048 106.074 201.23C106.151 201.41 106.189 201.608 106.189 201.825C106.189 202.012 106.163 202.184 106.109 202.343C106.058 202.502 105.986 202.653 105.895 202.798C105.804 202.94 105.698 203.079 105.577 203.214C105.458 203.347 105.331 203.483 105.195 203.62L104.198 204.642C104.326 204.603 104.453 204.572 104.579 204.551C104.705 204.53 104.822 204.52 104.929 204.52H105.881ZM116.16 204.716V205.5H113.255V204.716H114.235V202.143C114.235 202.078 114.236 202.013 114.238 201.947C114.241 201.88 114.244 201.812 114.249 201.744L113.668 202.227C113.617 202.267 113.565 202.292 113.514 202.301C113.465 202.308 113.418 202.308 113.374 202.301C113.33 202.292 113.29 202.276 113.255 202.255C113.22 202.232 113.194 202.209 113.178 202.185L112.835 201.73L114.424 200.397H115.32V204.716H116.16ZM122.805 201.856C122.843 201.602 122.914 201.38 123.019 201.191C123.126 201.002 123.258 200.845 123.414 200.719C123.573 200.593 123.754 200.5 123.957 200.439C124.16 200.376 124.378 200.344 124.611 200.344C124.863 200.344 125.087 200.381 125.283 200.453C125.479 200.523 125.645 200.619 125.78 200.74C125.916 200.861 126.018 201.002 126.088 201.163C126.158 201.322 126.193 201.49 126.193 201.667C126.193 201.828 126.177 201.971 126.144 202.094C126.112 202.216 126.063 202.322 125.997 202.413C125.934 202.502 125.855 202.577 125.759 202.64C125.666 202.701 125.559 202.752 125.437 202.794C126.002 202.993 126.284 203.378 126.284 203.949C126.284 204.22 126.235 204.456 126.137 204.656C126.039 204.857 125.908 205.024 125.742 205.157C125.579 205.29 125.388 205.39 125.171 205.458C124.954 205.523 124.728 205.556 124.492 205.556C124.25 205.556 124.034 205.53 123.845 205.479C123.656 205.425 123.488 205.344 123.341 205.234C123.194 205.122 123.064 204.98 122.952 204.807C122.843 204.634 122.747 204.429 122.665 204.191L123.148 203.995C123.274 203.946 123.391 203.933 123.498 203.956C123.606 203.98 123.683 204.033 123.729 204.117C123.834 204.311 123.945 204.452 124.062 204.541C124.181 204.627 124.32 204.67 124.478 204.67C124.6 204.67 124.705 204.651 124.793 204.611C124.884 204.569 124.959 204.516 125.017 204.453C125.078 204.388 125.124 204.315 125.154 204.233C125.184 204.151 125.199 204.068 125.199 203.984C125.199 203.875 125.191 203.777 125.175 203.69C125.161 203.602 125.119 203.526 125.049 203.463C124.979 203.4 124.873 203.352 124.73 203.319C124.59 203.284 124.394 203.267 124.142 203.267V202.518C124.355 202.518 124.526 202.502 124.657 202.469C124.788 202.436 124.888 202.392 124.958 202.336C125.03 202.278 125.078 202.208 125.101 202.126C125.125 202.044 125.136 201.954 125.136 201.856C125.136 201.656 125.087 201.502 124.989 201.394C124.894 201.285 124.747 201.23 124.548 201.23C124.387 201.23 124.251 201.273 124.139 201.359C124.029 201.443 123.953 201.548 123.911 201.674C123.862 201.803 123.798 201.888 123.719 201.93C123.64 201.972 123.526 201.981 123.379 201.958L122.805 201.856Z" fill="black"/>
<path d="M110.762 203L107.949 205.143L107.949 200.857L110.762 203Z" fill="black"/>
<path d="M118.262 203L121.074 200.857L121.074 205.143L118.262 203Z" fill="black"/>
<rect x="67.5117" y="148" width="30" height="6" rx="1" fill="url(#paint2_linear)"/>
<rect x="67.5117" y="148" width="30" height="6" rx="1" stroke="url(#paint3_linear)"/>
<path d="M70.7734 149.856C70.8108 149.602 70.8819 149.38 70.9869 149.191C71.0943 149.002 71.2261 148.845 71.3824 148.719C71.5411 148.593 71.7219 148.5 71.9249 148.439C72.1279 148.376 72.3461 148.344 72.5794 148.344C72.8314 148.344 73.0554 148.381 73.2514 148.453C73.4474 148.523 73.6131 148.619 73.7484 148.74C73.8838 148.861 73.9864 149.002 74.0564 149.163C74.1264 149.322 74.1614 149.49 74.1614 149.667C74.1614 149.828 74.1451 149.971 74.1124 150.094C74.0798 150.216 74.0308 150.322 73.9654 150.413C73.9024 150.502 73.8231 150.577 73.7274 150.64C73.6341 150.701 73.5268 150.752 73.4054 150.794C73.9701 150.993 74.2524 151.378 74.2524 151.949C74.2524 152.22 74.2034 152.456 74.1054 152.656C74.0074 152.857 73.8756 153.024 73.7099 153.157C73.5466 153.29 73.3564 153.39 73.1394 153.458C72.9224 153.523 72.6961 153.556 72.4604 153.556C72.2178 153.556 72.0019 153.53 71.8129 153.479C71.6239 153.425 71.4559 153.344 71.3089 153.234C71.1619 153.122 71.0324 152.98 70.9204 152.807C70.8108 152.634 70.7151 152.429 70.6334 152.191L71.1164 151.995C71.2424 151.946 71.3591 151.933 71.4664 151.956C71.5738 151.98 71.6508 152.033 71.6974 152.117C71.8024 152.311 71.9133 152.452 72.0299 152.541C72.1489 152.627 72.2878 152.67 72.4464 152.67C72.5678 152.67 72.6728 152.651 72.7614 152.611C72.8524 152.569 72.9271 152.516 72.9854 152.453C73.0461 152.388 73.0916 152.315 73.1219 152.233C73.1523 152.151 73.1674 152.068 73.1674 151.984C73.1674 151.875 73.1593 151.777 73.1429 151.69C73.1289 151.602 73.0869 151.526 73.0169 151.463C72.9469 151.4 72.8408 151.352 72.6984 151.319C72.5584 151.284 72.3624 151.267 72.1104 151.267V150.518C72.3228 150.518 72.4943 150.502 72.6249 150.469C72.7556 150.436 72.8559 150.392 72.9259 150.336C72.9983 150.278 73.0461 150.208 73.0694 150.126C73.0928 150.044 73.1044 149.954 73.1044 149.856C73.1044 149.656 73.0554 149.502 72.9574 149.394C72.8618 149.285 72.7148 149.23 72.5164 149.23C72.3554 149.23 72.2189 149.273 72.1069 149.359C71.9973 149.443 71.9214 149.548 71.8794 149.674C71.8304 149.803 71.7663 149.888 71.6869 149.93C71.6076 149.972 71.4944 149.981 71.3474 149.958L70.7734 149.856ZM83.8974 152.52C84.0141 152.52 84.1063 152.553 84.1739 152.618C84.2416 152.681 84.2754 152.765 84.2754 152.87V153.5H80.6914V153.15C80.6914 153.082 80.7054 153.01 80.7334 152.933C80.7614 152.856 80.8104 152.786 80.8804 152.723L82.3504 151.242C82.4764 151.116 82.5861 150.996 82.6794 150.882C82.7728 150.768 82.8498 150.656 82.9104 150.546C82.9711 150.434 83.0166 150.323 83.0469 150.213C83.0773 150.101 83.0924 149.984 83.0924 149.86C83.0924 149.657 83.0434 149.502 82.9454 149.394C82.8498 149.285 82.7028 149.23 82.5044 149.23C82.3434 149.23 82.2069 149.273 82.0949 149.359C81.9853 149.443 81.9094 149.548 81.8674 149.674C81.8184 149.803 81.7543 149.888 81.6749 149.93C81.5956 149.972 81.4824 149.981 81.3354 149.958L80.7614 149.856C80.7988 149.602 80.8699 149.38 80.9749 149.191C81.0823 149.002 81.2141 148.845 81.3704 148.719C81.5291 148.593 81.7099 148.5 81.9129 148.439C82.1159 148.376 82.3341 148.344 82.5674 148.344C82.8194 148.344 83.0458 148.382 83.2464 148.456C83.4494 148.529 83.6221 148.63 83.7644 148.761C83.9068 148.892 84.0153 149.048 84.0899 149.23C84.1669 149.41 84.2054 149.608 84.2054 149.825C84.2054 150.012 84.1786 150.184 84.1249 150.343C84.0736 150.502 84.0024 150.653 83.9114 150.798C83.8204 150.94 83.7143 151.079 83.5929 151.214C83.4739 151.347 83.3468 151.483 83.2114 151.62L82.2139 152.642C82.3423 152.603 82.4694 152.572 82.5954 152.551C82.7214 152.53 82.8381 152.52 82.9454 152.52H83.8974ZM94.176 152.716V153.5H91.271V152.716H92.251V150.143C92.251 150.078 92.2521 150.013 92.2545 149.947C92.2568 149.88 92.2603 149.812 92.265 149.744L91.684 150.227C91.6326 150.267 91.5813 150.292 91.53 150.301C91.481 150.308 91.4343 150.308 91.39 150.301C91.3456 150.292 91.306 150.276 91.271 150.255C91.236 150.232 91.2103 150.209 91.194 150.185L90.851 149.73L92.44 148.397H93.336V152.716H94.176Z" fill="black"/>
<path d="M78.7617 151L75.9492 153.143L75.9492 148.857L78.7617 151Z" fill="black"/>
<path d="M89.0742 151L86.2617 153.143L86.2617 148.857L89.0742 151Z" fill="black"/>
<rect x="35.5117" y="96" width="30" height="6" rx="1" fill="url(#paint4_linear)"/>
<rect x="35.5117" y="96" width="30" height="6" rx="1" stroke="url(#paint5_linear)"/>
<path d="M47.647 100.52C47.7637 100.52 47.8558 100.553 47.9235 100.618C47.9912 100.681 48.025 100.765 48.025 100.87V101.5H44.441V101.15C44.441 101.082 44.455 101.01 44.483 100.933C44.511 100.856 44.56 100.786 44.63 100.723L46.1 99.2425C46.226 99.1165 46.3357 98.9963 46.429 98.882C46.5223 98.7677 46.5993 98.6557 46.66 98.546C46.7207 98.434 46.7662 98.3232 46.7965 98.2135C46.8268 98.1015 46.842 97.9837 46.842 97.86C46.842 97.657 46.793 97.5018 46.695 97.3945C46.5993 97.2848 46.4523 97.23 46.254 97.23C46.093 97.23 45.9565 97.2732 45.8445 97.3595C45.7348 97.4435 45.659 97.5485 45.617 97.6745C45.568 97.8028 45.5038 97.888 45.4245 97.93C45.3452 97.972 45.232 97.9813 45.085 97.958L44.511 97.8565C44.5483 97.6022 44.6195 97.3805 44.7245 97.1915C44.8318 97.0025 44.9637 96.845 45.12 96.719C45.2787 96.593 45.4595 96.4997 45.6625 96.439C45.8655 96.376 46.0837 96.3445 46.317 96.3445C46.569 96.3445 46.7953 96.3818 46.996 96.4565C47.199 96.5288 47.3717 96.6303 47.514 96.761C47.6563 96.8917 47.7648 97.048 47.8395 97.23C47.9165 97.4097 47.955 97.608 47.955 97.825C47.955 98.0117 47.9282 98.1843 47.8745 98.343C47.8232 98.5017 47.752 98.6533 47.661 98.798C47.57 98.9403 47.4638 99.0792 47.3425 99.2145C47.2235 99.3475 47.0963 99.4828 46.961 99.6205L45.9635 100.642C46.0918 100.603 46.219 100.572 46.345 100.551C46.471 100.53 46.5877 100.52 46.695 100.52H47.647ZM56.4104 100.716V101.5H53.5054V100.716H54.4854V98.1435C54.4854 98.0782 54.4866 98.0128 54.4889 97.9475C54.4912 97.8798 54.4947 97.8122 54.4994 97.7445L53.9184 98.2275C53.8671 98.2672 53.8157 98.2917 53.7644 98.301C53.7154 98.308 53.6687 98.308 53.6244 98.301C53.5801 98.2917 53.5404 98.2765 53.5054 98.2555C53.4704 98.2322 53.4447 98.2088 53.4284 98.1855L53.0854 97.7305L54.6744 96.397H55.5704V100.716H56.4104Z" fill="black"/>
<path d="M52.3867 99.0003L49.5742 101.143L49.5742 96.8574L52.3867 99.0003Z" fill="black"/>
<rect x="3.5" y="44" width="30" height="6" rx="1" fill="url(#paint6_linear)"/>
<rect x="3.5" y="44" width="30" height="6" rx="1" stroke="url(#paint7_linear)"/>
<path d="M11.9319 44.4005V49.5H11.3159C11.2249 49.5 11.1479 49.486 11.0849 49.458C11.0242 49.4277 10.9635 49.3763 10.9029 49.304L8.49837 46.2625C8.5077 46.3535 8.51353 46.4422 8.51587 46.5285C8.52053 46.6125 8.52287 46.6918 8.52287 46.7665V49.5H7.47987V44.4005H8.10287C8.1542 44.4005 8.19737 44.4028 8.23237 44.4075C8.26737 44.4122 8.29887 44.4215 8.32687 44.4355C8.35487 44.4472 8.3817 44.4647 8.40737 44.488C8.43303 44.5113 8.4622 44.5428 8.49487 44.5825L10.9204 47.645C10.9087 47.547 10.9005 47.4525 10.8959 47.3615C10.8912 47.2682 10.8889 47.1807 10.8889 47.099V44.4005H11.9319ZM17.8213 46.9485C17.8213 47.3172 17.7571 47.6602 17.6288 47.9775C17.5028 48.2948 17.3243 48.5713 17.0933 48.807C16.8623 49.0403 16.5834 49.2235 16.2568 49.3565C15.9324 49.4895 15.5719 49.556 15.1753 49.556C14.7786 49.556 14.4169 49.4895 14.0903 49.3565C13.7636 49.2235 13.4836 49.0403 13.2503 48.807C13.0193 48.5713 12.8396 48.2948 12.7113 47.9775C12.5853 47.6602 12.5223 47.3172 12.5223 46.9485C12.5223 46.5798 12.5853 46.2368 12.7113 45.9195C12.8396 45.6022 13.0193 45.3268 13.2503 45.0935C13.4836 44.8602 13.7636 44.677 14.0903 44.544C14.4169 44.411 14.7786 44.3445 15.1753 44.3445C15.5719 44.3445 15.9324 44.4122 16.2568 44.5475C16.5834 44.6805 16.8623 44.8637 17.0933 45.097C17.3243 45.3303 17.5028 45.6057 17.6288 45.923C17.7571 46.2403 17.8213 46.5822 17.8213 46.9485ZM16.6103 46.9485C16.6103 46.6965 16.5776 46.4702 16.5123 46.2695C16.4469 46.0665 16.3524 45.895 16.2288 45.755C16.1074 45.615 15.9581 45.5077 15.7808 45.433C15.6034 45.3583 15.4016 45.321 15.1753 45.321C14.9466 45.321 14.7424 45.3583 14.5628 45.433C14.3854 45.5077 14.2349 45.615 14.1113 45.755C13.9899 45.895 13.8966 46.0665 13.8313 46.2695C13.7659 46.4702 13.7333 46.6965 13.7333 46.9485C13.7333 47.2028 13.7659 47.4315 13.8313 47.6345C13.8966 47.8352 13.9899 48.0055 14.1113 48.1455C14.2349 48.2855 14.3854 48.3928 14.5628 48.4675C14.7424 48.5398 14.9466 48.576 15.1753 48.576C15.4016 48.576 15.6034 48.5398 15.7808 48.4675C15.9581 48.3928 16.1074 48.2855 16.2288 48.1455C16.3524 48.0055 16.4469 47.8352 16.5123 47.6345C16.5776 47.4315 16.6103 47.2028 16.6103 46.9485ZM21.1176 45.3105V46.602H22.8606V47.5155H21.1176V49.5H19.9276V44.4005H23.2106V45.3105H21.1176ZM29.5204 44.4005V49.5H28.4774V46.567C28.4774 46.4993 28.4786 46.4258 28.4809 46.3465C28.4856 46.2672 28.4926 46.1867 28.5019 46.105L27.1474 48.7265C27.1054 48.8082 27.0482 48.87 26.9759 48.912C26.9059 48.954 26.8254 48.975 26.7344 48.975H26.5734C26.4824 48.975 26.4007 48.954 26.3284 48.912C26.2584 48.87 26.2024 48.8082 26.1604 48.7265L24.8059 46.098C24.8129 46.182 24.8187 46.2648 24.8234 46.3465C24.8281 46.4258 24.8304 46.4993 24.8304 46.567V49.5H23.7874V44.4005H24.6904C24.7417 44.4005 24.7861 44.4017 24.8234 44.404C24.8631 44.4063 24.8981 44.4133 24.9284 44.425C24.9587 44.4367 24.9856 44.4553 25.0089 44.481C25.0346 44.5043 25.0591 44.5382 25.0824 44.5825L26.3949 47.169C26.4416 47.2577 26.4859 47.3498 26.5279 47.4455C26.5722 47.5412 26.6142 47.6392 26.6539 47.7395C26.6936 47.6368 26.7344 47.5365 26.7764 47.4385C26.8207 47.3405 26.8674 47.2472 26.9164 47.1585L28.2254 44.5825C28.2487 44.5382 28.2721 44.5043 28.2954 44.481C28.3211 44.4553 28.3491 44.4367 28.3794 44.425C28.4097 44.4133 28.4436 44.4063 28.4809 44.404C28.5206 44.4017 28.5661 44.4005 28.6174 44.4005H29.5204Z" fill="black"/>
<defs>
<linearGradient id="paint0_linear" x1="114.512" y1="200" x2="114.512" y2="206" gradientUnits="userSpaceOnUse">
<stop stop-color="#FFEE58"/>
<stop offset="1" stop-color="#FFEE58" stop-opacity="0.35"/>
</linearGradient>
<linearGradient id="paint1_linear" x1="114.512" y1="200" x2="114.512" y2="206" gradientUnits="userSpaceOnUse">
<stop stop-color="#FFEE58"/>
<stop offset="1" stop-color="#FFEE58" stop-opacity="0.35"/>
</linearGradient>
<linearGradient id="paint2_linear" x1="82.5117" y1="148" x2="82.5117" y2="154" gradientUnits="userSpaceOnUse">
<stop stop-color="#FFEE58"/>
<stop offset="1" stop-color="#FFEE58" stop-opacity="0.35"/>
</linearGradient>
<linearGradient id="paint3_linear" x1="82.5117" y1="148" x2="82.5117" y2="154" gradientUnits="userSpaceOnUse">
<stop stop-color="#FFEE58"/>
<stop offset="1" stop-color="#FFEE58" stop-opacity="0.35"/>
</linearGradient>
<linearGradient id="paint4_linear" x1="50.5117" y1="96" x2="50.5117" y2="102" gradientUnits="userSpaceOnUse">
<stop stop-color="#FFEE58"/>
<stop offset="1" stop-color="#FFEE58" stop-opacity="0.35"/>
</linearGradient>
<linearGradient id="paint5_linear" x1="50.5117" y1="96" x2="50.5117" y2="102" gradientUnits="userSpaceOnUse">
<stop stop-color="#FFEE58"/>
<stop offset="1" stop-color="#FFEE58" stop-opacity="0.35"/>
</linearGradient>
<linearGradient id="paint6_linear" x1="18.5" y1="44" x2="18.5" y2="50" gradientUnits="userSpaceOnUse">
<stop stop-color="#FFEE58"/>
<stop offset="1" stop-color="#FFEE58" stop-opacity="0.35"/>
</linearGradient>
<linearGradient id="paint7_linear" x1="18.5" y1="44" x2="18.5" y2="50" gradientUnits="userSpaceOnUse">
<stop stop-color="#FFEE58"/>
<stop offset="1" stop-color="#FFEE58" stop-opacity="0.35"/>
</linearGradient>
</defs>
</svg>
