<svg width="20" height="160" viewBox="0 0 20 160" fill="none" xmlns="http://www.w3.org/2000/svg">
<path opacity="0.75" d="M6 0H0V16H6V0Z" fill="url(#paint0_linear)"/>
<path opacity="0.75" d="M13 16H7V32H13V16Z" fill="url(#paint1_linear)"/>
<path opacity="0.75" d="M20 32H14V48H20V32Z" fill="url(#paint2_linear)"/>
<path opacity="0.75" d="M6 48H0V64H6V48Z" fill="url(#paint3_linear)"/>
<path opacity="0.75" d="M13 64H7V80H13V64Z" fill="url(#paint4_linear)"/>
<path opacity="0.75" d="M20 80H14V96H20V80Z" fill="url(#paint5_linear)"/>
<path opacity="0.75" d="M6 96H0V112H6V96Z" fill="url(#paint6_linear)"/>
<path opacity="0.75" d="M13 112H7V128H13V112Z" fill="url(#paint7_linear)"/>
<path opacity="0.75" d="M20 128H14V144H20V128Z" fill="url(#paint8_linear)"/>
<defs>
<linearGradient id="paint0_linear" x1="3" y1="0" x2="3" y2="16" gradientUnits="userSpaceOnUse">
<stop stop-color="#FFEE58"/>
<stop offset="1" stop-color="#FFEE58" stop-opacity="0.35"/>
</linearGradient>
<linearGradient id="paint1_linear" x1="10" y1="16" x2="10" y2="32" gradientUnits="userSpaceOnUse">
<stop stop-color="#FFEE58"/>
<stop offset="1" stop-color="#FFEE58" stop-opacity="0.35"/>
</linearGradient>
<linearGradient id="paint2_linear" x1="17" y1="32" x2="17" y2="48" gradientUnits="userSpaceOnUse">
<stop stop-color="#FFEE58"/>
<stop offset="1" stop-color="#FFEE58" stop-opacity="0.35"/>
</linearGradient>
<linearGradient id="paint3_linear" x1="3" y1="48" x2="3" y2="64" gradientUnits="userSpaceOnUse">
<stop stop-color="#FFEE58"/>
<stop offset="1" stop-color="#FFEE58" stop-opacity="0.35"/>
</linearGradient>
<linearGradient id="paint4_linear" x1="10" y1="64" x2="10" y2="80" gradientUnits="userSpaceOnUse">
<stop stop-color="#FFEE58"/>
<stop offset="1" stop-color="#FFEE58" stop-opacity="0.35"/>
</linearGradient>
<linearGradient id="paint5_linear" x1="17" y1="80" x2="17" y2="96" gradientUnits="userSpaceOnUse">
<stop stop-color="#FFEE58"/>
<stop offset="1" stop-color="#FFEE58" stop-opacity="0.35"/>
</linearGradient>
<linearGradient id="paint6_linear" x1="3" y1="96" x2="3" y2="112" gradientUnits="userSpaceOnUse">
<stop stop-color="#FFEE58"/>
<stop offset="1" stop-color="#FFEE58" stop-opacity="0.35"/>
</linearGradient>
<linearGradient id="paint7_linear" x1="10" y1="112" x2="10" y2="128" gradientUnits="userSpaceOnUse">
<stop stop-color="#FFEE58"/>
<stop offset="1" stop-color="#FFEE58" stop-opacity="0.35"/>
</linearGradient>
<linearGradient id="paint8_linear" x1="17" y1="128" x2="17" y2="144" gradientUnits="userSpaceOnUse">
<stop stop-color="#FFEE58"/>
<stop offset="1" stop-color="#FFEE58" stop-opacity="0.35"/>
</linearGradient>
</defs>
</svg>
