<svg width="139" height="57" fill="none" xmlns="http://www.w3.org/2000/svg"><path fill-rule="evenodd" clip-rule="evenodd" d="m35 4 3 2-3 2V6.5h-1v-1h1V4ZM58 4l3 2-3 2V6.5h-1v-1h1V4ZM81 4l3 2-3 2V6.5h-1v-1h1V4ZM35 49l3 2-3 2v-1.5h-1v-1h1V49ZM58 49l3 2-3 2v-1.5h-1v-1h1V49ZM81 49l3 2-3 2v-1.5h-1v-1h1V49ZM26.5 20l-2 3-2-3H24v-1h1v1h1.5ZM49.5 20l-2 3-2-3H47v-1h1v1h1.5ZM72.5 20l-2 3-2-3H70v-1h1v1h1.5ZM95.5 20l-2 3-2-3H93v-1h1v1h1.5ZM22.5 37l2-3 2 3H25v1h-1v-1h-1.5ZM45.5 37l2-3 2 3H48v1h-1v-1h-1.5ZM68.5 37l2-3 2 3H71v1h-1v-1h-1.5ZM91.5 37l2-3 2 3H94v1h-1v-1h-1.5ZM112.5 21.5l-2 3-2-3h1.5v-1h1v1h1.5ZM108.5 35.5l2-3 2 3H111v1h-1v-1h-1.5ZM104 26.5l3 2-3 2V29h-1v-1h1v-1.5ZM117.75 3.5l2.25 2-2.25 2V6H117V5h.75V3.5ZM131.5 12l-2 3-2-3h1.5v-1h1v1h1.5ZM131.5 27l-2 3-2-3h1.5v-1h1v1h1.5ZM131.5 42l-2 3-2-3h1.5v-1h1v1h1.5Z" fill="#9099FF"/><path d="M35.5 28h-1v1h1v-1ZM37.5 28h-1v1h1v-1ZM58.5 28h-1v1h1v-1ZM60.5 28h-1v1h1v-1ZM81.5 28h-1v1h1v-1ZM83.5 28h-1v1h1v-1Z" fill="#9099FF"/><path d="M110.5 5v15.5m-86.5-4h.5-.5Zm.5 0V19v-2.5Zm0 0h23-23Zm23 0V19v-2.5Zm0 0h23-23Zm23 0V19v-2.5Zm0 0h23-23Zm23 0h17-17Zm0 0V19v-2.5Zm9.5-11h7.5-7.5ZM103 51h7.5V35.5m-86.5 4h.5-.5Zm.5 0V37v2.5Zm0 0h23-23Zm23 0V37v2.5Zm0 0h23-23Zm23 0V37v2.5Zm0 0h23-23Zm23 0h17-17Zm0 0V37v2.5ZM119 5.5h-2.5v23h-2M13 6h2M13 51h2M110.5 32a3.5 3.5 0 1 0 0-7 3.5 3.5 0 0 0 0 7Z" stroke="#9099FF"/><path fill-rule="evenodd" clip-rule="evenodd" d="M109.965 26h1.071v1.966l1.964-.002v1.072l-1.964.001V31h-1.071v-1.962l-1.964.001-.001-1.071 1.965-.002V26Z" fill="#9099FF"/></svg>