<svg width="48" height="282" fill="none" xmlns="http://www.w3.org/2000/svg"><g opacity=".1"><path d="M5 273.5v1h2v-1H5ZM10 273.5v1h2v-1h-2ZM5 234.5v1h2v-1H5ZM10 234.5v1h2v-1h-2Z" fill="#EEE"/><path fill-rule="evenodd" clip-rule="evenodd" d="M8.5 230.5a.5.5 0 0 1 .5.5v47a.5.5 0 0 1-1 0v-47a.5.5 0 0 1 .5-.5Z" fill="#EEE"/><path clip-rule="evenodd" d="M8.5 230a1 1 0 0 1 1 1v47a1 1 0 0 1-2 0v-47a1 1 0 0 1 1-1Z" stroke="#EEE"/></g><path d="M4.5 273v1h2v-1h-2ZM9.5 273v1h2v-1h-2ZM4.5 234v1h2v-1h-2ZM9.5 234v1h2v-1h-2Z" fill="#000"/><path fill-rule="evenodd" clip-rule="evenodd" d="M8 230a.5.5 0 0 1 .5.5v47a.5.5 0 0 1-1 0v-47a.5.5 0 0 1 .5-.5Z" fill="#1F1F1F"/><path clip-rule="evenodd" d="M8 229.5a1 1 0 0 1 1 1v47a1 1 0 0 1-2 0v-47a1 1 0 0 1 1-1Z" stroke="#000"/><g opacity=".1"><path d="M21 273.5v1h2v-1h-2ZM26 273.5v1h2v-1h-2ZM21 234.5v1h2v-1h-2ZM26 234.5v1h2v-1h-2Z" fill="#EEE"/><path fill-rule="evenodd" clip-rule="evenodd" d="M24.5 230.5a.5.5 0 0 1 .5.5v47a.5.5 0 0 1-1 0v-47a.5.5 0 0 1 .5-.5Z" fill="#EEE"/><path clip-rule="evenodd" d="M24.5 230a1 1 0 0 1 1 1v47a1 1 0 0 1-2 0v-47a1 1 0 0 1 1-1Z" stroke="#EEE"/></g><path d="M20.5 273v1h2v-1h-2ZM25.5 273v1h2v-1h-2ZM20.5 234v1h2v-1h-2ZM25.5 234v1h2v-1h-2Z" fill="#000"/><path fill-rule="evenodd" clip-rule="evenodd" d="M24 230a.5.5 0 0 1 .5.5v47a.5.5 0 0 1-1 0v-47a.5.5 0 0 1 .5-.5Z" fill="#737373"/><path clip-rule="evenodd" d="M24 229.5a1 1 0 0 1 1 1v47a1 1 0 0 1-2 0v-47a1 1 0 0 1 1-1Z" stroke="#000"/><g opacity=".1"><path d="M37 273.5v1h2v-1h-2ZM42 273.5v1h2v-1h-2ZM37 234.5v1h2v-1h-2ZM42 234.5v1h2v-1h-2Z" fill="#EEE"/><path fill-rule="evenodd" clip-rule="evenodd" d="M40.5 230.5a.5.5 0 0 1 .5.5v47a.5.5 0 0 1-1 0v-47a.5.5 0 0 1 .5-.5Z" fill="#EEE"/><path clip-rule="evenodd" d="M40.5 230a1 1 0 0 1 1 1v47a1 1 0 0 1-2 0v-47a1 1 0 0 1 1-1Z" stroke="#EEE"/></g><path d="M36.5 273v1h2v-1h-2ZM41.5 273v1h2v-1h-2ZM36.5 234v1h2v-1h-2ZM41.5 234v1h2v-1h-2Z" fill="#000"/><path fill-rule="evenodd" clip-rule="evenodd" d="M40 230a.5.5 0 0 1 .5.5v47a.5.5 0 0 1-1 0v-47a.5.5 0 0 1 .5-.5Z" fill="url(#a)"/><path clip-rule="evenodd" d="M40 229.5a1 1 0 0 1 1 1v47a1 1 0 0 1-2 0v-47a1 1 0 0 1 1-1Z" stroke="#000"/><path clip-rule="evenodd" d="M40 229.5a2 2 0 0 1 2 2v45a2 2 0 1 1-4 0v-45a2 2 0 0 1 2-2Z" stroke="#001E3C" stroke-opacity=".5"/><g opacity=".1"><path d="M5 198.5v1h2v-1H5ZM10 198.5v1h2v-1h-2ZM5 159.5v1h2v-1H5ZM10 159.5v1h2v-1h-2Z" fill="#EEE"/><path fill-rule="evenodd" clip-rule="evenodd" d="M8.5 155.5a.5.5 0 0 1 .5.5v47a.5.5 0 0 1-1 0v-47a.5.5 0 0 1 .5-.5Z" fill="#EEE"/><path clip-rule="evenodd" d="M8.5 155a1 1 0 0 1 1 1v47a1 1 0 0 1-2 0v-47a1 1 0 0 1 1-1Z" stroke="#EEE"/></g><path d="M4.5 198v1h2v-1h-2ZM9.5 198v1h2v-1h-2ZM4.5 159v1h2v-1h-2ZM9.5 159v1h2v-1h-2Z" fill="#000"/><path fill-rule="evenodd" clip-rule="evenodd" d="M8 155a.5.5 0 0 1 .5.5v47a.5.5 0 0 1-1 0v-47a.5.5 0 0 1 .5-.5Z" fill="#1F1F1F"/><path clip-rule="evenodd" d="M8 154.5a1 1 0 0 1 1 1v47a1 1 0 0 1-2 0v-47a1 1 0 0 1 1-1Z" stroke="#000"/><g opacity=".1"><path d="M21 198.5v1h2v-1h-2ZM26 198.5v1h2v-1h-2ZM21 159.5v1h2v-1h-2ZM26 159.5v1h2v-1h-2Z" fill="#EEE"/><path fill-rule="evenodd" clip-rule="evenodd" d="M24.5 155.5a.5.5 0 0 1 .5.5v47a.5.5 0 0 1-1 0v-47a.5.5 0 0 1 .5-.5Z" fill="#EEE"/><path clip-rule="evenodd" d="M24.5 155a1 1 0 0 1 1 1v47a1 1 0 0 1-2 0v-47a1 1 0 0 1 1-1Z" stroke="#EEE"/></g><path d="M20.5 198v1h2v-1h-2ZM25.5 198v1h2v-1h-2ZM20.5 159v1h2v-1h-2ZM25.5 159v1h2v-1h-2Z" fill="#000"/><path fill-rule="evenodd" clip-rule="evenodd" d="M24 155a.5.5 0 0 1 .5.5v47a.5.5 0 0 1-1 0v-47a.5.5 0 0 1 .5-.5Z" fill="#737373"/><path clip-rule="evenodd" d="M24 154.5a1 1 0 0 1 1 1v47a1 1 0 0 1-2 0v-47a1 1 0 0 1 1-1Z" stroke="#000"/><g opacity=".1"><path d="M37 198.5v1h2v-1h-2ZM42 198.5v1h2v-1h-2ZM37 159.5v1h2v-1h-2ZM42 159.5v1h2v-1h-2Z" fill="#EEE"/><path fill-rule="evenodd" clip-rule="evenodd" d="M40.5 155.5a.5.5 0 0 1 .5.5v47a.5.5 0 0 1-1 0v-47a.5.5 0 0 1 .5-.5Z" fill="#EEE"/><path clip-rule="evenodd" d="M40.5 155a1 1 0 0 1 1 1v47a1 1 0 0 1-2 0v-47a1 1 0 0 1 1-1Z" stroke="#EEE"/></g><path d="M36.5 198v1h2v-1h-2ZM41.5 198v1h2v-1h-2ZM36.5 159v1h2v-1h-2ZM41.5 159v1h2v-1h-2Z" fill="#000"/><path fill-rule="evenodd" clip-rule="evenodd" d="M40 155a.5.5 0 0 1 .5.5v47a.5.5 0 0 1-1 0v-47a.5.5 0 0 1 .5-.5Z" fill="url(#b)"/><path clip-rule="evenodd" d="M40 154.5a1 1 0 0 1 1 1v47a1 1 0 0 1-2 0v-47a1 1 0 0 1 1-1Z" stroke="#000"/><path clip-rule="evenodd" d="M40 154.5a2 2 0 0 1 2 2v45a2 2 0 1 1-4 0v-45a2 2 0 0 1 2-2Z" stroke="#001E3C" stroke-opacity=".5"/><g opacity=".1"><path d="M5 65.5v1h2v-1H5ZM10 65.5v1h2v-1h-2ZM5 9.5v1h2v-1H5ZM10 9.5v1h2v-1h-2Z" fill="#EEE"/><path fill-rule="evenodd" clip-rule="evenodd" d="M8.5 5.5A.5.5 0 0 1 9 6v64a.5.5 0 0 1-1 0V6a.5.5 0 0 1 .5-.5Z" fill="#EEE"/><path clip-rule="evenodd" d="M8.5 5a1 1 0 0 1 1 1v64a1 1 0 1 1-2 0V6a1 1 0 0 1 1-1Z" stroke="#EEE"/></g><path d="M4.5 65v1h2v-1h-2ZM9.5 65v1h2v-1h-2ZM4.5 9v1h2V9h-2ZM9.5 9v1h2V9h-2Z" fill="#000"/><path fill-rule="evenodd" clip-rule="evenodd" d="M8 5a.5.5 0 0 1 .5.5v64a.5.5 0 0 1-1 0v-64A.5.5 0 0 1 8 5Z" fill="#1F1F1F"/><path clip-rule="evenodd" d="M8 4.5a1 1 0 0 1 1 1v64a1 1 0 1 1-2 0v-64a1 1 0 0 1 1-1Z" stroke="#000"/><g opacity=".1"><path d="M21 65.5v1h2v-1h-2ZM26 65.5v1h2v-1h-2ZM21 9.5v1h2v-1h-2ZM26 9.5v1h2v-1h-2Z" fill="#EEE"/><path fill-rule="evenodd" clip-rule="evenodd" d="M24.5 5.5a.5.5 0 0 1 .5.5v64a.5.5 0 0 1-1 0V6a.5.5 0 0 1 .5-.5Z" fill="#EEE"/><path clip-rule="evenodd" d="M24.5 5a1 1 0 0 1 1 1v64a1 1 0 1 1-2 0V6a1 1 0 0 1 1-1Z" stroke="#EEE"/></g><path d="M20.5 65v1h2v-1h-2ZM25.5 65v1h2v-1h-2ZM20.5 9v1h2V9h-2ZM25.5 9v1h2V9h-2Z" fill="#000"/><path fill-rule="evenodd" clip-rule="evenodd" d="M24 5a.5.5 0 0 1 .5.5v64a.5.5 0 0 1-1 0v-64A.5.5 0 0 1 24 5Z" fill="#737373"/><path clip-rule="evenodd" d="M24 4.5a1 1 0 0 1 1 1v64a1 1 0 1 1-2 0v-64a1 1 0 0 1 1-1Z" stroke="#000"/><g opacity=".1"><path d="M37 65.5v1h2v-1h-2ZM42 65.5v1h2v-1h-2ZM37 9.5v1h2v-1h-2ZM42 9.5v1h2v-1h-2Z" fill="#EEE"/><path fill-rule="evenodd" clip-rule="evenodd" d="M40.5 5.5a.5.5 0 0 1 .5.5v64a.5.5 0 0 1-1 0V6a.5.5 0 0 1 .5-.5Z" fill="#EEE"/><path clip-rule="evenodd" d="M40.5 5a1 1 0 0 1 1 1v64a1 1 0 1 1-2 0V6a1 1 0 0 1 1-1Z" stroke="#EEE"/></g><path d="M36.5 65v1h2v-1h-2ZM41.5 65v1h2v-1h-2ZM36.5 9v1h2V9h-2ZM41.5 9v1h2V9h-2Z" fill="#000"/><path fill-rule="evenodd" clip-rule="evenodd" d="M40 5a.5.5 0 0 1 .5.5v64a.5.5 0 0 1-1 0v-64A.5.5 0 0 1 40 5Z" fill="url(#c)"/><path clip-rule="evenodd" d="M40 4.5a1 1 0 0 1 1 1v64a1 1 0 1 1-2 0v-64a1 1 0 0 1 1-1Z" stroke="#000"/><path clip-rule="evenodd" d="M40 4.5a2 2 0 0 1 2 2v62a2 2 0 1 1-4 0v-62a2 2 0 0 1 2-2Z" stroke="#001E3C" stroke-opacity=".5"/><g opacity=".1"><path d="M5 140.5v1h2v-1H5ZM10 140.5v1h2v-1h-2ZM5 84.5v1h2v-1H5ZM10 84.5v1h2v-1h-2Z" fill="#EEE"/><path fill-rule="evenodd" clip-rule="evenodd" d="M8.5 80.5a.5.5 0 0 1 .5.5v64a.5.5 0 0 1-1 0V81a.5.5 0 0 1 .5-.5Z" fill="#EEE"/><path clip-rule="evenodd" d="M8.5 80a1 1 0 0 1 1 1v64a1 1 0 0 1-2 0V81a1 1 0 0 1 1-1Z" stroke="#EEE"/></g><g opacity=".1" fill="#EEE"><path d="M5.5 113.5v-1H7v1H5.5ZM10 113.5v-1h1.5v1H10ZM3 85.5v-1h2v1H3ZM12 85.5v-1h2v1h-2ZM3 141.5v-1h2v1H3ZM12 141.5v-1h2v1h-2Z"/></g><path d="M5 113v-1h1.5v1H5ZM9.5 113v-1H11v1H9.5ZM2.5 85v-1h2v1h-2ZM11.5 85v-1h2v1h-2ZM2.5 141v-1h2v1h-2ZM11.5 141v-1h2v1h-2ZM4.5 140v1h2v-1h-2ZM9.5 140v1h2v-1h-2ZM4.5 84v1h2v-1h-2ZM9.5 84v1h2v-1h-2Z" fill="#000"/><path fill-rule="evenodd" clip-rule="evenodd" d="M8 80a.5.5 0 0 1 .5.5v64a.5.5 0 0 1-1 0v-64A.5.5 0 0 1 8 80Z" fill="#1F1F1F"/><path clip-rule="evenodd" d="M8 79.5a1 1 0 0 1 1 1v64a1 1 0 0 1-2 0v-64a1 1 0 0 1 1-1Z" stroke="#000"/><g opacity=".1"><path d="M21 140.5v1h2v-1h-2ZM26 140.5v1h2v-1h-2ZM21 84.5v1h2v-1h-2ZM26 84.5v1h2v-1h-2Z" fill="#EEE"/><path fill-rule="evenodd" clip-rule="evenodd" d="M24.5 80.5a.5.5 0 0 1 .5.5v64a.5.5 0 0 1-1 0V81a.5.5 0 0 1 .5-.5Z" fill="#EEE"/><path clip-rule="evenodd" d="M24.5 80a1 1 0 0 1 1 1v64a1 1 0 0 1-2 0V81a1 1 0 0 1 1-1Z" stroke="#EEE"/></g><g opacity=".1" fill="#EEE"><path d="M21.5 113.5v-1H23v1h-1.5ZM26 113.5v-1h1.5v1H26ZM19 85.5v-1h2v1h-2ZM28 85.5v-1h2v1h-2ZM19 141.5v-1h2v1h-2ZM28 141.5v-1h2v1h-2Z"/></g><path d="M21 113v-1h1.5v1H21ZM25.5 113v-1H27v1h-1.5ZM18.5 85v-1h2v1h-2ZM27.5 85v-1h2v1h-2ZM18.5 141v-1h2v1h-2ZM27.5 141v-1h2v1h-2ZM20.5 140v1h2v-1h-2ZM25.5 140v1h2v-1h-2ZM20.5 84v1h2v-1h-2ZM25.5 84v1h2v-1h-2Z" fill="#000"/><path fill-rule="evenodd" clip-rule="evenodd" d="M24 80a.5.5 0 0 1 .5.5v64a.5.5 0 0 1-1 0v-64a.5.5 0 0 1 .5-.5Z" fill="#737373"/><path clip-rule="evenodd" d="M24 79.5a1 1 0 0 1 1 1v64a1 1 0 0 1-2 0v-64a1 1 0 0 1 1-1Z" stroke="#000"/><g opacity=".1"><path d="M37 140.5v1h2v-1h-2ZM42 140.5v1h2v-1h-2ZM37 84.5v1h2v-1h-2ZM42 84.5v1h2v-1h-2Z" fill="#EEE"/><path fill-rule="evenodd" clip-rule="evenodd" d="M40.5 80.5a.5.5 0 0 1 .5.5v64a.5.5 0 0 1-1 0V81a.5.5 0 0 1 .5-.5Z" fill="#EEE"/><path clip-rule="evenodd" d="M40.5 80a1 1 0 0 1 1 1v64a1 1 0 0 1-2 0V81a1 1 0 0 1 1-1Z" stroke="#EEE"/></g><g opacity=".1" fill="#EEE"><path d="M37.5 113.5v-1H39v1h-1.5ZM42 113.5v-1h1.5v1H42ZM35 85.5v-1h2v1h-2ZM44 85.5v-1h2v1h-2ZM35 141.5v-1h2v1h-2ZM44 141.5v-1h2v1h-2Z"/></g><path d="M37 113v-1h1.5v1H37ZM41.5 113v-1H43v1h-1.5ZM34.5 85v-1h2v1h-2ZM43.5 85v-1h2v1h-2ZM34.5 141v-1h2v1h-2ZM43.5 141v-1h2v1h-2ZM36.5 140v1h2v-1h-2ZM41.5 140v1h2v-1h-2ZM36.5 84v1h2v-1h-2ZM41.5 84v1h2v-1h-2Z" fill="#000"/><path fill-rule="evenodd" clip-rule="evenodd" d="M40 80a.5.5 0 0 1 .5.5v64a.5.5 0 0 1-1 0v-64a.5.5 0 0 1 .5-.5Z" fill="url(#d)"/><path clip-rule="evenodd" d="M40 79.5a1 1 0 0 1 1 1v64a1 1 0 0 1-2 0v-64a1 1 0 0 1 1-1Z" stroke="#000"/><path clip-rule="evenodd" d="M40 79.5a2 2 0 0 1 2 2v62a2 2 0 1 1-4 0v-62a2 2 0 0 1 2-2Z" stroke="#001E3C" stroke-opacity=".5"/><defs><linearGradient id="a" x1="39.5" y1="254" x2="40.5" y2="254" gradientUnits="userSpaceOnUse"><stop stop-color="#FF99D2"/><stop offset="1" stop-color="#BF287C"/></linearGradient><linearGradient id="b" x1="39.5" y1="179" x2="40.5" y2="179" gradientUnits="userSpaceOnUse"><stop stop-color="#FF99D2"/><stop offset="1" stop-color="#BF287C"/></linearGradient><linearGradient id="c" x1="39.5" y1="37.5" x2="40.5" y2="37.5" gradientUnits="userSpaceOnUse"><stop stop-color="#FF99D2"/><stop offset="1" stop-color="#BF287C"/></linearGradient><linearGradient id="d" x1="39.5" y1="112.5" x2="40.5" y2="112.5" gradientUnits="userSpaceOnUse"><stop stop-color="#FF99D2"/><stop offset="1" stop-color="#BF287C"/></linearGradient></defs></svg>