<svg width="51" height="760" fill="none" xmlns="http://www.w3.org/2000/svg"><path d="M23 2H3a1 1 0 0 0-1 1v10a1 1 0 0 0 1 1h20a1 1 0 0 0 1-1V3a1 1 0 0 0-1-1Z" fill="#7432FF"/><path d="M23 2H3a1 1 0 0 0-1 1v10a1 1 0 0 0 1 1h20a1 1 0 0 0 1-1V3a1 1 0 0 0-1-1Z" stroke="#fff"/><path d="M21.3 8.001c-.551 4.486-4.5 4.016-4.5 4.016M4.7 8.015c.55-4.485 4.3-4 4.3-4l-4.3 4Zm8.3.016c-.551-4.486-4.5-4.016-4.5-4.016L13 8.031ZM13 8c.55 4.486 4.395 4.027 4.5 4.015L13 8Z" stroke="#fff" stroke-linecap="round"/><path d="M48 78H28a1 1 0 0 0-1 1v10a1 1 0 0 0 1 1h20a1 1 0 0 0 1-1V79a1 1 0 0 0-1-1Z" fill="#7432FF"/><path d="M48 78H28a1 1 0 0 0-1 1v10a1 1 0 0 0 1 1h20a1 1 0 0 0 1-1V79a1 1 0 0 0-1-1Z" stroke="#fff"/><path d="m46.55 84.016-4 4-8-8-4.3 4" stroke="#fff" stroke-linecap="round"/><path d="M23 169H3a1 1 0 0 0-1 1v10a1 1 0 0 0 1 1h20a1 1 0 0 0 1-1v-10a1 1 0 0 0-1-1Z" fill="#7432FF"/><path d="M23 169H3a1 1 0 0 0-1 1v10a1 1 0 0 0 1 1h20a1 1 0 0 0 1-1v-10a1 1 0 0 0-1-1Z" stroke="#fff"/><path d="M5 178.534v-7h8v7h8v-7" stroke="#fff" stroke-linecap="round" stroke-linejoin="round"/><path d="M48 245H28a1 1 0 0 0-1 1v10a1 1 0 0 0 1 1h20a1 1 0 0 0 1-1v-10a1 1 0 0 0-1-1Z" fill="#7432FF"/><path d="M48 245H28a1 1 0 0 0-1 1v10a1 1 0 0 0 1 1h20a1 1 0 0 0 1-1v-10a1 1 0 0 0-1-1Z" stroke="#fff"/><path d="m38.4 247.016 8 8-8-8Zm-8 8v-8 8Zm8-8v8-8Zm-8 0 8 8-8-8Z" stroke="#fff" stroke-linecap="round" stroke-linejoin="round"/><path d="M23 336H3a1 1 0 0 0-1 1v10a1 1 0 0 0 1 1h20a1 1 0 0 0 1-1v-10a1 1 0 0 0-1-1Z" fill="#7432FF"/><path d="M23 336H3a1 1 0 0 0-1 1v10a1 1 0 0 0 1 1h20a1 1 0 0 0 1-1v-10a1 1 0 0 0-1-1Z" stroke="#fff"/><path d="M4 341.109c.043-1.022.745-4.579 1-4 .255.58.4 5.934.9 6.934s.63-3.502 1.1-2.934c.47.569.312 5.727.779 5.208.467-.519.666-6.406 1.221-7.208.555-.802.465 4.267 1 4 .535-.266.64-5.565 1.14-5.065.5.5.395 6.049.86 7.065.465 1.017.506-3.277 1-3 .494.278.517 4.737 1 4 .483-.736.431-6.194.931-6.944s.591 4.216 1.069 3.944c.478-.272.343-5.532.843-5.032.5.5.618 6.024 1.157 7.032.54 1.008.515-2.725 1-3 .485-.275.441 3.151.941 1.901.5-1.25.544-6.176 1.059-6.901.515-.725 1 4 1 4" stroke="#fff" stroke-width=".75"/><path d="M48 412H28a1 1 0 0 0-1 1v10a1 1 0 0 0 1 1h20a1 1 0 0 0 1-1v-10a1 1 0 0 0-1-1Z" fill="#7432FF"/><path d="M48 412H28a1 1 0 0 0-1 1v10a1 1 0 0 0 1 1h20a1 1 0 0 0 1-1v-10a1 1 0 0 0-1-1Z" stroke="#fff"/><path d="M39.4 421.016h2-2Zm-8-3v-4 4Zm8 3v-6 6Zm-6-7v3-3Zm10 2v1.5-1.5Zm-8 1v5-5Zm6 .5v3.5-3.5Zm4-1.5v4-4Zm-8-1v7-7Zm-6-1h2-2Zm2 3h2-2Zm2 5h2-2Zm2-7h2-2Zm4 2.5h2-2Zm2-1.5h2-2Zm-14 2h2-2Zm16 2h2-2Z" stroke="#fff" stroke-linecap="round" stroke-linejoin="round"/><path d="M23 503H3a1 1 0 0 0-1 1v10a1 1 0 0 0 1 1h20a1 1 0 0 0 1-1v-10a1 1 0 0 0-1-1Z" fill="#7432FF"/><path d="M23 503H3a1 1 0 0 0-1 1v10a1 1 0 0 0 1 1h20a1 1 0 0 0 1-1v-10a1 1 0 0 0-1-1Z" stroke="#fff"/><path d="m18 508.854 3 4-3-4Zm-13 4 3-8-3 8Zm13-4h-7 7Zm-10-4 3 4-3-4Z" stroke="#fff" stroke-linecap="round" stroke-linejoin="round"/><path d="M48 579H28a1 1 0 0 0-1 1v10a1 1 0 0 0 1 1h20a1 1 0 0 0 1-1v-10a1 1 0 0 0-1-1Z" fill="#7432FF"/><path d="M48 579H28a1 1 0 0 0-1 1v10a1 1 0 0 0 1 1h20a1 1 0 0 0 1-1v-10a1 1 0 0 0-1-1Z" stroke="#fff"/><path d="M30.5 589.516v-4h-1v4h1Zm10.5-7h-1v2h1v-2Zm4.2 3h-1v2h1v-2Zm-7.3-5v4h1v-4h-1Zm-2.1 2v2h1v-2h-1Zm11.5 3h-1v4h1v-4Zm-14.7 2v-2h-1v2h1Z" fill="#000" stroke="#fff"/><path d="M23 670H3a1 1 0 0 0-1 1v10a1 1 0 0 0 1 1h20a1 1 0 0 0 1-1v-10a1 1 0 0 0-1-1Z" fill="#7432FF"/><path d="M23 670H3a1 1 0 0 0-1 1v10a1 1 0 0 0 1 1h20a1 1 0 0 0 1-1v-10a1 1 0 0 0-1-1Z" stroke="#fff"/><path fill-rule="evenodd" clip-rule="evenodd" d="M11 672.5a.5.5 0 1 1 1 0 .5.5 0 0 1-1 0Zm.009.871c-.43.154-.774.449-1.079.852-.483.639-.834 1.508-1.216 2.463l-.015.037c-.364.91-.76 1.899-1.331 2.656-.486.643-1.116 1.141-1.969 1.309a1 1 0 1 1-.077-1.008c.511-.132.905-.449 1.248-.903.483-.639.834-1.508 1.216-2.463l.015-.037c.364-.91.76-1.9 1.331-2.657.364-.481.809-.882 1.368-1.123a1 1 0 1 1 1.886.468c.045.103.1.222.16.355.215.459.52 1.067.883 1.673.365.609.779 1.195 1.206 1.622.192.192.372.337.538.44a.984.984 0 0 1 .392-.053l.107-.198c.243-.437.6-1.023 1.058-1.611.675-.867 1.63-1.822 2.813-2.234a1 1 0 1 1 .233.98c-.858.332-1.627 1.059-2.256 1.868a11.685 11.685 0 0 0-1.12 1.755 1 1 0 1 1-1.884.258 4.317 4.317 0 0 1-.588-.498c-.51-.51-.972-1.174-1.357-1.815a19.644 19.644 0 0 1-1.042-2.007H11.5a.995.995 0 0 1-.491-.129ZM4.5 679.75a.5.5 0 1 0 0 1 .5.5 0 0 0 0-1Zm11-2.25a.5.5 0 1 0 0 1 .5.5 0 0 0 0-1Zm4.5-4.25a.5.5 0 1 1 1 0 .5.5 0 0 1-1 0Z" fill="#fff"/><path d="M48 746H28a1 1 0 0 0-1 1v10a1 1 0 0 0 1 1h20a1 1 0 0 0 1-1v-10a1 1 0 0 0-1-1Z" fill="#7432FF"/><path d="M48 746H28a1 1 0 0 0-1 1v10a1 1 0 0 0 1 1h20a1 1 0 0 0 1-1v-10a1 1 0 0 0-1-1Z" stroke="#fff"/><path d="m31.284 753.142.343-1.354h.413l.102-.343h-.425c.122-.494.282-.855.48-1.084.122-.142.24-.214.355-.214a.08.08 0 0 1 .057.021.07.07 0 0 1 .022.053.3.3 0 0 1-.048.111.307.307 0 0 0-.048.155c0 .069.025.127.076.176.05.049.115.073.193.073a.277.277 0 0 0 .211-.089.337.337 0 0 0 .085-.242.352.352 0 0 0-.127-.281c-.085-.072-.221-.108-.409-.108-.293 0-.559.086-.797.257-.238.172-.465.456-.68.853-.074.137-.144.225-.21.264-.067.039-.173.057-.32.055l-.096.343h.407l-.598 2.341c-.1.385-.167.622-.202.712a.852.852 0 0 1-.232.334.215.215 0 0 1-.149.055.06.06 0 0 1-.04-.014l-.016-.021c0-.009.015-.029.044-.06.03-.03.044-.076.044-.139a.226.226 0 0 0-.07-.17c-.047-.045-.114-.067-.202-.067a.362.362 0 0 0-.255.088.271.271 0 0 0-.097.208c0 .086.04.16.117.224.079.063.2.095.367.095.263 0 .497-.069.701-.207.204-.137.383-.35.535-.637.152-.287.309-.75.469-1.388Zm14.997-1.36.507-1.766h-.176l-.979.172-.032.118c.111-.006.194.01.25.049a.13.13 0 0 1 .058.112c0 .054-.022.155-.065.302l-.896 3.108c.36.189.7.284 1.022.284.434 0 .82-.182 1.16-.548.383-.414.575-.884.575-1.412 0-.221-.058-.415-.175-.584-.116-.169-.291-.254-.526-.254a.697.697 0 0 0-.336.084c-.104.055-.233.167-.387.335Zm-4.573.117h1.409v-1.406h.384v1.406h1.409v.387H43.5v1.395h-.383v-1.395h-1.41v-.387Zm-3.36-.495-.57 1.949-.058.237a.366.366 0 0 0-.008.064c0 .024.008.044.024.062.017.017.034.026.052.026.04 0 .097-.031.17-.094.029-.025.1-.115.21-.269l.103.053c-.139.254-.287.439-.444.555a.84.84 0 0 1-.508.174c-.111 0-.196-.029-.255-.086a.295.295 0 0 1-.088-.219c0-.076.031-.217.094-.424l.07-.238c-.226.389-.444.664-.653.827a.625.625 0 0 1-.387.14.411.411 0 0 1-.39-.221 1.033 1.033 0 0 1-.12-.5c0-.275.084-.591.252-.947.168-.357.389-.643.663-.86.224-.18.435-.27.632-.27.11 0 .198.032.264.095.066.064.115.18.146.348l.106-.361.694-.041Zm1.42-.041-1.022.176-.02.111c.075-.015.14-.023.193-.023.101 0 .185.044.252.132.105.137.251.553.439 1.248a6.71 6.71 0 0 1-.302.387.888.888 0 0 1-.222.19.33.33 0 0 1-.153.035.577.577 0 0 1-.21-.07.431.431 0 0 0-.18-.047.331.331 0 0 0-.342.343c0 .093.03.17.09.228.059.059.14.088.24.088a.63.63 0 0 0 .276-.061c.086-.041.194-.129.324-.263.13-.133.309-.346.538-.637.087.278.164.479.228.605a.708.708 0 0 0 .221.273.554.554 0 0 0 .312.083.641.641 0 0 0 .37-.132c.164-.113.331-.308.503-.586l-.105-.061c-.117.164-.204.266-.26.307a.224.224 0 0 1-.133.039c-.06 0-.12-.039-.178-.115-.1-.129-.233-.486-.399-1.072.149-.262.274-.433.375-.513a.376.376 0 0 1 .234-.088c.032 0 .088.012.169.034a.799.799 0 0 0 .215.034c.086 0 .158-.03.216-.09a.316.316 0 0 0 .086-.23.325.325 0 0 0-.086-.237.334.334 0 0 0-.248-.088.56.56 0 0 0-.271.069c-.085.046-.193.145-.324.297a7.305 7.305 0 0 0-.433.595 2.936 2.936 0 0 0-.393-.961Zm-4.274.068h-3.205v.381h3.205v-.381Zm1.916.53c0-.158-.025-.273-.073-.343a.167.167 0 0 0-.144-.073c-.06 0-.123.029-.188.088-.13.121-.272.367-.423.737-.151.37-.227.69-.227.959 0 .104.017.178.051.224.035.046.072.069.113.069.088 0 .177-.051.267-.152.129-.145.245-.322.348-.531.184-.367.276-.693.276-.978Zm8.502 2.033a.472.472 0 0 1-.25-.088l.4-1.377c.08-.279.153-.462.222-.548.101-.132.22-.199.357-.199.082 0 .154.036.217.109.063.072.094.177.094.316 0 .244-.041.489-.123.735a2.431 2.431 0 0 1-.306.63 1.256 1.256 0 0 1-.35.361.51.51 0 0 1-.261.061Zm-10.418-1.605h-3.205v.381h3.205v-.381Z" fill="#fff"/></svg>