<svg width="51" height="28" viewBox="0 0 51 28" fill="none" xmlns="http://www.w3.org/2000/svg">
<path d="M0.5 3.5C0.5 1.84315 1.84315 0.5 3.5 0.5H47.5C49.1569 0.5 50.5 1.84315 50.5 3.5V10.5C50.5 12.1569 49.1569 13.5 47.5 13.5H3.5C1.84315 13.5 0.5 12.1569 0.5 10.5V3.5Z" fill="#BBBBBB"/>
<path d="M13.6303 9.13203C13.8383 9.13203 14.0236 9.09736 14.1863 9.02803C14.3516 8.9587 14.4903 8.86136 14.6023 8.73603C14.7143 8.6107 14.7996 8.4587 14.8583 8.28003C14.9196 8.10136 14.9503 7.90136 14.9503 7.68003V4.21603H16.0263V7.68003C16.0263 8.02403 15.9703 8.3427 15.8583 8.63603C15.7489 8.9267 15.5903 9.1787 15.3823 9.39203C15.1769 9.6027 14.9263 9.76803 14.6303 9.88803C14.3343 10.0053 14.0009 10.064 13.6303 10.064C13.2569 10.064 12.9223 10.0053 12.6263 9.88803C12.3303 9.76803 12.0783 9.6027 11.8703 9.39203C11.6649 9.1787 11.5063 8.9267 11.3943 8.63603C11.2849 8.3427 11.2303 8.02403 11.2303 7.68003V4.21603H12.3063V7.67603C12.3063 7.89736 12.3356 8.09736 12.3943 8.27603C12.4556 8.4547 12.5423 8.60803 12.6543 8.73603C12.7689 8.86136 12.9076 8.9587 13.0703 9.02803C13.2356 9.09736 13.4223 9.13203 13.6303 9.13203ZM17.755 6.40003C17.8376 6.31736 17.9243 6.24136 18.015 6.17203C18.1083 6.10003 18.2056 6.04003 18.307 5.99203C18.411 5.94136 18.5216 5.9027 18.639 5.87603C18.7563 5.8467 18.8843 5.83203 19.023 5.83203C19.247 5.83203 19.4456 5.8707 19.619 5.94803C19.7923 6.0227 19.9363 6.12936 20.051 6.26803C20.1683 6.40403 20.2563 6.56803 20.315 6.76003C20.3763 6.94936 20.407 7.1587 20.407 7.38803V10H19.419V7.38803C19.419 7.13736 19.3616 6.94403 19.247 6.80803C19.1323 6.66936 18.9576 6.60003 18.723 6.60003C18.5523 6.60003 18.3923 6.6387 18.243 6.71603C18.0936 6.79336 17.9523 6.8987 17.819 7.03203V10H16.831V5.89603H17.435C17.563 5.89603 17.647 5.95603 17.687 6.07603L17.755 6.40003ZM22.2506 5.89603V10H21.2586V5.89603H22.2506ZM22.3866 4.70003C22.3866 4.78536 22.3693 4.86536 22.3346 4.94003C22.2999 5.0147 22.2533 5.08003 22.1946 5.13603C22.1386 5.19203 22.0719 5.23736 21.9946 5.27203C21.9173 5.30403 21.8346 5.32003 21.7466 5.32003C21.6613 5.32003 21.5799 5.30403 21.5026 5.27203C21.4279 5.23736 21.3626 5.19203 21.3066 5.13603C21.2506 5.08003 21.2053 5.0147 21.1706 4.94003C21.1386 4.86536 21.1226 4.78536 21.1226 4.70003C21.1226 4.61203 21.1386 4.52936 21.1706 4.45203C21.2053 4.3747 21.2506 4.30803 21.3066 4.25203C21.3626 4.19603 21.4279 4.15203 21.5026 4.12003C21.5799 4.08536 21.6613 4.06803 21.7466 4.06803C21.8346 4.06803 21.9173 4.08536 21.9946 4.12003C22.0719 4.15203 22.1386 4.19603 22.1946 4.25203C22.2533 4.30803 22.2999 4.3747 22.3346 4.45203C22.3693 4.52936 22.3866 4.61203 22.3866 4.70003ZM24.1258 8.93603C24.2378 9.07203 24.3592 9.16803 24.4898 9.22403C24.6232 9.28003 24.7672 9.30803 24.9218 9.30803C25.0712 9.30803 25.2058 9.28003 25.3258 9.22403C25.4458 9.16803 25.5472 9.0827 25.6298 8.96803C25.7152 8.85336 25.7805 8.70936 25.8258 8.53603C25.8712 8.36003 25.8938 8.15336 25.8938 7.91603C25.8938 7.67603 25.8738 7.47336 25.8338 7.30803C25.7965 7.14003 25.7418 7.00403 25.6698 6.90003C25.5978 6.79603 25.5098 6.72003 25.4058 6.67203C25.3045 6.62403 25.1885 6.60003 25.0578 6.60003C24.8525 6.60003 24.6778 6.64403 24.5338 6.73203C24.3898 6.81736 24.2538 6.9387 24.1258 7.09603V8.93603ZM24.0738 6.45603C24.2418 6.2667 24.4325 6.11336 24.6458 5.99603C24.8592 5.8787 25.1098 5.82003 25.3978 5.82003C25.6218 5.82003 25.8258 5.8667 26.0098 5.96003C26.1965 6.05336 26.3565 6.18936 26.4898 6.36803C26.6258 6.54403 26.7298 6.7627 26.8018 7.02403C26.8765 7.2827 26.9138 7.58003 26.9138 7.91603C26.9138 8.2227 26.8725 8.5067 26.7898 8.76803C26.7072 9.02936 26.5885 9.25603 26.4338 9.44803C26.2818 9.64003 26.0965 9.7907 25.8778 9.90003C25.6618 10.0067 25.4192 10.06 25.1498 10.06C24.9205 10.06 24.7245 10.0253 24.5618 9.95603C24.3992 9.88403 24.2538 9.78536 24.1258 9.66003V11.34H23.1378V5.89603H23.7418C23.8698 5.89603 23.9538 5.95603 23.9938 6.07603L24.0738 6.45603ZM29.3807 5.83203C29.6847 5.83203 29.9607 5.88136 30.2087 5.98003C30.4594 6.0787 30.6727 6.2187 30.8487 6.40003C31.0274 6.58136 31.1647 6.8027 31.2607 7.06403C31.3567 7.32536 31.4047 7.61736 31.4047 7.94003C31.4047 8.26536 31.3567 8.5587 31.2607 8.82003C31.1647 9.08136 31.0274 9.30403 30.8487 9.48803C30.6727 9.67203 30.4594 9.81336 30.2087 9.91203C29.9607 10.0107 29.6847 10.06 29.3807 10.06C29.0741 10.06 28.7954 10.0107 28.5447 9.91203C28.2941 9.81336 28.0794 9.67203 27.9007 9.48803C27.7247 9.30403 27.5874 9.08136 27.4887 8.82003C27.3927 8.5587 27.3447 8.26536 27.3447 7.94003C27.3447 7.61736 27.3927 7.32536 27.4887 7.06403C27.5874 6.8027 27.7247 6.58136 27.9007 6.40003C28.0794 6.2187 28.2941 6.0787 28.5447 5.98003C28.7954 5.88136 29.0741 5.83203 29.3807 5.83203ZM29.3807 9.30003C29.7221 9.30003 29.9741 9.18536 30.1367 8.95603C30.3021 8.7267 30.3847 8.3907 30.3847 7.94803C30.3847 7.50536 30.3021 7.16803 30.1367 6.93603C29.9741 6.70403 29.7221 6.58803 29.3807 6.58803C29.0341 6.58803 28.7767 6.70536 28.6087 6.94003C28.4434 7.17203 28.3607 7.50803 28.3607 7.94803C28.3607 8.38803 28.4434 8.72403 28.6087 8.95603C28.7767 9.18536 29.0341 9.30003 29.3807 9.30003ZM33.0385 4.05603V10H32.0505V4.05603H33.0385ZM36.0708 8.24803C35.7855 8.26136 35.5455 8.2867 35.3508 8.32403C35.1562 8.3587 35.0002 8.40403 34.8828 8.46003C34.7655 8.51603 34.6815 8.58136 34.6308 8.65603C34.5802 8.7307 34.5548 8.81203 34.5548 8.90003C34.5548 9.07336 34.6055 9.19736 34.7068 9.27203C34.8108 9.3467 34.9455 9.38403 35.1108 9.38403C35.3135 9.38403 35.4882 9.34803 35.6348 9.27603C35.7842 9.20136 35.9295 9.08936 36.0708 8.94003V8.24803ZM33.8068 6.46803C34.2788 6.03603 34.8468 5.82003 35.5108 5.82003C35.7508 5.82003 35.9655 5.86003 36.1548 5.94003C36.3442 6.01736 36.5042 6.1267 36.6348 6.26803C36.7655 6.4067 36.8642 6.57336 36.9308 6.76803C37.0002 6.9627 37.0348 7.17603 37.0348 7.40803V10H36.5868C36.4935 10 36.4215 9.9867 36.3708 9.96003C36.3202 9.9307 36.2802 9.87336 36.2508 9.78803L36.1628 9.49203C36.0588 9.58536 35.9575 9.66803 35.8588 9.74003C35.7602 9.80936 35.6575 9.86803 35.5508 9.91603C35.4442 9.96403 35.3295 10 35.2068 10.024C35.0868 10.0507 34.9535 10.064 34.8068 10.064C34.6335 10.064 34.4735 10.0413 34.3268 9.99603C34.1802 9.94803 34.0535 9.87736 33.9468 9.78403C33.8402 9.6907 33.7575 9.5747 33.6988 9.43603C33.6402 9.29736 33.6108 9.13603 33.6108 8.95203C33.6108 8.84803 33.6282 8.74536 33.6628 8.64403C33.6975 8.54003 33.7535 8.44136 33.8308 8.34803C33.9108 8.2547 34.0135 8.1667 34.1388 8.08403C34.2642 8.00136 34.4175 7.92936 34.5988 7.86803C34.7828 7.8067 34.9962 7.75736 35.2388 7.72003C35.4815 7.68003 35.7588 7.65603 36.0708 7.64803V7.40803C36.0708 7.13336 36.0122 6.9307 35.8948 6.80003C35.7775 6.6667 35.6082 6.60003 35.3868 6.60003C35.2268 6.60003 35.0935 6.6187 34.9868 6.65603C34.8828 6.69336 34.7908 6.73603 34.7108 6.78403C34.6308 6.82936 34.5575 6.8707 34.4908 6.90803C34.4268 6.94536 34.3548 6.96403 34.2748 6.96403C34.2055 6.96403 34.1468 6.9467 34.0988 6.91203C34.0508 6.8747 34.0122 6.83203 33.9828 6.78403L33.8068 6.46803ZM38.7773 6.60803C38.9053 6.3627 39.0573 6.1707 39.2333 6.03203C39.4093 5.8907 39.6173 5.82003 39.8573 5.82003C40.0467 5.82003 40.1987 5.86136 40.3133 5.94403L40.2493 6.68403C40.236 6.73203 40.216 6.7667 40.1893 6.78803C40.1653 6.8067 40.132 6.81603 40.0893 6.81603C40.0493 6.81603 39.9893 6.80936 39.9093 6.79603C39.832 6.7827 39.756 6.77603 39.6813 6.77603C39.572 6.77603 39.4747 6.79203 39.3893 6.82403C39.304 6.85603 39.2267 6.9027 39.1573 6.96403C39.0907 7.0227 39.0307 7.0947 38.9773 7.18003C38.9267 7.26536 38.8787 7.3627 38.8333 7.47203V10H37.8453V5.89603H38.4253C38.5267 5.89603 38.5973 5.9147 38.6373 5.95203C38.6773 5.9867 38.704 6.0507 38.7173 6.14403L38.7773 6.60803Z" fill="black"/>
<path d="M0.5 17.5C0.5 15.8431 1.84315 14.5 3.5 14.5H47.5C49.1569 14.5 50.5 15.8431 50.5 17.5V24.5C50.5 26.1569 49.1569 27.5 47.5 27.5H3.5C1.84315 27.5 0.5 26.1569 0.5 24.5V17.5Z" fill="#BBBBBB"/>
<path d="M13.6303 23.132C13.8383 23.132 14.0236 23.0973 14.1863 23.028C14.3516 22.9587 14.4903 22.8613 14.6023 22.736C14.7143 22.6107 14.7996 22.4587 14.8583 22.28C14.9196 22.1013 14.9503 21.9013 14.9503 21.68V18.216H16.0263V21.68C16.0263 22.024 15.9703 22.3427 15.8583 22.636C15.7489 22.9267 15.5903 23.1787 15.3823 23.392C15.1769 23.6027 14.9263 23.768 14.6303 23.888C14.3343 24.0053 14.0009 24.064 13.6303 24.064C13.2569 24.064 12.9223 24.0053 12.6263 23.888C12.3303 23.768 12.0783 23.6027 11.8703 23.392C11.6649 23.1787 11.5063 22.9267 11.3943 22.636C11.2849 22.3427 11.2303 22.024 11.2303 21.68V18.216H12.3063V21.676C12.3063 21.8973 12.3356 22.0973 12.3943 22.276C12.4556 22.4547 12.5423 22.608 12.6543 22.736C12.7689 22.8613 12.9076 22.9587 13.0703 23.028C13.2356 23.0973 13.4223 23.132 13.6303 23.132ZM17.755 20.4C17.8376 20.3173 17.9243 20.2413 18.015 20.172C18.1083 20.1 18.2056 20.04 18.307 19.992C18.411 19.9413 18.5216 19.9027 18.639 19.876C18.7563 19.8467 18.8843 19.832 19.023 19.832C19.247 19.832 19.4456 19.8707 19.619 19.948C19.7923 20.0227 19.9363 20.1293 20.051 20.268C20.1683 20.404 20.2563 20.568 20.315 20.76C20.3763 20.9493 20.407 21.1587 20.407 21.388V24H19.419V21.388C19.419 21.1373 19.3616 20.944 19.247 20.808C19.1323 20.6693 18.9576 20.6 18.723 20.6C18.5523 20.6 18.3923 20.6387 18.243 20.716C18.0936 20.7933 17.9523 20.8987 17.819 21.032V24H16.831V19.896H17.435C17.563 19.896 17.647 19.956 17.687 20.076L17.755 20.4ZM22.2506 19.896V24H21.2586V19.896H22.2506ZM22.3866 18.7C22.3866 18.7853 22.3693 18.8653 22.3346 18.94C22.2999 19.0147 22.2533 19.08 22.1946 19.136C22.1386 19.192 22.0719 19.2373 21.9946 19.272C21.9173 19.304 21.8346 19.32 21.7466 19.32C21.6613 19.32 21.5799 19.304 21.5026 19.272C21.4279 19.2373 21.3626 19.192 21.3066 19.136C21.2506 19.08 21.2053 19.0147 21.1706 18.94C21.1386 18.8653 21.1226 18.7853 21.1226 18.7C21.1226 18.612 21.1386 18.5293 21.1706 18.452C21.2053 18.3747 21.2506 18.308 21.3066 18.252C21.3626 18.196 21.4279 18.152 21.5026 18.12C21.5799 18.0853 21.6613 18.068 21.7466 18.068C21.8346 18.068 21.9173 18.0853 21.9946 18.12C22.0719 18.152 22.1386 18.196 22.1946 18.252C22.2533 18.308 22.2999 18.3747 22.3346 18.452C22.3693 18.5293 22.3866 18.612 22.3866 18.7ZM24.1258 22.936C24.2378 23.072 24.3592 23.168 24.4898 23.224C24.6232 23.28 24.7672 23.308 24.9218 23.308C25.0712 23.308 25.2058 23.28 25.3258 23.224C25.4458 23.168 25.5472 23.0827 25.6298 22.968C25.7152 22.8533 25.7805 22.7093 25.8258 22.536C25.8712 22.36 25.8938 22.1533 25.8938 21.916C25.8938 21.676 25.8738 21.4733 25.8338 21.308C25.7965 21.14 25.7418 21.004 25.6698 20.9C25.5978 20.796 25.5098 20.72 25.4058 20.672C25.3045 20.624 25.1885 20.6 25.0578 20.6C24.8525 20.6 24.6778 20.644 24.5338 20.732C24.3898 20.8173 24.2538 20.9387 24.1258 21.096V22.936ZM24.0738 20.456C24.2418 20.2667 24.4325 20.1133 24.6458 19.996C24.8592 19.8787 25.1098 19.82 25.3978 19.82C25.6218 19.82 25.8258 19.8667 26.0098 19.96C26.1965 20.0533 26.3565 20.1893 26.4898 20.368C26.6258 20.544 26.7298 20.7627 26.8018 21.024C26.8765 21.2827 26.9138 21.58 26.9138 21.916C26.9138 22.2227 26.8725 22.5067 26.7898 22.768C26.7072 23.0293 26.5885 23.256 26.4338 23.448C26.2818 23.64 26.0965 23.7907 25.8778 23.9C25.6618 24.0067 25.4192 24.06 25.1498 24.06C24.9205 24.06 24.7245 24.0253 24.5618 23.956C24.3992 23.884 24.2538 23.7853 24.1258 23.66V25.34H23.1378V19.896H23.7418C23.8698 19.896 23.9538 19.956 23.9938 20.076L24.0738 20.456ZM29.3807 19.832C29.6847 19.832 29.9607 19.8813 30.2087 19.98C30.4594 20.0787 30.6727 20.2187 30.8487 20.4C31.0274 20.5813 31.1647 20.8027 31.2607 21.064C31.3567 21.3253 31.4047 21.6173 31.4047 21.94C31.4047 22.2653 31.3567 22.5587 31.2607 22.82C31.1647 23.0813 31.0274 23.304 30.8487 23.488C30.6727 23.672 30.4594 23.8133 30.2087 23.912C29.9607 24.0107 29.6847 24.06 29.3807 24.06C29.0741 24.06 28.7954 24.0107 28.5447 23.912C28.2941 23.8133 28.0794 23.672 27.9007 23.488C27.7247 23.304 27.5874 23.0813 27.4887 22.82C27.3927 22.5587 27.3447 22.2653 27.3447 21.94C27.3447 21.6173 27.3927 21.3253 27.4887 21.064C27.5874 20.8027 27.7247 20.5813 27.9007 20.4C28.0794 20.2187 28.2941 20.0787 28.5447 19.98C28.7954 19.8813 29.0741 19.832 29.3807 19.832ZM29.3807 23.3C29.7221 23.3 29.9741 23.1853 30.1367 22.956C30.3021 22.7267 30.3847 22.3907 30.3847 21.948C30.3847 21.5053 30.3021 21.168 30.1367 20.936C29.9741 20.704 29.7221 20.588 29.3807 20.588C29.0341 20.588 28.7767 20.7053 28.6087 20.94C28.4434 21.172 28.3607 21.508 28.3607 21.948C28.3607 22.388 28.4434 22.724 28.6087 22.956C28.7767 23.1853 29.0341 23.3 29.3807 23.3ZM33.0385 18.056V24H32.0505V18.056H33.0385ZM36.0708 22.248C35.7855 22.2613 35.5455 22.2867 35.3508 22.324C35.1562 22.3587 35.0002 22.404 34.8828 22.46C34.7655 22.516 34.6815 22.5813 34.6308 22.656C34.5802 22.7307 34.5548 22.812 34.5548 22.9C34.5548 23.0733 34.6055 23.1973 34.7068 23.272C34.8108 23.3467 34.9455 23.384 35.1108 23.384C35.3135 23.384 35.4882 23.348 35.6348 23.276C35.7842 23.2013 35.9295 23.0893 36.0708 22.94V22.248ZM33.8068 20.468C34.2788 20.036 34.8468 19.82 35.5108 19.82C35.7508 19.82 35.9655 19.86 36.1548 19.94C36.3442 20.0173 36.5042 20.1267 36.6348 20.268C36.7655 20.4067 36.8642 20.5733 36.9308 20.768C37.0002 20.9627 37.0348 21.176 37.0348 21.408V24H36.5868C36.4935 24 36.4215 23.9867 36.3708 23.96C36.3202 23.9307 36.2802 23.8733 36.2508 23.788L36.1628 23.492C36.0588 23.5853 35.9575 23.668 35.8588 23.74C35.7602 23.8093 35.6575 23.868 35.5508 23.916C35.4442 23.964 35.3295 24 35.2068 24.024C35.0868 24.0507 34.9535 24.064 34.8068 24.064C34.6335 24.064 34.4735 24.0413 34.3268 23.996C34.1802 23.948 34.0535 23.8773 33.9468 23.784C33.8402 23.6907 33.7575 23.5747 33.6988 23.436C33.6402 23.2973 33.6108 23.136 33.6108 22.952C33.6108 22.848 33.6282 22.7453 33.6628 22.644C33.6975 22.54 33.7535 22.4413 33.8308 22.348C33.9108 22.2547 34.0135 22.1667 34.1388 22.084C34.2642 22.0013 34.4175 21.9293 34.5988 21.868C34.7828 21.8067 34.9962 21.7573 35.2388 21.72C35.4815 21.68 35.7588 21.656 36.0708 21.648V21.408C36.0708 21.1333 36.0122 20.9307 35.8948 20.8C35.7775 20.6667 35.6082 20.6 35.3868 20.6C35.2268 20.6 35.0935 20.6187 34.9868 20.656C34.8828 20.6933 34.7908 20.736 34.7108 20.784C34.6308 20.8293 34.5575 20.8707 34.4908 20.908C34.4268 20.9453 34.3548 20.964 34.2748 20.964C34.2055 20.964 34.1468 20.9467 34.0988 20.912C34.0508 20.8747 34.0122 20.832 33.9828 20.784L33.8068 20.468ZM38.7773 20.608C38.9053 20.3627 39.0573 20.1707 39.2333 20.032C39.4093 19.8907 39.6173 19.82 39.8573 19.82C40.0467 19.82 40.1987 19.8613 40.3133 19.944L40.2493 20.684C40.236 20.732 40.216 20.7667 40.1893 20.788C40.1653 20.8067 40.132 20.816 40.0893 20.816C40.0493 20.816 39.9893 20.8093 39.9093 20.796C39.832 20.7827 39.756 20.776 39.6813 20.776C39.572 20.776 39.4747 20.792 39.3893 20.824C39.304 20.856 39.2267 20.9027 39.1573 20.964C39.0907 21.0227 39.0307 21.0947 38.9773 21.18C38.9267 21.2653 38.8787 21.3627 38.8333 21.472V24H37.8453V19.896H38.4253C38.5267 19.896 38.5973 19.9147 38.6373 19.952C38.6773 19.9867 38.704 20.0507 38.7173 20.144L38.7773 20.608Z" fill="#0077BB"/>
</svg>
