<svg width="50" height="15" viewBox="0 0 50 15" fill="none" xmlns="http://www.w3.org/2000/svg">
<path d="M0.5 3.5C0.5 1.84315 1.84315 0.5 3.5 0.5H46.5C48.1569 0.5 49.5 1.84315 49.5 3.5V11.5C49.5 13.1569 48.1569 14.5 46.5 14.5H3.5C1.84314 14.5 0.5 13.1569 0.5 11.5V3.5Z" fill="#BBBBBB"/>
<path d="M25.5444 3.77002V11H24.3594V6.33002C24.3594 6.14335 24.3694 5.94169 24.3894 5.72502L22.2044 9.83002C22.1011 10.0267 21.9427 10.125 21.7294 10.125H21.5394C21.3261 10.125 21.1677 10.0267 21.0644 9.83002L18.8544 5.71002C18.8644 5.82002 18.8727 5.92835 18.8794 6.03502C18.8861 6.14169 18.8894 6.24002 18.8894 6.33002V11H17.7044V3.77002H18.7194C18.7794 3.77002 18.8311 3.77169 18.8744 3.77502C18.9177 3.77835 18.9561 3.78669 18.9894 3.80002C19.0261 3.81335 19.0577 3.83502 19.0844 3.86502C19.1144 3.89502 19.1427 3.93502 19.1694 3.98502L21.3344 8.00002C21.3911 8.10669 21.4427 8.21669 21.4894 8.33002C21.5394 8.44335 21.5877 8.56002 21.6344 8.68002C21.6811 8.55669 21.7294 8.43835 21.7794 8.32502C21.8294 8.20835 21.8827 8.09669 21.9394 7.99002L24.0744 3.98502C24.1011 3.93502 24.1294 3.89502 24.1594 3.86502C24.1894 3.83502 24.2211 3.81335 24.2544 3.80002C24.2911 3.78669 24.3311 3.77835 24.3744 3.77502C24.4177 3.77169 24.4694 3.77002 24.5294 3.77002H25.5444ZM30.1113 7.84502C30.1113 7.68502 30.088 7.53502 30.0413 7.39502C29.998 7.25169 29.9313 7.12669 29.8413 7.02002C29.7513 6.91335 29.6363 6.83002 29.4963 6.77002C29.3596 6.70669 29.1996 6.67502 29.0163 6.67502C28.6596 6.67502 28.378 6.77669 28.1713 6.98002C27.968 7.18335 27.838 7.47169 27.7813 7.84502H30.1113ZM27.7563 8.59002C27.7763 8.85335 27.823 9.08169 27.8963 9.27502C27.9696 9.46502 28.0663 9.62335 28.1863 9.75002C28.3063 9.87335 28.448 9.96669 28.6113 10.03C28.778 10.09 28.9613 10.12 29.1613 10.12C29.3613 10.12 29.533 10.0967 29.6763 10.05C29.823 10.0033 29.9496 9.95169 30.0563 9.89502C30.1663 9.83835 30.2613 9.78669 30.3413 9.74002C30.4246 9.69335 30.5046 9.67002 30.5813 9.67002C30.6846 9.67002 30.7613 9.70835 30.8113 9.78502L31.1663 10.235C31.0296 10.395 30.8763 10.53 30.7063 10.64C30.5363 10.7467 30.358 10.8333 30.1713 10.9C29.988 10.9633 29.7996 11.0083 29.6063 11.035C29.4163 11.0617 29.2313 11.075 29.0513 11.075C28.6946 11.075 28.363 11.0167 28.0563 10.9C27.7496 10.78 27.483 10.605 27.2563 10.375C27.0296 10.1417 26.8513 9.85502 26.7213 9.51502C26.5913 9.17169 26.5263 8.77502 26.5263 8.32502C26.5263 7.97502 26.583 7.64669 26.6963 7.34002C26.8096 7.03002 26.9713 6.76169 27.1813 6.53502C27.3946 6.30502 27.653 6.12335 27.9563 5.99002C28.263 5.85669 28.608 5.79002 28.9913 5.79002C29.3146 5.79002 29.613 5.84169 29.8863 5.94502C30.1596 6.04835 30.3946 6.20002 30.5913 6.40002C30.788 6.59669 30.9413 6.84002 31.0513 7.13002C31.1646 7.41669 31.2213 7.74502 31.2213 8.11502C31.2213 8.30169 31.2013 8.42835 31.1613 8.49502C31.1213 8.55835 31.0446 8.59002 30.9313 8.59002H27.7563ZM33.3031 6.50002C33.4064 6.39669 33.5148 6.30169 33.6281 6.21502C33.7448 6.12502 33.8664 6.05002 33.9931 5.99002C34.1231 5.92669 34.2614 5.87835 34.4081 5.84502C34.5548 5.80835 34.7148 5.79002 34.8881 5.79002C35.1681 5.79002 35.4164 5.83835 35.6331 5.93502C35.8498 6.02835 36.0298 6.16169 36.1731 6.33502C36.3198 6.50502 36.4298 6.71002 36.5031 6.95002C36.5798 7.18669 36.6181 7.44835 36.6181 7.73502V11H35.3831V7.73502C35.3831 7.42169 35.3114 7.18002 35.1681 7.01002C35.0248 6.83669 34.8064 6.75002 34.5131 6.75002C34.2998 6.75002 34.0998 6.79835 33.9131 6.89502C33.7264 6.99169 33.5498 7.12335 33.3831 7.29002V11H32.1481V5.87002H32.9031C33.0631 5.87002 33.1681 5.94502 33.2181 6.09502L33.3031 6.50002ZM42.2126 5.87002V11H41.4576C41.2943 11 41.191 10.925 41.1476 10.775L41.0626 10.365C40.8526 10.5783 40.621 10.7517 40.3676 10.885C40.1143 11.015 39.816 11.08 39.4726 11.08C39.1926 11.08 38.9443 11.0333 38.7276 10.94C38.5143 10.8433 38.3343 10.7083 38.1876 10.535C38.041 10.3617 37.9293 10.1567 37.8526 9.92002C37.7793 9.68002 37.7426 9.41669 37.7426 9.13002V5.87002H38.9776V9.13002C38.9776 9.44335 39.0493 9.68669 39.1926 9.86002C39.3393 10.03 39.5576 10.115 39.8476 10.115C40.061 10.115 40.261 10.0683 40.4476 9.97502C40.6343 9.87835 40.811 9.74669 40.9776 9.58002V5.87002H42.2126Z" fill="black"/>
<path d="M11.0566 4.83896L13.125 5.91513V3.75H6.21356C5.88733 3.75 5.625 3.94939 5.625 4.19734V8.36912L7.04092 8.67331C7.11491 8.68865 7.1889 8.65542 7.21244 8.60174L7.56558 7.63037C7.58913 7.56135 7.69675 7.53067 7.77747 7.57157L11.1642 9.34305C11.292 9.40951 11.1979 9.56288 11.0499 9.52965L8.44002 8.97495C8.36603 8.95961 8.28868 8.99284 8.27186 9.04908L7.92545 10.0205C7.90191 10.0895 7.79092 10.1201 7.71357 10.0792L5.625 8.98006V11.25H12.4893C12.8391 11.25 13.1216 11.0327 13.1216 10.7694V6.53885L11.7225 6.24233C11.6485 6.22699 11.5746 6.26022 11.5544 6.31391L11.1911 7.28783C11.1642 7.35685 11.06 7.38497 10.9793 7.34662L7.58913 5.5726C7.46132 5.50613 7.55549 5.35276 7.70348 5.38599L10.3133 5.9407C10.3873 5.95603 10.4613 5.9228 10.4815 5.86912L10.8447 4.89519C10.8716 4.82873 10.9759 4.79806 11.0566 4.83896Z" fill="black"/>
</svg>
