<svg width="13" height="26" viewBox="0 0 13 26" fill="none" xmlns="http://www.w3.org/2000/svg">
<path fill-rule="evenodd" clip-rule="evenodd" d="M9.23729 8.39185L8.38312 9.24603L6.888 7.75091L7.74218 6.89674L9.23729 8.39185Z" fill="#BBBBBB"/>
<path fill-rule="evenodd" clip-rule="evenodd" d="M11.4407 9.74138L9.66498 7.96567C9.42909 7.72977 9.0467 7.72977 8.81081 7.96567L7.95663 8.81984C7.72073 9.05574 7.72073 9.43813 7.95663 9.67402L9.73234 11.4497C10.2041 11.9218 10.9695 11.9218 11.4413 11.4497C11.9124 10.9782 11.9121 10.2132 11.4407 9.74138Z" fill="#BBBBBB"/>
<path fill-rule="evenodd" clip-rule="evenodd" d="M0.990936 5.07753C0.990936 2.82555 2.81653 0.999954 5.06851 0.999954C7.32049 0.999954 9.14608 2.82555 9.14608 5.07753C9.14608 7.32952 7.32049 9.15511 5.06851 9.15511C2.81653 9.15511 0.990936 7.32952 0.990936 5.07753Z" fill="#BBBBBB"/>
<path fill-rule="evenodd" clip-rule="evenodd" d="M2.19911 5.07754C2.19911 3.49281 3.48378 2.20813 5.06851 2.20813C6.65324 2.20813 7.93791 3.49281 7.93791 5.07754C7.93791 6.66227 6.65324 7.94695 5.06851 7.94695C3.48378 7.94695 2.19911 6.66227 2.19911 5.07754Z" fill="black"/>
<path fill-rule="evenodd" clip-rule="evenodd" d="M9.24278 21.3918L8.38861 22.246L6.89349 20.7509L7.74767 19.8967L9.24278 21.3918Z" fill="#0077BB"/>
<path fill-rule="evenodd" clip-rule="evenodd" d="M11.4462 22.7414L9.67048 20.9656C9.43459 20.7298 9.0522 20.7298 8.81631 20.9656L7.96213 21.8198C7.72623 22.0557 7.72623 22.4381 7.96213 22.674L9.73784 24.4497C10.2096 24.9218 10.975 24.9218 11.4468 24.4497C11.9179 23.9782 11.9176 23.2132 11.4462 22.7414Z" fill="#0077BB"/>
<path fill-rule="evenodd" clip-rule="evenodd" d="M0.996429 18.0775C0.996429 15.8255 2.82202 13.9999 5.074 13.9999C7.32598 13.9999 9.15157 15.8255 9.15157 18.0775C9.15157 20.3295 7.32598 22.1551 5.074 22.1551C2.82202 22.1551 0.996429 20.3295 0.996429 18.0775Z" fill="#0077BB"/>
<path fill-rule="evenodd" clip-rule="evenodd" d="M2.20461 18.0775C2.20461 16.4928 3.48928 15.2081 5.07401 15.2081C6.65874 15.2081 7.94341 16.4928 7.94341 18.0775C7.94341 19.6622 6.65874 20.9469 5.07401 20.9469C3.48928 20.9469 2.20461 19.6622 2.20461 18.0775Z" fill="black"/>
</svg>
